G04 MADE WITH FRITZING*
G04 WWW.FRITZING.ORG*
G04 DOUBLE SIDED*
G04 HOLES PLATED*
G04 CONTOUR ON CENTER OF CONTOUR VECTOR*
%ASAXBY*%
%FSLAX23Y23*%
%MOIN*%
%OFA0B0*%
%SFA1.0B1.0*%
%ADD10C,0.088000*%
%ADD11C,0.049370*%
%ADD12C,0.135984*%
%LNMASK1*%
G90*
G70*
G54D10*
X2870Y205D03*
X2970Y205D03*
X3070Y205D03*
X3170Y205D03*
X3270Y205D03*
X3370Y205D03*
X3470Y205D03*
X3570Y205D03*
X2720Y205D03*
X2620Y205D03*
X2520Y205D03*
X2420Y205D03*
X2320Y205D03*
X2220Y205D03*
X2120Y205D03*
X2020Y205D03*
X1170Y205D03*
X1270Y205D03*
X1370Y205D03*
X1470Y205D03*
X1570Y205D03*
X1670Y205D03*
X1770Y205D03*
X1870Y205D03*
X1020Y205D03*
X920Y205D03*
X820Y205D03*
X720Y205D03*
X620Y205D03*
X520Y205D03*
X420Y205D03*
X320Y205D03*
X2870Y1105D03*
X2970Y1105D03*
X3070Y1105D03*
X3170Y1105D03*
X3270Y1105D03*
X3370Y1105D03*
X3470Y1105D03*
X3570Y1105D03*
X2720Y1105D03*
X2620Y1105D03*
X2520Y1105D03*
X2420Y1105D03*
X2320Y1105D03*
X2220Y1105D03*
X2120Y1105D03*
X2020Y1105D03*
X1170Y1105D03*
X1270Y1105D03*
X1370Y1105D03*
X1470Y1105D03*
X1570Y1105D03*
X1670Y1105D03*
X1770Y1105D03*
X1870Y1105D03*
X1020Y1105D03*
X920Y1105D03*
X820Y1105D03*
X720Y1105D03*
X620Y1105D03*
X520Y1105D03*
X420Y1105D03*
X320Y1105D03*
X3770Y305D03*
X3770Y405D03*
X3770Y505D03*
X3770Y605D03*
X3770Y705D03*
X3770Y805D03*
X3770Y905D03*
X3770Y1005D03*
X120Y305D03*
X120Y405D03*
X120Y505D03*
X120Y605D03*
X120Y705D03*
X120Y805D03*
X120Y905D03*
X120Y1005D03*
G54D11*
X3070Y505D03*
X2520Y505D03*
X1370Y505D03*
X820Y505D03*
X2870Y305D03*
X2720Y305D03*
X1170Y305D03*
X1020Y305D03*
X2970Y405D03*
X2620Y405D03*
X1270Y405D03*
X920Y405D03*
X3170Y605D03*
X2420Y605D03*
X1470Y605D03*
X720Y605D03*
X3270Y705D03*
X2320Y705D03*
X1570Y705D03*
X620Y705D03*
X3370Y805D03*
X2220Y805D03*
X1670Y805D03*
X520Y805D03*
X3470Y905D03*
X2120Y905D03*
X1770Y905D03*
X420Y905D03*
X3570Y1005D03*
X2020Y1005D03*
X1870Y1005D03*
X320Y1005D03*
G54D12*
X3770Y1180D03*
X3770Y130D03*
X120Y1180D03*
X120Y130D03*
G04 End of Mask1*
M02*