G04 MADE WITH FRITZING*
G04 WWW.FRITZING.ORG*
G04 DOUBLE SIDED*
G04 HOLES PLATED*
G04 CONTOUR ON CENTER OF CONTOUR VECTOR*
%ASAXBY*%
%FSLAX23Y23*%
%MOIN*%
%OFA0B0*%
%SFA1.0B1.0*%
%ADD10C,0.078000*%
%ADD11C,0.039370*%
%ADD12C,0.048000*%
%LNCOPPER1*%
G90*
G70*
G54D10*
X2870Y205D03*
X2970Y205D03*
X3070Y205D03*
X3170Y205D03*
X3270Y205D03*
X3370Y205D03*
X3470Y205D03*
X3570Y205D03*
X2720Y205D03*
X2620Y205D03*
X2520Y205D03*
X2420Y205D03*
X2320Y205D03*
X2220Y205D03*
X2120Y205D03*
X2020Y205D03*
X1170Y205D03*
X1270Y205D03*
X1370Y205D03*
X1470Y205D03*
X1570Y205D03*
X1670Y205D03*
X1770Y205D03*
X1870Y205D03*
X1020Y205D03*
X920Y205D03*
X820Y205D03*
X720Y205D03*
X620Y205D03*
X520Y205D03*
X420Y205D03*
X320Y205D03*
X2870Y1105D03*
X2970Y1105D03*
X3070Y1105D03*
X3170Y1105D03*
X3270Y1105D03*
X3370Y1105D03*
X3470Y1105D03*
X3570Y1105D03*
X2720Y1105D03*
X2620Y1105D03*
X2520Y1105D03*
X2420Y1105D03*
X2320Y1105D03*
X2220Y1105D03*
X2120Y1105D03*
X2020Y1105D03*
X1170Y1105D03*
X1270Y1105D03*
X1370Y1105D03*
X1470Y1105D03*
X1570Y1105D03*
X1670Y1105D03*
X1770Y1105D03*
X1870Y1105D03*
X1020Y1105D03*
X920Y1105D03*
X820Y1105D03*
X720Y1105D03*
X620Y1105D03*
X520Y1105D03*
X420Y1105D03*
X320Y1105D03*
X3770Y305D03*
X3770Y405D03*
X3770Y505D03*
X3770Y605D03*
X3770Y705D03*
X3770Y805D03*
X3770Y905D03*
X3770Y1005D03*
X120Y305D03*
X120Y405D03*
X120Y505D03*
X120Y605D03*
X120Y705D03*
X120Y805D03*
X120Y905D03*
X120Y1005D03*
G54D11*
X3070Y505D03*
X2520Y505D03*
X1370Y505D03*
X820Y505D03*
X2870Y305D03*
X2720Y305D03*
X1170Y305D03*
X1020Y305D03*
X2970Y405D03*
X2620Y405D03*
X1270Y405D03*
X920Y405D03*
X3170Y605D03*
X2420Y605D03*
X1470Y605D03*
X720Y605D03*
X3270Y705D03*
X2320Y705D03*
X1570Y705D03*
X620Y705D03*
X3370Y805D03*
X2220Y805D03*
X1670Y805D03*
X520Y805D03*
X3470Y905D03*
X2120Y905D03*
X1770Y905D03*
X420Y905D03*
X3570Y1005D03*
X2020Y1005D03*
X1870Y1005D03*
X320Y1005D03*
G54D12*
X3570Y975D02*
X3570Y247D01*
D02*
X2020Y975D02*
X2020Y247D01*
D02*
X1870Y975D02*
X1870Y247D01*
D02*
X320Y975D02*
X320Y247D01*
D02*
X3570Y1064D02*
X3570Y1035D01*
D02*
X2020Y1064D02*
X2020Y1035D01*
D02*
X1870Y1064D02*
X1870Y1035D01*
D02*
X320Y1064D02*
X320Y1035D01*
D02*
X3470Y935D02*
X3470Y1064D01*
D02*
X2120Y935D02*
X2120Y1064D01*
D02*
X1770Y935D02*
X1770Y1064D01*
D02*
X420Y935D02*
X420Y1064D01*
D02*
X3470Y247D02*
X3470Y875D01*
D02*
X2120Y247D02*
X2120Y875D01*
D02*
X1770Y247D02*
X1770Y875D01*
D02*
X420Y247D02*
X420Y875D01*
D02*
X3370Y775D02*
X3370Y247D01*
D02*
X2220Y775D02*
X2220Y247D01*
D02*
X1670Y775D02*
X1670Y247D01*
D02*
X520Y775D02*
X520Y247D01*
D02*
X3370Y835D02*
X3370Y1064D01*
D02*
X2220Y835D02*
X2220Y1064D01*
D02*
X1670Y835D02*
X1670Y1064D01*
D02*
X520Y835D02*
X520Y1064D01*
D02*
X3270Y1064D02*
X3270Y735D01*
D02*
X2320Y1064D02*
X2320Y735D01*
D02*
X1570Y1064D02*
X1570Y735D01*
D02*
X620Y1064D02*
X620Y735D01*
D02*
X3270Y675D02*
X3270Y247D01*
D02*
X2320Y675D02*
X2320Y247D01*
D02*
X1570Y675D02*
X1570Y247D01*
D02*
X620Y675D02*
X620Y247D01*
D02*
X3170Y635D02*
X3170Y1064D01*
D02*
X2420Y635D02*
X2420Y1064D01*
D02*
X1470Y635D02*
X1470Y1064D01*
D02*
X720Y635D02*
X720Y1064D01*
D02*
X3170Y575D02*
X3170Y247D01*
D02*
X2420Y575D02*
X2420Y247D01*
D02*
X1470Y575D02*
X1470Y247D01*
D02*
X720Y575D02*
X720Y247D01*
D02*
X3070Y535D02*
X3070Y1064D01*
D02*
X2520Y535D02*
X2520Y1064D01*
D02*
X1370Y535D02*
X1370Y1064D01*
D02*
X820Y535D02*
X820Y1064D01*
D02*
X3070Y475D02*
X3070Y247D01*
D02*
X2520Y475D02*
X2520Y247D01*
D02*
X1370Y475D02*
X1370Y247D01*
D02*
X820Y475D02*
X820Y247D01*
D02*
X2970Y375D02*
X2970Y247D01*
D02*
X2620Y375D02*
X2620Y247D01*
D02*
X1270Y375D02*
X1270Y247D01*
D02*
X920Y375D02*
X920Y247D01*
D02*
X2870Y275D02*
X2870Y247D01*
D02*
X2720Y275D02*
X2720Y247D01*
D02*
X1170Y275D02*
X1170Y247D01*
D02*
X1020Y275D02*
X1020Y247D01*
D02*
X2970Y435D02*
X2970Y1064D01*
D02*
X2620Y435D02*
X2620Y1064D01*
D02*
X1270Y435D02*
X1270Y1064D01*
D02*
X920Y435D02*
X920Y1064D01*
D02*
X2870Y335D02*
X2870Y1064D01*
D02*
X2720Y335D02*
X2720Y1064D01*
D02*
X1170Y335D02*
X1170Y1064D01*
D02*
X1020Y335D02*
X1020Y1064D01*
G04 End of Copper1*
M02*