; NON-PLATED HOLES START AT T1
; THROUGH (PLATED) HOLES START AT T100
M48
INCH
T1C0.125984
T100C0.015748
T101C0.038000
%
T1
X037695Y001302
X037695Y011802
X001195Y011802
X001195Y001302
T100
X018695Y010052
X011695Y003052
X027195Y003052
X013695Y005052
X008195Y005052
X031695Y006052
X026195Y004052
X005195Y008052
X022195Y008052
X010195Y003052
X004195Y009052
X014695Y006052
X024195Y006052
X035695Y010052
X033695Y008052
X030695Y005052
X017695Y009052
X016695Y008052
X009195Y004052
X020195Y010052
X025195Y005052
X003195Y010052
X015695Y007052
X032695Y007052
X028695Y003052
X034695Y009052
X021195Y009052
X006195Y007052
X007195Y006052
X023195Y007052
X012695Y004052
X029695Y004052
T101
X037695Y009053
X007195Y011052
X008195Y002052
X023195Y002052
X028695Y002052
X037695Y007053
X031695Y002052
X009195Y002052
X026195Y011052
X001195Y009053
X023195Y011052
X024195Y002052
X033695Y002052
X034695Y011052
X037695Y003052
X025195Y011052
X008195Y011052
X024195Y011052
X031695Y011052
X020195Y011052
X001195Y006053
X015695Y002052
X037695Y004052
X030695Y011052
X029695Y002052
X017695Y011052
X034695Y002052
X001195Y003052
X021195Y002052
X037695Y008053
X022195Y002052
X026195Y002052
X028695Y011052
X032695Y002052
X029695Y011052
X035695Y011052
X033695Y011052
X037695Y010053
X027195Y002052
X012695Y011052
X006195Y002052
X005195Y002052
X037695Y005053
X025195Y002052
X009195Y011052
X022195Y011052
X037695Y006053
X013695Y011052
X021195Y011052
X032695Y011052
X015695Y011052
X007195Y002052
X016695Y002052
X001195Y005053
X011695Y011052
X010195Y002052
X017695Y002052
X001195Y007053
X035695Y002052
X016695Y011052
X012695Y002052
X004195Y011052
X013695Y002052
X006195Y011052
X014695Y002052
X030695Y002052
X010195Y011052
X001195Y004052
X001195Y008053
X001195Y010053
X011695Y002052
X020195Y002052
X014695Y011052
X004195Y002052
X005195Y011052
X018695Y002052
X027195Y011052
X003195Y011052
X018695Y011052
X003195Y002052
T00
M30
