; NON-PLATED HOLES START AT T1
; THROUGH (PLATED) HOLES START AT T100
M48
INCH
T1C0.125984
T100C0.038000
T101C0.015748
%
T1
X001236Y001534
X037736Y012034
X037736Y001534
X001236Y012034
T100
X014736Y011784
X013736Y001784
X034736Y011784
X031736Y001784
X001236Y009284
X007236Y001784
X011736Y011784
X015736Y001784
X021236Y011784
X001236Y004284
X001236Y010284
X032736Y011784
X028736Y011784
X026236Y011784
X037736Y008284
X033736Y011784
X025236Y001784
X023236Y001784
X023236Y011784
X012736Y001784
X037736Y004284
X027236Y011784
X005236Y011784
X006236Y001784
X001236Y008284
X016736Y011784
X016736Y001784
X018736Y011784
X037736Y007284
X015736Y011784
X030736Y011784
X034736Y001784
X004236Y001784
X021236Y001784
X037736Y010284
X010236Y001784
X024236Y011784
X017736Y001784
X024236Y001784
X004236Y011784
X035736Y011784
X037736Y003284
X014736Y001784
X028736Y001784
X022236Y011784
X020236Y011784
X025236Y011784
X009236Y001784
X001236Y003284
X037736Y006284
X010236Y011784
X003236Y001784
X008236Y001784
X003236Y011784
X009236Y011784
X005236Y001784
X001236Y005284
X018736Y001784
X030736Y001784
X007236Y011784
X027236Y001784
X012736Y011784
X029736Y001784
X035736Y001784
X013736Y011784
X033736Y001784
X001236Y007284
X032736Y001784
X001236Y006284
X031736Y011784
X020236Y001784
X037736Y009284
X017736Y011784
X006236Y011784
X037736Y005284
X029736Y011784
X008236Y011784
X026236Y001784
X022236Y001784
X011736Y001784
T101
X032736Y007284
X012736Y004284
X007236Y006284
X011736Y003284
X031736Y006284
X014736Y006284
X015736Y007284
X008236Y005284
X017736Y009284
X026236Y004284
X010236Y003284
X035736Y010284
X023236Y007284
X034736Y009284
X025236Y005284
X029736Y004284
X024236Y006284
X018736Y010284
X003236Y010284
X022236Y008284
X009236Y004284
X027236Y003284
X005236Y008284
X016736Y008284
X006236Y007284
X020236Y010284
X013736Y005284
X021236Y009284
X030736Y005284
X004236Y009284
X033736Y008284
X028736Y003284
T00
M30
