<?xml version='1.0' encoding='UTF-8' standalone='no'?>
<!-- Created with Fritzing (http://www.fritzing.org/) -->
<svg xmlns="http://www.w3.org/2000/svg" viewBox="0 0 280.33 95.3841"  xmlns:svg="http://www.w3.org/2000/svg" baseProfile="tiny" x="0in" y="0in" version="1.2" height="1.32478in" width="3.89348in">
 <g transform="matrix(-1, 0, 0, 1, 280.33, 0)">
  <g partID="855688770">
   <g  id="board">
    <rect  id="boardoutline" stroke-width="0.5" x="0.288" fill-opacity="0.5" y="0.288" stroke="black" fill="none" height="94.8081" width="279.754"/>
   </g>
  </g>
  <g partID="857381792">
   <g transform="translate(5.3672,34.1627)">
    <g  id="copper1">
     <g  id="copper0">
      <circle r="2.088"  id="connector0pin" stroke-width="2.16" cx="5.04" cy="5.04" stroke="black" fill="black"/>
      <circle r="2.088"  id="connector1pin" stroke-width="2.16" cx="5.04" cy="12.24" stroke="black" fill="black"/>
     </g>
    </g>
   </g>
  </g>
  <g partID="857381762">
   <g transform="translate(5.3672,48.5627)">
    <g  id="copper1">
     <g  id="copper0">
      <circle r="2.088"  id="connector0pin" stroke-width="2.16" cx="5.04" cy="5.04" stroke="black" fill="black"/>
      <circle r="2.088"  id="connector1pin" stroke-width="2.16" cx="5.04" cy="12.24" stroke="black" fill="black"/>
     </g>
    </g>
   </g>
  </g>
  <g partID="857394082">
   <g transform="translate(25.8872,16.8827)">
    <g  id="copper1">
     <g  id="copper0">
      <rect  id="square" stroke-width="2.16" x="2.34" y="2.34" stroke="black" fill="black" height="3.96" width="3.96"/>
      <circle r="1.98"  id="connector0pin" stroke-width="2.16" cx="4.32" cy="4.32" stroke="black" fill="black"/>
      <circle r="1.98"  id="connector15pin" stroke-width="2.16" cx="25.92" cy="4.32" stroke="black" fill="black"/>
      <circle r="1.98"  id="connector1pin" stroke-width="2.16" cx="4.32" cy="11.52" stroke="black" fill="black"/>
      <circle r="1.98"  id="connector14pin" stroke-width="2.16" cx="25.92" cy="11.52" stroke="black" fill="black"/>
      <circle r="1.98"  id="connector2pin" stroke-width="2.16" cx="4.32" cy="18.72" stroke="black" fill="black"/>
      <circle r="1.98"  id="connector13pin" stroke-width="2.16" cx="25.92" cy="18.72" stroke="black" fill="black"/>
      <circle r="1.98"  id="connector3pin" stroke-width="2.16" cx="4.32" cy="25.92" stroke="black" fill="black"/>
      <circle r="1.98"  id="connector12pin" stroke-width="2.16" cx="25.92" cy="25.92" stroke="black" fill="black"/>
      <circle r="1.98"  id="connector4pin" stroke-width="2.16" cx="4.32" cy="33.12" stroke="black" fill="black"/>
      <circle r="1.98"  id="connector11pin" stroke-width="2.16" cx="25.92" cy="33.12" stroke="black" fill="black"/>
      <circle r="1.98"  id="connector5pin" stroke-width="2.16" cx="4.32" cy="40.32" stroke="black" fill="black"/>
      <circle r="1.98"  id="connector10pin" stroke-width="2.16" cx="25.92" cy="40.32" stroke="black" fill="black"/>
      <circle r="1.98"  id="connector6pin" stroke-width="2.16" cx="4.32" cy="47.52" stroke="black" fill="black"/>
      <circle r="1.98"  id="connector9pin" stroke-width="2.16" cx="25.92" cy="47.52" stroke="black" fill="black"/>
      <circle r="1.98"  id="connector7pin" stroke-width="2.16" cx="4.32" cy="54.72" stroke="black" fill="black"/>
      <circle r="1.98"  id="connector8pin" stroke-width="2.16" cx="25.92" cy="54.72" stroke="black" fill="black"/>
     </g>
    </g>
   </g>
  </g>
  <g partID="857385782">
   <g transform="translate(56.5024,9.57392)">
    <g  id="copper1">
     <g  id="copper0">
      <rect  id="square" stroke-width="2.16" x="2.34" y="2.34" stroke="black" fill="black" height="3.96" width="3.96"/>
      <circle r="1.98"  id="connector0pin" stroke-width="2.16" cx="4.32" cy="4.32" stroke="black" fill="black"/>
      <circle r="1.98"  id="connector19pin" stroke-width="2.16" cx="25.92" cy="4.32" stroke="black" fill="black"/>
      <circle r="1.98"  id="connector1pin" stroke-width="2.16" cx="4.32" cy="11.52" stroke="black" fill="black"/>
      <circle r="1.98"  id="connector18pin" stroke-width="2.16" cx="25.92" cy="11.52" stroke="black" fill="black"/>
      <circle r="1.98"  id="connector2pin" stroke-width="2.16" cx="4.32" cy="18.72" stroke="black" fill="black"/>
      <circle r="1.98"  id="connector17pin" stroke-width="2.16" cx="25.92" cy="18.72" stroke="black" fill="black"/>
      <circle r="1.98"  id="connector3pin" stroke-width="2.16" cx="4.32" cy="25.92" stroke="black" fill="black"/>
      <circle r="1.98"  id="connector16pin" stroke-width="2.16" cx="25.92" cy="25.92" stroke="black" fill="black"/>
      <circle r="1.98"  id="connector4pin" stroke-width="2.16" cx="4.32" cy="33.12" stroke="black" fill="black"/>
      <circle r="1.98"  id="connector15pin" stroke-width="2.16" cx="25.92" cy="33.12" stroke="black" fill="black"/>
      <circle r="1.98"  id="connector5pin" stroke-width="2.16" cx="4.32" cy="40.32" stroke="black" fill="black"/>
      <circle r="1.98"  id="connector14pin" stroke-width="2.16" cx="25.92" cy="40.32" stroke="black" fill="black"/>
      <circle r="1.98"  id="connector6pin" stroke-width="2.16" cx="4.32" cy="47.52" stroke="black" fill="black"/>
      <circle r="1.98"  id="connector13pin" stroke-width="2.16" cx="25.92" cy="47.52" stroke="black" fill="black"/>
      <circle r="1.98"  id="connector7pin" stroke-width="2.16" cx="4.32" cy="54.72" stroke="black" fill="black"/>
      <circle r="1.98"  id="connector12pin" stroke-width="2.16" cx="25.92" cy="54.72" stroke="black" fill="black"/>
      <circle r="1.98"  id="connector8pin" stroke-width="2.16" cx="4.32" cy="61.92" stroke="black" fill="black"/>
      <circle r="1.98"  id="connector11pin" stroke-width="2.16" cx="25.92" cy="61.92" stroke="black" fill="black"/>
      <circle r="1.98"  id="connector9pin" stroke-width="2.16" cx="4.32" cy="69.12" stroke="black" fill="black"/>
      <circle r="1.98"  id="connector10pin" stroke-width="2.16" cx="25.92" cy="69.12" stroke="black" fill="black"/>
     </g>
    </g>
   </g>
  </g>
  <g partID="857381842">
   <g transform="translate(112.287,86.7227)">
    <g transform="matrix(0,-1,1,0,0,0)">
     <g  id="copper1">
      <g  id="copper0">
       <rect  id="square" stroke-width="2.16" x="2.34" y="2.34" stroke="black" fill="black" height="3.96" width="3.96"/>
       <circle r="1.98"  id="connector0pin" stroke-width="2.16" cx="4.32" cy="4.32" stroke="black" fill="black"/>
       <circle r="1.98"  id="connector19pin" stroke-width="2.16" cx="25.92" cy="4.32" stroke="black" fill="black"/>
       <circle r="1.98"  id="connector1pin" stroke-width="2.16" cx="4.32" cy="11.52" stroke="black" fill="black"/>
       <circle r="1.98"  id="connector18pin" stroke-width="2.16" cx="25.92" cy="11.52" stroke="black" fill="black"/>
       <circle r="1.98"  id="connector2pin" stroke-width="2.16" cx="4.32" cy="18.72" stroke="black" fill="black"/>
       <circle r="1.98"  id="connector17pin" stroke-width="2.16" cx="25.92" cy="18.72" stroke="black" fill="black"/>
       <circle r="1.98"  id="connector3pin" stroke-width="2.16" cx="4.32" cy="25.92" stroke="black" fill="black"/>
       <circle r="1.98"  id="connector16pin" stroke-width="2.16" cx="25.92" cy="25.92" stroke="black" fill="black"/>
       <circle r="1.98"  id="connector4pin" stroke-width="2.16" cx="4.32" cy="33.12" stroke="black" fill="black"/>
       <circle r="1.98"  id="connector15pin" stroke-width="2.16" cx="25.92" cy="33.12" stroke="black" fill="black"/>
       <circle r="1.98"  id="connector5pin" stroke-width="2.16" cx="4.32" cy="40.32" stroke="black" fill="black"/>
       <circle r="1.98"  id="connector14pin" stroke-width="2.16" cx="25.92" cy="40.32" stroke="black" fill="black"/>
       <circle r="1.98"  id="connector6pin" stroke-width="2.16" cx="4.32" cy="47.52" stroke="black" fill="black"/>
       <circle r="1.98"  id="connector13pin" stroke-width="2.16" cx="25.92" cy="47.52" stroke="black" fill="black"/>
       <circle r="1.98"  id="connector7pin" stroke-width="2.16" cx="4.32" cy="54.72" stroke="black" fill="black"/>
       <circle r="1.98"  id="connector12pin" stroke-width="2.16" cx="25.92" cy="54.72" stroke="black" fill="black"/>
       <circle r="1.98"  id="connector8pin" stroke-width="2.16" cx="4.32" cy="61.92" stroke="black" fill="black"/>
       <circle r="1.98"  id="connector11pin" stroke-width="2.16" cx="25.92" cy="61.92" stroke="black" fill="black"/>
       <circle r="1.98"  id="connector9pin" stroke-width="2.16" cx="4.32" cy="69.12" stroke="black" fill="black"/>
       <circle r="1.98"  id="connector10pin" stroke-width="2.16" cx="25.92" cy="69.12" stroke="black" fill="black"/>
      </g>
     </g>
    </g>
   </g>
  </g>
  <g partID="857381862">
   <g transform="translate(187.167,85.6427)">
    <g transform="matrix(0,-1,1,0,0,0)">
     <g  id="copper1">
      <g  id="copper0">
       <circle r="2.088"  id="connector0pin" stroke-width="2.16" cx="5.04" cy="5.04" stroke="black" fill="black"/>
       <circle r="2.088"  id="connector1pin" stroke-width="2.16" cx="5.04" cy="12.24" stroke="black" fill="black"/>
      </g>
     </g>
    </g>
   </g>
  </g>
  <g partID="857397191">
   <g transform="translate(126.856,40.4515)">
    <g  id="copper1">
     <circle r="1.55905"  id="connector0pin" stroke-width="2.70426" cx="4.15118" cy="4.15118" stroke="black" fill="black"/>
    </g>
   </g>
  </g>
  <g partID="857397311">
   <g transform="translate(134.056,35.0515)">
    <g  id="copper1">
     <circle r="1.55905"  id="connector0pin" stroke-width="2.70426" cx="4.15118" cy="4.15118" stroke="black" fill="black"/>
    </g>
   </g>
  </g>
  <g partID="857397651">
   <g transform="translate(141.256,29.6515)">
    <g  id="copper1">
     <circle r="1.55905"  id="connector0pin" stroke-width="2.70426" cx="4.15118" cy="4.15118" stroke="black" fill="black"/>
    </g>
   </g>
  </g>
  <g partID="857397771">
   <g transform="translate(148.456,24.2515)">
    <g  id="copper1">
     <circle r="1.55905"  id="connector0pin" stroke-width="2.70426" cx="4.15118" cy="4.15118" stroke="black" fill="black"/>
    </g>
   </g>
  </g>
  <g partID="857397891">
   <g transform="translate(155.656,18.8515)">
    <g  id="copper1">
     <circle r="1.55905"  id="connector0pin" stroke-width="2.70426" cx="4.15118" cy="4.15118" stroke="black" fill="black"/>
    </g>
   </g>
  </g>
  <g partID="857398011">
   <g transform="translate(162.856,13.4515)">
    <g  id="copper1">
     <circle r="1.55905"  id="connector0pin" stroke-width="2.70426" cx="4.15118" cy="4.15118" stroke="black" fill="black"/>
    </g>
   </g>
  </g>
  <g partID="857398131">
   <g transform="translate(170.056,8.05152)">
    <g  id="copper1">
     <circle r="1.55905"  id="connector0pin" stroke-width="2.70426" cx="4.15118" cy="4.15118" stroke="black" fill="black"/>
    </g>
   </g>
  </g>
  <g partID="857398251">
   <g transform="translate(177.256,2.65152)">
    <g  id="copper1">
     <circle r="1.55905"  id="connector0pin" stroke-width="2.70426" cx="4.15118" cy="4.15118" stroke="black" fill="black"/>
    </g>
   </g>
  </g>
  <g partID="857399851">
   <g transform="translate(101.656,67.4515)">
    <g  id="copper1">
     <circle r="1.55905"  id="connector0pin" stroke-width="2.70426" cx="4.15118" cy="4.15118" stroke="black" fill="black"/>
    </g>
   </g>
  </g>
  <g partID="857400411">
   <g transform="translate(87.256,9.85152)">
    <g  id="copper1">
     <circle r="1.55905"  id="connector0pin" stroke-width="2.70426" cx="4.15118" cy="4.15118" stroke="black" fill="black"/>
    </g>
   </g>
  </g>
  <g partID="857409642">
   <g transform="translate(92.8472,88.1627)">
    <g transform="matrix(0,-1,1,0,0,0)">
     <g  id="copper1">
      <g  id="copper0">
       <rect  id="rect11" stroke-width="2.16" x="1.98" y="5.58" stroke="black" height="3.96" fill="black" width="3.96"/>
       <circle r="1.98"  id="connector0pin" stroke-width="2.16" cx="3.96" cy="7.56" stroke="black" fill="black"/>
       <circle r="1.98"  id="connector1pin" stroke-width="2.16" cx="11.16" cy="7.56" stroke="black" fill="black"/>
      </g>
     </g>
    </g>
   </g>
  </g>
  <g partID="857381381">
   <g transform="translate(2.472,79.8675)">
    <g  id="copper1">
     <circle r="4.53543"  id="nonconn0" stroke-width="0.72" cx="6.13543" cy="6.13543" stroke="black" fill="black"/>
    </g>
   </g>
  </g>
  <g partID="857381371">
   <g transform="translate(2.472,4.26752)">
    <g  id="copper1">
     <circle r="4.53543"  id="nonconn0" stroke-width="0.72" cx="6.13543" cy="6.13543" stroke="black" fill="black"/>
    </g>
   </g>
  </g>
  <g partID="857381351">
   <g transform="translate(265.272,79.8675)">
    <g  id="copper1">
     <circle r="4.53543"  id="nonconn0" stroke-width="0.72" cx="6.13543" cy="6.13543" stroke="black" fill="black"/>
    </g>
   </g>
  </g>
  <g partID="857381321">
   <g transform="translate(265.272,4.26752)">
    <g  id="copper1">
     <circle r="4.53543"  id="nonconn0" stroke-width="0.72" cx="6.13543" cy="6.13543" stroke="black" fill="black"/>
    </g>
   </g>
  </g>
  <g partID="857379722">
   <g transform="translate(201.567,85.6427)">
    <g transform="matrix(0,-1,1,0,0,0)">
     <g  id="copper1">
      <g  id="copper0">
       <circle r="2.088"  id="connector0pin" stroke-width="2.16" cx="5.04" cy="5.04" stroke="black" fill="black"/>
       <circle r="2.088"  id="connector1pin" stroke-width="2.16" cx="5.04" cy="12.24" stroke="black" fill="black"/>
       <circle r="2.088"  id="connector2pin" stroke-width="2.16" cx="5.04" cy="19.44" stroke="black" fill="black"/>
       <circle r="2.088"  id="connector3pin" stroke-width="2.16" cx="5.04" cy="26.64" stroke="black" fill="black"/>
       <circle r="2.088"  id="connector4pin" stroke-width="2.16" cx="5.04" cy="33.84" stroke="black" fill="black"/>
       <circle r="2.088"  id="connector5pin" stroke-width="2.16" cx="5.04" cy="41.04" stroke="black" fill="black"/>
       <circle r="2.088"  id="connector6pin" stroke-width="2.16" cx="5.04" cy="48.24" stroke="black" fill="black"/>
       <circle r="2.088"  id="connector7pin" stroke-width="2.16" cx="5.04" cy="55.44" stroke="black" fill="black"/>
      </g>
     </g>
    </g>
   </g>
  </g>
 </g>
</svg>
