<?xml version="1.0" encoding="UTF-8" standalone="no"?>
<!-- Created with Fritzing (http://www.fritzing.org/) -->

<svg
   xmlns:dc="http://purl.org/dc/elements/1.1/"
   xmlns:cc="http://creativecommons.org/ns#"
   xmlns:rdf="http://www.w3.org/1999/02/22-rdf-syntax-ns#"
   xmlns:svg="http://www.w3.org/2000/svg"
   xmlns="http://www.w3.org/2000/svg"
   xmlns:sodipodi="http://sodipodi.sourceforge.net/DTD/sodipodi-0.dtd"
   xmlns:inkscape="http://www.inkscape.org/namespaces/inkscape"
   viewBox="0 0 280.25546 95.308595"
   x="0in"
   y="0in"
   version="1.2"
   height="1.3237313in"
   width="3.8924448in"
   id="svg425"
   sodipodi:docname="cnc.svg"
   inkscape:version="0.92.4 (unknown)">
  <metadata
     id="metadata431">
    <rdf:RDF>
      <cc:Work
         rdf:about="">
        <dc:format>image/svg+xml</dc:format>
        <dc:type
           rdf:resource="http://purl.org/dc/dcmitype/StillImage" />
        <dc:title></dc:title>
      </cc:Work>
    </rdf:RDF>
  </metadata>
  <defs
     id="defs429" />
  <sodipodi:namedview
     pagecolor="#ffffff"
     bordercolor="#666666"
     borderopacity="1"
     objecttolerance="10"
     gridtolerance="10"
     guidetolerance="10"
     inkscape:pageopacity="0"
     inkscape:pageshadow="2"
     inkscape:window-width="1920"
     inkscape:window-height="1103"
     id="namedview427"
     showgrid="false"
     inkscape:zoom="2.5659666"
     inkscape:cx="152.82319"
     inkscape:cy="45.780281"
     inkscape:window-x="0"
     inkscape:window-y="27"
     inkscape:window-maximized="1"
     inkscape:current-layer="svg425" />
  <path
     style="display:inline;fill:#000000;stroke:#000000;stroke-width:2.16000009"
     d="m 181.37014,5.2063828 a 1.55905,1.55905 0 0 0 -1.55859,1.5585929 1.55905,1.55905 0 0 0 1.55859,1.558593 1.55905,1.55905 0 0 0 1.5586,-1.558593 1.55905,1.55905 0 0 0 -1.5586,-1.5585929 z M 8.5699594,5.830406 A 4.5354301,4.5354301 0 0 0 4.0348066,10.365559 4.5354301,4.5354301 0 0 0 8.5699594,14.900713 4.5354301,4.5354301 0 0 0 13.105114,10.365559 4.5354301,4.5354301 0 0 0 8.5699594,5.830406 Z m 262.8001306,0 a 4.5354301,4.5354301 0 0 0 -4.53515,4.535153 4.5354301,4.5354301 0 0 0 4.53515,4.535154 4.5354301,4.5354301 0 0 0 4.53516,-4.535154 4.5354301,4.5354301 0 0 0 -4.53516,-4.535153 z m -97.19965,4.775387 a 1.55905,1.55905 0 0 0 -1.56005,1.558593 1.55905,1.55905 0 0 0 1.56005,1.560057 1.55905,1.55905 0 0 0 1.5586,-1.560057 1.55905,1.55905 0 0 0 -1.5586,-1.558593 z M 58.805282,11.875812 v 3.960935 h 3.959471 v -3.960935 z m 23.57957,0 a 1.98,1.98 0 0 0 -1.979001,1.980468 1.98,1.98 0 0 0 1.979001,1.980467 1.98,1.98 0 0 0 1.980471,-1.980467 1.98,1.98 0 0 0 -1.980471,-1.980468 z m 8.985347,0.530273 a 1.55905,1.55905 0 0 0 -1.560051,1.558593 1.55905,1.55905 0 0 0 1.560051,1.558593 1.55905,1.55905 0 0 0 1.558597,-1.558593 1.55905,1.55905 0 0 0 -1.558597,-1.558593 z m 75.599071,3.599119 a 1.55905,1.55905 0 0 0 -1.55858,1.560058 1.55905,1.55905 0 0 0 1.55858,1.558593 1.55905,1.55905 0 0 0 1.56006,-1.558593 1.55905,1.55905 0 0 0 -1.56006,-1.560058 z M 60.78575,19.075515 a 1.98,1.98 0 0 0 -1.980468,1.980467 1.98,1.98 0 0 0 1.980468,1.980468 1.98,1.98 0 0 0 1.979003,-1.980468 1.98,1.98 0 0 0 -1.979003,-1.980467 z m 21.599102,0 a 1.98,1.98 0 0 0 -1.979001,1.980467 1.98,1.98 0 0 0 1.979001,1.980468 1.98,1.98 0 0 0 1.980471,-1.980468 1.98,1.98 0 0 0 -1.980471,-1.980467 z m -54.194786,0.109863 v 3.95947 h 3.95947 v -3.95947 z m 23.579576,0 a 1.98,1.98 0 0 0 -1.979003,1.979003 1.98,1.98 0 0 0 1.979003,1.980467 1.98,1.98 0 0 0 1.980468,-1.980467 1.98,1.98 0 0 0 -1.980468,-1.979003 z M 159.76957,21.40608 a 1.55905,1.55905 0 0 0 -1.55859,1.558593 1.55905,1.55905 0 0 0 1.55859,1.558593 1.55905,1.55905 0 0 0 1.56006,-1.558593 1.55905,1.55905 0 0 0 -1.56006,-1.558593 z m -98.98382,4.870603 a 1.98,1.98 0 0 0 -1.980468,1.979002 1.98,1.98 0 0 0 1.980468,1.980467 1.98,1.98 0 0 0 1.979003,-1.980467 1.98,1.98 0 0 0 -1.979003,-1.979002 z m 21.599102,0 a 1.98,1.98 0 0 0 -1.979001,1.979002 1.98,1.98 0 0 0 1.979001,1.980467 1.98,1.98 0 0 0 1.980471,-1.980467 1.98,1.98 0 0 0 -1.980471,-1.979002 z m -52.214318,0.108398 a 1.98,1.98 0 0 0 -1.980468,1.980468 1.98,1.98 0 0 0 1.980468,1.979002 1.98,1.98 0 0 0 1.979002,-1.979002 1.98,1.98 0 0 0 -1.979002,-1.980468 z m 21.599108,0 a 1.98,1.98 0 0 0 -1.979003,1.980468 1.98,1.98 0 0 0 1.979003,1.979002 1.98,1.98 0 0 0 1.980468,-1.979002 1.98,1.98 0 0 0 -1.980468,-1.980468 z m 100.800228,0.42041 a 1.55905,1.55905 0 0 0 -1.55859,1.560058 1.55905,1.55905 0 0 0 1.55859,1.558592 1.55905,1.55905 0 0 0 1.55859,-1.558592 1.55905,1.55905 0 0 0 -1.55859,-1.560058 z m -7.19971,5.400876 a 1.55905,1.55905 0 0 0 -1.55858,1.558592 1.55905,1.55905 0 0 0 1.55858,1.558594 1.55905,1.55905 0 0 0 1.5586,-1.558594 1.55905,1.55905 0 0 0 -1.5586,-1.558592 z m -84.58441,1.270018 a 1.98,1.98 0 0 0 -1.980468,1.980468 1.98,1.98 0 0 0 1.980468,1.979003 1.98,1.98 0 0 0 1.979003,-1.979003 1.98,1.98 0 0 0 -1.979003,-1.980468 z m 21.599102,0 a 1.98,1.98 0 0 0 -1.979001,1.980468 1.98,1.98 0 0 0 1.979001,1.979003 1.98,1.98 0 0 0 1.980471,-1.979003 1.98,1.98 0 0 0 -1.980471,-1.980468 z m -52.214318,0.108399 a 1.98,1.98 0 0 0 -1.980468,1.980467 1.98,1.98 0 0 0 1.980468,1.979003 1.98,1.98 0 0 0 1.979002,-1.979003 1.98,1.98 0 0 0 -1.979002,-1.980467 z m 21.599108,0 a 1.98,1.98 0 0 0 -1.979003,1.980467 1.98,1.98 0 0 0 1.979003,1.979003 1.98,1.98 0 0 0 1.980468,-1.979003 1.98,1.98 0 0 0 -1.980468,-1.980467 z m -41.39939,3.492185 a 2.0880002,2.0880002 0 0 0 -2.0888661,2.087401 2.0880002,2.0880002 0 0 0 2.0888661,2.088867 2.0880002,2.0880002 0 0 0 2.087401,-2.088867 2.0880002,2.0880002 0 0 0 -2.087401,-2.087401 z m 127.800208,0.528808 a 1.55905,1.55905 0 0 0 -1.56005,1.558593 1.55905,1.55905 0 0 0 1.56005,1.560058 1.55905,1.55905 0 0 0 1.5586,-1.560058 1.55905,1.55905 0 0 0 -1.5586,-1.558593 z m -77.38471,3.070311 a 1.98,1.98 0 0 0 -1.980468,1.980467 1.98,1.98 0 0 0 1.980468,1.979003 1.98,1.98 0 0 0 1.979003,-1.979003 1.98,1.98 0 0 0 -1.979003,-1.980467 z m 21.599102,0 a 1.98,1.98 0 0 0 -1.979001,1.980467 1.98,1.98 0 0 0 1.979001,1.979003 1.98,1.98 0 0 0 1.980471,-1.979003 1.98,1.98 0 0 0 -1.980471,-1.980467 z m -52.214318,0.108399 a 1.98,1.98 0 0 0 -1.980468,1.980467 1.98,1.98 0 0 0 1.980468,1.980468 1.98,1.98 0 0 0 1.979002,-1.980468 1.98,1.98 0 0 0 -1.979002,-1.980467 z m 21.599108,0 a 1.98,1.98 0 0 0 -1.979003,1.980467 1.98,1.98 0 0 0 1.979003,1.980468 1.98,1.98 0 0 0 1.980468,-1.980468 1.98,1.98 0 0 0 -1.980468,-1.980467 z m 79.199658,2.220701 a 1.55905,1.55905 0 0 0 -1.55859,1.560058 1.55905,1.55905 0 0 0 1.55859,1.558593 1.55905,1.55905 0 0 0 1.56005,-1.558593 1.55905,1.55905 0 0 0 -1.56005,-1.560058 z M 10.370252,44.276672 a 2.0880002,2.0880002 0 0 0 -2.0888661,2.088866 2.0880002,2.0880002 0 0 0 2.0888661,2.087401 2.0880002,2.0880002 0 0 0 2.087401,-2.087401 2.0880002,2.0880002 0 0 0 -2.087401,-2.088866 z m 50.415498,3.599119 a 1.98,1.98 0 0 0 -1.980468,1.980468 1.98,1.98 0 0 0 1.980468,1.980467 1.98,1.98 0 0 0 1.979003,-1.980467 1.98,1.98 0 0 0 -1.979003,-1.980468 z m 21.599102,0 a 1.98,1.98 0 0 0 -1.979001,1.980468 1.98,1.98 0 0 0 1.979001,1.980467 1.98,1.98 0 0 0 1.980471,-1.980467 1.98,1.98 0 0 0 -1.980471,-1.980468 z m -52.214318,0.109863 a 1.98,1.98 0 0 0 -1.980468,1.979003 1.98,1.98 0 0 0 1.980468,1.980467 1.98,1.98 0 0 0 1.979002,-1.980467 1.98,1.98 0 0 0 -1.979002,-1.979003 z m 21.599108,0 a 1.98,1.98 0 0 0 -1.979003,1.979003 1.98,1.98 0 0 0 1.979003,1.980467 1.98,1.98 0 0 0 1.980468,-1.980467 1.98,1.98 0 0 0 -1.980468,-1.979003 z m -41.39939,3.490721 a 2.0880002,2.0880002 0 0 0 -2.0888661,2.088866 2.0880002,2.0880002 0 0 0 2.0888661,2.087401 2.0880002,2.0880002 0 0 0 2.087401,-2.087401 2.0880002,2.0880002 0 0 0 -2.087401,-2.088866 z m 50.415498,3.599119 a 1.98,1.98 0 0 0 -1.980468,1.980467 1.98,1.98 0 0 0 1.980468,1.980468 1.98,1.98 0 0 0 1.979003,-1.980468 1.98,1.98 0 0 0 -1.979003,-1.980467 z m 21.599102,0 a 1.98,1.98 0 0 0 -1.979001,1.980467 1.98,1.98 0 0 0 1.979001,1.980468 1.98,1.98 0 0 0 1.980471,-1.980468 1.98,1.98 0 0 0 -1.980471,-1.980467 z m -52.214318,0.109863 a 1.98,1.98 0 0 0 -1.980468,1.979002 1.98,1.98 0 0 0 1.980468,1.980468 1.98,1.98 0 0 0 1.979002,-1.980468 1.98,1.98 0 0 0 -1.979002,-1.979002 z m 21.599108,0 a 1.98,1.98 0 0 0 -1.979003,1.979002 1.98,1.98 0 0 0 1.979003,1.980468 1.98,1.98 0 0 0 1.980468,-1.980468 1.98,1.98 0 0 0 -1.980468,-1.979002 z m -41.39939,3.492185 a 2.0880002,2.0880002 0 0 0 -2.0888661,2.087401 2.0880002,2.0880002 0 0 0 2.0888661,2.087402 2.0880002,2.0880002 0 0 0 2.087401,-2.087402 2.0880002,2.0880002 0 0 0 -2.087401,-2.087401 z m 106.199638,0.106934 a 1.98,1.98 0 0 0 -1.98046,1.980467 1.98,1.98 0 0 0 1.98046,1.980468 1.98,1.98 0 0 0 1.98047,-1.980468 1.98,1.98 0 0 0 -1.98047,-1.980467 z m 7.1997,0 a 1.98,1.98 0 0 0 -1.98046,1.980467 1.98,1.98 0 0 0 1.98046,1.980468 1.98,1.98 0 0 0 1.98047,-1.980468 1.98,1.98 0 0 0 -1.98047,-1.980467 z m 7.19971,0 a 1.98,1.98 0 0 0 -1.97901,1.980467 1.98,1.98 0 0 0 1.97901,1.980468 1.98,1.98 0 0 0 1.98047,-1.980468 1.98,1.98 0 0 0 -1.98047,-1.980467 z m 7.20116,0 a 1.98,1.98 0 0 0 -1.98046,1.980467 1.98,1.98 0 0 0 1.98046,1.980468 1.98,1.98 0 0 0 1.97901,-1.980468 1.98,1.98 0 0 0 -1.97901,-1.980467 z m 7.1997,0 a 1.98,1.98 0 0 0 -1.98046,1.980467 1.98,1.98 0 0 0 1.98046,1.980468 1.98,1.98 0 0 0 1.97901,-1.980468 1.98,1.98 0 0 0 -1.97901,-1.980467 z m 7.19971,0 a 1.98,1.98 0 0 0 -1.98047,1.980467 1.98,1.98 0 0 0 1.98047,1.980468 1.98,1.98 0 0 0 1.98047,-1.980468 1.98,1.98 0 0 0 -1.98047,-1.980467 z m 7.1997,0 a 1.98,1.98 0 0 0 -1.98046,1.980467 1.98,1.98 0 0 0 1.98046,1.980468 1.98,1.98 0 0 0 1.98047,-1.980468 1.98,1.98 0 0 0 -1.98047,-1.980467 z m 7.1997,0 a 1.98,1.98 0 0 0 -1.979,1.980467 1.98,1.98 0 0 0 1.979,1.980468 1.98,1.98 0 0 0 1.98048,-1.980468 1.98,1.98 0 0 0 -1.98048,-1.980467 z m 7.20117,0 a 1.98,1.98 0 0 0 -1.98046,1.980467 1.98,1.98 0 0 0 1.98046,1.980468 1.98,1.98 0 0 0 1.97901,-1.980468 1.98,1.98 0 0 0 -1.97901,-1.980467 z m 7.1997,0 a 1.98,1.98 0 0 0 -1.98046,1.980467 1.98,1.98 0 0 0 1.98046,1.980468 1.98,1.98 0 0 0 1.979,-1.980468 1.98,1.98 0 0 0 -1.979,-1.980467 z M 60.78575,62.276662 a 1.98,1.98 0 0 0 -1.980468,1.979002 1.98,1.98 0 0 0 1.980468,1.980467 1.98,1.98 0 0 0 1.979003,-1.980467 1.98,1.98 0 0 0 -1.979003,-1.979002 z m 21.599102,0 a 1.98,1.98 0 0 0 -1.979001,1.979002 1.98,1.98 0 0 0 1.979001,1.980467 1.98,1.98 0 0 0 1.980471,-1.980467 1.98,1.98 0 0 0 -1.980471,-1.979002 z M 30.170534,62.38506 a 1.98,1.98 0 0 0 -1.980468,1.980467 1.98,1.98 0 0 0 1.980468,1.979003 1.98,1.98 0 0 0 1.979002,-1.979003 1.98,1.98 0 0 0 -1.979002,-1.980467 z m 21.599108,0 a 1.98,1.98 0 0 0 -1.979003,1.980467 1.98,1.98 0 0 0 1.979003,1.979003 1.98,1.98 0 0 0 1.980468,-1.979003 1.98,1.98 0 0 0 -1.980468,-1.980467 z m 9.016108,7.091304 a 1.98,1.98 0 0 0 -1.980468,1.980468 1.98,1.98 0 0 0 1.980468,1.979003 1.98,1.98 0 0 0 1.979003,-1.979003 1.98,1.98 0 0 0 -1.979003,-1.980468 z m 21.599102,0 a 1.98,1.98 0 0 0 -1.979001,1.980468 1.98,1.98 0 0 0 1.979001,1.979003 1.98,1.98 0 0 0 1.980471,-1.979003 1.98,1.98 0 0 0 -1.980471,-1.980468 z m -52.214318,0.108398 a 1.98,1.98 0 0 0 -1.980468,1.980468 1.98,1.98 0 0 0 1.980468,1.979003 1.98,1.98 0 0 0 1.979002,-1.979003 1.98,1.98 0 0 0 -1.979002,-1.980468 z m 21.599108,0 a 1.98,1.98 0 0 0 -1.979003,1.980468 1.98,1.98 0 0 0 1.979003,1.979003 1.98,1.98 0 0 0 1.980468,-1.979003 1.98,1.98 0 0 0 -1.980468,-1.980468 z m 53.999958,0.42041 a 1.55905,1.55905 0 0 0 -1.55859,1.560058 1.55905,1.55905 0 0 0 1.55859,1.558593 1.55905,1.55905 0 0 0 1.56006,-1.558593 1.55905,1.55905 0 0 0 -1.56006,-1.560058 z m -5.39941,4.980466 a 1.98,1.98 0 0 0 -1.98046,1.979005 1.98,1.98 0 0 0 1.98046,1.980472 1.98,1.98 0 0 0 1.98047,-1.980472 1.98,1.98 0 0 0 -1.98047,-1.979005 z m -39.58444,1.690435 a 1.98,1.98 0 0 0 -1.980468,1.980464 1.98,1.98 0 0 0 1.980468,1.979002 1.98,1.98 0 0 0 1.979003,-1.979002 1.98,1.98 0 0 0 -1.979003,-1.980464 z m 21.599102,0 a 1.98,1.98 0 0 0 -1.979001,1.980464 1.98,1.98 0 0 0 1.979001,1.979002 1.98,1.98 0 0 0 1.980471,-1.979002 1.98,1.98 0 0 0 -1.980471,-1.980464 z m 109.785578,1.800292 a 2.0880002,2.0880002 0 0 0 -2.08886,2.088861 2.0880002,2.0880002 0 0 0 2.08886,2.087406 2.0880002,2.0880002 0 0 0 2.08741,-2.087406 2.0880002,2.0880002 0 0 0 -2.08741,-2.088861 z m 7.1997,0 a 2.0880002,2.0880002 0 0 0 -2.08886,2.088861 2.0880002,2.0880002 0 0 0 2.08886,2.087406 2.0880002,2.0880002 0 0 0 2.08741,-2.087406 2.0880002,2.0880002 0 0 0 -2.08741,-2.088861 z m 7.19971,0 a 2.0880002,2.0880002 0 0 0 -2.0874,2.088861 2.0880002,2.0880002 0 0 0 2.0874,2.087406 2.0880002,2.0880002 0 0 0 2.0874,-2.087406 2.0880002,2.0880002 0 0 0 -2.0874,-2.088861 z m 7.1997,0 a 2.0880002,2.0880002 0 0 0 -2.0874,2.088861 2.0880002,2.0880002 0 0 0 2.0874,2.087406 2.0880002,2.0880002 0 0 0 2.08887,-2.087406 2.0880002,2.0880002 0 0 0 -2.08887,-2.088861 z m 7.1997,0 a 2.0880002,2.0880002 0 0 0 -2.0874,2.088861 2.0880002,2.0880002 0 0 0 2.0874,2.087406 2.0880002,2.0880002 0 0 0 2.08887,-2.087406 2.0880002,2.0880002 0 0 0 -2.08887,-2.088861 z m 7.20117,0 a 2.0880002,2.0880002 0 0 0 -2.08886,2.088861 2.0880002,2.0880002 0 0 0 2.08886,2.087406 2.0880002,2.0880002 0 0 0 2.0874,-2.087406 2.0880002,2.0880002 0 0 0 -2.0874,-2.088861 z m 7.1997,0 a 2.0880002,2.0880002 0 0 0 -2.08886,2.088861 2.0880002,2.0880002 0 0 0 2.08886,2.087406 2.0880002,2.0880002 0 0 0 2.08741,-2.087406 2.0880002,2.0880002 0 0 0 -2.08741,-2.088861 z m 7.1997,0 a 2.0880002,2.0880002 0 0 0 -2.08739,2.088861 2.0880002,2.0880002 0 0 0 2.08739,2.087406 2.0880002,2.0880002 0 0 0 2.08741,-2.087406 2.0880002,2.0880002 0 0 0 -2.08741,-2.088861 z m 7.19971,0 a 2.0880002,2.0880002 0 0 0 -2.0874,2.088861 2.0880002,2.0880002 0 0 0 2.0874,2.087406 2.0880002,2.0880002 0 0 0 2.08887,-2.087406 2.0880002,2.0880002 0 0 0 -2.08887,-2.088861 z m 7.1997,0 a 2.0880002,2.0880002 0 0 0 -2.0874,2.088861 2.0880002,2.0880002 0 0 0 2.0874,2.087406 2.0880002,2.0880002 0 0 0 2.08887,-2.087406 2.0880002,2.0880002 0 0 0 -2.08887,-2.088861 z m -142.37979,1.908689 v 3.959472 h 3.96093 v -3.959472 z m 9.18016,0 a 1.98,1.98 0 0 0 -1.98046,1.980464 1.98,1.98 0 0 0 1.98046,1.979008 1.98,1.98 0 0 0 1.98047,-1.979008 1.98,1.98 0 0 0 -1.98047,-1.980464 z m 7.19971,0 a 1.98,1.98 0 0 0 -1.97901,1.980464 1.98,1.98 0 0 0 1.97901,1.979008 1.98,1.98 0 0 0 1.98047,-1.979008 1.98,1.98 0 0 0 -1.98047,-1.980464 z m 7.20116,0 a 1.98,1.98 0 0 0 -1.98046,1.980464 1.98,1.98 0 0 0 1.98046,1.979008 1.98,1.98 0 0 0 1.97901,-1.979008 1.98,1.98 0 0 0 -1.97901,-1.980464 z m 7.1997,0 a 1.98,1.98 0 0 0 -1.98046,1.980464 1.98,1.98 0 0 0 1.98046,1.979008 1.98,1.98 0 0 0 1.97901,-1.979008 1.98,1.98 0 0 0 -1.97901,-1.980464 z m 7.19971,0 a 1.98,1.98 0 0 0 -1.98047,1.980464 1.98,1.98 0 0 0 1.98047,1.979008 1.98,1.98 0 0 0 1.98047,-1.979008 1.98,1.98 0 0 0 -1.98047,-1.980464 z m 7.1997,0 a 1.98,1.98 0 0 0 -1.98046,1.980464 1.98,1.98 0 0 0 1.98046,1.979008 1.98,1.98 0 0 0 1.98047,-1.979008 1.98,1.98 0 0 0 -1.98047,-1.980464 z m 7.1997,0 a 1.98,1.98 0 0 0 -1.979,1.980464 1.98,1.98 0 0 0 1.979,1.979008 1.98,1.98 0 0 0 1.98048,-1.979008 1.98,1.98 0 0 0 -1.98048,-1.980464 z m 7.20117,0 a 1.98,1.98 0 0 0 -1.98046,1.980464 1.98,1.98 0 0 0 1.98046,1.979008 1.98,1.98 0 0 0 1.97901,-1.979008 1.98,1.98 0 0 0 -1.97901,-1.980464 z m 7.1997,0 a 1.98,1.98 0 0 0 -1.98046,1.980464 1.98,1.98 0 0 0 1.98046,1.979008 1.98,1.98 0 0 0 1.979,-1.979008 1.98,1.98 0 0 0 -1.979,-1.980464 z M 8.5699594,81.429488 a 4.5354301,4.5354301 0 0 0 -4.5351528,4.53515 4.5354301,4.5354301 0 0 0 4.5351528,4.53662 4.5354301,4.5354301 0 0 0 4.5351546,-4.53662 4.5354301,4.5354301 0 0 0 -4.5351546,-4.53515 z m 262.8001306,0 a 4.5354301,4.5354301 0 0 0 -4.53515,4.53515 4.5354301,4.5354301 0 0 0 4.53515,4.53662 4.5354301,4.5354301 0 0 0 4.53516,-4.53662 4.5354301,4.5354301 0 0 0 -4.53516,-4.53515 z M 98.38973,82.185345 v 3.959473 h 3.96093 v -3.959473 z"
     id="path17"
     inkscape:connector-curvature="0" />
  <path
     style="color:#000000;font-style:normal;font-variant:normal;font-weight:normal;font-stretch:normal;font-size:medium;line-height:normal;font-family:sans-serif;font-variant-ligatures:normal;font-variant-position:normal;font-variant-caps:normal;font-variant-numeric:normal;font-variant-alternates:normal;font-feature-settings:normal;text-indent:0;text-align:start;text-decoration:none;text-decoration-line:none;text-decoration-style:solid;text-decoration-color:#000000;letter-spacing:normal;word-spacing:normal;text-transform:none;writing-mode:lr-tb;direction:ltr;text-orientation:mixed;dominant-baseline:auto;baseline-shift:baseline;text-anchor:start;white-space:normal;shape-padding:0;clip-rule:nonzero;display:inline;overflow:visible;visibility:visible;opacity:1;isolation:auto;mix-blend-mode:normal;color-interpolation:sRGB;color-interpolation-filters:linearRGB;solid-color:#000000;solid-opacity:1;vector-effect:none;fill:#000000;fill-opacity:1;fill-rule:nonzero;stroke:none;stroke-width:0.5;stroke-linecap:butt;stroke-linejoin:miter;stroke-miterlimit:4;stroke-dasharray:none;stroke-dashoffset:0;stroke-opacity:1;color-rendering:auto;image-rendering:auto;shape-rendering:auto;text-rendering:auto;enable-background:accumulate"
     d="M -1.9256e-4,-3.6685159e-6 V 0.24999635 95.30859 H 280.25566 V -3.6685159e-6 Z M 0.49980745,0.49999635 H 279.75567 V 94.808588 H 0.49980745 Z"
     id="path19"
     inkscape:connector-curvature="0" />
</svg>
