<?xml version='1.0' encoding='UTF-8' standalone='no'?>
<!-- Created with Fritzing (http://www.fritzing.org/) -->
<svg xmlns="http://www.w3.org/2000/svg" viewBox="0 0 324.247 286.957" x="0in" width="4.50343in" xmlns:svg="http://www.w3.org/2000/svg" baseProfile="tiny" height="3.98551in" version="1.2" y="0in" >
 <g partID="855751680">
  <g id="board" >
   <rect fill-opacity="0.5" width="323.671" x="0.288" stroke="black" stroke-width="0.5" id="boardoutline" height="286.381" fill="none" y="0.288" />
  </g>
 </g>
 <g partID="856127610">
  <g transform="translate(32.2327,217.049)">
   <g id="copper0" >
    <circle cy="3.72599" stroke-width="2.70426" stroke="black" id="connector0pin" r="1.13386" fill="black" cx="3.72599" />
   </g>
  </g>
 </g>
 <g partID="856128170">
  <g transform="translate(123.133,199.949)">
   <g id="copper0" >
    <circle cy="3.72599" stroke-width="2.70426" stroke="black" id="connector0pin" r="1.13386" fill="black" cx="3.72599" />
   </g>
  </g>
 </g>
 <g partID="856139620">
  <g transform="translate(33.1327,191.849)">
   <g id="copper0" >
    <circle cy="3.72599" stroke-width="2.70426" stroke="black" id="connector0pin" r="1.13386" fill="black" cx="3.72599" />
   </g>
  </g>
 </g>
 <g partID="856140490">
  <g transform="translate(161.833,195.449)">
   <g id="copper0" >
    <circle cy="3.72599" stroke-width="2.70426" stroke="black" id="connector0pin" r="1.13386" fill="black" cx="3.72599" />
   </g>
  </g>
 </g>
 <g partID="856141220">
  <g transform="translate(131.333,201.849)">
   <g id="copper0" >
    <circle cy="3.72599" stroke-width="2.70426" stroke="black" id="connector0pin" r="1.13386" fill="black" cx="3.72599" />
   </g>
  </g>
 </g>
 <g partID="856141420">
  <g transform="translate(111.533,231.449)">
   <g id="copper0" >
    <circle cy="3.72599" stroke-width="2.70426" stroke="black" id="connector0pin" r="1.13386" fill="black" cx="3.72599" />
   </g>
  </g>
 </g>
 <g partID="856141920">
  <g transform="translate(156.433,201.749)">
   <g id="copper0" >
    <circle cy="3.72599" stroke-width="2.70426" stroke="black" id="connector0pin" r="1.13386" fill="black" cx="3.72599" />
   </g>
  </g>
 </g>
 <g partID="856142120">
  <g transform="translate(117.733,222.449)">
   <g id="copper0" >
    <circle cy="3.72599" stroke-width="2.70426" stroke="black" id="connector0pin" r="1.13386" fill="black" cx="3.72599" />
   </g>
  </g>
 </g>
 <g partID="855961990">
  <g transform="translate(132.439,136.895)">
   <g transform="matrix(0,-1,1,0,0,0)">
    <g id="copper0" >
     <rect width="3.96" x="2.34" stroke="black" stroke-width="2.16" id="square" height="3.96" fill="black" y="2.34" />
     <circle cy="4.32" stroke="black" stroke-width="2.16" id="connector0pin" r="1.98" fill="black" cx="4.32" />
     <circle cy="4.32" stroke="black" stroke-width="2.16" id="connector13pin" r="1.98" fill="black" cx="25.92" />
     <circle cy="11.52" stroke="black" stroke-width="2.16" id="connector1pin" r="1.98" fill="black" cx="4.32" />
     <circle cy="11.52" stroke="black" stroke-width="2.16" id="connector12pin" r="1.98" fill="black" cx="25.92" />
     <circle cy="18.72" stroke="black" stroke-width="2.16" id="connector2pin" r="1.98" fill="black" cx="4.32" />
     <circle cy="18.72" stroke="black" stroke-width="2.16" id="connector11pin" r="1.98" fill="black" cx="25.92" />
     <circle cy="25.92" stroke="black" stroke-width="2.16" id="connector3pin" r="1.98" fill="black" cx="4.32" />
     <circle cy="25.92" stroke="black" stroke-width="2.16" id="connector10pin" r="1.98" fill="black" cx="25.92" />
     <circle cy="33.12" stroke="black" stroke-width="2.16" id="connector4pin" r="1.98" fill="black" cx="4.32" />
     <circle cy="33.12" stroke="black" stroke-width="2.16" id="connector9pin" r="1.98" fill="black" cx="25.92" />
     <circle cy="40.32" stroke="black" stroke-width="2.16" id="connector5pin" r="1.98" fill="black" cx="4.32" />
     <circle cy="40.32" stroke="black" stroke-width="2.16" id="connector8pin" r="1.98" fill="black" cx="25.92" />
     <circle cy="47.52" stroke="black" stroke-width="2.16" id="connector6pin" r="1.98" fill="black" cx="4.32" />
     <circle cy="47.52" stroke="black" stroke-width="2.16" id="connector7pin" r="1.98" fill="black" cx="25.92" />
    </g>
   </g>
  </g>
 </g>
 <g partID="855955430">
  <g transform="translate(194.539,136.895)">
   <g transform="matrix(0,-1,1,0,0,0)">
    <g id="copper0" >
     <rect width="3.96" x="2.34" stroke="black" stroke-width="2.16" id="square" height="3.96" fill="black" y="2.34" />
     <circle cy="4.32" stroke="black" stroke-width="2.16" id="connector0pin" r="1.98" fill="black" cx="4.32" />
     <circle cy="4.32" stroke="black" stroke-width="2.16" id="connector13pin" r="1.98" fill="black" cx="25.92" />
     <circle cy="11.52" stroke="black" stroke-width="2.16" id="connector1pin" r="1.98" fill="black" cx="4.32" />
     <circle cy="11.52" stroke="black" stroke-width="2.16" id="connector12pin" r="1.98" fill="black" cx="25.92" />
     <circle cy="18.72" stroke="black" stroke-width="2.16" id="connector2pin" r="1.98" fill="black" cx="4.32" />
     <circle cy="18.72" stroke="black" stroke-width="2.16" id="connector11pin" r="1.98" fill="black" cx="25.92" />
     <circle cy="25.92" stroke="black" stroke-width="2.16" id="connector3pin" r="1.98" fill="black" cx="4.32" />
     <circle cy="25.92" stroke="black" stroke-width="2.16" id="connector10pin" r="1.98" fill="black" cx="25.92" />
     <circle cy="33.12" stroke="black" stroke-width="2.16" id="connector4pin" r="1.98" fill="black" cx="4.32" />
     <circle cy="33.12" stroke="black" stroke-width="2.16" id="connector9pin" r="1.98" fill="black" cx="25.92" />
     <circle cy="40.32" stroke="black" stroke-width="2.16" id="connector5pin" r="1.98" fill="black" cx="4.32" />
     <circle cy="40.32" stroke="black" stroke-width="2.16" id="connector8pin" r="1.98" fill="black" cx="25.92" />
     <circle cy="47.52" stroke="black" stroke-width="2.16" id="connector6pin" r="1.98" fill="black" cx="4.32" />
     <circle cy="47.52" stroke="black" stroke-width="2.16" id="connector7pin" r="1.98" fill="black" cx="25.92" />
    </g>
   </g>
  </g>
 </g>
 <g partID="855955740">
  <g transform="translate(223.933,91.0496)">
   <g id="copper0" >
    <circle cy="3.72599" stroke-width="2.70426" stroke="black" id="connector0pin" r="1.13386" fill="black" cx="3.72599" />
   </g>
  </g>
 </g>
 <g partID="855956010">
  <g transform="translate(223.933,101.05)">
   <g id="copper0" >
    <circle cy="3.72599" stroke-width="2.70426" stroke="black" id="connector0pin" r="1.13386" fill="black" cx="3.72599" />
   </g>
  </g>
 </g>
 <g partID="855956170">
  <g transform="translate(209.533,86.6496)">
   <g id="copper0" >
    <circle cy="3.72599" stroke-width="2.70426" stroke="black" id="connector0pin" r="1.13386" fill="black" cx="3.72599" />
   </g>
  </g>
 </g>
 <g partID="855956440">
  <g transform="translate(209.533,100.95)">
   <g id="copper0" >
    <circle cy="3.72599" stroke-width="2.70426" stroke="black" id="connector0pin" r="1.13386" fill="black" cx="3.72599" />
   </g>
  </g>
 </g>
 <g partID="855956600">
  <g transform="translate(202.333,82.0496)">
   <g id="copper0" >
    <circle cy="3.72599" stroke-width="2.70426" stroke="black" id="connector0pin" r="1.13386" fill="black" cx="3.72599" />
   </g>
  </g>
 </g>
 <g partID="855956870">
  <g transform="translate(202.333,100.95)">
   <g id="copper0" >
    <circle cy="3.72599" stroke-width="2.70426" stroke="black" id="connector0pin" r="1.13386" fill="black" cx="3.72599" />
   </g>
  </g>
 </g>
 <g partID="855957030">
  <g transform="translate(231.133,181.049)">
   <g id="copper0" >
    <circle cy="3.72599" stroke-width="2.70426" stroke="black" id="connector0pin" r="1.13386" fill="black" cx="3.72599" />
   </g>
  </g>
 </g>
 <g partID="855957410">
  <g transform="translate(195.133,135.15)">
   <g id="copper0" >
    <circle cy="3.72599" stroke-width="2.70426" stroke="black" id="connector0pin" r="1.13386" fill="black" cx="3.72599" />
   </g>
  </g>
 </g>
 <g partID="855957570">
  <g transform="translate(238.333,181.049)">
   <g id="copper0" >
    <circle cy="3.72599" stroke-width="2.70426" stroke="black" id="connector0pin" r="1.13386" fill="black" cx="3.72599" />
   </g>
  </g>
 </g>
 <g partID="855957950">
  <g transform="translate(202.333,135.15)">
   <g id="copper0" >
    <circle cy="3.72599" stroke-width="2.70426" stroke="black" id="connector0pin" r="1.13386" fill="black" cx="3.72599" />
   </g>
  </g>
 </g>
 <g partID="855958110">
  <g transform="translate(245.533,181.049)">
   <g id="copper0" >
    <circle cy="3.72599" stroke-width="2.70426" stroke="black" id="connector0pin" r="1.13386" fill="black" cx="3.72599" />
   </g>
  </g>
 </g>
 <g partID="855958490">
  <g transform="translate(216.733,135.15)">
   <g id="copper0" >
    <circle cy="3.72599" stroke-width="2.70426" stroke="black" id="connector0pin" r="1.13386" fill="black" cx="3.72599" />
   </g>
  </g>
 </g>
 <g partID="855958650">
  <g transform="translate(252.733,181.049)">
   <g id="copper0" >
    <circle cy="3.72599" stroke-width="2.70426" stroke="black" id="connector0pin" r="1.13386" fill="black" cx="3.72599" />
   </g>
  </g>
 </g>
 <g partID="855959030">
  <g transform="translate(223.933,135.15)">
   <g id="copper0" >
    <circle cy="3.72599" stroke-width="2.70426" stroke="black" id="connector0pin" r="1.13386" fill="black" cx="3.72599" />
   </g>
  </g>
 </g>
 <g partID="855959150">
  <g transform="translate(301.333,148.65)">
   <g id="copper0" >
    <circle cy="3.72599" stroke-width="2.70426" stroke="black" id="connector0pin" r="1.13386" fill="black" cx="3.72599" />
   </g>
  </g>
 </g>
 <g partID="855959840">
  <g transform="translate(245.533,128.85)">
   <g id="copper0" >
    <circle cy="3.72599" stroke-width="2.70426" stroke="black" id="connector0pin" r="1.13386" fill="black" cx="3.72599" />
   </g>
  </g>
 </g>
 <g partID="855960760">
  <g transform="translate(295.933,114.45)">
   <g id="copper0" >
    <circle cy="3.72599" stroke-width="2.70426" stroke="black" id="connector0pin" r="1.13386" fill="black" cx="3.72599" />
   </g>
  </g>
 </g>
 <g partID="855961450">
  <g transform="translate(245.533,114.45)">
   <g id="copper0" >
    <circle cy="3.72599" stroke-width="2.70426" stroke="black" id="connector0pin" r="1.13386" fill="black" cx="3.72599" />
   </g>
  </g>
 </g>
 <g partID="855962360">
  <g transform="translate(147.433,100.95)">
   <g id="copper0" >
    <circle cy="3.72599" stroke-width="2.70426" stroke="black" id="connector0pin" r="1.13386" fill="black" cx="3.72599" />
   </g>
  </g>
 </g>
 <g partID="855962480">
  <g transform="translate(216.733,100.95)">
   <g id="copper0" >
    <circle cy="3.72599" stroke-width="2.70426" stroke="black" id="connector0pin" r="1.13386" fill="black" cx="3.72599" />
   </g>
  </g>
 </g>
 <g partID="855962890">
  <g transform="translate(140.233,100.95)">
   <g id="copper0" >
    <circle cy="3.72599" stroke-width="2.70426" stroke="black" id="connector0pin" r="1.13386" fill="black" cx="3.72599" />
   </g>
  </g>
 </g>
 <g partID="855963010">
  <g transform="translate(238.333,100.95)">
   <g id="copper0" >
    <circle cy="3.72599" stroke-width="2.70426" stroke="black" id="connector0pin" r="1.13386" fill="black" cx="3.72599" />
   </g>
  </g>
 </g>
 <g partID="855965720">
  <g transform="translate(135.733,114.45)">
   <g id="copper0" >
    <circle cy="3.72599" stroke-width="2.70426" stroke="black" id="connector0pin" r="1.13386" fill="black" cx="3.72599" />
   </g>
  </g>
 </g>
 <g partID="855965940">
  <g transform="translate(182.533,128.85)">
   <g id="copper0" >
    <circle cy="3.72599" stroke-width="2.70426" stroke="black" id="connector0pin" r="1.13386" fill="black" cx="3.72599" />
   </g>
  </g>
 </g>
 <g partID="855968760">
  <g transform="translate(161.933,101.05)">
   <g id="copper0" >
    <circle cy="3.72599" stroke-width="2.70426" stroke="black" id="connector0pin" r="1.13386" fill="black" cx="3.72599" />
   </g>
  </g>
 </g>
 <g partID="855969030">
  <g transform="translate(187.933,107.25)">
   <g id="copper0" >
    <circle cy="3.72599" stroke-width="2.70426" stroke="black" id="connector0pin" r="1.13386" fill="black" cx="3.72599" />
   </g>
  </g>
 </g>
 <g partID="855974400">
  <g transform="translate(86.2327,114.45)">
   <g id="copper0" >
    <circle cy="3.72599" stroke-width="2.70426" stroke="black" id="connector0pin" r="1.13386" fill="black" cx="3.72599" />
   </g>
  </g>
 </g>
 <g partID="855976480">
  <g transform="translate(126.733,136.05)">
   <g id="copper0" >
    <circle cy="3.72599" stroke-width="2.70426" stroke="black" id="connector0pin" r="1.13386" fill="black" cx="3.72599" />
   </g>
  </g>
 </g>
 <g partID="856049350">
  <g transform="translate(125.239,256.595)">
   <g transform="matrix(0,-1,1,0,0,0)">
    <g id="copper0" >
     <rect width="3.96" x="2.34" stroke="black" stroke-width="2.16" id="square" height="3.96" fill="black" y="2.34" />
     <circle cy="4.32" stroke="black" stroke-width="2.16" id="connector0pin" r="1.98" fill="black" cx="4.32" />
     <circle cy="4.32" stroke="black" stroke-width="2.16" id="connector13pin" r="1.98" fill="black" cx="25.92" />
     <circle cy="11.52" stroke="black" stroke-width="2.16" id="connector1pin" r="1.98" fill="black" cx="4.32" />
     <circle cy="11.52" stroke="black" stroke-width="2.16" id="connector12pin" r="1.98" fill="black" cx="25.92" />
     <circle cy="18.72" stroke="black" stroke-width="2.16" id="connector2pin" r="1.98" fill="black" cx="4.32" />
     <circle cy="18.72" stroke="black" stroke-width="2.16" id="connector11pin" r="1.98" fill="black" cx="25.92" />
     <circle cy="25.92" stroke="black" stroke-width="2.16" id="connector3pin" r="1.98" fill="black" cx="4.32" />
     <circle cy="25.92" stroke="black" stroke-width="2.16" id="connector10pin" r="1.98" fill="black" cx="25.92" />
     <circle cy="33.12" stroke="black" stroke-width="2.16" id="connector4pin" r="1.98" fill="black" cx="4.32" />
     <circle cy="33.12" stroke="black" stroke-width="2.16" id="connector9pin" r="1.98" fill="black" cx="25.92" />
     <circle cy="40.32" stroke="black" stroke-width="2.16" id="connector5pin" r="1.98" fill="black" cx="4.32" />
     <circle cy="40.32" stroke="black" stroke-width="2.16" id="connector8pin" r="1.98" fill="black" cx="25.92" />
     <circle cy="47.52" stroke="black" stroke-width="2.16" id="connector6pin" r="1.98" fill="black" cx="4.32" />
     <circle cy="47.52" stroke="black" stroke-width="2.16" id="connector7pin" r="1.98" fill="black" cx="25.92" />
    </g>
   </g>
  </g>
 </g>
 <g partID="856030840">
  <g transform="translate(38.8387,236.795)">
   <g transform="matrix(0,-1,1,0,0,0)">
    <g id="copper0" >
     <rect width="3.96" x="2.34" stroke="black" stroke-width="2.16" id="square" height="3.96" fill="black" y="2.34" />
     <circle cy="4.32" stroke="black" stroke-width="2.16" id="connector0pin" r="1.98" fill="black" cx="4.32" />
     <circle cy="4.32" stroke="black" stroke-width="2.16" id="connector13pin" r="1.98" fill="black" cx="25.92" />
     <circle cy="11.52" stroke="black" stroke-width="2.16" id="connector1pin" r="1.98" fill="black" cx="4.32" />
     <circle cy="11.52" stroke="black" stroke-width="2.16" id="connector12pin" r="1.98" fill="black" cx="25.92" />
     <circle cy="18.72" stroke="black" stroke-width="2.16" id="connector2pin" r="1.98" fill="black" cx="4.32" />
     <circle cy="18.72" stroke="black" stroke-width="2.16" id="connector11pin" r="1.98" fill="black" cx="25.92" />
     <circle cy="25.92" stroke="black" stroke-width="2.16" id="connector3pin" r="1.98" fill="black" cx="4.32" />
     <circle cy="25.92" stroke="black" stroke-width="2.16" id="connector10pin" r="1.98" fill="black" cx="25.92" />
     <circle cy="33.12" stroke="black" stroke-width="2.16" id="connector4pin" r="1.98" fill="black" cx="4.32" />
     <circle cy="33.12" stroke="black" stroke-width="2.16" id="connector9pin" r="1.98" fill="black" cx="25.92" />
     <circle cy="40.32" stroke="black" stroke-width="2.16" id="connector5pin" r="1.98" fill="black" cx="4.32" />
     <circle cy="40.32" stroke="black" stroke-width="2.16" id="connector8pin" r="1.98" fill="black" cx="25.92" />
     <circle cy="47.52" stroke="black" stroke-width="2.16" id="connector6pin" r="1.98" fill="black" cx="4.32" />
     <circle cy="47.52" stroke="black" stroke-width="2.16" id="connector7pin" r="1.98" fill="black" cx="25.92" />
    </g>
   </g>
  </g>
 </g>
 <g partID="856019600">
  <g transform="translate(15.4387,128.255)">
   <g id="copper0" >
    <rect width="3.96" x="2.34" stroke="black" stroke-width="2.16" id="square" height="3.96" fill="black" y="2.34" />
    <circle cy="4.32" stroke="black" stroke-width="2.16" id="connector0pin" r="1.98" fill="black" cx="4.32" />
    <circle cy="4.32" stroke="black" stroke-width="2.16" id="connector13pin" r="1.98" fill="black" cx="25.92" />
    <circle cy="11.52" stroke="black" stroke-width="2.16" id="connector1pin" r="1.98" fill="black" cx="4.32" />
    <circle cy="11.52" stroke="black" stroke-width="2.16" id="connector12pin" r="1.98" fill="black" cx="25.92" />
    <circle cy="18.72" stroke="black" stroke-width="2.16" id="connector2pin" r="1.98" fill="black" cx="4.32" />
    <circle cy="18.72" stroke="black" stroke-width="2.16" id="connector11pin" r="1.98" fill="black" cx="25.92" />
    <circle cy="25.92" stroke="black" stroke-width="2.16" id="connector3pin" r="1.98" fill="black" cx="4.32" />
    <circle cy="25.92" stroke="black" stroke-width="2.16" id="connector10pin" r="1.98" fill="black" cx="25.92" />
    <circle cy="33.12" stroke="black" stroke-width="2.16" id="connector4pin" r="1.98" fill="black" cx="4.32" />
    <circle cy="33.12" stroke="black" stroke-width="2.16" id="connector9pin" r="1.98" fill="black" cx="25.92" />
    <circle cy="40.32" stroke="black" stroke-width="2.16" id="connector5pin" r="1.98" fill="black" cx="4.32" />
    <circle cy="40.32" stroke="black" stroke-width="2.16" id="connector8pin" r="1.98" fill="black" cx="25.92" />
    <circle cy="47.52" stroke="black" stroke-width="2.16" id="connector6pin" r="1.98" fill="black" cx="4.32" />
    <circle cy="47.52" stroke="black" stroke-width="2.16" id="connector7pin" r="1.98" fill="black" cx="25.92" />
   </g>
  </g>
 </g>
 <g partID="855979310">
  <g transform="translate(139.639,186.395)">
   <g transform="matrix(0,-1,1,0,0,0)">
    <g id="copper0" >
     <rect width="3.96" x="2.34" stroke="black" stroke-width="2.16" id="square" height="3.96" fill="black" y="2.34" />
     <circle cy="4.32" stroke="black" stroke-width="2.16" id="connector0pin" r="1.98" fill="black" cx="4.32" />
     <circle cy="4.32" stroke="black" stroke-width="2.16" id="connector13pin" r="1.98" fill="black" cx="25.92" />
     <circle cy="11.52" stroke="black" stroke-width="2.16" id="connector1pin" r="1.98" fill="black" cx="4.32" />
     <circle cy="11.52" stroke="black" stroke-width="2.16" id="connector12pin" r="1.98" fill="black" cx="25.92" />
     <circle cy="18.72" stroke="black" stroke-width="2.16" id="connector2pin" r="1.98" fill="black" cx="4.32" />
     <circle cy="18.72" stroke="black" stroke-width="2.16" id="connector11pin" r="1.98" fill="black" cx="25.92" />
     <circle cy="25.92" stroke="black" stroke-width="2.16" id="connector3pin" r="1.98" fill="black" cx="4.32" />
     <circle cy="25.92" stroke="black" stroke-width="2.16" id="connector10pin" r="1.98" fill="black" cx="25.92" />
     <circle cy="33.12" stroke="black" stroke-width="2.16" id="connector4pin" r="1.98" fill="black" cx="4.32" />
     <circle cy="33.12" stroke="black" stroke-width="2.16" id="connector9pin" r="1.98" fill="black" cx="25.92" />
     <circle cy="40.32" stroke="black" stroke-width="2.16" id="connector5pin" r="1.98" fill="black" cx="4.32" />
     <circle cy="40.32" stroke="black" stroke-width="2.16" id="connector8pin" r="1.98" fill="black" cx="25.92" />
     <circle cy="47.52" stroke="black" stroke-width="2.16" id="connector6pin" r="1.98" fill="black" cx="4.32" />
     <circle cy="47.52" stroke="black" stroke-width="2.16" id="connector7pin" r="1.98" fill="black" cx="25.92" />
    </g>
   </g>
  </g>
 </g>
 <g partID="855979290">
  <g transform="translate(53.2387,182.795)">
   <g transform="matrix(0,-1,1,0,0,0)">
    <g id="copper0" >
     <rect width="3.96" x="2.34" stroke="black" stroke-width="2.16" id="square" height="3.96" fill="black" y="2.34" />
     <circle cy="4.32" stroke="black" stroke-width="2.16" id="connector0pin" r="1.98" fill="black" cx="4.32" />
     <circle cy="4.32" stroke="black" stroke-width="2.16" id="connector13pin" r="1.98" fill="black" cx="25.92" />
     <circle cy="11.52" stroke="black" stroke-width="2.16" id="connector1pin" r="1.98" fill="black" cx="4.32" />
     <circle cy="11.52" stroke="black" stroke-width="2.16" id="connector12pin" r="1.98" fill="black" cx="25.92" />
     <circle cy="18.72" stroke="black" stroke-width="2.16" id="connector2pin" r="1.98" fill="black" cx="4.32" />
     <circle cy="18.72" stroke="black" stroke-width="2.16" id="connector11pin" r="1.98" fill="black" cx="25.92" />
     <circle cy="25.92" stroke="black" stroke-width="2.16" id="connector3pin" r="1.98" fill="black" cx="4.32" />
     <circle cy="25.92" stroke="black" stroke-width="2.16" id="connector10pin" r="1.98" fill="black" cx="25.92" />
     <circle cy="33.12" stroke="black" stroke-width="2.16" id="connector4pin" r="1.98" fill="black" cx="4.32" />
     <circle cy="33.12" stroke="black" stroke-width="2.16" id="connector9pin" r="1.98" fill="black" cx="25.92" />
     <circle cy="40.32" stroke="black" stroke-width="2.16" id="connector5pin" r="1.98" fill="black" cx="4.32" />
     <circle cy="40.32" stroke="black" stroke-width="2.16" id="connector8pin" r="1.98" fill="black" cx="25.92" />
     <circle cy="47.52" stroke="black" stroke-width="2.16" id="connector6pin" r="1.98" fill="black" cx="4.32" />
     <circle cy="47.52" stroke="black" stroke-width="2.16" id="connector7pin" r="1.98" fill="black" cx="25.92" />
    </g>
   </g>
  </g>
 </g>
 <g partID="855980320">
  <g transform="translate(161.833,150.45)">
   <g id="copper0" >
    <circle cy="3.72599" stroke-width="2.70426" stroke="black" id="connector0pin" r="1.13386" fill="black" cx="3.72599" />
   </g>
  </g>
 </g>
 <g partID="855981980">
  <g transform="translate(147.433,150.45)">
   <g id="copper0" >
    <circle cy="3.72599" stroke-width="2.70426" stroke="black" id="connector0pin" r="1.13386" fill="black" cx="3.72599" />
   </g>
  </g>
 </g>
 <g partID="855982190">
  <g transform="translate(115.133,52.4496)">
   <g id="copper0" >
    <circle cy="3.72599" stroke-width="2.70426" stroke="black" id="connector0pin" r="1.13386" fill="black" cx="3.72599" />
   </g>
  </g>
 </g>
 <g partID="855982480">
  <g transform="translate(194.333,52.4496)">
   <g id="copper0" >
    <circle cy="3.72599" stroke-width="2.70426" stroke="black" id="connector0pin" r="1.13386" fill="black" cx="3.72599" />
   </g>
  </g>
 </g>
 <g partID="855982880">
  <g transform="translate(97.1327,129.85)">
   <g id="copper0" >
    <circle cy="3.72599" stroke-width="2.70426" stroke="black" id="connector0pin" r="1.13386" fill="black" cx="3.72599" />
   </g>
  </g>
 </g>
 <g partID="855983430">
  <g transform="translate(115.933,137.85)">
   <g id="copper0" >
    <circle cy="3.72599" stroke-width="2.70426" stroke="black" id="connector0pin" r="1.13386" fill="black" cx="3.72599" />
   </g>
  </g>
 </g>
 <g partID="855988390">
  <g transform="translate(82.6327,181.049)">
   <g id="copper0" >
    <circle cy="3.72599" stroke-width="2.70426" stroke="black" id="connector0pin" r="1.13386" fill="black" cx="3.72599" />
   </g>
  </g>
 </g>
 <g partID="855989380">
  <g transform="translate(133.033,172.049)">
   <g id="copper0" >
    <circle cy="3.72599" stroke-width="2.70426" stroke="black" id="connector0pin" r="1.13386" fill="black" cx="3.72599" />
   </g>
  </g>
 </g>
 <g partID="855989440">
  <g transform="translate(105.133,159.45)">
   <g id="copper0" >
    <circle cy="3.72599" stroke-width="2.70426" stroke="black" id="connector0pin" r="1.13386" fill="black" cx="3.72599" />
   </g>
  </g>
 </g>
 <g partID="855990110">
  <g transform="translate(202.333,190.049)">
   <g id="copper0" >
    <circle cy="3.72599" stroke-width="2.70426" stroke="black" id="connector0pin" r="1.13386" fill="black" cx="3.72599" />
   </g>
  </g>
 </g>
 <g partID="855992160">
  <g transform="translate(140.233,190.049)">
   <g id="copper0" >
    <circle cy="3.72599" stroke-width="2.70426" stroke="black" id="connector0pin" r="1.13386" fill="black" cx="3.72599" />
   </g>
  </g>
 </g>
 <g partID="855992840">
  <g transform="translate(164.533,143.25)">
   <g id="copper0" >
    <circle cy="3.72599" stroke-width="2.70426" stroke="black" id="connector0pin" r="1.13386" fill="black" cx="3.72599" />
   </g>
  </g>
 </g>
 <g partID="855993040">
  <g transform="translate(196.133,157.65)">
   <g id="copper0" >
    <circle cy="3.72599" stroke-width="2.70426" stroke="black" id="connector0pin" r="1.13386" fill="black" cx="3.72599" />
   </g>
  </g>
 </g>
 <g partID="855994610">
  <g transform="translate(53.8327,130.65)">
   <g id="copper0" >
    <circle cy="3.72599" stroke-width="2.70426" stroke="black" id="connector0pin" r="1.13386" fill="black" cx="3.72599" />
   </g>
  </g>
 </g>
 <g partID="855996300">
  <g transform="translate(133.933,156.75)">
   <g id="copper0" >
    <circle cy="3.72599" stroke-width="2.70426" stroke="black" id="connector0pin" r="1.13386" fill="black" cx="3.72599" />
   </g>
  </g>
 </g>
 <g partID="855997800">
  <g transform="translate(103.333,174.749)">
   <g id="copper0" >
    <circle cy="3.72599" stroke-width="2.70426" stroke="black" id="connector0pin" r="1.13386" fill="black" cx="3.72599" />
   </g>
  </g>
 </g>
 <g partID="855998260">
  <g transform="translate(183.433,184.649)">
   <g id="copper0" >
    <circle cy="3.72599" stroke-width="2.70426" stroke="black" id="connector0pin" r="1.13386" fill="black" cx="3.72599" />
   </g>
  </g>
 </g>
 <g partID="856020960">
  <g transform="translate(68.5387,122.482)">
   <g transform="matrix(0,1,-1,0,0,0)">
    <g id="copper0" >
     <g id="copper1" >
      <circle cy="2.88" stroke="black" stroke-width="2.16" id="connector0pin" r="1.8" fill="black" cx="2.88" />
      <circle cy="2.88" stroke="black" stroke-width="2.16" id="connector1pin" r="1.8" fill="black" cx="10.0933" />
     </g>
    </g>
   </g>
  </g>
 </g>
 <g partID="856027080">
  <g transform="translate(50.2327,121.65)">
   <g id="copper0" >
    <circle cy="3.72599" stroke-width="2.70426" stroke="black" id="connector0pin" r="1.13386" fill="black" cx="3.72599" />
   </g>
  </g>
 </g>
 <g partID="856029640">
  <g transform="translate(16.0327,178.349)">
   <g id="copper0" >
    <circle cy="3.72599" stroke-width="2.70426" stroke="black" id="connector0pin" r="1.13386" fill="black" cx="3.72599" />
   </g>
  </g>
 </g>
 <g partID="856065680">
  <g transform="translate(1.21872,235.535)">
   <g id="copper0" >
    <circle cy="5.04" stroke="black" stroke-width="2.16" id="connector0pin" r="2.088" fill="black" cx="5.04" />
    <circle cy="12.24" stroke="black" stroke-width="2.16" id="connector1pin" r="2.088" fill="black" cx="5.04" />
    <circle cy="19.44" stroke="black" stroke-width="2.16" id="connector2pin" r="2.088" fill="black" cx="5.04" />
   </g>
  </g>
 </g>
 <g partID="856064650">
  <g transform="translate(1.21872,120.335)">
   <g id="copper0" >
    <circle cy="5.04" stroke="black" stroke-width="2.16" id="connector0pin" r="2.088" fill="black" cx="5.04" />
    <circle cy="12.24" stroke="black" stroke-width="2.16" id="connector1pin" r="2.088" fill="black" cx="5.04" />
   </g>
  </g>
 </g>
 <g partID="856048430">
  <g transform="translate(1.21872,199.535)">
   <g id="copper0" >
    <circle cy="5.04" stroke="black" stroke-width="2.16" id="connector0pin" r="2.088" fill="black" cx="5.04" />
    <circle cy="12.24" stroke="black" stroke-width="2.16" id="connector1pin" r="2.088" fill="black" cx="5.04" />
   </g>
  </g>
 </g>
 <g partID="856042680">
  <g transform="translate(1.21872,185.135)">
   <g id="copper0" >
    <circle cy="5.04" stroke="black" stroke-width="2.16" id="connector0pin" r="2.088" fill="black" cx="5.04" />
    <circle cy="12.24" stroke="black" stroke-width="2.16" id="connector1pin" r="2.088" fill="black" cx="5.04" />
   </g>
  </g>
 </g>
 <g partID="856030670">
  <g transform="translate(1.21872,149.135)">
   <g id="copper0" >
    <circle cy="5.04" stroke="black" stroke-width="2.16" id="connector0pin" r="2.088" fill="black" cx="5.04" />
    <circle cy="12.24" stroke="black" stroke-width="2.16" id="connector1pin" r="2.088" fill="black" cx="5.04" />
   </g>
  </g>
 </g>
 <g partID="856036160">
  <g transform="translate(70.1327,196.449)">
   <g id="copper0" >
    <circle cy="3.72599" stroke-width="2.70426" stroke="black" id="connector0pin" r="1.13386" fill="black" cx="3.72599" />
   </g>
  </g>
 </g>
 <g partID="856036780">
  <g transform="translate(53.8327,202.649)">
   <g id="copper0" >
    <circle cy="3.72599" stroke-width="2.70426" stroke="black" id="connector0pin" r="1.13386" fill="black" cx="3.72599" />
   </g>
  </g>
 </g>
 <g partID="856047170">
  <g transform="translate(39.4327,234.149)">
   <g id="copper0" >
    <circle cy="3.72599" stroke-width="2.70426" stroke="black" id="connector0pin" r="1.13386" fill="black" cx="3.72599" />
   </g>
  </g>
 </g>
 <g partID="856047790">
  <g transform="translate(61.0327,234.149)">
   <g id="copper0" >
    <circle cy="3.72599" stroke-width="2.70426" stroke="black" id="connector0pin" r="1.13386" fill="black" cx="3.72599" />
   </g>
  </g>
 </g>
 <g partID="856048590">
  <g transform="translate(68.2327,234.149)">
   <g id="copper0" >
    <circle cy="3.72599" stroke-width="2.70426" stroke="black" id="connector0pin" r="1.13386" fill="black" cx="3.72599" />
   </g>
  </g>
 </g>
 <g partID="856049050">
  <g transform="translate(7.93272,208.049)">
   <g id="copper0" >
    <circle cy="3.72599" stroke-width="2.70426" stroke="black" id="connector0pin" r="1.13386" fill="black" cx="3.72599" />
   </g>
  </g>
 </g>
 <g partID="856049170">
  <g transform="translate(7.93272,186.449)">
   <g id="copper0" >
    <circle cy="3.72599" stroke-width="2.70426" stroke="black" id="connector0pin" r="1.13386" fill="black" cx="3.72599" />
   </g>
  </g>
 </g>
 <g partID="856049290">
  <g transform="translate(75.6327,201.949)">
   <g id="copper0" >
    <circle cy="3.72599" stroke-width="2.70426" stroke="black" id="connector0pin" r="1.13386" fill="black" cx="3.72599" />
   </g>
  </g>
 </g>
 <g partID="856054990">
  <g transform="translate(53.8327,222.449)">
   <g id="copper0" >
    <circle cy="3.72599" stroke-width="2.70426" stroke="black" id="connector0pin" r="1.13386" fill="black" cx="3.72599" />
   </g>
  </g>
 </g>
 <g partID="856055610">
  <g transform="translate(140.233,236.849)">
   <g id="copper0" >
    <circle cy="3.72599" stroke-width="2.70426" stroke="black" id="connector0pin" r="1.13386" fill="black" cx="3.72599" />
   </g>
  </g>
 </g>
 <g partID="856056680">
  <g transform="translate(180.733,231.449)">
   <g id="copper0" >
    <circle cy="3.72599" stroke-width="2.70426" stroke="black" id="connector0pin" r="1.13386" fill="black" cx="3.72599" />
   </g>
  </g>
 </g>
 <g partID="856056740">
  <g transform="translate(133.033,254.849)">
   <g id="copper0" >
    <circle cy="3.72599" stroke-width="2.70426" stroke="black" id="connector0pin" r="1.13386" fill="black" cx="3.72599" />
   </g>
  </g>
 </g>
 <g partID="856057430">
  <g transform="translate(19.6327,222.449)">
   <g id="copper0" >
    <circle cy="3.72599" stroke-width="2.70426" stroke="black" id="connector0pin" r="1.13386" fill="black" cx="3.72599" />
   </g>
  </g>
 </g>
 <g partID="856057980">
  <g transform="translate(14.2327,215.249)">
   <g id="copper0" >
    <circle cy="3.72599" stroke-width="2.70426" stroke="black" id="connector0pin" r="1.13386" fill="black" cx="3.72599" />
   </g>
  </g>
 </g>
 <g partID="856060140">
  <g transform="translate(140.233,221.549)">
   <g id="copper0" >
    <circle cy="3.72599" stroke-width="2.70426" stroke="black" id="connector0pin" r="1.13386" fill="black" cx="3.72599" />
   </g>
  </g>
 </g>
 <g partID="856060940">
  <g transform="translate(197.833,218.849)">
   <g id="copper0" >
    <circle cy="3.72599" stroke-width="2.70426" stroke="black" id="connector0pin" r="1.13386" fill="black" cx="3.72599" />
   </g>
  </g>
 </g>
 <g partID="856063700">
  <g transform="translate(161.833,233.349)">
   <g id="copper0" >
    <circle cy="3.72599" stroke-width="2.70426" stroke="black" id="connector0pin" r="1.13386" fill="black" cx="3.72599" />
   </g>
  </g>
 </g>
 <g partID="856063960">
  <g transform="translate(154.633,262.949)">
   <g id="copper0" >
    <circle cy="3.72599" stroke-width="2.70426" stroke="black" id="connector0pin" r="1.13386" fill="black" cx="3.72599" />
   </g>
  </g>
 </g>
 <g partID="856069090">
  <g transform="translate(133.033,221.549)">
   <g id="copper0" >
    <circle cy="3.72599" stroke-width="2.70426" stroke="black" id="connector0pin" r="1.13386" fill="black" cx="3.72599" />
   </g>
  </g>
 </g>
 <g partID="856072630">
  <g transform="translate(274.333,183.849)">
   <g id="copper0" >
    <circle cy="3.72599" stroke-width="2.70426" stroke="black" id="connector0pin" r="1.13386" fill="black" cx="3.72599" />
   </g>
  </g>
 </g>
 <g partID="856079760">
  <g transform="translate(89.8327,201.749)">
   <g id="copper0" >
    <circle cy="3.72599" stroke-width="2.70426" stroke="black" id="connector0pin" r="1.13386" fill="black" cx="3.72599" />
   </g>
  </g>
 </g>
 <g partID="856086080">
  <g transform="translate(188.933,240.449)">
   <g id="copper0" >
    <circle cy="3.72599" stroke-width="2.70426" stroke="black" id="connector0pin" r="1.13386" fill="black" cx="3.72599" />
   </g>
  </g>
 </g>
 <g partID="856087030">
  <g transform="translate(221.233,247.649)">
   <g id="copper0" >
    <circle cy="3.72599" stroke-width="2.70426" stroke="black" id="connector0pin" r="1.13386" fill="black" cx="3.72599" />
   </g>
  </g>
 </g>
 <g partID="856087460">
  <g transform="translate(280.633,45.1496)">
   <g id="copper0" >
    <circle cy="3.72599" stroke-width="2.70426" stroke="black" id="connector0pin" r="1.13386" fill="black" cx="3.72599" />
   </g>
  </g>
 </g>
 <g partID="856098940">
  <g transform="translate(76.3327,49.6496)">
   <g id="copper0" >
    <circle cy="3.72599" stroke-width="2.70426" stroke="black" id="connector0pin" r="1.13386" fill="black" cx="3.72599" />
   </g>
  </g>
 </g>
 <g partID="856099620">
  <g transform="translate(32.2327,49.6496)">
   <g id="copper0" >
    <circle cy="3.72599" stroke-width="2.70426" stroke="black" id="connector0pin" r="1.13386" fill="black" cx="3.72599" />
   </g>
  </g>
 </g>
 <g partID="856105720">
  <g transform="translate(285.133,176.649)">
   <g id="copper0" >
    <circle cy="3.72599" stroke-width="2.70426" stroke="black" id="connector0pin" r="1.13386" fill="black" cx="3.72599" />
   </g>
  </g>
 </g>
 <g partID="855902890">
  <g transform="translate(308.207,5.2232)">
   <g id="copper0" >
    <circle cy="5.85197" stroke-width="0.72" stroke="black" id="nonconn0" r="4.25197" fill="black" cx="5.85197" />
   </g>
  </g>
 </g>
 <g partID="855902880">
  <g transform="translate(3.10672,5.2232)">
   <g id="copper0" >
    <circle cy="5.85197" stroke-width="0.72" stroke="black" id="nonconn0" r="4.25197" fill="black" cx="5.85197" />
   </g>
  </g>
 </g>
 <g partID="855902860">
  <g transform="translate(308.207,266.223)">
   <g id="copper0" >
    <circle cy="5.85197" stroke-width="0.72" stroke="black" id="nonconn0" r="4.25197" fill="black" cx="5.85197" />
   </g>
  </g>
 </g>
 <g partID="855809010">
  <g transform="translate(3.10672,266.223)">
   <g id="copper0" >
    <circle cy="5.85197" stroke-width="0.72" stroke="black" id="nonconn0" r="4.25197" fill="black" cx="5.85197" />
   </g>
  </g>
 </g>
 <g partID="855817790">
  <g transform="translate(17.8327,28.0496)">
   <g id="copper0" >
    <circle cy="3.72599" stroke-width="2.70426" stroke="black" id="connector0pin" r="1.13386" fill="black" cx="3.72599" />
   </g>
  </g>
 </g>
 <g partID="855903000">
  <g transform="translate(11.4787,41.8688)">
   <g transform="matrix(0,-1,1,0,0,0)">
    <g id="copper0" >
     <g id="copper1" >
      <circle cy="2.88" stroke="black" stroke-width="2.16" id="connector0pin" r="1.8" fill="black" cx="2.88" />
      <circle cy="2.88" stroke="black" stroke-width="2.16" id="connector1pin" r="1.8" fill="black" cx="10.0933" />
     </g>
    </g>
   </g>
  </g>
 </g>
 <g partID="855907020">
  <g transform="translate(309.919,29.4352)">
   <g id="copper0" >
    <circle cy="5.04" stroke="black" stroke-width="2.16" id="connector0pin" r="2.088" fill="black" cx="5.04" />
    <circle cy="12.24" stroke="black" stroke-width="2.16" id="connector1pin" r="2.088" fill="black" cx="5.04" />
   </g>
  </g>
 </g>
 <g partID="855961590">
  <g transform="translate(248.179,131.869)">
   <g transform="matrix(0,-1,1,0,0,0)">
    <g id="copper0" >
     <g id="copper1" >
      <circle cy="2.88" stroke="black" stroke-width="2.16" id="connector0pin" r="1.8" fill="black" cx="2.88" />
      <circle cy="2.88" stroke="black" stroke-width="2.16" id="connector1pin" r="1.8" fill="black" cx="10.0933" />
     </g>
    </g>
   </g>
  </g>
 </g>
 <g partID="855751710">
  <g transform="translate(278.765,165.695)">
   <g transform="matrix(1,0,0,1,0,0)">
    <g id="copper0" >
     <g id="copper1" >
      <circle cy="2.88" stroke="black" stroke-width="2.16" id="connector0pin" r="1.8" fill="black" cx="2.88" />
      <circle cy="2.88" stroke="black" stroke-width="2.16" id="connector1pin" r="1.8" fill="black" cx="10.0933" />
     </g>
    </g>
   </g>
  </g>
 </g>
 <g partID="855777560">
  <g transform="translate(42.4787,49.0352)">
   <g id="copper0" >
    <rect width="3.96" x="2.34" stroke="black" stroke-width="2.16" id="square" height="3.96" fill="black" y="2.34" />
    <circle cy="4.32" stroke="black" stroke-width="2.16" id="connector0pin" r="1.98" fill="black" cx="4.32" />
    <circle cy="4.32" stroke="black" stroke-width="2.16" id="connector19pin" r="1.98" fill="black" cx="25.92" />
    <circle cy="11.52" stroke="black" stroke-width="2.16" id="connector1pin" r="1.98" fill="black" cx="4.32" />
    <circle cy="11.52" stroke="black" stroke-width="2.16" id="connector18pin" r="1.98" fill="black" cx="25.92" />
    <circle cy="18.72" stroke="black" stroke-width="2.16" id="connector2pin" r="1.98" fill="black" cx="4.32" />
    <circle cy="18.72" stroke="black" stroke-width="2.16" id="connector17pin" r="1.98" fill="black" cx="25.92" />
    <circle cy="25.92" stroke="black" stroke-width="2.16" id="connector3pin" r="1.98" fill="black" cx="4.32" />
    <circle cy="25.92" stroke="black" stroke-width="2.16" id="connector16pin" r="1.98" fill="black" cx="25.92" />
    <circle cy="33.12" stroke="black" stroke-width="2.16" id="connector4pin" r="1.98" fill="black" cx="4.32" />
    <circle cy="33.12" stroke="black" stroke-width="2.16" id="connector15pin" r="1.98" fill="black" cx="25.92" />
    <circle cy="40.32" stroke="black" stroke-width="2.16" id="connector5pin" r="1.98" fill="black" cx="4.32" />
    <circle cy="40.32" stroke="black" stroke-width="2.16" id="connector14pin" r="1.98" fill="black" cx="25.92" />
    <circle cy="47.52" stroke="black" stroke-width="2.16" id="connector6pin" r="1.98" fill="black" cx="4.32" />
    <circle cy="47.52" stroke="black" stroke-width="2.16" id="connector13pin" r="1.98" fill="black" cx="25.92" />
    <circle cy="54.72" stroke="black" stroke-width="2.16" id="connector7pin" r="1.98" fill="black" cx="4.32" />
    <circle cy="54.72" stroke="black" stroke-width="2.16" id="connector12pin" r="1.98" fill="black" cx="25.92" />
    <circle cy="61.92" stroke="black" stroke-width="2.16" id="connector8pin" r="1.98" fill="black" cx="4.32" />
    <circle cy="61.92" stroke="black" stroke-width="2.16" id="connector11pin" r="1.98" fill="black" cx="25.92" />
    <circle cy="69.12" stroke="black" stroke-width="2.16" id="connector9pin" r="1.98" fill="black" cx="4.32" />
    <circle cy="69.12" stroke="black" stroke-width="2.16" id="connector10pin" r="1.98" fill="black" cx="25.92" />
   </g>
  </g>
 </g>
 <g partID="855784480">
  <g transform="translate(0.85872,48.3352)">
   <g id="copper0" >
    <circle cy="5.04" stroke="black" stroke-width="2.16" id="connector0pin" r="2.088" fill="black" cx="5.4" />
   </g>
  </g>
 </g>
 <g partID="855784490">
  <g transform="translate(1.21872,55.5352)">
   <g id="copper0" >
    <circle cy="5.04" stroke="black" stroke-width="2.16" id="connector0pin" r="2.088" fill="black" cx="5.04" />
    <circle cy="12.24" stroke="black" stroke-width="2.16" id="connector1pin" r="2.088" fill="black" cx="5.04" />
    <circle cy="19.44" stroke="black" stroke-width="2.16" id="connector2pin" r="2.088" fill="black" cx="5.04" />
    <circle cy="26.64" stroke="black" stroke-width="2.16" id="connector3pin" r="2.088" fill="black" cx="5.04" />
    <circle cy="33.84" stroke="black" stroke-width="2.16" id="connector4pin" r="2.088" fill="black" cx="5.04" />
    <circle cy="41.04" stroke="black" stroke-width="2.16" id="connector5pin" r="2.088" fill="black" cx="5.04" />
    <circle cy="48.24" stroke="black" stroke-width="2.16" id="connector6pin" r="2.088" fill="black" cx="5.04" />
    <circle cy="55.44" stroke="black" stroke-width="2.16" id="connector7pin" r="2.088" fill="black" cx="5.04" />
   </g>
  </g>
 </g>
 <g partID="855752320">
  <g transform="translate(280.186,217.748)">
   <g transform="matrix(0,-1,1,0,0,0)">
    <g id="copper0" >
     <circle cy="5.04" stroke="black" stroke-width="2.16" id="connector0pin" r="2.088" fill="black" cx="5.04" />
    </g>
   </g>
  </g>
 </g>
 <g partID="855752360">
  <g transform="translate(272.986,217.748)">
   <g transform="matrix(0,-1,1,0,0,0)">
    <g id="copper0" >
     <circle cy="5.04" stroke="black" stroke-width="2.16" id="connector0pin" r="2.088" fill="black" cx="5.04" />
    </g>
   </g>
  </g>
 </g>
 <g partID="855752400">
  <g transform="translate(265.786,217.748)">
   <g transform="matrix(0,-1,1,0,0,0)">
    <g id="copper0" >
     <circle cy="5.04" stroke="black" stroke-width="2.16" id="connector0pin" r="2.088" fill="black" cx="5.04" />
    </g>
   </g>
  </g>
 </g>
 <g partID="855752450">
  <g transform="translate(186.586,217.748)">
   <g transform="matrix(0,-1,1,0,0,0)">
    <g id="copper0" >
     <circle cy="5.04" stroke="black" stroke-width="2.16" id="connector0pin" r="2.088" fill="black" cx="5.04" />
    </g>
   </g>
  </g>
 </g>
 <g partID="855752470">
  <g transform="translate(179.386,217.748)">
   <g transform="matrix(0,-1,1,0,0,0)">
    <g id="copper0" >
     <circle cy="5.04" stroke="black" stroke-width="2.16" id="connector0pin" r="2.088" fill="black" cx="5.04" />
    </g>
   </g>
  </g>
 </g>
 <g partID="855752490">
  <g transform="translate(279.286,51.0688)">
   <g id="copper0" >
    <circle cy="5.04" stroke="black" stroke-width="2.16" id="connector0pin" r="2.088" fill="black" cx="5.04" />
   </g>
  </g>
 </g>
 <g partID="855752500">
  <g transform="translate(214.519,15.2152)">
   <g transform="matrix(0,-1,1,0,0,0)">
    <g id="copper0" >
     <circle cy="5.04" stroke="black" stroke-width="2.16" id="connector0pin" r="2.088" fill="black" cx="5.04" />
     <circle cy="12.24" stroke="black" stroke-width="2.16" id="connector1pin" r="2.088" fill="black" cx="5.04" />
     <circle cy="19.44" stroke="black" stroke-width="2.16" id="connector2pin" r="2.088" fill="black" cx="5.04" />
     <circle cy="26.64" stroke="black" stroke-width="2.16" id="connector3pin" r="2.088" fill="black" cx="5.04" />
     <circle cy="33.84" stroke="black" stroke-width="2.16" id="connector4pin" r="2.088" fill="black" cx="5.04" />
     <circle cy="41.04" stroke="black" stroke-width="2.16" id="connector5pin" r="2.088" fill="black" cx="5.04" />
     <circle cy="48.24" stroke="black" stroke-width="2.16" id="connector6pin" r="2.088" fill="black" cx="5.04" />
     <circle cy="55.44" stroke="black" stroke-width="2.16" id="connector7pin" r="2.088" fill="black" cx="5.04" />
    </g>
   </g>
  </g>
 </g>
 <g partID="855752510">
  <g transform="translate(214.486,61.1488)">
   <g transform="matrix(0,-1,1,0,0,0)">
    <g id="copper0" >
     <circle cy="5.04" stroke="black" stroke-width="2.16" id="connector0pin" r="2.088" fill="black" cx="5.04" />
     <circle cy="12.24" stroke="black" stroke-width="2.16" id="connector1pin" r="2.088" fill="black" cx="5.04" />
     <circle cy="19.44" stroke="black" stroke-width="2.16" id="connector2pin" r="2.088" fill="black" cx="5.04" />
     <circle cy="26.64" stroke="black" stroke-width="2.16" id="connector3pin" r="2.088" fill="black" cx="5.04" />
     <circle cy="33.84" stroke="black" stroke-width="2.16" id="connector4pin" r="2.088" fill="black" cx="5.04" />
     <circle cy="41.04" stroke="black" stroke-width="2.16" id="connector5pin" r="2.088" fill="black" cx="5.04" />
     <circle cy="48.24" stroke="black" stroke-width="2.16" id="connector6pin" r="2.088" fill="black" cx="5.04" />
     <circle cy="55.44" stroke="black" stroke-width="2.16" id="connector7pin" r="2.088" fill="black" cx="5.04" />
    </g>
   </g>
  </g>
 </g>
 <g partID="855752520">
  <g transform="translate(120.919,15.2152)">
   <g transform="matrix(0,-1,1,0,0,0)">
    <g id="copper0" >
     <circle cy="5.04" stroke="black" stroke-width="2.16" id="connector0pin" r="2.088" fill="black" cx="5.04" />
     <circle cy="12.24" stroke="black" stroke-width="2.16" id="connector1pin" r="2.088" fill="black" cx="5.04" />
     <circle cy="19.44" stroke="black" stroke-width="2.16" id="connector2pin" r="2.088" fill="black" cx="5.04" />
     <circle cy="26.64" stroke="black" stroke-width="2.16" id="connector3pin" r="2.088" fill="black" cx="5.04" />
     <circle cy="33.84" stroke="black" stroke-width="2.16" id="connector4pin" r="2.088" fill="black" cx="5.04" />
     <circle cy="41.04" stroke="black" stroke-width="2.16" id="connector5pin" r="2.088" fill="black" cx="5.04" />
     <circle cy="48.24" stroke="black" stroke-width="2.16" id="connector6pin" r="2.088" fill="black" cx="5.04" />
     <circle cy="55.44" stroke="black" stroke-width="2.16" id="connector7pin" r="2.088" fill="black" cx="5.04" />
    </g>
   </g>
  </g>
 </g>
 <g partID="855752530">
  <g transform="translate(120.886,61.1488)">
   <g transform="matrix(0,-1,1,0,0,0)">
    <g id="copper0" >
     <circle cy="5.04" stroke="black" stroke-width="2.16" id="connector0pin" r="2.088" fill="black" cx="5.04" />
     <circle cy="12.24" stroke="black" stroke-width="2.16" id="connector1pin" r="2.088" fill="black" cx="5.04" />
     <circle cy="19.44" stroke="black" stroke-width="2.16" id="connector2pin" r="2.088" fill="black" cx="5.04" />
     <circle cy="26.64" stroke="black" stroke-width="2.16" id="connector3pin" r="2.088" fill="black" cx="5.04" />
     <circle cy="33.84" stroke="black" stroke-width="2.16" id="connector4pin" r="2.088" fill="black" cx="5.04" />
     <circle cy="41.04" stroke="black" stroke-width="2.16" id="connector5pin" r="2.088" fill="black" cx="5.04" />
     <circle cy="48.24" stroke="black" stroke-width="2.16" id="connector6pin" r="2.088" fill="black" cx="5.04" />
     <circle cy="55.44" stroke="black" stroke-width="2.16" id="connector7pin" r="2.088" fill="black" cx="5.04" />
    </g>
   </g>
  </g>
 </g>
 <g partID="855752550">
  <g transform="translate(200.986,217.748)">
   <g transform="matrix(0,-1,1,0,0,0)">
    <g id="copper0" >
     <circle cy="5.04" stroke="black" stroke-width="2.16" id="connector0pin" r="2.088" fill="black" cx="5.04" />
     <circle cy="12.24" stroke="black" stroke-width="2.16" id="connector1pin" r="2.088" fill="black" cx="5.04" />
     <circle cy="19.44" stroke="black" stroke-width="2.16" id="connector2pin" r="2.088" fill="black" cx="5.04" />
     <circle cy="26.64" stroke="black" stroke-width="2.16" id="connector3pin" r="2.088" fill="black" cx="5.04" />
     <circle cy="33.84" stroke="black" stroke-width="2.16" id="connector4pin" r="2.088" fill="black" cx="5.04" />
     <circle cy="41.04" stroke="black" stroke-width="2.16" id="connector5pin" r="2.088" fill="black" cx="5.04" />
     <circle cy="48.24" stroke="black" stroke-width="2.16" id="connector6pin" r="2.088" fill="black" cx="5.04" />
     <circle cy="55.44" stroke="black" stroke-width="2.16" id="connector7pin" r="2.088" fill="black" cx="5.04" />
    </g>
   </g>
  </g>
 </g>
 <g partID="855902980">
  <g transform="translate(11.2987,44.0152)">
   <g transform="matrix(-1,0,0,-1,0,0)">
    <g id="copper0" >
     <circle cy="5.04" stroke="black" stroke-width="2.16" id="connector0pin" r="2.088" fill="black" cx="5.04" />
     <circle cy="12.24" stroke="black" stroke-width="2.16" id="connector1pin" r="2.088" fill="black" cx="5.04" />
    </g>
   </g>
  </g>
 </g>
 <g partID="855752570">
  <g transform="translate(288.466,192.548)">
   <g transform="matrix(-1,0,0,-1,0,0)">
    <g id="copper0" >
     <circle cy="5.04" stroke="black" stroke-width="2.16" id="connector0pin" r="2.088" fill="black" cx="5.04" />
     <circle cy="12.24" stroke="black" stroke-width="2.16" id="connector1pin" r="2.088" fill="black" cx="5.04" />
    </g>
   </g>
  </g>
 </g>
 <g partID="855923100">
  <g transform="translate(290.207,197.823)">
   <g id="copper0" >
    <circle cy="5.85197" stroke-width="0.72" stroke="black" id="nonconn0" r="4.25197" fill="black" cx="5.85197" />
   </g>
  </g>
 </g>
 <g partID="855923120">
  <g transform="translate(107.508,197.823)">
   <g id="copper0" >
    <circle cy="5.85197" stroke-width="0.72" stroke="black" id="nonconn0" r="4.25197" fill="black" cx="5.85197" />
   </g>
  </g>
 </g>
 <g partID="856094500">
  <g transform="translate(290.207,61.0232)">
   <g id="copper0" >
    <circle cy="5.85197" stroke-width="0.72" stroke="black" id="nonconn0" r="4.25197" fill="black" cx="5.85197" />
   </g>
  </g>
 </g>
</svg>
