G04 MADE WITH FRITZING*
G04 WWW.FRITZING.ORG*
G04 DOUBLE SIDED*
G04 HOLES PLATED*
G04 CONTOUR ON CENTER OF CONTOUR VECTOR*
%ASAXBY*%
%FSLAX23Y23*%
%MOIN*%
%OFA0B0*%
%SFA1.0B1.0*%
%ADD10R,0.074803X0.062992*%
%LNPASTEMASK1*%
G90*
G70*
G54D10*
X372Y422D03*
X372Y544D03*
X472Y422D03*
X472Y544D03*
X672Y419D03*
X672Y541D03*
X572Y419D03*
X572Y541D03*
X772Y422D03*
X772Y544D03*
X872Y422D03*
X872Y544D03*
X972Y419D03*
X972Y541D03*
X1072Y419D03*
X1072Y541D03*
X1172Y422D03*
X1172Y544D03*
X1272Y422D03*
X1272Y544D03*
X1372Y419D03*
X1372Y541D03*
X1472Y419D03*
X1472Y541D03*
X1672Y422D03*
X1672Y544D03*
X1572Y422D03*
X1572Y544D03*
X1772Y419D03*
X1772Y541D03*
X1872Y419D03*
X1872Y541D03*
X2047Y425D03*
X2047Y547D03*
X2147Y425D03*
X2147Y547D03*
X2247Y425D03*
X2247Y547D03*
X2347Y422D03*
X2347Y544D03*
X2447Y422D03*
X2447Y544D03*
X2547Y422D03*
X2547Y544D03*
X2647Y422D03*
X2647Y544D03*
X2747Y422D03*
X2747Y544D03*
X2847Y425D03*
X2847Y547D03*
X2947Y425D03*
X2947Y547D03*
X3047Y425D03*
X3047Y547D03*
X3147Y422D03*
X3147Y544D03*
X3247Y422D03*
X3247Y544D03*
X3347Y422D03*
X3347Y544D03*
X3447Y422D03*
X3447Y544D03*
X3547Y422D03*
X3547Y544D03*
X372Y647D03*
X372Y769D03*
X472Y647D03*
X472Y769D03*
X572Y644D03*
X572Y766D03*
X672Y644D03*
X672Y766D03*
X872Y647D03*
X872Y769D03*
X772Y647D03*
X772Y769D03*
X972Y644D03*
X972Y766D03*
X1072Y644D03*
X1072Y766D03*
X1172Y647D03*
X1172Y769D03*
X1272Y647D03*
X1272Y769D03*
X1472Y644D03*
X1472Y766D03*
X1372Y644D03*
X1372Y766D03*
X1672Y647D03*
X1672Y769D03*
X1572Y647D03*
X1572Y769D03*
X1772Y644D03*
X1772Y766D03*
X1872Y644D03*
X1872Y766D03*
X2047Y650D03*
X2047Y772D03*
X2147Y650D03*
X2147Y772D03*
X2247Y650D03*
X2247Y772D03*
X2347Y647D03*
X2347Y769D03*
X2447Y647D03*
X2447Y769D03*
X2547Y647D03*
X2547Y769D03*
X2647Y647D03*
X2647Y769D03*
X2747Y647D03*
X2747Y769D03*
X2847Y650D03*
X2847Y772D03*
X2947Y650D03*
X2947Y772D03*
X3047Y650D03*
X3047Y772D03*
X3147Y647D03*
X3147Y769D03*
X3247Y647D03*
X3247Y769D03*
X3347Y647D03*
X3347Y769D03*
X3447Y647D03*
X3447Y769D03*
X3547Y647D03*
X3547Y769D03*
G04 End of PasteMask1*
M02*