; NON-PLATED HOLES START AT T1
; THROUGH (PLATED) HOLES START AT T100
M48
INCH
T1C0.118110
T100C0.038000
T101C0.030000
T102C0.035000
T103C0.015748
%
T1
X037717Y036465
X001467Y001465
X001467Y036465
X037717Y001465
T100
X015717Y001215
X031467Y001215
X009717Y001215
X030467Y030965
X038467Y019965
X007717Y001215
X038467Y020965
X036467Y026965
X035467Y001215
X038467Y016965
X036467Y024965
X006717Y001215
X005717Y001215
X037467Y023965
X030467Y026965
X036467Y022965
X037467Y026965
X038467Y023965
X008717Y001215
X037467Y018965
X029467Y001215
X030467Y023965
X030467Y021965
X036467Y023965
X030467Y029965
X004717Y001215
X028467Y001215
X038467Y025965
X037467Y019965
X038467Y022965
X037467Y021965
X030467Y001215
X036467Y025965
X030467Y019965
X038467Y021965
X032467Y001215
X030467Y024965
X013717Y001215
X038467Y013965
X016717Y001215
X023467Y001215
X030467Y020965
X030467Y025965
X038467Y026965
X036467Y020965
X022467Y001215
X036467Y027965
X026467Y001215
X036467Y030965
X036467Y019965
X014717Y001215
X003717Y001215
X027467Y001215
X025467Y001215
X037467Y024965
X030467Y022965
X038467Y014965
X012717Y001215
X017717Y001215
X011717Y001215
X036467Y029965
X020467Y001215
X037467Y014965
X037967Y010465
X018717Y001215
X036467Y021965
X037467Y013965
X030467Y028965
X037967Y009465
X037467Y016965
X037467Y020965
X037467Y017965
X038467Y024965
X033467Y001215
X037467Y025965
X034467Y001215
X038467Y017965
X030467Y027965
X037467Y022965
X036467Y028965
X021467Y001215
X024467Y001215
X010717Y001215
X038467Y018965
T101
X013967Y026465
X035217Y013215
X014969Y026465
X034215Y013215
T102
X007717Y022965
X024717Y017715
X007717Y023965
X024717Y023965
X004717Y015715
X007717Y018715
X024717Y015715
X007717Y024965
X004717Y017715
X012978Y020217
X024717Y016715
X021717Y012715
X021717Y015715
X015978Y021217
X024717Y019715
X012978Y025217
X024717Y029965
X007717Y012715
X024717Y014715
X004717Y018715
X021717Y026965
X012978Y019217
X021717Y023965
X024717Y022965
X015978Y020217
X015978Y025217
X015978Y018217
X004717Y028965
X004717Y027965
X021717Y016715
X004717Y012715
X004717Y024965
X024717Y026965
X021717Y019715
X007717Y019715
X012978Y018217
X021717Y013715
X007717Y028965
X004717Y025965
X021717Y022965
X015978Y022217
X012978Y024217
X021717Y025965
X012978Y022217
X004717Y013715
X021717Y029965
X024717Y013715
X021717Y017715
X012978Y023217
X015978Y019217
X024717Y025965
X021717Y024965
X007717Y025965
X004717Y026965
X024717Y024965
X024717Y027965
X021717Y028965
X004717Y022965
X007717Y014715
X021717Y027965
X007717Y013715
X024717Y018715
X021717Y014715
X007717Y026965
X007717Y016715
X004717Y029965
X024717Y012715
X007717Y015715
X004717Y019715
X012978Y021217
X024717Y028965
X004717Y014715
X007717Y017715
X015978Y023217
X021717Y018715
X007717Y029965
X004717Y016715
X004717Y023965
X007717Y027965
X015978Y024217
T103
X012217Y020215
X005217Y011715
X030467Y003465
X031717Y018465
X021717Y010215
X026467Y027965
X012967Y017465
X003967Y017715
X035217Y012465
X020467Y003465
X026467Y021965
X028467Y003465
X034467Y003465
X022217Y011715
X006717Y019715
X008717Y003436
X029467Y003465
X023467Y003465
X021217Y009465
X034217Y022965
X021467Y021965
X018717Y003436
X003717Y003436
X025717Y021465
X003967Y014715
X032467Y003465
X016967Y019215
X010717Y003436
X006717Y003436
X009717Y003436
X033467Y003465
X003967Y027965
X015717Y003436
X035217Y030715
X003967Y015715
X032717Y021965
X006717Y029465
X020967Y014715
X034217Y014965
X012217Y019215
X004967Y010715
X003967Y016715
X003967Y018715
X008467Y018715
X035217Y022465
X024467Y003465
X006717Y031215
X017717Y003436
X011717Y003436
X007717Y003436
X016967Y018215
X016967Y021215
X021467Y003465
X026467Y003465
X004467Y009965
X008467Y028965
X022467Y003465
X024717Y020715
X025467Y003465
X012217Y021215
X008217Y032965
X016967Y020215
X034217Y009465
X003967Y009215
X020967Y021215
X020967Y016715
X013717Y003436
X016967Y022215
X016717Y003436
X020967Y015715
X004717Y003436
X027467Y003465
X023717Y029465
X022717Y021965
X005717Y003436
X015967Y026465
X022967Y009965
X007467Y020965
X034217Y019965
X005717Y022965
X003967Y028965
X033217Y018715
X025467Y028965
X030717Y034215
X031217Y024965
X020967Y029965
X031467Y003465
X025717Y026965
X035467Y003465
X014717Y003436
X012217Y022215
X026967Y028965
X035217Y013965
X012717Y003436
X033018Y031886
T00
M30
