G04 MADE WITH FRITZING*
G04 WWW.FRITZING.ORG*
G04 DOUBLE SIDED*
G04 HOLES PLATED*
G04 CONTOUR ON CENTER OF CONTOUR VECTOR*
%ASAXBY*%
%FSLAX23Y23*%
%MOIN*%
%OFA0B0*%
%SFA1.0B1.0*%
%ADD10C,0.088000*%
%ADD11C,0.080000*%
%ADD12C,0.049370*%
%ADD13C,0.128110*%
%ADD14C,0.085000*%
%ADD15R,0.084803X0.072992*%
%ADD16R,0.085000X0.085000*%
%LNMASK1*%
G90*
G70*
G54D10*
X3797Y1047D03*
X3797Y947D03*
G54D11*
X1397Y2647D03*
X1497Y2647D03*
G54D12*
X2097Y1572D03*
X2097Y1472D03*
X2297Y997D03*
X2172Y1022D03*
X397Y1672D03*
X397Y1572D03*
X397Y1472D03*
X397Y922D03*
X447Y997D03*
X497Y1072D03*
X1297Y1747D03*
X2122Y947D03*
X2097Y1672D03*
X3272Y2197D03*
X3322Y1872D03*
X3122Y2497D03*
X3172Y1847D03*
X3522Y3072D03*
X3072Y3422D03*
X3302Y3189D03*
X3522Y1247D03*
G54D10*
X3647Y3097D03*
X3647Y2997D03*
X3647Y2897D03*
X3647Y2797D03*
X3647Y2697D03*
X3647Y2597D03*
X3647Y2497D03*
X3647Y2397D03*
X3647Y2297D03*
X3647Y2197D03*
X3647Y2097D03*
X3647Y1997D03*
X3047Y3097D03*
X3047Y2997D03*
X3047Y2897D03*
X3047Y2797D03*
X3047Y2697D03*
X3047Y2597D03*
X3047Y2497D03*
X3047Y2397D03*
X3047Y2297D03*
X3047Y2197D03*
X3047Y2097D03*
X3047Y1997D03*
G54D12*
X2047Y347D03*
X2147Y347D03*
X2247Y347D03*
X2347Y347D03*
X2447Y347D03*
X2547Y347D03*
X2647Y347D03*
X2747Y347D03*
X2847Y347D03*
X2947Y347D03*
X3047Y347D03*
X3147Y347D03*
X3247Y347D03*
X3347Y347D03*
X3447Y347D03*
X3547Y347D03*
X3422Y947D03*
X372Y344D03*
X472Y344D03*
X572Y344D03*
X672Y344D03*
X772Y344D03*
X872Y344D03*
X972Y344D03*
X1072Y344D03*
X1172Y344D03*
X1272Y344D03*
X1372Y344D03*
X1472Y344D03*
X1572Y344D03*
X1672Y344D03*
X1772Y344D03*
X1872Y344D03*
G54D13*
X147Y147D03*
X147Y3647D03*
X3772Y3647D03*
X3772Y147D03*
G54D11*
X3422Y1322D03*
X3522Y1322D03*
G54D14*
X2172Y1972D03*
X2472Y1972D03*
X2172Y1872D03*
X2472Y1872D03*
X2172Y1772D03*
X2472Y1772D03*
X2172Y1672D03*
X2472Y1672D03*
X2172Y1572D03*
X2472Y1572D03*
X2172Y1472D03*
X2472Y1472D03*
X2172Y1372D03*
X2472Y1372D03*
X2172Y1272D03*
X2472Y1272D03*
X2172Y2997D03*
X2472Y2997D03*
X2172Y2897D03*
X2472Y2897D03*
X2172Y2797D03*
X2472Y2797D03*
X2172Y2697D03*
X2472Y2697D03*
X2172Y2597D03*
X2472Y2597D03*
X2172Y2497D03*
X2472Y2497D03*
X2172Y2397D03*
X2472Y2397D03*
X2172Y2297D03*
X2472Y2297D03*
X1298Y2522D03*
X1598Y2522D03*
X1298Y2422D03*
X1598Y2422D03*
X1298Y2322D03*
X1598Y2322D03*
X1298Y2222D03*
X1598Y2222D03*
X1298Y2122D03*
X1598Y2122D03*
X1298Y2022D03*
X1598Y2022D03*
X1298Y1922D03*
X1598Y1922D03*
X1298Y1822D03*
X1598Y1822D03*
X472Y1972D03*
X772Y1972D03*
X472Y1872D03*
X772Y1872D03*
X472Y1772D03*
X772Y1772D03*
X472Y1672D03*
X772Y1672D03*
X472Y1572D03*
X772Y1572D03*
X472Y1472D03*
X772Y1472D03*
X472Y1372D03*
X772Y1372D03*
X472Y1272D03*
X772Y1272D03*
X472Y2997D03*
X772Y2997D03*
X472Y2897D03*
X772Y2897D03*
X472Y2797D03*
X772Y2797D03*
X472Y2697D03*
X772Y2697D03*
X472Y2597D03*
X772Y2597D03*
X472Y2497D03*
X772Y2497D03*
X472Y2397D03*
X772Y2397D03*
X472Y2297D03*
X772Y2297D03*
G54D10*
X2447Y122D03*
X2547Y122D03*
X2647Y122D03*
X2747Y122D03*
X3147Y122D03*
X3047Y122D03*
X2947Y122D03*
X2847Y122D03*
X2047Y122D03*
X2147Y122D03*
X2247Y122D03*
X2347Y122D03*
X1472Y122D03*
X1372Y122D03*
X1272Y122D03*
X1172Y122D03*
X772Y122D03*
X872Y122D03*
X972Y122D03*
X1072Y122D03*
X372Y122D03*
X472Y122D03*
X572Y122D03*
X672Y122D03*
X3547Y122D03*
X3447Y122D03*
X3347Y122D03*
X3247Y122D03*
X1872Y122D03*
X1772Y122D03*
X1672Y122D03*
X1572Y122D03*
G54D12*
X2647Y2797D03*
X2647Y2197D03*
X2572Y2147D03*
X2572Y2697D03*
X2147Y2197D03*
G54D10*
X3847Y2697D03*
X3847Y2597D03*
X3847Y2497D03*
X3847Y2397D03*
X3847Y2297D03*
X3847Y2197D03*
X3847Y2097D03*
X3847Y1997D03*
X3847Y1897D03*
X3847Y1797D03*
X3847Y1697D03*
X3747Y2697D03*
X3747Y2597D03*
X3747Y2497D03*
X3747Y2397D03*
X3747Y2297D03*
X3747Y2197D03*
X3747Y2097D03*
X3747Y1997D03*
X3747Y1897D03*
X3747Y1797D03*
X3747Y1697D03*
G54D12*
X397Y1872D03*
X397Y2797D03*
X397Y2897D03*
X397Y1772D03*
X1222Y1922D03*
X847Y1872D03*
X1222Y2022D03*
X747Y2097D03*
X1222Y2222D03*
X672Y3122D03*
X1222Y2122D03*
X847Y2897D03*
X2097Y2122D03*
X1697Y1822D03*
X1697Y1922D03*
X1697Y2022D03*
X1697Y2122D03*
X1697Y2222D03*
X2097Y2997D03*
X2547Y2897D03*
X2697Y2897D03*
G54D10*
X3847Y1497D03*
X3847Y1397D03*
X3747Y1497D03*
X3747Y1397D03*
G54D12*
X522Y1172D03*
X2222Y1172D03*
X3522Y1397D03*
X3522Y2247D03*
X3422Y1997D03*
X3422Y2297D03*
X3422Y1497D03*
X2272Y2197D03*
X572Y2297D03*
X2472Y2072D03*
X2372Y2947D03*
X1597Y2647D03*
X822Y3297D03*
X672Y1972D03*
X672Y2947D03*
G54D15*
X372Y422D03*
X372Y544D03*
X472Y422D03*
X472Y544D03*
X672Y419D03*
X672Y541D03*
X572Y419D03*
X572Y541D03*
X772Y422D03*
X772Y544D03*
X872Y422D03*
X872Y544D03*
X972Y419D03*
X972Y541D03*
X1072Y419D03*
X1072Y541D03*
X1172Y422D03*
X1172Y544D03*
X1272Y422D03*
X1272Y544D03*
X1372Y419D03*
X1372Y541D03*
X1472Y419D03*
X1472Y541D03*
X1672Y422D03*
X1672Y544D03*
X1572Y422D03*
X1572Y544D03*
X1772Y419D03*
X1772Y541D03*
X1872Y419D03*
X1872Y541D03*
X2047Y425D03*
X2047Y547D03*
X2147Y425D03*
X2147Y547D03*
X2247Y425D03*
X2247Y547D03*
X2347Y422D03*
X2347Y544D03*
X2447Y422D03*
X2447Y544D03*
X2547Y422D03*
X2547Y544D03*
X2647Y422D03*
X2647Y544D03*
X2747Y422D03*
X2747Y544D03*
X2847Y425D03*
X2847Y547D03*
X2947Y425D03*
X2947Y547D03*
X3047Y425D03*
X3047Y547D03*
X3147Y422D03*
X3147Y544D03*
X3247Y422D03*
X3247Y544D03*
X3347Y422D03*
X3347Y544D03*
X3447Y422D03*
X3447Y544D03*
X3547Y422D03*
X3547Y544D03*
X372Y647D03*
X372Y769D03*
X472Y647D03*
X472Y769D03*
X572Y644D03*
X572Y766D03*
X672Y644D03*
X672Y766D03*
X872Y647D03*
X872Y769D03*
X772Y647D03*
X772Y769D03*
X972Y644D03*
X972Y766D03*
X1072Y644D03*
X1072Y766D03*
X1172Y647D03*
X1172Y769D03*
X1272Y647D03*
X1272Y769D03*
X1472Y644D03*
X1472Y766D03*
X1372Y644D03*
X1372Y766D03*
X1672Y647D03*
X1672Y769D03*
X1572Y647D03*
X1572Y769D03*
X1772Y644D03*
X1772Y766D03*
X1872Y644D03*
X1872Y766D03*
X2047Y650D03*
X2047Y772D03*
X2147Y650D03*
X2147Y772D03*
X2247Y650D03*
X2247Y772D03*
X2347Y647D03*
X2347Y769D03*
X2447Y647D03*
X2447Y769D03*
X2547Y647D03*
X2547Y769D03*
X2647Y647D03*
X2647Y769D03*
X2747Y647D03*
X2747Y769D03*
X2847Y650D03*
X2847Y772D03*
X2947Y650D03*
X2947Y772D03*
X3047Y650D03*
X3047Y772D03*
X3147Y647D03*
X3147Y769D03*
X3247Y647D03*
X3247Y769D03*
X3347Y647D03*
X3347Y769D03*
X3447Y647D03*
X3447Y769D03*
X3547Y647D03*
X3547Y769D03*
G54D16*
X2172Y1972D03*
X2172Y2997D03*
X1298Y2522D03*
X472Y1972D03*
X472Y2997D03*
G04 End of Mask1*
M02*