<?xml version="1.0" encoding="UTF-8" standalone="no"?>
<!-- Created with Fritzing (http://www.fritzing.org/) -->

<svg
   xmlns:dc="http://purl.org/dc/elements/1.1/"
   xmlns:cc="http://creativecommons.org/ns#"
   xmlns:rdf="http://www.w3.org/1999/02/22-rdf-syntax-ns#"
   xmlns:svg="http://www.w3.org/2000/svg"
   xmlns="http://www.w3.org/2000/svg"
   xmlns:sodipodi="http://sodipodi.sourceforge.net/DTD/sodipodi-0.dtd"
   xmlns:inkscape="http://www.inkscape.org/namespaces/inkscape"
   width="4.824316in"
   version="1.2"
   x="0in"
   y="0in"
   height="2.1630809in"
   viewBox="0 0 347.35157 155.74175"
   id="svg1593"
   sodipodi:docname="cnc.svg"
   inkscape:version="0.92.4 (unknown)">
  <metadata
     id="metadata1599">
    <rdf:RDF>
      <cc:Work
         rdf:about="">
        <dc:format>image/svg+xml</dc:format>
        <dc:type
           rdf:resource="http://purl.org/dc/dcmitype/StillImage" />
      </cc:Work>
    </rdf:RDF>
  </metadata>
  <defs
     id="defs1597" />
  <sodipodi:namedview
     pagecolor="#ffffff"
     bordercolor="#666666"
     borderopacity="1"
     objecttolerance="10"
     gridtolerance="10"
     guidetolerance="10"
     inkscape:pageopacity="0"
     inkscape:pageshadow="2"
     inkscape:window-width="535"
     inkscape:window-height="477"
     id="namedview1595"
     showgrid="false"
     inkscape:zoom="0.81816175"
     inkscape:cx="231.56716"
     inkscape:cy="103.82788"
     inkscape:window-x="0"
     inkscape:window-y="27"
     inkscape:window-maximized="0"
     inkscape:current-layer="svg1593" />
  <g
     inkscape:groupmode="layer"
     id="topmask"
     inkscape:label="topmask"
     transform="translate(-0.03722,-0.03812457)">
    <path
       style="fill:#000000;stroke:#000000;stroke-width:3.60567164"
       d="m 11.552734,5.6464844 a 6.0472258,6.0472258 0 0 0 -6.0468746,6.0468746 6.0472258,6.0472258 0 0 0 6.0468746,6.046875 6.0472258,6.0472258 0 0 0 6.046875,-6.046875 6.0472258,6.0472258 0 0 0 -6.046875,-6.0468746 z m 439.199216,0 a 6.0472258,6.0472258 0 0 0 -6.04687,6.0468746 6.0472258,6.0472258 0 0 0 6.04687,6.046875 6.0472258,6.0472258 0 0 0 6.04688,-6.046875 6.0472258,6.0472258 0 0 0 -6.04688,-6.0468746 z M 450.75,28.109375 a 2.7839936,2.7839936 0 0 0 -2.7832,2.783203 2.7839936,2.7839936 0 0 0 2.7832,2.785156 2.7839936,2.7839936 0 0 0 2.78516,-2.785156 2.7839936,2.7839936 0 0 0 -2.78516,-2.783203 z m -16.62109,3.205078 a 1.8897556,1.8897556 0 0 0 -1.89063,1.890625 1.8897556,1.8897556 0 0 0 1.89063,1.888672 1.8897556,1.8897556 0 0 0 1.89062,-1.888672 1.8897556,1.8897556 0 0 0 -1.89062,-1.890625 z m -398.578129,0.08984 a 1.8897556,1.8897556 0 0 0 -1.888672,1.888672 1.8897556,1.8897556 0 0 0 1.888672,1.890625 1.8897556,1.8897556 0 0 0 1.890625,-1.890625 1.8897556,1.8897556 0 0 0 -1.890625,-1.888672 z m 86.400389,0 a 1.8897556,1.8897556 0 0 0 -1.88867,1.888672 1.8897556,1.8897556 0 0 0 1.88867,1.890625 1.8897556,1.8897556 0 0 0 1.89063,-1.890625 1.8897556,1.8897556 0 0 0 -1.89063,-1.888672 z m 86.40039,0 a 1.8897556,1.8897556 0 0 0 -1.89062,1.888672 1.8897556,1.8897556 0 0 0 1.89062,1.890625 1.8897556,1.8897556 0 0 0 1.88867,-1.890625 1.8897556,1.8897556 0 0 0 -1.88867,-1.888672 z m 86.39844,0 a 1.8897556,1.8897556 0 0 0 -1.88867,1.888672 1.8897556,1.8897556 0 0 0 1.88867,1.890625 1.8897556,1.8897556 0 0 0 1.89062,-1.890625 1.8897556,1.8897556 0 0 0 -1.89062,-1.888672 z m 67.20117,0 a 1.8897556,1.8897556 0 0 0 -1.89062,1.888672 1.8897556,1.8897556 0 0 0 1.89062,1.890625 1.8897556,1.8897556 0 0 0 1.88867,-1.890625 1.8897556,1.8897556 0 0 0 -1.88867,-1.888672 z m -259.19922,0.05273 a 1.8897556,1.8897556 0 0 0 -1.89062,1.888672 1.8897556,1.8897556 0 0 0 1.89062,1.890625 1.8897556,1.8897556 0 0 0 1.88867,-1.890625 1.8897556,1.8897556 0 0 0 -1.88867,-1.888672 z m 86.39844,0 a 1.8897556,1.8897556 0 0 0 -1.88867,1.888672 1.8897556,1.8897556 0 0 0 1.88867,1.890625 1.8897556,1.8897556 0 0 0 1.89063,-1.890625 1.8897556,1.8897556 0 0 0 -1.89063,-1.888672 z m 86.40039,0 a 1.8897556,1.8897556 0 0 0 -1.89062,1.888672 1.8897556,1.8897556 0 0 0 1.89062,1.890625 1.8897556,1.8897556 0 0 0 1.88867,-1.890625 1.8897556,1.8897556 0 0 0 -1.88867,-1.888672 z m 105.59961,0 a 1.8897556,1.8897556 0 0 0 -1.89062,1.888672 1.8897556,1.8897556 0 0 0 1.89062,1.890625 1.8897556,1.8897556 0 0 0 1.89063,-1.890625 1.8897556,1.8897556 0 0 0 -1.89063,-1.888672 z M 450.75,37.708984 a 2.7839936,2.7839936 0 0 0 -2.7832,2.785157 2.7839936,2.7839936 0 0 0 2.7832,2.783203 2.7839936,2.7839936 0 0 0 2.78516,-2.783203 A 2.7839936,2.7839936 0 0 0 450.75,37.708984 Z M 93.152344,38.076172 a 2.3999944,2.3999944 0 0 0 -2.400391,2.398437 2.3999944,2.3999944 0 0 0 2.400391,2.400391 2.3999944,2.3999944 0 0 0 2.40039,-2.400391 2.3999944,2.3999944 0 0 0 -2.40039,-2.398437 z m 86.398436,0 a 2.3999944,2.3999944 0 0 0 -2.39844,2.398437 2.3999944,2.3999944 0 0 0 2.39844,2.400391 2.3999944,2.3999944 0 0 0 2.40039,-2.400391 2.3999944,2.3999944 0 0 0 -2.40039,-2.398437 z m 86.40039,0 a 2.3999944,2.3999944 0 0 0 -2.40039,2.398437 2.3999944,2.3999944 0 0 0 2.40039,2.400391 2.3999944,2.3999944 0 0 0 2.40039,-2.400391 2.3999944,2.3999944 0 0 0 -2.40039,-2.398437 z m 86.40039,0 a 2.3999944,2.3999944 0 0 0 -2.40039,2.398437 2.3999944,2.3999944 0 0 0 2.40039,2.400391 2.3999944,2.3999944 0 0 0 2.40039,-2.400391 2.3999944,2.3999944 0 0 0 -2.40039,-2.398437 z M 16.351562,40.253906 a 2.6399938,2.6399938 0 0 0 -2.638671,2.638672 2.6399938,2.6399938 0 0 0 2.638671,2.640625 2.6399938,2.6399938 0 0 0 2.640626,-2.640625 2.6399938,2.6399938 0 0 0 -2.640626,-2.638672 z m 9.59961,0 a 2.6399938,2.6399938 0 0 0 -2.638672,2.638672 2.6399938,2.6399938 0 0 0 2.638672,2.640625 2.6399938,2.6399938 0 0 0 2.640625,-2.640625 2.6399938,2.6399938 0 0 0 -2.640625,-2.638672 z m 9.601562,0 a 2.6399938,2.6399938 0 0 0 -2.640625,2.638672 2.6399938,2.6399938 0 0 0 2.640625,2.640625 2.6399938,2.6399938 0 0 0 2.638672,-2.640625 2.6399938,2.6399938 0 0 0 -2.638672,-2.638672 z m 9.59961,0 a 2.6399938,2.6399938 0 0 0 -2.640625,2.638672 2.6399938,2.6399938 0 0 0 2.640625,2.640625 2.6399938,2.6399938 0 0 0 2.638672,-2.640625 2.6399938,2.6399938 0 0 0 -2.638672,-2.638672 z m 9.599609,0 a 2.6399938,2.6399938 0 0 0 -2.640625,2.638672 2.6399938,2.6399938 0 0 0 2.640625,2.640625 2.6399938,2.6399938 0 0 0 2.640625,-2.640625 2.6399938,2.6399938 0 0 0 -2.640625,-2.638672 z m 9.599609,0 a 2.6399938,2.6399938 0 0 0 -2.640624,2.638672 2.6399938,2.6399938 0 0 0 2.640624,2.640625 2.6399938,2.6399938 0 0 0 2.640626,-2.640625 2.6399938,2.6399938 0 0 0 -2.640626,-2.638672 z m 9.59961,0 a 2.6399938,2.6399938 0 0 0 -2.638672,2.638672 2.6399938,2.6399938 0 0 0 2.638672,2.640625 2.6399938,2.6399938 0 0 0 2.640625,-2.640625 2.6399938,2.6399938 0 0 0 -2.640625,-2.638672 z m 6.960937,0 v 5.279297 h 5.279297 v -5.279297 z m 21.839841,0 a 2.6399938,2.6399938 0 0 0 -2.64062,2.638672 2.6399938,2.6399938 0 0 0 2.64062,2.640625 2.6399938,2.6399938 0 0 0 2.64063,-2.640625 2.6399938,2.6399938 0 0 0 -2.64063,-2.638672 z m 9.59961,0 a 2.6399938,2.6399938 0 0 0 -2.64062,2.638672 2.6399938,2.6399938 0 0 0 2.64062,2.640625 2.6399938,2.6399938 0 0 0 2.64063,-2.640625 2.6399938,2.6399938 0 0 0 -2.64063,-2.638672 z m 9.59961,0 a 2.6399938,2.6399938 0 0 0 -2.63867,2.638672 2.6399938,2.6399938 0 0 0 2.63867,2.640625 2.6399938,2.6399938 0 0 0 2.64063,-2.640625 2.6399938,2.6399938 0 0 0 -2.64063,-2.638672 z m 9.59961,0 a 2.6399938,2.6399938 0 0 0 -2.63867,2.638672 2.6399938,2.6399938 0 0 0 2.63867,2.640625 2.6399938,2.6399938 0 0 0 2.64063,-2.640625 2.6399938,2.6399938 0 0 0 -2.64063,-2.638672 z m 9.60156,0 a 2.6399938,2.6399938 0 0 0 -2.64062,2.638672 2.6399938,2.6399938 0 0 0 2.64062,2.640625 2.6399938,2.6399938 0 0 0 2.63868,-2.640625 2.6399938,2.6399938 0 0 0 -2.63868,-2.638672 z m 9.59961,0 a 2.6399938,2.6399938 0 0 0 -2.64062,2.638672 2.6399938,2.6399938 0 0 0 2.64062,2.640625 2.6399938,2.6399938 0 0 0 2.64063,-2.640625 2.6399938,2.6399938 0 0 0 -2.64063,-2.638672 z m 9.59961,0 a 2.6399938,2.6399938 0 0 0 -2.64062,2.638672 2.6399938,2.6399938 0 0 0 2.64062,2.640625 2.6399938,2.6399938 0 0 0 2.64063,-2.640625 2.6399938,2.6399938 0 0 0 -2.64063,-2.638672 z m 6.96094,0 v 5.279297 h 5.2793 v -5.279297 z m 21.83984,0 a 2.6399938,2.6399938 0 0 0 -2.64062,2.638672 2.6399938,2.6399938 0 0 0 2.64062,2.640625 2.6399938,2.6399938 0 0 0 2.63868,-2.640625 2.6399938,2.6399938 0 0 0 -2.63868,-2.638672 z m 9.59961,0 a 2.6399938,2.6399938 0 0 0 -2.64062,2.638672 2.6399938,2.6399938 0 0 0 2.64062,2.640625 2.6399938,2.6399938 0 0 0 2.63867,-2.640625 2.6399938,2.6399938 0 0 0 -2.63867,-2.638672 z m 9.59961,0 a 2.6399938,2.6399938 0 0 0 -2.64062,2.638672 2.6399938,2.6399938 0 0 0 2.64062,2.640625 2.6399938,2.6399938 0 0 0 2.64063,-2.640625 2.6399938,2.6399938 0 0 0 -2.64063,-2.638672 z m 9.59961,0 a 2.6399938,2.6399938 0 0 0 -2.64062,2.638672 2.6399938,2.6399938 0 0 0 2.64062,2.640625 2.6399938,2.6399938 0 0 0 2.64063,-2.640625 2.6399938,2.6399938 0 0 0 -2.64063,-2.638672 z m 9.59961,0 a 2.6399938,2.6399938 0 0 0 -2.63867,2.638672 2.6399938,2.6399938 0 0 0 2.63867,2.640625 2.6399938,2.6399938 0 0 0 2.64063,-2.640625 2.6399938,2.6399938 0 0 0 -2.64063,-2.638672 z m 9.60156,0 a 2.6399938,2.6399938 0 0 0 -2.64062,2.638672 2.6399938,2.6399938 0 0 0 2.64062,2.640625 2.6399938,2.6399938 0 0 0 2.63868,-2.640625 2.6399938,2.6399938 0 0 0 -2.63868,-2.638672 z m 9.59961,0 a 2.6399938,2.6399938 0 0 0 -2.64062,2.638672 2.6399938,2.6399938 0 0 0 2.64062,2.640625 2.6399938,2.6399938 0 0 0 2.63867,-2.640625 2.6399938,2.6399938 0 0 0 -2.63867,-2.638672 z m 6.95899,0 v 5.279297 h 5.28125 v -5.279297 z m 21.83984,0 a 2.6399938,2.6399938 0 0 0 -2.63867,2.638672 2.6399938,2.6399938 0 0 0 2.63867,2.640625 2.6399938,2.6399938 0 0 0 2.64063,-2.640625 2.6399938,2.6399938 0 0 0 -2.64063,-2.638672 z m 9.59961,0 a 2.6399938,2.6399938 0 0 0 -2.63867,2.638672 2.6399938,2.6399938 0 0 0 2.63867,2.640625 2.6399938,2.6399938 0 0 0 2.64063,-2.640625 2.6399938,2.6399938 0 0 0 -2.64063,-2.638672 z m 9.60156,0 a 2.6399938,2.6399938 0 0 0 -2.64062,2.638672 2.6399938,2.6399938 0 0 0 2.64062,2.640625 2.6399938,2.6399938 0 0 0 2.63867,-2.640625 2.6399938,2.6399938 0 0 0 -2.63867,-2.638672 z m 9.59961,0 a 2.6399938,2.6399938 0 0 0 -2.64062,2.638672 2.6399938,2.6399938 0 0 0 2.64062,2.640625 2.6399938,2.6399938 0 0 0 2.64063,-2.640625 2.6399938,2.6399938 0 0 0 -2.64063,-2.638672 z m 9.59961,0 a 2.6399938,2.6399938 0 0 0 -2.64062,2.638672 2.6399938,2.6399938 0 0 0 2.64062,2.640625 2.6399938,2.6399938 0 0 0 2.64063,-2.640625 2.6399938,2.6399938 0 0 0 -2.64063,-2.638672 z m 9.59961,0 a 2.6399938,2.6399938 0 0 0 -2.63867,2.638672 2.6399938,2.6399938 0 0 0 2.63867,2.640625 2.6399938,2.6399938 0 0 0 2.64063,-2.640625 2.6399938,2.6399938 0 0 0 -2.64063,-2.638672 z m 9.59961,0 a 2.6399938,2.6399938 0 0 0 -2.63867,2.638672 2.6399938,2.6399938 0 0 0 2.63867,2.640625 2.6399938,2.6399938 0 0 0 2.64063,-2.640625 2.6399938,2.6399938 0 0 0 -2.64063,-2.638672 z m 6.96094,0 v 5.279297 h 5.27929 v -5.279297 z m 21.83984,0 a 2.6399938,2.6399938 0 0 0 -2.64062,2.638672 2.6399938,2.6399938 0 0 0 2.64062,2.640625 2.6399938,2.6399938 0 0 0 2.64063,-2.640625 2.6399938,2.6399938 0 0 0 -2.64063,-2.638672 z m 9.59961,0 a 2.6399938,2.6399938 0 0 0 -2.63867,2.638672 2.6399938,2.6399938 0 0 0 2.63867,2.640625 2.6399938,2.6399938 0 0 0 2.64063,-2.640625 2.6399938,2.6399938 0 0 0 -2.64063,-2.638672 z m 9.59961,0 a 2.6399938,2.6399938 0 0 0 -2.63867,2.638672 2.6399938,2.6399938 0 0 0 2.63867,2.640625 2.6399938,2.6399938 0 0 0 2.64063,-2.640625 2.6399938,2.6399938 0 0 0 -2.64063,-2.638672 z m 9.60156,0 a 2.6399938,2.6399938 0 0 0 -2.64062,2.638672 2.6399938,2.6399938 0 0 0 2.64062,2.640625 2.6399938,2.6399938 0 0 0 2.63867,-2.640625 2.6399938,2.6399938 0 0 0 -2.63867,-2.638672 z m 9.59961,0 a 2.6399938,2.6399938 0 0 0 -2.64062,2.638672 2.6399938,2.6399938 0 0 0 2.64062,2.640625 2.6399938,2.6399938 0 0 0 2.63867,-2.640625 2.6399938,2.6399938 0 0 0 -2.63867,-2.638672 z m 9.59961,0 a 2.6399938,2.6399938 0 0 0 -2.64062,2.638672 2.6399938,2.6399938 0 0 0 2.64062,2.640625 2.6399938,2.6399938 0 0 0 2.64063,-2.640625 2.6399938,2.6399938 0 0 0 -2.64063,-2.638672 z m 9.59961,0 a 2.6399938,2.6399938 0 0 0 -2.64062,2.638672 2.6399938,2.6399938 0 0 0 2.64062,2.640625 2.6399938,2.6399938 0 0 0 2.64063,-2.640625 2.6399938,2.6399938 0 0 0 -2.64063,-2.638672 z m 6.96094,0 v 5.279297 h 5.2793 V 40.253906 Z M 450.75,47.308594 a 2.7839936,2.7839936 0 0 0 -2.7832,2.785156 2.7839936,2.7839936 0 0 0 2.7832,2.783203 2.7839936,2.7839936 0 0 0 2.78516,-2.783203 A 2.7839936,2.7839936 0 0 0 450.75,47.308594 Z M 93.152344,47.693359 a 2.3999944,2.3999944 0 0 0 -2.400391,2.400391 2.3999944,2.3999944 0 0 0 2.400391,2.400391 2.3999944,2.3999944 0 0 0 2.40039,-2.400391 2.3999944,2.3999944 0 0 0 -2.40039,-2.400391 z m 86.398436,0 a 2.3999944,2.3999944 0 0 0 -2.39844,2.400391 2.3999944,2.3999944 0 0 0 2.39844,2.400391 2.3999944,2.3999944 0 0 0 2.40039,-2.400391 2.3999944,2.3999944 0 0 0 -2.40039,-2.400391 z m 86.40039,0 a 2.3999944,2.3999944 0 0 0 -2.40039,2.400391 2.3999944,2.3999944 0 0 0 2.40039,2.400391 2.3999944,2.3999944 0 0 0 2.40039,-2.400391 2.3999944,2.3999944 0 0 0 -2.40039,-2.400391 z m 86.40039,0 a 2.3999944,2.3999944 0 0 0 -2.40039,2.400391 2.3999944,2.3999944 0 0 0 2.40039,2.400391 2.3999944,2.3999944 0 0 0 2.40039,-2.400391 2.3999944,2.3999944 0 0 0 -2.40039,-2.400391 z M 162.75,53.003906 a 1.8897556,1.8897556 0 0 0 -1.88867,1.888672 1.8897556,1.8897556 0 0 0 1.88867,1.890625 1.8897556,1.8897556 0 0 0 1.89062,-1.890625 1.8897556,1.8897556 0 0 0 -1.89062,-1.888672 z m 86.40039,0 a 1.8897556,1.8897556 0 0 0 -1.88867,1.888672 1.8897556,1.8897556 0 0 0 1.88867,1.890625 1.8897556,1.8897556 0 0 0 1.89063,-1.890625 1.8897556,1.8897556 0 0 0 -1.89063,-1.888672 z m 86.40039,0 a 1.8897556,1.8897556 0 0 0 -1.89062,1.888672 1.8897556,1.8897556 0 0 0 1.89062,1.890625 1.8897556,1.8897556 0 0 0 1.88867,-1.890625 1.8897556,1.8897556 0 0 0 -1.88867,-1.888672 z M 25.951172,55.404297 a 1.8897556,1.8897556 0 0 0 -1.888672,1.888672 1.8897556,1.8897556 0 0 0 1.888672,1.890625 1.8897556,1.8897556 0 0 0 1.890625,-1.890625 1.8897556,1.8897556 0 0 0 -1.890625,-1.888672 z m 127.199218,0 a 1.8897556,1.8897556 0 0 0 -1.88867,1.888672 1.8897556,1.8897556 0 0 0 1.88867,1.890625 1.8897556,1.8897556 0 0 0 1.89063,-1.890625 1.8897556,1.8897556 0 0 0 -1.89063,-1.888672 z m 86.40039,0 a 1.8897556,1.8897556 0 0 0 -1.89062,1.888672 1.8897556,1.8897556 0 0 0 1.89062,1.890625 1.8897556,1.8897556 0 0 0 1.89063,-1.890625 1.8897556,1.8897556 0 0 0 -1.89063,-1.888672 z m 86.40039,0 a 1.8897556,1.8897556 0 0 0 -1.89062,1.888672 1.8897556,1.8897556 0 0 0 1.89062,1.890625 1.8897556,1.8897556 0 0 0 1.88867,-1.890625 1.8897556,1.8897556 0 0 0 -1.88867,-1.888672 z M 450.75,56.910156 a 2.7839936,2.7839936 0 0 0 -2.7832,2.783203 2.7839936,2.7839936 0 0 0 2.7832,2.783203 2.7839936,2.7839936 0 0 0 2.78516,-2.783203 2.7839936,2.7839936 0 0 0 -2.78516,-2.783203 z m -31.19922,3.292969 a 1.8897556,1.8897556 0 0 0 -1.89062,1.890625 1.8897556,1.8897556 0 0 0 1.89062,1.888672 1.8897556,1.8897556 0 0 0 1.88867,-1.888672 1.8897556,1.8897556 0 0 0 -1.88867,-1.890625 z M 93.152344,62.603516 a 1.8897556,1.8897556 0 0 0 -1.890625,1.890625 1.8897556,1.8897556 0 0 0 1.890625,1.888671 1.8897556,1.8897556 0 0 0 1.888672,-1.888671 1.8897556,1.8897556 0 0 0 -1.888672,-1.890625 z m 86.398436,0 a 1.8897556,1.8897556 0 0 0 -1.89062,1.890625 1.8897556,1.8897556 0 0 0 1.89062,1.888671 1.8897556,1.8897556 0 0 0 1.89063,-1.888671 1.8897556,1.8897556 0 0 0 -1.89063,-1.890625 z m 86.40039,0 a 1.8897556,1.8897556 0 0 0 -1.89062,1.890625 1.8897556,1.8897556 0 0 0 1.89062,1.888671 1.8897556,1.8897556 0 0 0 1.88867,-1.888671 1.8897556,1.8897556 0 0 0 -1.88867,-1.890625 z m 86.39844,0 a 1.8897556,1.8897556 0 0 0 -1.88867,1.890625 1.8897556,1.8897556 0 0 0 1.88867,1.888671 1.8897556,1.8897556 0 0 0 1.89062,-1.888671 1.8897556,1.8897556 0 0 0 -1.89062,-1.890625 z m 98.40039,3.90625 a 2.7839936,2.7839936 0 0 0 -2.7832,2.783203 2.7839936,2.7839936 0 0 0 2.7832,2.785156 2.7839936,2.7839936 0 0 0 2.78516,-2.785156 A 2.7839936,2.7839936 0 0 0 450.75,66.509766 Z M 16.351562,69.052734 a 2.6399938,2.6399938 0 0 0 -2.638671,2.640625 2.6399938,2.6399938 0 0 0 2.638671,2.640625 2.6399938,2.6399938 0 0 0 2.640626,-2.640625 2.6399938,2.6399938 0 0 0 -2.640626,-2.640625 z m 9.59961,0 a 2.6399938,2.6399938 0 0 0 -2.638672,2.640625 2.6399938,2.6399938 0 0 0 2.638672,2.640625 2.6399938,2.6399938 0 0 0 2.640625,-2.640625 2.6399938,2.6399938 0 0 0 -2.640625,-2.640625 z m 9.601562,0 a 2.6399938,2.6399938 0 0 0 -2.640625,2.640625 2.6399938,2.6399938 0 0 0 2.640625,2.640625 2.6399938,2.6399938 0 0 0 2.638672,-2.640625 2.6399938,2.6399938 0 0 0 -2.638672,-2.640625 z m 9.59961,0 a 2.6399938,2.6399938 0 0 0 -2.640625,2.640625 2.6399938,2.6399938 0 0 0 2.640625,2.640625 2.6399938,2.6399938 0 0 0 2.638672,-2.640625 2.6399938,2.6399938 0 0 0 -2.638672,-2.640625 z m 9.599609,0 a 2.6399938,2.6399938 0 0 0 -2.640625,2.640625 2.6399938,2.6399938 0 0 0 2.640625,2.640625 2.6399938,2.6399938 0 0 0 2.640625,-2.640625 2.6399938,2.6399938 0 0 0 -2.640625,-2.640625 z m 9.599609,0 a 2.6399938,2.6399938 0 0 0 -2.640624,2.640625 2.6399938,2.6399938 0 0 0 2.640624,2.640625 2.6399938,2.6399938 0 0 0 2.640626,-2.640625 2.6399938,2.6399938 0 0 0 -2.640626,-2.640625 z m 9.59961,0 a 2.6399938,2.6399938 0 0 0 -2.638672,2.640625 2.6399938,2.6399938 0 0 0 2.638672,2.640625 2.6399938,2.6399938 0 0 0 2.640625,-2.640625 2.6399938,2.6399938 0 0 0 -2.640625,-2.640625 z m 9.601562,0 a 2.6399938,2.6399938 0 0 0 -2.640625,2.640625 2.6399938,2.6399938 0 0 0 2.640625,2.640625 2.6399938,2.6399938 0 0 0 2.638672,-2.640625 2.6399938,2.6399938 0 0 0 -2.638672,-2.640625 z m 19.199216,0 a 2.6399938,2.6399938 0 0 0 -2.64062,2.640625 2.6399938,2.6399938 0 0 0 2.64062,2.640625 2.6399938,2.6399938 0 0 0 2.64063,-2.640625 2.6399938,2.6399938 0 0 0 -2.64063,-2.640625 z m 9.59961,0 a 2.6399938,2.6399938 0 0 0 -2.64062,2.640625 2.6399938,2.6399938 0 0 0 2.64062,2.640625 2.6399938,2.6399938 0 0 0 2.64063,-2.640625 2.6399938,2.6399938 0 0 0 -2.64063,-2.640625 z m 9.59961,0 a 2.6399938,2.6399938 0 0 0 -2.63867,2.640625 2.6399938,2.6399938 0 0 0 2.63867,2.640625 2.6399938,2.6399938 0 0 0 2.64063,-2.640625 2.6399938,2.6399938 0 0 0 -2.64063,-2.640625 z m 9.59961,0 a 2.6399938,2.6399938 0 0 0 -2.63867,2.640625 2.6399938,2.6399938 0 0 0 2.63867,2.640625 2.6399938,2.6399938 0 0 0 2.64063,-2.640625 2.6399938,2.6399938 0 0 0 -2.64063,-2.640625 z m 9.60156,0 a 2.6399938,2.6399938 0 0 0 -2.64062,2.640625 2.6399938,2.6399938 0 0 0 2.64062,2.640625 2.6399938,2.6399938 0 0 0 2.63868,-2.640625 2.6399938,2.6399938 0 0 0 -2.63868,-2.640625 z m 9.59961,0 a 2.6399938,2.6399938 0 0 0 -2.64062,2.640625 2.6399938,2.6399938 0 0 0 2.64062,2.640625 2.6399938,2.6399938 0 0 0 2.64063,-2.640625 2.6399938,2.6399938 0 0 0 -2.64063,-2.640625 z m 9.59961,0 a 2.6399938,2.6399938 0 0 0 -2.64062,2.640625 2.6399938,2.6399938 0 0 0 2.64062,2.640625 2.6399938,2.6399938 0 0 0 2.64063,-2.640625 2.6399938,2.6399938 0 0 0 -2.64063,-2.640625 z m 9.59961,0 a 2.6399938,2.6399938 0 0 0 -2.63867,2.640625 2.6399938,2.6399938 0 0 0 2.63867,2.640625 2.6399938,2.6399938 0 0 0 2.64063,-2.640625 2.6399938,2.6399938 0 0 0 -2.64063,-2.640625 z m 19.20117,0 a 2.6399938,2.6399938 0 0 0 -2.64062,2.640625 2.6399938,2.6399938 0 0 0 2.64062,2.640625 2.6399938,2.6399938 0 0 0 2.63868,-2.640625 2.6399938,2.6399938 0 0 0 -2.63868,-2.640625 z m 9.59961,0 a 2.6399938,2.6399938 0 0 0 -2.64062,2.640625 2.6399938,2.6399938 0 0 0 2.64062,2.640625 2.6399938,2.6399938 0 0 0 2.63867,-2.640625 2.6399938,2.6399938 0 0 0 -2.63867,-2.640625 z m 9.59961,0 a 2.6399938,2.6399938 0 0 0 -2.64062,2.640625 2.6399938,2.6399938 0 0 0 2.64062,2.640625 2.6399938,2.6399938 0 0 0 2.64063,-2.640625 2.6399938,2.6399938 0 0 0 -2.64063,-2.640625 z m 9.59961,0 a 2.6399938,2.6399938 0 0 0 -2.64062,2.640625 2.6399938,2.6399938 0 0 0 2.64062,2.640625 2.6399938,2.6399938 0 0 0 2.64063,-2.640625 2.6399938,2.6399938 0 0 0 -2.64063,-2.640625 z m 9.59961,0 a 2.6399938,2.6399938 0 0 0 -2.63867,2.640625 2.6399938,2.6399938 0 0 0 2.63867,2.640625 2.6399938,2.6399938 0 0 0 2.64063,-2.640625 2.6399938,2.6399938 0 0 0 -2.64063,-2.640625 z m 9.60156,0 a 2.6399938,2.6399938 0 0 0 -2.64062,2.640625 2.6399938,2.6399938 0 0 0 2.64062,2.640625 2.6399938,2.6399938 0 0 0 2.63868,-2.640625 2.6399938,2.6399938 0 0 0 -2.63868,-2.640625 z m 9.59961,0 a 2.6399938,2.6399938 0 0 0 -2.64062,2.640625 2.6399938,2.6399938 0 0 0 2.64062,2.640625 2.6399938,2.6399938 0 0 0 2.63867,-2.640625 2.6399938,2.6399938 0 0 0 -2.63867,-2.640625 z m 9.59961,0 a 2.6399938,2.6399938 0 0 0 -2.64062,2.640625 2.6399938,2.6399938 0 0 0 2.64062,2.640625 2.6399938,2.6399938 0 0 0 2.64063,-2.640625 2.6399938,2.6399938 0 0 0 -2.64063,-2.640625 z m 19.19922,0 a 2.6399938,2.6399938 0 0 0 -2.63867,2.640625 2.6399938,2.6399938 0 0 0 2.63867,2.640625 2.6399938,2.6399938 0 0 0 2.64063,-2.640625 2.6399938,2.6399938 0 0 0 -2.64063,-2.640625 z m 9.59961,0 a 2.6399938,2.6399938 0 0 0 -2.63867,2.640625 2.6399938,2.6399938 0 0 0 2.63867,2.640625 2.6399938,2.6399938 0 0 0 2.64063,-2.640625 2.6399938,2.6399938 0 0 0 -2.64063,-2.640625 z m 9.60156,0 a 2.6399938,2.6399938 0 0 0 -2.64062,2.640625 2.6399938,2.6399938 0 0 0 2.64062,2.640625 2.6399938,2.6399938 0 0 0 2.63867,-2.640625 2.6399938,2.6399938 0 0 0 -2.63867,-2.640625 z m 9.59961,0 a 2.6399938,2.6399938 0 0 0 -2.64062,2.640625 2.6399938,2.6399938 0 0 0 2.64062,2.640625 2.6399938,2.6399938 0 0 0 2.64063,-2.640625 2.6399938,2.6399938 0 0 0 -2.64063,-2.640625 z m 9.59961,0 a 2.6399938,2.6399938 0 0 0 -2.64062,2.640625 2.6399938,2.6399938 0 0 0 2.64062,2.640625 2.6399938,2.6399938 0 0 0 2.64063,-2.640625 2.6399938,2.6399938 0 0 0 -2.64063,-2.640625 z m 9.59961,0 a 2.6399938,2.6399938 0 0 0 -2.63867,2.640625 2.6399938,2.6399938 0 0 0 2.63867,2.640625 2.6399938,2.6399938 0 0 0 2.64063,-2.640625 2.6399938,2.6399938 0 0 0 -2.64063,-2.640625 z m 9.59961,0 a 2.6399938,2.6399938 0 0 0 -2.63867,2.640625 2.6399938,2.6399938 0 0 0 2.63867,2.640625 2.6399938,2.6399938 0 0 0 2.64063,-2.640625 2.6399938,2.6399938 0 0 0 -2.64063,-2.640625 z m 9.60156,0 a 2.6399938,2.6399938 0 0 0 -2.64062,2.640625 2.6399938,2.6399938 0 0 0 2.64062,2.640625 2.6399938,2.6399938 0 0 0 2.63867,-2.640625 2.6399938,2.6399938 0 0 0 -2.63867,-2.640625 z m 19.19922,0 a 2.6399938,2.6399938 0 0 0 -2.64062,2.640625 2.6399938,2.6399938 0 0 0 2.64062,2.640625 2.6399938,2.6399938 0 0 0 2.64063,-2.640625 2.6399938,2.6399938 0 0 0 -2.64063,-2.640625 z m 9.59961,0 a 2.6399938,2.6399938 0 0 0 -2.63867,2.640625 2.6399938,2.6399938 0 0 0 2.63867,2.640625 2.6399938,2.6399938 0 0 0 2.64063,-2.640625 2.6399938,2.6399938 0 0 0 -2.64063,-2.640625 z m 9.59961,0 a 2.6399938,2.6399938 0 0 0 -2.63867,2.640625 2.6399938,2.6399938 0 0 0 2.63867,2.640625 2.6399938,2.6399938 0 0 0 2.64063,-2.640625 2.6399938,2.6399938 0 0 0 -2.64063,-2.640625 z m 9.60156,0 a 2.6399938,2.6399938 0 0 0 -2.64062,2.640625 2.6399938,2.6399938 0 0 0 2.64062,2.640625 2.6399938,2.6399938 0 0 0 2.63867,-2.640625 2.6399938,2.6399938 0 0 0 -2.63867,-2.640625 z m 9.59961,0 a 2.6399938,2.6399938 0 0 0 -2.64062,2.640625 2.6399938,2.6399938 0 0 0 2.64062,2.640625 2.6399938,2.6399938 0 0 0 2.63867,-2.640625 2.6399938,2.6399938 0 0 0 -2.63867,-2.640625 z m 9.59961,0 a 2.6399938,2.6399938 0 0 0 -2.64062,2.640625 2.6399938,2.6399938 0 0 0 2.64062,2.640625 2.6399938,2.6399938 0 0 0 2.64063,-2.640625 2.6399938,2.6399938 0 0 0 -2.64063,-2.640625 z m 9.59961,0 a 2.6399938,2.6399938 0 0 0 -2.64062,2.640625 2.6399938,2.6399938 0 0 0 2.64062,2.640625 2.6399938,2.6399938 0 0 0 2.64063,-2.640625 2.6399938,2.6399938 0 0 0 -2.64063,-2.640625 z m 9.59961,0 a 2.6399938,2.6399938 0 0 0 -2.63867,2.640625 2.6399938,2.6399938 0 0 0 2.63867,2.640625 2.6399938,2.6399938 0 0 0 2.64063,-2.640625 2.6399938,2.6399938 0 0 0 -2.64063,-2.640625 z M 450.75,76.109375 a 2.7839936,2.7839936 0 0 0 -2.7832,2.783203 2.7839936,2.7839936 0 0 0 2.7832,2.785156 2.7839936,2.7839936 0 0 0 2.78516,-2.785156 A 2.7839936,2.7839936 0 0 0 450.75,76.109375 Z M 21.152344,79.404297 a 1.8897556,1.8897556 0 0 0 -1.890625,1.888672 1.8897556,1.8897556 0 0 0 1.890625,1.890625 1.8897556,1.8897556 0 0 0 1.888672,-1.890625 1.8897556,1.8897556 0 0 0 -1.888672,-1.888672 z m 81.599606,0 a 1.8897556,1.8897556 0 0 0 -1.89062,1.888672 1.8897556,1.8897556 0 0 0 1.89062,1.890625 1.8897556,1.8897556 0 0 0 1.88867,-1.890625 1.8897556,1.8897556 0 0 0 -1.88867,-1.888672 z m 172.79883,0.05273 a 1.8897556,1.8897556 0 0 0 -1.89062,1.888672 1.8897556,1.8897556 0 0 0 1.89062,1.890625 1.8897556,1.8897556 0 0 0 1.88867,-1.890625 1.8897556,1.8897556 0 0 0 -1.88867,-1.888672 z m 86.40039,0 a 1.8897556,1.8897556 0 0 0 -1.89062,1.888672 1.8897556,1.8897556 0 0 0 1.89062,1.890625 1.8897556,1.8897556 0 0 0 1.88867,-1.890625 1.8897556,1.8897556 0 0 0 -1.88867,-1.888672 z m 75.73242,0.212891 a 1.8897556,1.8897556 0 0 0 -1.89062,1.890625 1.8897556,1.8897556 0 0 0 1.89062,1.888672 1.8897556,1.8897556 0 0 0 1.89063,-1.888672 1.8897556,1.8897556 0 0 0 -1.89063,-1.890625 z M 188.88477,79.9375 a 1.8897556,1.8897556 0 0 0 -1.89063,1.888672 1.8897556,1.8897556 0 0 0 1.89063,1.890625 1.8897556,1.8897556 0 0 0 1.88867,-1.890625 1.8897556,1.8897556 0 0 0 -1.88867,-1.888672 z M 83.552734,86.09375 a 2.3999944,2.3999944 0 0 0 -2.40039,2.398438 2.3999944,2.3999944 0 0 0 2.40039,2.40039 2.3999944,2.3999944 0 0 0 2.398438,-2.40039 2.3999944,2.3999944 0 0 0 -2.398438,-2.398438 z m -48,2.015625 a 2.7839936,2.7839936 0 0 0 -2.785156,2.783203 2.7839936,2.7839936 0 0 0 2.785156,2.785156 2.7839936,2.7839936 0 0 0 2.783204,-2.785156 2.7839936,2.7839936 0 0 0 -2.783204,-2.783203 z m 9.59961,0 a 2.7839936,2.7839936 0 0 0 -2.785156,2.783203 2.7839936,2.7839936 0 0 0 2.785156,2.785156 2.7839936,2.7839936 0 0 0 2.783203,-2.785156 2.7839936,2.7839936 0 0 0 -2.783203,-2.783203 z m 9.599609,0 a 2.7839936,2.7839936 0 0 0 -2.783203,2.783203 2.7839936,2.7839936 0 0 0 2.783203,2.785156 2.7839936,2.7839936 0 0 0 2.783203,-2.785156 2.7839936,2.7839936 0 0 0 -2.783203,-2.783203 z m 9.599609,0 a 2.7839936,2.7839936 0 0 0 -2.783203,2.783203 2.7839936,2.7839936 0 0 0 2.783203,2.785156 2.7839936,2.7839936 0 0 0 2.785157,-2.785156 2.7839936,2.7839936 0 0 0 -2.785157,-2.783203 z m 57.599608,0 a 2.7839936,2.7839936 0 0 0 -2.7832,2.783203 2.7839936,2.7839936 0 0 0 2.7832,2.785156 2.7839936,2.7839936 0 0 0 2.78516,-2.785156 2.7839936,2.7839936 0 0 0 -2.78516,-2.783203 z m 9.59961,0 a 2.7839936,2.7839936 0 0 0 -2.7832,2.783203 2.7839936,2.7839936 0 0 0 2.7832,2.785156 2.7839936,2.7839936 0 0 0 2.78516,-2.785156 2.7839936,2.7839936 0 0 0 -2.78516,-2.783203 z m 9.60156,0 a 2.7839936,2.7839936 0 0 0 -2.78515,2.783203 2.7839936,2.7839936 0 0 0 2.78515,2.785156 2.7839936,2.7839936 0 0 0 2.78321,-2.785156 2.7839936,2.7839936 0 0 0 -2.78321,-2.783203 z m 9.59961,0 a 2.7839936,2.7839936 0 0 0 -2.78515,2.783203 2.7839936,2.7839936 0 0 0 2.78515,2.785156 2.7839936,2.7839936 0 0 0 2.78321,-2.785156 2.7839936,2.7839936 0 0 0 -2.78321,-2.783203 z m 57.59961,0 a 2.7839936,2.7839936 0 0 0 -2.7832,2.783203 2.7839936,2.7839936 0 0 0 2.7832,2.785156 2.7839936,2.7839936 0 0 0 2.78321,-2.785156 2.7839936,2.7839936 0 0 0 -2.78321,-2.783203 z m 9.59961,0 a 2.7839936,2.7839936 0 0 0 -2.7832,2.783203 2.7839936,2.7839936 0 0 0 2.7832,2.785156 2.7839936,2.7839936 0 0 0 2.78516,-2.785156 2.7839936,2.7839936 0 0 0 -2.78516,-2.783203 z m 9.59961,0 a 2.7839936,2.7839936 0 0 0 -2.7832,2.783203 2.7839936,2.7839936 0 0 0 2.7832,2.785156 2.7839936,2.7839936 0 0 0 2.78516,-2.785156 2.7839936,2.7839936 0 0 0 -2.78516,-2.783203 z m 9.60156,0 a 2.7839936,2.7839936 0 0 0 -2.78515,2.783203 2.7839936,2.7839936 0 0 0 2.78515,2.785156 2.7839936,2.7839936 0 0 0 2.78321,-2.785156 2.7839936,2.7839936 0 0 0 -2.78321,-2.783203 z m 57.59961,0 a 2.7839936,2.7839936 0 0 0 -2.78515,2.783203 2.7839936,2.7839936 0 0 0 2.78515,2.785156 2.7839936,2.7839936 0 0 0 2.78321,-2.785156 2.7839936,2.7839936 0 0 0 -2.78321,-2.783203 z m 9.59961,0 a 2.7839936,2.7839936 0 0 0 -2.78515,2.783203 2.7839936,2.7839936 0 0 0 2.78515,2.785156 2.7839936,2.7839936 0 0 0 2.78321,-2.785156 2.7839936,2.7839936 0 0 0 -2.78321,-2.783203 z m 9.59961,0 a 2.7839936,2.7839936 0 0 0 -2.7832,2.783203 2.7839936,2.7839936 0 0 0 2.7832,2.785156 2.7839936,2.7839936 0 0 0 2.78321,-2.785156 2.7839936,2.7839936 0 0 0 -2.78321,-2.783203 z m 9.59961,0 a 2.7839936,2.7839936 0 0 0 -2.7832,2.783203 2.7839936,2.7839936 0 0 0 2.7832,2.785156 2.7839936,2.7839936 0 0 0 2.78516,-2.785156 2.7839936,2.7839936 0 0 0 -2.78516,-2.783203 z m 57.59961,0 a 2.7839936,2.7839936 0 0 0 -2.7832,2.783203 2.7839936,2.7839936 0 0 0 2.7832,2.785156 2.7839936,2.7839936 0 0 0 2.78516,-2.785156 2.7839936,2.7839936 0 0 0 -2.78516,-2.783203 z m 9.60156,0 a 2.7839936,2.7839936 0 0 0 -2.78515,2.783203 2.7839936,2.7839936 0 0 0 2.78515,2.785156 2.7839936,2.7839936 0 0 0 2.78321,-2.785156 2.7839936,2.7839936 0 0 0 -2.78321,-2.783203 z m 9.59961,0 a 2.7839936,2.7839936 0 0 0 -2.78515,2.783203 2.7839936,2.7839936 0 0 0 2.78515,2.785156 2.7839936,2.7839936 0 0 0 2.78321,-2.785156 2.7839936,2.7839936 0 0 0 -2.78321,-2.783203 z m 9.59961,0 a 2.7839936,2.7839936 0 0 0 -2.7832,2.783203 2.7839936,2.7839936 0 0 0 2.7832,2.785156 2.7839936,2.7839936 0 0 0 2.78321,-2.785156 2.7839936,2.7839936 0 0 0 -2.78321,-2.783203 z M 97.951172,88.253906 a 2.6399938,2.6399938 0 0 0 -2.638672,2.638672 2.6399938,2.6399938 0 0 0 2.638672,2.640625 2.6399938,2.6399938 0 0 0 2.640628,-2.640625 2.6399938,2.6399938 0 0 0 -2.640628,-2.638672 z m 100.810548,0.841797 a 1.8897556,1.8897556 0 0 0 -1.89063,1.888672 1.8897556,1.8897556 0 0 0 1.89063,1.890625 1.8897556,1.8897556 0 0 0 1.88867,-1.890625 1.8897556,1.8897556 0 0 0 -1.88867,-1.888672 z m 172.78711,0 a 1.8897556,1.8897556 0 0 0 -1.88867,1.888672 1.8897556,1.8897556 0 0 0 1.88867,1.890625 1.8897556,1.8897556 0 0 0 1.89062,-1.890625 1.8897556,1.8897556 0 0 0 -1.89062,-1.888672 z M 450.75,95.308594 a 2.7839936,2.7839936 0 0 0 -2.7832,2.785156 2.7839936,2.7839936 0 0 0 2.7832,2.7832 2.7839936,2.7839936 0 0 0 2.78516,-2.7832 A 2.7839936,2.7839936 0 0 0 450.75,95.308594 Z M 83.552734,95.710938 a 2.3999944,2.3999944 0 0 0 -2.40039,2.40039 2.3999944,2.3999944 0 0 0 2.40039,2.400392 2.3999944,2.3999944 0 0 0 2.398438,-2.400392 2.3999944,2.3999944 0 0 0 -2.398438,-2.40039 z m 348.087886,0.314453 a 1.8897556,1.8897556 0 0 0 -1.88867,1.890625 1.8897556,1.8897556 0 0 0 1.88867,1.888672 1.8897556,1.8897556 0 0 0 1.89063,-1.888672 1.8897556,1.8897556 0 0 0 -1.89063,-1.890625 z M 95.3125,97.853516 v 5.279294 h 5.2793 v -5.279294 z m 36.23828,0.75 a 1.8897556,1.8897556 0 0 0 -1.88867,1.890624 1.8897556,1.8897556 0 0 0 1.88867,1.88867 1.8897556,1.8897556 0 0 0 1.89063,-1.88867 1.8897556,1.8897556 0 0 0 -1.89063,-1.890624 z m 100.80078,0 a 1.8897556,1.8897556 0 0 0 -1.89062,1.890624 1.8897556,1.8897556 0 0 0 1.89062,1.88867 1.8897556,1.8897556 0 0 0 1.88867,-1.88867 1.8897556,1.8897556 0 0 0 -1.88867,-1.890624 z m 12,0 a 1.8897556,1.8897556 0 0 0 -1.89062,1.890624 1.8897556,1.8897556 0 0 0 1.89062,1.88867 1.8897556,1.8897556 0 0 0 1.88867,-1.88867 1.8897556,1.8897556 0 0 0 -1.88867,-1.890624 z m 141.6211,0.0059 a 1.8897556,1.8897556 0 0 0 -1.89063,1.888674 1.8897556,1.8897556 0 0 0 1.89063,1.89062 1.8897556,1.8897556 0 0 0 1.88867,-1.89062 1.8897556,1.8897556 0 0 0 -1.88867,-1.888674 z m -163.27344,7.058594 a 1.8897556,1.8897556 0 0 0 -1.88867,1.88867 1.8897556,1.8897556 0 0 0 1.88867,1.89063 1.8897556,1.8897556 0 0 0 1.89062,-1.89063 1.8897556,1.8897556 0 0 0 -1.89062,-1.88867 z m 168.18359,0 a 1.8897556,1.8897556 0 0 0 -1.88867,1.88867 1.8897556,1.8897556 0 0 0 1.88867,1.89063 1.8897556,1.8897556 0 0 0 1.89063,-1.89063 1.8897556,1.8897556 0 0 0 -1.89063,-1.88867 z m -369.730466,2.53515 a 1.8897556,1.8897556 0 0 0 -1.890625,1.89063 1.8897556,1.8897556 0 0 0 1.890625,1.88867 1.8897556,1.8897556 0 0 0 1.888672,-1.88867 1.8897556,1.8897556 0 0 0 -1.888672,-1.89063 z m 127.199216,0 a 1.8897556,1.8897556 0 0 0 -1.89062,1.89063 1.8897556,1.8897556 0 0 0 1.89062,1.88867 1.8897556,1.8897556 0 0 0 1.88867,-1.88867 1.8897556,1.8897556 0 0 0 -1.88867,-1.89063 z m 21.59961,4.28907 a 2.3999944,2.3999944 0 0 0 -2.40039,2.40039 2.3999944,2.3999944 0 0 0 2.40039,2.40039 2.3999944,2.3999944 0 0 0 2.40039,-2.40039 2.3999944,2.3999944 0 0 0 -2.40039,-2.40039 z m 9.61719,0 a 2.3999944,2.3999944 0 0 0 -2.39844,2.40039 2.3999944,2.3999944 0 0 0 2.39844,2.40039 2.3999944,2.3999944 0 0 0 2.40039,-2.40039 2.3999944,2.3999944 0 0 0 -2.40039,-2.40039 z m -151.216798,0.51172 a 1.8897556,1.8897556 0 0 0 -1.888671,1.88867 1.8897556,1.8897556 0 0 0 1.888671,1.89062 1.8897556,1.8897556 0 0 0 1.890626,-1.89062 1.8897556,1.8897556 0 0 0 -1.890626,-1.88867 z m 71.894528,0.0293 a 1.8897556,1.8897556 0 0 0 -1.890621,1.89063 1.8897556,1.8897556 0 0 0 1.890621,1.88867 1.8897556,1.8897556 0 0 0 1.88868,-1.88867 1.8897556,1.8897556 0 0 0 -1.88868,-1.89063 z m -57.494137,2.3711 a 1.8897556,1.8897556 0 0 0 -1.890625,1.88867 1.8897556,1.8897556 0 0 0 1.890625,1.89062 1.8897556,1.8897556 0 0 0 1.888672,-1.89062 1.8897556,1.8897556 0 0 0 -1.888672,-1.88867 z m 165.599607,0 a 1.8897556,1.8897556 0 0 0 -1.89062,1.88867 1.8897556,1.8897556 0 0 0 1.89062,1.89062 1.8897556,1.8897556 0 0 0 1.88867,-1.89062 1.8897556,1.8897556 0 0 0 -1.88867,-1.88867 z M 402.75,117.80273 a 1.8897556,1.8897556 0 0 0 -1.88867,1.89063 1.8897556,1.8897556 0 0 0 1.88867,1.88867 1.8897556,1.8897556 0 0 0 1.89062,-1.88867 1.8897556,1.8897556 0 0 0 -1.89062,-1.89063 z m -367.199219,2.40039 a 1.8897556,1.8897556 0 0 0 -1.888672,1.89063 1.8897556,1.8897556 0 0 0 1.888672,1.88867 1.8897556,1.8897556 0 0 0 1.890625,-1.88867 1.8897556,1.8897556 0 0 0 -1.890625,-1.89063 z m 211.199219,0 a 1.8897556,1.8897556 0 0 0 -1.88867,1.89063 1.8897556,1.8897556 0 0 0 1.88867,1.88867 1.8897556,1.8897556 0 0 0 1.89062,-1.88867 1.8897556,1.8897556 0 0 0 -1.89062,-1.89063 z m -194.398438,1.6504 a 2.6399938,2.6399938 0 0 0 -2.640624,2.64062 2.6399938,2.6399938 0 0 0 2.640624,2.63867 2.6399938,2.6399938 0 0 0 2.640626,-2.63867 2.6399938,2.6399938 0 0 0 -2.640626,-2.64062 z m 9.59961,0 a 2.6399938,2.6399938 0 0 0 -2.638672,2.64062 2.6399938,2.6399938 0 0 0 2.638672,2.63867 2.6399938,2.6399938 0 0 0 2.640625,-2.63867 2.6399938,2.6399938 0 0 0 -2.640625,-2.64062 z m 9.601562,0 a 2.6399938,2.6399938 0 0 0 -2.640625,2.64062 2.6399938,2.6399938 0 0 0 2.640625,2.63867 2.6399938,2.6399938 0 0 0 2.638672,-2.63867 2.6399938,2.6399938 0 0 0 -2.638672,-2.64062 z m 9.59961,0 a 2.6399938,2.6399938 0 0 0 -2.640625,2.64062 2.6399938,2.6399938 0 0 0 2.640625,2.63867 2.6399938,2.6399938 0 0 0 2.638672,-2.63867 2.6399938,2.6399938 0 0 0 -2.638672,-2.64062 z m 9.599609,0 a 2.6399938,2.6399938 0 0 0 -2.640625,2.64062 2.6399938,2.6399938 0 0 0 2.640625,2.63867 2.6399938,2.6399938 0 0 0 2.640625,-2.63867 2.6399938,2.6399938 0 0 0 -2.640625,-2.64062 z m 9.599607,0 a 2.6399938,2.6399938 0 0 0 -2.640622,2.64062 2.6399938,2.6399938 0 0 0 2.640622,2.63867 2.6399938,2.6399938 0 0 0 2.64063,-2.63867 2.6399938,2.6399938 0 0 0 -2.64063,-2.64062 z m 9.59961,0 a 2.6399938,2.6399938 0 0 0 -2.63867,2.64062 2.6399938,2.6399938 0 0 0 2.63867,2.63867 2.6399938,2.6399938 0 0 0 2.64063,-2.63867 2.6399938,2.6399938 0 0 0 -2.64063,-2.64062 z m 9.59961,0 a 2.6399938,2.6399938 0 0 0 -2.63867,2.64062 2.6399938,2.6399938 0 0 0 2.63867,2.63867 2.6399938,2.6399938 0 0 0 2.64063,-2.63867 2.6399938,2.6399938 0 0 0 -2.64063,-2.64062 z m 50.40039,0 a 2.6399938,2.6399938 0 0 0 -2.63867,2.64062 2.6399938,2.6399938 0 0 0 2.63867,2.63867 2.6399938,2.6399938 0 0 0 2.64063,-2.63867 2.6399938,2.6399938 0 0 0 -2.64063,-2.64062 z m 9.59961,0 a 2.6399938,2.6399938 0 0 0 -2.63867,2.64062 2.6399938,2.6399938 0 0 0 2.63867,2.63867 2.6399938,2.6399938 0 0 0 2.64063,-2.63867 2.6399938,2.6399938 0 0 0 -2.64063,-2.64062 z m 9.60156,0 a 2.6399938,2.6399938 0 0 0 -2.64062,2.64062 2.6399938,2.6399938 0 0 0 2.64062,2.63867 2.6399938,2.6399938 0 0 0 2.63868,-2.63867 2.6399938,2.6399938 0 0 0 -2.63868,-2.64062 z m 9.59961,0 a 2.6399938,2.6399938 0 0 0 -2.64062,2.64062 2.6399938,2.6399938 0 0 0 2.64062,2.63867 2.6399938,2.6399938 0 0 0 2.63867,-2.63867 2.6399938,2.6399938 0 0 0 -2.63867,-2.64062 z m 9.59961,0 a 2.6399938,2.6399938 0 0 0 -2.64062,2.64062 2.6399938,2.6399938 0 0 0 2.64062,2.63867 2.6399938,2.6399938 0 0 0 2.64063,-2.63867 2.6399938,2.6399938 0 0 0 -2.64063,-2.64062 z m 9.59961,0 a 2.6399938,2.6399938 0 0 0 -2.64062,2.64062 2.6399938,2.6399938 0 0 0 2.64062,2.63867 2.6399938,2.6399938 0 0 0 2.64063,-2.63867 2.6399938,2.6399938 0 0 0 -2.64063,-2.64062 z m 9.59961,0 a 2.6399938,2.6399938 0 0 0 -2.63867,2.64062 2.6399938,2.6399938 0 0 0 2.63867,2.63867 2.6399938,2.6399938 0 0 0 2.64063,-2.63867 2.6399938,2.6399938 0 0 0 -2.64063,-2.64062 z m 9.60156,0 a 2.6399938,2.6399938 0 0 0 -2.64062,2.64062 2.6399938,2.6399938 0 0 0 2.64062,2.63867 2.6399938,2.6399938 0 0 0 2.63868,-2.63867 2.6399938,2.6399938 0 0 0 -2.63868,-2.64062 z m 83.99805,0 a 2.6399938,2.6399938 0 0 0 -2.63867,2.64062 2.6399938,2.6399938 0 0 0 2.63867,2.63867 2.6399938,2.6399938 0 0 0 2.64063,-2.63867 2.6399938,2.6399938 0 0 0 -2.64063,-2.64062 z m 9.60156,0 a 2.6399938,2.6399938 0 0 0 -2.64062,2.64062 2.6399938,2.6399938 0 0 0 2.64062,2.63867 2.6399938,2.6399938 0 0 0 2.63867,-2.63867 2.6399938,2.6399938 0 0 0 -2.63867,-2.64062 z m 9.59961,0 a 2.6399938,2.6399938 0 0 0 -2.64062,2.64062 2.6399938,2.6399938 0 0 0 2.64062,2.63867 2.6399938,2.6399938 0 0 0 2.63867,-2.63867 2.6399938,2.6399938 0 0 0 -2.63867,-2.64062 z m 9.59961,0 a 2.6399938,2.6399938 0 0 0 -2.64062,2.64062 2.6399938,2.6399938 0 0 0 2.64062,2.63867 2.6399938,2.6399938 0 0 0 2.64063,-2.63867 2.6399938,2.6399938 0 0 0 -2.64063,-2.64062 z m 9.59961,0 a 2.6399938,2.6399938 0 0 0 -2.63867,2.64062 2.6399938,2.6399938 0 0 0 2.63867,2.63867 2.6399938,2.6399938 0 0 0 2.64063,-2.63867 2.6399938,2.6399938 0 0 0 -2.64063,-2.64062 z m 9.59961,0 a 2.6399938,2.6399938 0 0 0 -2.63867,2.64062 2.6399938,2.6399938 0 0 0 2.63867,2.63867 2.6399938,2.6399938 0 0 0 2.64063,-2.63867 2.6399938,2.6399938 0 0 0 -2.64063,-2.64062 z m 9.60156,0 a 2.6399938,2.6399938 0 0 0 -2.64062,2.64062 2.6399938,2.6399938 0 0 0 2.64062,2.63867 2.6399938,2.6399938 0 0 0 2.63867,-2.63867 2.6399938,2.6399938 0 0 0 -2.63867,-2.64062 z m 9.59961,0 a 2.6399938,2.6399938 0 0 0 -2.64062,2.64062 2.6399938,2.6399938 0 0 0 2.64062,2.63867 2.6399938,2.6399938 0 0 0 2.63867,-2.63867 2.6399938,2.6399938 0 0 0 -2.63867,-2.64062 z m -254.40039,5.54882 a 1.8897556,1.8897556 0 0 0 -1.88867,1.89063 1.8897556,1.8897556 0 0 0 1.88867,1.89062 1.8897556,1.8897556 0 0 0 1.89063,-1.89062 1.8897556,1.8897556 0 0 0 -1.89063,-1.89063 z m 144,0 a 1.8897556,1.8897556 0 0 0 -1.89062,1.89063 1.8897556,1.8897556 0 0 0 1.89062,1.89062 1.8897556,1.8897556 0 0 0 1.88867,-1.89062 1.8897556,1.8897556 0 0 0 -1.88867,-1.89063 z m 21.58203,1.89063 a 2.3999944,2.3999944 0 0 0 -2.40039,2.40039 2.3999944,2.3999944 0 0 0 2.40039,2.40039 2.3999944,2.3999944 0 0 0 2.40039,-2.40039 2.3999944,2.3999944 0 0 0 -2.40039,-2.40039 z m 9.61719,0 a 2.3999944,2.3999944 0 0 0 -2.39844,2.40039 2.3999944,2.3999944 0 0 0 2.39844,2.40039 2.3999944,2.3999944 0 0 0 2.40039,-2.40039 2.3999944,2.3999944 0 0 0 -2.40039,-2.40039 z m -96,0.50976 a 1.8897556,1.8897556 0 0 0 -1.88867,1.89063 1.8897556,1.8897556 0 0 0 1.88867,1.88867 1.8897556,1.8897556 0 0 0 1.89063,-1.88867 1.8897556,1.8897556 0 0 0 -1.89063,-1.89063 z m -24,2.40039 a 1.8897556,1.8897556 0 0 0 -1.88867,1.89063 1.8897556,1.8897556 0 0 0 1.88867,1.88867 1.8897556,1.8897556 0 0 0 1.89063,-1.88867 1.8897556,1.8897556 0 0 0 -1.89063,-1.89063 z m 141.59961,0 a 1.8897556,1.8897556 0 0 0 -1.88867,1.89063 1.8897556,1.8897556 0 0 0 1.88867,1.88867 1.8897556,1.8897556 0 0 0 1.89062,-1.88867 1.8897556,1.8897556 0 0 0 -1.89062,-1.89063 z m -251.986328,4.76954 a 1.8897556,1.8897556 0 0 0 -1.890625,1.88867 1.8897556,1.8897556 0 0 0 1.890625,1.89062 1.8897556,1.8897556 0 0 0 1.888672,-1.89062 1.8897556,1.8897556 0 0 0 -1.888672,-1.88867 z m -12.011719,0.0293 a 1.8897556,1.8897556 0 0 0 -1.890625,1.89063 1.8897556,1.8897556 0 0 0 1.890625,1.89062 1.8897556,1.8897556 0 0 0 1.888672,-1.89062 1.8897556,1.8897556 0 0 0 -1.888672,-1.89063 z m 165.599607,0 a 1.8897556,1.8897556 0 0 0 -1.89062,1.89063 1.8897556,1.8897556 0 0 0 1.89062,1.89062 1.8897556,1.8897556 0 0 0 1.88867,-1.89062 1.8897556,1.8897556 0 0 0 -1.88867,-1.89063 z m -52.80078,2.40039 a 1.8897556,1.8897556 0 0 0 -1.89062,1.89063 1.8897556,1.8897556 0 0 0 1.89062,1.88867 1.8897556,1.8897556 0 0 0 1.89063,-1.88867 1.8897556,1.8897556 0 0 0 -1.89063,-1.89063 z M 450.75,143.30859 a 2.7839936,2.7839936 0 0 0 -2.7832,2.78516 2.7839936,2.7839936 0 0 0 2.7832,2.7832 2.7839936,2.7839936 0 0 0 2.78516,-2.7832 2.7839936,2.7839936 0 0 0 -2.78516,-2.78516 z m -172.79883,0.89453 a 1.8897556,1.8897556 0 0 0 -1.89062,1.88868 1.8897556,1.8897556 0 0 0 1.89062,1.89062 1.8897556,1.8897556 0 0 0 1.88867,-1.89062 1.8897556,1.8897556 0 0 0 -1.88867,-1.88868 z m 62.39844,0 a 1.8897556,1.8897556 0 0 0 -1.88867,1.88868 1.8897556,1.8897556 0 0 0 1.88867,1.89062 1.8897556,1.8897556 0 0 0 1.89062,-1.89062 1.8897556,1.8897556 0 0 0 -1.89062,-1.88868 z m 96,0 a 1.8897556,1.8897556 0 0 0 -1.88867,1.88868 1.8897556,1.8897556 0 0 0 1.88867,1.89062 1.8897556,1.8897556 0 0 0 1.89062,-1.89062 1.8897556,1.8897556 0 0 0 -1.89062,-1.88868 z m -57.6875,0.17774 a 1.8897556,1.8897556 0 0 0 -1.88867,1.89062 1.8897556,1.8897556 0 0 0 1.88867,1.88868 1.8897556,1.8897556 0 0 0 1.89062,-1.88868 1.8897556,1.8897556 0 0 0 -1.89062,-1.89062 z m -328.951172,6.27148 v 5.28125 h 5.28125 v -5.28125 z m 12.240234,0 a 2.6399938,2.6399938 0 0 0 -2.638672,2.64063 2.6399938,2.6399938 0 0 0 2.638672,2.64062 2.6399938,2.6399938 0 0 0 2.640625,-2.64062 2.6399938,2.6399938 0 0 0 -2.640625,-2.64063 z m 9.601562,0 a 2.6399938,2.6399938 0 0 0 -2.640625,2.64063 2.6399938,2.6399938 0 0 0 2.640625,2.64062 2.6399938,2.6399938 0 0 0 2.638672,-2.64062 2.6399938,2.6399938 0 0 0 -2.638672,-2.64063 z m 9.59961,0 a 2.6399938,2.6399938 0 0 0 -2.640625,2.64063 2.6399938,2.6399938 0 0 0 2.640625,2.64062 2.6399938,2.6399938 0 0 0 2.638672,-2.64062 2.6399938,2.6399938 0 0 0 -2.638672,-2.64063 z m 9.599609,0 a 2.6399938,2.6399938 0 0 0 -2.640625,2.64063 2.6399938,2.6399938 0 0 0 2.640625,2.64062 2.6399938,2.6399938 0 0 0 2.640625,-2.64062 2.6399938,2.6399938 0 0 0 -2.640625,-2.64063 z m 9.599607,0 a 2.6399938,2.6399938 0 0 0 -2.640622,2.64063 2.6399938,2.6399938 0 0 0 2.640622,2.64062 2.6399938,2.6399938 0 0 0 2.64063,-2.64062 2.6399938,2.6399938 0 0 0 -2.64063,-2.64063 z m 9.59961,0 a 2.6399938,2.6399938 0 0 0 -2.63867,2.64063 2.6399938,2.6399938 0 0 0 2.63867,2.64062 2.6399938,2.6399938 0 0 0 2.64063,-2.64062 2.6399938,2.6399938 0 0 0 -2.64063,-2.64063 z m 9.59961,0 a 2.6399938,2.6399938 0 0 0 -2.63867,2.64063 2.6399938,2.6399938 0 0 0 2.63867,2.64062 2.6399938,2.6399938 0 0 0 2.64063,-2.64062 2.6399938,2.6399938 0 0 0 -2.64063,-2.64063 z m 47.76172,0 v 5.28125 h 5.2793 v -5.28125 z m 12.23828,0 a 2.6399938,2.6399938 0 0 0 -2.63867,2.64063 2.6399938,2.6399938 0 0 0 2.63867,2.64062 2.6399938,2.6399938 0 0 0 2.64063,-2.64062 2.6399938,2.6399938 0 0 0 -2.64063,-2.64063 z m 9.60156,0 a 2.6399938,2.6399938 0 0 0 -2.64062,2.64063 2.6399938,2.6399938 0 0 0 2.64062,2.64062 2.6399938,2.6399938 0 0 0 2.63868,-2.64062 2.6399938,2.6399938 0 0 0 -2.63868,-2.64063 z m 9.59961,0 a 2.6399938,2.6399938 0 0 0 -2.64062,2.64063 2.6399938,2.6399938 0 0 0 2.64062,2.64062 2.6399938,2.6399938 0 0 0 2.63867,-2.64062 2.6399938,2.6399938 0 0 0 -2.63867,-2.64063 z m 9.59961,0 a 2.6399938,2.6399938 0 0 0 -2.64062,2.64063 2.6399938,2.6399938 0 0 0 2.64062,2.64062 2.6399938,2.6399938 0 0 0 2.64063,-2.64062 2.6399938,2.6399938 0 0 0 -2.64063,-2.64063 z m 9.59961,0 a 2.6399938,2.6399938 0 0 0 -2.64062,2.64063 2.6399938,2.6399938 0 0 0 2.64062,2.64062 2.6399938,2.6399938 0 0 0 2.64063,-2.64062 2.6399938,2.6399938 0 0 0 -2.64063,-2.64063 z m 9.59961,0 a 2.6399938,2.6399938 0 0 0 -2.63867,2.64063 2.6399938,2.6399938 0 0 0 2.63867,2.64062 2.6399938,2.6399938 0 0 0 2.64063,-2.64062 2.6399938,2.6399938 0 0 0 -2.64063,-2.64063 z m 9.60156,0 a 2.6399938,2.6399938 0 0 0 -2.64062,2.64063 2.6399938,2.6399938 0 0 0 2.64062,2.64062 2.6399938,2.6399938 0 0 0 2.63868,-2.64062 2.6399938,2.6399938 0 0 0 -2.63868,-2.64063 z m 81.35938,0 v 5.28125 h 5.2793 v -5.28125 z m 12.24023,0 a 2.6399938,2.6399938 0 0 0 -2.64062,2.64063 2.6399938,2.6399938 0 0 0 2.64062,2.64062 2.6399938,2.6399938 0 0 0 2.63867,-2.64062 2.6399938,2.6399938 0 0 0 -2.63867,-2.64063 z m 9.59961,0 a 2.6399938,2.6399938 0 0 0 -2.64062,2.64063 2.6399938,2.6399938 0 0 0 2.64062,2.64062 2.6399938,2.6399938 0 0 0 2.63867,-2.64062 2.6399938,2.6399938 0 0 0 -2.63867,-2.64063 z m 9.59961,0 a 2.6399938,2.6399938 0 0 0 -2.64062,2.64063 2.6399938,2.6399938 0 0 0 2.64062,2.64062 2.6399938,2.6399938 0 0 0 2.64063,-2.64062 2.6399938,2.6399938 0 0 0 -2.64063,-2.64063 z m 9.59961,0 a 2.6399938,2.6399938 0 0 0 -2.63867,2.64063 2.6399938,2.6399938 0 0 0 2.63867,2.64062 2.6399938,2.6399938 0 0 0 2.64063,-2.64062 2.6399938,2.6399938 0 0 0 -2.64063,-2.64063 z m 9.59961,0 a 2.6399938,2.6399938 0 0 0 -2.63867,2.64063 2.6399938,2.6399938 0 0 0 2.63867,2.64062 2.6399938,2.6399938 0 0 0 2.64063,-2.64062 2.6399938,2.6399938 0 0 0 -2.64063,-2.64063 z m 9.60156,0 a 2.6399938,2.6399938 0 0 0 -2.64062,2.64063 2.6399938,2.6399938 0 0 0 2.64062,2.64062 2.6399938,2.6399938 0 0 0 2.63867,-2.64062 2.6399938,2.6399938 0 0 0 -2.63867,-2.64063 z m 9.59961,0 a 2.6399938,2.6399938 0 0 0 -2.64062,2.64063 2.6399938,2.6399938 0 0 0 2.64062,2.64062 2.6399938,2.6399938 0 0 0 2.63867,-2.64062 2.6399938,2.6399938 0 0 0 -2.63867,-2.64063 z m 62.39844,2.25782 a 2.7839936,2.7839936 0 0 0 -2.7832,2.7832 2.7839936,2.7839936 0 0 0 2.7832,2.7832 2.7839936,2.7839936 0 0 0 2.78516,-2.7832 2.7839936,2.7839936 0 0 0 -2.78516,-2.7832 z m -204,0.89257 a 1.8897556,1.8897556 0 0 0 -1.88867,1.89063 1.8897556,1.8897556 0 0 0 1.88867,1.88867 1.8897556,1.8897556 0 0 0 1.89062,-1.88867 1.8897556,1.8897556 0 0 0 -1.89062,-1.89063 z m 43.20117,0 a 1.8897556,1.8897556 0 0 0 -1.89062,1.89063 1.8897556,1.8897556 0 0 0 1.89062,1.88867 1.8897556,1.8897556 0 0 0 1.88867,-1.88867 1.8897556,1.8897556 0 0 0 -1.88867,-1.89063 z m 12,0 a 1.8897556,1.8897556 0 0 0 -1.89062,1.89063 1.8897556,1.8897556 0 0 0 1.89062,1.88867 1.8897556,1.8897556 0 0 0 1.88867,-1.88867 1.8897556,1.8897556 0 0 0 -1.88867,-1.89063 z m 134.39844,0 a 1.8897556,1.8897556 0 0 0 -1.88867,1.89063 1.8897556,1.8897556 0 0 0 1.88867,1.88867 1.8897556,1.8897556 0 0 0 1.89062,-1.88867 1.8897556,1.8897556 0 0 0 -1.89062,-1.89063 z m -360.041016,7.10743 a 1.8897556,1.8897556 0 0 0 -1.890625,1.89062 1.8897556,1.8897556 0 0 0 1.890625,1.88867 1.8897556,1.8897556 0 0 0 1.888672,-1.88867 1.8897556,1.8897556 0 0 0 -1.888672,-1.89062 z m 33.757816,0 a 1.8897556,1.8897556 0 0 0 -1.88868,1.89062 1.8897556,1.8897556 0 0 0 1.88868,1.88867 1.8897556,1.8897556 0 0 0 1.89062,-1.88867 1.8897556,1.8897556 0 0 0 -1.89062,-1.89062 z m 247.08398,0.0918 a 1.8897556,1.8897556 0 0 0 -1.89062,1.89063 1.8897556,1.8897556 0 0 0 1.89062,1.89062 1.8897556,1.8897556 0 0 0 1.89063,-1.89062 1.8897556,1.8897556 0 0 0 -1.89063,-1.89063 z m 93.59961,1.50782 a 2.7839936,2.7839936 0 0 0 -2.7832,2.7832 2.7839936,2.7839936 0 0 0 2.7832,2.78515 2.7839936,2.7839936 0 0 0 2.78516,-2.78515 2.7839936,2.7839936 0 0 0 -2.78516,-2.7832 z m -367.199219,5.69335 a 1.8897556,1.8897556 0 0 0 -1.888672,1.88868 1.8897556,1.8897556 0 0 0 1.888672,1.89062 1.8897556,1.8897556 0 0 0 1.890625,-1.89062 1.8897556,1.8897556 0 0 0 -1.890625,-1.88868 z m 199.199219,0 a 1.8897556,1.8897556 0 0 0 -1.88867,1.88868 1.8897556,1.8897556 0 0 0 1.88867,1.89062 1.8897556,1.8897556 0 0 0 1.89062,-1.89062 1.8897556,1.8897556 0 0 0 -1.89062,-1.88868 z m 168,3.90626 a 2.7839936,2.7839936 0 0 0 -2.7832,2.7832 2.7839936,2.7839936 0 0 0 2.7832,2.78515 2.7839936,2.7839936 0 0 0 2.78516,-2.78515 2.7839936,2.7839936 0 0 0 -2.78516,-2.7832 z m -362.398438,3.29296 a 1.8897556,1.8897556 0 0 0 -1.890624,1.89063 1.8897556,1.8897556 0 0 0 1.890624,1.88867 1.8897556,1.8897556 0 0 0 1.890626,-1.88867 1.8897556,1.8897556 0 0 0 -1.890626,-1.89063 z m 271.199218,0 a 1.8897556,1.8897556 0 0 0 -1.89062,1.89063 1.8897556,1.8897556 0 0 0 1.89062,1.88867 1.8897556,1.8897556 0 0 0 1.88867,-1.88867 1.8897556,1.8897556 0 0 0 -1.88867,-1.89063 z m -266.398436,7.20118 a 1.8897556,1.8897556 0 0 0 -1.890625,1.88867 1.8897556,1.8897556 0 0 0 1.890625,1.89062 1.8897556,1.8897556 0 0 0 1.888672,-1.89062 1.8897556,1.8897556 0 0 0 -1.888672,-1.88867 z m 86.398436,0 a 1.8897556,1.8897556 0 0 0 -1.89062,1.88867 1.8897556,1.8897556 0 0 0 1.89062,1.89062 1.8897556,1.8897556 0 0 0 1.89063,-1.89062 1.8897556,1.8897556 0 0 0 -1.89063,-1.88867 z m -60,7.19921 a 1.8897556,1.8897556 0 0 0 -1.88867,1.89063 1.8897556,1.8897556 0 0 0 1.88867,1.88867 1.8897556,1.8897556 0 0 0 1.89063,-1.88867 1.8897556,1.8897556 0 0 0 -1.89063,-1.89063 z m 50.40039,0 a 1.8897556,1.8897556 0 0 0 -1.89062,1.89063 1.8897556,1.8897556 0 0 0 1.89062,1.88867 1.8897556,1.8897556 0 0 0 1.88867,-1.88867 1.8897556,1.8897556 0 0 0 -1.88867,-1.89063 z m 120,0 a 1.8897556,1.8897556 0 0 0 -1.89062,1.89063 1.8897556,1.8897556 0 0 0 1.89062,1.88867 1.8897556,1.8897556 0 0 0 1.88867,-1.88867 1.8897556,1.8897556 0 0 0 -1.88867,-1.89063 z m -278.398436,0.64454 a 6.0472258,6.0472258 0 0 0 -6.0468746,6.04687 6.0472258,6.0472258 0 0 0 6.0468746,6.04688 6.0472258,6.0472258 0 0 0 6.046875,-6.04688 6.0472258,6.0472258 0 0 0 -6.046875,-6.04687 z m 439.199216,0 a 6.0472258,6.0472258 0 0 0 -6.04687,6.04687 6.0472258,6.0472258 0 0 0 6.04687,6.04688 6.0472258,6.0472258 0 0 0 6.04688,-6.04688 6.0472258,6.0472258 0 0 0 -6.04688,-6.04687 z"
       transform="matrix(0.75000176,0,0,0.75000176,0,-2.2486017e-4)"
       id="connector0pin"
       inkscape:connector-curvature="0" />
    <path
       style="color:#000000;font-style:normal;font-variant:normal;font-weight:normal;font-stretch:normal;font-size:medium;line-height:normal;font-family:sans-serif;font-variant-ligatures:normal;font-variant-position:normal;font-variant-caps:normal;font-variant-numeric:normal;font-variant-alternates:normal;font-feature-settings:normal;text-indent:0;text-align:start;text-decoration:none;text-decoration-line:none;text-decoration-style:solid;text-decoration-color:#000000;letter-spacing:normal;word-spacing:normal;text-transform:none;writing-mode:lr-tb;direction:ltr;text-orientation:mixed;dominant-baseline:auto;baseline-shift:baseline;text-anchor:start;white-space:normal;shape-padding:0;clip-rule:nonzero;display:inline;overflow:visible;visibility:visible;opacity:1;isolation:auto;mix-blend-mode:normal;color-interpolation:sRGB;color-interpolation-filters:linearRGB;solid-color:#000000;solid-opacity:1;vector-effect:none;fill:#000000;fill-opacity:1;fill-rule:nonzero;stroke:none;stroke-width:0.49999997;stroke-linecap:butt;stroke-linejoin:miter;stroke-miterlimit:4;stroke-dasharray:none;stroke-dashoffset:0;stroke-opacity:1;color-rendering:auto;image-rendering:auto;shape-rendering:auto;text-rendering:auto;enable-background:accumulate"
       d="M 0.03722,0.03789971 V 0.28789972 155.78009 H 347.38878 V 0.03789971 Z m 0.5,0.5 H 346.88878 V 155.28008 H 0.53722 Z"
       id="boardoutline"
       inkscape:connector-curvature="0" />
  </g>
</svg>
