G04 MADE WITH FRITZING*
G04 WWW.FRITZING.ORG*
G04 DOUBLE SIDED*
G04 HOLES PLATED*
G04 CONTOUR ON CENTER OF CONTOUR VECTOR*
%ASAXBY*%
%FSLAX23Y23*%
%MOIN*%
%OFA0B0*%
%SFA1.0B1.0*%
%ADD10C,0.070000*%
%ADD11C,0.078000*%
%ADD12C,0.075000*%
%ADD13C,0.039370*%
%ADD14C,0.062992*%
%ADD15R,0.070000X0.069972*%
%ADD16R,0.075000X0.075000*%
%ADD17R,0.062992X0.062992*%
%ADD18C,0.032000*%
%ADD19C,0.024000*%
%LNCOPPER1*%
G90*
G70*
G54D10*
X2126Y1039D03*
X2226Y1039D03*
X2326Y1039D03*
X2426Y1039D03*
X2526Y1039D03*
X2626Y1039D03*
X2726Y1039D03*
X2826Y1039D03*
X2926Y1039D03*
X3026Y1039D03*
X3126Y1039D03*
X3226Y1039D03*
X3326Y1039D03*
X3426Y1039D03*
X3526Y1039D03*
X2126Y1639D03*
X2226Y1639D03*
X2326Y1639D03*
X2426Y1639D03*
X2526Y1639D03*
X2626Y1639D03*
X2726Y1639D03*
X2826Y1639D03*
X2926Y1639D03*
X3026Y1639D03*
X3126Y1639D03*
X3226Y1639D03*
X3326Y1639D03*
X3426Y1639D03*
X3526Y1639D03*
G54D11*
X1001Y2064D03*
X1001Y1964D03*
X1001Y1864D03*
X1001Y1764D03*
X1001Y1664D03*
X1001Y1564D03*
X1001Y1464D03*
X1001Y1364D03*
X1001Y1264D03*
X1001Y1164D03*
X1001Y1064D03*
X1001Y964D03*
X401Y2064D03*
X401Y1964D03*
X401Y1864D03*
X401Y1764D03*
X401Y1664D03*
X401Y1564D03*
X401Y1464D03*
X401Y1364D03*
X401Y1264D03*
X401Y1164D03*
X401Y1064D03*
X401Y964D03*
G54D10*
X1701Y639D03*
X1600Y639D03*
G54D11*
X401Y764D03*
X401Y864D03*
X1001Y764D03*
X1001Y864D03*
X301Y964D03*
X301Y1064D03*
X301Y864D03*
X501Y1364D03*
X501Y1264D03*
G54D12*
X1301Y1564D03*
X1601Y1564D03*
X1301Y1464D03*
X1601Y1464D03*
X1301Y1364D03*
X1601Y1364D03*
X1301Y1264D03*
X1601Y1264D03*
X1301Y1164D03*
X1601Y1164D03*
X1301Y1064D03*
X1601Y1064D03*
X1301Y964D03*
X1601Y964D03*
X1301Y864D03*
X1601Y864D03*
X2126Y414D03*
X2126Y714D03*
X2226Y414D03*
X2226Y714D03*
X2326Y414D03*
X2326Y714D03*
X2426Y414D03*
X2426Y714D03*
X2526Y414D03*
X2526Y714D03*
X2626Y414D03*
X2626Y714D03*
X2726Y414D03*
X2726Y714D03*
X2826Y414D03*
X2826Y714D03*
G54D11*
X501Y764D03*
X501Y964D03*
X501Y864D03*
G54D13*
X2426Y939D03*
X2701Y939D03*
X2626Y839D03*
X2351Y839D03*
X1426Y864D03*
X1701Y964D03*
X1376Y639D03*
X2876Y2139D03*
X2476Y2139D03*
X1801Y1264D03*
X1951Y1089D03*
X826Y864D03*
X826Y1114D03*
X751Y939D03*
X751Y1239D03*
X676Y1289D03*
X676Y1014D03*
X601Y864D03*
X1426Y2064D03*
X1951Y564D03*
X1151Y864D03*
X2426Y1114D03*
X1751Y1489D03*
X2226Y1714D03*
X2226Y1564D03*
G54D12*
X2926Y364D03*
X3326Y364D03*
G54D14*
X3476Y463D03*
X3476Y364D03*
X3476Y788D03*
X3476Y689D03*
G54D12*
X2926Y689D03*
X3326Y689D03*
G54D13*
X3026Y939D03*
X3276Y789D03*
X2926Y814D03*
X3251Y464D03*
G54D15*
X2126Y1039D03*
G54D16*
X1301Y1564D03*
X2126Y414D03*
G54D17*
X3476Y463D03*
X3476Y788D03*
G54D18*
X1651Y539D02*
X1701Y589D01*
D02*
X1701Y589D02*
X1701Y608D01*
D02*
X614Y851D02*
X926Y539D01*
D02*
X926Y539D02*
X1651Y539D01*
G54D19*
D02*
X2445Y939D02*
X2682Y939D01*
D02*
X2607Y839D02*
X2370Y839D01*
G54D18*
D02*
X1426Y2040D02*
X1426Y889D01*
D02*
X1701Y940D02*
X1701Y671D01*
D02*
X1426Y840D02*
X1426Y764D01*
D02*
X1551Y639D02*
X1569Y639D01*
D02*
X1426Y764D02*
X1551Y639D01*
G54D19*
D02*
X1164Y851D02*
X1362Y653D01*
D02*
X2495Y2139D02*
X2857Y2139D01*
D02*
X1938Y1104D02*
X1813Y1250D01*
D02*
X826Y1095D02*
X826Y883D01*
D02*
X751Y1220D02*
X751Y958D01*
D02*
X676Y1033D02*
X676Y1270D01*
G54D18*
D02*
X1450Y2064D02*
X1901Y2064D01*
D02*
X1901Y2064D02*
X2209Y1732D01*
D02*
X1951Y964D02*
X1951Y589D01*
D02*
X2226Y1164D02*
X2101Y1164D01*
D02*
X2101Y1164D02*
X1951Y964D01*
D02*
X2376Y1164D02*
X2226Y1164D01*
D02*
X2408Y1132D02*
X2376Y1164D01*
D02*
X2226Y1164D02*
X2226Y1540D01*
D02*
X2376Y1164D02*
X2226Y1164D01*
D02*
X2408Y1132D02*
X2376Y1164D01*
D02*
X1701Y1414D02*
X1737Y1469D01*
D02*
X1701Y989D02*
X1701Y1414D01*
G54D19*
D02*
X3175Y790D02*
X3039Y926D01*
D02*
X3257Y789D02*
X3175Y790D01*
D02*
X3238Y478D02*
X2939Y800D01*
G04 End of Copper1*
M02*