; NON-PLATED HOLES START AT T1
; THROUGH (PLATED) HOLES START AT T100
M48
INCH
T1C0.125984
T100C0.015748
T101C0.035000
T102C0.030000
T103C0.036000
T104C0.031497
T105C0.038000
%
T1
X001755Y024642
X037005Y024642
X001755Y001642
X037005Y001642
T100
X008255Y011142
X022255Y015642
X029255Y008142
X007505Y009392
X019505Y010892
X023505Y008392
X006005Y008642
X024755Y021392
X024255Y011142
X017505Y014892
X032755Y007892
X030255Y009392
X008255Y008642
X018005Y012642
X019505Y005642
X014255Y020642
X024255Y009392
X007505Y012392
X028755Y021392
X017005Y009642
X027005Y009392
X032505Y004642
X006755Y010142
X006755Y012892
X022255Y017142
X011505Y008642
X026255Y008392
X014255Y008642
X013755Y006392
T101
X016005Y013642
X013005Y011642
X024255Y004142
X022255Y004142
X016005Y011642
X027255Y004142
X025255Y004142
X023255Y004142
X021255Y004142
X013005Y008642
X028255Y004142
X026255Y004142
X016005Y008642
X013005Y014642
X024255Y007142
X022255Y007142
X016005Y014642
X027255Y007142
X025255Y007142
X023255Y007142
X021255Y007142
X029255Y003642
X028255Y007142
X026255Y007142
X013005Y012642
X029255Y006892
X016005Y012642
X013005Y009642
X016005Y009642
X013005Y010642
X033255Y003642
X016005Y010642
X013005Y015642
X016005Y015642
X033255Y006892
X013005Y013642
T102
X017005Y006392
X016004Y006392
T103
X031255Y010392
X022255Y016392
X025255Y010392
X021255Y016392
X022255Y010392
X034255Y016392
X021255Y010392
X033255Y016392
X027255Y016392
X034255Y010392
X030255Y016392
X026255Y016392
X033255Y010392
X024255Y016392
X027255Y010392
X023255Y016392
X030255Y010392
X026255Y010392
X024255Y010392
X023255Y010392
X035255Y016392
X029255Y016392
X032255Y016392
X028255Y016392
X035255Y010392
X031255Y016392
X029255Y010392
X025255Y016392
X032255Y010392
X028255Y010392
T104
X034755Y003642
X034755Y004626
X034755Y006892
X034755Y007876
T105
X004005Y008642
X010005Y011642
X010005Y016642
X004005Y014642
X010005Y008642
X004005Y019642
X005005Y012642
X004005Y020642
X010005Y014642
X004005Y012642
X010005Y019642
X005005Y009642
X003005Y009642
X004005Y017642
X004005Y009642
X010005Y020642
X003005Y010642
X010005Y012642
X004005Y010642
X010005Y017642
X005005Y007642
X004005Y015642
X010005Y009642
X004005Y007642
X010005Y010642
X005005Y013642
X010005Y015642
X004005Y013642
X010005Y007642
X004005Y018642
X010005Y013642
X004005Y011642
X010005Y018642
X005005Y008642
X003005Y008642
X004005Y016642
T00
M30
