G04 MADE WITH FRITZING*
G04 WWW.FRITZING.ORG*
G04 DOUBLE SIDED*
G04 HOLES PLATED*
G04 CONTOUR ON CENTER OF CONTOUR VECTOR*
%ASAXBY*%
%FSLAX23Y23*%
%MOIN*%
%OFA0B0*%
%SFA1.0B1.0*%
%ADD10C,0.080000*%
%ADD11C,0.135984*%
%ADD12C,0.088000*%
%ADD13C,0.085000*%
%ADD14C,0.049370*%
%ADD15C,0.072992*%
%ADD16R,0.080000X0.079972*%
%ADD17R,0.085000X0.085000*%
%ADD18R,0.072992X0.072992*%
%LNMASK1*%
G90*
G70*
G54D10*
X2126Y1039D03*
X2226Y1039D03*
X2326Y1039D03*
X2426Y1039D03*
X2526Y1039D03*
X2626Y1039D03*
X2726Y1039D03*
X2826Y1039D03*
X2926Y1039D03*
X3026Y1039D03*
X3126Y1039D03*
X3226Y1039D03*
X3326Y1039D03*
X3426Y1039D03*
X3526Y1039D03*
X2126Y1639D03*
X2226Y1639D03*
X2326Y1639D03*
X2426Y1639D03*
X2526Y1639D03*
X2626Y1639D03*
X2726Y1639D03*
X2826Y1639D03*
X2926Y1639D03*
X3026Y1639D03*
X3126Y1639D03*
X3226Y1639D03*
X3326Y1639D03*
X3426Y1639D03*
X3526Y1639D03*
G54D11*
X176Y2464D03*
X3701Y2464D03*
X176Y164D03*
X3701Y164D03*
G54D12*
X1001Y2064D03*
X1001Y1964D03*
X1001Y1864D03*
X1001Y1764D03*
X1001Y1664D03*
X1001Y1564D03*
X1001Y1464D03*
X1001Y1364D03*
X1001Y1264D03*
X1001Y1164D03*
X1001Y1064D03*
X1001Y964D03*
X401Y2064D03*
X401Y1964D03*
X401Y1864D03*
X401Y1764D03*
X401Y1664D03*
X401Y1564D03*
X401Y1464D03*
X401Y1364D03*
X401Y1264D03*
X401Y1164D03*
X401Y1064D03*
X401Y964D03*
G54D10*
X1701Y639D03*
X1600Y639D03*
G54D12*
X401Y764D03*
X401Y864D03*
X1001Y764D03*
X1001Y864D03*
X301Y964D03*
X301Y1064D03*
X301Y864D03*
X501Y1364D03*
X501Y1264D03*
G54D13*
X1301Y1564D03*
X1601Y1564D03*
X1301Y1464D03*
X1601Y1464D03*
X1301Y1364D03*
X1601Y1364D03*
X1301Y1264D03*
X1601Y1264D03*
X1301Y1164D03*
X1601Y1164D03*
X1301Y1064D03*
X1601Y1064D03*
X1301Y964D03*
X1601Y964D03*
X1301Y864D03*
X1601Y864D03*
X2126Y414D03*
X2126Y714D03*
X2226Y414D03*
X2226Y714D03*
X2326Y414D03*
X2326Y714D03*
X2426Y414D03*
X2426Y714D03*
X2526Y414D03*
X2526Y714D03*
X2626Y414D03*
X2626Y714D03*
X2726Y414D03*
X2726Y714D03*
X2826Y414D03*
X2826Y714D03*
G54D12*
X501Y764D03*
X501Y964D03*
X501Y864D03*
G54D14*
X2426Y939D03*
X2701Y939D03*
X2626Y839D03*
X2351Y839D03*
X1426Y864D03*
X1701Y964D03*
X1376Y639D03*
X2876Y2139D03*
X2476Y2139D03*
X1801Y1264D03*
X1951Y1089D03*
X826Y864D03*
X826Y1114D03*
X751Y939D03*
X751Y1239D03*
X676Y1289D03*
X676Y1014D03*
X601Y864D03*
X1426Y2064D03*
X1951Y564D03*
X1151Y864D03*
X2426Y1114D03*
X1751Y1489D03*
X2226Y1714D03*
X2226Y1564D03*
G54D13*
X2926Y364D03*
X3326Y364D03*
G54D15*
X3476Y463D03*
X3476Y364D03*
X3476Y788D03*
X3476Y689D03*
G54D13*
X2926Y689D03*
X3326Y689D03*
G54D14*
X3026Y939D03*
X3276Y789D03*
X2926Y814D03*
X3251Y464D03*
G54D16*
X2126Y1039D03*
G54D17*
X1301Y1564D03*
X2126Y414D03*
G54D18*
X3476Y463D03*
X3476Y788D03*
G04 End of Mask1*
M02*