G04 MADE WITH FRITZING*
G04 WWW.FRITZING.ORG*
G04 DOUBLE SIDED*
G04 HOLES PLATED*
G04 CONTOUR ON CENTER OF CONTOUR VECTOR*
%ASAXBY*%
%FSLAX23Y23*%
%MOIN*%
%OFA0B0*%
%SFA1.0B1.0*%
%ADD10C,0.070000*%
%ADD11C,0.078000*%
%ADD12C,0.075000*%
%ADD13C,0.039370*%
%ADD14C,0.062992*%
%ADD15R,0.070000X0.069972*%
%ADD16R,0.075000X0.075000*%
%ADD17R,0.062992X0.062992*%
%ADD18C,0.024000*%
%ADD19C,0.032000*%
%LNCOPPER0*%
G90*
G70*
G54D10*
X2126Y1039D03*
X2226Y1039D03*
X2326Y1039D03*
X2426Y1039D03*
X2526Y1039D03*
X2626Y1039D03*
X2726Y1039D03*
X2826Y1039D03*
X2926Y1039D03*
X3026Y1039D03*
X3126Y1039D03*
X3226Y1039D03*
X3326Y1039D03*
X3426Y1039D03*
X3526Y1039D03*
X2126Y1639D03*
X2226Y1639D03*
X2326Y1639D03*
X2426Y1639D03*
X2526Y1639D03*
X2626Y1639D03*
X2726Y1639D03*
X2826Y1639D03*
X2926Y1639D03*
X3026Y1639D03*
X3126Y1639D03*
X3226Y1639D03*
X3326Y1639D03*
X3426Y1639D03*
X3526Y1639D03*
G54D11*
X1001Y2064D03*
X1001Y1964D03*
X1001Y1864D03*
X1001Y1764D03*
X1001Y1664D03*
X1001Y1564D03*
X1001Y1464D03*
X1001Y1364D03*
X1001Y1264D03*
X1001Y1164D03*
X1001Y1064D03*
X1001Y964D03*
X401Y2064D03*
X401Y1964D03*
X401Y1864D03*
X401Y1764D03*
X401Y1664D03*
X401Y1564D03*
X401Y1464D03*
X401Y1364D03*
X401Y1264D03*
X401Y1164D03*
X401Y1064D03*
X401Y964D03*
G54D10*
X1701Y639D03*
X1600Y639D03*
G54D11*
X401Y764D03*
X401Y864D03*
X1001Y764D03*
X1001Y864D03*
X301Y964D03*
X301Y1064D03*
X301Y864D03*
X501Y1364D03*
X501Y1264D03*
G54D12*
X1301Y1564D03*
X1601Y1564D03*
X1301Y1464D03*
X1601Y1464D03*
X1301Y1364D03*
X1601Y1364D03*
X1301Y1264D03*
X1601Y1264D03*
X1301Y1164D03*
X1601Y1164D03*
X1301Y1064D03*
X1601Y1064D03*
X1301Y964D03*
X1601Y964D03*
X1301Y864D03*
X1601Y864D03*
X2126Y414D03*
X2126Y714D03*
X2226Y414D03*
X2226Y714D03*
X2326Y414D03*
X2326Y714D03*
X2426Y414D03*
X2426Y714D03*
X2526Y414D03*
X2526Y714D03*
X2626Y414D03*
X2626Y714D03*
X2726Y414D03*
X2726Y714D03*
X2826Y414D03*
X2826Y714D03*
G54D11*
X501Y764D03*
X501Y964D03*
X501Y864D03*
G54D13*
X2426Y939D03*
X2701Y939D03*
X2626Y839D03*
X2351Y839D03*
X1426Y864D03*
X1701Y964D03*
X1376Y639D03*
X2876Y2139D03*
X2476Y2139D03*
X1801Y1264D03*
X1951Y1089D03*
X826Y864D03*
X826Y1114D03*
X751Y939D03*
X751Y1239D03*
X676Y1289D03*
X676Y1014D03*
X601Y864D03*
X1426Y2064D03*
X1951Y564D03*
X1151Y864D03*
X2426Y1114D03*
X1751Y1489D03*
X2226Y1714D03*
X2226Y1564D03*
G54D12*
X2926Y364D03*
X3326Y364D03*
X2926Y689D03*
X3326Y689D03*
G54D14*
X3476Y463D03*
X3476Y364D03*
X3476Y788D03*
X3476Y689D03*
G54D13*
X3026Y939D03*
X3276Y789D03*
X2926Y814D03*
X3251Y464D03*
G54D15*
X2126Y1039D03*
G54D16*
X1301Y1564D03*
X2126Y414D03*
G54D17*
X3476Y463D03*
X3476Y788D03*
G54D18*
X451Y1664D02*
X431Y1664D01*
D02*
X3026Y1689D02*
X2501Y2214D01*
D02*
X2501Y2214D02*
X901Y2214D01*
D02*
X3026Y1668D02*
X3026Y1689D01*
D02*
X901Y2214D02*
X451Y1664D01*
D02*
X452Y1764D02*
X431Y1764D01*
D02*
X3126Y1689D02*
X2526Y2289D01*
D02*
X2526Y2289D02*
X876Y2289D01*
D02*
X3126Y1668D02*
X3126Y1689D01*
D02*
X876Y2289D02*
X452Y1764D01*
D02*
X451Y1864D02*
X431Y1864D01*
D02*
X851Y2364D02*
X451Y1864D01*
D02*
X3226Y1668D02*
X3226Y1689D01*
D02*
X3226Y1689D02*
X2551Y2364D01*
D02*
X2551Y2364D02*
X851Y2364D01*
D02*
X2926Y1689D02*
X2926Y1668D01*
D02*
X1031Y1964D02*
X2651Y1964D01*
D02*
X2651Y1964D02*
X2926Y1689D01*
D02*
X2826Y1689D02*
X2826Y1668D01*
D02*
X1031Y1864D02*
X2651Y1864D01*
D02*
X2651Y1864D02*
X2826Y1689D01*
D02*
X2726Y1689D02*
X2726Y1668D01*
D02*
X2651Y1764D02*
X2726Y1689D01*
D02*
X1031Y1764D02*
X2651Y1764D01*
D02*
X1031Y1564D02*
X1272Y1564D01*
D02*
X1031Y1464D02*
X1272Y1464D01*
D02*
X1031Y1364D02*
X1272Y1364D01*
D02*
X1031Y1264D02*
X1272Y1264D01*
D02*
X1272Y1164D02*
X1031Y1164D01*
D02*
X1031Y1064D02*
X1272Y1064D01*
D02*
X1272Y964D02*
X1031Y964D01*
G54D19*
D02*
X1651Y564D02*
X1926Y564D01*
D02*
X1975Y564D02*
X2827Y564D01*
D02*
X1601Y608D02*
X1601Y589D01*
D02*
X1601Y589D02*
X1651Y564D01*
D02*
X2827Y564D02*
X2826Y448D01*
G54D18*
D02*
X2726Y1089D02*
X2726Y1068D01*
D02*
X2451Y1364D02*
X2726Y1089D01*
D02*
X1629Y1364D02*
X2451Y1364D01*
D02*
X3227Y938D02*
X3226Y1010D01*
D02*
X2901Y112D02*
X3101Y312D01*
D02*
X3101Y812D02*
X3227Y938D01*
D02*
X801Y112D02*
X2901Y112D01*
D02*
X3101Y312D02*
X3101Y812D01*
D02*
X370Y1364D02*
X301Y1364D01*
D02*
X301Y1364D02*
X126Y1189D01*
D02*
X126Y789D02*
X801Y112D01*
D02*
X126Y1189D02*
X126Y789D01*
D02*
X1127Y338D02*
X2201Y339D01*
D02*
X751Y920D02*
X752Y712D01*
D02*
X2201Y339D02*
X2226Y364D01*
D02*
X752Y712D02*
X1127Y338D01*
D02*
X651Y1464D02*
X751Y1364D01*
D02*
X2226Y364D02*
X2226Y386D01*
D02*
X751Y1364D02*
X751Y1258D01*
D02*
X431Y1464D02*
X651Y1464D01*
D02*
X2401Y490D02*
X2427Y464D01*
D02*
X2427Y464D02*
X2426Y443D01*
D02*
X1526Y489D02*
X2401Y490D01*
D02*
X1389Y626D02*
X1526Y489D01*
D02*
X431Y1164D02*
X776Y1164D01*
D02*
X776Y1164D02*
X812Y1128D01*
D02*
X826Y739D02*
X1151Y414D01*
D02*
X826Y845D02*
X826Y739D01*
D02*
X1151Y414D02*
X2097Y414D01*
G54D19*
D02*
X470Y964D02*
X431Y964D01*
D02*
X470Y764D02*
X431Y764D01*
G54D18*
D02*
X2451Y1164D02*
X1629Y1164D01*
D02*
X2526Y1089D02*
X2451Y1164D01*
D02*
X2526Y1068D02*
X2526Y1089D01*
D02*
X2526Y1010D02*
X2526Y743D01*
D02*
X3127Y938D02*
X3126Y1010D01*
D02*
X201Y814D02*
X827Y190D01*
D02*
X3027Y338D02*
X3027Y838D01*
D02*
X201Y914D02*
X201Y814D01*
D02*
X3027Y838D02*
X3127Y938D01*
D02*
X251Y964D02*
X201Y914D01*
D02*
X2875Y190D02*
X3027Y338D01*
D02*
X270Y964D02*
X251Y964D01*
D02*
X827Y190D02*
X2875Y190D01*
D02*
X2827Y990D02*
X2826Y1010D01*
D02*
X2426Y743D02*
X2426Y920D01*
D02*
X2775Y938D02*
X2827Y990D01*
D02*
X2720Y939D02*
X2775Y938D01*
G54D19*
D02*
X1676Y1564D02*
X1635Y1564D01*
D02*
X1733Y1507D02*
X1676Y1564D01*
D02*
X2351Y1489D02*
X1775Y1489D01*
D02*
X2427Y1590D02*
X2351Y1489D01*
D02*
X2426Y1610D02*
X2427Y1590D01*
G54D18*
D02*
X2626Y743D02*
X2626Y820D01*
D02*
X662Y1303D02*
X601Y1364D01*
D02*
X2227Y264D02*
X1101Y264D01*
D02*
X601Y1364D02*
X531Y1364D01*
D02*
X2326Y364D02*
X2227Y264D01*
D02*
X675Y690D02*
X676Y995D01*
D02*
X1101Y264D02*
X675Y690D01*
D02*
X2326Y386D02*
X2326Y364D01*
D02*
X470Y1264D02*
X431Y1264D01*
D02*
X326Y1264D02*
X370Y1264D01*
D02*
X301Y1094D02*
X301Y1239D01*
D02*
X301Y1239D02*
X326Y1264D01*
D02*
X2051Y789D02*
X1976Y714D01*
D02*
X776Y1064D02*
X431Y1064D01*
D02*
X1976Y714D02*
X1226Y714D01*
D02*
X901Y939D02*
X776Y1064D01*
D02*
X901Y739D02*
X901Y939D01*
D02*
X1201Y689D02*
X951Y689D01*
D02*
X2226Y764D02*
X2201Y789D01*
D02*
X2201Y789D02*
X2051Y789D01*
D02*
X1226Y714D02*
X1201Y689D01*
D02*
X951Y689D02*
X901Y739D01*
D02*
X2226Y743D02*
X2226Y764D01*
D02*
X2326Y764D02*
X2326Y743D01*
D02*
X2251Y839D02*
X2326Y764D01*
D02*
X1552Y838D02*
X2251Y839D01*
D02*
X1575Y851D02*
X1552Y838D01*
D02*
X2126Y639D02*
X2126Y686D01*
D02*
X2726Y686D02*
X2726Y639D01*
D02*
X2726Y639D02*
X2126Y639D01*
D02*
X2407Y939D02*
X2076Y939D01*
D02*
X1782Y1264D02*
X1629Y1264D01*
D02*
X2076Y939D02*
X1963Y1075D01*
D02*
X2626Y858D02*
X2626Y1010D01*
D02*
X2337Y853D02*
X2301Y889D01*
D02*
X2301Y889D02*
X1976Y889D01*
D02*
X1976Y889D02*
X1826Y1064D01*
D02*
X1826Y1064D02*
X1629Y1064D01*
D02*
X1629Y964D02*
X1682Y964D01*
G54D19*
D02*
X1732Y639D02*
X2126Y639D01*
D02*
X2126Y639D02*
X2126Y686D01*
G54D18*
D02*
X1376Y1664D02*
X1031Y1664D01*
D02*
X1407Y864D02*
X1329Y864D01*
D02*
X3326Y1089D02*
X3326Y1068D01*
D02*
X3601Y1389D02*
X3326Y1089D01*
D02*
X3601Y1689D02*
X3601Y1389D01*
D02*
X2895Y2139D02*
X3126Y2139D01*
D02*
X3126Y2139D02*
X3601Y1689D01*
D02*
X926Y2139D02*
X2457Y2139D01*
D02*
X452Y1564D02*
X926Y2139D01*
D02*
X431Y1564D02*
X452Y1564D01*
D02*
X826Y2439D02*
X451Y1964D01*
D02*
X451Y1964D02*
X431Y1964D01*
D02*
X2926Y2439D02*
X826Y2439D01*
D02*
X3676Y1714D02*
X2926Y2439D01*
D02*
X3676Y1364D02*
X3676Y1714D01*
D02*
X3426Y1089D02*
X3676Y1364D01*
D02*
X3426Y1068D02*
X3426Y1089D01*
D02*
X431Y2064D02*
X451Y2064D01*
D02*
X451Y2064D02*
X801Y2514D01*
D02*
X801Y2514D02*
X2951Y2514D01*
D02*
X2951Y2514D02*
X3751Y1739D01*
D02*
X3751Y1739D02*
X3751Y1339D01*
D02*
X3526Y1089D02*
X3526Y1068D01*
D02*
X3751Y1339D02*
X3526Y1089D01*
D02*
X331Y864D02*
X370Y864D01*
G54D19*
D02*
X531Y864D02*
X582Y864D01*
D02*
X1036Y2064D02*
X1401Y2064D01*
G54D18*
D02*
X1031Y864D02*
X1132Y864D01*
G54D19*
D02*
X2426Y1090D02*
X2426Y1074D01*
G54D18*
D02*
X1551Y1464D02*
X1376Y1664D01*
D02*
X1572Y1464D02*
X1551Y1464D01*
G54D19*
D02*
X2226Y1690D02*
X2226Y1674D01*
D02*
X2226Y1589D02*
X2226Y1605D01*
G54D18*
D02*
X3449Y364D02*
X3354Y364D01*
D02*
X3449Y689D02*
X3354Y689D01*
D02*
X3026Y958D02*
X3026Y1010D01*
D02*
X3449Y788D02*
X3295Y789D01*
G54D19*
D02*
X2827Y564D02*
X2826Y448D01*
D02*
X2927Y564D02*
X2827Y564D01*
D02*
X2926Y393D02*
X2927Y412D01*
D02*
X2927Y412D02*
X2927Y564D01*
D02*
X2926Y398D02*
X2926Y655D01*
G54D18*
D02*
X2926Y833D02*
X2926Y1010D01*
D02*
X3449Y463D02*
X3270Y464D01*
G04 End of Copper0*
M02*