G04 MADE WITH FRITZING*
G04 WWW.FRITZING.ORG*
G04 DOUBLE SIDED*
G04 HOLES PLATED*
G04 CONTOUR ON CENTER OF CONTOUR VECTOR*
%ASAXBY*%
%FSLAX23Y23*%
%MOIN*%
%OFA0B0*%
%SFA1.0B1.0*%
%ADD10C,0.049370*%
%ADD11C,0.088000*%
%ADD12C,0.080000*%
%ADD13C,0.072992*%
%ADD14C,0.061181*%
%ADD15C,0.128110*%
%ADD16C,0.085000*%
%ADD17R,0.084803X0.072992*%
%ADD18R,0.072992X0.072992*%
%ADD19R,0.085000X0.085000*%
%LNMASK0*%
G90*
G70*
G54D10*
X388Y962D03*
X388Y861D03*
X3413Y886D03*
G54D11*
X3838Y1686D03*
X3638Y1686D03*
X3838Y1386D03*
X3638Y1386D03*
G54D12*
X3438Y1587D03*
X3438Y1486D03*
G54D13*
X3388Y188D03*
X3388Y89D03*
X3113Y186D03*
X3113Y88D03*
X2838Y186D03*
X2838Y88D03*
X2563Y186D03*
X2563Y88D03*
X2288Y186D03*
X2288Y88D03*
X2013Y186D03*
X2013Y88D03*
X1738Y185D03*
X1738Y86D03*
X1463Y186D03*
X1463Y88D03*
G54D10*
X863Y911D03*
X2088Y911D03*
X963Y836D03*
X2188Y836D03*
X2288Y761D03*
X1063Y761D03*
X2388Y686D03*
X1163Y686D03*
X3013Y886D03*
X1263Y611D03*
X3113Y886D03*
X1363Y536D03*
X3213Y886D03*
X1463Y461D03*
X3313Y886D03*
X1563Y386D03*
X2088Y1461D03*
X963Y1486D03*
X2188Y1461D03*
X1063Y1561D03*
X2288Y1461D03*
X1163Y1636D03*
X2388Y1461D03*
X1263Y1711D03*
X3013Y1461D03*
X1363Y1786D03*
X3113Y1461D03*
X1463Y1861D03*
X3213Y1461D03*
X1563Y1936D03*
X3313Y1461D03*
X1663Y2011D03*
X863Y1411D03*
G54D11*
X3838Y1586D03*
X3838Y1486D03*
X3638Y1586D03*
X3638Y1486D03*
G54D14*
X2363Y286D03*
G54D10*
X438Y411D03*
X663Y786D03*
X2713Y1111D03*
X1988Y1211D03*
X2713Y1211D03*
X388Y661D03*
G54D11*
X538Y111D03*
X638Y111D03*
X738Y111D03*
X838Y111D03*
X938Y111D03*
X1038Y111D03*
X1138Y111D03*
X1238Y111D03*
G54D15*
X138Y137D03*
X138Y1986D03*
X3763Y136D03*
X3763Y1986D03*
G54D16*
X763Y1011D03*
X763Y1311D03*
X863Y1011D03*
X863Y1311D03*
X963Y1011D03*
X963Y1311D03*
X1063Y1011D03*
X1063Y1311D03*
X1163Y1011D03*
X1163Y1311D03*
X1263Y1011D03*
X1263Y1311D03*
X1363Y1011D03*
X1363Y1311D03*
X1463Y1011D03*
X1463Y1311D03*
X1563Y1011D03*
X1563Y1311D03*
X1663Y1011D03*
X1663Y1311D03*
X1888Y1011D03*
X1888Y1311D03*
X1988Y1011D03*
X1988Y1311D03*
X2088Y1011D03*
X2088Y1311D03*
X2188Y1011D03*
X2188Y1311D03*
X2288Y1011D03*
X2288Y1311D03*
X2388Y1011D03*
X2388Y1311D03*
X2488Y1011D03*
X2488Y1311D03*
X2588Y1011D03*
X2588Y1311D03*
X2813Y1011D03*
X2813Y1311D03*
X2913Y1011D03*
X2913Y1311D03*
X3013Y1011D03*
X3013Y1311D03*
X3113Y1011D03*
X3113Y1311D03*
X3213Y1011D03*
X3213Y1311D03*
X3313Y1011D03*
X3313Y1311D03*
X3413Y1011D03*
X3413Y1311D03*
X3513Y1011D03*
X3513Y1311D03*
G54D11*
X88Y561D03*
X88Y361D03*
X288Y361D03*
X88Y461D03*
X288Y461D03*
X88Y861D03*
X88Y961D03*
X88Y1061D03*
X88Y1161D03*
X88Y1261D03*
X88Y1361D03*
X88Y1461D03*
X88Y1561D03*
X288Y861D03*
X288Y961D03*
X288Y1061D03*
X288Y1161D03*
X288Y1261D03*
X288Y1361D03*
X288Y1461D03*
X288Y1561D03*
X88Y661D03*
G54D17*
X3313Y509D03*
X3313Y386D03*
X3113Y509D03*
X3113Y386D03*
X2838Y509D03*
X2838Y386D03*
X2663Y509D03*
X2663Y386D03*
X2263Y509D03*
X2263Y386D03*
X2113Y509D03*
X2113Y386D03*
X1863Y509D03*
X1863Y386D03*
X1688Y509D03*
X1688Y386D03*
G54D18*
X3388Y188D03*
X3113Y186D03*
X2838Y186D03*
X2563Y186D03*
X2288Y186D03*
X2013Y186D03*
X1738Y185D03*
X1463Y186D03*
G54D19*
X763Y1011D03*
X1888Y1011D03*
X2813Y1011D03*
G04 End of Mask0*
M02*