G04 MADE WITH FRITZING*
G04 WWW.FRITZING.ORG*
G04 DOUBLE SIDED*
G04 HOLES PLATED*
G04 CONTOUR ON CENTER OF CONTOUR VECTOR*
%ASAXBY*%
%FSLAX23Y23*%
%MOIN*%
%OFA0B0*%
%SFA1.0B1.0*%
%ADD10C,0.039370*%
%ADD11C,0.078000*%
%ADD12C,0.070000*%
%ADD13C,0.062992*%
%ADD14C,0.051181*%
%ADD15C,0.075000*%
%ADD16R,0.074803X0.062992*%
%ADD17R,0.062992X0.062992*%
%ADD18R,0.075000X0.075000*%
%ADD19C,0.024000*%
%ADD20C,0.032000*%
%ADD21C,0.038000*%
%ADD22C,0.048000*%
%ADD23C,0.026000*%
%LNCOPPER0*%
G90*
G70*
G54D10*
X388Y962D03*
X388Y861D03*
X3413Y886D03*
G54D11*
X3638Y1586D03*
X3838Y1586D03*
X3638Y1286D03*
X3838Y1286D03*
G54D12*
X3438Y1587D03*
X3438Y1486D03*
G54D11*
X88Y661D03*
G54D13*
X3388Y188D03*
X3388Y89D03*
X3113Y186D03*
X3113Y88D03*
X2838Y186D03*
X2838Y88D03*
X2563Y186D03*
X2563Y88D03*
X2288Y186D03*
X2288Y88D03*
X2013Y186D03*
X2013Y88D03*
X1738Y185D03*
X1738Y86D03*
X1463Y186D03*
X1463Y88D03*
G54D10*
X863Y911D03*
X2088Y911D03*
X963Y836D03*
X2188Y836D03*
X2288Y761D03*
X1063Y761D03*
X2388Y686D03*
X1163Y686D03*
X3013Y886D03*
X1263Y611D03*
X3113Y886D03*
X1363Y536D03*
X3213Y886D03*
X1463Y461D03*
X3313Y886D03*
X1563Y386D03*
X2088Y1461D03*
X963Y1486D03*
X2188Y1461D03*
X1063Y1561D03*
X2288Y1461D03*
X1163Y1636D03*
X2388Y1461D03*
X1263Y1711D03*
X3013Y1461D03*
X1363Y1786D03*
X3113Y1461D03*
X1463Y1861D03*
X3213Y1461D03*
X1563Y1936D03*
X3313Y1461D03*
X1663Y2011D03*
X863Y1411D03*
G54D11*
X3638Y1486D03*
X3638Y1386D03*
X3838Y1486D03*
X3838Y1386D03*
G54D14*
X2363Y286D03*
G54D10*
X438Y411D03*
X663Y786D03*
X2713Y1111D03*
X1988Y1211D03*
X2713Y1211D03*
X388Y761D03*
X663Y1211D03*
G54D11*
X538Y111D03*
X638Y111D03*
X738Y111D03*
X838Y111D03*
X938Y111D03*
X1038Y111D03*
X1138Y111D03*
X1238Y111D03*
G54D15*
X763Y1011D03*
X763Y1311D03*
X863Y1011D03*
X863Y1311D03*
X963Y1011D03*
X963Y1311D03*
X1063Y1011D03*
X1063Y1311D03*
X1163Y1011D03*
X1163Y1311D03*
X1263Y1011D03*
X1263Y1311D03*
X1363Y1011D03*
X1363Y1311D03*
X1463Y1011D03*
X1463Y1311D03*
X1563Y1011D03*
X1563Y1311D03*
X1663Y1011D03*
X1663Y1311D03*
X1888Y1011D03*
X1888Y1311D03*
X1988Y1011D03*
X1988Y1311D03*
X2088Y1011D03*
X2088Y1311D03*
X2188Y1011D03*
X2188Y1311D03*
X2288Y1011D03*
X2288Y1311D03*
X2388Y1011D03*
X2388Y1311D03*
X2488Y1011D03*
X2488Y1311D03*
X2588Y1011D03*
X2588Y1311D03*
X2813Y1011D03*
X2813Y1311D03*
X2913Y1011D03*
X2913Y1311D03*
X3013Y1011D03*
X3013Y1311D03*
X3113Y1011D03*
X3113Y1311D03*
X3213Y1011D03*
X3213Y1311D03*
X3313Y1011D03*
X3313Y1311D03*
X3413Y1011D03*
X3413Y1311D03*
X3513Y1011D03*
X3513Y1311D03*
G54D11*
X88Y561D03*
X88Y361D03*
X288Y361D03*
X88Y461D03*
X288Y461D03*
X88Y861D03*
X88Y961D03*
X88Y1061D03*
X88Y1161D03*
X88Y1261D03*
X88Y1361D03*
X88Y1461D03*
X88Y1561D03*
X288Y861D03*
X288Y961D03*
X288Y1061D03*
X288Y1161D03*
X288Y1261D03*
X288Y1361D03*
X288Y1461D03*
X288Y1561D03*
X88Y761D03*
G54D16*
X3313Y509D03*
X3313Y386D03*
X3113Y509D03*
X3113Y386D03*
X2838Y509D03*
X2838Y386D03*
X2663Y509D03*
X2663Y386D03*
X2263Y509D03*
X2263Y386D03*
X2113Y509D03*
X2113Y386D03*
X1863Y509D03*
X1863Y386D03*
X1688Y509D03*
X1688Y386D03*
G54D17*
X3388Y188D03*
X3113Y186D03*
X2838Y186D03*
X2563Y186D03*
X2288Y186D03*
X2013Y186D03*
X1738Y185D03*
X1463Y186D03*
G54D18*
X763Y1011D03*
X1888Y1011D03*
X2813Y1011D03*
G54D19*
X258Y461D02*
X118Y461D01*
D02*
X258Y361D02*
X118Y361D01*
D02*
X88Y392D02*
X88Y431D01*
G54D20*
D02*
X253Y1561D02*
X124Y1561D01*
D02*
X253Y1461D02*
X124Y1461D01*
D02*
X253Y1361D02*
X124Y1361D01*
D02*
X253Y1261D02*
X124Y1261D01*
D02*
X253Y1161D02*
X124Y1161D01*
D02*
X253Y1061D02*
X124Y1061D01*
D02*
X253Y961D02*
X124Y961D01*
D02*
X253Y861D02*
X124Y861D01*
G54D21*
D02*
X364Y962D02*
X324Y962D01*
D02*
X3413Y911D02*
X3413Y977D01*
G54D22*
D02*
X3514Y1112D02*
X3513Y1051D01*
D02*
X2989Y1112D02*
X3514Y1112D01*
D02*
X2913Y1061D02*
X2989Y1112D01*
D02*
X2913Y1051D02*
X2913Y1061D01*
D02*
X2539Y1112D02*
X2588Y1061D01*
D02*
X2588Y1061D02*
X2588Y1051D01*
D02*
X1988Y1061D02*
X2039Y1112D01*
D02*
X2039Y1112D02*
X2539Y1112D01*
D02*
X1988Y1051D02*
X1988Y1061D01*
D02*
X3350Y89D02*
X1501Y88D01*
D02*
X2813Y1586D02*
X2813Y1351D01*
D02*
X3401Y1587D02*
X2813Y1586D01*
G54D23*
D02*
X288Y392D02*
X288Y431D01*
G54D22*
D02*
X3638Y1545D02*
X3638Y1528D01*
D02*
X3638Y1328D02*
X3638Y1345D01*
G54D21*
D02*
X1813Y710D02*
X1704Y534D01*
D02*
X1939Y713D02*
X1813Y710D01*
D02*
X2074Y892D02*
X1939Y713D01*
D02*
X1538Y188D02*
X1669Y361D01*
D02*
X1496Y187D02*
X1538Y188D01*
D02*
X1738Y237D02*
X1738Y217D01*
D02*
X1841Y361D02*
X1738Y237D01*
D02*
X1939Y637D02*
X1879Y534D01*
D02*
X2038Y637D02*
X1939Y637D01*
D02*
X2173Y817D02*
X2038Y637D01*
D02*
X2112Y536D02*
X2112Y534D01*
D02*
X2273Y742D02*
X2112Y536D01*
D02*
X2013Y237D02*
X2013Y219D01*
D02*
X2096Y361D02*
X2013Y237D01*
D02*
X2263Y237D02*
X2274Y216D01*
D02*
X2263Y361D02*
X2263Y237D01*
D02*
X2263Y536D02*
X2373Y668D01*
D02*
X2263Y534D02*
X2263Y536D01*
D02*
X2562Y237D02*
X2563Y219D01*
D02*
X2646Y361D02*
X2562Y237D01*
D02*
X2864Y687D02*
X2814Y687D01*
D02*
X2663Y536D02*
X2663Y534D01*
D02*
X2814Y687D02*
X2663Y536D01*
D02*
X3013Y862D02*
X3013Y836D01*
D02*
X3013Y836D02*
X2864Y687D01*
D02*
X2838Y361D02*
X2838Y219D01*
D02*
X3113Y736D02*
X2870Y534D01*
D02*
X3113Y862D02*
X3113Y736D01*
D02*
X3113Y361D02*
X3113Y219D01*
D02*
X3212Y612D02*
X3138Y534D01*
D02*
X3213Y862D02*
X3212Y612D01*
D02*
X3314Y287D02*
X3369Y214D01*
D02*
X3313Y361D02*
X3314Y287D01*
D02*
X3313Y862D02*
X3313Y534D01*
D02*
X2989Y1213D02*
X2838Y1112D01*
D02*
X2838Y1112D02*
X2738Y1111D01*
D02*
X3364Y1213D02*
X2989Y1213D01*
D02*
X863Y936D02*
X863Y977D01*
D02*
X2088Y977D02*
X2088Y936D01*
D02*
X2188Y977D02*
X2188Y861D01*
D02*
X963Y861D02*
X963Y977D01*
D02*
X2288Y786D02*
X2288Y977D01*
D02*
X1063Y977D02*
X1063Y786D01*
D02*
X2388Y711D02*
X2388Y977D01*
D02*
X1163Y977D02*
X1163Y711D01*
D02*
X3013Y911D02*
X3013Y977D01*
D02*
X1263Y977D02*
X1263Y636D01*
D02*
X3113Y911D02*
X3113Y977D01*
D02*
X1363Y977D02*
X1363Y561D01*
D02*
X3213Y911D02*
X3213Y977D01*
D02*
X1463Y977D02*
X1463Y486D01*
D02*
X3313Y911D02*
X3313Y977D01*
D02*
X1563Y977D02*
X1563Y411D01*
G54D22*
D02*
X1703Y1011D02*
X1848Y1011D01*
D02*
X1948Y1011D02*
X1928Y1011D01*
D02*
X2628Y1011D02*
X2773Y1011D01*
D02*
X1700Y87D02*
X1501Y88D01*
D02*
X1975Y88D02*
X1776Y87D01*
D02*
X2250Y88D02*
X2051Y88D01*
D02*
X2525Y88D02*
X2326Y88D01*
D02*
X2800Y88D02*
X2601Y88D01*
D02*
X3075Y88D02*
X2876Y88D01*
D02*
X3350Y89D02*
X3151Y88D01*
D02*
X2713Y861D02*
X2713Y736D01*
D02*
X2713Y736D02*
X2463Y461D01*
D02*
X2463Y461D02*
X2463Y86D01*
D02*
X2463Y86D02*
X2326Y88D01*
D02*
X2791Y978D02*
X2713Y861D01*
D02*
X2873Y1011D02*
X2853Y1011D01*
D02*
X3488Y136D02*
X3438Y86D01*
D02*
X3438Y86D02*
X3426Y87D01*
D02*
X3488Y437D02*
X3488Y136D01*
D02*
X3514Y487D02*
X3488Y437D01*
D02*
X3513Y972D02*
X3514Y487D01*
G54D23*
D02*
X763Y1040D02*
X763Y1283D01*
G54D21*
D02*
X2088Y1437D02*
X2088Y1346D01*
D02*
X963Y1346D02*
X963Y1462D01*
D02*
X2188Y1437D02*
X2188Y1346D01*
D02*
X1063Y1346D02*
X1063Y1537D01*
D02*
X2288Y1437D02*
X2288Y1346D01*
D02*
X1163Y1346D02*
X1163Y1612D01*
D02*
X2388Y1437D02*
X2388Y1346D01*
D02*
X1263Y1346D02*
X1263Y1687D01*
D02*
X3013Y1437D02*
X3013Y1346D01*
D02*
X1363Y1346D02*
X1363Y1762D01*
D02*
X3113Y1437D02*
X3113Y1346D01*
D02*
X1463Y1346D02*
X1463Y1837D01*
D02*
X3213Y1437D02*
X3213Y1346D01*
D02*
X1563Y1346D02*
X1563Y1912D01*
D02*
X3313Y1437D02*
X3313Y1346D01*
D02*
X1663Y1346D02*
X1663Y1987D01*
D02*
X2522Y1311D02*
X2554Y1311D01*
D02*
X3447Y1311D02*
X3479Y1311D01*
D02*
X863Y1387D02*
X863Y1346D01*
D02*
X324Y861D02*
X364Y861D01*
D02*
X364Y1062D02*
X324Y1062D01*
D02*
X963Y1637D02*
X364Y1062D01*
D02*
X1139Y1637D02*
X963Y1637D01*
D02*
X939Y1713D02*
X364Y1161D01*
D02*
X364Y1161D02*
X324Y1161D01*
D02*
X1239Y1712D02*
X939Y1713D01*
D02*
X914Y1788D02*
X364Y1262D01*
D02*
X364Y1262D02*
X324Y1262D01*
D02*
X1339Y1787D02*
X914Y1788D01*
D02*
X888Y1860D02*
X364Y1360D01*
D02*
X364Y1360D02*
X324Y1361D01*
D02*
X1439Y1861D02*
X888Y1860D01*
D02*
X864Y1936D02*
X364Y1461D01*
D02*
X364Y1461D02*
X324Y1461D01*
D02*
X1539Y1936D02*
X864Y1936D01*
D02*
X838Y2011D02*
X364Y1562D01*
D02*
X364Y1562D02*
X324Y1562D01*
D02*
X1639Y2011D02*
X838Y2011D01*
G54D22*
D02*
X1888Y1412D02*
X1888Y1351D01*
D02*
X2012Y1586D02*
X1888Y1412D01*
D02*
X2813Y1586D02*
X2012Y1586D01*
D02*
X2813Y1351D02*
X2813Y1586D01*
D02*
X764Y1211D02*
X764Y1272D01*
D02*
X1762Y1211D02*
X764Y1211D01*
D02*
X1857Y1287D02*
X1762Y1211D01*
G54D21*
D02*
X2489Y661D02*
X2488Y977D01*
D02*
X2364Y511D02*
X2489Y661D01*
D02*
X2363Y305D02*
X2364Y511D01*
D02*
X287Y411D02*
X414Y411D01*
D02*
X287Y426D02*
X287Y411D01*
D02*
X2538Y1236D02*
X2538Y1311D01*
D02*
X2538Y1311D02*
X2522Y1311D01*
D02*
X2663Y1112D02*
X2538Y1236D01*
D02*
X2689Y1111D02*
X2663Y1112D01*
D02*
X463Y562D02*
X647Y768D01*
D02*
X124Y562D02*
X463Y562D01*
D02*
X3414Y1262D02*
X3364Y1213D01*
D02*
X3413Y1277D02*
X3414Y1262D01*
G54D20*
D02*
X2914Y1262D02*
X2913Y1277D01*
D02*
X2838Y1211D02*
X2914Y1262D01*
D02*
X2738Y1211D02*
X2838Y1211D01*
G54D21*
D02*
X1988Y1277D02*
X1988Y1236D01*
D02*
X512Y1086D02*
X644Y1196D01*
D02*
X512Y736D02*
X512Y1086D01*
D02*
X439Y661D02*
X512Y736D01*
D02*
X124Y661D02*
X439Y661D01*
D02*
X124Y761D02*
X364Y761D01*
D02*
X848Y892D02*
X538Y487D01*
D02*
X538Y487D02*
X538Y147D01*
D02*
X948Y817D02*
X638Y410D01*
D02*
X638Y410D02*
X638Y147D01*
D02*
X1048Y742D02*
X737Y361D01*
D02*
X737Y361D02*
X738Y147D01*
D02*
X838Y336D02*
X838Y147D01*
D02*
X1147Y669D02*
X838Y336D01*
D02*
X1239Y211D02*
X1238Y147D01*
D02*
X1439Y386D02*
X1239Y211D01*
D02*
X1539Y386D02*
X1439Y386D01*
D02*
X1414Y461D02*
X1439Y461D01*
D02*
X1139Y235D02*
X1414Y461D01*
D02*
X1139Y147D02*
X1139Y235D01*
D02*
X1038Y262D02*
X1344Y521D01*
D02*
X1038Y147D02*
X1038Y262D01*
D02*
X937Y287D02*
X1246Y594D01*
D02*
X938Y147D02*
X937Y287D01*
G54D22*
D02*
X3475Y1587D02*
X3597Y1587D01*
D02*
X3808Y1586D02*
X3668Y1586D01*
D02*
X3808Y1486D02*
X3668Y1486D01*
D02*
X3838Y1556D02*
X3838Y1517D01*
D02*
X3597Y1387D02*
X3588Y1387D01*
D02*
X3588Y1387D02*
X3469Y1466D01*
D02*
X3488Y1112D02*
X3506Y1039D01*
D02*
X3619Y1264D02*
X3488Y1112D01*
D02*
X3808Y1386D02*
X3668Y1386D01*
D02*
X3808Y1286D02*
X3668Y1286D01*
D02*
X3838Y1317D02*
X3838Y1356D01*
G04 End of Copper0*
M02*