; NON-PLATED HOLES START AT T1
; THROUGH (PLATED) HOLES START AT T100
M48
INCH
T1C0.118110
T100C0.015748
T101C0.031497
T102C0.035000
T103C0.038000
T104C0.030000
T105C0.003937
%
T1
X001382Y019864
X001381Y001365
X037632Y019864
X037632Y001364
T100
X004381Y004114
X027132Y012114
X021882Y014614
X015632Y003864
X031132Y014614
X012632Y006114
X011632Y016364
X031132Y008864
X014632Y004614
X030132Y014614
X023882Y006864
X010632Y007614
X030132Y008864
X012632Y017114
X009631Y014864
X023882Y014614
X032132Y008864
X008631Y014114
X015632Y019364
X006632Y007864
X003883Y008612
X016632Y020114
X014632Y018614
X022882Y014614
X008631Y009114
X020882Y009114
X021882Y008364
X010632Y015614
X032132Y014614
X019882Y012114
X033132Y014614
X013632Y005364
X034132Y008864
X003883Y009624
X011632Y006864
X020882Y014614
X013632Y017864
X033132Y008864
X022882Y007614
X003882Y006614
X027132Y011114
X009631Y008364
T101
X022881Y000880
X028382Y000880
X022881Y001864
X025632Y000880
X033881Y001877
X028382Y001864
X017382Y000864
X017382Y001849
X014632Y000880
X025632Y001864
X033881Y000893
X020131Y000880
X014632Y001864
X020131Y001864
X031131Y000880
X031131Y001864
T102
X018882Y010114
X019882Y013114
X033132Y013114
X011632Y010114
X025882Y010114
X020882Y010114
X021882Y013114
X023882Y010114
X011632Y013114
X022882Y013114
X034132Y013114
X022882Y010114
X021882Y010114
X035132Y013114
X033132Y010114
X014632Y013114
X016632Y010114
X032132Y013114
X008632Y010114
X008632Y013114
X016632Y013114
X029132Y010114
X025882Y013114
X028132Y010114
X013632Y013114
X012632Y010114
X023882Y013114
X015632Y013114
X013632Y010114
X009632Y010114
X019882Y010114
X015632Y010114
X029132Y013114
X034132Y010114
X030132Y013114
X028132Y013114
X032132Y010114
X024882Y013114
X012632Y013114
X009632Y013114
X031132Y013114
X010632Y013114
X024882Y010114
X007632Y010114
X014632Y010114
X035132Y010114
X030132Y010114
X010632Y010114
X020882Y013114
X007632Y013114
X031132Y010114
X018882Y013114
T103
X000882Y004614
X000882Y015614
X002882Y013614
X000882Y011614
X000882Y009614
X000882Y006614
X002882Y011614
X010382Y001114
X038382Y016864
X009382Y001114
X000882Y003614
X036382Y013864
X000882Y014614
X012382Y001114
X000882Y008614
X002882Y012614
X002882Y003614
X002882Y009614
X006382Y001114
X008382Y001114
X002882Y004614
X038382Y014864
X036382Y015864
X005382Y001114
X002882Y014614
X000882Y012614
X038382Y013864
X002882Y015614
X000882Y013614
X002882Y008614
X000882Y005614
X036382Y014864
X007382Y001114
X002882Y010614
X011382Y001114
X038382Y015864
X036382Y016864
X000882Y010614
T104
X034382Y015866
X034382Y014864
T105
X023632Y002864
T00
M30
