; NON-PLATED HOLES START AT T1
; THROUGH (PLATED) HOLES START AT T100
M48
INCH
T1C0.118110
T100C0.030000
T101C0.038000
T102C0.035000
T103C0.015748
%
T1
X001083Y001196
X001111Y038196
X038208Y038196
X038180Y001196
T100
X028027Y037670
X019027Y037720
X028027Y036668
X019027Y036718
T101
X001701Y030216
X015583Y031446
X020083Y026196
X034057Y022590
X033057Y014590
X001701Y007216
X032057Y006590
X001701Y026216
X003708Y000946
X001701Y010216
X034057Y018590
X015583Y030446
X014083Y026196
X020083Y025196
X035057Y010590
X034057Y002590
X031013Y030651
X001701Y006216
X001701Y025216
X036057Y014590
X035057Y006590
X031013Y026651
X014083Y025196
X020083Y024196
X001701Y005216
X034013Y030651
X001701Y024216
X014083Y024196
X020083Y023196
X034013Y026651
X001701Y004216
X001701Y023216
X020083Y019196
X032057Y022590
X031057Y014590
X003583Y038446
X014083Y023196
X020083Y022196
X001701Y019216
X032057Y018590
X033057Y010590
X032057Y002590
X001701Y022216
X014083Y019196
X020083Y018196
X035057Y022590
X034057Y014590
X033057Y006590
X014083Y022196
X020083Y021196
X001701Y018216
X004708Y000946
X035057Y018590
X001701Y021216
X014083Y018196
X020083Y017196
X014083Y029446
X036057Y010590
X035057Y002590
X032013Y030651
X014083Y021196
X020083Y020196
X001701Y017216
X036057Y006590
X032013Y026651
X001701Y020216
X014083Y017196
X020083Y016196
X017083Y029446
X035013Y030651
X014083Y020196
X001701Y016216
X014083Y031446
X001701Y035216
X035013Y026651
X014083Y016196
X020083Y015196
X031057Y010590
X033057Y022590
X001701Y015216
X014083Y030446
X032057Y014590
X031057Y006590
X001701Y034216
X004583Y038446
X017083Y031446
X014083Y015196
X020083Y014196
X033057Y018590
X034057Y010590
X033057Y002590
X001701Y014216
X001701Y033216
X017083Y030446
X036057Y022590
X035057Y014590
X034057Y006590
X014083Y014196
X020083Y013196
X001701Y029216
X036057Y018590
X001701Y013216
X036057Y002590
X033013Y030651
X001701Y032216
X014083Y013196
X001701Y009216
X033013Y026651
X001701Y028216
X015583Y029446
X001701Y012216
X001701Y031216
X031057Y022590
X036013Y030651
X001701Y008216
X001701Y027216
X031057Y018590
X036013Y026651
X001701Y011216
X032057Y010590
X031057Y002590
T102
X016027Y037718
X015027Y037718
X017027Y037718
X018027Y037718
X029072Y034690
X003583Y035321
X004583Y035321
X031072Y034690
X036072Y034690
X034072Y034690
X032072Y034690
X030072Y034690
X029072Y037690
X035072Y034690
X033072Y034690
X031072Y037690
X020023Y034691
X036072Y037690
X034072Y037690
X032072Y037690
X030072Y037690
X021023Y034691
X023023Y034691
X025023Y034691
X027023Y034691
X035072Y037690
X033072Y037690
X022023Y034691
X024023Y034691
X026023Y034691
X016027Y034718
X020023Y037691
X015027Y034718
X017027Y034718
X021023Y037691
X023023Y037691
X025023Y037691
X027023Y037691
X018027Y034718
X022023Y037691
X024023Y037691
X026023Y037691
T103
X007333Y037821
X005208Y017696
X023006Y001927
X033083Y017293
X010530Y034192
X026333Y033446
X011286Y009538
X023718Y025980
X022999Y017198
X011664Y031210
X012798Y020184
X024150Y026507
X023340Y025595
X010908Y010487
X005208Y024696
X010908Y033154
X023384Y002312
X022250Y005046
X022983Y025217
X021491Y005827
X025833Y006196
X005958Y000946
X011277Y020738
X021872Y013439
X024194Y018446
X025208Y005315
X005187Y032611
X010527Y022738
X012420Y021222
X025875Y033821
X011664Y008655
X038708Y018571
X021891Y008188
X023018Y014315
X030277Y003265
X026333Y015446
X024670Y027253
X036914Y012257
X038164Y021632
X036914Y004632
X004391Y030553
X016004Y036703
X022628Y020542
X005208Y025696
X012042Y007616
X010902Y021724
X025243Y029320
X022584Y028603
X007319Y035955
X030458Y007821
X038664Y010632
X037539Y006257
X010530Y011192
X022250Y013046
X025208Y006696
X012416Y018154
X006708Y011946
X021491Y013827
X025833Y014196
X005081Y010696
X033083Y001293
X021872Y021439
X012056Y022255
X012041Y018821
X011286Y016204
X029833Y006821
X006833Y036321
X023384Y017534
X038708Y026571
X019458Y030821
X024714Y019192
X037539Y012882
X010149Y019226
X025208Y013321
X030277Y011265
X012042Y014172
X030414Y031882
X005958Y004418
X026333Y023446
X036914Y020257
X012791Y017168
X020027Y036668
X012420Y006667
X012798Y028184
X021494Y008802
X006083Y017696
X027335Y032696
X033039Y025354
X007335Y019696
X030458Y015821
X006083Y009821
X023762Y009919
X022250Y021047
X012798Y005739
X004391Y006553
X026335Y007442
X019583Y029946
X032456Y027993
X021491Y021827
X025208Y014446
X010530Y018192
X010908Y025237
X011664Y015210
X024194Y010557
X025833Y022071
X012420Y029223
X024696Y003748
X029833Y014821
X010908Y017154
X006145Y033911
X022635Y012549
X010149Y011670
X037539Y020882
X010149Y027226
X025208Y021321
X023779Y015712
X006847Y027196
X026833Y033071
X024177Y003865
X006083Y025696
X010152Y023752
X023745Y002680
X011666Y019696
X030458Y023821
X023383Y015188
X023762Y017919
X005083Y008696
X021447Y029888
X004391Y014553
X022628Y004542
X038664Y005076
X030233Y027326
X024192Y016505
X033083Y009293
X025833Y030196
X010530Y026192
X023405Y009409
X011664Y023210
X012798Y012184
X025208Y022321
X011286Y032204
X005208Y016696
X029833Y022821
X022264Y007457
X038164Y007965
X011286Y024246
X018958Y034946
X008467Y036585
X021828Y029500
X030277Y019265
X010149Y035226
X022993Y009168
X021872Y005439
X012042Y030172
X012420Y013222
X030433Y036489
X024714Y011192
X029789Y030882
X038164Y013632
X022206Y029107
X004391Y022553
T00
M30
