G04 MADE WITH FRITZING*
G04 WWW.FRITZING.ORG*
G04 DOUBLE SIDED*
G04 HOLES PLATED*
G04 CONTOUR ON CENTER OF CONTOUR VECTOR*
%ASAXBY*%
%FSLAX23Y23*%
%MOIN*%
%OFA0B0*%
%SFA1.0B1.0*%
%ADD10C,0.049370*%
%ADD11C,0.088000*%
%ADD12C,0.085000*%
%ADD13C,0.128110*%
%ADD14C,0.080000*%
%ADD15R,0.085000X0.085000*%
%LNMASK0*%
G90*
G70*
G54D10*
X2588Y3382D03*
X2633Y3345D03*
X2633Y2345D03*
X2521Y2232D03*
X2683Y3307D03*
X2633Y1545D03*
X2521Y1445D03*
X2734Y3270D03*
X2634Y744D03*
X2521Y532D03*
X733Y3782D03*
X685Y2720D03*
X521Y2570D03*
X683Y3632D03*
X732Y3596D03*
X734Y1970D03*
X521Y1770D03*
X847Y3659D03*
X671Y1195D03*
X508Y1070D03*
G54D11*
X1708Y3145D03*
X1708Y3045D03*
X1708Y2945D03*
X1558Y3145D03*
X1558Y3045D03*
X1558Y2945D03*
X1408Y3145D03*
X1408Y3045D03*
X1408Y2945D03*
G54D10*
X2149Y880D03*
X2189Y819D03*
X2226Y746D03*
X2302Y1432D03*
X2338Y1519D03*
X2378Y1571D03*
X2419Y1651D03*
X1958Y2995D03*
X1946Y3082D03*
X1896Y3495D03*
G54D12*
X358Y3532D03*
X458Y3532D03*
G54D11*
X358Y3845D03*
X458Y3845D03*
X371Y95D03*
X471Y95D03*
G54D10*
X596Y442D03*
X596Y95D03*
X1279Y1717D03*
X1242Y1815D03*
X1204Y1882D03*
X1167Y1970D03*
X1128Y2074D03*
X1090Y2172D03*
X1053Y2274D03*
X1015Y2375D03*
X2983Y682D03*
X2983Y1482D03*
X2983Y2282D03*
X2979Y3088D03*
X3046Y782D03*
X3046Y1582D03*
X3046Y2382D03*
X3041Y3188D03*
X3028Y327D03*
X3028Y1127D03*
X3028Y1927D03*
X3023Y2733D03*
X3691Y463D03*
X3691Y1226D03*
X3691Y2026D03*
X3816Y797D03*
X3816Y1363D03*
X3816Y2163D03*
X3754Y626D03*
X3754Y1288D03*
X3754Y2088D03*
X3246Y2799D03*
X3308Y129D03*
X3308Y929D03*
X3308Y1729D03*
X3304Y2535D03*
X3866Y508D03*
X3866Y1063D03*
X3871Y1857D03*
X3871Y2657D03*
X1600Y3670D03*
X3043Y3649D03*
G54D11*
X170Y1122D03*
X170Y1022D03*
X170Y922D03*
X170Y822D03*
X170Y722D03*
X170Y622D03*
X170Y522D03*
X170Y422D03*
X170Y1922D03*
X170Y1822D03*
X170Y1722D03*
X170Y1622D03*
X170Y1522D03*
X170Y1422D03*
X170Y1322D03*
X170Y1222D03*
X170Y2722D03*
X170Y2622D03*
X170Y2522D03*
X170Y2422D03*
X170Y2322D03*
X170Y2222D03*
X170Y2122D03*
X170Y2022D03*
X170Y3522D03*
X170Y3422D03*
X170Y3322D03*
X170Y3222D03*
X170Y3122D03*
X170Y3022D03*
X170Y2922D03*
X170Y2822D03*
G54D10*
X2521Y670D03*
X2521Y1332D03*
X2521Y2132D03*
X2524Y2932D03*
X508Y870D03*
X521Y1670D03*
X521Y2470D03*
X519Y3261D03*
X2583Y620D03*
X2583Y1420D03*
X2583Y2207D03*
X2583Y3020D03*
X608Y982D03*
X608Y1770D03*
X608Y2570D03*
X615Y3391D03*
X2470Y375D03*
X2471Y1119D03*
X2471Y1919D03*
X2467Y2725D03*
X439Y655D03*
X439Y1455D03*
X439Y2255D03*
X439Y3055D03*
X2225Y505D03*
X2225Y1305D03*
X2225Y2105D03*
X2221Y2911D03*
X1091Y1049D03*
X1091Y1715D03*
X1091Y2524D03*
X1091Y3315D03*
X2418Y387D03*
X2419Y1056D03*
X2419Y1845D03*
X2415Y2651D03*
X1280Y574D03*
X1280Y1218D03*
X1280Y2018D03*
X1280Y2818D03*
X2263Y454D03*
X2264Y1255D03*
X2263Y2054D03*
X2258Y2860D03*
X1129Y954D03*
X1129Y1620D03*
X1129Y2425D03*
X1129Y3220D03*
X2301Y193D03*
X2299Y917D03*
X2300Y1720D03*
X2298Y2522D03*
X1166Y866D03*
X1166Y1521D03*
X1166Y2321D03*
X1166Y3121D03*
X2149Y583D03*
X2149Y1383D03*
X2149Y2183D03*
X2145Y2989D03*
X1015Y1167D03*
X1015Y1923D03*
X1015Y2723D03*
X1015Y3523D03*
X2338Y231D03*
X2341Y941D03*
X2338Y1753D03*
X2334Y2560D03*
X1204Y762D03*
X1204Y1417D03*
X1206Y2226D03*
X1204Y3017D03*
X2375Y268D03*
X2376Y992D03*
X2376Y1792D03*
X2372Y2598D03*
X1242Y667D03*
X1242Y1322D03*
X1242Y2122D03*
X1242Y2922D03*
X2187Y544D03*
X2187Y1344D03*
X2187Y2144D03*
X2183Y2950D03*
X1053Y1119D03*
X1053Y1819D03*
X1053Y2619D03*
X1053Y3419D03*
G54D13*
X3818Y120D03*
X108Y120D03*
X3821Y3820D03*
X111Y3820D03*
G54D12*
X1803Y3772D03*
X1803Y3472D03*
X1703Y3772D03*
X1703Y3472D03*
X1603Y3772D03*
X1603Y3472D03*
X1503Y3772D03*
X1503Y3472D03*
X2907Y3469D03*
X2907Y3769D03*
X3007Y3469D03*
X3007Y3769D03*
X3107Y3469D03*
X3107Y3769D03*
X3207Y3469D03*
X3207Y3769D03*
X3307Y3469D03*
X3307Y3769D03*
X3407Y3469D03*
X3407Y3769D03*
X3507Y3469D03*
X3507Y3769D03*
X3607Y3469D03*
X3607Y3769D03*
X2702Y3769D03*
X2702Y3469D03*
X2602Y3769D03*
X2602Y3469D03*
X2502Y3769D03*
X2502Y3469D03*
X2402Y3769D03*
X2402Y3469D03*
X2302Y3769D03*
X2302Y3469D03*
X2202Y3769D03*
X2202Y3469D03*
X2102Y3769D03*
X2102Y3469D03*
X2002Y3769D03*
X2002Y3469D03*
G54D14*
X2803Y3667D03*
X2803Y3767D03*
X1903Y3672D03*
X1903Y3772D03*
G54D10*
X2003Y3667D03*
G54D11*
X3106Y259D03*
X3206Y259D03*
X3306Y259D03*
X3406Y259D03*
X3506Y259D03*
X3606Y259D03*
X3106Y1059D03*
X3206Y1059D03*
X3306Y1059D03*
X3406Y1059D03*
X3506Y1059D03*
X3606Y1059D03*
X3106Y1859D03*
X3206Y1859D03*
X3306Y1859D03*
X3406Y1859D03*
X3506Y1859D03*
X3606Y1859D03*
X3101Y2665D03*
X3201Y2665D03*
X3301Y2665D03*
X3401Y2665D03*
X3501Y2665D03*
X3601Y2665D03*
X3106Y659D03*
X3206Y659D03*
X3306Y659D03*
X3406Y659D03*
X3506Y659D03*
X3606Y659D03*
X3106Y1459D03*
X3206Y1459D03*
X3306Y1459D03*
X3406Y1459D03*
X3506Y1459D03*
X3606Y1459D03*
X3106Y2259D03*
X3206Y2259D03*
X3306Y2259D03*
X3406Y2259D03*
X3506Y2259D03*
X3606Y2259D03*
X3101Y3065D03*
X3201Y3065D03*
X3301Y3065D03*
X3401Y3065D03*
X3501Y3065D03*
X3601Y3065D03*
X2008Y2620D03*
X2008Y2520D03*
X2008Y2420D03*
X2008Y2320D03*
X2008Y2220D03*
X2008Y2120D03*
X2008Y2020D03*
X2008Y1920D03*
X2008Y1820D03*
X2008Y1720D03*
X2008Y1620D03*
X2008Y1520D03*
X2008Y1420D03*
X2008Y1320D03*
X1408Y2620D03*
X1408Y2520D03*
X1408Y2420D03*
X1408Y2320D03*
X1408Y2220D03*
X1408Y2120D03*
X1408Y2020D03*
X1408Y1920D03*
X1408Y1820D03*
X1408Y1720D03*
X1408Y1620D03*
X1408Y1520D03*
X1408Y1420D03*
X1408Y1320D03*
G54D15*
X358Y3532D03*
X1803Y3772D03*
X2907Y3469D03*
X2702Y3769D03*
G04 End of Mask0*
M02*