<?xml version="1.0" encoding="UTF-8" standalone="no"?>
<!-- Created with Inkscape (http://www.inkscape.org/) -->

<svg
   xmlns:dc="http://purl.org/dc/elements/1.1/"
   xmlns:cc="http://creativecommons.org/ns#"
   xmlns:rdf="http://www.w3.org/1999/02/22-rdf-syntax-ns#"
   xmlns:svg="http://www.w3.org/2000/svg"
   xmlns="http://www.w3.org/2000/svg"
   xmlns:sodipodi="http://sodipodi.sourceforge.net/DTD/sodipodi-0.dtd"
   xmlns:inkscape="http://www.inkscape.org/namespaces/inkscape"
   width="122.53762mm"
   height="54.942261mm"
   viewBox="0 0 122.53762 54.942261"
   version="1.1"
   id="svg843"
   inkscape:version="0.92.4 (unknown)"
   sodipodi:docname="cnc.svg">
  <defs
     id="defs837" />
  <sodipodi:namedview
     id="base"
     pagecolor="#ffffff"
     bordercolor="#666666"
     borderopacity="1.0"
     inkscape:pageopacity="0.0"
     inkscape:pageshadow="2"
     inkscape:zoom="0.35"
     inkscape:cx="-182.85714"
     inkscape:cy="560"
     inkscape:document-units="mm"
     inkscape:current-layer="layer1"
     showgrid="false"
     fit-margin-top="0"
     fit-margin-left="0"
     fit-margin-right="0"
     fit-margin-bottom="0"
     inkscape:window-width="1920"
     inkscape:window-height="1103"
     inkscape:window-x="0"
     inkscape:window-y="27"
     inkscape:window-maximized="1" />
  <metadata
     id="metadata840">
    <rdf:RDF>
      <cc:Work
         rdf:about="">
        <dc:format>image/svg+xml</dc:format>
        <dc:type
           rdf:resource="http://purl.org/dc/dcmitype/StillImage" />
        <dc:title></dc:title>
      </cc:Work>
    </rdf:RDF>
  </metadata>
  <g
     inkscape:label="Layer 1"
     inkscape:groupmode="layer"
     id="layer1"
     transform="translate(0,-242.05774)">
    <path
       style="display:inline;fill:#000000;stroke:#000000;stroke-width:0.95400065"
       d="m 3.0435304,243.53826 a 1.5999952,1.5999952 0 0 0 -1.5999021,1.5999 1.5999952,1.5999952 0 0 0 1.5999021,1.5999 1.5999952,1.5999952 0 0 0 1.5999023,-1.5999 1.5999952,1.5999952 0 0 0 -1.5999023,-1.5999 z m 116.2047896,0 a 1.5999952,1.5999952 0 0 0 -1.5999,1.5999 1.5999952,1.5999952 0 0 0 1.5999,1.5999 1.5999952,1.5999952 0 0 0 1.59991,-1.5999 1.5999952,1.5999952 0 0 0 -1.59991,-1.5999 z m -5.3e-4,5.9433 a 0.73659831,0.73659831 0 0 0 -0.73639,0.73639 0.73659831,0.73659831 0 0 0 0.73639,0.73691 0.73659831,0.73659831 0 0 0 0.73691,-0.73691 0.73659831,0.73659831 0 0 0 -0.73691,-0.73639 z m -4.39766,0.84801 a 0.49999784,0.49999784 0 0 0 -0.50023,0.50023 0.49999784,0.49999784 0 0 0 0.50023,0.49971 0.49999784,0.49999784 0 0 0 0.50023,-0.49971 0.49999784,0.49999784 0 0 0 -0.50023,-0.50023 z m -105.4571163,0.0238 a 0.49999784,0.49999784 0 0 0 -0.4997112,0.49972 0.49999784,0.49999784 0 0 0 0.4997112,0.50022 0.49999784,0.49999784 0 0 0 0.5002278,-0.50022 0.49999784,0.49999784 0 0 0 -0.5002278,-0.49972 z m 22.8601023,0 a 0.49999784,0.49999784 0 0 0 -0.499711,0.49972 0.49999784,0.49999784 0 0 0 0.499711,0.50022 0.49999784,0.49999784 0 0 0 0.500229,-0.50022 0.49999784,0.49999784 0 0 0 -0.500229,-0.49972 z m 22.860103,0 a 0.49999784,0.49999784 0 0 0 -0.500227,0.49972 0.49999784,0.49999784 0 0 0 0.500227,0.50022 0.49999784,0.49999784 0 0 0 0.499711,-0.50022 0.49999784,0.49999784 0 0 0 -0.499711,-0.49972 z m 22.859587,0 a 0.49999784,0.49999784 0 0 0 -0.49971,0.49972 0.49999784,0.49999784 0 0 0 0.49971,0.50022 0.49999784,0.49999784 0 0 0 0.500227,-0.50022 0.49999784,0.49999784 0 0 0 -0.500227,-0.49972 z m 17.78031,0 a 0.49999784,0.49999784 0 0 0 -0.500227,0.49972 0.49999784,0.49999784 0 0 0 0.500227,0.50022 0.49999784,0.49999784 0 0 0 0.49971,-0.50022 0.49999784,0.49999784 0 0 0 -0.49971,-0.49972 z m -68.579794,0.014 a 0.49999784,0.49999784 0 0 0 -0.500226,0.49971 0.49999784,0.49999784 0 0 0 0.500226,0.50022 0.49999784,0.49999784 0 0 0 0.499711,-0.50022 0.49999784,0.49999784 0 0 0 -0.499711,-0.49971 z m 22.859587,0 a 0.49999784,0.49999784 0 0 0 -0.49971,0.49971 0.49999784,0.49999784 0 0 0 0.49971,0.50022 0.49999784,0.49999784 0 0 0 0.50023,-0.50022 0.49999784,0.49999784 0 0 0 -0.50023,-0.49971 z m 22.860104,0 a 0.49999784,0.49999784 0 0 0 -0.500227,0.49971 0.49999784,0.49999784 0 0 0 0.500227,0.50022 0.49999784,0.49999784 0 0 0 0.49971,-0.50022 0.49999784,0.49999784 0 0 0 -0.49971,-0.49971 z m 27.939897,0 a 0.49999784,0.49999784 0 0 0 -0.50023,0.49971 0.49999784,0.49999784 0 0 0 0.50023,0.50022 0.49999784,0.49999784 0 0 0 0.50023,-0.50022 0.49999784,0.49999784 0 0 0 -0.50023,-0.49971 z m 18.4149,1.65416 a 0.73659831,0.73659831 0 0 0 -0.73639,0.73691 0.73659831,0.73659831 0 0 0 0.73639,0.73639 0.73659831,0.73659831 0 0 0 0.7369,-0.73639 0.73659831,0.73659831 0 0 0 -0.7369,-0.73691 z m -94.614383,0.0971 a 0.63499852,0.63499852 0 0 0 -0.635103,0.63459 0.63499852,0.63499852 0 0 0 0.635103,0.6351 0.63499852,0.63499852 0 0 0 0.635103,-0.6351 0.63499852,0.63499852 0 0 0 -0.635103,-0.63459 z m 22.859586,0 a 0.63499852,0.63499852 0 0 0 -0.634588,0.63459 0.63499852,0.63499852 0 0 0 0.634588,0.6351 0.63499852,0.63499852 0 0 0 0.635103,-0.6351 0.63499852,0.63499852 0 0 0 -0.635103,-0.63459 z m 22.860103,0 a 0.63499852,0.63499852 0 0 0 -0.635103,0.63459 0.63499852,0.63499852 0 0 0 0.635103,0.6351 0.63499852,0.63499852 0 0 0 0.635103,-0.6351 0.63499852,0.63499852 0 0 0 -0.635103,-0.63459 z m 22.860103,0 a 0.63499852,0.63499852 0 0 0 -0.635103,0.63459 0.63499852,0.63499852 0 0 0 0.635103,0.6351 0.63499852,0.63499852 0 0 0 0.635103,-0.6351 0.63499852,0.63499852 0 0 0 -0.635103,-0.63459 z M 4.3132203,252.6948 a 0.69849836,0.69849836 0 0 0 -0.6981484,0.69815 0.69849836,0.69849836 0 0 0 0.6981484,0.69867 0.69849836,0.69849836 0 0 0 0.6986656,-0.69867 0.69849836,0.69849836 0 0 0 -0.6986656,-0.69815 z m 2.5398968,0 a 0.69849836,0.69849836 0 0 0 -0.6981486,0.69815 0.69849836,0.69849836 0 0 0 0.6981486,0.69867 0.69849836,0.69849836 0 0 0 0.6986654,-0.69867 0.69849836,0.69849836 0 0 0 -0.6986654,-0.69815 z m 2.5404133,0 a 0.69849836,0.69849836 0 0 0 -0.6986654,0.69815 0.69849836,0.69849836 0 0 0 0.6986654,0.69867 0.69849836,0.69849836 0 0 0 0.6981486,-0.69867 0.69849836,0.69849836 0 0 0 -0.6981486,-0.69815 z m 2.5398966,0 a 0.69849836,0.69849836 0 0 0 -0.698665,0.69815 0.69849836,0.69849836 0 0 0 0.698665,0.69867 0.69849836,0.69849836 0 0 0 0.698149,-0.69867 0.69849836,0.69849836 0 0 0 -0.698149,-0.69815 z m 2.539897,0 a 0.69849836,0.69849836 0 0 0 -0.698666,0.69815 0.69849836,0.69849836 0 0 0 0.698666,0.69867 0.69849836,0.69849836 0 0 0 0.698665,-0.69867 0.69849836,0.69849836 0 0 0 -0.698665,-0.69815 z m 2.539896,0 a 0.69849836,0.69849836 0 0 0 -0.698665,0.69815 0.69849836,0.69849836 0 0 0 0.698665,0.69867 0.69849836,0.69849836 0 0 0 0.698666,-0.69867 0.69849836,0.69849836 0 0 0 -0.698666,-0.69815 z m 2.539897,0 a 0.69849836,0.69849836 0 0 0 -0.698149,0.69815 0.69849836,0.69849836 0 0 0 0.698149,0.69867 0.69849836,0.69849836 0 0 0 0.698665,-0.69867 0.69849836,0.69849836 0 0 0 -0.698665,-0.69815 z m 1.841748,0 v 1.39682 h 1.396814 v -1.39682 z m 5.778457,0 a 0.69849836,0.69849836 0 0 0 -0.698664,0.69815 0.69849836,0.69849836 0 0 0 0.698664,0.69867 0.69849836,0.69849836 0 0 0 0.698667,-0.69867 0.69849836,0.69849836 0 0 0 -0.698667,-0.69815 z m 2.539897,0 a 0.69849836,0.69849836 0 0 0 -0.698664,0.69815 0.69849836,0.69849836 0 0 0 0.698664,0.69867 0.69849836,0.69849836 0 0 0 0.698667,-0.69867 0.69849836,0.69849836 0 0 0 -0.698667,-0.69815 z m 2.539897,0 a 0.69849836,0.69849836 0 0 0 -0.698148,0.69815 0.69849836,0.69849836 0 0 0 0.698148,0.69867 0.69849836,0.69849836 0 0 0 0.698666,-0.69867 0.69849836,0.69849836 0 0 0 -0.698666,-0.69815 z m 2.539897,0 a 0.69849836,0.69849836 0 0 0 -0.698149,0.69815 0.69849836,0.69849836 0 0 0 0.698149,0.69867 0.69849836,0.69849836 0 0 0 0.698666,-0.69867 0.69849836,0.69849836 0 0 0 -0.698666,-0.69815 z m 2.540412,0 a 0.69849836,0.69849836 0 0 0 -0.698664,0.69815 0.69849836,0.69849836 0 0 0 0.698664,0.69867 0.69849836,0.69849836 0 0 0 0.698151,-0.69867 0.69849836,0.69849836 0 0 0 -0.698151,-0.69815 z m 2.539897,0 a 0.69849836,0.69849836 0 0 0 -0.698664,0.69815 0.69849836,0.69849836 0 0 0 0.698664,0.69867 0.69849836,0.69849836 0 0 0 0.698667,-0.69867 0.69849836,0.69849836 0 0 0 -0.698667,-0.69815 z m 2.539897,0 a 0.69849836,0.69849836 0 0 0 -0.698664,0.69815 0.69849836,0.69849836 0 0 0 0.698664,0.69867 0.69849836,0.69849836 0 0 0 0.698667,-0.69867 0.69849836,0.69849836 0 0 0 -0.698667,-0.69815 z m 1.841749,0 v 1.39682 h 1.396814 v -1.39682 z m 5.778457,0 a 0.69849836,0.69849836 0 0 0 -0.698664,0.69815 0.69849836,0.69849836 0 0 0 0.698664,0.69867 0.69849836,0.69849836 0 0 0 0.698151,-0.69867 0.69849836,0.69849836 0 0 0 -0.698151,-0.69815 z m 2.539897,0 a 0.69849836,0.69849836 0 0 0 -0.698664,0.69815 0.69849836,0.69849836 0 0 0 0.698664,0.69867 0.69849836,0.69849836 0 0 0 0.698148,-0.69867 0.69849836,0.69849836 0 0 0 -0.698148,-0.69815 z m 2.539897,0 a 0.69849836,0.69849836 0 0 0 -0.698664,0.69815 0.69849836,0.69849836 0 0 0 0.698664,0.69867 0.69849836,0.69849836 0 0 0 0.698667,-0.69867 0.69849836,0.69849836 0 0 0 -0.698667,-0.69815 z m 2.539897,0 a 0.69849836,0.69849836 0 0 0 -0.698664,0.69815 0.69849836,0.69849836 0 0 0 0.698664,0.69867 0.69849836,0.69849836 0 0 0 0.698666,-0.69867 0.69849836,0.69849836 0 0 0 -0.698666,-0.69815 z m 2.539897,0 a 0.69849836,0.69849836 0 0 0 -0.698148,0.69815 0.69849836,0.69849836 0 0 0 0.698148,0.69867 0.69849836,0.69849836 0 0 0 0.698666,-0.69867 0.69849836,0.69849836 0 0 0 -0.698666,-0.69815 z m 2.540412,0 a 0.69849836,0.69849836 0 0 0 -0.698664,0.69815 0.69849836,0.69849836 0 0 0 0.698664,0.69867 0.69849836,0.69849836 0 0 0 0.698151,-0.69867 0.69849836,0.69849836 0 0 0 -0.698151,-0.69815 z m 2.539897,0 a 0.69849836,0.69849836 0 0 0 -0.698664,0.69815 0.69849836,0.69849836 0 0 0 0.698664,0.69867 0.69849836,0.69849836 0 0 0 0.698148,-0.69867 0.69849836,0.69849836 0 0 0 -0.698148,-0.69815 z m 1.841233,0 v 1.39682 h 1.397331 v -1.39682 z m 5.778458,0 a 0.69849836,0.69849836 0 0 0 -0.698148,0.69815 0.69849836,0.69849836 0 0 0 0.698148,0.69867 0.69849836,0.69849836 0 0 0 0.698666,-0.69867 0.69849836,0.69849836 0 0 0 -0.698666,-0.69815 z m 2.539896,0 a 0.69849836,0.69849836 0 0 0 -0.698148,0.69815 0.69849836,0.69849836 0 0 0 0.698148,0.69867 0.69849836,0.69849836 0 0 0 0.698667,-0.69867 0.69849836,0.69849836 0 0 0 -0.698667,-0.69815 z m 2.540413,0 a 0.69849836,0.69849836 0 0 0 -0.698664,0.69815 0.69849836,0.69849836 0 0 0 0.698664,0.69867 0.69849836,0.69849836 0 0 0 0.698148,-0.69867 0.69849836,0.69849836 0 0 0 -0.698148,-0.69815 z m 2.539897,0 a 0.69849836,0.69849836 0 0 0 -0.698664,0.69815 0.69849836,0.69849836 0 0 0 0.698664,0.69867 0.69849836,0.69849836 0 0 0 0.698667,-0.69867 0.69849836,0.69849836 0 0 0 -0.698667,-0.69815 z m 2.539897,0 a 0.69849836,0.69849836 0 0 0 -0.698664,0.69815 0.69849836,0.69849836 0 0 0 0.698664,0.69867 0.69849836,0.69849836 0 0 0 0.698666,-0.69867 0.69849836,0.69849836 0 0 0 -0.698666,-0.69815 z m 2.539897,0 a 0.69849836,0.69849836 0 0 0 -0.698149,0.69815 0.69849836,0.69849836 0 0 0 0.698149,0.69867 0.69849836,0.69849836 0 0 0 0.698666,-0.69867 0.69849836,0.69849836 0 0 0 -0.698666,-0.69815 z m 2.539896,0 a 0.69849836,0.69849836 0 0 0 -0.698148,0.69815 0.69849836,0.69849836 0 0 0 0.698148,0.69867 0.69849836,0.69849836 0 0 0 0.698667,-0.69867 0.69849836,0.69849836 0 0 0 -0.698667,-0.69815 z m 1.841749,0 v 1.39682 h 1.396812 v -1.39682 z m 5.778458,0 a 0.69849836,0.69849836 0 0 0 -0.698664,0.69815 0.69849836,0.69849836 0 0 0 0.698664,0.69867 0.69849836,0.69849836 0 0 0 0.698666,-0.69867 0.69849836,0.69849836 0 0 0 -0.698666,-0.69815 z m 2.539897,0 a 0.69849836,0.69849836 0 0 0 -0.698149,0.69815 0.69849836,0.69849836 0 0 0 0.698149,0.69867 0.69849836,0.69849836 0 0 0 0.698666,-0.69867 0.69849836,0.69849836 0 0 0 -0.698666,-0.69815 z m 2.539897,0 a 0.69849836,0.69849836 0 0 0 -0.69815,0.69815 0.69849836,0.69849836 0 0 0 0.69815,0.69867 0.69849836,0.69849836 0 0 0 0.69867,-0.69867 0.69849836,0.69849836 0 0 0 -0.69867,-0.69815 z m 2.54041,0 a 0.69849836,0.69849836 0 0 0 -0.69866,0.69815 0.69849836,0.69849836 0 0 0 0.69866,0.69867 0.69849836,0.69849836 0 0 0 0.69815,-0.69867 0.69849836,0.69849836 0 0 0 -0.69815,-0.69815 z m 2.5399,0 a 0.69849836,0.69849836 0 0 0 -0.69867,0.69815 0.69849836,0.69849836 0 0 0 0.69867,0.69867 0.69849836,0.69849836 0 0 0 0.69815,-0.69867 0.69849836,0.69849836 0 0 0 -0.69815,-0.69815 z m 2.5399,0 a 0.69849836,0.69849836 0 0 0 -0.69867,0.69815 0.69849836,0.69849836 0 0 0 0.69867,0.69867 0.69849836,0.69849836 0 0 0 0.69866,-0.69867 0.69849836,0.69849836 0 0 0 -0.69866,-0.69815 z m 2.53989,0 a 0.69849836,0.69849836 0 0 0 -0.69866,0.69815 0.69849836,0.69849836 0 0 0 0.69866,0.69867 0.69849836,0.69849836 0 0 0 0.69867,-0.69867 0.69849836,0.69849836 0 0 0 -0.69867,-0.69815 z m 1.84175,0 v 1.39682 h 1.39682 v -1.39682 z m 6.41305,1.86656 a 0.73659831,0.73659831 0 0 0 -0.73639,0.7369 0.73659831,0.73659831 0 0 0 0.73639,0.73639 0.73659831,0.73659831 0 0 0 0.7369,-0.73639 0.73659831,0.73659831 0 0 0 -0.7369,-0.7369 z m -94.614383,0.1018 a 0.63499852,0.63499852 0 0 0 -0.635103,0.6351 0.63499852,0.63499852 0 0 0 0.635103,0.63511 0.63499852,0.63499852 0 0 0 0.635103,-0.63511 0.63499852,0.63499852 0 0 0 -0.635103,-0.6351 z m 22.859586,0 a 0.63499852,0.63499852 0 0 0 -0.634588,0.6351 0.63499852,0.63499852 0 0 0 0.634588,0.63511 0.63499852,0.63499852 0 0 0 0.635103,-0.63511 0.63499852,0.63499852 0 0 0 -0.635103,-0.6351 z m 22.860103,0 a 0.63499852,0.63499852 0 0 0 -0.635103,0.6351 0.63499852,0.63499852 0 0 0 0.635103,0.63511 0.63499852,0.63499852 0 0 0 0.635103,-0.63511 0.63499852,0.63499852 0 0 0 -0.635103,-0.6351 z m 22.860103,0 a 0.63499852,0.63499852 0 0 0 -0.635103,0.6351 0.63499852,0.63499852 0 0 0 0.635103,0.63511 0.63499852,0.63499852 0 0 0 0.635103,-0.63511 0.63499852,0.63499852 0 0 0 -0.635103,-0.6351 z m -50.165413,1.40508 a 0.49999784,0.49999784 0 0 0 -0.49971,0.49971 0.49999784,0.49999784 0 0 0 0.49971,0.50023 0.49999784,0.49999784 0 0 0 0.500227,-0.50023 0.49999784,0.49999784 0 0 0 -0.500227,-0.49971 z m 22.860103,0 a 0.49999784,0.49999784 0 0 0 -0.49971,0.49971 0.49999784,0.49999784 0 0 0 0.49971,0.50023 0.49999784,0.49999784 0 0 0 0.50023,-0.50023 0.49999784,0.49999784 0 0 0 -0.50023,-0.49971 z m 22.860104,0 a 0.49999784,0.49999784 0 0 0 -0.500227,0.49971 0.49999784,0.49999784 0 0 0 0.500227,0.50023 0.49999784,0.49999784 0 0 0 0.49971,-0.50023 0.49999784,0.49999784 0 0 0 -0.49971,-0.49971 z m -81.9148959,0.63511 a 0.49999784,0.49999784 0 0 0 -0.4997111,0.49971 0.49999784,0.49999784 0 0 0 0.4997111,0.50022 0.49999784,0.49999784 0 0 0 0.5002279,-0.50022 0.49999784,0.49999784 0 0 0 -0.5002279,-0.49971 z m 33.6547919,0 a 0.49999784,0.49999784 0 0 0 -0.49971,0.49971 0.49999784,0.49999784 0 0 0 0.49971,0.50022 0.49999784,0.49999784 0 0 0 0.50023,-0.50022 0.49999784,0.49999784 0 0 0 -0.50023,-0.49971 z m 22.860104,0 a 0.49999784,0.49999784 0 0 0 -0.500227,0.49971 0.49999784,0.49999784 0 0 0 0.500227,0.50022 0.49999784,0.49999784 0 0 0 0.500229,-0.50022 0.49999784,0.49999784 0 0 0 -0.500229,-0.49971 z m 22.860103,0 a 0.49999784,0.49999784 0 0 0 -0.500227,0.49971 0.49999784,0.49999784 0 0 0 0.500227,0.50022 0.49999784,0.49999784 0 0 0 0.49971,-0.50022 0.49999784,0.49999784 0 0 0 -0.49971,-0.49971 z m 33.019694,0.39842 a 0.73659831,0.73659831 0 0 0 -0.73639,0.73639 0.73659831,0.73659831 0 0 0 0.73639,0.73639 0.73659831,0.73659831 0 0 0 0.7369,-0.73639 0.73659831,0.73659831 0 0 0 -0.7369,-0.73639 z m -8.2548,0.87127 a 0.49999784,0.49999784 0 0 0 -0.50022,0.50022 0.49999784,0.49999784 0 0 0 0.50022,0.49971 0.49999784,0.49999784 0 0 0 0.49971,-0.49971 0.49999784,0.49999784 0 0 0 -0.49971,-0.50022 z m -86.359583,0.6351 a 0.49999784,0.49999784 0 0 0 -0.500228,0.50023 0.49999784,0.49999784 0 0 0 0.500228,0.49971 0.49999784,0.49999784 0 0 0 0.499711,-0.49971 0.49999784,0.49999784 0 0 0 -0.499711,-0.50023 z m 22.859586,0 a 0.49999784,0.49999784 0 0 0 -0.500227,0.50023 0.49999784,0.49999784 0 0 0 0.500227,0.49971 0.49999784,0.49999784 0 0 0 0.500229,-0.49971 0.49999784,0.49999784 0 0 0 -0.500229,-0.50023 z m 22.860103,0 a 0.49999784,0.49999784 0 0 0 -0.500227,0.50023 0.49999784,0.49999784 0 0 0 0.500227,0.49971 0.49999784,0.49999784 0 0 0 0.49971,-0.49971 0.49999784,0.49999784 0 0 0 -0.49971,-0.50023 z m 22.859587,0 a 0.49999784,0.49999784 0 0 0 -0.499711,0.50023 0.49999784,0.49999784 0 0 0 0.499711,0.49971 0.49999784,0.49999784 0 0 0 0.500227,-0.49971 0.49999784,0.49999784 0 0 0 -0.500227,-0.50023 z m 26.035107,1.03353 a 0.73659831,0.73659831 0 0 0 -0.73639,0.73639 0.73659831,0.73659831 0 0 0 0.73639,0.7369 0.73659831,0.73659831 0 0 0 0.7369,-0.7369 0.73659831,0.73659831 0 0 0 -0.7369,-0.73639 z M 4.3132203,260.31449 a 0.69849836,0.69849836 0 0 0 -0.6981484,0.69867 0.69849836,0.69849836 0 0 0 0.6981484,0.69867 0.69849836,0.69849836 0 0 0 0.6986656,-0.69867 0.69849836,0.69849836 0 0 0 -0.6986656,-0.69867 z m 2.5398968,0 a 0.69849836,0.69849836 0 0 0 -0.6981486,0.69867 0.69849836,0.69849836 0 0 0 0.6981486,0.69867 0.69849836,0.69849836 0 0 0 0.6986654,-0.69867 0.69849836,0.69849836 0 0 0 -0.6986654,-0.69867 z m 2.5404133,0 a 0.69849836,0.69849836 0 0 0 -0.6986654,0.69867 0.69849836,0.69849836 0 0 0 0.6986654,0.69867 0.69849836,0.69849836 0 0 0 0.6981486,-0.69867 0.69849836,0.69849836 0 0 0 -0.6981486,-0.69867 z m 2.5398966,0 a 0.69849836,0.69849836 0 0 0 -0.698665,0.69867 0.69849836,0.69849836 0 0 0 0.698665,0.69867 0.69849836,0.69849836 0 0 0 0.698149,-0.69867 0.69849836,0.69849836 0 0 0 -0.698149,-0.69867 z m 2.539897,0 a 0.69849836,0.69849836 0 0 0 -0.698666,0.69867 0.69849836,0.69849836 0 0 0 0.698666,0.69867 0.69849836,0.69849836 0 0 0 0.698665,-0.69867 0.69849836,0.69849836 0 0 0 -0.698665,-0.69867 z m 2.539896,0 a 0.69849836,0.69849836 0 0 0 -0.698665,0.69867 0.69849836,0.69849836 0 0 0 0.698665,0.69867 0.69849836,0.69849836 0 0 0 0.698666,-0.69867 0.69849836,0.69849836 0 0 0 -0.698666,-0.69867 z m 2.539897,0 a 0.69849836,0.69849836 0 0 0 -0.698149,0.69867 0.69849836,0.69849836 0 0 0 0.698149,0.69867 0.69849836,0.69849836 0 0 0 0.698665,-0.69867 0.69849836,0.69849836 0 0 0 -0.698665,-0.69867 z m 2.540413,0 a 0.69849836,0.69849836 0 0 0 -0.698665,0.69867 0.69849836,0.69849836 0 0 0 0.698665,0.69867 0.69849836,0.69849836 0 0 0 0.698149,-0.69867 0.69849836,0.69849836 0 0 0 -0.698149,-0.69867 z m 5.079792,0 a 0.69849836,0.69849836 0 0 0 -0.698664,0.69867 0.69849836,0.69849836 0 0 0 0.698664,0.69867 0.69849836,0.69849836 0 0 0 0.698667,-0.69867 0.69849836,0.69849836 0 0 0 -0.698667,-0.69867 z m 2.539897,0 a 0.69849836,0.69849836 0 0 0 -0.698664,0.69867 0.69849836,0.69849836 0 0 0 0.698664,0.69867 0.69849836,0.69849836 0 0 0 0.698667,-0.69867 0.69849836,0.69849836 0 0 0 -0.698667,-0.69867 z m 2.539897,0 a 0.69849836,0.69849836 0 0 0 -0.698148,0.69867 0.69849836,0.69849836 0 0 0 0.698148,0.69867 0.69849836,0.69849836 0 0 0 0.698666,-0.69867 0.69849836,0.69849836 0 0 0 -0.698666,-0.69867 z m 2.539897,0 a 0.69849836,0.69849836 0 0 0 -0.698149,0.69867 0.69849836,0.69849836 0 0 0 0.698149,0.69867 0.69849836,0.69849836 0 0 0 0.698666,-0.69867 0.69849836,0.69849836 0 0 0 -0.698666,-0.69867 z m 2.540412,0 a 0.69849836,0.69849836 0 0 0 -0.698664,0.69867 0.69849836,0.69849836 0 0 0 0.698664,0.69867 0.69849836,0.69849836 0 0 0 0.698151,-0.69867 0.69849836,0.69849836 0 0 0 -0.698151,-0.69867 z m 2.539897,0 a 0.69849836,0.69849836 0 0 0 -0.698664,0.69867 0.69849836,0.69849836 0 0 0 0.698664,0.69867 0.69849836,0.69849836 0 0 0 0.698667,-0.69867 0.69849836,0.69849836 0 0 0 -0.698667,-0.69867 z m 2.539897,0 a 0.69849836,0.69849836 0 0 0 -0.698664,0.69867 0.69849836,0.69849836 0 0 0 0.698664,0.69867 0.69849836,0.69849836 0 0 0 0.698667,-0.69867 0.69849836,0.69849836 0 0 0 -0.698667,-0.69867 z m 2.539897,0 a 0.69849836,0.69849836 0 0 0 -0.698148,0.69867 0.69849836,0.69849836 0 0 0 0.698148,0.69867 0.69849836,0.69849836 0 0 0 0.698666,-0.69867 0.69849836,0.69849836 0 0 0 -0.698666,-0.69867 z m 5.080309,0 a 0.69849836,0.69849836 0 0 0 -0.698664,0.69867 0.69849836,0.69849836 0 0 0 0.698664,0.69867 0.69849836,0.69849836 0 0 0 0.698151,-0.69867 0.69849836,0.69849836 0 0 0 -0.698151,-0.69867 z m 2.539897,0 a 0.69849836,0.69849836 0 0 0 -0.698664,0.69867 0.69849836,0.69849836 0 0 0 0.698664,0.69867 0.69849836,0.69849836 0 0 0 0.698148,-0.69867 0.69849836,0.69849836 0 0 0 -0.698148,-0.69867 z m 2.539897,0 a 0.69849836,0.69849836 0 0 0 -0.698664,0.69867 0.69849836,0.69849836 0 0 0 0.698664,0.69867 0.69849836,0.69849836 0 0 0 0.698667,-0.69867 0.69849836,0.69849836 0 0 0 -0.698667,-0.69867 z m 2.539897,0 a 0.69849836,0.69849836 0 0 0 -0.698664,0.69867 0.69849836,0.69849836 0 0 0 0.698664,0.69867 0.69849836,0.69849836 0 0 0 0.698666,-0.69867 0.69849836,0.69849836 0 0 0 -0.698666,-0.69867 z m 2.539897,0 a 0.69849836,0.69849836 0 0 0 -0.698148,0.69867 0.69849836,0.69849836 0 0 0 0.698148,0.69867 0.69849836,0.69849836 0 0 0 0.698666,-0.69867 0.69849836,0.69849836 0 0 0 -0.698666,-0.69867 z m 2.540412,0 a 0.69849836,0.69849836 0 0 0 -0.698664,0.69867 0.69849836,0.69849836 0 0 0 0.698664,0.69867 0.69849836,0.69849836 0 0 0 0.698151,-0.69867 0.69849836,0.69849836 0 0 0 -0.698151,-0.69867 z m 2.539897,0 a 0.69849836,0.69849836 0 0 0 -0.698664,0.69867 0.69849836,0.69849836 0 0 0 0.698664,0.69867 0.69849836,0.69849836 0 0 0 0.698148,-0.69867 0.69849836,0.69849836 0 0 0 -0.698148,-0.69867 z m 2.539897,0 a 0.69849836,0.69849836 0 0 0 -0.698664,0.69867 0.69849836,0.69849836 0 0 0 0.698664,0.69867 0.69849836,0.69849836 0 0 0 0.698667,-0.69867 0.69849836,0.69849836 0 0 0 -0.698667,-0.69867 z m 5.079794,0 a 0.69849836,0.69849836 0 0 0 -0.698148,0.69867 0.69849836,0.69849836 0 0 0 0.698148,0.69867 0.69849836,0.69849836 0 0 0 0.698666,-0.69867 0.69849836,0.69849836 0 0 0 -0.698666,-0.69867 z m 2.539896,0 a 0.69849836,0.69849836 0 0 0 -0.698148,0.69867 0.69849836,0.69849836 0 0 0 0.698148,0.69867 0.69849836,0.69849836 0 0 0 0.698667,-0.69867 0.69849836,0.69849836 0 0 0 -0.698667,-0.69867 z m 2.540413,0 a 0.69849836,0.69849836 0 0 0 -0.698664,0.69867 0.69849836,0.69849836 0 0 0 0.698664,0.69867 0.69849836,0.69849836 0 0 0 0.698148,-0.69867 0.69849836,0.69849836 0 0 0 -0.698148,-0.69867 z m 2.539897,0 a 0.69849836,0.69849836 0 0 0 -0.698664,0.69867 0.69849836,0.69849836 0 0 0 0.698664,0.69867 0.69849836,0.69849836 0 0 0 0.698667,-0.69867 0.69849836,0.69849836 0 0 0 -0.698667,-0.69867 z m 2.539897,0 a 0.69849836,0.69849836 0 0 0 -0.698664,0.69867 0.69849836,0.69849836 0 0 0 0.698664,0.69867 0.69849836,0.69849836 0 0 0 0.698666,-0.69867 0.69849836,0.69849836 0 0 0 -0.698666,-0.69867 z m 2.539897,0 a 0.69849836,0.69849836 0 0 0 -0.698149,0.69867 0.69849836,0.69849836 0 0 0 0.698149,0.69867 0.69849836,0.69849836 0 0 0 0.698666,-0.69867 0.69849836,0.69849836 0 0 0 -0.698666,-0.69867 z m 2.539896,0 a 0.69849836,0.69849836 0 0 0 -0.698148,0.69867 0.69849836,0.69849836 0 0 0 0.698148,0.69867 0.69849836,0.69849836 0 0 0 0.698667,-0.69867 0.69849836,0.69849836 0 0 0 -0.698667,-0.69867 z m 2.540413,0 a 0.69849836,0.69849836 0 0 0 -0.698664,0.69867 0.69849836,0.69849836 0 0 0 0.698664,0.69867 0.69849836,0.69849836 0 0 0 0.698148,-0.69867 0.69849836,0.69849836 0 0 0 -0.698148,-0.69867 z m 5.079794,0 a 0.69849836,0.69849836 0 0 0 -0.698664,0.69867 0.69849836,0.69849836 0 0 0 0.698664,0.69867 0.69849836,0.69849836 0 0 0 0.698666,-0.69867 0.69849836,0.69849836 0 0 0 -0.698666,-0.69867 z m 2.539897,0 a 0.69849836,0.69849836 0 0 0 -0.698149,0.69867 0.69849836,0.69849836 0 0 0 0.698149,0.69867 0.69849836,0.69849836 0 0 0 0.698666,-0.69867 0.69849836,0.69849836 0 0 0 -0.698666,-0.69867 z m 2.539897,0 a 0.69849836,0.69849836 0 0 0 -0.69815,0.69867 0.69849836,0.69849836 0 0 0 0.69815,0.69867 0.69849836,0.69849836 0 0 0 0.69867,-0.69867 0.69849836,0.69849836 0 0 0 -0.69867,-0.69867 z m 2.54041,0 a 0.69849836,0.69849836 0 0 0 -0.69866,0.69867 0.69849836,0.69849836 0 0 0 0.69866,0.69867 0.69849836,0.69849836 0 0 0 0.69815,-0.69867 0.69849836,0.69849836 0 0 0 -0.69815,-0.69867 z m 2.5399,0 a 0.69849836,0.69849836 0 0 0 -0.69867,0.69867 0.69849836,0.69849836 0 0 0 0.69867,0.69867 0.69849836,0.69849836 0 0 0 0.69815,-0.69867 0.69849836,0.69849836 0 0 0 -0.69815,-0.69867 z m 2.5399,0 a 0.69849836,0.69849836 0 0 0 -0.69867,0.69867 0.69849836,0.69849836 0 0 0 0.69867,0.69867 0.69849836,0.69849836 0 0 0 0.69866,-0.69867 0.69849836,0.69849836 0 0 0 -0.69866,-0.69867 z m 2.53989,0 a 0.69849836,0.69849836 0 0 0 -0.69866,0.69867 0.69849836,0.69849836 0 0 0 0.69866,0.69867 0.69849836,0.69849836 0 0 0 0.69867,-0.69867 0.69849836,0.69849836 0 0 0 -0.69867,-0.69867 z m 2.5399,0 a 0.69849836,0.69849836 0 0 0 -0.69815,0.69867 0.69849836,0.69849836 0 0 0 0.69815,0.69867 0.69849836,0.69849836 0 0 0 0.69867,-0.69867 0.69849836,0.69849836 0 0 0 -0.69867,-0.69867 z m 5.7149,1.86707 a 0.73659831,0.73659831 0 0 0 -0.73639,0.73639 0.73659831,0.73659831 0 0 0 0.73639,0.73691 0.73659831,0.73659831 0 0 0 0.7369,-0.73691 0.73659831,0.73659831 0 0 0 -0.7369,-0.73639 z M 5.5834272,263.05335 a 0.49999784,0.49999784 0 0 0 -0.5002279,0.49971 0.49999784,0.49999784 0 0 0 0.5002279,0.50022 0.49999784,0.49999784 0 0 0 0.4997111,-0.50022 0.49999784,0.49999784 0 0 0 -0.4997111,-0.49971 z m 21.5898948,0 a 0.49999784,0.49999784 0 0 0 -0.500226,0.49971 0.49999784,0.49999784 0 0 0 0.500226,0.50022 0.49999784,0.49999784 0 0 0 0.499711,-0.50022 0.49999784,0.49999784 0 0 0 -0.499711,-0.49971 z m 45.719691,0.0139 a 0.49999784,0.49999784 0 0 0 -0.500227,0.49971 0.49999784,0.49999784 0 0 0 0.500227,0.50022 0.49999784,0.49999784 0 0 0 0.49971,-0.50022 0.49999784,0.49999784 0 0 0 -0.49971,-0.49971 z m 22.860103,0 a 0.49999784,0.49999784 0 0 0 -0.500227,0.49971 0.49999784,0.49999784 0 0 0 0.500227,0.50022 0.49999784,0.49999784 0 0 0 0.49971,-0.50022 0.49999784,0.49999784 0 0 0 -0.49971,-0.49971 z m 20.037534,0.0563 a 0.49999784,0.49999784 0 0 0 -0.50022,0.50022 0.49999784,0.49999784 0 0 0 0.50022,0.49971 0.49999784,0.49999784 0 0 0 0.50023,-0.49971 0.49999784,0.49999784 0 0 0 -0.50023,-0.50022 z m -65.828019,0.0708 a 0.49999784,0.49999784 0 0 0 -0.500229,0.49971 0.49999784,0.49999784 0 0 0 0.500229,0.50022 0.49999784,0.49999784 0 0 0 0.49971,-0.50022 0.49999784,0.49999784 0 0 0 -0.49971,-0.49971 z m -27.869101,1.62883 a 0.63499852,0.63499852 0 0 0 -0.635103,0.63459 0.63499852,0.63499852 0 0 0 0.635103,0.6351 0.63499852,0.63499852 0 0 0 0.634587,-0.6351 0.63499852,0.63499852 0 0 0 -0.634587,-0.63459 z m -12.6999996,0.5333 a 0.73659831,0.73659831 0 0 0 -0.7369059,0.73639 0.73659831,0.73659831 0 0 0 0.7369059,0.73691 0.73659831,0.73659831 0 0 0 0.7363896,-0.73691 0.73659831,0.73659831 0 0 0 -0.7363896,-0.73639 z m 2.5398966,0 a 0.73659831,0.73659831 0 0 0 -0.736906,0.73639 0.73659831,0.73659831 0 0 0 0.736906,0.73691 0.73659831,0.73659831 0 0 0 0.736389,-0.73691 0.73659831,0.73659831 0 0 0 -0.736389,-0.73639 z m 2.539897,0 a 0.73659831,0.73659831 0 0 0 -0.736389,0.73639 0.73659831,0.73659831 0 0 0 0.736389,0.73691 0.73659831,0.73659831 0 0 0 0.736389,-0.73691 0.73659831,0.73659831 0 0 0 -0.736389,-0.73639 z m 2.539896,0 a 0.73659831,0.73659831 0 0 0 -0.736389,0.73639 0.73659831,0.73659831 0 0 0 0.736389,0.73691 0.73659831,0.73659831 0 0 0 0.736906,-0.73691 0.73659831,0.73659831 0 0 0 -0.736906,-0.73639 z m 15.239896,0 a 0.73659831,0.73659831 0 0 0 -0.736389,0.73639 0.73659831,0.73659831 0 0 0 0.736389,0.73691 0.73659831,0.73659831 0 0 0 0.736907,-0.73691 0.73659831,0.73659831 0 0 0 -0.736907,-0.73639 z m 2.539897,0 a 0.73659831,0.73659831 0 0 0 -0.736389,0.73639 0.73659831,0.73659831 0 0 0 0.736389,0.73691 0.73659831,0.73659831 0 0 0 0.736907,-0.73691 0.73659831,0.73659831 0 0 0 -0.736907,-0.73639 z m 2.540412,0 a 0.73659831,0.73659831 0 0 0 -0.736904,0.73639 0.73659831,0.73659831 0 0 0 0.736904,0.73691 0.73659831,0.73659831 0 0 0 0.736391,-0.73691 0.73659831,0.73659831 0 0 0 -0.736391,-0.73639 z m 2.539897,0 a 0.73659831,0.73659831 0 0 0 -0.736904,0.73639 0.73659831,0.73659831 0 0 0 0.736904,0.73691 0.73659831,0.73659831 0 0 0 0.736391,-0.73691 0.73659831,0.73659831 0 0 0 -0.736391,-0.73639 z m 15.239897,0 a 0.73659831,0.73659831 0 0 0 -0.736388,0.73639 0.73659831,0.73659831 0 0 0 0.736388,0.73691 0.73659831,0.73659831 0 0 0 0.736391,-0.73691 0.73659831,0.73659831 0 0 0 -0.736391,-0.73639 z m 2.539897,0 a 0.73659831,0.73659831 0 0 0 -0.736389,0.73639 0.73659831,0.73659831 0 0 0 0.736389,0.73691 0.73659831,0.73659831 0 0 0 0.736907,-0.73691 0.73659831,0.73659831 0 0 0 -0.736907,-0.73639 z m 2.539897,0 a 0.73659831,0.73659831 0 0 0 -0.736389,0.73639 0.73659831,0.73659831 0 0 0 0.736389,0.73691 0.73659831,0.73659831 0 0 0 0.736907,-0.73691 0.73659831,0.73659831 0 0 0 -0.736907,-0.73639 z m 2.540412,0 a 0.73659831,0.73659831 0 0 0 -0.736904,0.73639 0.73659831,0.73659831 0 0 0 0.736904,0.73691 0.73659831,0.73659831 0 0 0 0.736391,-0.73691 0.73659831,0.73659831 0 0 0 -0.736391,-0.73639 z m 15.239897,0 a 0.73659831,0.73659831 0 0 0 -0.736904,0.73639 0.73659831,0.73659831 0 0 0 0.736904,0.73691 0.73659831,0.73659831 0 0 0 0.736391,-0.73691 0.73659831,0.73659831 0 0 0 -0.736391,-0.73639 z m 2.539897,0 a 0.73659831,0.73659831 0 0 0 -0.736904,0.73639 0.73659831,0.73659831 0 0 0 0.736904,0.73691 0.73659831,0.73659831 0 0 0 0.736391,-0.73691 0.73659831,0.73659831 0 0 0 -0.736391,-0.73639 z m 2.539897,0 a 0.73659831,0.73659831 0 0 0 -0.736389,0.73639 0.73659831,0.73659831 0 0 0 0.736389,0.73691 0.73659831,0.73659831 0 0 0 0.736391,-0.73691 0.73659831,0.73659831 0 0 0 -0.736391,-0.73639 z m 2.539897,0 a 0.73659831,0.73659831 0 0 0 -0.736389,0.73639 0.73659831,0.73659831 0 0 0 0.736389,0.73691 0.73659831,0.73659831 0 0 0 0.736907,-0.73691 0.73659831,0.73659831 0 0 0 -0.736907,-0.73639 z m 15.239897,0 a 0.73659831,0.73659831 0 0 0 -0.73639,0.73639 0.73659831,0.73659831 0 0 0 0.73639,0.73691 0.73659831,0.73659831 0 0 0 0.73691,-0.73691 0.73659831,0.73659831 0 0 0 -0.73691,-0.73639 z m 2.54041,0 a 0.73659831,0.73659831 0 0 0 -0.7369,0.73639 0.73659831,0.73659831 0 0 0 0.7369,0.73691 0.73659831,0.73659831 0 0 0 0.73639,-0.73691 0.73659831,0.73659831 0 0 0 -0.73639,-0.73639 z m 2.5399,0 a 0.73659831,0.73659831 0 0 0 -0.73691,0.73639 0.73659831,0.73659831 0 0 0 0.73691,0.73691 0.73659831,0.73659831 0 0 0 0.73639,-0.73691 0.73659831,0.73659831 0 0 0 -0.73639,-0.73639 z m 2.5399,0 a 0.73659831,0.73659831 0 0 0 -0.73639,0.73639 0.73659831,0.73659831 0 0 0 0.73639,0.73691 0.73659831,0.73659831 0 0 0 0.73639,-0.73691 0.73659831,0.73659831 0 0 0 -0.73639,-0.73639 z m -82.550003,0.0382 a 0.69849836,0.69849836 0 0 0 -0.698149,0.69815 0.69849836,0.69849836 0 0 0 0.698149,0.69867 0.69849836,0.69849836 0 0 0 0.698665,-0.69867 0.69849836,0.69849836 0 0 0 -0.698665,-0.69815 z m 26.67279,0.22273 a 0.49999784,0.49999784 0 0 0 -0.500229,0.49971 0.49999784,0.49999784 0 0 0 0.500229,0.50023 0.49999784,0.49999784 0 0 0 0.499711,-0.50023 0.49999784,0.49999784 0 0 0 -0.499711,-0.49971 z m 45.71659,0 a 0.49999784,0.49999784 0 0 0 -0.499711,0.49971 0.49999784,0.49999784 0 0 0 0.499711,0.50023 0.49999784,0.49999784 0 0 0 0.500226,-0.50023 0.49999784,0.49999784 0 0 0 -0.500226,-0.49971 z m 20.955313,1.64383 a 0.73659831,0.73659831 0 0 0 -0.73639,0.7369 0.73659831,0.73659831 0 0 0 0.73639,0.73639 0.73659831,0.73659831 0 0 0 0.7369,-0.73639 0.73659831,0.73659831 0 0 0 -0.7369,-0.7369 z m -97.15428,0.10645 a 0.63499852,0.63499852 0 0 0 -0.635103,0.6351 0.63499852,0.63499852 0 0 0 0.635103,0.63511 0.63499852,0.63499852 0 0 0 0.634587,-0.63511 0.63499852,0.63499852 0 0 0 -0.634587,-0.6351 z m 92.09825,0.0832 a 0.49999784,0.49999784 0 0 0 -0.49971,0.50023 0.49999784,0.49999784 0 0 0 0.49971,0.49971 0.49999784,0.49999784 0 0 0 0.50023,-0.49971 0.49999784,0.49999784 0 0 0 -0.50023,-0.50023 z m -88.986812,0.48369 v 1.39682 h 1.396814 v -1.39682 z m 9.588045,0.19844 a 0.49999784,0.49999784 0 0 0 -0.499711,0.50023 0.49999784,0.49999784 0 0 0 0.499711,0.49971 0.49999784,0.49999784 0 0 0 0.500229,-0.49971 0.49999784,0.49999784 0 0 0 -0.500229,-0.50023 z m 26.670206,0 a 0.49999784,0.49999784 0 0 0 -0.500227,0.50023 0.49999784,0.49999784 0 0 0 0.500227,0.49971 0.49999784,0.49999784 0 0 0 0.499711,-0.49971 0.49999784,0.49999784 0 0 0 -0.499711,-0.50023 z m 3.175,0 a 0.49999784,0.49999784 0 0 0 -0.500227,0.50023 0.49999784,0.49999784 0 0 0 0.500227,0.49971 0.49999784,0.49999784 0 0 0 0.499711,-0.49971 0.49999784,0.49999784 0 0 0 -0.499711,-0.50023 z m 37.470581,0.002 a 0.49999784,0.49999784 0 0 0 -0.50023,0.49971 0.49999784,0.49999784 0 0 0 0.50023,0.50023 0.49999784,0.49999784 0 0 0 0.49971,-0.50023 0.49999784,0.49999784 0 0 0 -0.49971,-0.49971 z m -43.199429,1.86759 a 0.49999784,0.49999784 0 0 0 -0.499711,0.49971 0.49999784,0.49999784 0 0 0 0.499711,0.50023 0.49999784,0.49999784 0 0 0 0.500226,-0.50023 0.49999784,0.49999784 0 0 0 -0.500226,-0.49971 z m 44.498579,0 a 0.49999784,0.49999784 0 0 0 -0.49972,0.49971 0.49999784,0.49999784 0 0 0 0.49972,0.50023 0.49999784,0.49999784 0 0 0 0.50022,-0.50023 0.49999784,0.49999784 0 0 0 -0.50022,-0.49971 z m -97.8245228,0.67072 a 0.49999784,0.49999784 0 0 0 -0.5002279,0.50022 0.49999784,0.49999784 0 0 0 0.5002279,0.49972 0.49999784,0.49999784 0 0 0 0.4997111,-0.49972 0.49999784,0.49999784 0 0 0 -0.4997111,-0.50022 z m 33.6547918,0 a 0.49999784,0.49999784 0 0 0 -0.500227,0.50022 0.49999784,0.49999784 0 0 0 0.500227,0.49972 0.49999784,0.49999784 0 0 0 0.499711,-0.49972 0.49999784,0.49999784 0 0 0 -0.499711,-0.50022 z m 5.714897,1.13481 a 0.63499852,0.63499852 0 0 0 -0.635103,0.63511 0.63499852,0.63499852 0 0 0 0.635103,0.6351 0.63499852,0.63499852 0 0 0 0.635103,-0.6351 0.63499852,0.63499852 0 0 0 -0.635103,-0.63511 z m 2.544548,0 a 0.63499852,0.63499852 0 0 0 -0.634587,0.63511 0.63499852,0.63499852 0 0 0 0.634587,0.6351 0.63499852,0.63499852 0 0 0 0.635103,-0.6351 0.63499852,0.63499852 0 0 0 -0.635103,-0.63511 z m -40.0094437,0.13539 a 0.49999784,0.49999784 0 0 0 -0.4997109,0.49972 0.49999784,0.49999784 0 0 0 0.4997109,0.50022 0.49999784,0.49999784 0 0 0 0.5002281,-0.50022 0.49999784,0.49999784 0 0 0 -0.5002281,-0.49972 z m 19.0220927,0.008 a 0.49999784,0.49999784 0 0 0 -0.500226,0.50023 0.49999784,0.49999784 0 0 0 0.500226,0.49971 0.49999784,0.49999784 0 0 0 0.499714,-0.49971 0.49999784,0.49999784 0 0 0 -0.499714,-0.50023 z m -15.211989,0.62736 a 0.49999784,0.49999784 0 0 0 -0.500228,0.49971 0.49999784,0.49999784 0 0 0 0.500228,0.50023 0.49999784,0.49999784 0 0 0 0.499711,-0.50023 0.49999784,0.49999784 0 0 0 -0.499711,-0.49971 z m 43.814895,0 a 0.49999784,0.49999784 0 0 0 -0.500227,0.49971 0.49999784,0.49999784 0 0 0 0.500227,0.50023 0.49999784,0.49999784 0 0 0 0.499711,-0.50023 0.49999784,0.49999784 0 0 0 -0.499711,-0.49971 z m 51.434591,0.63457 a 0.49999784,0.49999784 0 0 0 -0.49971,0.50023 0.49999784,0.49999784 0 0 0 0.49971,0.49971 0.49999784,0.49999784 0 0 0 0.50022,-0.49971 0.49999784,0.49999784 0 0 0 -0.50022,-0.50023 z m -97.1547963,0.63505 a 0.49999784,0.49999784 0 0 0 -0.4997112,0.50023 0.49999784,0.49999784 0 0 0 0.4997112,0.49971 0.49999784,0.49999784 0 0 0 0.5002278,-0.49971 0.49999784,0.49999784 0 0 0 -0.5002278,-0.50023 z m 55.8797923,0 a 0.49999784,0.49999784 0 0 0 -0.49971,0.50023 0.49999784,0.49999784 0 0 0 0.49971,0.49971 0.49999784,0.49999784 0 0 0 0.500227,-0.49971 0.49999784,0.49999784 0 0 0 -0.500227,-0.50023 z M 13.83822,274.2847 a 0.69849836,0.69849836 0 0 0 -0.698665,0.69867 0.69849836,0.69849836 0 0 0 0.698665,0.69815 0.69849836,0.69849836 0 0 0 0.698666,-0.69815 0.69849836,0.69849836 0 0 0 -0.698666,-0.69867 z m 2.539897,0 a 0.69849836,0.69849836 0 0 0 -0.698149,0.69867 0.69849836,0.69849836 0 0 0 0.698149,0.69815 0.69849836,0.69849836 0 0 0 0.698665,-0.69815 0.69849836,0.69849836 0 0 0 -0.698665,-0.69867 z m 2.540413,0 a 0.69849836,0.69849836 0 0 0 -0.698665,0.69867 0.69849836,0.69849836 0 0 0 0.698665,0.69815 0.69849836,0.69849836 0 0 0 0.698149,-0.69815 0.69849836,0.69849836 0 0 0 -0.698149,-0.69867 z m 2.539897,0 a 0.69849836,0.69849836 0 0 0 -0.698665,0.69867 0.69849836,0.69849836 0 0 0 0.698665,0.69815 0.69849836,0.69849836 0 0 0 0.698149,-0.69815 0.69849836,0.69849836 0 0 0 -0.698149,-0.69867 z m 2.539897,0 a 0.69849836,0.69849836 0 0 0 -0.698666,0.69867 0.69849836,0.69849836 0 0 0 0.698666,0.69815 0.69849836,0.69849836 0 0 0 0.698665,-0.69815 0.69849836,0.69849836 0 0 0 -0.698665,-0.69867 z m 2.539895,0 a 0.69849836,0.69849836 0 0 0 -0.698664,0.69867 0.69849836,0.69849836 0 0 0 0.698664,0.69815 0.69849836,0.69849836 0 0 0 0.698667,-0.69815 0.69849836,0.69849836 0 0 0 -0.698667,-0.69867 z m 2.539897,0 a 0.69849836,0.69849836 0 0 0 -0.698148,0.69867 0.69849836,0.69849836 0 0 0 0.698148,0.69815 0.69849836,0.69849836 0 0 0 0.698666,-0.69815 0.69849836,0.69849836 0 0 0 -0.698666,-0.69867 z m 2.539897,0 a 0.69849836,0.69849836 0 0 0 -0.698148,0.69867 0.69849836,0.69849836 0 0 0 0.698148,0.69815 0.69849836,0.69849836 0 0 0 0.698666,-0.69815 0.69849836,0.69849836 0 0 0 -0.698666,-0.69867 z m 13.335103,0 a 0.69849836,0.69849836 0 0 0 -0.698148,0.69867 0.69849836,0.69849836 0 0 0 0.698148,0.69815 0.69849836,0.69849836 0 0 0 0.698666,-0.69815 0.69849836,0.69849836 0 0 0 -0.698666,-0.69867 z m 2.539897,0 a 0.69849836,0.69849836 0 0 0 -0.698148,0.69867 0.69849836,0.69849836 0 0 0 0.698148,0.69815 0.69849836,0.69849836 0 0 0 0.698666,-0.69815 0.69849836,0.69849836 0 0 0 -0.698666,-0.69867 z m 2.540412,0 a 0.69849836,0.69849836 0 0 0 -0.698664,0.69867 0.69849836,0.69849836 0 0 0 0.698664,0.69815 0.69849836,0.69849836 0 0 0 0.698151,-0.69815 0.69849836,0.69849836 0 0 0 -0.698151,-0.69867 z m 2.539897,0 a 0.69849836,0.69849836 0 0 0 -0.698664,0.69867 0.69849836,0.69849836 0 0 0 0.698664,0.69815 0.69849836,0.69849836 0 0 0 0.698148,-0.69815 0.69849836,0.69849836 0 0 0 -0.698148,-0.69867 z m 2.539897,0 a 0.69849836,0.69849836 0 0 0 -0.698664,0.69867 0.69849836,0.69849836 0 0 0 0.698664,0.69815 0.69849836,0.69849836 0 0 0 0.698667,-0.69815 0.69849836,0.69849836 0 0 0 -0.698667,-0.69867 z m 2.539897,0 a 0.69849836,0.69849836 0 0 0 -0.698664,0.69867 0.69849836,0.69849836 0 0 0 0.698664,0.69815 0.69849836,0.69849836 0 0 0 0.698666,-0.69815 0.69849836,0.69849836 0 0 0 -0.698666,-0.69867 z m 2.539897,0 a 0.69849836,0.69849836 0 0 0 -0.698148,0.69867 0.69849836,0.69849836 0 0 0 0.698148,0.69815 0.69849836,0.69849836 0 0 0 0.698666,-0.69815 0.69849836,0.69849836 0 0 0 -0.698666,-0.69867 z m 2.540412,0 a 0.69849836,0.69849836 0 0 0 -0.698664,0.69867 0.69849836,0.69849836 0 0 0 0.698664,0.69815 0.69849836,0.69849836 0 0 0 0.698151,-0.69815 0.69849836,0.69849836 0 0 0 -0.698151,-0.69867 z m 22.224484,0 a 0.69849836,0.69849836 0 0 0 -0.698148,0.69867 0.69849836,0.69849836 0 0 0 0.698148,0.69815 0.69849836,0.69849836 0 0 0 0.698667,-0.69815 0.69849836,0.69849836 0 0 0 -0.698667,-0.69867 z m 2.540413,0 a 0.69849836,0.69849836 0 0 0 -0.698664,0.69867 0.69849836,0.69849836 0 0 0 0.698664,0.69815 0.69849836,0.69849836 0 0 0 0.698148,-0.69815 0.69849836,0.69849836 0 0 0 -0.698148,-0.69867 z m 2.539897,0 a 0.69849836,0.69849836 0 0 0 -0.698664,0.69867 0.69849836,0.69849836 0 0 0 0.698664,0.69815 0.69849836,0.69849836 0 0 0 0.698148,-0.69815 0.69849836,0.69849836 0 0 0 -0.698148,-0.69867 z m 2.539897,0 a 0.69849836,0.69849836 0 0 0 -0.698664,0.69867 0.69849836,0.69849836 0 0 0 0.698664,0.69815 0.69849836,0.69849836 0 0 0 0.698666,-0.69815 0.69849836,0.69849836 0 0 0 -0.698666,-0.69867 z m 2.539897,0 a 0.69849836,0.69849836 0 0 0 -0.698148,0.69867 0.69849836,0.69849836 0 0 0 0.698148,0.69815 0.69849836,0.69849836 0 0 0 0.698666,-0.69815 0.69849836,0.69849836 0 0 0 -0.698666,-0.69867 z m 2.539896,0 a 0.69849836,0.69849836 0 0 0 -0.698148,0.69867 0.69849836,0.69849836 0 0 0 0.698148,0.69815 0.69849836,0.69849836 0 0 0 0.698667,-0.69815 0.69849836,0.69849836 0 0 0 -0.698667,-0.69867 z m 2.540411,0 a 0.69849836,0.69849836 0 0 0 -0.698662,0.69867 0.69849836,0.69849836 0 0 0 0.698662,0.69815 0.69849836,0.69849836 0 0 0 0.69815,-0.69815 0.69849836,0.69849836 0 0 0 -0.69815,-0.69867 z m 2.5399,0 a 0.69849836,0.69849836 0 0 0 -0.69867,0.69867 0.69849836,0.69849836 0 0 0 0.69867,0.69815 0.69849836,0.69849836 0 0 0 0.69815,-0.69815 0.69849836,0.69849836 0 0 0 -0.69815,-0.69867 z m -67.310104,1.46813 a 0.49999784,0.49999784 0 0 0 -0.499711,0.50023 0.49999784,0.49999784 0 0 0 0.499711,0.50022 0.49999784,0.49999784 0 0 0 0.500229,-0.50022 0.49999784,0.49999784 0 0 0 -0.500229,-0.50023 z m 38.1,0 a 0.49999784,0.49999784 0 0 0 -0.500227,0.50023 0.49999784,0.49999784 0 0 0 0.500227,0.50022 0.49999784,0.49999784 0 0 0 0.49971,-0.50022 0.49999784,0.49999784 0 0 0 -0.49971,-0.50023 z m 5.710245,0.50023 a 0.63499852,0.63499852 0 0 0 -0.635103,0.6351 0.63499852,0.63499852 0 0 0 0.635103,0.6351 0.63499852,0.63499852 0 0 0 0.635103,-0.6351 0.63499852,0.63499852 0 0 0 -0.635103,-0.6351 z m 2.544548,0 a 0.63499852,0.63499852 0 0 0 -0.634587,0.6351 0.63499852,0.63499852 0 0 0 0.634587,0.6351 0.63499852,0.63499852 0 0 0 0.635104,-0.6351 0.63499852,0.63499852 0 0 0 -0.635104,-0.6351 z m -25.4,0.13487 a 0.49999784,0.49999784 0 0 0 -0.49971,0.50023 0.49999784,0.49999784 0 0 0 0.49971,0.49971 0.49999784,0.49999784 0 0 0 0.50023,-0.49971 0.49999784,0.49999784 0 0 0 -0.50023,-0.50023 z m -6.35,0.6351 a 0.49999784,0.49999784 0 0 0 -0.49971,0.50023 0.49999784,0.49999784 0 0 0 0.49971,0.49971 0.49999784,0.49999784 0 0 0 0.50023,-0.49971 0.49999784,0.49999784 0 0 0 -0.50023,-0.50023 z m 37.464897,0 a 0.49999784,0.49999784 0 0 0 -0.49971,0.50023 0.49999784,0.49999784 0 0 0 0.49971,0.49971 0.49999784,0.49999784 0 0 0 0.500227,-0.49971 0.49999784,0.49999784 0 0 0 -0.500227,-0.50023 z m -66.671382,1.26195 a 0.49999784,0.49999784 0 0 0 -0.500227,0.49971 0.49999784,0.49999784 0 0 0 0.500227,0.50022 0.49999784,0.49999784 0 0 0 0.499712,-0.50022 0.49999784,0.49999784 0 0 0 -0.499712,-0.49971 z m -3.1781,0.008 a 0.49999784,0.49999784 0 0 0 -0.500228,0.50023 0.49999784,0.49999784 0 0 0 0.500228,0.50022 0.49999784,0.49999784 0 0 0 0.499711,-0.50022 0.49999784,0.49999784 0 0 0 -0.499711,-0.50023 z m 43.814895,0 a 0.49999784,0.49999784 0 0 0 -0.500227,0.50023 0.49999784,0.49999784 0 0 0 0.500227,0.50022 0.49999784,0.49999784 0 0 0 0.499711,-0.50022 0.49999784,0.49999784 0 0 0 -0.499711,-0.50023 z m -13.970206,0.63505 a 0.49999784,0.49999784 0 0 0 -0.500227,0.50023 0.49999784,0.49999784 0 0 0 0.500227,0.49971 0.49999784,0.49999784 0 0 0 0.500229,-0.49971 0.49999784,0.49999784 0 0 0 -0.500229,-0.50023 z m 71.754797,1.03353 a 0.73659831,0.73659831 0 0 0 -0.73639,0.7369 0.73659831,0.73659831 0 0 0 0.73639,0.73639 0.73659831,0.73659831 0 0 0 0.7369,-0.73639 0.73659831,0.73659831 0 0 0 -0.7369,-0.7369 z m -45.719694,0.23667 a 0.49999784,0.49999784 0 0 0 -0.500227,0.49972 0.49999784,0.49999784 0 0 0 0.500227,0.50022 0.49999784,0.49999784 0 0 0 0.49971,-0.50022 0.49999784,0.49999784 0 0 0 -0.49971,-0.49972 z m 16.509587,0 a 0.49999784,0.49999784 0 0 0 -0.499711,0.49972 0.49999784,0.49999784 0 0 0 0.499711,0.50022 0.49999784,0.49999784 0 0 0 0.500227,-0.50022 0.49999784,0.49999784 0 0 0 -0.500227,-0.49972 z m 25.399997,0 a 0.49999784,0.49999784 0 0 0 -0.49971,0.49972 0.49999784,0.49999784 0 0 0 0.49971,0.50022 0.49999784,0.49999784 0 0 0 0.50023,-0.50022 0.49999784,0.49999784 0 0 0 -0.50023,-0.49972 z m -15.26315,0.047 a 0.49999784,0.49999784 0 0 0 -0.499709,0.50023 0.49999784,0.49999784 0 0 0 0.499709,0.49971 0.49999784,0.49999784 0 0 0 0.50023,-0.49971 0.49999784,0.49999784 0 0 0 -0.50023,-0.50023 z m -87.034995,1.65933 v 1.39733 h 1.397331 v -1.39733 z m 3.238562,0 a 0.69849836,0.69849836 0 0 0 -0.698149,0.69867 0.69849836,0.69849836 0 0 0 0.698149,0.69866 0.69849836,0.69849836 0 0 0 0.698665,-0.69866 0.69849836,0.69849836 0 0 0 -0.698665,-0.69867 z m 2.540413,0 a 0.69849836,0.69849836 0 0 0 -0.698665,0.69867 0.69849836,0.69849836 0 0 0 0.698665,0.69866 0.69849836,0.69849836 0 0 0 0.698149,-0.69866 0.69849836,0.69849836 0 0 0 -0.698149,-0.69867 z m 2.539897,0 a 0.69849836,0.69849836 0 0 0 -0.698665,0.69867 0.69849836,0.69849836 0 0 0 0.698665,0.69866 0.69849836,0.69849836 0 0 0 0.698149,-0.69866 0.69849836,0.69849836 0 0 0 -0.698149,-0.69867 z m 2.539897,0 a 0.69849836,0.69849836 0 0 0 -0.698666,0.69867 0.69849836,0.69849836 0 0 0 0.698666,0.69866 0.69849836,0.69849836 0 0 0 0.698665,-0.69866 0.69849836,0.69849836 0 0 0 -0.698665,-0.69867 z m 2.539895,0 a 0.69849836,0.69849836 0 0 0 -0.698664,0.69867 0.69849836,0.69849836 0 0 0 0.698664,0.69866 0.69849836,0.69849836 0 0 0 0.698667,-0.69866 0.69849836,0.69849836 0 0 0 -0.698667,-0.69867 z m 2.539897,0 a 0.69849836,0.69849836 0 0 0 -0.698148,0.69867 0.69849836,0.69849836 0 0 0 0.698148,0.69866 0.69849836,0.69849836 0 0 0 0.698666,-0.69866 0.69849836,0.69849836 0 0 0 -0.698666,-0.69867 z m 2.539897,0 a 0.69849836,0.69849836 0 0 0 -0.698149,0.69867 0.69849836,0.69849836 0 0 0 0.698149,0.69866 0.69849836,0.69849836 0 0 0 0.698666,-0.69866 0.69849836,0.69849836 0 0 0 -0.698666,-0.69867 z m 12.636955,0 v 1.39733 h 1.396814 v -1.39733 z m 3.238045,0 a 0.69849836,0.69849836 0 0 0 -0.698148,0.69867 0.69849836,0.69849836 0 0 0 0.698148,0.69866 0.69849836,0.69849836 0 0 0 0.698666,-0.69866 0.69849836,0.69849836 0 0 0 -0.698666,-0.69867 z m 2.540412,0 a 0.69849836,0.69849836 0 0 0 -0.698664,0.69867 0.69849836,0.69849836 0 0 0 0.698664,0.69866 0.69849836,0.69849836 0 0 0 0.698151,-0.69866 0.69849836,0.69849836 0 0 0 -0.698151,-0.69867 z m 2.539897,0 a 0.69849836,0.69849836 0 0 0 -0.698664,0.69867 0.69849836,0.69849836 0 0 0 0.698664,0.69866 0.69849836,0.69849836 0 0 0 0.698148,-0.69866 0.69849836,0.69849836 0 0 0 -0.698148,-0.69867 z m 2.539897,0 a 0.69849836,0.69849836 0 0 0 -0.698664,0.69867 0.69849836,0.69849836 0 0 0 0.698664,0.69866 0.69849836,0.69849836 0 0 0 0.698667,-0.69866 0.69849836,0.69849836 0 0 0 -0.698667,-0.69867 z m 2.539897,0 a 0.69849836,0.69849836 0 0 0 -0.698664,0.69867 0.69849836,0.69849836 0 0 0 0.698664,0.69866 0.69849836,0.69849836 0 0 0 0.698666,-0.69866 0.69849836,0.69849836 0 0 0 -0.698666,-0.69867 z m 2.539897,0 a 0.69849836,0.69849836 0 0 0 -0.698148,0.69867 0.69849836,0.69849836 0 0 0 0.698148,0.69866 0.69849836,0.69849836 0 0 0 0.698666,-0.69866 0.69849836,0.69849836 0 0 0 -0.698666,-0.69867 z m 2.540412,0 a 0.69849836,0.69849836 0 0 0 -0.698664,0.69867 0.69849836,0.69849836 0 0 0 0.698664,0.69866 0.69849836,0.69849836 0 0 0 0.698151,-0.69866 0.69849836,0.69849836 0 0 0 -0.698151,-0.69867 z m 21.526336,0 v 1.39733 h 1.396815 v -1.39733 z m 3.238561,0 a 0.69849836,0.69849836 0 0 0 -0.698664,0.69867 0.69849836,0.69849836 0 0 0 0.698664,0.69866 0.69849836,0.69849836 0 0 0 0.698148,-0.69866 0.69849836,0.69849836 0 0 0 -0.698148,-0.69867 z m 2.539897,0 a 0.69849836,0.69849836 0 0 0 -0.698664,0.69867 0.69849836,0.69849836 0 0 0 0.698664,0.69866 0.69849836,0.69849836 0 0 0 0.698148,-0.69866 0.69849836,0.69849836 0 0 0 -0.698148,-0.69867 z m 2.539897,0 a 0.69849836,0.69849836 0 0 0 -0.698664,0.69867 0.69849836,0.69849836 0 0 0 0.698664,0.69866 0.69849836,0.69849836 0 0 0 0.698666,-0.69866 0.69849836,0.69849836 0 0 0 -0.698666,-0.69867 z m 2.539897,0 a 0.69849836,0.69849836 0 0 0 -0.698148,0.69867 0.69849836,0.69849836 0 0 0 0.698148,0.69866 0.69849836,0.69849836 0 0 0 0.698666,-0.69866 0.69849836,0.69849836 0 0 0 -0.698666,-0.69867 z m 2.539896,0 a 0.69849836,0.69849836 0 0 0 -0.698148,0.69867 0.69849836,0.69849836 0 0 0 0.698148,0.69866 0.69849836,0.69849836 0 0 0 0.698667,-0.69866 0.69849836,0.69849836 0 0 0 -0.698667,-0.69867 z m 2.540411,0 a 0.69849836,0.69849836 0 0 0 -0.698662,0.69867 0.69849836,0.69849836 0 0 0 0.698662,0.69866 0.69849836,0.69849836 0 0 0 0.69815,-0.69866 0.69849836,0.69849836 0 0 0 -0.69815,-0.69867 z m 2.5399,0 a 0.69849836,0.69849836 0 0 0 -0.69867,0.69867 0.69849836,0.69849836 0 0 0 0.69867,0.69866 0.69849836,0.69849836 0 0 0 0.69815,-0.69866 0.69849836,0.69849836 0 0 0 -0.69815,-0.69867 z m 16.50959,0.59739 a 0.73659831,0.73659831 0 0 0 -0.73639,0.73638 0.73659831,0.73659831 0 0 0 0.73639,0.73639 0.73659831,0.73659831 0 0 0 0.7369,-0.73639 0.73659831,0.73659831 0 0 0 -0.7369,-0.73638 z m -53.975004,0.23615 a 0.49999784,0.49999784 0 0 0 -0.49971,0.50023 0.49999784,0.49999784 0 0 0 0.49971,0.49971 0.49999784,0.49999784 0 0 0 0.500227,-0.49971 0.49999784,0.49999784 0 0 0 -0.500227,-0.50023 z m 11.43031,0 a 0.49999784,0.49999784 0 0 0 -0.500227,0.50023 0.49999784,0.49999784 0 0 0 0.500227,0.49971 0.49999784,0.49999784 0 0 0 0.49971,-0.49971 0.49999784,0.49999784 0 0 0 -0.49971,-0.50023 z m 3.175,0 a 0.49999784,0.49999784 0 0 0 -0.500227,0.50023 0.49999784,0.49999784 0 0 0 0.500227,0.49971 0.49999784,0.49999784 0 0 0 0.49971,-0.49971 0.49999784,0.49999784 0 0 0 -0.49971,-0.50023 z m 35.559584,0 a 0.49999784,0.49999784 0 0 0 -0.49971,0.50023 0.49999784,0.49999784 0 0 0 0.49971,0.49971 0.49999784,0.49999784 0 0 0 0.50023,-0.49971 0.49999784,0.49999784 0 0 0 -0.50023,-0.50023 z m -95.260848,1.88051 a 0.49999784,0.49999784 0 0 0 -0.500228,0.50023 0.49999784,0.49999784 0 0 0 0.500228,0.49971 0.49999784,0.49999784 0 0 0 0.499711,-0.49971 0.49999784,0.49999784 0 0 0 -0.499711,-0.50023 z m 8.931754,0 a 0.49999784,0.49999784 0 0 0 -0.499713,0.50023 0.49999784,0.49999784 0 0 0 0.499713,0.49971 0.49999784,0.49999784 0 0 0 0.500227,-0.49971 0.49999784,0.49999784 0 0 0 -0.500227,-0.50023 z m 65.374303,0.0243 a 0.49999784,0.49999784 0 0 0 -0.500226,0.50023 0.49999784,0.49999784 0 0 0 0.500226,0.50023 0.49999784,0.49999784 0 0 0 0.50023,-0.50023 0.49999784,0.49999784 0 0 0 -0.50023,-0.50023 z m 24.764901,0.39894 a 0.73659831,0.73659831 0 0 0 -0.73639,0.73639 0.73659831,0.73659831 0 0 0 0.73639,0.73691 0.73659831,0.73659831 0 0 0 0.7369,-0.73691 0.73659831,0.73659831 0 0 0 -0.7369,-0.73639 z m -97.154796,1.50637 a 0.49999784,0.49999784 0 0 0 -0.499711,0.49971 0.49999784,0.49999784 0 0 0 0.499711,0.50023 0.49999784,0.49999784 0 0 0 0.500228,-0.50023 0.49999784,0.49999784 0 0 0 -0.500228,-0.49971 z m 52.704792,0 a 0.49999784,0.49999784 0 0 0 -0.49971,0.49971 0.49999784,0.49999784 0 0 0 0.49971,0.50023 0.49999784,0.49999784 0 0 0 0.500227,-0.50023 0.49999784,0.49999784 0 0 0 -0.500227,-0.49971 z m 44.450004,1.03353 a 0.73659831,0.73659831 0 0 0 -0.73639,0.73639 0.73659831,0.73659831 0 0 0 0.73639,0.7369 0.73659831,0.73659831 0 0 0 0.7369,-0.7369 0.73659831,0.73659831 0 0 0 -0.7369,-0.73639 z m -95.88459,0.87126 a 0.49999784,0.49999784 0 0 0 -0.500227,0.50023 0.49999784,0.49999784 0 0 0 0.500227,0.49971 0.49999784,0.49999784 0 0 0 0.500228,-0.49971 0.49999784,0.49999784 0 0 0 -0.500228,-0.50023 z m 71.754793,0 a 0.49999784,0.49999784 0 0 0 -0.500227,0.50023 0.49999784,0.49999784 0 0 0 0.500227,0.49971 0.49999784,0.49999784 0 0 0 0.49971,-0.49971 0.49999784,0.49999784 0 0 0 -0.49971,-0.50023 z m -70.484586,1.90531 a 0.49999784,0.49999784 0 0 0 -0.500228,0.49971 0.49999784,0.49999784 0 0 0 0.500228,0.50023 0.49999784,0.49999784 0 0 0 0.499711,-0.50023 0.49999784,0.49999784 0 0 0 -0.499711,-0.49971 z m 22.859586,0 a 0.49999784,0.49999784 0 0 0 -0.500227,0.49971 0.49999784,0.49999784 0 0 0 0.500227,0.50023 0.49999784,0.49999784 0 0 0 0.500229,-0.50023 0.49999784,0.49999784 0 0 0 -0.500229,-0.49971 z m -15.875,1.90479 a 0.49999784,0.49999784 0 0 0 -0.499711,0.50023 0.49999784,0.49999784 0 0 0 0.499711,0.49971 0.49999784,0.49999784 0 0 0 0.500229,-0.49971 0.49999784,0.49999784 0 0 0 -0.500229,-0.50023 z m 13.335103,0 a 0.49999784,0.49999784 0 0 0 -0.500227,0.50023 0.49999784,0.49999784 0 0 0 0.500227,0.49971 0.49999784,0.49999784 0 0 0 0.49971,-0.49971 0.49999784,0.49999784 0 0 0 -0.49971,-0.50023 z m 31.75,0 a 0.49999784,0.49999784 0 0 0 -0.500227,0.50023 0.49999784,0.49999784 0 0 0 0.500227,0.49971 0.49999784,0.49999784 0 0 0 0.49971,-0.49971 0.49999784,0.49999784 0 0 0 -0.49971,-0.50023 z m -73.6595856,0.17054 a 1.5999952,1.5999952 0 0 0 -1.5999021,1.5999 1.5999952,1.5999952 0 0 0 1.5999021,1.5999 1.5999952,1.5999952 0 0 0 1.5999023,-1.5999 1.5999952,1.5999952 0 0 0 -1.5999023,-1.5999 z m 116.2047896,0 a 1.5999952,1.5999952 0 0 0 -1.5999,1.5999 1.5999952,1.5999952 0 0 0 1.5999,1.5999 1.5999952,1.5999952 0 0 0 1.59991,-1.5999 1.5999952,1.5999952 0 0 0 -1.59991,-1.5999 z"
       id="path17"
       inkscape:connector-curvature="0" />
    <path
       style="color:#000000;font-style:normal;font-variant:normal;font-weight:normal;font-stretch:normal;font-size:medium;line-height:normal;font-family:sans-serif;font-variant-ligatures:normal;font-variant-position:normal;font-variant-caps:normal;font-variant-numeric:normal;font-variant-alternates:normal;font-feature-settings:normal;text-indent:0;text-align:start;text-decoration:none;text-decoration-line:none;text-decoration-style:solid;text-decoration-color:#000000;letter-spacing:normal;word-spacing:normal;text-transform:none;writing-mode:lr-tb;direction:ltr;text-orientation:mixed;dominant-baseline:auto;baseline-shift:baseline;text-anchor:start;white-space:normal;shape-padding:0;clip-rule:nonzero;display:inline;overflow:visible;visibility:visible;opacity:1;isolation:auto;mix-blend-mode:normal;color-interpolation:sRGB;color-interpolation-filters:linearRGB;solid-color:#000000;solid-opacity:1;vector-effect:none;fill:#000000;fill-opacity:1;fill-rule:nonzero;stroke:none;stroke-width:0.17638847;stroke-linecap:butt;stroke-linejoin:miter;stroke-miterlimit:4;stroke-dasharray:none;stroke-dashoffset:0;stroke-opacity:1;color-rendering:auto;image-rendering:auto;shape-rendering:auto;text-rendering:auto;enable-background:accumulate"
       d="m 0,242.05774 v 0.0882 V 297 h 122.53762 v -54.94226 z m 0.17638847,0.17639 H 122.36124 V 296.8236 H 0.17638847 Z"
       id="path19"
       inkscape:connector-curvature="0" />
  </g>
</svg>
