<?xml version="1.0" encoding="UTF-8" standalone="no"?>
<!-- Created with Fritzing (http://www.fritzing.org/) -->

<svg
   xmlns:dc="http://purl.org/dc/elements/1.1/"
   xmlns:cc="http://creativecommons.org/ns#"
   xmlns:rdf="http://www.w3.org/1999/02/22-rdf-syntax-ns#"
   xmlns:svg="http://www.w3.org/2000/svg"
   xmlns="http://www.w3.org/2000/svg"
   xmlns:sodipodi="http://sodipodi.sourceforge.net/DTD/sodipodi-0.dtd"
   xmlns:inkscape="http://www.inkscape.org/namespaces/inkscape"
   version="1.2"
   width="4.824316in"
   viewBox="0 0 347.35157 155.74175"
   x="0in"
   y="0in"
   height="2.1630809in"
   id="svg1309"
   sodipodi:docname="cnc.svg"
   inkscape:version="0.92.4 (unknown)">
  <metadata
     id="metadata1315">
    <rdf:RDF>
      <cc:Work
         rdf:about="">
        <dc:format>image/svg+xml</dc:format>
        <dc:type
           rdf:resource="http://purl.org/dc/dcmitype/StillImage" />
      </cc:Work>
    </rdf:RDF>
  </metadata>
  <defs
     id="defs1313" />
  <sodipodi:namedview
     pagecolor="#ffffff"
     bordercolor="#666666"
     borderopacity="1"
     objecttolerance="10"
     gridtolerance="10"
     guidetolerance="10"
     inkscape:pageopacity="0"
     inkscape:pageshadow="2"
     inkscape:window-width="535"
     inkscape:window-height="477"
     id="namedview1311"
     showgrid="false"
     inkscape:zoom="0.81816175"
     inkscape:cx="234.01167"
     inkscape:cy="98.938872"
     inkscape:window-x="0"
     inkscape:window-y="27"
     inkscape:window-maximized="0"
     inkscape:current-layer="svg1309" />
  <g
     inkscape:groupmode="layer"
     id="topmask"
     inkscape:label="topmask"
     transform="translate(-0.03722,-0.03812457)">
    <path
       style="fill:#000000;stroke:#000000;stroke-width:2.87999344"
       d="m 11.552734,5.6464844 a 6.0472258,6.0472258 0 0 0 -6.0468746,6.0468746 6.0472258,6.0472258 0 0 0 6.0468746,6.046875 6.0472258,6.0472258 0 0 0 6.046875,-6.046875 6.0472258,6.0472258 0 0 0 -6.046875,-6.0468746 z m 439.199216,0 a 6.0472258,6.0472258 0 0 0 -6.04687,6.0468746 6.0472258,6.0472258 0 0 0 6.04687,6.046875 6.0472258,6.0472258 0 0 0 6.04688,-6.046875 6.0472258,6.0472258 0 0 0 -6.04688,-6.0468746 z M 52.351562,6.5097656 a 2.7839936,2.7839936 0 0 0 -2.783203,2.7832032 2.7839936,2.7839936 0 0 0 2.783203,2.7851562 2.7839936,2.7839936 0 0 0 2.785157,-2.7851562 2.7839936,2.7839936 0 0 0 -2.785157,-2.7832032 z m 9.59961,0 a 2.7839936,2.7839936 0 0 0 -2.783203,2.7832032 2.7839936,2.7839936 0 0 0 2.783203,2.7851562 2.7839936,2.7839936 0 0 0 2.785156,-2.7851562 2.7839936,2.7839936 0 0 0 -2.785156,-2.7832032 z m 69.216798,7.1992184 v 5.56836 h 5.56836 v -5.56836 z m 12.38281,0 a 2.7839936,2.7839936 0 0 0 -2.7832,2.785157 2.7839936,2.7839936 0 0 0 2.7832,2.783203 2.7839936,2.7839936 0 0 0 2.78516,-2.783203 2.7839936,2.7839936 0 0 0 -2.78516,-2.785157 z m 9.60156,0 a 2.7839936,2.7839936 0 0 0 -2.78515,2.785157 2.7839936,2.7839936 0 0 0 2.78515,2.783203 2.7839936,2.7839936 0 0 0 2.78321,-2.783203 2.7839936,2.7839936 0 0 0 -2.78321,-2.785157 z m 9.59766,0.894532 a 1.8897556,1.8897556 0 0 0 -1.88867,1.890625 1.8897556,1.8897556 0 0 0 1.88867,1.888671 1.8897556,1.8897556 0 0 0 1.89062,-1.888671 1.8897556,1.8897556 0 0 0 -1.89062,-1.890625 z m 192.00195,1.505859 a 2.7839936,2.7839936 0 0 0 -2.78515,2.783203 2.7839936,2.7839936 0 0 0 2.78515,2.785156 2.7839936,2.7839936 0 0 0 2.78321,-2.785156 2.7839936,2.7839936 0 0 0 -2.78321,-2.783203 z m 57.59961,0 a 2.7839936,2.7839936 0 0 0 -2.78515,2.783203 2.7839936,2.7839936 0 0 0 2.78515,2.785156 2.7839936,2.7839936 0 0 0 2.78321,-2.785156 2.7839936,2.7839936 0 0 0 -2.78321,-2.783203 z m -206.40039,5.693359 a 1.8897556,1.8897556 0 0 0 -1.89062,1.890625 1.8897556,1.8897556 0 0 0 1.89062,1.890625 1.8897556,1.8897556 0 0 0 1.88867,-1.890625 1.8897556,1.8897556 0 0 0 -1.88867,-1.890625 z m 21.25977,0.699219 v 7.181641 h 6.04687 v -7.181641 z m 11.71679,0 v 7.181641 h 6.04688 V 22.501953 Z M 450.75,28.109375 a 2.7839936,2.7839936 0 0 0 -2.7832,2.783203 2.7839936,2.7839936 0 0 0 2.7832,2.785156 2.7839936,2.7839936 0 0 0 2.78516,-2.785156 2.7839936,2.7839936 0 0 0 -2.78516,-2.783203 z m -278.29688,2.408203 a 2.7359936,2.7359936 0 0 0 -2.73632,2.736328 2.7359936,2.7359936 0 0 0 2.73632,2.736328 2.7359936,2.7359936 0 0 0 2.73633,-2.736328 2.7359936,2.7359936 0 0 0 -2.73633,-2.736328 z m 38.32618,0.03516 a 2.7359936,2.7359936 0 0 0 -2.73633,2.736328 2.7359936,2.7359936 0 0 0 2.73633,2.736329 2.7359936,2.7359936 0 0 0 2.73632,-2.736329 2.7359936,2.7359936 0 0 0 -2.73632,-2.736328 z m -28.69532,0.0039 a 2.7359936,2.7359936 0 0 0 -2.73437,2.736328 2.7359936,2.7359936 0 0 0 2.73437,2.736328 2.7359936,2.7359936 0 0 0 2.73633,-2.736328 2.7359936,2.7359936 0 0 0 -2.73633,-2.736328 z m 9.60157,0 a 2.7359936,2.7359936 0 0 0 -2.73438,2.736328 2.7359936,2.7359936 0 0 0 2.73438,2.736328 2.7359936,2.7359936 0 0 0 2.73633,-2.736328 2.7359936,2.7359936 0 0 0 -2.73633,-2.736328 z m 9.59961,0 a 2.7359936,2.7359936 0 0 0 -2.73633,2.736328 2.7359936,2.7359936 0 0 0 2.73633,2.736328 2.7359936,2.7359936 0 0 0 2.73632,-2.736328 2.7359936,2.7359936 0 0 0 -2.73632,-2.736328 z m -148.933598,0.0957 a 2.6399938,2.6399938 0 0 0 -2.640624,2.640625 2.6399938,2.6399938 0 0 0 2.640624,2.640625 2.6399938,2.6399938 0 0 0 2.640626,-2.640625 2.6399938,2.6399938 0 0 0 -2.640626,-2.640625 z m 9.59961,0 a 2.6399938,2.6399938 0 0 0 -2.638672,2.640625 2.6399938,2.6399938 0 0 0 2.638672,2.640625 2.6399938,2.6399938 0 0 0 2.640625,-2.640625 2.6399938,2.6399938 0 0 0 -2.640625,-2.640625 z m 9.601562,0 a 2.6399938,2.6399938 0 0 0 -2.640625,2.640625 2.6399938,2.6399938 0 0 0 2.640625,2.640625 2.6399938,2.6399938 0 0 0 2.638672,-2.640625 2.6399938,2.6399938 0 0 0 -2.638672,-2.640625 z m 9.59961,0 a 2.6399938,2.6399938 0 0 0 -2.640625,2.640625 2.6399938,2.6399938 0 0 0 2.640625,2.640625 2.6399938,2.6399938 0 0 0 2.638672,-2.640625 2.6399938,2.6399938 0 0 0 -2.638672,-2.640625 z m 9.599609,0 a 2.6399938,2.6399938 0 0 0 -2.640625,2.640625 2.6399938,2.6399938 0 0 0 2.640625,2.640625 2.6399938,2.6399938 0 0 0 2.640625,-2.640625 2.6399938,2.6399938 0 0 0 -2.640625,-2.640625 z m 9.599607,0 a 2.6399938,2.6399938 0 0 0 -2.640622,2.640625 2.6399938,2.6399938 0 0 0 2.640622,2.640625 2.6399938,2.6399938 0 0 0 2.64063,-2.640625 2.6399938,2.6399938 0 0 0 -2.64063,-2.640625 z m 9.59961,0 a 2.6399938,2.6399938 0 0 0 -2.63867,2.640625 2.6399938,2.6399938 0 0 0 2.63867,2.640625 2.6399938,2.6399938 0 0 0 2.64063,-2.640625 2.6399938,2.6399938 0 0 0 -2.64063,-2.640625 z m 110.40039,0.751953 a 1.8897556,1.8897556 0 0 0 -1.89062,1.888672 1.8897556,1.8897556 0 0 0 1.89062,1.890625 1.8897556,1.8897556 0 0 0 1.88867,-1.890625 1.8897556,1.8897556 0 0 0 -1.88867,-1.888672 z m -86.40039,1.505859 a 2.7839936,2.7839936 0 0 0 -2.7832,2.783203 2.7839936,2.7839936 0 0 0 2.7832,2.783203 2.7839936,2.7839936 0 0 0 2.78516,-2.783203 2.7839936,2.7839936 0 0 0 -2.78516,-2.783203 z m 9.59961,0 a 2.7839936,2.7839936 0 0 0 -2.7832,2.783203 2.7839936,2.7839936 0 0 0 2.7832,2.783203 2.7839936,2.7839936 0 0 0 2.78516,-2.783203 2.7839936,2.7839936 0 0 0 -2.78516,-2.783203 z m 6.81641,0 v 5.566406 h 5.56836 V 32.91015 Z m 141.98242,0.892578 a 1.8897556,1.8897556 0 0 0 -1.88867,1.890625 1.8897556,1.8897556 0 0 0 1.88867,1.890625 1.8897556,1.8897556 0 0 0 1.89062,-1.890625 1.8897556,1.8897556 0 0 0 -1.89062,-1.890625 z m 38.40234,0 a 1.8897556,1.8897556 0 0 0 -1.89062,1.890625 1.8897556,1.8897556 0 0 0 1.89062,1.890625 1.8897556,1.8897556 0 0 0 1.88867,-1.890625 1.8897556,1.8897556 0 0 0 -1.88867,-1.890625 z m -52.71289,0.56836 a 1.3228289,1.3228289 0 0 0 -1.32226,1.322265 1.3228289,1.3228289 0 0 0 1.32226,1.322266 1.3228289,1.3228289 0 0 0 1.32422,-1.322266 1.3228289,1.3228289 0 0 0 -1.32422,-1.322265 z m -50.54687,0.130859 v 7.181641 h 6.04883 v -7.181641 z m 11.71679,0 v 7.181641 h 6.04883 v -7.181641 z m 192.3418,3.207031 a 2.7839936,2.7839936 0 0 0 -2.7832,2.785157 2.7839936,2.7839936 0 0 0 2.7832,2.783203 2.7839936,2.7839936 0 0 0 2.78516,-2.783203 2.7839936,2.7839936 0 0 0 -2.78516,-2.785157 z m 19.19922,0 a 2.7839936,2.7839936 0 0 0 -2.7832,2.785157 2.7839936,2.7839936 0 0 0 2.7832,2.783203 2.7839936,2.7839936 0 0 0 2.78516,-2.783203 2.7839936,2.7839936 0 0 0 -2.78516,-2.785157 z m -196.79883,4.94336 a 2.6399938,2.6399938 0 0 0 -2.64062,2.640625 2.6399938,2.6399938 0 0 0 2.64062,2.640625 2.6399938,2.6399938 0 0 0 2.64063,-2.640625 2.6399938,2.6399938 0 0 0 -2.64063,-2.640625 z m 9.59961,0 a 2.6399938,2.6399938 0 0 0 -2.63867,2.640625 2.6399938,2.6399938 0 0 0 2.63867,2.640625 2.6399938,2.6399938 0 0 0 2.64063,-2.640625 2.6399938,2.6399938 0 0 0 -2.64063,-2.640625 z m 9.59961,0 a 2.6399938,2.6399938 0 0 0 -2.63867,2.640625 2.6399938,2.6399938 0 0 0 2.63867,2.640625 2.6399938,2.6399938 0 0 0 2.64063,-2.640625 2.6399938,2.6399938 0 0 0 -2.64063,-2.640625 z m 9.60156,0 a 2.6399938,2.6399938 0 0 0 -2.64062,2.640625 2.6399938,2.6399938 0 0 0 2.64062,2.640625 2.6399938,2.6399938 0 0 0 2.63867,-2.640625 2.6399938,2.6399938 0 0 0 -2.63867,-2.640625 z m 9.59961,0 a 2.6399938,2.6399938 0 0 0 -2.64062,2.640625 2.6399938,2.6399938 0 0 0 2.64062,2.640625 2.6399938,2.6399938 0 0 0 2.64063,-2.640625 2.6399938,2.6399938 0 0 0 -2.64063,-2.640625 z m 9.59961,0 a 2.6399938,2.6399938 0 0 0 -2.64062,2.640625 2.6399938,2.6399938 0 0 0 2.64062,2.640625 2.6399938,2.6399938 0 0 0 2.64063,-2.640625 2.6399938,2.6399938 0 0 0 -2.64063,-2.640625 z m 9.59961,0 a 2.6399938,2.6399938 0 0 0 -2.63867,2.640625 2.6399938,2.6399938 0 0 0 2.63867,2.640625 2.6399938,2.6399938 0 0 0 2.64063,-2.640625 2.6399938,2.6399938 0 0 0 -2.64063,-2.640625 z m 9.59961,0 a 2.6399938,2.6399938 0 0 0 -2.63867,2.640625 2.6399938,2.6399938 0 0 0 2.63867,2.640625 2.6399938,2.6399938 0 0 0 2.64063,-2.640625 2.6399938,2.6399938 0 0 0 -2.64063,-2.640625 z m 33.60156,2.257812 a 2.7839936,2.7839936 0 0 0 -2.78515,2.783203 2.7839936,2.7839936 0 0 0 2.78515,2.783203 2.7839936,2.7839936 0 0 0 2.78321,-2.783203 2.7839936,2.7839936 0 0 0 -2.78321,-2.783203 z m 57.59961,0 a 2.7839936,2.7839936 0 0 0 -2.78515,2.783203 2.7839936,2.7839936 0 0 0 2.78515,2.783203 2.7839936,2.7839936 0 0 0 2.78321,-2.783203 2.7839936,2.7839936 0 0 0 -2.78321,-2.783203 z M 52.351562,45.802734 a 1.8897556,1.8897556 0 0 0 -1.888671,1.890625 1.8897556,1.8897556 0 0 0 1.888671,1.890625 1.8897556,1.8897556 0 0 0 1.890626,-1.890625 1.8897556,1.8897556 0 0 0 -1.890626,-1.890625 z m 38.400391,0 a 1.8897556,1.8897556 0 0 0 -1.890625,1.890625 1.8897556,1.8897556 0 0 0 1.890625,1.890625 1.8897556,1.8897556 0 0 0 1.888672,-1.890625 1.8897556,1.8897556 0 0 0 -1.888672,-1.890625 z m 340.798827,1.50586 a 2.7839936,2.7839936 0 0 0 -2.7832,2.785156 2.7839936,2.7839936 0 0 0 2.7832,2.783203 2.7839936,2.7839936 0 0 0 2.78516,-2.783203 2.7839936,2.7839936 0 0 0 -2.78516,-2.785156 z m 19.19922,0 a 2.7839936,2.7839936 0 0 0 -2.7832,2.785156 2.7839936,2.7839936 0 0 0 2.7832,2.783203 2.7839936,2.7839936 0 0 0 2.78516,-2.783203 A 2.7839936,2.7839936 0 0 0 450.75,47.308594 Z M 9.1523438,49.708984 A 2.7839936,2.7839936 0 0 0 6.3671875,52.494141 2.7839936,2.7839936 0 0 0 9.1523438,55.277344 2.7839936,2.7839936 0 0 0 11.935547,52.494141 2.7839936,2.7839936 0 0 0 9.1523438,49.708984 Z M 119.55078,50.076172 a 2.3999944,2.3999944 0 0 0 -2.39844,2.398437 2.3999944,2.3999944 0 0 0 2.39844,2.400391 2.3999944,2.3999944 0 0 0 2.40039,-2.400391 2.3999944,2.3999944 0 0 0 -2.40039,-2.398437 z m 218.40039,0.527344 a 1.8897556,1.8897556 0 0 0 -1.88867,1.890625 1.8897556,1.8897556 0 0 0 1.88867,1.888671 1.8897556,1.8897556 0 0 0 1.89063,-1.888671 1.8897556,1.8897556 0 0 0 -1.89063,-1.890625 z m -118.22265,0.699218 v 7.181641 h 6.04687 v -7.181641 z m 11.71679,0 v 7.181641 h 6.04688 V 51.302734 Z M 258.75,53.003906 a 1.8897556,1.8897556 0 0 0 -1.88867,1.888672 1.8897556,1.8897556 0 0 0 1.88867,1.890625 1.8897556,1.8897556 0 0 0 1.89062,-1.890625 1.8897556,1.8897556 0 0 0 -1.89062,-1.888672 z m 172.80078,3.90625 a 2.7839936,2.7839936 0 0 0 -2.7832,2.783203 2.7839936,2.7839936 0 0 0 2.7832,2.783203 2.7839936,2.7839936 0 0 0 2.78516,-2.783203 2.7839936,2.7839936 0 0 0 -2.78516,-2.783203 z m 19.19922,0 a 2.7839936,2.7839936 0 0 0 -2.7832,2.783203 2.7839936,2.7839936 0 0 0 2.7832,2.783203 2.7839936,2.7839936 0 0 0 2.78516,-2.783203 A 2.7839936,2.7839936 0 0 0 450.75,56.910156 Z M 9.1523438,59.308594 A 2.7839936,2.7839936 0 0 0 6.3671875,62.09375 2.7839936,2.7839936 0 0 0 9.1523438,64.876953 2.7839936,2.7839936 0 0 0 11.935547,62.09375 2.7839936,2.7839936 0 0 0 9.1523438,59.308594 Z m 40.5585942,0.144531 v 5.279297 h 5.28125 v -5.279297 z m 12.240234,0 a 2.6399938,2.6399938 0 0 0 -2.638672,2.640625 2.6399938,2.6399938 0 0 0 2.638672,2.638672 2.6399938,2.6399938 0 0 0 2.640625,-2.638672 2.6399938,2.6399938 0 0 0 -2.640625,-2.640625 z m 9.601562,0 a 2.6399938,2.6399938 0 0 0 -2.640625,2.640625 2.6399938,2.6399938 0 0 0 2.640625,2.638672 2.6399938,2.6399938 0 0 0 2.638672,-2.638672 2.6399938,2.6399938 0 0 0 -2.638672,-2.640625 z m 9.59961,0 a 2.6399938,2.6399938 0 0 0 -2.640625,2.640625 2.6399938,2.6399938 0 0 0 2.640625,2.638672 2.6399938,2.6399938 0 0 0 2.638672,-2.638672 2.6399938,2.6399938 0 0 0 -2.638672,-2.640625 z m 9.599609,0 a 2.6399938,2.6399938 0 0 0 -2.640625,2.640625 2.6399938,2.6399938 0 0 0 2.640625,2.638672 2.6399938,2.6399938 0 0 0 2.640625,-2.638672 2.6399938,2.6399938 0 0 0 -2.640625,-2.640625 z m 9.599607,0 a 2.6399938,2.6399938 0 0 0 -2.640622,2.640625 2.6399938,2.6399938 0 0 0 2.640622,2.638672 2.6399938,2.6399938 0 0 0 2.64063,-2.638672 2.6399938,2.6399938 0 0 0 -2.64063,-2.640625 z m 9.59961,0 a 2.6399938,2.6399938 0 0 0 -2.63867,2.640625 2.6399938,2.6399938 0 0 0 2.63867,2.638672 2.6399938,2.6399938 0 0 0 2.64063,-2.638672 2.6399938,2.6399938 0 0 0 -2.64063,-2.640625 z m 33.59961,0 a 2.6399938,2.6399938 0 0 0 -2.63867,2.640625 2.6399938,2.6399938 0 0 0 2.63867,2.638672 2.6399938,2.6399938 0 0 0 2.64063,-2.638672 2.6399938,2.6399938 0 0 0 -2.64063,-2.640625 z m -24,0.240234 a 2.3999944,2.3999944 0 0 0 -2.39844,2.400391 2.3999944,2.3999944 0 0 0 2.39844,2.400391 2.3999944,2.3999944 0 0 0 2.40039,-2.400391 2.3999944,2.3999944 0 0 0 -2.40039,-2.400391 z m 148.80078,0.509766 a 1.8897556,1.8897556 0 0 0 -1.89062,1.890625 1.8897556,1.8897556 0 0 0 1.89062,1.888672 1.8897556,1.8897556 0 0 0 1.88867,-1.888672 1.8897556,1.8897556 0 0 0 -1.88867,-1.890625 z m 76.80078,2.400391 a 1.8897556,1.8897556 0 0 0 -1.89062,1.890625 1.8897556,1.8897556 0 0 0 1.89062,1.888671 1.8897556,1.8897556 0 0 0 1.88868,-1.888671 1.8897556,1.8897556 0 0 0 -1.88868,-1.890625 z m -125.42382,0.699218 v 7.181641 h 6.04687 v -7.181641 z m 11.71679,0 v 7.181641 h 6.04688 v -7.181641 z m 200.10547,3.207032 a 2.7839936,2.7839936 0 0 0 -2.7832,2.783203 2.7839936,2.7839936 0 0 0 2.7832,2.785156 2.7839936,2.7839936 0 0 0 2.78516,-2.785156 2.7839936,2.7839936 0 0 0 -2.78516,-2.783203 z m 19.19922,0 a 2.7839936,2.7839936 0 0 0 -2.7832,2.783203 2.7839936,2.7839936 0 0 0 2.7832,2.785156 2.7839936,2.7839936 0 0 0 2.78516,-2.785156 2.7839936,2.7839936 0 0 0 -2.78516,-2.783203 z m -309.83789,2.542968 v 5.28125 h 5.2793 v -5.28125 z m 41.03906,0.75 a 1.8897556,1.8897556 0 0 0 -1.89062,1.890625 1.8897556,1.8897556 0 0 0 1.89062,1.890625 1.8897556,1.8897556 0 0 0 1.88867,-1.890625 1.8897556,1.8897556 0 0 0 -1.88867,-1.890625 z m 19.19922,0 a 1.8897556,1.8897556 0 0 0 -1.88867,1.890625 1.8897556,1.8897556 0 0 0 1.88867,1.890625 1.8897556,1.8897556 0 0 0 1.89063,-1.890625 1.8897556,1.8897556 0 0 0 -1.89063,-1.890625 z m 50.16016,1.650391 v 5.279297 h 5.28125 v -5.279297 z m 12.24023,0 a 2.6399938,2.6399938 0 0 0 -2.63867,2.640625 2.6399938,2.6399938 0 0 0 2.63867,2.638672 2.6399938,2.6399938 0 0 0 2.64063,-2.638672 2.6399938,2.6399938 0 0 0 -2.64063,-2.640625 z m 9.59961,0 a 2.6399938,2.6399938 0 0 0 -2.63867,2.640625 2.6399938,2.6399938 0 0 0 2.63867,2.638672 2.6399938,2.6399938 0 0 0 2.64063,-2.638672 2.6399938,2.6399938 0 0 0 -2.64063,-2.640625 z m 9.60156,0 a 2.6399938,2.6399938 0 0 0 -2.64062,2.640625 2.6399938,2.6399938 0 0 0 2.64062,2.638672 2.6399938,2.6399938 0 0 0 2.63867,-2.638672 2.6399938,2.6399938 0 0 0 -2.63867,-2.640625 z m 9.59961,0 a 2.6399938,2.6399938 0 0 0 -2.64062,2.640625 2.6399938,2.6399938 0 0 0 2.64062,2.638672 2.6399938,2.6399938 0 0 0 2.64063,-2.638672 2.6399938,2.6399938 0 0 0 -2.64063,-2.640625 z m 9.59961,0 a 2.6399938,2.6399938 0 0 0 -2.64062,2.640625 2.6399938,2.6399938 0 0 0 2.64062,2.638672 2.6399938,2.6399938 0 0 0 2.64063,-2.638672 2.6399938,2.6399938 0 0 0 -2.64063,-2.640625 z m 9.59961,0 a 2.6399938,2.6399938 0 0 0 -2.63867,2.640625 2.6399938,2.6399938 0 0 0 2.63867,2.638672 2.6399938,2.6399938 0 0 0 2.64063,-2.638672 2.6399938,2.6399938 0 0 0 -2.64063,-2.640625 z m 9.59961,0 a 2.6399938,2.6399938 0 0 0 -2.63867,2.640625 2.6399938,2.6399938 0 0 0 2.63867,2.638672 2.6399938,2.6399938 0 0 0 2.64063,-2.638672 2.6399938,2.6399938 0 0 0 -2.64063,-2.640625 z m -230.398437,0.75 a 1.8897556,1.8897556 0 0 0 -1.890625,1.890625 1.8897556,1.8897556 0 0 0 1.890625,1.888672 1.8897556,1.8897556 0 0 0 1.888672,-1.888672 1.8897556,1.8897556 0 0 0 -1.888672,-1.890625 z m 153.599607,0 a 1.8897556,1.8897556 0 0 0 -1.89062,1.890625 1.8897556,1.8897556 0 0 0 1.89062,1.888672 1.8897556,1.8897556 0 0 0 1.88867,-1.888672 1.8897556,1.8897556 0 0 0 -1.88867,-1.890625 z m -24.62304,3.099609 v 7.181641 h 6.04687 v -7.181641 z m 11.71679,0 v 7.181641 h 6.04688 v -7.181641 z m 200.10547,0.806641 a 2.7839936,2.7839936 0 0 0 -2.7832,2.783203 2.7839936,2.7839936 0 0 0 2.7832,2.785156 2.7839936,2.7839936 0 0 0 2.78516,-2.785156 2.7839936,2.7839936 0 0 0 -2.78516,-2.783203 z m 19.19922,0 a 2.7839936,2.7839936 0 0 0 -2.7832,2.783203 2.7839936,2.7839936 0 0 0 2.7832,2.785156 2.7839936,2.7839936 0 0 0 2.78516,-2.785156 2.7839936,2.7839936 0 0 0 -2.78516,-2.783203 z m -278.39844,3.294922 a 1.8897556,1.8897556 0 0 0 -1.89062,1.888672 1.8897556,1.8897556 0 0 0 1.89062,1.890625 1.8897556,1.8897556 0 0 0 1.88867,-1.890625 1.8897556,1.8897556 0 0 0 -1.88867,-1.888672 z m 187.19922,7.199219 a 1.8897556,1.8897556 0 0 0 -1.89062,1.890625 1.8897556,1.8897556 0 0 0 1.89062,1.888671 1.8897556,1.8897556 0 0 0 1.88867,-1.888671 1.8897556,1.8897556 0 0 0 -1.88867,-1.890625 z M 9.1523438,88.109375 a 2.7839936,2.7839936 0 0 0 -2.7851563,2.783203 2.7839936,2.7839936 0 0 0 2.7851563,2.785156 2.7839936,2.7839936 0 0 0 2.7832032,-2.785156 2.7839936,2.7839936 0 0 0 -2.7832032,-2.783203 z m 201.4921862,0.04297 a 2.7359936,2.7359936 0 0 0 -2.73633,2.736328 2.7359936,2.7359936 0 0 0 2.73633,2.736328 2.7359936,2.7359936 0 0 0 2.73633,-2.736328 2.7359936,2.7359936 0 0 0 -2.73633,-2.736328 z m -41.0293,0.0059 v 5.470703 h 5.47071 v -2.697265 a 2.7359936,2.7359936 0 0 0 0.002,-0.03906 2.7359936,2.7359936 0 0 0 -0.002,-0.04883 v -2.685547 z m 12.33594,0 a 2.7359936,2.7359936 0 0 0 -2.73633,2.734375 2.7359936,2.7359936 0 0 0 2.73633,2.736328 2.7359936,2.7359936 0 0 0 2.73438,-2.736328 2.7359936,2.7359936 0 0 0 -2.73438,-2.734375 z m 9.60156,0 a 2.7359936,2.7359936 0 0 0 -2.73632,2.734375 2.7359936,2.7359936 0 0 0 2.73632,2.736328 2.7359936,2.7359936 0 0 0 2.73633,-2.736328 2.7359936,2.7359936 0 0 0 -2.73633,-2.734375 z m 9.59961,0 a 2.7359936,2.7359936 0 0 0 -2.73632,2.734375 2.7359936,2.7359936 0 0 0 2.73632,2.736328 2.7359936,2.7359936 0 0 0 2.73438,-2.736328 2.7359936,2.7359936 0 0 0 -2.73438,-2.734375 z M 354.75,93.802734 a 1.8897556,1.8897556 0 0 0 -1.88867,1.890625 1.8897556,1.8897556 0 0 0 1.88867,1.888672 1.8897556,1.8897556 0 0 0 1.89062,-1.888672 1.8897556,1.8897556 0 0 0 -1.89062,-1.890625 z m 96,1.50586 a 2.7839936,2.7839936 0 0 0 -2.7832,2.785156 2.7839936,2.7839936 0 0 0 2.7832,2.7832 2.7839936,2.7839936 0 0 0 2.78516,-2.7832 2.7839936,2.7839936 0 0 0 -2.78516,-2.785156 z m -19.19922,0.894531 a 1.8897556,1.8897556 0 0 0 -1.89062,1.890625 1.8897556,1.8897556 0 0 0 1.89062,1.888672 1.8897556,1.8897556 0 0 0 1.88867,-1.888672 1.8897556,1.8897556 0 0 0 -1.88867,-1.890625 z M 9.1523438,97.708984 a 2.7839936,2.7839936 0 0 0 -2.7851563,2.783206 2.7839936,2.7839936 0 0 0 2.7851563,2.78515 2.7839936,2.7839936 0 0 0 2.7832032,-2.78515 2.7839936,2.7839936 0 0 0 -2.7832032,-2.783206 z m 294.8144562,0 v 5.568356 h 5.56836 v -5.568356 z m 12.38476,0 a 2.7839936,2.7839936 0 0 0 -2.78515,2.783206 2.7839936,2.7839936 0 0 0 2.78515,2.78515 2.7839936,2.7839936 0 0 0 2.78321,-2.78515 2.7839936,2.7839936 0 0 0 -2.78321,-2.783206 z m 9.59961,0 a 2.7839936,2.7839936 0 0 0 -2.7832,2.783206 2.7839936,2.7839936 0 0 0 2.7832,2.78515 2.7839936,2.7839936 0 0 0 2.78321,-2.78515 2.7839936,2.7839936 0 0 0 -2.78321,-2.783206 z m -50.40039,0.384766 a 2.3999944,2.3999944 0 0 0 -2.40039,2.39844 2.3999944,2.3999944 0 0 0 2.40039,2.40039 2.3999944,2.3999944 0 0 0 2.40039,-2.40039 2.3999944,2.3999944 0 0 0 -2.40039,-2.39844 z M 85.951172,98.603516 a 1.8897556,1.8897556 0 0 0 -1.888672,1.890624 1.8897556,1.8897556 0 0 0 1.888672,1.88867 1.8897556,1.8897556 0 0 0 1.890625,-1.88867 1.8897556,1.8897556 0 0 0 -1.890625,-1.890624 z m 179.999998,0 a 1.8897556,1.8897556 0 0 0 -1.89062,1.890624 1.8897556,1.8897556 0 0 0 1.89062,1.88867 1.8897556,1.8897556 0 0 0 1.88867,-1.88867 1.8897556,1.8897556 0 0 0 -1.88867,-1.890624 z m 69.59961,0 a 1.8897556,1.8897556 0 0 0 -1.89062,1.890624 1.8897556,1.8897556 0 0 0 1.89062,1.88867 1.8897556,1.8897556 0 0 0 1.88867,-1.88867 1.8897556,1.8897556 0 0 0 -1.88867,-1.890624 z M 378.75,105.80273 a 1.8897556,1.8897556 0 0 0 -1.88867,1.89063 1.8897556,1.8897556 0 0 0 1.88867,1.88867 1.8897556,1.8897556 0 0 0 1.89062,-1.88867 1.8897556,1.8897556 0 0 0 -1.89062,-1.89063 z m -103.19922,1.90821 a 2.3999944,2.3999944 0 0 0 -2.40039,2.40039 2.3999944,2.3999944 0 0 0 2.40039,2.40039 2.3999944,2.3999944 0 0 0 2.40039,-2.40039 2.3999944,2.3999944 0 0 0 -2.40039,-2.40039 z m -223.199218,2.14258 a 2.6399938,2.6399938 0 0 0 -2.640624,2.64062 2.6399938,2.6399938 0 0 0 2.640624,2.63867 2.6399938,2.6399938 0 0 0 2.640626,-2.63867 2.6399938,2.6399938 0 0 0 -2.640626,-2.64062 z m 9.59961,0 a 2.6399938,2.6399938 0 0 0 -2.638672,2.64062 2.6399938,2.6399938 0 0 0 2.638672,2.63867 2.6399938,2.6399938 0 0 0 2.640625,-2.63867 2.6399938,2.6399938 0 0 0 -2.640625,-2.64062 z m 9.601562,0 a 2.6399938,2.6399938 0 0 0 -2.640625,2.64062 2.6399938,2.6399938 0 0 0 2.640625,2.63867 2.6399938,2.6399938 0 0 0 2.638672,-2.63867 2.6399938,2.6399938 0 0 0 -2.638672,-2.64062 z m 9.59961,0 a 2.6399938,2.6399938 0 0 0 -2.640625,2.64062 2.6399938,2.6399938 0 0 0 2.640625,2.63867 2.6399938,2.6399938 0 0 0 2.638672,-2.63867 2.6399938,2.6399938 0 0 0 -2.638672,-2.64062 z m 9.599609,0 a 2.6399938,2.6399938 0 0 0 -2.640625,2.64062 2.6399938,2.6399938 0 0 0 2.640625,2.63867 2.6399938,2.6399938 0 0 0 2.640625,-2.63867 2.6399938,2.6399938 0 0 0 -2.640625,-2.64062 z m 9.599607,0 a 2.6399938,2.6399938 0 0 0 -2.640622,2.64062 2.6399938,2.6399938 0 0 0 2.640622,2.63867 2.6399938,2.6399938 0 0 0 2.64063,-2.63867 2.6399938,2.6399938 0 0 0 -2.64063,-2.64062 z m 9.59961,0 a 2.6399938,2.6399938 0 0 0 -2.63867,2.64062 2.6399938,2.6399938 0 0 0 2.63867,2.63867 2.6399938,2.6399938 0 0 0 2.64063,-2.63867 2.6399938,2.6399938 0 0 0 -2.64063,-2.64062 z m 52.80078,4.65625 a 2.7839936,2.7839936 0 0 0 -2.78515,2.7832 2.7839936,2.7839936 0 0 0 2.78515,2.7832 2.7839936,2.7839936 0 0 0 2.78321,-2.7832 2.7839936,2.7839936 0 0 0 -2.78321,-2.7832 z m 57.59961,0 a 2.7839936,2.7839936 0 0 0 -2.7832,2.7832 2.7839936,2.7839936 0 0 0 2.7832,2.7832 2.7839936,2.7839936 0 0 0 2.78321,-2.7832 2.7839936,2.7839936 0 0 0 -2.78321,-2.7832 z m 33.59961,0.14453 a 2.6399938,2.6399938 0 0 0 -2.64062,2.63867 2.6399938,2.6399938 0 0 0 2.64062,2.64062 2.6399938,2.6399938 0 0 0 2.64063,-2.64062 2.6399938,2.6399938 0 0 0 -2.64063,-2.63867 z m -24,0.2207 a 2.3999944,2.3999944 0 0 0 -2.40039,2.40039 2.3999944,2.3999944 0 0 0 2.40039,2.40039 2.3999944,2.3999944 0 0 0 2.40039,-2.40039 2.3999944,2.3999944 0 0 0 -2.40039,-2.40039 z m 139.19922,0.0176 a 2.3999944,2.3999944 0 0 0 -2.39844,2.40039 2.3999944,2.3999944 0 0 0 2.39844,2.40039 2.3999944,2.3999944 0 0 0 2.40039,-2.40039 2.3999944,2.3999944 0 0 0 -2.40039,-2.40039 z m 9.61914,0 a 2.3999944,2.3999944 0 0 0 -2.40039,2.40039 2.3999944,2.3999944 0 0 0 2.40039,2.40039 2.3999944,2.3999944 0 0 0 2.39844,-2.40039 2.3999944,2.3999944 0 0 0 -2.39844,-2.40039 z m -72.01758,2.01562 a 2.7839936,2.7839936 0 0 0 -2.78515,2.78516 2.7839936,2.7839936 0 0 0 2.78515,2.7832 2.7839936,2.7839936 0 0 0 2.78321,-2.7832 2.7839936,2.7839936 0 0 0 -2.78321,-2.78516 z m 9.59961,0 a 2.7839936,2.7839936 0 0 0 -2.78515,2.78516 2.7839936,2.7839936 0 0 0 2.78515,2.7832 2.7839936,2.7839936 0 0 0 2.78321,-2.7832 2.7839936,2.7839936 0 0 0 -2.78321,-2.78516 z m 6.81641,0 v 5.56836 h 5.56641 v -5.56836 z m -290.015626,5.69532 a 1.8897556,1.8897556 0 0 0 -1.890625,1.88867 1.8897556,1.8897556 0 0 0 1.890625,1.89062 1.8897556,1.8897556 0 0 0 1.888672,-1.89062 1.8897556,1.8897556 0 0 0 -1.888672,-1.88867 z m 40.798828,0 a 1.8897556,1.8897556 0 0 0 -1.888672,1.88867 1.8897556,1.8897556 0 0 0 1.888672,1.89062 1.8897556,1.8897556 0 0 0 1.890625,-1.89062 1.8897556,1.8897556 0 0 0 -1.890625,-1.88867 z m 146.400388,1.50586 a 2.7839936,2.7839936 0 0 0 -2.7832,2.7832 2.7839936,2.7839936 0 0 0 2.7832,2.78515 2.7839936,2.7839936 0 0 0 2.78321,-2.78515 2.7839936,2.7839936 0 0 0 -2.78321,-2.7832 z m 126.95899,0.14453 v 5.27929 h 5.28125 v -5.27929 z m 31.4414,0 a 2.6399938,2.6399938 0 0 0 -2.64062,2.63867 2.6399938,2.6399938 0 0 0 2.64062,2.64062 2.6399938,2.6399938 0 0 0 2.63867,-2.64062 2.6399938,2.6399938 0 0 0 -2.63867,-2.63867 z m -141.59961,0.22265 a 2.3999944,2.3999944 0 0 0 -2.40039,2.39844 2.3999944,2.3999944 0 0 0 2.40039,2.40039 2.3999944,2.3999944 0 0 0 2.39844,-2.40039 2.3999944,2.3999944 0 0 0 -2.39844,-2.39844 z m -7.20117,0.0156 a 2.3999944,2.3999944 0 0 0 -2.40039,2.40039 2.3999944,2.3999944 0 0 0 2.40039,2.40039 2.3999944,2.3999944 0 0 0 2.40039,-2.40039 2.3999944,2.3999944 0 0 0 -2.40039,-2.40039 z M 9.1523438,126.50977 a 2.7839936,2.7839936 0 0 0 -2.7851563,2.7832 2.7839936,2.7839936 0 0 0 2.7851563,2.7832 2.7839936,2.7839936 0 0 0 2.7832032,-2.7832 2.7839936,2.7839936 0 0 0 -2.7832032,-2.7832 z M 390.75,129.80273 a 1.8897556,1.8897556 0 0 0 -1.88867,1.89063 1.8897556,1.8897556 0 0 0 1.88867,1.88867 1.8897556,1.8897556 0 0 0 1.89062,-1.88867 1.8897556,1.8897556 0 0 0 -1.89062,-1.89063 z m -227.99805,3.90625 a 2.7839936,2.7839936 0 0 0 -2.78515,2.78321 2.7839936,2.7839936 0 0 0 2.78515,2.78515 2.7839936,2.7839936 0 0 0 2.78321,-2.78515 2.7839936,2.7839936 0 0 0 -2.78321,-2.78321 z m 57.59961,0 a 2.7839936,2.7839936 0 0 0 -2.7832,2.78321 2.7839936,2.7839936 0 0 0 2.7832,2.78515 2.7839936,2.7839936 0 0 0 2.78321,-2.78515 2.7839936,2.7839936 0 0 0 -2.78321,-2.78321 z m 24,0.14454 a 2.6399938,2.6399938 0 0 0 -2.64062,2.64062 2.6399938,2.6399938 0 0 0 2.64062,2.63867 2.6399938,2.6399938 0 0 0 2.64063,-2.63867 2.6399938,2.6399938 0 0 0 -2.64063,-2.64062 z m 105.59961,0 a 2.6399938,2.6399938 0 0 0 -2.64062,2.63867 2.6399938,2.6399938 0 0 0 2.64062,2.64062 2.6399938,2.6399938 0 0 0 2.64063,-2.64062 2.6399938,2.6399938 0 0 0 -2.64063,-2.63867 z m 28.80078,0 a 2.6399938,2.6399938 0 0 0 -2.64062,2.63867 2.6399938,2.6399938 0 0 0 2.64062,2.64062 2.6399938,2.6399938 0 0 0 2.63867,-2.64062 2.6399938,2.6399938 0 0 0 -2.63867,-2.63867 z m -141.59961,0.24023 a 2.3999944,2.3999944 0 0 0 -2.40039,2.40039 2.3999944,2.3999944 0 0 0 2.40039,2.39844 2.3999944,2.3999944 0 0 0 2.39844,-2.39844 2.3999944,2.3999944 0 0 0 -2.39844,-2.40039 z m 43.19922,0.50977 a 1.8897556,1.8897556 0 0 0 -1.89062,1.88867 1.8897556,1.8897556 0 0 0 1.89062,1.89062 1.8897556,1.8897556 0 0 0 1.88867,-1.89062 1.8897556,1.8897556 0 0 0 -1.88867,-1.88867 z M 9.1523438,136.10938 a 2.7839936,2.7839936 0 0 0 -2.7851563,2.7832 2.7839936,2.7839936 0 0 0 2.7851563,2.78515 2.7839936,2.7839936 0 0 0 2.7832032,-2.78515 2.7839936,2.7839936 0 0 0 -2.7832032,-2.7832 z m 40.5585942,2.54296 v 5.28125 h 5.28125 v -5.28125 z m 12.240234,0 a 2.6399938,2.6399938 0 0 0 -2.638672,2.64063 2.6399938,2.6399938 0 0 0 2.638672,2.64062 2.6399938,2.6399938 0 0 0 2.640625,-2.64062 2.6399938,2.6399938 0 0 0 -2.640625,-2.64063 z m 9.601562,0 a 2.6399938,2.6399938 0 0 0 -2.640625,2.64063 2.6399938,2.6399938 0 0 0 2.640625,2.64062 2.6399938,2.6399938 0 0 0 2.638672,-2.64062 2.6399938,2.6399938 0 0 0 -2.638672,-2.64063 z m 9.59961,0 a 2.6399938,2.6399938 0 0 0 -2.640625,2.64063 2.6399938,2.6399938 0 0 0 2.640625,2.64062 2.6399938,2.6399938 0 0 0 2.638672,-2.64062 2.6399938,2.6399938 0 0 0 -2.638672,-2.64063 z m 9.599609,0 a 2.6399938,2.6399938 0 0 0 -2.640625,2.64063 2.6399938,2.6399938 0 0 0 2.640625,2.64062 2.6399938,2.6399938 0 0 0 2.640625,-2.64062 2.6399938,2.6399938 0 0 0 -2.640625,-2.64063 z m 9.599607,0 a 2.6399938,2.6399938 0 0 0 -2.640622,2.64063 2.6399938,2.6399938 0 0 0 2.640622,2.64062 2.6399938,2.6399938 0 0 0 2.64063,-2.64062 2.6399938,2.6399938 0 0 0 -2.64063,-2.64063 z m 9.59961,0 a 2.6399938,2.6399938 0 0 0 -2.63867,2.64063 2.6399938,2.6399938 0 0 0 2.63867,2.64062 2.6399938,2.6399938 0 0 0 2.64063,-2.64062 2.6399938,2.6399938 0 0 0 -2.64063,-2.64063 z m 153.59961,3.15039 a 1.8897556,1.8897556 0 0 0 -1.89062,1.89063 1.8897556,1.8897556 0 0 0 1.89062,1.88867 1.8897556,1.8897556 0 0 0 1.88867,-1.88867 1.8897556,1.8897556 0 0 0 -1.88867,-1.89063 z M 450.75,143.30859 a 2.7839936,2.7839936 0 0 0 -2.7832,2.78516 2.7839936,2.7839936 0 0 0 2.7832,2.7832 2.7839936,2.7839936 0 0 0 2.78516,-2.7832 2.7839936,2.7839936 0 0 0 -2.78516,-2.78516 z m -100.79883,0.14453 a 2.6399938,2.6399938 0 0 0 -2.64062,2.64063 2.6399938,2.6399938 0 0 0 2.64062,2.63867 2.6399938,2.6399938 0 0 0 2.64063,-2.63867 2.6399938,2.6399938 0 0 0 -2.64063,-2.64063 z m 28.80078,0 a 2.6399938,2.6399938 0 0 0 -2.64062,2.64063 2.6399938,2.6399938 0 0 0 2.64062,2.63867 2.6399938,2.6399938 0 0 0 2.63867,-2.63867 2.6399938,2.6399938 0 0 0 -2.63867,-2.64063 z m 19.19922,0.75 a 1.8897556,1.8897556 0 0 0 -1.89062,1.88868 1.8897556,1.8897556 0 0 0 1.89062,1.89062 1.8897556,1.8897556 0 0 0 1.88867,-1.89062 1.8897556,1.8897556 0 0 0 -1.88867,-1.88868 z m -316.816404,6.68946 a 2.3999944,2.3999944 0 0 0 -2.400391,2.40039 2.3999944,2.3999944 0 0 0 2.400391,2.40039 2.3999944,2.3999944 0 0 0 2.398437,-2.40039 2.3999944,2.3999944 0 0 0 -2.398437,-2.40039 z m 9.617187,0 a 2.3999944,2.3999944 0 0 0 -2.400391,2.40039 2.3999944,2.3999944 0 0 0 2.400391,2.40039 2.3999944,2.3999944 0 0 0 2.400391,-2.40039 2.3999944,2.3999944 0 0 0 -2.400391,-2.40039 z m 50.398437,0.50976 a 1.8897556,1.8897556 0 0 0 -1.88867,1.89063 1.8897556,1.8897556 0 0 0 1.88867,1.88867 1.8897556,1.8897556 0 0 0 1.89063,-1.88867 1.8897556,1.8897556 0 0 0 -1.89063,-1.89063 z M 450.75,152.91016 a 2.7839936,2.7839936 0 0 0 -2.7832,2.7832 2.7839936,2.7839936 0 0 0 2.7832,2.7832 2.7839936,2.7839936 0 0 0 2.78516,-2.7832 2.7839936,2.7839936 0 0 0 -2.78516,-2.7832 z m -196.79883,0.14257 a 2.6399938,2.6399938 0 0 0 -2.64062,2.64063 2.6399938,2.6399938 0 0 0 2.64062,2.64062 2.6399938,2.6399938 0 0 0 2.64063,-2.64062 2.6399938,2.6399938 0 0 0 -2.64063,-2.64063 z m 96,0 a 2.6399938,2.6399938 0 0 0 -2.64062,2.64063 2.6399938,2.6399938 0 0 0 2.64062,2.63867 2.6399938,2.6399938 0 0 0 2.64063,-2.63867 2.6399938,2.6399938 0 0 0 -2.64063,-2.64063 z m 28.80078,0 a 2.6399938,2.6399938 0 0 0 -2.64062,2.64063 2.6399938,2.6399938 0 0 0 2.64062,2.63867 2.6399938,2.6399938 0 0 0 2.63867,-2.63867 2.6399938,2.6399938 0 0 0 -2.63867,-2.64063 z m -67.20117,0.75 a 1.8897556,1.8897556 0 0 0 -1.89062,1.89063 1.8897556,1.8897556 0 0 0 1.89062,1.88867 1.8897556,1.8897556 0 0 0 1.88867,-1.88867 1.8897556,1.8897556 0 0 0 -1.88867,-1.89063 z m 93.59961,0 a 1.8897556,1.8897556 0 0 0 -1.89062,1.89063 1.8897556,1.8897556 0 0 0 1.89062,1.88867 1.8897556,1.8897556 0 0 0 1.89063,-1.88867 1.8897556,1.8897556 0 0 0 -1.89063,-1.89063 z m 45.59961,8.70704 a 2.7839936,2.7839936 0 0 0 -2.7832,2.7832 2.7839936,2.7839936 0 0 0 2.7832,2.78515 2.7839936,2.7839936 0 0 0 2.78516,-2.78515 2.7839936,2.7839936 0 0 0 -2.78516,-2.7832 z m -187.26562,0.0664 a 2.6399938,2.6399938 0 0 0 -2.64063,2.64063 2.6399938,2.6399938 0 0 0 2.64063,2.63867 2.6399938,2.6399938 0 0 0 2.64062,-2.63867 2.6399938,2.6399938 0 0 0 -2.64062,-2.64063 z m 9.5996,0 a 2.6399938,2.6399938 0 0 0 -2.63867,2.64063 2.6399938,2.6399938 0 0 0 2.63867,2.63867 2.6399938,2.6399938 0 0 0 2.64063,-2.63867 2.6399938,2.6399938 0 0 0 -2.64063,-2.64063 z m 9.60157,0 a 2.6399938,2.6399938 0 0 0 -2.64063,2.64063 2.6399938,2.6399938 0 0 0 2.64063,2.63867 2.6399938,2.6399938 0 0 0 2.63867,-2.63867 2.6399938,2.6399938 0 0 0 -2.63867,-2.64063 z m 9.59961,0 a 2.6399938,2.6399938 0 0 0 -2.64063,2.64063 2.6399938,2.6399938 0 0 0 2.64063,2.63867 2.6399938,2.6399938 0 0 0 2.63867,-2.63867 2.6399938,2.6399938 0 0 0 -2.63867,-2.64063 z m 9.59961,0 a 2.6399938,2.6399938 0 0 0 -2.64063,2.64063 2.6399938,2.6399938 0 0 0 2.64063,2.63867 2.6399938,2.6399938 0 0 0 2.64062,-2.63867 2.6399938,2.6399938 0 0 0 -2.64062,-2.64063 z m 9.59961,0 a 2.6399938,2.6399938 0 0 0 -2.64063,2.64063 2.6399938,2.6399938 0 0 0 2.64063,2.63867 2.6399938,2.6399938 0 0 0 2.64062,-2.63867 2.6399938,2.6399938 0 0 0 -2.64062,-2.64063 z m 9.5996,0 a 2.6399938,2.6399938 0 0 0 -2.63867,2.64063 2.6399938,2.6399938 0 0 0 2.63867,2.63867 2.6399938,2.6399938 0 0 0 2.64063,-2.63867 2.6399938,2.6399938 0 0 0 -2.64063,-2.64063 z m 28.86719,0.0762 a 2.6399938,2.6399938 0 0 0 -2.64062,2.64063 2.6399938,2.6399938 0 0 0 2.64062,2.64062 2.6399938,2.6399938 0 0 0 2.64063,-2.64062 2.6399938,2.6399938 0 0 0 -2.64063,-2.64063 z m 28.80078,0 a 2.6399938,2.6399938 0 0 0 -2.64062,2.64063 2.6399938,2.6399938 0 0 0 2.64062,2.64062 2.6399938,2.6399938 0 0 0 2.63867,-2.64062 2.6399938,2.6399938 0 0 0 -2.63867,-2.64063 z m -182.40039,0.24024 a 2.3999944,2.3999944 0 0 0 -2.40039,2.40039 2.3999944,2.3999944 0 0 0 2.40039,2.40039 2.3999944,2.3999944 0 0 0 2.40039,-2.40039 2.3999944,2.3999944 0 0 0 -2.40039,-2.40039 z m 9.61719,0 a 2.3999944,2.3999944 0 0 0 -2.40039,2.40039 2.3999944,2.3999944 0 0 0 2.40039,2.40039 2.3999944,2.3999944 0 0 0 2.40039,-2.40039 2.3999944,2.3999944 0 0 0 -2.40039,-2.40039 z m 213.58203,0.50976 a 1.8897556,1.8897556 0 0 0 -1.89062,1.89063 1.8897556,1.8897556 0 0 0 1.89062,1.88867 1.8897556,1.8897556 0 0 0 1.88867,-1.88867 1.8897556,1.8897556 0 0 0 -1.88867,-1.89063 z M 66.884766,165.5762 v 4.53516 h 4.535156 V 165.5762 Z M 450.75,172.10938 a 2.7839936,2.7839936 0 0 0 -2.7832,2.7832 2.7839936,2.7839936 0 0 0 2.7832,2.78515 2.7839936,2.7839936 0 0 0 2.78516,-2.78515 2.7839936,2.7839936 0 0 0 -2.78516,-2.7832 z m -254.39844,0.14453 a 2.6399938,2.6399938 0 0 0 -2.64062,2.63867 2.6399938,2.6399938 0 0 0 2.64062,2.64062 2.6399938,2.6399938 0 0 0 2.64063,-2.64062 2.6399938,2.6399938 0 0 0 -2.64063,-2.63867 z m 38.40039,0 a 2.6399938,2.6399938 0 0 0 -2.64062,2.63867 2.6399938,2.6399938 0 0 0 2.64062,2.64062 2.6399938,2.6399938 0 0 0 2.63867,-2.64062 2.6399938,2.6399938 0 0 0 -2.63867,-2.63867 z m 9.59961,0 a 2.6399938,2.6399938 0 0 0 -2.64062,2.63867 2.6399938,2.6399938 0 0 0 2.64062,2.64062 2.6399938,2.6399938 0 0 0 2.64063,-2.64062 2.6399938,2.6399938 0 0 0 -2.64063,-2.63867 z m 105.59961,0 a 2.6399938,2.6399938 0 0 0 -2.64062,2.63867 2.6399938,2.6399938 0 0 0 2.64062,2.64062 2.6399938,2.6399938 0 0 0 2.64063,-2.64062 2.6399938,2.6399938 0 0 0 -2.64063,-2.63867 z m 28.80078,0 a 2.6399938,2.6399938 0 0 0 -2.64062,2.63867 2.6399938,2.6399938 0 0 0 2.64062,2.64062 2.6399938,2.6399938 0 0 0 2.63867,-2.64062 2.6399938,2.6399938 0 0 0 -2.63867,-2.63867 z m -43.20117,0.74804 a 1.8897556,1.8897556 0 0 0 -1.89062,1.89063 1.8897556,1.8897556 0 0 0 1.89062,1.89062 1.8897556,1.8897556 0 0 0 1.88867,-1.89062 1.8897556,1.8897556 0 0 0 -1.88867,-1.89063 z m 76.79883,0 a 1.8897556,1.8897556 0 0 0 -1.88867,1.89063 1.8897556,1.8897556 0 0 0 1.88867,1.89062 1.8897556,1.8897556 0 0 0 1.89062,-1.89062 1.8897556,1.8897556 0 0 0 -1.89062,-1.89063 z m -343.197266,2.02344 a 2.2677279,2.2677279 0 0 0 -2.267578,2.26758 2.2677279,2.2677279 0 0 0 2.267578,2.26758 2.2677279,2.2677279 0 0 0 2.267578,-2.26758 2.2677279,2.2677279 0 0 0 -2.267578,-2.26758 z m 280.798826,6.82813 a 2.6399938,2.6399938 0 0 0 -2.64062,2.63867 2.6399938,2.6399938 0 0 0 2.64062,2.64062 2.6399938,2.6399938 0 0 0 2.64063,-2.64062 2.6399938,2.6399938 0 0 0 -2.64063,-2.63867 z m 28.80078,0 a 2.6399938,2.6399938 0 0 0 -2.64062,2.63867 2.6399938,2.6399938 0 0 0 2.64062,2.64062 2.6399938,2.6399938 0 0 0 2.63867,-2.64062 2.6399938,2.6399938 0 0 0 -2.63867,-2.63867 z m -43.20117,0.22265 a 2.3999944,2.3999944 0 0 0 -2.40039,2.39844 2.3999944,2.3999944 0 0 0 2.40039,2.40039 2.3999944,2.3999944 0 0 0 2.40039,-2.40039 2.3999944,2.3999944 0 0 0 -2.40039,-2.39844 z m 55.19922,2.92578 a 1.8897556,1.8897556 0 0 0 -1.88867,1.89063 1.8897556,1.8897556 0 0 0 1.88867,1.88867 1.8897556,1.8897556 0 0 0 1.89062,-1.88867 1.8897556,1.8897556 0 0 0 -1.89062,-1.89063 z m -379.197266,5.44532 a 6.0472258,6.0472258 0 0 0 -6.0468746,6.04687 6.0472258,6.0472258 0 0 0 6.0468746,6.04688 6.0472258,6.0472258 0 0 0 6.046875,-6.04688 6.0472258,6.0472258 0 0 0 -6.046875,-6.04687 z m 439.199216,0 a 6.0472258,6.0472258 0 0 0 -6.04687,6.04687 6.0472258,6.0472258 0 0 0 6.04687,6.04688 6.0472258,6.0472258 0 0 0 6.04688,-6.04688 6.0472258,6.0472258 0 0 0 -6.04688,-6.04687 z m -189.9082,0.92773 v 5.28125 H 266.125 V 191.375 Z m 12.24023,0 a 2.6399938,2.6399938 0 0 0 -2.63867,2.64062 2.6399938,2.6399938 0 0 0 2.63867,2.64063 2.6399938,2.6399938 0 0 0 2.64063,-2.64063 2.6399938,2.6399938 0 0 0 -2.64063,-2.64062 z m 9.60157,0 a 2.6399938,2.6399938 0 0 0 -2.64063,2.64062 2.6399938,2.6399938 0 0 0 2.64063,2.64063 2.6399938,2.6399938 0 0 0 2.63867,-2.64063 2.6399938,2.6399938 0 0 0 -2.63867,-2.64062 z m 9.59961,0 a 2.6399938,2.6399938 0 0 0 -2.64063,2.64062 2.6399938,2.6399938 0 0 0 2.64063,2.64063 2.6399938,2.6399938 0 0 0 2.63867,-2.64063 2.6399938,2.6399938 0 0 0 -2.63867,-2.64062 z m 9.59961,0 a 2.6399938,2.6399938 0 0 0 -2.64063,2.64062 2.6399938,2.6399938 0 0 0 2.64063,2.64063 2.6399938,2.6399938 0 0 0 2.64062,-2.64063 2.6399938,2.6399938 0 0 0 -2.64062,-2.64062 z m 9.59961,0 a 2.6399938,2.6399938 0 0 0 -2.64063,2.64062 2.6399938,2.6399938 0 0 0 2.64063,2.64063 2.6399938,2.6399938 0 0 0 2.64062,-2.64063 2.6399938,2.6399938 0 0 0 -2.64062,-2.64062 z m 9.5996,0 a 2.6399938,2.6399938 0 0 0 -2.63867,2.64062 2.6399938,2.6399938 0 0 0 2.63867,2.64063 2.6399938,2.6399938 0 0 0 2.64063,-2.64063 2.6399938,2.6399938 0 0 0 -2.64063,-2.64062 z m 28.86719,0.0781 a 2.6399938,2.6399938 0 0 0 -2.64062,2.64063 2.6399938,2.6399938 0 0 0 2.64062,2.63867 2.6399938,2.6399938 0 0 0 2.64063,-2.63867 2.6399938,2.6399938 0 0 0 -2.64063,-2.64063 z m 28.80078,0 a 2.6399938,2.6399938 0 0 0 -2.64062,2.64063 2.6399938,2.6399938 0 0 0 2.64062,2.63867 2.6399938,2.6399938 0 0 0 2.63867,-2.63867 2.6399938,2.6399938 0 0 0 -2.63867,-2.64063 z m -43.20117,0.24024 a 2.3999944,2.3999944 0 0 0 -2.40039,2.40039 2.3999944,2.3999944 0 0 0 2.40039,2.40039 2.3999944,2.3999944 0 0 0 2.40039,-2.40039 2.3999944,2.3999944 0 0 0 -2.40039,-2.40039 z"
       transform="matrix(0.75000176,0,0,0.75000176,0,-2.2486017e-4)"
       id="connector0pin"
       inkscape:connector-curvature="0" />
    <path
       style="color:#000000;font-style:normal;font-variant:normal;font-weight:normal;font-stretch:normal;font-size:medium;line-height:normal;font-family:sans-serif;font-variant-ligatures:normal;font-variant-position:normal;font-variant-caps:normal;font-variant-numeric:normal;font-variant-alternates:normal;font-feature-settings:normal;text-indent:0;text-align:start;text-decoration:none;text-decoration-line:none;text-decoration-style:solid;text-decoration-color:#000000;letter-spacing:normal;word-spacing:normal;text-transform:none;writing-mode:lr-tb;direction:ltr;text-orientation:mixed;dominant-baseline:auto;baseline-shift:baseline;text-anchor:start;white-space:normal;shape-padding:0;clip-rule:nonzero;display:inline;overflow:visible;visibility:visible;opacity:1;isolation:auto;mix-blend-mode:normal;color-interpolation:sRGB;color-interpolation-filters:linearRGB;solid-color:#000000;solid-opacity:1;vector-effect:none;fill:#000000;fill-opacity:1;fill-rule:nonzero;stroke:none;stroke-width:0.49999997;stroke-linecap:butt;stroke-linejoin:miter;stroke-miterlimit:4;stroke-dasharray:none;stroke-dashoffset:0;stroke-opacity:1;color-rendering:auto;image-rendering:auto;shape-rendering:auto;text-rendering:auto;enable-background:accumulate"
       d="M 0.03722,0.03789971 V 0.28789972 155.78009 H 347.38878 V 0.03789971 Z m 0.5,0.5 H 346.88878 V 155.28008 H 0.53722 Z"
       id="boardoutline"
       inkscape:connector-curvature="0" />
  </g>
</svg>
