<?xml version='1.0' encoding='UTF-8' standalone='no'?>
<!-- Created with Fritzing (http://www.fritzing.org/) -->
<svg xmlns="http://www.w3.org/2000/svg" version="1.2" width="4.82535in" viewBox="0 0 347.426 155.818" xmlns:svg="http://www.w3.org/2000/svg" baseProfile="tiny" x="0in" y="0in" height="2.16414in" >
 <g partID="57330">
  <g id="board" >
   <rect fill="none" id="boardoutline" stroke="black" stroke-width="0.5" width="346.85" fill-opacity="0.5" x="0.288" height="155.242" y="0.288" />
  </g>
 </g>
 <g partID="859050941">
  <g transform="translate(160.224,82.9298)">
   <g id="copper1" >
    <g id="copper0" >
     <g fill="none" id="0" r="2.088" cx="5.04" cy="5.04" stroke="black" stroke-width="1.44" />
     <g fill="none" id="1" r="2.088" cx="5.04" cy="12.24" stroke="black" stroke-width="1.44" />
     <g fill="none" id="2" r="2.088" cx="5.04" cy="19.44" stroke="black" stroke-width="1.44" />
    </g>
   </g>
  </g>
 </g>
 <g partID="859077171">
  <g transform="translate(248.784,148.45)">
   <g transform="matrix(0,-1,1,0,0,0)">
    <g id="copper1" >
     <g fill="none" id="3" r="1.8" cx="2.88" cy="2.88" stroke="black" stroke-width="1.44" />
     <g fill="none" id="4" r="1.8" cx="10.0933" cy="2.88" stroke="black" stroke-width="1.44" />
    </g>
   </g>
  </g>
 </g>
 <g partID="859063981">
  <g transform="translate(273.984,85.0898)">
   <g id="copper1" >
    <g fill="none" id="5" r="1.8" cx="2.88" cy="2.88" stroke="black" stroke-width="1.44" />
    <g fill="none" id="6" r="1.8" cx="10.0933" cy="2.88" stroke="black" stroke-width="1.44" />
   </g>
  </g>
 </g>
 <g partID="859084681">
  <g transform="translate(195.454,71.3604)">
   <g id="copper1" >
    <g fill="none" id="7" r="1.41732" cx="4.00945" cy="4.00945" stroke-width="1.98426" stroke="black" />
   </g>
  </g>
 </g>
 <g partID="858967461">
  <g transform="translate(60.652,136.516)">
   <g transform="matrix(-1,0,0,-1,0,0)">
    <g id="copper1" >
     <g fill="none" id="8" r="1.7008" cx="8.7876" cy="10.6336" stroke="black" stroke-width="1.13384" />
     <g fill="none" id="9" stroke="black" stroke-width="1.13384" width="3.4016" x="7.0868" y="8.9328" height="3.4016" />
     <g fill="none" id="10" r="1.7008" cx="8.7876" cy="3.5464" stroke="black" stroke-width="1.13384" />
    </g>
   </g>
  </g>
 </g>
 <g partID="858973531">
  <g transform="translate(1.824,91.9298)">
   <g id="copper1" >
    <g id="copper0" >
     <g fill="none" id="11" r="2.088" cx="5.04" cy="5.04" stroke="black" stroke-width="1.44" />
     <g fill="none" id="12" r="2.088" cx="5.04" cy="12.24" stroke="black" stroke-width="1.44" />
    </g>
   </g>
  </g>
 </g>
 <g partID="858972641">
  <g transform="translate(1.824,34.3298)">
   <g id="copper1" >
    <g id="copper0" >
     <g fill="none" id="13" r="2.088" cx="5.04" cy="5.04" stroke="black" stroke-width="1.44" />
     <g fill="none" id="14" r="2.088" cx="5.04" cy="12.24" stroke="black" stroke-width="1.44" />
    </g>
   </g>
  </g>
 </g>
 <g partID="858979941">
  <g transform="translate(100.104,57.7298)">
   <g transform="matrix(0,-1,1,0,0,0)">
    <g id="copper1" >
     <g id="copper0" >
      <g fill="none" id="15" width="3.96" stroke-width="1.44" stroke="black" x="1.98" height="3.96" y="5.58" />
      <g fill="none" id="16" r="1.98" cx="3.96" cy="7.56" stroke-width="1.44" stroke="black" />
      <g fill="none" id="17" r="1.98" cx="11.16" cy="7.56" stroke-width="1.44" stroke="black" />
     </g>
    </g>
   </g>
  </g>
 </g>
 <g partID="858898711">
  <g transform="translate(209.544,72.4898)">
   <g transform="matrix(0,1,-1,0,0,0)">
    <g id="copper1" >
     <g fill="none" id="18" r="1.8" cx="2.88" cy="2.88" stroke="black" stroke-width="1.44" />
     <g fill="none" id="19" r="1.8" cx="10.0933" cy="2.88" stroke="black" stroke-width="1.44" />
    </g>
   </g>
  </g>
 </g>
 <g partID="858898241">
  <g transform="translate(319.654,69.5604)">
   <g id="copper1" >
    <g fill="none" id="20" r="1.41732" cx="4.00945" cy="4.00945" stroke-width="1.98426" stroke="black" />
   </g>
  </g>
 </g>
 <g partID="858898511">
  <g transform="translate(118.054,8.36038)">
   <g id="copper1" >
    <g fill="none" id="21" r="1.41732" cx="4.00945" cy="4.00945" stroke-width="1.98426" stroke="black" />
   </g>
  </g>
 </g>
 <g partID="858899731">
  <g transform="translate(247.654,71.3604)">
   <g id="copper1" >
    <g fill="none" id="22" r="1.41732" cx="4.00945" cy="4.00945" stroke-width="1.98426" stroke="black" />
   </g>
  </g>
 </g>
 <g partID="858916041">
  <g transform="translate(64.0544,51.5604)">
   <g id="copper1" >
    <g fill="none" id="23" r="1.41732" cx="4.00945" cy="4.00945" stroke-width="1.98426" stroke="black" />
   </g>
  </g>
 </g>
 <g partID="858916101">
  <g transform="translate(34.224,12.0098)">
   <g transform="matrix(0,-1,1,0,0,0)">
    <g id="copper1" >
     <g id="copper0" >
      <g fill="none" id="24" r="2.088" cx="5.04" cy="5.04" stroke="black" stroke-width="1.44" />
      <g fill="none" id="25" r="2.088" cx="5.04" cy="12.24" stroke="black" stroke-width="1.44" />
     </g>
    </g>
   </g>
  </g>
 </g>
 <g partID="858916741">
  <g transform="translate(193.654,103.76)">
   <g id="copper1" >
    <g fill="none" id="26" r="1.41732" cx="4.00945" cy="4.00945" stroke-width="1.98426" stroke="black" />
   </g>
  </g>
 </g>
 <g partID="859028291">
  <g transform="translate(144.564,128.074)">
   <g id="copper1" >
    <!-- <rect width="55" x="10" y="15.5" fill="none" height="55" stroke="rgb(255, 191, 0)" stroke-width="20" />  -->
    <g fill="none" id="27" r="1.98" cx="2.7" cy="3.096" stroke="black" stroke-width="1.44" />
    <g fill="none" id="28" r="1.98" cx="31.5" cy="3.096" stroke="black" stroke-width="1.44" />
   </g>
  </g>
 </g>
 <g partID="859031101">
  <g transform="translate(144.384,121.09)">
   <g transform="matrix(1,0,0,1,0,0)">
    <g id="copper1" >
     <g fill="none" id="29" r="1.8" cx="2.88" cy="2.88" stroke="black" stroke-width="1.44" />
     <g fill="none" id="30" r="1.8" cx="10.0933" cy="2.88" stroke="black" stroke-width="1.44" />
    </g>
   </g>
  </g>
 </g>
 <g partID="858929261">
  <g transform="translate(101.854,110.96)">
   <g id="copper1" >
    <g fill="none" id="31" r="1.41732" cx="4.00945" cy="4.00945" stroke-width="1.98426" stroke="black" />
   </g>
  </g>
 </g>
 <g partID="858930261">
  <g transform="translate(60.4544,71.3604)">
   <g id="copper1" >
    <g fill="none" id="32" r="1.41732" cx="4.00945" cy="4.00945" stroke-width="1.98426" stroke="black" />
   </g>
  </g>
 </g>
 <g partID="858930701">
  <g transform="translate(11.904,80.4098)">
   <g transform="matrix(-1,0,0,-1,0,0)">
    <g id="copper1" >
     <g id="copper0" >
      <g fill="none" id="33" r="2.088" cx="5.04" cy="5.04" stroke="black" stroke-width="1.44" />
      <g fill="none" id="34" r="2.088" cx="5.04" cy="12.24" stroke="black" stroke-width="1.44" />
     </g>
    </g>
   </g>
  </g>
 </g>
 <g partID="858944971">
  <g transform="translate(70.944,117.85)">
   <g transform="matrix(-1,0,0,-1,0,0)">
    <g id="copper1" >
     <g fill="none" id="35" r="1.8" cx="2.88" cy="2.88" stroke="black" stroke-width="1.44" />
     <g fill="none" id="36" r="1.8" cx="10.0933" cy="2.88" stroke="black" stroke-width="1.44" />
    </g>
   </g>
  </g>
 </g>
 <g partID="858947911">
  <g transform="translate(51.4544,89.3602)">
   <g id="copper1" >
    <g fill="none" id="37" r="1.41732" cx="4.00945" cy="4.00945" stroke-width="1.98426" stroke="black" />
   </g>
  </g>
 </g>
 <g partID="858948211">
  <g transform="translate(20.8544,89.3602)">
   <g id="copper1" >
    <g fill="none" id="38" r="1.41732" cx="4.00945" cy="4.00945" stroke-width="1.98426" stroke="black" />
   </g>
  </g>
 </g>
 <g partID="858949741">
  <g transform="translate(35.2544,31.7604)">
   <g id="copper1" >
    <g fill="none" id="39" r="1.41732" cx="4.00945" cy="4.00945" stroke-width="1.98426" stroke="black" />
   </g>
  </g>
 </g>
 <g partID="858950881">
  <g transform="translate(64.0544,31.7604)">
   <g id="copper1" >
    <g fill="none" id="40" r="1.41732" cx="4.00945" cy="4.00945" stroke-width="1.98426" stroke="black" />
   </g>
  </g>
 </g>
 <g partID="858951671">
  <g transform="translate(86.784,49.4498)">
   <g transform="matrix(0,-1,1,0,0,0)">
    <g id="copper1" >
     <g fill="none" id="41" r="1.8" cx="2.88" cy="2.88" stroke="black" stroke-width="1.44" />
     <g fill="none" id="42" r="1.8" cx="10.0933" cy="2.88" stroke="black" stroke-width="1.44" />
    </g>
   </g>
  </g>
 </g>
 <g partID="858868701">
  <g transform="translate(265.654,62.3604)">
   <g id="copper1" >
    <g fill="none" id="43" r="1.41732" cx="4.00945" cy="4.00945" stroke-width="1.98426" stroke="black" />
   </g>
  </g>
 </g>
 <g partID="858868761">
  <g transform="translate(262.054,67.7604)">
   <g id="copper1" >
    <g fill="none" id="44" r="1.41732" cx="4.00945" cy="4.00945" stroke-width="1.98426" stroke="black" />
   </g>
  </g>
 </g>
 <g partID="858869231">
  <g transform="translate(254.855,44.3604)">
   <g id="copper1" >
    <g fill="none" id="45" r="1.41732" cx="4.00945" cy="4.00945" stroke-width="1.98426" stroke="black" />
   </g>
  </g>
 </g>
 <g partID="858869291">
  <g transform="translate(249.455,35.3604)">
   <g id="copper1" >
    <g fill="none" id="46" r="1.41732" cx="4.00945" cy="4.00945" stroke-width="1.98426" stroke="black" />
   </g>
  </g>
 </g>
 <g partID="858871001">
  <g transform="translate(150.454,13.7604)">
   <g id="copper1" >
    <g fill="none" id="47" r="1.41732" cx="4.00945" cy="4.00945" stroke-width="1.98426" stroke="black" />
   </g>
  </g>
 </g>
 <g partID="858871451">
  <g transform="translate(215.254,22.7604)">
   <g id="copper1" >
    <g fill="none" id="48" r="1.41732" cx="4.00945" cy="4.00945" stroke-width="1.98426" stroke="black" />
   </g>
  </g>
 </g>
 <g partID="858871120">
  <g transform="translate(184.298,22.8297)">
   <g transform="matrix(-1,0,0,-1,0,0)">
    <g id="copper1" >
     <rect fill="black" id="49" width="4.53543" stroke-width="0" stroke="none" x="0.566929" fill-opacity="1" height="5.38583" y="0.566929" />
     <rect fill="black" id="50" width="4.53543" stroke-width="0" stroke="none" x="9.35433" fill-opacity="1" height="5.38583" y="0.566929" />
    </g>
   </g>
  </g>
 </g>
 <g partID="858871581">
  <g transform="translate(205.513,23.7525)">
   <g id="copper1" >
    <g fill="none" id="51" r="0.992124" cx="3.01733" cy="3.01733" stroke-width="0.850392" stroke="black" />
   </g>
  </g>
 </g>
 <g partID="858872101">
  <g transform="translate(161.254,20.9604)">
   <g id="copper1" >
    <g fill="none" id="52" r="1.41732" cx="4.00945" cy="4.00945" stroke-width="1.98426" stroke="black" />
   </g>
  </g>
 </g>
 <g partID="858871820">
  <g transform="translate(184.51,31.8297)">
   <g transform="matrix(-1,0,0,-1,0,0)">
    <g id="copper1" >
     <rect fill="black" id="53" width="4.53543" stroke-width="0" stroke="none" x="0.566929" fill-opacity="1" height="5.38583" y="0.566929" />
     <rect fill="black" id="54" width="4.53543" stroke-width="0" stroke="none" x="9.35433" fill-opacity="1" height="5.38583" y="0.566929" />
    </g>
   </g>
  </g>
 </g>
 <g partID="858878371">
  <g transform="translate(244.055,22.7604)">
   <g id="copper1" >
    <g fill="none" id="55" r="1.41732" cx="4.00945" cy="4.00945" stroke-width="1.98426" stroke="black" />
   </g>
  </g>
 </g>
 <g partID="858854781">
  <g transform="translate(125.254,56.9604)">
   <g id="copper1" >
    <g fill="none" id="56" r="1.41732" cx="4.00945" cy="4.00945" stroke-width="1.98426" stroke="black" />
   </g>
  </g>
 </g>
 <g partID="858854861">
  <g transform="translate(179.254,51.5604)">
   <g id="copper1" >
    <g fill="none" id="57" r="1.41732" cx="4.00945" cy="4.00945" stroke-width="1.98426" stroke="black" />
   </g>
  </g>
 </g>
 <g partID="858855571">
  <g transform="translate(132.454,49.7604)">
   <g id="copper1" >
    <g fill="none" id="58" r="1.41732" cx="4.00945" cy="4.00945" stroke-width="1.98426" stroke="black" />
   </g>
  </g>
 </g>
 <g partID="858855661">
  <g transform="translate(190.054,37.1604)">
   <g id="copper1" >
    <g fill="none" id="59" r="1.41732" cx="4.00945" cy="4.00945" stroke-width="1.98426" stroke="black" />
   </g>
  </g>
 </g>
 <g partID="858855701">
  <g transform="translate(146.854,49.7604)">
   <g id="copper1" >
    <g fill="none" id="60" r="1.41732" cx="4.00945" cy="4.00945" stroke-width="1.98426" stroke="black" />
   </g>
  </g>
 </g>
 <g partID="858855791">
  <g transform="translate(197.254,42.5604)">
   <g id="copper1" >
    <g fill="none" id="61" r="1.41732" cx="4.00945" cy="4.00945" stroke-width="1.98426" stroke="black" />
   </g>
  </g>
 </g>
 <g partID="858856670">
  <g transform="translate(164.23,55.91)">
   <g id="copper1" >
    <rect fill="black" id="62" width="4.53543" stroke-width="0" stroke="none" x="0.566929" fill-opacity="1" height="5.38583" y="0.566929" />
    <rect fill="black" id="63" width="4.53543" stroke-width="0" stroke="none" x="9.35433" fill-opacity="1" height="5.38583" y="0.566929" />
   </g>
  </g>
 </g>
 <g partID="858856600">
  <g transform="translate(164.23,46.91)">
   <g id="copper1" >
    <rect fill="black" id="64" width="4.53543" stroke-width="0" stroke="none" x="0.566929" fill-opacity="1" height="5.38583" y="0.566929" />
    <rect fill="black" id="65" width="4.53543" stroke-width="0" stroke="none" x="9.35433" fill-opacity="1" height="5.38583" y="0.566929" />
   </g>
  </g>
 </g>
 <g partID="858856580">
  <g transform="translate(164.23,37.91)">
   <g id="copper1" >
    <rect fill="black" id="66" width="4.53543" stroke-width="0" stroke="none" x="0.566929" fill-opacity="1" height="5.38583" y="0.566929" />
    <rect fill="black" id="67" width="4.53543" stroke-width="0" stroke="none" x="9.35433" fill-opacity="1" height="5.38583" y="0.566929" />
   </g>
  </g>
 </g>
 <g partID="858844541">
  <g transform="translate(206.254,98.3602)">
   <g id="copper1" >
    <g fill="none" id="68" r="1.41732" cx="4.00945" cy="4.00945" stroke-width="1.98426" stroke="black" />
   </g>
  </g>
 </g>
 <g partID="858773661">
  <g transform="translate(125.939,21.7209)">
   <g id="copper1" >
    <g fill="none" id="69" r="2.052" cx="3.325" stroke="black" stroke-width="1.224" cy="46.449" />
    <g fill="none" id="70" stroke="black" stroke-width="1.224" width="4.104" x="1.272" y="44.397" height="4.104" />
    <g fill="none" id="71" r="2.052" cx="10.524" stroke="black" stroke-width="1.224" cy="46.449" />
    <g fill="none" id="72" r="2.052" cx="17.726" stroke="black" stroke-width="1.224" cy="46.449" />
    <g fill="none" id="73" r="2.052" cx="24.925" stroke="black" stroke-width="1.224" cy="46.449" />
    <g fill="none" id="74" r="2.052" cx="32.045" stroke="black" stroke-width="1.224" cy="46.446" />
    <g fill="none" id="75" r="2.052" cx="10.625" stroke="black" stroke-width="1.224" cy="3.249" />
    <g fill="none" id="76" r="2.052" cx="17.826" stroke="black" stroke-width="1.224" cy="3.249" />
    <g fill="none" id="77" r="2.052" cx="25.025" stroke="black" stroke-width="1.224" cy="3.249" />
    <g fill="none" id="78" r="2.052" cx="32.146" stroke="black" stroke-width="1.224" cy="3.246" />
    <g fill="none" id="79" r="2.052" cx="3.401" stroke="black" stroke-width="1.224" cy="3.219" />
   </g>
  </g>
 </g>
 <g partID="858775401">
  <g transform="translate(305.254,127.16)">
   <g id="copper1" >
    <g fill="none" id="80" r="1.41732" cx="4.00945" cy="4.00945" stroke-width="1.98426" stroke="black" />
   </g>
  </g>
 </g>
 <g partID="858775741">
  <g transform="translate(310.654,119.96)">
   <g id="copper1" >
    <g fill="none" id="81" r="1.41732" cx="4.00945" cy="4.00945" stroke-width="1.98426" stroke="black" />
   </g>
  </g>
 </g>
 <g partID="858776081">
  <g transform="translate(299.854,112.76)">
   <g id="copper1" >
    <g fill="none" id="82" r="1.41732" cx="4.00945" cy="4.00945" stroke-width="1.98426" stroke="black" />
   </g>
  </g>
 </g>
 <g partID="858776641">
  <g transform="translate(294.454,105.56)">
   <g id="copper1" >
    <g fill="none" id="83" r="1.41732" cx="4.00945" cy="4.00945" stroke-width="1.98426" stroke="black" />
   </g>
  </g>
 </g>
 <g partID="858898691">
  <g transform="translate(225.024,80.4098)">
   <g transform="matrix(0,-1,1,0,0,0)">
    <g id="copper1" >
     <g id="copper0" >
      <g fill="none" id="84" width="4.176" stroke="black" stroke-width="1.44" x="2.952" height="4.176" y="2.952" />
      <g fill="none" id="85" r="2.088" cx="5.04" cy="5.04" stroke="black" stroke-width="1.44" />
      <g fill="none" id="86" r="2.088" cx="5.04" cy="12.24" stroke="black" stroke-width="1.44" />
      <g fill="none" id="87" r="2.088" cx="5.04" cy="19.44" stroke="black" stroke-width="1.44" />
     </g>
    </g>
   </g>
  </g>
 </g>
 <g partID="858896581">
  <g transform="translate(95.424,17.4098)">
   <g transform="matrix(0,-1,1,0,0,0)">
    <g id="copper1" >
     <g id="copper0" >
      <g fill="none" id="88" width="4.176" stroke="black" stroke-width="1.44" x="2.952" height="4.176" y="2.952" />
      <g fill="none" id="89" r="2.088" cx="5.04" cy="5.04" stroke="black" stroke-width="1.44" />
      <g fill="none" id="90" r="2.088" cx="5.04" cy="12.24" stroke="black" stroke-width="1.44" />
      <g fill="none" id="91" r="2.088" cx="5.04" cy="19.44" stroke="black" stroke-width="1.44" />
     </g>
    </g>
   </g>
  </g>
 </g>
 <g partID="858898701">
  <g transform="translate(249.504,84.7298)">
   <g transform="matrix(0,1,-1,0,0,0)">
    <g id="copper1" >
     <g id="copper0" >
      <g fill="none" id="92" width="4.176" stroke="black" stroke-width="1.44" x="2.952" height="4.176" y="2.952" />
      <g fill="none" id="93" r="2.088" cx="5.04" cy="5.04" stroke="black" stroke-width="1.44" />
      <g fill="none" id="94" r="2.088" cx="5.04" cy="12.24" stroke="black" stroke-width="1.44" />
      <g fill="none" id="95" r="2.088" cx="5.04" cy="19.44" stroke="black" stroke-width="1.44" />
     </g>
    </g>
   </g>
  </g>
 </g>
 <g partID="858896591">
  <g transform="translate(119.904,21.7298)">
   <g transform="matrix(0,1,-1,0,0,0)">
    <g id="copper1" >
     <g id="copper0" >
      <g fill="none" id="96" width="4.176" stroke="black" stroke-width="1.44" x="2.952" height="4.176" y="2.952" />
      <g fill="none" id="97" r="2.088" cx="5.04" cy="5.04" stroke="black" stroke-width="1.44" />
      <g fill="none" id="98" r="2.088" cx="5.04" cy="12.24" stroke="black" stroke-width="1.44" />
      <g fill="none" id="99" r="2.088" cx="5.04" cy="19.44" stroke="black" stroke-width="1.44" />
     </g>
    </g>
   </g>
  </g>
 </g>
 <g partID="858917671">
  <g transform="translate(34.944,110.29)">
   <g transform="matrix(0,-1,1,0,0,0)">
    <g id="copper1" >
     <g id="copper0" >
      <g fill="none" id="100" stroke="black" stroke-width="1.44" width="3.96" x="2.34" height="3.96" y="2.34" />
      <g fill="none" id="101" r="1.98" cx="4.32" cy="4.32" stroke="black" stroke-width="1.44" />
      <g fill="none" id="102" r="1.98" cx="25.92" cy="4.32" stroke="black" stroke-width="1.44" />
      <g fill="none" id="103" r="1.98" cx="4.32" cy="11.52" stroke="black" stroke-width="1.44" />
      <g fill="none" id="104" r="1.98" cx="25.92" cy="11.52" stroke="black" stroke-width="1.44" />
      <g fill="none" id="105" r="1.98" cx="4.32" cy="18.72" stroke="black" stroke-width="1.44" />
      <g fill="none" id="106" r="1.98" cx="25.92" cy="18.72" stroke="black" stroke-width="1.44" />
      <g fill="none" id="107" r="1.98" cx="4.32" cy="25.92" stroke="black" stroke-width="1.44" />
      <g fill="none" id="108" r="1.98" cx="25.92" cy="25.92" stroke="black" stroke-width="1.44" />
      <g fill="none" id="109" r="1.98" cx="4.32" cy="33.12" stroke="black" stroke-width="1.44" />
      <g fill="none" id="110" r="1.98" cx="25.92" cy="33.12" stroke="black" stroke-width="1.44" />
      <g fill="none" id="111" r="1.98" cx="4.32" cy="40.32" stroke="black" stroke-width="1.44" />
      <g fill="none" id="112" r="1.98" cx="25.92" cy="40.32" stroke="black" stroke-width="1.44" />
      <g fill="none" id="113" r="1.98" cx="4.32" cy="47.52" stroke="black" stroke-width="1.44" />
      <g fill="none" id="114" r="1.98" cx="25.92" cy="47.52" stroke="black" stroke-width="1.44" />
     </g>
    </g>
   </g>
  </g>
 </g>
 <g partID="858891321">
  <g transform="translate(34.944,50.8898)">
   <g transform="matrix(0,-1,1,0,0,0)">
    <g id="copper1" >
     <g id="copper0" >
      <g fill="none" id="115" stroke="black" stroke-width="1.44" width="3.96" x="2.34" height="3.96" y="2.34" />
      <g fill="none" id="116" r="1.98" cx="4.32" cy="4.32" stroke="black" stroke-width="1.44" />
      <g fill="none" id="117" r="1.98" cx="25.92" cy="4.32" stroke="black" stroke-width="1.44" />
      <g fill="none" id="118" r="1.98" cx="4.32" cy="11.52" stroke="black" stroke-width="1.44" />
      <g fill="none" id="119" r="1.98" cx="25.92" cy="11.52" stroke="black" stroke-width="1.44" />
      <g fill="none" id="120" r="1.98" cx="4.32" cy="18.72" stroke="black" stroke-width="1.44" />
      <g fill="none" id="121" r="1.98" cx="25.92" cy="18.72" stroke="black" stroke-width="1.44" />
      <g fill="none" id="122" r="1.98" cx="4.32" cy="25.92" stroke="black" stroke-width="1.44" />
      <g fill="none" id="123" r="1.98" cx="25.92" cy="25.92" stroke="black" stroke-width="1.44" />
      <g fill="none" id="124" r="1.98" cx="4.32" cy="33.12" stroke="black" stroke-width="1.44" />
      <g fill="none" id="125" r="1.98" cx="25.92" cy="33.12" stroke="black" stroke-width="1.44" />
      <g fill="none" id="126" r="1.98" cx="4.32" cy="40.32" stroke="black" stroke-width="1.44" />
      <g fill="none" id="127" r="1.98" cx="25.92" cy="40.32" stroke="black" stroke-width="1.44" />
      <g fill="none" id="128" r="1.98" cx="4.32" cy="47.52" stroke="black" stroke-width="1.44" />
      <g fill="none" id="129" r="1.98" cx="25.92" cy="47.52" stroke="black" stroke-width="1.44" />
     </g>
    </g>
   </g>
  </g>
 </g>
 <g partID="858705871">
  <g transform="translate(193.294,149.832)">
   <g transform="matrix(0,-1,1,0,0,0)">
    <g id="copper1" >
     <g id="copper0" >
      <g fill="none" id="130" stroke="black" stroke-width="1.44" width="3.96" x="2.34" height="3.96" y="2.34" />
      <g fill="none" id="131" r="1.98" cx="4.32" cy="4.32" stroke="black" stroke-width="1.44" />
      <g fill="none" id="132" r="1.98" cx="25.92" cy="4.32" stroke="black" stroke-width="1.44" />
      <g fill="none" id="133" r="1.98" cx="4.32" cy="11.52" stroke="black" stroke-width="1.44" />
      <g fill="none" id="134" r="1.98" cx="25.92" cy="11.52" stroke="black" stroke-width="1.44" />
      <g fill="none" id="135" r="1.98" cx="4.32" cy="18.72" stroke="black" stroke-width="1.44" />
      <g fill="none" id="136" r="1.98" cx="25.92" cy="18.72" stroke="black" stroke-width="1.44" />
      <g fill="none" id="137" r="1.98" cx="4.32" cy="25.92" stroke="black" stroke-width="1.44" />
      <g fill="none" id="138" r="1.98" cx="25.92" cy="25.92" stroke="black" stroke-width="1.44" />
      <g fill="none" id="139" r="1.98" cx="4.32" cy="33.12" stroke="black" stroke-width="1.44" />
      <g fill="none" id="140" r="1.98" cx="25.92" cy="33.12" stroke="black" stroke-width="1.44" />
      <g fill="none" id="141" r="1.98" cx="4.32" cy="40.32" stroke="black" stroke-width="1.44" />
      <g fill="none" id="142" r="1.98" cx="25.92" cy="40.32" stroke="black" stroke-width="1.44" />
      <g fill="none" id="143" r="1.98" cx="4.32" cy="47.52" stroke="black" stroke-width="1.44" />
      <g fill="none" id="144" r="1.98" cx="25.92" cy="47.52" stroke="black" stroke-width="1.44" />
     </g>
    </g>
   </g>
  </g>
 </g>
 <g partID="858772301">
  <g transform="translate(186.144,59.8898)">
   <g transform="matrix(0,-1,1,0,0,0)">
    <g id="copper1" >
     <g id="copper0" >
      <g fill="none" id="145" stroke="black" stroke-width="1.44" width="3.96" x="2.34" height="3.96" y="2.34" />
      <g fill="none" id="146" r="1.98" cx="4.32" cy="4.32" stroke="black" stroke-width="1.44" />
      <g fill="none" id="147" r="1.98" cx="25.92" cy="4.32" stroke="black" stroke-width="1.44" />
      <g fill="none" id="148" r="1.98" cx="4.32" cy="11.52" stroke="black" stroke-width="1.44" />
      <g fill="none" id="149" r="1.98" cx="25.92" cy="11.52" stroke="black" stroke-width="1.44" />
      <g fill="none" id="150" r="1.98" cx="4.32" cy="18.72" stroke="black" stroke-width="1.44" />
      <g fill="none" id="151" r="1.98" cx="25.92" cy="18.72" stroke="black" stroke-width="1.44" />
      <g fill="none" id="152" r="1.98" cx="4.32" cy="25.92" stroke="black" stroke-width="1.44" />
      <g fill="none" id="153" r="1.98" cx="25.92" cy="25.92" stroke="black" stroke-width="1.44" />
      <g fill="none" id="154" r="1.98" cx="4.32" cy="33.12" stroke="black" stroke-width="1.44" />
      <g fill="none" id="155" r="1.98" cx="25.92" cy="33.12" stroke="black" stroke-width="1.44" />
      <g fill="none" id="156" r="1.98" cx="4.32" cy="40.32" stroke="black" stroke-width="1.44" />
      <g fill="none" id="157" r="1.98" cx="25.92" cy="40.32" stroke="black" stroke-width="1.44" />
      <g fill="none" id="158" r="1.98" cx="4.32" cy="47.52" stroke="black" stroke-width="1.44" />
      <g fill="none" id="159" r="1.98" cx="25.92" cy="47.52" stroke="black" stroke-width="1.44" />
      <g fill="none" id="160" r="1.98" cx="4.32" cy="54.72" stroke="black" stroke-width="1.44" />
      <g fill="none" id="161" r="1.98" cx="25.92" cy="54.72" stroke="black" stroke-width="1.44" />
     </g>
    </g>
   </g>
  </g>
 </g>
 <g partID="858700931">
  <g transform="translate(258.144,90.8498)">
   <g id="copper1" >
    <g id="copper0" >
     <g fill="none" id="162" stroke="black" stroke-width="1.44" width="3.96" x="2.34" height="3.96" y="2.34" />
     <g fill="none" id="163" r="1.98" cx="4.32" cy="4.32" stroke="black" stroke-width="1.44" />
     <g fill="none" id="164" r="1.98" cx="25.92" cy="4.32" stroke="black" stroke-width="1.44" />
     <g fill="none" id="165" r="1.98" cx="4.32" cy="11.52" stroke="black" stroke-width="1.44" />
     <g fill="none" id="166" r="1.98" cx="25.92" cy="11.52" stroke="black" stroke-width="1.44" />
     <g fill="none" id="167" r="1.98" cx="4.32" cy="18.72" stroke="black" stroke-width="1.44" />
     <g fill="none" id="168" r="1.98" cx="25.92" cy="18.72" stroke="black" stroke-width="1.44" />
     <g fill="none" id="169" r="1.98" cx="4.32" cy="25.92" stroke="black" stroke-width="1.44" />
     <g fill="none" id="170" r="1.98" cx="25.92" cy="25.92" stroke="black" stroke-width="1.44" />
     <g fill="none" id="171" r="1.98" cx="4.32" cy="33.12" stroke="black" stroke-width="1.44" />
     <g fill="none" id="172" r="1.98" cx="25.92" cy="33.12" stroke="black" stroke-width="1.44" />
     <g fill="none" id="173" r="1.98" cx="4.32" cy="40.32" stroke="black" stroke-width="1.44" />
     <g fill="none" id="174" r="1.98" cx="25.92" cy="40.32" stroke="black" stroke-width="1.44" />
     <g fill="none" id="175" r="1.98" cx="4.32" cy="47.52" stroke="black" stroke-width="1.44" />
     <g fill="none" id="176" r="1.98" cx="25.92" cy="47.52" stroke="black" stroke-width="1.44" />
     <g fill="none" id="177" r="1.98" cx="4.32" cy="54.72" stroke="black" stroke-width="1.44" />
     <g fill="none" id="178" r="1.98" cx="25.92" cy="54.72" stroke="black" stroke-width="1.44" />
    </g>
   </g>
  </g>
 </g>
 <g partID="858701911">
  <g transform="translate(289.054,94.7602)">
   <g id="copper1" >
    <g fill="none" id="179" r="1.41732" cx="4.00945" cy="4.00945" stroke-width="1.98426" stroke="black" />
   </g>
  </g>
 </g>
 <g partID="858701971">
  <g transform="translate(289.054,136.16)">
   <g id="copper1" >
    <g fill="none" id="180" r="1.41732" cx="4.00945" cy="4.00945" stroke-width="1.98426" stroke="black" />
   </g>
  </g>
 </g>
 <g partID="858706951">
  <g transform="translate(280.054,76.7604)">
   <g id="copper1" >
    <g fill="none" id="181" r="1.41732" cx="4.00945" cy="4.00945" stroke-width="1.98426" stroke="black" />
   </g>
  </g>
 </g>
 <g partID="858708481">
  <g transform="translate(247.654,127.16)">
   <g id="copper1" >
    <g fill="none" id="182" r="1.41732" cx="4.00945" cy="4.00945" stroke-width="1.98426" stroke="black" />
   </g>
  </g>
 </g>
 <g partID="858755851">
  <g transform="translate(174.984,105.25)">
   <g transform="matrix(0,-1,1,0,0,0)">
    <g id="copper1" >
     <g fill="none" id="183" r="1.8" cx="2.88" cy="2.88" stroke="black" stroke-width="1.44" />
     <g fill="none" id="184" r="1.8" cx="10.0933" cy="2.88" stroke="black" stroke-width="1.44" />
    </g>
   </g>
  </g>
 </g>
 <g partID="858728991">
  <g transform="translate(169.584,98.0498)">
   <g transform="matrix(0,-1,1,0,0,0)">
    <g id="copper1" >
     <g fill="none" id="185" r="1.8" cx="2.88" cy="2.88" stroke="black" stroke-width="1.44" />
     <g fill="none" id="186" r="1.8" cx="10.0933" cy="2.88" stroke="black" stroke-width="1.44" />
    </g>
   </g>
  </g>
 </g>
 <g partID="858730441">
  <g transform="translate(229.654,112.76)">
   <g id="copper1" >
    <g fill="none" id="187" r="1.41732" cx="4.00945" cy="4.00945" stroke-width="1.98426" stroke="black" />
   </g>
  </g>
 </g>
 <g partID="858746981">
  <g transform="translate(117.024,82.9298)">
   <g id="copper1" >
    <g id="copper0" >
     <g fill="none" id="188" r="2.088" cx="5.04" cy="5.04" stroke="black" stroke-width="1.44" />
    </g>
   </g>
  </g>
 </g>
 <g partID="858746961">
  <g transform="translate(117.024,97.3298)">
   <g id="copper1" >
    <g id="copper0" >
     <g fill="none" id="189" r="2.088" cx="5.04" cy="5.04" stroke="black" stroke-width="1.44" />
    </g>
   </g>
  </g>
 </g>
 <g partID="858763891">
  <g transform="translate(187.368,119.47)">
   <g transform="matrix(0,-1,1,0,0,0)">
    <g id="copper1" >
     <!-- <rect width="55" x="10" y="15.5" fill="none" height="55" stroke="rgb(255, 191, 0)" stroke-width="20" />  -->
     <g fill="none" id="190" r="1.98" cx="2.7" cy="3.096" stroke="black" stroke-width="1.44" />
     <g fill="none" id="191" r="1.98" cx="31.5" cy="3.096" stroke="black" stroke-width="1.44" />
    </g>
   </g>
  </g>
 </g>
 <g partID="858762421">
  <g transform="translate(180.168,133.87)">
   <g transform="matrix(0,-1,1,0,0,0)">
    <g id="copper1" >
     <!-- <rect width="55" x="10" y="15.5" fill="none" height="55" stroke="rgb(255, 191, 0)" stroke-width="20" />  -->
     <g fill="none" id="192" r="1.98" cx="2.7" cy="3.096" stroke="black" stroke-width="1.44" />
     <g fill="none" id="193" r="1.98" cx="31.5" cy="3.096" stroke="black" stroke-width="1.44" />
    </g>
   </g>
  </g>
 </g>
 <g partID="858659811">
  <g transform="translate(333.024,68.5298)">
   <g id="copper1" >
    <g id="copper0" >
     <g fill="none" id="194" r="2.088" cx="5.04" cy="5.04" stroke="black" stroke-width="1.44" />
    </g>
   </g>
  </g>
 </g>
 <g partID="858550961">
  <g transform="translate(333.024,54.1298)">
   <g id="copper1" >
    <g id="copper0" >
     <g fill="none" id="195" r="2.088" cx="5.04" cy="5.04" stroke="black" stroke-width="1.44" />
    </g>
   </g>
  </g>
 </g>
 <g partID="858550501">
  <g transform="translate(333.024,18.1298)">
   <g id="copper1" >
    <g id="copper0" >
     <g fill="none" id="196" r="2.088" cx="5.04" cy="5.04" stroke="black" stroke-width="1.44" />
    </g>
   </g>
  </g>
 </g>
 <g partID="858631541">
  <g transform="translate(343.104,136.21)">
   <g transform="matrix(-1,0,0,-1,0,0)">
    <g id="copper1" >
     <g id="copper0" >
      <g fill="none" id="197" r="2.088" cx="5.04" cy="5.04" stroke="black" stroke-width="1.44" />
      <g fill="none" id="198" r="2.088" cx="5.04" cy="12.24" stroke="black" stroke-width="1.44" />
      <g fill="none" id="199" r="2.088" cx="5.04" cy="19.44" stroke="black" stroke-width="1.44" />
      <g fill="none" id="200" r="2.088" cx="5.04" cy="26.64" stroke="black" stroke-width="1.44" />
     </g>
    </g>
   </g>
  </g>
 </g>
 <g partID="858572311">
  <g transform="translate(318.624,25.3298)">
   <g id="copper1" >
    <g id="copper0" >
     <g fill="none" id="201" r="2.088" cx="5.04" cy="5.04" stroke="black" stroke-width="1.44" />
     <g fill="none" id="202" r="2.088" cx="5.04" cy="12.24" stroke="black" stroke-width="1.44" />
     <g fill="none" id="203" r="2.088" cx="5.04" cy="19.44" stroke="black" stroke-width="1.44" />
     <g fill="none" id="204" r="2.088" cx="5.04" cy="26.64" stroke="black" stroke-width="1.44" />
    </g>
   </g>
  </g>
 </g>
 <g partID="859093041">
  <g transform="translate(318.624,54.1298)">
   <g id="copper1" >
    <g id="copper0" >
     <g fill="none" id="205" r="2.088" cx="5.04" cy="5.04" stroke="black" stroke-width="1.44" />
    </g>
   </g>
  </g>
 </g>
 <g partID="859093091">
  <g transform="translate(333.024,25.3298)">
   <g id="copper1" >
    <g id="copper0" >
     <g fill="none" id="206" r="2.088" cx="5.04" cy="5.04" stroke="black" stroke-width="1.44" />
     <g fill="none" id="207" r="2.088" cx="5.04" cy="12.24" stroke="black" stroke-width="1.44" />
     <g fill="none" id="208" r="2.088" cx="5.04" cy="19.44" stroke="black" stroke-width="1.44" />
     <g fill="none" id="209" r="2.088" cx="5.04" cy="26.64" stroke="black" stroke-width="1.44" />
    </g>
   </g>
  </g>
 </g>
 <g partID="859107821">
  <g transform="translate(304.224,30.7298)">
   <g id="copper1" >
    <g id="copper0" >
     <g fill="none" id="210" r="2.088" cx="5.04" cy="5.04" stroke="black" stroke-width="1.44" />
    </g>
   </g>
  </g>
 </g>
 <g partID="859107841">
  <g transform="translate(304.224,9.12982)">
   <g id="copper1" >
    <g id="copper0" >
     <g fill="none" id="211" r="2.088" cx="5.04" cy="5.04" stroke="black" stroke-width="1.44" />
    </g>
   </g>
  </g>
 </g>
 <g partID="859107861">
  <g transform="translate(261.024,30.7298)">
   <g id="copper1" >
    <g id="copper0" >
     <g fill="none" id="212" r="2.088" cx="5.04" cy="5.04" stroke="black" stroke-width="1.44" />
    </g>
   </g>
  </g>
 </g>
 <g partID="859107871">
  <g transform="translate(261.024,9.12982)">
   <g id="copper1" >
    <g id="copper0" >
     <g fill="none" id="213" r="2.088" cx="5.04" cy="5.04" stroke="black" stroke-width="1.44" />
    </g>
   </g>
  </g>
 </g>
</svg>
