<?xml version="1.0" encoding="UTF-8" standalone="no"?>
<!-- Created with Fritzing (http://www.fritzing.org/) -->

<svg
   xmlns:dc="http://purl.org/dc/elements/1.1/"
   xmlns:cc="http://creativecommons.org/ns#"
   xmlns:rdf="http://www.w3.org/1999/02/22-rdf-syntax-ns#"
   xmlns:svg="http://www.w3.org/2000/svg"
   xmlns="http://www.w3.org/2000/svg"
   xmlns:sodipodi="http://sodipodi.sourceforge.net/DTD/sodipodi-0.dtd"
   xmlns:inkscape="http://www.inkscape.org/namespaces/inkscape"
   version="1.2"
   width="4.824316in"
   viewBox="0 0 347.35157 156.05271"
   x="0in"
   y="0in"
   height="2.1673999in"
   id="svg1309"
   sodipodi:docname="drilling.svg"
   inkscape:version="0.92.4 (unknown)">
  <metadata
     id="metadata1315">
    <rdf:RDF>
      <cc:Work
         rdf:about="">
        <dc:format>image/svg+xml</dc:format>
        <dc:type
           rdf:resource="http://purl.org/dc/dcmitype/StillImage" />
        <dc:title></dc:title>
      </cc:Work>
    </rdf:RDF>
  </metadata>
  <defs
     id="defs1313" />
  <sodipodi:namedview
     pagecolor="#ffffff"
     bordercolor="#666666"
     borderopacity="1"
     objecttolerance="10"
     gridtolerance="10"
     guidetolerance="10"
     inkscape:pageopacity="0"
     inkscape:pageshadow="2"
     inkscape:window-width="1920"
     inkscape:window-height="1103"
     id="namedview1311"
     showgrid="false"
     inkscape:zoom="2.3141109"
     inkscape:cx="238.90068"
     inkscape:cy="146.32026"
     inkscape:window-x="0"
     inkscape:window-y="27"
     inkscape:window-maximized="1"
     inkscape:current-layer="topmask" />
  <g
     inkscape:groupmode="layer"
     id="topmask"
     inkscape:label="topmask"
     transform="translate(-0.03722,-0.03812457)"
     style="display:inline">
    <path
       style="fill:#000000;stroke:#000000;stroke-width:2.87999344"
       d="m 11.503906,5.5957031 c -3.3395165,1.938e-4 -6.046681,2.7073584 -6.0468748,6.0468749 1.937e-4,3.339517 2.7073583,6.046681 6.0468748,6.046875 3.339517,-1.94e-4 6.046681,-2.707358 6.046875,-6.046875 -1.94e-4,-3.3395166 -2.707358,-6.0466812 -6.046875,-6.0468749 z m 439.199214,0 c -3.33951,1.965e-4 -6.04668,2.7073603 -6.04687,6.0468749 1.9e-4,3.339515 2.70736,6.046679 6.04687,6.046875 3.33952,-1.91e-4 6.04669,-2.707356 6.04688,-6.046875 -1.9e-4,-3.3395185 -2.70736,-6.0466839 -6.04688,-6.0468749 z M 52.302734,6.4589844 c -1.53694,4.364e-4 -2.782767,1.2462633 -2.783203,2.7832031 -6.42e-4,1.5377025 1.2455,2.7847195 2.783203,2.7851565 1.538466,6.43e-4 2.7858,-1.246691 2.785157,-2.7851565 -4.36e-4,-1.5377029 -1.247454,-2.7838458 -2.785157,-2.7832031 z m 9.59961,0 c -1.53694,4.364e-4 -2.782767,1.2462633 -2.783203,2.7832031 -6.42e-4,1.5377025 1.2455,2.7847195 2.783203,2.7851565 1.538465,6.42e-4 2.785799,-1.246691 2.785156,-2.7851565 C 64.687064,7.704485 63.440046,6.4583423 61.902344,6.4589844 Z m 69.216796,7.1992186 v 5.568359 h 5.56836 v -5.568359 z m 12.38281,0 c -1.5377,4.38e-4 -2.78384,1.247455 -2.7832,2.785156 4.4e-4,1.536939 1.24626,2.782765 2.7832,2.783203 1.5377,6.44e-4 2.78472,-1.245499 2.78516,-2.783203 6.4e-4,-1.538467 -1.24669,-2.785801 -2.78516,-2.785156 z m 9.60157,0 c -1.53847,-6.45e-4 -2.7858,1.246689 -2.78516,2.785156 4.4e-4,1.537704 1.24746,2.783847 2.78516,2.783203 1.53694,-4.38e-4 2.78276,-1.246264 2.7832,-2.783203 6.4e-4,-1.537701 -1.2455,-2.784718 -2.7832,-2.785156 z m 9.59765,0.894531 c -1.0436,5.99e-4 -1.88915,0.847026 -1.88867,1.890625 6e-4,1.042836 0.84583,1.888073 1.88867,1.888672 1.0436,4.83e-4 1.89003,-0.84507 1.89063,-1.888672 4.8e-4,-1.044364 -0.84627,-1.891108 -1.89063,-1.890625 z m 192.00195,1.50586 c -1.5377,-6.39e-4 -2.78471,1.245503 -2.78515,2.783203 -6.4e-4,1.538463 1.24669,2.785795 2.78515,2.785156 1.53771,-4.33e-4 2.78385,-1.247451 2.78321,-2.785156 -4.4e-4,-1.536943 -1.24627,-2.78277 -2.78321,-2.783203 z m 57.59961,0 c -1.5377,-6.39e-4 -2.78471,1.245503 -2.78515,2.783203 -6.4e-4,1.538463 1.24669,2.785795 2.78515,2.785156 1.53771,-4.33e-4 2.78385,-1.247451 2.78321,-2.785156 -4.4e-4,-1.536943 -1.24627,-2.78277 -2.78321,-2.783203 z m -206.40039,5.693359 c -1.04436,-4.78e-4 -1.8911,0.846265 -1.89062,1.890625 -4.8e-4,1.04436 0.84626,1.891103 1.89062,1.890625 1.0436,-5.94e-4 1.88916,-0.847022 1.88868,-1.890625 4.8e-4,-1.043603 -0.84508,-1.890031 -1.88868,-1.890625 z m 244.79883,6.306641 c -1.53694,4.38e-4 -2.78276,1.246264 -2.7832,2.783203 -6.4e-4,1.537701 1.2455,2.784718 2.7832,2.785156 1.53847,6.45e-4 2.7858,-1.246689 2.78516,-2.785156 -4.4e-4,-1.537704 -1.24746,-2.783847 -2.78516,-2.783203 z M 172.4043,30.466797 c -1.51131,-1.86e-4 -2.73651,1.225018 -2.73633,2.736328 -1.8e-4,1.51131 1.22502,2.736514 2.73633,2.736328 1.51131,1.8e-4 2.7365,-1.225022 2.73632,-2.736328 1.8e-4,-1.511306 -1.22501,-2.736508 -2.73632,-2.736328 z m 38.32617,0.03516 c -1.51131,-1.86e-4 -2.73651,1.225018 -2.73633,2.736328 -1.8e-4,1.51131 1.22502,2.736514 2.73633,2.736328 1.51131,1.86e-4 2.73651,-1.225018 2.73633,-2.736328 1.8e-4,-1.51131 -1.22502,-2.736514 -2.73633,-2.736328 z m -28.69531,0.0039 c -1.51055,8.91e-4 -2.73457,1.22578 -2.73438,2.736329 -1.8e-4,1.510548 1.22383,2.735437 2.73438,2.736328 1.51131,1.8e-4 2.7365,-1.225022 2.73632,-2.736328 1.9e-4,-1.511306 -1.22501,-2.736509 -2.73632,-2.736329 z m 9.60156,0 c -1.51055,8.91e-4 -2.73457,1.22578 -2.73438,2.736329 -1.8e-4,1.510548 1.22383,2.735437 2.73438,2.736328 1.51131,1.86e-4 2.73651,-1.225018 2.73633,-2.736328 1.9e-4,-1.51131 -1.22502,-2.736515 -2.73633,-2.736329 z m 9.59961,0 c -1.51131,-1.86e-4 -2.73652,1.225019 -2.73633,2.736329 -1.8e-4,1.51131 1.22502,2.736514 2.73633,2.736328 1.51131,1.86e-4 2.73651,-1.225018 2.73633,-2.736328 1.9e-4,-1.51131 -1.22502,-2.736515 -2.73633,-2.736329 z m -148.933596,0.0957 c -1.458522,-3.49e-4 -2.640974,1.182104 -2.640625,2.640626 -3.48e-4,1.458521 1.182104,2.640973 2.640625,2.640624 1.458521,3.49e-4 2.640973,-1.182103 2.640625,-2.640624 3.49e-4,-1.458522 -1.182103,-2.640975 -2.640625,-2.640626 z m 9.59961,0 c -1.457759,7.3e-4 -2.639021,1.182867 -2.638672,2.640626 -3.48e-4,1.457758 1.180914,2.639894 2.638672,2.640624 1.458521,3.49e-4 2.640973,-1.182103 2.640625,-2.640624 3.49e-4,-1.458522 -1.182103,-2.640975 -2.640625,-2.640626 z m 9.601562,0 c -1.458522,-3.49e-4 -2.640974,1.182104 -2.640625,2.640626 -3.48e-4,1.458521 1.182104,2.640973 2.640625,2.640624 1.457758,-7.3e-4 2.63902,-1.182866 2.638672,-2.640624 3.49e-4,-1.457759 -1.180913,-2.639896 -2.638672,-2.640626 z m 9.59961,0 c -1.458522,-3.49e-4 -2.640974,1.182104 -2.640625,2.640626 -3.48e-4,1.458521 1.182104,2.640973 2.640625,2.640624 1.457758,-7.3e-4 2.63902,-1.182866 2.638672,-2.640624 3.49e-4,-1.457759 -1.180913,-2.639896 -2.638672,-2.640626 z m 9.599609,0 c -1.458522,-3.49e-4 -2.640974,1.182104 -2.640625,2.640626 -3.48e-4,1.458521 1.182104,2.640973 2.640625,2.640624 1.458521,3.49e-4 2.640973,-1.182103 2.640625,-2.640624 3.49e-4,-1.458522 -1.182103,-2.640975 -2.640625,-2.640626 z m 9.599605,0 c -1.45852,-3.47e-4 -2.64097,1.182106 -2.640621,2.640626 -3.48e-4,1.458519 1.182102,2.640971 2.640621,2.640624 1.45852,3.52e-4 2.64098,-1.182101 2.64063,-2.640624 3.5e-4,-1.458524 -1.18211,-2.640978 -2.64063,-2.640626 z m 9.59961,0 c -1.45776,7.31e-4 -2.63902,1.182868 -2.63867,2.640626 -3.5e-4,1.457758 1.18091,2.639893 2.63867,2.640624 1.45852,3.52e-4 2.64098,-1.182101 2.64063,-2.640624 3.5e-4,-1.458524 -1.18211,-2.640978 -2.64063,-2.640626 z m 110.40039,0.751954 c -1.0436,-4.78e-4 -1.89002,0.845074 -1.89062,1.888672 -4.8e-4,1.04436 0.84626,1.891102 1.89062,1.890624 1.0436,-5.94e-4 1.88916,-0.847022 1.88868,-1.890624 -6e-4,-1.04284 -0.84584,-1.888079 -1.88868,-1.888672 z m -86.40039,1.505859 c -1.53694,4.38e-4 -2.78276,1.246264 -2.7832,2.783203 4.4e-4,1.536939 1.24626,2.782765 2.7832,2.783203 1.5377,6.44e-4 2.78472,-1.245499 2.78516,-2.783203 -4.4e-4,-1.537704 -1.24746,-2.783847 -2.78516,-2.783203 z m 9.59961,0 c -1.53694,4.38e-4 -2.78276,1.246264 -2.7832,2.783203 4.4e-4,1.536939 1.24626,2.782765 2.7832,2.783203 1.5377,6.44e-4 2.78472,-1.245499 2.78516,-2.783203 -4.4e-4,-1.537704 -1.24746,-2.783847 -2.78516,-2.783203 z m 6.81641,0 v 5.566406 h 5.56836 v -5.566406 z m 141.98242,0.892578 c -1.0436,5.99e-4 -1.88915,0.847026 -1.88867,1.890625 -4.8e-4,1.043599 0.84507,1.890026 1.88867,1.890625 1.04436,4.83e-4 1.89111,-0.846261 1.89063,-1.890625 4.8e-4,-1.044364 -0.84627,-1.891108 -1.89063,-1.890625 z m 38.40234,0 c -1.04436,-4.78e-4 -1.8911,0.846265 -1.89062,1.890625 -4.8e-4,1.04436 0.84626,1.891103 1.89062,1.890625 1.0436,-5.94e-4 1.88916,-0.847022 1.88868,-1.890625 4.8e-4,-1.043603 -0.84508,-1.890031 -1.88868,-1.890625 z m -52.71289,0.568359 c -0.73014,3.14e-4 -1.32195,0.59213 -1.32226,1.322266 3.1e-4,0.730136 0.59212,1.321952 1.32226,1.322266 0.7309,7.69e-4 1.32391,-0.591364 1.32422,-1.322266 -3.1e-4,-0.730902 -0.59332,-1.323035 -1.32422,-1.322266 z m 153.51172,3.337891 c -1.5377,4.38e-4 -2.78384,1.247455 -2.7832,2.785156 4.4e-4,1.536939 1.24626,2.782765 2.7832,2.783203 1.5377,6.44e-4 2.78472,-1.245499 2.78516,-2.783203 6.4e-4,-1.538467 -1.24669,-2.785801 -2.78516,-2.785156 z m 19.19922,0 c -1.5377,4.38e-4 -2.78384,1.247455 -2.7832,2.785156 4.4e-4,1.536939 1.24626,2.782765 2.7832,2.783203 1.5377,6.44e-4 2.78472,-1.245499 2.78516,-2.783203 6.4e-4,-1.538467 -1.24669,-2.785801 -2.78516,-2.785156 z m -196.79883,4.943359 c -1.45852,-3.46e-4 -2.64097,1.182106 -2.64062,2.640626 -3.5e-4,1.458519 1.1821,2.64097 2.64062,2.640624 1.45852,3.52e-4 2.64098,-1.182101 2.64063,-2.640624 3.5e-4,-1.458524 -1.18211,-2.640978 -2.64063,-2.640626 z m 9.59961,0 c -1.45776,7.31e-4 -2.63902,1.182868 -2.63867,2.640626 -3.5e-4,1.457758 1.18091,2.639893 2.63867,2.640624 1.45852,3.52e-4 2.64098,-1.182101 2.64063,-2.640624 3.5e-4,-1.458524 -1.18211,-2.640978 -2.64063,-2.640626 z m 9.59961,0 c -1.45776,7.31e-4 -2.63902,1.182868 -2.63867,2.640626 -3.5e-4,1.457758 1.18091,2.639893 2.63867,2.640624 1.45852,3.52e-4 2.64098,-1.182101 2.64063,-2.640624 3.5e-4,-1.458524 -1.18211,-2.640978 -2.64063,-2.640626 z m 9.60156,0 c -1.45852,-3.46e-4 -2.64097,1.182106 -2.64062,2.640626 -3.5e-4,1.458519 1.1821,2.64097 2.64062,2.640624 1.45776,-7.25e-4 2.63903,-1.182863 2.63868,-2.640624 3.5e-4,-1.457762 -1.18092,-2.639901 -2.63868,-2.640626 z m 9.59961,0 c -1.45852,-3.46e-4 -2.64097,1.182106 -2.64062,2.640626 -3.5e-4,1.458519 1.1821,2.64097 2.64062,2.640624 1.45852,3.52e-4 2.64098,-1.182101 2.64063,-2.640624 3.5e-4,-1.458524 -1.18211,-2.640978 -2.64063,-2.640626 z m 9.59961,0 c -1.45852,-3.46e-4 -2.64097,1.182106 -2.64062,2.640626 -3.5e-4,1.458519 1.1821,2.64097 2.64062,2.640624 1.45852,3.52e-4 2.64098,-1.182101 2.64063,-2.640624 3.5e-4,-1.458524 -1.18211,-2.640978 -2.64063,-2.640626 z m 9.59961,0 c -1.45776,7.31e-4 -2.63902,1.182868 -2.63867,2.640626 -3.5e-4,1.457758 1.18091,2.639893 2.63867,2.640624 1.45852,3.52e-4 2.64098,-1.182101 2.64063,-2.640624 3.5e-4,-1.458524 -1.18211,-2.640978 -2.64063,-2.640626 z m 9.59961,0 c -1.45776,7.31e-4 -2.63902,1.182868 -2.63867,2.640626 -3.5e-4,1.457758 1.18091,2.639893 2.63867,2.640624 1.45852,3.52e-4 2.64098,-1.182101 2.64063,-2.640624 3.5e-4,-1.458524 -1.18211,-2.640978 -2.64063,-2.640626 z m 33.60156,2.257813 c -1.5377,-6.39e-4 -2.78471,1.245503 -2.78515,2.783203 4.4e-4,1.5377 1.24745,2.783842 2.78515,2.783203 1.53694,-4.33e-4 2.78277,-1.24626 2.78321,-2.783203 -4.4e-4,-1.536943 -1.24627,-2.78277 -2.78321,-2.783203 z m 57.59961,0 c -1.5377,-6.39e-4 -2.78471,1.245503 -2.78515,2.783203 4.4e-4,1.5377 1.24745,2.783842 2.78515,2.783203 1.53694,-4.33e-4 2.78277,-1.24626 2.78321,-2.783203 -4.4e-4,-1.536943 -1.24627,-2.78277 -2.78321,-2.783203 z M 52.302734,45.751953 c -1.0436,5.98e-4 -1.889152,0.847025 -1.888672,1.890625 -4.8e-4,1.0436 0.845072,1.890027 1.888672,1.890625 1.044362,4.81e-4 1.891106,-0.846263 1.890625,-1.890625 4.81e-4,-1.044362 -0.846263,-1.891106 -1.890625,-1.890625 z m 38.400391,0 c -1.044362,-4.81e-4 -1.891106,0.846263 -1.890625,1.890625 -4.81e-4,1.044362 0.846263,1.891106 1.890625,1.890625 1.0436,-5.98e-4 1.889152,-0.847025 1.888672,-1.890625 4.8e-4,-1.0436 -0.845072,-1.890027 -1.888672,-1.890625 z m 340.798825,1.505859 c -1.5377,4.38e-4 -2.78384,1.247455 -2.7832,2.785157 4.4e-4,1.536939 1.24626,2.782765 2.7832,2.783203 1.5377,6.44e-4 2.78472,-1.245499 2.78516,-2.783203 6.4e-4,-1.538467 -1.24669,-2.785802 -2.78516,-2.785157 z m 19.19922,0 c -1.5377,4.38e-4 -2.78384,1.247455 -2.7832,2.785157 4.4e-4,1.536939 1.24626,2.782765 2.7832,2.783203 1.5377,6.44e-4 2.78472,-1.245499 2.78516,-2.783203 6.4e-4,-1.538467 -1.24669,-2.785802 -2.78516,-2.785157 z M 9.1035156,49.658203 c -1.5384653,-6.43e-4 -2.7857987,1.246691 -2.7851562,2.785156 4.365e-4,1.537703 1.2474537,2.783845 2.7851562,2.783203 1.5369404,-4.36e-4 2.7827674,-1.246263 2.7832034,-2.783203 6.42e-4,-1.537703 -1.245501,-2.78472 -2.7832034,-2.785156 z M 119.50195,50.025391 c -1.32426,8.63e-4 -2.39757,1.074176 -2.39843,2.398437 -2.2e-4,1.325024 1.07341,2.399527 2.39843,2.400391 1.32579,2.19e-4 2.40061,-1.074601 2.40039,-2.400391 -8.6e-4,-1.325027 -1.07536,-2.398656 -2.40039,-2.398437 z m 218.40039,0.527343 c -1.0436,5.99e-4 -1.88915,0.847026 -1.88867,1.890625 6e-4,1.042836 0.84583,1.888073 1.88867,1.888672 1.0436,4.83e-4 1.89003,-0.84507 1.89063,-1.888672 4.8e-4,-1.044364 -0.84627,-1.891108 -1.89063,-1.890625 z m -79.20117,2.400391 c -1.04284,5.99e-4 -1.88807,0.845836 -1.88867,1.888672 -4.8e-4,1.043599 0.84507,1.890026 1.88867,1.890625 1.04436,4.83e-4 1.89111,-0.846261 1.89063,-1.890625 -6e-4,-1.043602 -0.84703,-1.889155 -1.89063,-1.888672 z m 172.80078,3.90625 c -1.53694,4.38e-4 -2.78276,1.246264 -2.7832,2.783203 4.4e-4,1.536939 1.24626,2.782765 2.7832,2.783203 1.5377,6.44e-4 2.78472,-1.245499 2.78516,-2.783203 -4.4e-4,-1.537704 -1.24746,-2.783847 -2.78516,-2.783203 z m 19.19922,0 c -1.53694,4.38e-4 -2.78276,1.246264 -2.7832,2.783203 4.4e-4,1.536939 1.24626,2.782765 2.7832,2.783203 1.5377,6.44e-4 2.78472,-1.245499 2.78516,-2.783203 -4.4e-4,-1.537704 -1.24746,-2.783847 -2.78516,-2.783203 z M 9.1035156,59.257812 c -1.5384657,-6.43e-4 -2.7857992,1.246691 -2.7851562,2.785157 4.365e-4,1.537703 1.2474537,2.783845 2.7851562,2.783203 1.5369404,-4.36e-4 2.7827674,-1.246263 2.7832034,-2.783203 6.43e-4,-1.537703 -1.2455,-2.784721 -2.7832034,-2.785157 z m 40.5585934,0.144532 v 5.279297 h 5.28125 v -5.279297 z m 12.240235,0 c -1.457759,7.3e-4 -2.639021,1.182866 -2.638672,2.640625 7.29e-4,1.456996 1.181676,2.637943 2.638672,2.638672 1.457759,3.49e-4 2.639895,-1.180913 2.640625,-2.638672 3.49e-4,-1.458521 -1.182104,-2.640974 -2.640625,-2.640625 z m 9.601562,0 c -1.458521,-3.49e-4 -2.640974,1.182104 -2.640625,2.640625 7.3e-4,1.457759 1.182866,2.639021 2.640625,2.638672 1.456996,-7.29e-4 2.637943,-1.181676 2.638672,-2.638672 3.49e-4,-1.457759 -1.180913,-2.639895 -2.638672,-2.640625 z m 9.59961,0 c -1.458521,-3.49e-4 -2.640974,1.182104 -2.640625,2.640625 7.3e-4,1.457759 1.182866,2.639021 2.640625,2.638672 1.456996,-7.29e-4 2.637943,-1.181676 2.638672,-2.638672 3.49e-4,-1.457759 -1.180913,-2.639895 -2.638672,-2.640625 z m 9.599609,0 c -1.458521,-3.49e-4 -2.640974,1.182104 -2.640625,2.640625 7.3e-4,1.457759 1.182866,2.639021 2.640625,2.638672 1.457759,3.49e-4 2.639895,-1.180913 2.640625,-2.638672 3.49e-4,-1.458521 -1.182104,-2.640974 -2.640625,-2.640625 z m 9.599605,0 c -1.45852,-3.47e-4 -2.64097,1.182105 -2.640621,2.640625 7.3e-4,1.457757 1.182864,2.639019 2.640621,2.638672 1.45776,3.51e-4 2.6399,-1.180911 2.64063,-2.638672 3.5e-4,-1.458523 -1.18211,-2.640977 -2.64063,-2.640625 z m 9.59961,0 c -1.45776,7.31e-4 -2.63902,1.182867 -2.63867,2.640625 7.3e-4,1.456995 1.18167,2.637942 2.63867,2.638672 1.45776,3.51e-4 2.6399,-1.180911 2.64063,-2.638672 3.5e-4,-1.458523 -1.18211,-2.640977 -2.64063,-2.640625 z m 33.59961,0 c -1.45776,7.31e-4 -2.63902,1.182867 -2.63867,2.640625 7.3e-4,1.456995 1.18167,2.637942 2.63867,2.638672 1.45776,3.51e-4 2.6399,-1.180911 2.64063,-2.638672 3.5e-4,-1.458523 -1.18211,-2.640977 -2.64063,-2.640625 z m -24,0.240234 c -1.32502,8.64e-4 -2.39865,1.075367 -2.39843,2.400391 -2.2e-4,1.325024 1.07341,2.399526 2.39843,2.40039 1.32579,2.19e-4 2.40061,-1.074601 2.40039,-2.40039 2.2e-4,-1.32579 -1.0746,-2.40061 -2.40039,-2.400391 z m 148.80078,0.509766 c -1.04436,-4.78e-4 -1.8911,0.846265 -1.89062,1.890625 6e-4,1.043598 0.84702,1.88915 1.89062,1.888672 1.04284,-5.93e-4 1.88808,-0.845832 1.88868,-1.888672 4.8e-4,-1.043603 -0.84508,-1.890031 -1.88868,-1.890625 z m 76.80079,2.40039 c -1.04436,-4.83e-4 -1.89111,0.846261 -1.89063,1.890625 6e-4,1.043602 0.84703,1.889155 1.89063,1.888672 1.04284,-5.99e-4 1.88807,-0.845836 1.88867,-1.888672 4.8e-4,-1.043599 -0.84507,-1.890026 -1.88867,-1.890625 z m 86.39843,3.90625 c -1.53694,4.38e-4 -2.78276,1.246265 -2.7832,2.783204 -6.4e-4,1.537701 1.2455,2.784718 2.7832,2.785156 1.53847,6.45e-4 2.7858,-1.246689 2.78516,-2.785156 -4.4e-4,-1.537704 -1.24746,-2.783848 -2.78516,-2.783204 z m 19.19922,0 c -1.53694,4.38e-4 -2.78276,1.246265 -2.7832,2.783204 -6.4e-4,1.537701 1.2455,2.784718 2.7832,2.785156 1.53847,6.45e-4 2.7858,-1.246689 2.78516,-2.785156 -4.4e-4,-1.537704 -1.24746,-2.783848 -2.78516,-2.783204 z m -309.83789,2.542969 v 5.28125 h 5.2793 v -5.28125 z m 41.03906,0.75 c -1.04436,-4.78e-4 -1.8911,0.846265 -1.89062,1.890625 -4.8e-4,1.04436 0.84626,1.891103 1.89062,1.890625 1.0436,-5.94e-4 1.88916,-0.847022 1.88868,-1.890625 4.8e-4,-1.043603 -0.84508,-1.890031 -1.88868,-1.890625 z m 19.19922,0 c -1.0436,5.99e-4 -1.88915,0.847026 -1.88867,1.890625 -4.8e-4,1.043599 0.84507,1.890026 1.88867,1.890625 1.04436,4.83e-4 1.89111,-0.846261 1.89063,-1.890625 4.8e-4,-1.044364 -0.84627,-1.891108 -1.89063,-1.890625 z m 50.16016,1.650391 v 5.279297 h 5.28125 v -5.279297 z m 12.24023,0 c -1.45776,7.31e-4 -2.63902,1.182867 -2.63867,2.640625 7.3e-4,1.456995 1.18167,2.637942 2.63867,2.638672 1.45776,3.51e-4 2.6399,-1.180911 2.64063,-2.638672 3.5e-4,-1.458523 -1.18211,-2.640977 -2.64063,-2.640625 z m 9.59961,0 c -1.45776,7.31e-4 -2.63902,1.182867 -2.63867,2.640625 7.3e-4,1.456995 1.18167,2.637942 2.63867,2.638672 1.45776,3.51e-4 2.6399,-1.180911 2.64063,-2.638672 3.5e-4,-1.458523 -1.18211,-2.640977 -2.64063,-2.640625 z m 9.60156,0 c -1.45852,-3.46e-4 -2.64097,1.182106 -2.64062,2.640625 7.3e-4,1.457757 1.18286,2.639018 2.64062,2.638672 1.457,-7.25e-4 2.63795,-1.181673 2.63868,-2.638672 3.5e-4,-1.457762 -1.18092,-2.6399 -2.63868,-2.640625 z m 9.59961,0 c -1.45852,-3.46e-4 -2.64097,1.182106 -2.64062,2.640625 7.3e-4,1.457757 1.18286,2.639018 2.64062,2.638672 1.45776,3.51e-4 2.6399,-1.180911 2.64063,-2.638672 3.5e-4,-1.458523 -1.18211,-2.640977 -2.64063,-2.640625 z m 9.59961,0 c -1.45852,-3.46e-4 -2.64097,1.182106 -2.64062,2.640625 7.3e-4,1.457757 1.18286,2.639018 2.64062,2.638672 1.45776,3.51e-4 2.6399,-1.180911 2.64063,-2.638672 3.5e-4,-1.458523 -1.18211,-2.640977 -2.64063,-2.640625 z m 9.59961,0 c -1.45776,7.31e-4 -2.63902,1.182867 -2.63867,2.640625 7.3e-4,1.456995 1.18167,2.637942 2.63867,2.638672 1.45776,3.51e-4 2.6399,-1.180911 2.64063,-2.638672 3.5e-4,-1.458523 -1.18211,-2.640977 -2.64063,-2.640625 z m 9.59961,0 c -1.45776,7.31e-4 -2.63902,1.182867 -2.63867,2.640625 7.3e-4,1.456995 1.18167,2.637942 2.63867,2.638672 1.45776,3.51e-4 2.6399,-1.180911 2.64063,-2.638672 3.5e-4,-1.458523 -1.18211,-2.640977 -2.64063,-2.640625 z m -230.398435,0.75 c -1.044362,-4.81e-4 -1.891106,0.846263 -1.890625,1.890625 5.98e-4,1.0436 0.847025,1.889152 1.890625,1.888672 1.042837,-5.98e-4 1.888074,-0.845835 1.888672,-1.888672 4.8e-4,-1.0436 -0.845072,-1.890027 -1.888672,-1.890625 z m 153.599605,0 c -1.04436,-4.78e-4 -1.8911,0.846265 -1.89062,1.890625 6e-4,1.043598 0.84702,1.88915 1.89062,1.888672 1.04284,-5.93e-4 1.88808,-0.845832 1.88868,-1.888672 4.8e-4,-1.043603 -0.84508,-1.890031 -1.88868,-1.890625 z m 187.19922,3.90625 c -1.53694,4.38e-4 -2.78276,1.246264 -2.7832,2.783203 -6.4e-4,1.537701 1.2455,2.784718 2.7832,2.785156 1.53847,6.45e-4 2.7858,-1.246689 2.78516,-2.785156 -4.4e-4,-1.537704 -1.24746,-2.783847 -2.78516,-2.783203 z m 19.19922,0 c -1.53694,4.38e-4 -2.78276,1.246264 -2.7832,2.783203 -6.4e-4,1.537701 1.2455,2.784718 2.7832,2.785156 1.53847,6.45e-4 2.7858,-1.246689 2.78516,-2.785156 -4.4e-4,-1.537704 -1.24746,-2.783847 -2.78516,-2.783203 z m -278.39844,3.294922 c -1.0436,-4.78e-4 -1.89002,0.845074 -1.89062,1.888672 -4.8e-4,1.04436 0.84626,1.891102 1.89062,1.890624 1.0436,-5.94e-4 1.88916,-0.847022 1.88868,-1.890624 -6e-4,-1.04284 -0.84584,-1.888079 -1.88868,-1.888672 z m 187.19922,7.199218 c -1.04436,-4.78e-4 -1.8911,0.846265 -1.89062,1.890625 6e-4,1.043598 0.84702,1.88915 1.89062,1.888672 1.04284,-5.99e-4 1.88807,-0.845836 1.88867,-1.888672 4.8e-4,-1.043599 -0.84507,-1.890026 -1.88867,-1.890625 z M 9.1035156,88.058594 c -1.5377025,-6.42e-4 -2.7847197,1.2455 -2.7851562,2.783203 -6.425e-4,1.538465 1.2466909,2.785799 2.7851562,2.785156 1.5377024,-4.36e-4 2.7838454,-1.247453 2.7832034,-2.785156 -4.36e-4,-1.53694 -1.246263,-2.782767 -2.7832034,-2.783203 z M 210.5957,88.101562 c -1.51131,-1.8e-4 -2.73651,1.225023 -2.73632,2.736329 -1.8e-4,1.511306 1.22501,2.736508 2.73632,2.736328 1.51131,1.86e-4 2.73651,-1.225018 2.73633,-2.736328 1.9e-4,-1.51131 -1.22502,-2.736515 -2.73633,-2.736329 z m -41.02929,0.0059 v 5.470703 h 5.4707 v -2.697266 c 7.4e-4,-0.01302 0.001,-0.02604 0.002,-0.03906 -5e-4,-0.01628 -0.001,-0.03256 -0.002,-0.04883 v -2.685547 z m 12.33593,0 c -1.51054,-1.8e-4 -2.73543,1.223832 -2.73632,2.734375 -1.8e-4,1.511306 1.22501,2.736508 2.73632,2.736328 1.51055,-8.91e-4 2.73456,-1.22578 2.73438,-2.736328 -8.9e-4,-1.509786 -1.22459,-2.733485 -2.73438,-2.734375 z m 9.60157,0 c -1.51055,-1.86e-4 -2.73544,1.223828 -2.73633,2.734375 -1.8e-4,1.51131 1.22502,2.736514 2.73633,2.736328 1.51131,1.8e-4 2.7365,-1.225022 2.73632,-2.736328 -8.9e-4,-1.510543 -1.22578,-2.734555 -2.73632,-2.734375 z m 9.59961,0 c -1.51055,-1.86e-4 -2.73544,1.223828 -2.73633,2.734375 -1.8e-4,1.51131 1.22502,2.736514 2.73633,2.736328 1.51054,-8.96e-4 2.73455,-1.225784 2.73437,-2.736328 -8.9e-4,-1.509782 -1.22459,-2.733479 -2.73437,-2.734375 z m 153.59765,5.644531 c -1.0436,5.99e-4 -1.88915,0.847026 -1.88867,1.890625 6e-4,1.042836 0.84583,1.888073 1.88867,1.888672 1.0436,4.83e-4 1.89003,-0.84507 1.89063,-1.888672 4.8e-4,-1.044364 -0.84627,-1.891108 -1.89063,-1.890625 z m 96,1.505859 c -1.5377,4.38e-4 -2.78384,1.247455 -2.7832,2.785157 4.4e-4,1.536938 1.24626,2.782761 2.7832,2.783201 1.5377,6.4e-4 2.78472,-1.245498 2.78516,-2.783201 6.4e-4,-1.538467 -1.24669,-2.785802 -2.78516,-2.785157 z m -19.19922,0.894532 c -1.04436,-4.78e-4 -1.8911,0.846265 -1.89062,1.890625 6e-4,1.043598 0.84702,1.88915 1.89062,1.888672 1.04284,-5.99e-4 1.88807,-0.845836 1.88867,-1.888672 4.8e-4,-1.043599 -0.84507,-1.890026 -1.88867,-1.890625 z M 9.1035156,97.658203 c -1.5377041,-6.42e-4 -2.7847219,1.245503 -2.7851562,2.783207 -6.392e-4,1.53846 1.2466932,2.78579 2.7851562,2.78515 1.5377004,-4.4e-4 2.7838424,-1.24745 2.7832034,-2.78515 -4.34e-4,-1.536941 -1.246262,-2.782771 -2.7832034,-2.783207 z m 294.8144544,0 v 5.568357 h 5.56836 v -5.568357 z m 12.38476,0 c -1.5377,-6.39e-4 -2.78472,1.245505 -2.78515,2.783207 -6.4e-4,1.53846 1.24669,2.78579 2.78515,2.78515 1.5377,-4.3e-4 2.78385,-1.24745 2.78321,-2.78515 -4.3e-4,-1.536944 -1.24627,-2.782774 -2.78321,-2.783207 z m 9.59961,0 c -1.53694,4.38e-4 -2.78277,1.246267 -2.7832,2.783207 -6.4e-4,1.5377 1.2455,2.78471 2.7832,2.78515 1.5377,-4.3e-4 2.78385,-1.24745 2.78321,-2.78515 -4.3e-4,-1.536944 -1.24627,-2.782774 -2.78321,-2.783207 z m -50.40039,0.384766 c -1.32503,-2.19e-4 -2.39953,1.073413 -2.40039,2.398441 -2.2e-4,1.32579 1.0746,2.40061 2.40039,2.40039 1.32579,2.2e-4 2.40061,-1.0746 2.40039,-2.40039 -8.6e-4,-1.325028 -1.07536,-2.39866 -2.40039,-2.398441 z M 85.902344,98.552734 c -1.0436,5.98e-4 -1.889153,0.847026 -1.888672,1.890626 5.99e-4,1.04284 0.845836,1.88807 1.888672,1.88867 1.043599,4.8e-4 1.890026,-0.84507 1.890625,-1.88867 4.81e-4,-1.044363 -0.846262,-1.891107 -1.890625,-1.890626 z m 179.999996,0 c -1.04436,-4.78e-4 -1.8911,0.846265 -1.89062,1.890626 6e-4,1.0436 0.84702,1.88915 1.89062,1.88867 1.04284,-5.9e-4 1.88808,-0.84583 1.88868,-1.88867 4.8e-4,-1.043603 -0.84508,-1.890032 -1.88868,-1.890626 z m 69.59961,0 c -1.04436,-4.78e-4 -1.8911,0.846265 -1.89062,1.890626 6e-4,1.0436 0.84702,1.88915 1.89062,1.88867 1.04284,-6e-4 1.88807,-0.84583 1.88867,-1.88867 4.8e-4,-1.043599 -0.84507,-1.890027 -1.88867,-1.890626 z m 43.19922,7.199216 c -1.0436,6e-4 -1.88915,0.84703 -1.88867,1.89063 6e-4,1.04284 0.84583,1.88807 1.88867,1.88867 1.0436,4.8e-4 1.89003,-0.84507 1.89063,-1.88867 4.8e-4,-1.04437 -0.84626,-1.89111 -1.89063,-1.89063 z m -103.19922,1.90821 c -1.32579,-2.2e-4 -2.40061,1.0746 -2.40039,2.40039 -2.2e-4,1.32579 1.0746,2.40061 2.40039,2.40039 1.32579,2.2e-4 2.40061,-1.0746 2.40039,-2.40039 2.2e-4,-1.32579 -1.0746,-2.40061 -2.40039,-2.40039 z m -223.199216,2.14257 c -1.458523,-3.5e-4 -2.640977,1.18211 -2.640625,2.64063 7.31e-4,1.45776 1.182867,2.63902 2.640625,2.63867 1.457758,3.5e-4 2.639894,-1.18091 2.640625,-2.63867 3.52e-4,-1.45852 -1.182102,-2.64098 -2.640625,-2.64063 z m 9.59961,0 c -1.457761,7.3e-4 -2.639023,1.18287 -2.638672,2.64063 7.3e-4,1.457 1.181677,2.63794 2.638672,2.63867 1.457758,3.5e-4 2.639894,-1.18091 2.640625,-2.63867 3.52e-4,-1.45852 -1.182102,-2.64098 -2.640625,-2.64063 z m 9.601562,0 c -1.458523,-3.5e-4 -2.640977,1.18211 -2.640625,2.64063 7.31e-4,1.45776 1.182867,2.63902 2.640625,2.63867 1.456995,-7.3e-4 2.637942,-1.18167 2.638672,-2.63867 3.51e-4,-1.45776 -1.180911,-2.6399 -2.638672,-2.64063 z m 9.59961,0 c -1.458523,-3.5e-4 -2.640977,1.18211 -2.640625,2.64063 7.31e-4,1.45776 1.182867,2.63902 2.640625,2.63867 1.456995,-7.3e-4 2.637942,-1.18167 2.638672,-2.63867 3.51e-4,-1.45776 -1.180911,-2.6399 -2.638672,-2.64063 z m 9.599609,0 c -1.458523,-3.5e-4 -2.640977,1.18211 -2.640625,2.64063 7.31e-4,1.45776 1.182867,2.63902 2.640625,2.63867 1.457758,3.5e-4 2.639894,-1.18091 2.640625,-2.63867 3.52e-4,-1.45852 -1.182102,-2.64098 -2.640625,-2.64063 z m 9.599605,0 c -1.458522,-3.5e-4 -2.640973,1.18211 -2.640621,2.64063 7.31e-4,1.45776 1.182865,2.63902 2.640621,2.63867 1.45776,3.5e-4 2.6399,-1.18091 2.64063,-2.63867 3.5e-4,-1.45853 -1.1821,-2.64098 -2.64063,-2.64063 z m 9.59961,0 c -1.45776,7.3e-4 -2.63902,1.18287 -2.63867,2.64063 7.3e-4,1.45699 1.18168,2.63794 2.63867,2.63867 1.45776,3.5e-4 2.6399,-1.18091 2.64063,-2.63867 3.5e-4,-1.45853 -1.1821,-2.64098 -2.64063,-2.64063 z m 52.80078,4.65625 c -1.5377,-6.4e-4 -2.78472,1.24551 -2.78515,2.78321 4.4e-4,1.5377 1.24745,2.78384 2.78515,2.7832 1.53694,-4.3e-4 2.78277,-1.24626 2.78321,-2.7832 -4.3e-4,-1.53695 -1.24626,-2.78278 -2.78321,-2.78321 z m 57.59961,0 c -1.53694,4.4e-4 -2.78277,1.24627 -2.7832,2.78321 4.4e-4,1.53694 1.24626,2.78276 2.7832,2.7832 1.53694,-4.3e-4 2.78277,-1.24626 2.78321,-2.7832 -4.3e-4,-1.53695 -1.24626,-2.78278 -2.78321,-2.78321 z m 33.59961,0.14454 c -1.45776,-3.5e-4 -2.63989,1.18091 -2.64062,2.63867 -3.5e-4,1.45852 1.1821,2.64097 2.64062,2.64062 1.45852,3.5e-4 2.64098,-1.1821 2.64063,-2.64062 -7.3e-4,-1.45776 -1.18287,-2.63902 -2.64063,-2.63867 z m -24,0.2207 c -1.32579,-2.2e-4 -2.40061,1.0746 -2.40039,2.40039 -2.2e-4,1.32579 1.0746,2.40061 2.40039,2.40039 1.32579,2.2e-4 2.40061,-1.0746 2.40039,-2.40039 2.2e-4,-1.32579 -1.0746,-2.40061 -2.40039,-2.40039 z m 139.19922,0.0176 c -1.32503,8.6e-4 -2.39866,1.07536 -2.39844,2.40039 -2.2e-4,1.32503 1.07341,2.39953 2.39844,2.40039 1.32579,2.2e-4 2.40061,-1.0746 2.40039,-2.40039 2.2e-4,-1.32579 -1.0746,-2.40061 -2.40039,-2.40039 z m 9.61914,0 c -1.32579,-2.2e-4 -2.40061,1.0746 -2.40039,2.40039 -2.2e-4,1.32579 1.0746,2.40061 2.40039,2.40039 1.32503,-8.6e-4 2.39866,-1.07536 2.39844,-2.40039 2.2e-4,-1.32503 -1.07341,-2.39953 -2.39844,-2.40039 z m -72.01758,2.01562 c -1.53846,-6.4e-4 -2.78579,1.2467 -2.78515,2.78516 4.4e-4,1.5377 1.24745,2.78384 2.78515,2.7832 1.53694,-4.3e-4 2.78277,-1.24626 2.78321,-2.7832 6.4e-4,-1.53771 -1.2455,-2.78473 -2.78321,-2.78516 z m 9.59961,0 c -1.53846,-6.4e-4 -2.78579,1.2467 -2.78515,2.78516 4.4e-4,1.5377 1.24745,2.78384 2.78515,2.7832 1.53694,-4.3e-4 2.78277,-1.24626 2.78321,-2.7832 6.4e-4,-1.53771 -1.2455,-2.78473 -2.78321,-2.78516 z m 6.81641,0 v 5.56836 h 5.56641 v -5.56836 z m -290.015624,5.69531 c -1.043603,-4.8e-4 -1.890031,0.84508 -1.890625,1.88868 -4.78e-4,1.04436 0.846265,1.8911 1.890625,1.89062 1.043598,-6e-4 1.88915,-0.84702 1.888672,-1.89062 -5.93e-4,-1.04284 -0.845832,-1.88808 -1.888672,-1.88868 z m 40.798828,0 c -1.04284,6e-4 -1.888079,0.84584 -1.888672,1.88868 -4.78e-4,1.0436 0.845074,1.89002 1.888672,1.89062 1.04436,4.8e-4 1.891103,-0.84626 1.890625,-1.89062 -5.94e-4,-1.0436 -0.847022,-1.88916 -1.890625,-1.88868 z m 146.400386,1.50586 c -1.53694,4.4e-4 -2.78277,1.24627 -2.7832,2.78321 -6.4e-4,1.5377 1.2455,2.78471 2.7832,2.78515 1.5377,-4.3e-4 2.78385,-1.24745 2.78321,-2.78515 -4.3e-4,-1.53695 -1.24626,-2.78278 -2.78321,-2.78321 z m 126.95899,0.14453 v 5.2793 h 5.28125 v -5.2793 z m 31.4414,0 c -1.45776,-3.5e-4 -2.63989,1.18092 -2.64062,2.63868 -3.5e-4,1.45852 1.1821,2.64097 2.64062,2.64062 1.45776,-7.3e-4 2.63903,-1.18286 2.63868,-2.64062 -7.2e-4,-1.457 -1.18168,-2.63796 -2.63868,-2.63868 z m -141.5996,0.22266 c -1.32503,-2.2e-4 -2.39954,1.07341 -2.4004,2.39844 -2.2e-4,1.32579 1.07461,2.40061 2.4004,2.40039 1.32502,-8.6e-4 2.39865,-1.07537 2.39843,-2.40039 -8.6e-4,-1.32426 -1.07417,-2.39758 -2.39843,-2.39844 z m -7.20118,0.0156 c -1.32579,-2.2e-4 -2.40061,1.0746 -2.40039,2.40039 -2.2e-4,1.32579 1.0746,2.40061 2.40039,2.40039 1.32579,2.2e-4 2.40061,-1.0746 2.40039,-2.40039 2.2e-4,-1.32579 -1.0746,-2.40061 -2.40039,-2.40039 z M 9.1035156,126.45898 c -1.5377052,-6.4e-4 -2.7847235,1.2455 -2.7851562,2.78321 4.382e-4,1.5377 1.2474549,2.78384 2.7851562,2.7832 1.5369384,-4.4e-4 2.7827654,-1.24626 2.7832034,-2.7832 -4.33e-4,-1.53694 -1.246261,-2.78277 -2.7832034,-2.78321 z m 381.5976544,3.29297 c -1.0436,6e-4 -1.88915,0.84703 -1.88867,1.89063 6e-4,1.04284 0.84583,1.88807 1.88867,1.88867 1.0436,4.8e-4 1.89003,-0.84507 1.89063,-1.88867 4.8e-4,-1.04437 -0.84626,-1.89111 -1.89063,-1.89063 z m -227.99805,3.90625 c -1.5377,-6.4e-4 -2.78472,1.24551 -2.78515,2.78321 -6.4e-4,1.53846 1.24669,2.78579 2.78515,2.78515 1.5377,-4.3e-4 2.78385,-1.24745 2.78321,-2.78515 -4.3e-4,-1.53695 -1.24626,-2.78278 -2.78321,-2.78321 z m 57.59961,0 c -1.53694,4.4e-4 -2.78277,1.24627 -2.7832,2.78321 -6.4e-4,1.5377 1.2455,2.78471 2.7832,2.78515 1.5377,-4.3e-4 2.78385,-1.24745 2.78321,-2.78515 -4.3e-4,-1.53695 -1.24626,-2.78278 -2.78321,-2.78321 z m 24,0.14453 c -1.45852,-3.5e-4 -2.64097,1.18211 -2.64062,2.64063 7.3e-4,1.45776 1.18286,2.63902 2.64062,2.63867 1.45776,3.5e-4 2.6399,-1.18091 2.64063,-2.63867 3.5e-4,-1.45853 -1.1821,-2.64098 -2.64063,-2.64063 z m 105.59961,0 c -1.45776,-3.5e-4 -2.63989,1.18092 -2.64062,2.63868 -3.5e-4,1.45852 1.1821,2.64097 2.64062,2.64062 1.45852,3.5e-4 2.64098,-1.1821 2.64063,-2.64062 -7.3e-4,-1.45776 -1.18287,-2.63903 -2.64063,-2.63868 z m 28.80078,0 c -1.45776,-3.5e-4 -2.63989,1.18092 -2.64062,2.63868 -3.5e-4,1.45852 1.1821,2.64097 2.64062,2.64062 1.45776,-7.3e-4 2.63903,-1.18286 2.63868,-2.64062 -7.2e-4,-1.457 -1.18168,-2.63796 -2.63868,-2.63868 z m -141.5996,0.24024 c -1.32579,-2.2e-4 -2.40062,1.0746 -2.4004,2.40039 8.6e-4,1.32503 1.07537,2.39866 2.4004,2.39844 1.32426,-8.6e-4 2.39757,-1.07418 2.39843,-2.39844 2.2e-4,-1.32502 -1.07341,-2.39953 -2.39843,-2.40039 z m 43.19921,0.50976 c -1.0436,-4.8e-4 -1.89003,0.84508 -1.89062,1.88868 -4.8e-4,1.04436 0.84626,1.8911 1.89062,1.89062 1.0436,-5.9e-4 1.88916,-0.84702 1.88868,-1.89062 -5.9e-4,-1.04284 -0.84584,-1.88809 -1.88868,-1.88868 z M 9.1035156,136.05859 c -1.5377052,-6.4e-4 -2.7847235,1.2455 -2.7851562,2.78321 -6.392e-4,1.53846 1.2466932,2.78579 2.7851562,2.78515 1.5377004,-4.4e-4 2.7838424,-1.24745 2.7832034,-2.78515 -4.33e-4,-1.53694 -1.246261,-2.78277 -2.7832034,-2.78321 z m 40.5585934,2.54297 v 5.28125 h 5.28125 v -5.28125 z m 12.240235,0 c -1.457761,7.3e-4 -2.639023,1.18287 -2.638672,2.64063 -3.46e-4,1.45776 1.180915,2.63989 2.638672,2.64062 1.458519,3.5e-4 2.640971,-1.1821 2.640625,-2.64062 3.52e-4,-1.45852 -1.182102,-2.64098 -2.640625,-2.64063 z m 9.601562,0 c -1.458523,-3.5e-4 -2.640977,1.18211 -2.640625,2.64063 -3.46e-4,1.45852 1.182106,2.64097 2.640625,2.64062 1.457757,-7.3e-4 2.639018,-1.18286 2.638672,-2.64062 3.51e-4,-1.45776 -1.180911,-2.6399 -2.638672,-2.64063 z m 9.59961,0 c -1.458523,-3.5e-4 -2.640977,1.18211 -2.640625,2.64063 -3.46e-4,1.45852 1.182106,2.64097 2.640625,2.64062 1.457757,-7.3e-4 2.639018,-1.18286 2.638672,-2.64062 3.51e-4,-1.45776 -1.180911,-2.6399 -2.638672,-2.64063 z m 9.599609,0 c -1.458523,-3.5e-4 -2.640977,1.18211 -2.640625,2.64063 -3.46e-4,1.45852 1.182106,2.64097 2.640625,2.64062 1.458519,3.5e-4 2.640971,-1.1821 2.640625,-2.64062 3.52e-4,-1.45852 -1.182102,-2.64098 -2.640625,-2.64063 z m 9.599605,0 c -1.458522,-3.5e-4 -2.640973,1.18211 -2.640621,2.64063 -3.46e-4,1.45852 1.182103,2.64097 2.640621,2.64062 1.45852,3.5e-4 2.64098,-1.1821 2.64063,-2.64062 3.5e-4,-1.45853 -1.1821,-2.64098 -2.64063,-2.64063 z m 9.59961,0 c -1.45776,7.3e-4 -2.63902,1.18287 -2.63867,2.64063 -3.5e-4,1.45776 1.18091,2.63989 2.63867,2.64062 1.45852,3.5e-4 2.64098,-1.1821 2.64063,-2.64062 3.5e-4,-1.45853 -1.1821,-2.64098 -2.64063,-2.64063 z m 153.59961,3.15039 c -1.04436,-4.8e-4 -1.8911,0.84627 -1.89062,1.89063 6e-4,1.0436 0.84702,1.88915 1.89062,1.88867 1.04284,-6e-4 1.88807,-0.84583 1.88867,-1.88867 4.8e-4,-1.0436 -0.84507,-1.89003 -1.88867,-1.89063 z m 187.19922,1.50586 c -1.5377,4.4e-4 -2.78384,1.24746 -2.7832,2.78516 4.4e-4,1.53694 1.24626,2.78276 2.7832,2.7832 1.5377,6.4e-4 2.78472,-1.2455 2.78516,-2.7832 6.4e-4,-1.53847 -1.24669,-2.7858 -2.78516,-2.78516 z m -100.79883,0.14453 c -1.45852,-3.5e-4 -2.64097,1.18211 -2.64062,2.64063 7.3e-4,1.45776 1.18286,2.63902 2.64062,2.63867 1.45776,3.5e-4 2.6399,-1.18091 2.64063,-2.63867 3.5e-4,-1.45853 -1.1821,-2.64098 -2.64063,-2.64063 z m 28.80078,0 c -1.45852,-3.5e-4 -2.64097,1.18211 -2.64062,2.64063 7.3e-4,1.45776 1.18286,2.63902 2.64062,2.63867 1.457,-7.2e-4 2.63795,-1.18167 2.63868,-2.63867 3.5e-4,-1.45776 -1.18092,-2.6399 -2.63868,-2.64063 z m 19.19922,0.75 c -1.0436,-4.8e-4 -1.89003,0.84508 -1.89062,1.88868 -4.8e-4,1.04436 0.84626,1.8911 1.89062,1.89062 1.0436,-5.9e-4 1.88916,-0.84702 1.88868,-1.89062 -5.9e-4,-1.04284 -0.84584,-1.88809 -1.88868,-1.88868 z M 81.085938,150.8418 c -1.32579,-2.2e-4 -2.40061,1.0746 -2.400391,2.40039 -2.19e-4,1.32579 1.074601,2.40061 2.400391,2.40039 1.325027,-8.6e-4 2.398656,-1.07536 2.398437,-2.40039 2.19e-4,-1.32503 -1.07341,-2.39953 -2.398437,-2.40039 z m 9.617187,0 c -1.32579,-2.2e-4 -2.40061,1.0746 -2.400391,2.40039 -2.19e-4,1.32579 1.074601,2.40061 2.400391,2.40039 1.32579,2.2e-4 2.40061,-1.0746 2.400391,-2.40039 2.19e-4,-1.32579 -1.074601,-2.40061 -2.400391,-2.40039 z m 50.398435,0.50976 c -1.0436,6e-4 -1.88915,0.84703 -1.88867,1.89063 6e-4,1.04284 0.84583,1.88807 1.88867,1.88867 1.0436,4.8e-4 1.89003,-0.84507 1.89063,-1.88867 4.8e-4,-1.04437 -0.84626,-1.89111 -1.89063,-1.89063 z m 309.59961,1.50782 c -1.53694,4.4e-4 -2.78276,1.24626 -2.7832,2.7832 4.4e-4,1.53694 1.24626,2.78276 2.7832,2.7832 1.5377,6.4e-4 2.78472,-1.2455 2.78516,-2.7832 -4.4e-4,-1.5377 -1.24746,-2.78384 -2.78516,-2.7832 z m -196.79883,0.14257 c -1.45852,-3.5e-4 -2.64097,1.18211 -2.64062,2.64063 -3.5e-4,1.45852 1.1821,2.64097 2.64062,2.64062 1.45852,3.5e-4 2.64098,-1.1821 2.64063,-2.64062 3.5e-4,-1.45853 -1.1821,-2.64098 -2.64063,-2.64063 z m 96,0 c -1.45852,-3.5e-4 -2.64097,1.18211 -2.64062,2.64063 7.3e-4,1.45776 1.18286,2.63902 2.64062,2.63867 1.45776,3.5e-4 2.6399,-1.18091 2.64063,-2.63867 3.5e-4,-1.45853 -1.1821,-2.64098 -2.64063,-2.64063 z m 28.80078,0 c -1.45852,-3.5e-4 -2.64097,1.18211 -2.64062,2.64063 7.3e-4,1.45776 1.18286,2.63902 2.64062,2.63867 1.457,-7.2e-4 2.63795,-1.18167 2.63868,-2.63867 3.5e-4,-1.45776 -1.18092,-2.6399 -2.63868,-2.64063 z m -67.20117,0.75 c -1.04436,-4.8e-4 -1.8911,0.84627 -1.89062,1.89063 6e-4,1.0436 0.84702,1.88915 1.89062,1.88867 1.04284,-6e-4 1.88807,-0.84583 1.88867,-1.88867 4.8e-4,-1.0436 -0.84507,-1.89003 -1.88867,-1.89063 z m 93.59961,0 c -1.04436,-4.8e-4 -1.8911,0.84627 -1.89062,1.89063 6e-4,1.0436 0.84702,1.88915 1.89062,1.88867 1.0436,4.8e-4 1.89003,-0.84507 1.89063,-1.88867 4.8e-4,-1.04437 -0.84626,-1.89111 -1.89063,-1.89063 z m 45.59961,8.70703 c -1.53694,4.4e-4 -2.78277,1.24627 -2.7832,2.78321 -6.4e-4,1.5377 1.2455,2.78471 2.7832,2.78515 1.53846,6.4e-4 2.7858,-1.24669 2.78516,-2.78515 -4.3e-4,-1.53771 -1.24745,-2.78385 -2.78516,-2.78321 z m -187.26562,0.0664 c -1.45853,-3.5e-4 -2.64098,1.1821 -2.64063,2.64063 7.3e-4,1.45776 1.18287,2.63902 2.64063,2.63867 1.45776,3.5e-4 2.63989,-1.18091 2.64062,-2.63867 3.5e-4,-1.45852 -1.1821,-2.64098 -2.64062,-2.64063 z m 9.59961,0 c -1.45776,7.3e-4 -2.63903,1.18287 -2.63868,2.64063 7.3e-4,1.457 1.18168,2.63795 2.63868,2.63867 1.45776,3.5e-4 2.63989,-1.18091 2.64062,-2.63867 3.5e-4,-1.45852 -1.1821,-2.64098 -2.64062,-2.64063 z m 9.60156,0 c -1.45853,-3.5e-4 -2.64098,1.1821 -2.64063,2.64063 7.3e-4,1.45776 1.18287,2.63902 2.64063,2.63867 1.45699,-7.3e-4 2.63794,-1.18168 2.63867,-2.63867 3.5e-4,-1.45776 -1.18091,-2.6399 -2.63867,-2.64063 z m 9.59961,0 c -1.45853,-3.5e-4 -2.64098,1.1821 -2.64063,2.64063 7.3e-4,1.45776 1.18287,2.63902 2.64063,2.63867 1.45699,-7.3e-4 2.63794,-1.18168 2.63867,-2.63867 3.5e-4,-1.45776 -1.18091,-2.6399 -2.63867,-2.64063 z m 9.59961,0 c -1.45853,-3.5e-4 -2.64098,1.1821 -2.64063,2.64063 7.3e-4,1.45776 1.18287,2.63902 2.64063,2.63867 1.45776,3.5e-4 2.63989,-1.18091 2.64062,-2.63867 3.5e-4,-1.45852 -1.1821,-2.64098 -2.64062,-2.64063 z m 9.59961,0 c -1.45853,-3.5e-4 -2.64098,1.1821 -2.64063,2.64063 7.3e-4,1.45776 1.18287,2.63902 2.64063,2.63867 1.45776,3.5e-4 2.63989,-1.18091 2.64062,-2.63867 3.5e-4,-1.45852 -1.1821,-2.64098 -2.64062,-2.64063 z m 9.59961,0 c -1.45776,7.3e-4 -2.63903,1.18287 -2.63868,2.64063 7.3e-4,1.457 1.18168,2.63795 2.63868,2.63867 1.45776,3.5e-4 2.63989,-1.18091 2.64062,-2.63867 3.5e-4,-1.45852 -1.1821,-2.64098 -2.64062,-2.64063 z m 28.86718,0.0762 c -1.45852,-3.5e-4 -2.64097,1.18211 -2.64062,2.64063 -3.5e-4,1.45852 1.1821,2.64097 2.64062,2.64062 1.45852,3.5e-4 2.64098,-1.1821 2.64063,-2.64062 3.5e-4,-1.45853 -1.1821,-2.64098 -2.64063,-2.64063 z m 28.80078,0 c -1.45852,-3.5e-4 -2.64097,1.18211 -2.64062,2.64063 -3.5e-4,1.45852 1.1821,2.64097 2.64062,2.64062 1.45776,-7.3e-4 2.63903,-1.18286 2.63868,-2.64062 3.5e-4,-1.45776 -1.18092,-2.6399 -2.63868,-2.64063 z m -182.40039,0.24024 c -1.32579,-2.2e-4 -2.40061,1.0746 -2.40039,2.40039 -2.2e-4,1.32579 1.0746,2.40061 2.40039,2.40039 1.32579,2.2e-4 2.40061,-1.0746 2.40039,-2.40039 2.2e-4,-1.32579 -1.0746,-2.40061 -2.40039,-2.40039 z m 9.61719,0 c -1.32579,-2.2e-4 -2.40061,1.0746 -2.40039,2.40039 -2.2e-4,1.32579 1.0746,2.40061 2.40039,2.40039 1.32579,2.2e-4 2.40061,-1.0746 2.40039,-2.40039 2.2e-4,-1.32579 -1.0746,-2.40061 -2.40039,-2.40039 z m 213.58203,0.50976 c -1.04436,-4.8e-4 -1.8911,0.84627 -1.89062,1.89063 6e-4,1.0436 0.84702,1.88915 1.89062,1.88867 1.04284,-6e-4 1.88807,-0.84583 1.88867,-1.88867 4.8e-4,-1.0436 -0.84507,-1.89003 -1.88867,-1.89063 z m -352.666012,2.17383 v 4.53516 h 4.535156 v -4.53516 z m 383.865232,6.5332 c -1.53694,4.4e-4 -2.78277,1.24627 -2.7832,2.78321 -6.4e-4,1.5377 1.2455,2.78471 2.7832,2.78515 1.53846,6.4e-4 2.7858,-1.24669 2.78516,-2.78515 -4.3e-4,-1.53771 -1.24745,-2.78385 -2.78516,-2.78321 z m -254.39844,0.14453 c -1.45776,-3.5e-4 -2.63989,1.18092 -2.64062,2.63868 -3.5e-4,1.45852 1.1821,2.64097 2.64062,2.64062 1.45852,3.5e-4 2.64098,-1.1821 2.64063,-2.64062 -7.3e-4,-1.45776 -1.18287,-2.63903 -2.64063,-2.63868 z m 38.40039,0 c -1.45776,-3.5e-4 -2.63989,1.18092 -2.64062,2.63868 -3.5e-4,1.45852 1.1821,2.64097 2.64062,2.64062 1.45776,-7.3e-4 2.63903,-1.18286 2.63868,-2.64062 -7.2e-4,-1.457 -1.18168,-2.63796 -2.63868,-2.63868 z m 9.59961,0 c -1.45776,-3.5e-4 -2.63989,1.18092 -2.64062,2.63868 -3.5e-4,1.45852 1.1821,2.64097 2.64062,2.64062 1.45852,3.5e-4 2.64098,-1.1821 2.64063,-2.64062 -7.3e-4,-1.45776 -1.18287,-2.63903 -2.64063,-2.63868 z m 105.59961,0 c -1.45776,-3.5e-4 -2.63989,1.18092 -2.64062,2.63868 -3.5e-4,1.45852 1.1821,2.64097 2.64062,2.64062 1.45852,3.5e-4 2.64098,-1.1821 2.64063,-2.64062 -7.3e-4,-1.45776 -1.18287,-2.63903 -2.64063,-2.63868 z m 28.80078,0 c -1.45776,-3.5e-4 -2.63989,1.18092 -2.64062,2.63868 -3.5e-4,1.45852 1.1821,2.64097 2.64062,2.64062 1.45776,-7.3e-4 2.63903,-1.18286 2.63868,-2.64062 -7.2e-4,-1.457 -1.18168,-2.63796 -2.63868,-2.63868 z m -43.20117,0.74805 c -1.04436,-4.8e-4 -1.8911,0.84627 -1.89062,1.89063 -4.8e-4,1.04436 0.84626,1.8911 1.89062,1.89062 1.0436,-6e-4 1.88915,-0.84702 1.88867,-1.89062 4.8e-4,-1.0436 -0.84507,-1.89003 -1.88867,-1.89063 z m 76.79883,0 c -1.0436,6e-4 -1.88915,0.84703 -1.88867,1.89063 -4.8e-4,1.0436 0.84507,1.89002 1.88867,1.89062 1.04436,4.8e-4 1.89111,-0.84626 1.89063,-1.89062 4.8e-4,-1.04437 -0.84626,-1.89111 -1.89063,-1.89063 z m -343.197264,2.02344 c -1.252315,8e-5 -2.267496,1.01526 -2.267578,2.26758 8.2e-5,1.25232 1.015263,2.2675 2.267578,2.26758 1.252315,-8e-5 2.267496,-1.01526 2.267578,-2.26758 -8.2e-5,-1.25232 -1.015263,-2.2675 -2.267578,-2.26758 z m 280.798824,6.82812 c -1.45776,-3.5e-4 -2.63989,1.18092 -2.64062,2.63868 -3.5e-4,1.45852 1.1821,2.64097 2.64062,2.64062 1.45852,3.5e-4 2.64098,-1.1821 2.64063,-2.64062 -7.3e-4,-1.45776 -1.18287,-2.63903 -2.64063,-2.63868 z m 28.80078,0 c -1.45776,-3.5e-4 -2.63989,1.18092 -2.64062,2.63868 -3.5e-4,1.45852 1.1821,2.64097 2.64062,2.64062 1.45776,-7.3e-4 2.63903,-1.18286 2.63868,-2.64062 -7.2e-4,-1.457 -1.18168,-2.63796 -2.63868,-2.63868 z m -43.20117,0.22266 c -1.32503,-2.2e-4 -2.39953,1.07341 -2.40039,2.39844 -2.2e-4,1.32579 1.0746,2.40061 2.40039,2.40039 1.32579,2.2e-4 2.40061,-1.0746 2.40039,-2.40039 -8.6e-4,-1.32503 -1.07536,-2.39866 -2.40039,-2.39844 z m 55.19922,2.92578 c -1.0436,6e-4 -1.88915,0.84703 -1.88867,1.89063 6e-4,1.04284 0.84583,1.88807 1.88867,1.88867 1.0436,4.8e-4 1.89003,-0.84507 1.89063,-1.88867 4.8e-4,-1.04437 -0.84626,-1.89111 -1.89063,-1.89063 z m -379.197264,5.44531 c -3.3395185,1.9e-4 -6.0466838,2.70736 -6.0468748,6.04688 1.965e-4,3.33951 2.7073602,6.04668 6.0468748,6.04687 3.339515,-1.9e-4 6.046679,-2.70736 6.046875,-6.04687 -1.91e-4,-3.33952 -2.707356,-6.04669 -6.046875,-6.04688 z m 439.199214,0 c -3.33952,2e-4 -6.04668,2.70736 -6.04687,6.04688 2e-4,3.33951 2.70736,6.04667 6.04687,6.04687 3.33952,-1.9e-4 6.04668,-2.70735 6.04688,-6.04687 -1.9e-4,-3.33952 -2.70736,-6.04669 -6.04688,-6.04688 z m -189.9082,0.92774 v 5.28125 h 5.28125 v -5.28125 z m 12.24024,0 c -1.45776,7.3e-4 -2.63903,1.18286 -2.63868,2.64062 -3.5e-4,1.45776 1.18092,2.6399 2.63868,2.64063 1.45852,3.5e-4 2.64097,-1.18211 2.64062,-2.64063 3.5e-4,-1.45852 -1.1821,-2.64097 -2.64062,-2.64062 z m 9.60156,0 c -1.45852,-3.5e-4 -2.64098,1.1821 -2.64063,2.64062 -3.5e-4,1.45853 1.1821,2.64098 2.64063,2.64063 1.45776,-7.3e-4 2.63902,-1.18287 2.63867,-2.64063 3.5e-4,-1.45776 -1.18091,-2.63989 -2.63867,-2.64062 z m 9.59961,0 c -1.45852,-3.5e-4 -2.64098,1.1821 -2.64063,2.64062 -3.5e-4,1.45853 1.1821,2.64098 2.64063,2.64063 1.45776,-7.3e-4 2.63902,-1.18287 2.63867,-2.64063 3.5e-4,-1.45776 -1.18091,-2.63989 -2.63867,-2.64062 z m 9.59961,0 c -1.45852,-3.5e-4 -2.64098,1.1821 -2.64063,2.64062 -3.5e-4,1.45853 1.1821,2.64098 2.64063,2.64063 1.45852,3.5e-4 2.64097,-1.18211 2.64062,-2.64063 3.5e-4,-1.45852 -1.1821,-2.64097 -2.64062,-2.64062 z m 9.59961,0 c -1.45852,-3.5e-4 -2.64098,1.1821 -2.64063,2.64062 -3.5e-4,1.45853 1.1821,2.64098 2.64063,2.64063 1.45852,3.5e-4 2.64097,-1.18211 2.64062,-2.64063 3.5e-4,-1.45852 -1.1821,-2.64097 -2.64062,-2.64062 z m 9.59961,0 c -1.45776,7.3e-4 -2.63903,1.18286 -2.63868,2.64062 -3.5e-4,1.45776 1.18092,2.6399 2.63868,2.64063 1.45852,3.5e-4 2.64097,-1.18211 2.64062,-2.64063 3.5e-4,-1.45852 -1.1821,-2.64097 -2.64062,-2.64062 z m 28.86718,0.0781 c -1.45852,-3.5e-4 -2.64097,1.18211 -2.64062,2.64063 7.3e-4,1.45776 1.18286,2.63902 2.64062,2.63867 1.45776,3.5e-4 2.6399,-1.18091 2.64063,-2.63867 3.5e-4,-1.45853 -1.1821,-2.64098 -2.64063,-2.64063 z m 28.80078,0 c -1.45852,-3.5e-4 -2.64097,1.18211 -2.64062,2.64063 7.3e-4,1.45776 1.18286,2.63902 2.64062,2.63867 1.457,-7.2e-4 2.63795,-1.18167 2.63868,-2.63867 3.5e-4,-1.45776 -1.18092,-2.6399 -2.63868,-2.64063 z m -43.20117,0.24024 c -1.32579,-2.2e-4 -2.40061,1.0746 -2.40039,2.40039 -2.2e-4,1.32579 1.0746,2.40061 2.40039,2.40039 1.32579,2.2e-4 2.40061,-1.0746 2.40039,-2.40039 2.2e-4,-1.32579 -1.0746,-2.40061 -2.40039,-2.40039 z"
       transform="matrix(0.75000176,0,0,0.75000176,0.03722,0.03790042)"
       id="path17"
       inkscape:connector-curvature="0"
       sodipodi:nodetypes="ccccccccccccccccccccccccccccccccccccccccccccccccccccccccccccccccccccccccccccccccccccccccccccccccccccccccccccccccccccccccccccccccccccccccccccccccccccccccccccccccccccccccccccccccccccccccccccccccccccccccccccccccccccccccccccccccccccccccccccccccccccccccccccccccccccccccccccccccccccccccccccccccccccccccccccccccccccccccccccccccccccccccccccccccccccccccccccccccccccccccccccccccccccccccccccccccccccccccccccccccccccccccccccccccccccccccccccccccccccccccccccccccccccccccccccccccccccccccccccccccccccccccccccccccccccccccccccccccccccccccccccccccccccccccccccccccccccccccccccccccccccccccccccccccccccccccccccccccccccccccccccccccccccccccccccccccccccccccccccccccccccccccccccccccccccccccccccccccccccccccccccccccccccccccccccccccccccccccccccccccccccccccccccccccccccccccccccccccccccccccccccccccccccccccccccccccccccccccccccccccccccccccccccccccccccccccccccccccccccccccccccccccccccccccccccccccccccccccccccccccccccccccccccccccccccccccccccccccccccccccccccccccccccccccccccccccccccccccccccccccccccccccccccccccccccccc" />
    <path
       style="color:#000000;font-style:normal;font-variant:normal;font-weight:normal;font-stretch:normal;font-size:medium;line-height:normal;font-family:sans-serif;font-variant-ligatures:normal;font-variant-position:normal;font-variant-caps:normal;font-variant-numeric:normal;font-variant-alternates:normal;font-feature-settings:normal;text-indent:0;text-align:start;text-decoration:none;text-decoration-line:none;text-decoration-style:solid;text-decoration-color:#000000;letter-spacing:normal;word-spacing:normal;text-transform:none;writing-mode:lr-tb;direction:ltr;text-orientation:mixed;dominant-baseline:auto;baseline-shift:baseline;text-anchor:start;white-space:normal;shape-padding:0;clip-rule:nonzero;display:inline;overflow:visible;visibility:visible;opacity:1;isolation:auto;mix-blend-mode:normal;color-interpolation:sRGB;color-interpolation-filters:linearRGB;solid-color:#000000;solid-opacity:1;vector-effect:none;fill:#000000;fill-opacity:1;fill-rule:nonzero;stroke:none;stroke-width:0.49999997;stroke-linecap:butt;stroke-linejoin:miter;stroke-miterlimit:4;stroke-dasharray:none;stroke-dashoffset:0;stroke-opacity:1;color-rendering:auto;image-rendering:auto;shape-rendering:auto;text-rendering:auto;enable-background:accumulate"
       d="M 0.03722,0.03789971 V 0.28789972 155.78009 H 347.38878 V 0.03789971 Z"
       id="path19"
       inkscape:connector-curvature="0"
       sodipodi:nodetypes="cccccc" />
  </g>
</svg>
