<?xml version='1.0' encoding='UTF-8' standalone='no'?>
<!-- Created with Fritzing (http://www.fritzing.org/) -->
<svg xmlns="http://www.w3.org/2000/svg" version="1.2" width="1.4198in"  viewBox="0 0 102.226 272.041" baseProfile="tiny" height="3.77835in" xmlns:svg="http://www.w3.org/2000/svg" x="0in" y="0in">
 <g partID="57470">
  <g  id="board">
   <rect fill-opacity="0.5" width="101.65" stroke="black"  fill="none" id="boardoutline" height="271.465" x="0.288" stroke-width="0.5" y="0.288"/>
  </g>
 </g>
 <g partID="857509860">
  <g transform="translate(11.9624,197.851)">
   <g transform="matrix(-1,0,0,-1,0,0)">
    <g  id="copper0">
     <circle stroke="black"  r="2.088" fill="none" id="connector0pin" cx="5.04" cy="5.04" stroke-width="1.44"/>
     <circle stroke="black"  r="2.088" fill="none" id="connector1pin" cx="5.04" cy="12.24" stroke-width="1.44"/>
     <circle stroke="black"  r="2.088" fill="none" id="connector2pin" cx="5.04" cy="19.44" stroke-width="1.44"/>
     <circle stroke="black"  r="2.088" fill="none" id="connector3pin" cx="5.04" cy="26.64" stroke-width="1.44"/>
    </g>
   </g>
  </g>
 </g>
 <g partID="857534000">
  <g transform="translate(100.242,197.931)">
   <g transform="matrix(-1,0,0,-1,0,0)">
    <g  id="copper0">
     <circle stroke="black"  r="2.088" fill="none" id="connector0pin" cx="5.04" cy="5.04" stroke-width="1.44"/>
     <circle stroke="black"  r="2.088" fill="none" id="connector1pin" cx="5.04" cy="12.24" stroke-width="1.44"/>
     <circle stroke="black"  r="2.088" fill="none" id="connector2pin" cx="5.04" cy="19.44" stroke-width="1.44"/>
     <circle stroke="black"  r="2.088" fill="none" id="connector3pin" cx="5.04" cy="26.64" stroke-width="1.44"/>
    </g>
   </g>
  </g>
 </g>
 <g partID="857509870">
  <g transform="translate(11.9624,133.051)">
   <g transform="matrix(-1,0,0,-1,0,0)">
    <g  id="copper0">
     <circle stroke="black"  r="2.088" fill="none" id="connector0pin" cx="5.04" cy="5.04" stroke-width="1.44"/>
    </g>
   </g>
  </g>
 </g>
 <g partID="857534010">
  <g transform="translate(100.242,133.131)">
   <g transform="matrix(-1,0,0,-1,0,0)">
    <g  id="copper0">
     <circle stroke="black"  r="2.088" fill="none" id="connector0pin" cx="5.04" cy="5.04" stroke-width="1.44"/>
    </g>
   </g>
  </g>
 </g>
 <g partID="857509880">
  <g transform="translate(11.9624,147.451)">
   <g transform="matrix(-1,0,0,-1,0,0)">
    <g  id="copper0">
     <circle stroke="black"  r="2.088" fill="none" id="connector0pin" cx="5.04" cy="5.04" stroke-width="1.44"/>
    </g>
   </g>
  </g>
 </g>
 <g partID="857534020">
  <g transform="translate(100.242,147.531)">
   <g transform="matrix(-1,0,0,-1,0,0)">
    <g  id="copper0">
     <circle stroke="black"  r="2.088" fill="none" id="connector0pin" cx="5.04" cy="5.04" stroke-width="1.44"/>
    </g>
   </g>
  </g>
 </g>
 <g partID="857509890">
  <g transform="translate(11.9624,161.851)">
   <g transform="matrix(-1,0,0,-1,0,0)">
    <g  id="copper0">
     <circle stroke="black"  r="2.088" fill="none" id="connector0pin" cx="5.04" cy="5.04" stroke-width="1.44"/>
    </g>
   </g>
  </g>
 </g>
 <g partID="857534030">
  <g transform="translate(100.242,161.931)">
   <g transform="matrix(-1,0,0,-1,0,0)">
    <g  id="copper0">
     <circle stroke="black"  r="2.088" fill="none" id="connector0pin" cx="5.04" cy="5.04" stroke-width="1.44"/>
    </g>
   </g>
  </g>
 </g>
 <g partID="857509900">
  <g transform="translate(11.9624,77.2514)">
   <g transform="matrix(-1,0,0,-1,0,0)">
    <g  id="copper0">
     <circle stroke="black"  r="2.088" fill="none" id="connector0pin" cx="5.04" cy="5.04" stroke-width="1.44"/>
     <circle stroke="black"  r="2.088" fill="none" id="connector1pin" cx="5.04" cy="12.24" stroke-width="1.44"/>
     <circle stroke="black"  r="2.088" fill="none" id="connector2pin" cx="5.04" cy="19.44" stroke-width="1.44"/>
     <circle stroke="black"  r="2.088" fill="none" id="connector3pin" cx="5.04" cy="26.64" stroke-width="1.44"/>
     <circle stroke="black"  r="2.088" fill="none" id="connector4pin" cx="5.04" cy="33.84" stroke-width="1.44"/>
     <circle stroke="black"  r="2.088" fill="none" id="connector5pin" cx="5.04" cy="41.04" stroke-width="1.44"/>
     <circle stroke="black"  r="2.088" fill="none" id="connector6pin" cx="5.04" cy="48.24" stroke-width="1.44"/>
     <circle stroke="black"  r="2.088" fill="none" id="connector7pin" cx="5.04" cy="55.44" stroke-width="1.44"/>
    </g>
   </g>
  </g>
 </g>
 <g partID="857534470">
  <g transform="translate(12.0424,255.531)">
   <g transform="matrix(-1,0,0,-1,0,0)">
    <g  id="copper0">
     <circle stroke="black"  r="2.088" fill="none" id="connector0pin" cx="5.04" cy="5.04" stroke-width="1.44"/>
     <circle stroke="black"  r="2.088" fill="none" id="connector1pin" cx="5.04" cy="12.24" stroke-width="1.44"/>
     <circle stroke="black"  r="2.088" fill="none" id="connector2pin" cx="5.04" cy="19.44" stroke-width="1.44"/>
     <circle stroke="black"  r="2.088" fill="none" id="connector3pin" cx="5.04" cy="26.64" stroke-width="1.44"/>
     <circle stroke="black"  r="2.088" fill="none" id="connector4pin" cx="5.04" cy="33.84" stroke-width="1.44"/>
     <circle stroke="black"  r="2.088" fill="none" id="connector5pin" cx="5.04" cy="41.04" stroke-width="1.44"/>
     <circle stroke="black"  r="2.088" fill="none" id="connector6pin" cx="5.04" cy="48.24" stroke-width="1.44"/>
     <circle stroke="black"  r="2.088" fill="none" id="connector7pin" cx="5.04" cy="55.44" stroke-width="1.44"/>
    </g>
   </g>
  </g>
 </g>
 <g partID="857534040">
  <g transform="translate(100.242,77.3314)">
   <g transform="matrix(-1,0,0,-1,0,0)">
    <g  id="copper0">
     <circle stroke="black"  r="2.088" fill="none" id="connector0pin" cx="5.04" cy="5.04" stroke-width="1.44"/>
     <circle stroke="black"  r="2.088" fill="none" id="connector1pin" cx="5.04" cy="12.24" stroke-width="1.44"/>
     <circle stroke="black"  r="2.088" fill="none" id="connector2pin" cx="5.04" cy="19.44" stroke-width="1.44"/>
     <circle stroke="black"  r="2.088" fill="none" id="connector3pin" cx="5.04" cy="26.64" stroke-width="1.44"/>
     <circle stroke="black"  r="2.088" fill="none" id="connector4pin" cx="5.04" cy="33.84" stroke-width="1.44"/>
     <circle stroke="black"  r="2.088" fill="none" id="connector5pin" cx="5.04" cy="41.04" stroke-width="1.44"/>
     <circle stroke="black"  r="2.088" fill="none" id="connector6pin" cx="5.04" cy="48.24" stroke-width="1.44"/>
     <circle stroke="black"  r="2.088" fill="none" id="connector7pin" cx="5.04" cy="55.44" stroke-width="1.44"/>
    </g>
   </g>
  </g>
 </g>
 <g partID="857534480">
  <g transform="translate(100.322,255.611)">
   <g transform="matrix(-1,0,0,-1,0,0)">
    <g  id="copper0">
     <circle stroke="black"  r="2.088" fill="none" id="connector0pin" cx="5.04" cy="5.04" stroke-width="1.44"/>
     <circle stroke="black"  r="2.088" fill="none" id="connector1pin" cx="5.04" cy="12.24" stroke-width="1.44"/>
     <circle stroke="black"  r="2.088" fill="none" id="connector2pin" cx="5.04" cy="19.44" stroke-width="1.44"/>
     <circle stroke="black"  r="2.088" fill="none" id="connector3pin" cx="5.04" cy="26.64" stroke-width="1.44"/>
     <circle stroke="black"  r="2.088" fill="none" id="connector4pin" cx="5.04" cy="33.84" stroke-width="1.44"/>
     <circle stroke="black"  r="2.088" fill="none" id="connector5pin" cx="5.04" cy="41.04" stroke-width="1.44"/>
     <circle stroke="black"  r="2.088" fill="none" id="connector6pin" cx="5.04" cy="48.24" stroke-width="1.44"/>
     <circle stroke="black"  r="2.088" fill="none" id="connector7pin" cx="5.04" cy="55.44" stroke-width="1.44"/>
    </g>
   </g>
  </g>
 </g>
 <g partID="857546210">
  <g transform="translate(1.9624,102.531)">
   <g transform="matrix(0,-1,1,0,0,0)">
    <g  id="copper0">
     <rect width="4.176" stroke="black"  fill="none" id="square" height="4.176" x="2.952" stroke-width="1.44" y="2.952"/>
     <circle stroke="black"  r="2.088" fill="none" id="connector0pin" cx="5.04" cy="5.04" stroke-width="1.44"/>
     <circle stroke="black"  r="2.088" fill="none" id="connector1pin" cx="5.04" cy="12.24" stroke-width="1.44"/>
     <circle stroke="black"  r="2.088" fill="none" id="connector2pin" cx="5.04" cy="19.44" stroke-width="1.44"/>
    </g>
   </g>
  </g>
 </g>
 <g partID="857546220">
  <g transform="translate(26.4424,106.851)">
   <g transform="matrix(0,1,-1,0,0,0)">
    <g  id="copper0">
     <rect width="4.176" stroke="black"  fill="none" id="square" height="4.176" x="2.952" stroke-width="1.44" y="2.952"/>
     <circle stroke="black"  r="2.088" fill="none" id="connector0pin" cx="5.04" cy="5.04" stroke-width="1.44"/>
     <circle stroke="black"  r="2.088" fill="none" id="connector1pin" cx="5.04" cy="12.24" stroke-width="1.44"/>
     <circle stroke="black"  r="2.088" fill="none" id="connector2pin" cx="5.04" cy="19.44" stroke-width="1.44"/>
    </g>
   </g>
  </g>
 </g>
 <g partID="857534700">
  <g transform="translate(73.2424,261.651)">
   <g transform="matrix(0,1,-1,0,0,0)">
    <g  id="copper0">
     <circle stroke="black"  r="2.088" fill="none" id="connector0pin" cx="5.04" cy="5.04" stroke-width="1.44"/>
     <circle stroke="black"  r="2.088" fill="none" id="connector1pin" cx="5.04" cy="12.24" stroke-width="1.44"/>
     <circle stroke="black"  r="2.088" fill="none" id="connector2pin" cx="5.04" cy="19.44" stroke-width="1.44"/>
     <circle stroke="black"  r="2.088" fill="none" id="connector3pin" cx="5.04" cy="26.64" stroke-width="1.44"/>
     <circle stroke="black"  r="2.088" fill="none" id="connector4pin" cx="5.04" cy="33.84" stroke-width="1.44"/>
     <circle stroke="black"  r="2.088" fill="none" id="connector5pin" cx="5.04" cy="41.04" stroke-width="1.44"/>
    </g>
   </g>
  </g>
 </g>
 <g partID="857534760">
  <g transform="translate(22.8424,261.651)">
   <g transform="matrix(0,1,-1,0,0,0)">
    <g  id="copper0">
     <circle stroke="black"  r="2.088" fill="none" id="connector0pin" cx="5.04" cy="5.04" stroke-width="1.44"/>
    </g>
   </g>
  </g>
 </g>
 <g partID="857534740">
  <g transform="translate(87.6424,261.651)">
   <g transform="matrix(0,1,-1,0,0,0)">
    <g  id="copper0">
     <circle stroke="black"  r="2.088" fill="none" id="connector0pin" cx="5.04" cy="5.04" stroke-width="1.44"/>
    </g>
   </g>
  </g>
 </g>
 <g partID="857534850">
  <g transform="translate(78.593,124.082)">
   <g  id="copper0">
    <circle stroke="black"  r="1.41732" fill="none" id="connector0pin" cx="4.00945" cy="4.00945" stroke-width="1.98426"/>
   </g>
  </g>
 </g>
 <g partID="857535130">
  <g transform="translate(42.593,116.882)">
   <g  id="copper0">
    <circle stroke="black"  r="1.41732" fill="none" id="connector0pin" cx="4.00945" cy="4.00945" stroke-width="1.98426"/>
   </g>
  </g>
 </g>
 <g partID="857535000">
  <g transform="translate(27.8824,116.211)">
   <g transform="matrix(0,-1,1,0,0,0)">
    <g  id="copper0">
     <rect width="3.96" stroke="black"  fill="none" id="square" height="3.96" x="2.34" stroke-width="1.44" y="2.34"/>
     <circle stroke="black"  r="1.98" fill="none" id="connector0pin" cx="4.32" cy="4.32" stroke-width="1.44"/>
     <circle stroke="black"  r="1.98" fill="none" id="connector15pin" cx="25.92" cy="4.32" stroke-width="1.44"/>
     <circle stroke="black"  r="1.98" fill="none" id="connector1pin" cx="4.32" cy="11.52" stroke-width="1.44"/>
     <circle stroke="black"  r="1.98" fill="none" id="connector14pin" cx="25.92" cy="11.52" stroke-width="1.44"/>
     <circle stroke="black"  r="1.98" fill="none" id="connector2pin" cx="4.32" cy="18.72" stroke-width="1.44"/>
     <circle stroke="black"  r="1.98" fill="none" id="connector13pin" cx="25.92" cy="18.72" stroke-width="1.44"/>
     <circle stroke="black"  r="1.98" fill="none" id="connector3pin" cx="4.32" cy="25.92" stroke-width="1.44"/>
     <circle stroke="black"  r="1.98" fill="none" id="connector12pin" cx="25.92" cy="25.92" stroke-width="1.44"/>
     <circle stroke="black"  r="1.98" fill="none" id="connector4pin" cx="4.32" cy="33.12" stroke-width="1.44"/>
     <circle stroke="black"  r="1.98" fill="none" id="connector11pin" cx="25.92" cy="33.12" stroke-width="1.44"/>
     <circle stroke="black"  r="1.98" fill="none" id="connector5pin" cx="4.32" cy="40.32" stroke-width="1.44"/>
     <circle stroke="black"  r="1.98" fill="none" id="connector10pin" cx="25.92" cy="40.32" stroke-width="1.44"/>
     <circle stroke="black"  r="1.98" fill="none" id="connector6pin" cx="4.32" cy="47.52" stroke-width="1.44"/>
     <circle stroke="black"  r="1.98" fill="none" id="connector9pin" cx="25.92" cy="47.52" stroke-width="1.44"/>
     <circle stroke="black"  r="1.98" fill="none" id="connector7pin" cx="4.32" cy="54.72" stroke-width="1.44"/>
     <circle stroke="black"  r="1.98" fill="none" id="connector8pin" cx="25.92" cy="54.72" stroke-width="1.44"/>
    </g>
   </g>
  </g>
 </g>
 <g partID="857535350">
  <g transform="translate(78.5929,251.882)">
   <g  id="copper0">
    <circle stroke="black"  r="1.41732" fill="none" id="connector0pin" cx="4.00945" cy="4.00945" stroke-width="1.98426"/>
   </g>
  </g>
 </g>
 <g partID="857535510">
  <g transform="translate(13.7929,251.882)">
   <g  id="copper0">
    <circle stroke="black"  r="1.41732" fill="none" id="connector0pin" cx="4.00945" cy="4.00945" stroke-width="1.98426"/>
   </g>
  </g>
 </g>
 <g partID="857536480">
  <g transform="translate(71.3929,133.082)">
   <g  id="copper0">
    <circle stroke="black"  r="1.41732" fill="none" id="connector0pin" cx="4.00945" cy="4.00945" stroke-width="1.98426"/>
   </g>
  </g>
 </g>
 <g partID="857536670">
  <g transform="translate(71.3929,116.882)">
   <g  id="copper0">
    <circle stroke="black"  r="1.41732" fill="none" id="connector0pin" cx="4.00945" cy="4.00945" stroke-width="1.98426"/>
   </g>
  </g>
 </g>
 <g partID="857537260">
  <g transform="translate(64.1929,251.882)">
   <g  id="copper0">
    <circle stroke="black"  r="1.41732" fill="none" id="connector0pin" cx="4.00945" cy="4.00945" stroke-width="1.98426"/>
   </g>
  </g>
 </g>
 <g partID="857537780">
  <g transform="translate(64.193,116.882)">
   <g  id="copper0">
    <circle stroke="black"  r="1.41732" fill="none" id="connector0pin" cx="4.00945" cy="4.00945" stroke-width="1.98426"/>
   </g>
  </g>
 </g>
 <g partID="857538270">
  <g transform="translate(56.9929,133.082)">
   <g  id="copper0">
    <circle stroke="black"  r="1.41732" fill="none" id="connector0pin" cx="4.00945" cy="4.00945" stroke-width="1.98426"/>
   </g>
  </g>
 </g>
 <g partID="857538390">
  <g transform="translate(56.993,116.882)">
   <g  id="copper0">
    <circle stroke="black"  r="1.41732" fill="none" id="connector0pin" cx="4.00945" cy="4.00945" stroke-width="1.98426"/>
   </g>
  </g>
 </g>
 <g partID="857538660">
  <g transform="translate(49.793,145.682)">
   <g  id="copper0">
    <circle stroke="black"  r="1.41732" fill="none" id="connector0pin" cx="4.00945" cy="4.00945" stroke-width="1.98426"/>
   </g>
  </g>
 </g>
 <g partID="857538780">
  <g transform="translate(49.7929,116.882)">
   <g  id="copper0">
    <circle stroke="black"  r="1.41732" fill="none" id="connector0pin" cx="4.00945" cy="4.00945" stroke-width="1.98426"/>
   </g>
  </g>
 </g>
 <g partID="857539150">
  <g transform="translate(35.393,145.682)">
   <g  id="copper0">
    <circle stroke="black"  r="1.41732" fill="none" id="connector0pin" cx="4.00945" cy="4.00945" stroke-width="1.98426"/>
   </g>
  </g>
 </g>
 <g partID="857540380">
  <g transform="translate(35.393,116.882)">
   <g  id="copper0">
    <circle stroke="black"  r="1.41732" fill="none" id="connector0pin" cx="4.00945" cy="4.00945" stroke-width="1.98426"/>
   </g>
  </g>
 </g>
 <g partID="857549110">
  <g transform="translate(11.5804,117.632)">
   <g id="copper0" flipped="1">
    <g transform="matrix(-1, 0, 0, 1, 14.4567, 0)">
     <g>
      <g>
       <g>
        <rect fill-opacity="1" width="4.53543" stroke="none" fill="black" id="connector0pad" height="5.38583" x="0.566929" y="0.566929" stroke-width="0"/>
        <rect fill-opacity="1" width="4.53543" stroke="none" fill="black" id="connector1pad" height="5.38583" x="9.35433" y="0.566929" stroke-width="0"/>
       </g>
      </g>
     </g>
    </g>
   </g>
  </g>
 </g>
 <g partID="857549580">
  <g transform="translate(89.067,258.756)">
   <g  id="copper0">
    <circle stroke="black"  r="4.53543" fill="black" id="nonconn0" cx="6.13543" cy="6.13543" stroke-width="0"/>
   </g>
  </g>
 </g>
 <g partID="857549630">
  <g transform="translate(89.067,1.35596)">
   <g  id="copper0">
    <circle stroke="black"  r="4.53543" fill="black" id="nonconn0" cx="6.13543" cy="6.13543" stroke-width="0"/>
   </g>
  </g>
 </g>
 <g partID="857549610">
  <g transform="translate(0.866956,258.756)">
   <g  id="copper0">
    <circle stroke="black"  r="4.53543" fill="black" id="nonconn0" cx="6.13543" cy="6.13543" stroke-width="0"/>
   </g>
  </g>
 </g>
 <g partID="857549640">
  <g transform="translate(0.866956,1.35596)">
   <g  id="copper0">
    <circle stroke="black"  r="4.53543" fill="black" id="nonconn0" cx="6.13543" cy="6.13543" stroke-width="0"/>
   </g>
  </g>
 </g>
 <g partID="857534110">
  <line x1="92.6344" x2="9.4904" stroke="black" stroke-linecap="round" y1="21.8891" y2="21.8137" stroke-width="2.304"/>
 </g>
 <g partID="857534490">
  <line x1="92.7144" x2="9.5704" stroke="black" stroke-linecap="round" y1="200.169" y2="200.094" stroke-width="2.304"/>
 </g>
 <g partID="857534140">
  <line x1="92.6344" x2="9.4904" stroke="black" stroke-linecap="round" y1="29.0891" y2="29.0137" stroke-width="2.304"/>
 </g>
 <g partID="857534500">
  <line x1="92.7144" x2="9.5704" stroke="black" stroke-linecap="round" y1="207.369" y2="207.294" stroke-width="2.304"/>
 </g>
 <g partID="857534170">
  <line x1="92.6344" x2="9.4904" stroke="black" stroke-linecap="round" y1="36.2891" y2="36.2137" stroke-width="2.304"/>
 </g>
 <g partID="857534510">
  <line x1="92.7144" x2="9.5704" stroke="black" stroke-linecap="round" y1="214.569" y2="214.494" stroke-width="2.304"/>
 </g>
 <g partID="857534200">
  <line x1="92.6344" x2="9.4904" stroke="black" stroke-linecap="round" y1="43.4891" y2="43.4137" stroke-width="2.304"/>
 </g>
 <g partID="857534520">
  <line x1="92.7144" x2="9.5704" stroke="black" stroke-linecap="round" y1="221.769" y2="221.694" stroke-width="2.304"/>
 </g>
 <g partID="857534230">
  <line x1="92.6344" x2="9.4904" stroke="black" stroke-linecap="round" y1="50.6891" y2="50.6137" stroke-width="2.304"/>
 </g>
 <g partID="857534530">
  <line x1="92.7144" x2="9.5704" stroke="black" stroke-linecap="round" y1="228.969" y2="228.894" stroke-width="2.304"/>
 </g>
 <g partID="857534260">
  <line x1="92.6344" x2="9.4904" stroke="black" stroke-linecap="round" y1="57.8891" y2="57.8137" stroke-width="2.304"/>
 </g>
 <g partID="857534540">
  <line x1="92.7144" x2="9.5704" stroke="black" stroke-linecap="round" y1="236.169" y2="236.094" stroke-width="2.304"/>
 </g>
 <g partID="857534290">
  <line x1="92.6344" x2="9.4904" stroke="black" stroke-linecap="round" y1="65.0891" y2="65.0137" stroke-width="2.304"/>
 </g>
 <g partID="857534550">
  <line x1="92.7144" x2="9.5704" stroke="black" stroke-linecap="round" y1="243.369" y2="243.294" stroke-width="2.304"/>
 </g>
 <g partID="857534320">
  <line x1="92.6344" x2="9.4904" stroke="black" stroke-linecap="round" y1="72.2891" y2="72.2137" stroke-width="2.304"/>
 </g>
 <g partID="857534560">
  <line x1="92.7144" x2="9.5704" stroke="black" stroke-linecap="round" y1="250.569" y2="250.494" stroke-width="2.304"/>
 </g>
 <g partID="857534350">
  <line x1="92.6344" x2="9.4904" stroke="black" stroke-linecap="round" y1="171.289" y2="171.214" stroke-width="2.304"/>
 </g>
 <g partID="857534380">
  <line x1="92.6344" x2="9.4904" stroke="black" stroke-linecap="round" y1="178.489" y2="178.414" stroke-width="2.304"/>
 </g>
 <g partID="857534410">
  <line x1="92.6344" x2="9.4904" stroke="black" stroke-linecap="round" y1="185.689" y2="185.614" stroke-width="2.304"/>
 </g>
 <g partID="857534440">
  <line x1="92.6344" x2="9.4904" stroke="black" stroke-linecap="round" y1="192.889" y2="192.814" stroke-width="2.304"/>
 </g>
 <g partID="857534800">
  <line x1="92.2344" x2="84.6276" stroke="black" stroke-linecap="round" y1="128.091" y2="128.091" stroke-width="3.456"/>
 </g>
 <g partID="857534830">
  <line x1="80.5772" x2="9.8904" stroke="black" stroke-linecap="round" y1="128.089" y2="128.015" stroke-width="3.456"/>
 </g>
 <g partID="857535020">
  <line x1="82.6024" x2="82.6024" stroke="black" stroke-linecap="round" y1="126.866" y2="113.951" stroke-width="3.456"/>
 </g>
 <g partID="857535250">
  <line x1="82.6024" x2="82.6024" stroke="black" stroke-linecap="round" y1="257.917" y2="263.723" stroke-width="3.456"/>
 </g>
 <g partID="857535450">
  <line x1="17.8024" x2="17.8024" stroke="black" stroke-linecap="round" y1="257.917" y2="263.723" stroke-width="3.456"/>
 </g>
 <g partID="857535570">
  <line x1="37.2344" x2="34.3704" stroke="black" stroke-linecap="round" y1="266.691" y2="266.691" stroke-width="3.456"/>
 </g>
 <g partID="857535640">
  <line x1="44.4344" x2="41.5704" stroke="black" stroke-linecap="round" y1="266.691" y2="266.691" stroke-width="3.456"/>
 </g>
 <g partID="857535750">
  <line x1="51.6344" x2="48.7704" stroke="black" stroke-linecap="round" y1="266.691" y2="266.691" stroke-width="3.456"/>
 </g>
 <g partID="857535900">
  <line x1="58.8344" x2="55.9704" stroke="black" stroke-linecap="round" y1="266.691" y2="266.691" stroke-width="3.456"/>
 </g>
 <g partID="857536090">
  <line x1="66.0344" x2="63.1704" stroke="black" stroke-linecap="round" y1="266.691" y2="266.691" stroke-width="3.456"/>
 </g>
 <g partID="857536540">
  <line x1="80.9357" x2="76.5796" stroke="black" stroke-linecap="round" y1="142.358" y2="138.212" stroke-width="2.304"/>
 </g>
 <g partID="857536610">
  <line x1="75.4024" x2="75.4024" stroke="black" stroke-linecap="round" y1="119.266" y2="114.351" stroke-width="2.304"/>
 </g>
 <g partID="857536340">
  <line x1="92.6345" x2="80.9357" stroke="black" stroke-linecap="round" y1="142.467" y2="142.358" stroke-width="2.304"/>
 </g>
 <g partID="857536730">
  <line x1="68.2024" x2="68.2024" stroke="black" stroke-linecap="round" y1="264.123" y2="257.517" stroke-width="2.304"/>
 </g>
 <g partID="857537520">
  <line x1="68.2024" x2="68.2024" stroke="black" stroke-linecap="round" y1="119.266" y2="114.351" stroke-width="2.304"/>
 </g>
 <g partID="857538200">
  <line x1="55.6024" x2="9.0904" stroke="black" stroke-linecap="round" y1="142.358" y2="142.409" stroke-width="2.304"/>
 </g>
 <g partID="857538130">
  <line x1="59.8389" x2="55.6024" stroke="black" stroke-linecap="round" y1="138.226" y2="142.358" stroke-width="2.304"/>
 </g>
 <g partID="857538060">
  <line x1="61.0024" x2="61.0024" stroke="black" stroke-linecap="round" y1="114.351" y2="119.266" stroke-width="2.304"/>
 </g>
 <g partID="857538720">
  <line x1="53.8024" x2="53.8024" stroke="black" stroke-linecap="round" y1="119.266" y2="114.351" stroke-width="2.304"/>
 </g>
 <g partID="857538590">
  <line x1="60.9357" x2="54.9356" stroke="black" stroke-linecap="round" y1="157.025" y2="150.856" stroke-width="2.304"/>
 </g>
 <g partID="857538450">
  <line x1="92.6344" x2="60.9357" stroke="black" stroke-linecap="round" y1="156.901" y2="157.025" stroke-width="2.304"/>
 </g>
 <g partID="857538940">
  <line x1="9.49032" x2="34.0024" stroke="black" stroke-linecap="round" y1="156.832" y2="157.025" stroke-width="2.304"/>
 </g>
 <g partID="857539080">
  <line x1="34.0024" x2="38.4387" stroke="black" stroke-linecap="round" y1="157.025" y2="151" stroke-width="2.304"/>
 </g>
 <g partID="857540320">
  <line x1="39.4024" x2="39.4024" stroke="black" stroke-linecap="round" y1="119.266" y2="114.351" stroke-width="2.304"/>
 </g>
 <g partID="857541340">
  <line x1="71.8691" x2="82.5357" stroke="black" stroke-linecap="round" y1="97.5581" y2="108.225" stroke-width="2.304"/>
 </g>
 <g partID="857541190">
  <line x1="82.5357" x2="82.5577" stroke="black" stroke-linecap="round" y1="108.225" y2="109.432" stroke-width="2.304"/>
 </g>
 <g partID="857541040">
  <line x1="43.0691" x2="71.8691" stroke="black" stroke-linecap="round" y1="97.5581" y2="97.5581" stroke-width="2.304"/>
 </g>
 <g partID="857540590">
  <line x1="39.3357" x2="43.0691" stroke="black" stroke-linecap="round" y1="93.8247" y2="97.5581" stroke-width="2.304"/>
 </g>
 <g partID="857540440">
  <line x1="39.356" x2="39.3357" stroke="black" stroke-linecap="round" y1="92.751" y2="93.8247" stroke-width="2.304"/>
 </g>
 <g partID="857546450">
  <line x1="46.6024" x2="46.6024" stroke="black" stroke-linecap="round" y1="119.666" y2="113.951" stroke-width="3.456"/>
 </g>
 <g partID="857547020">
  <line x1="32.1357" x2="41.2024" stroke="black" stroke-linecap="round" y1="102.891" y2="102.891" stroke-width="3.456"/>
 </g>
 <g partID="857546920">
  <line x1="41.2024" x2="46.5357" stroke="black" stroke-linecap="round" y1="102.891" y2="108.225" stroke-width="3.456"/>
 </g>
 <g partID="857546810">
  <line x1="46.5357" x2="46.565" stroke="black" stroke-linecap="round" y1="108.225" y2="109.832" stroke-width="3.456"/>
 </g>
 <g partID="857546590">
  <line x1="32.1873" x2="32.1357" stroke="black" stroke-linecap="round" y1="93.1514" y2="102.891" stroke-width="3.456"/>
 </g>
 <g partID="857548880">
  <line x1="30.4824" x2="10.6424" stroke="black" stroke-linecap="round" y1="104.651" y2="104.651" stroke-width="2.304"/>
 </g>
 <g partID="857548000">
  <line x1="32.1357" x2="30.4824" stroke="black" stroke-linecap="round" y1="102.891" y2="104.651" stroke-width="2.304"/>
 </g>
 <g partID="857547550">
  <line x1="32.1894" x2="32.1357" stroke="black" stroke-linecap="round" y1="92.7514" y2="102.891" stroke-width="2.304"/>
 </g>
 <g partID="857547850">
  <line x1="10.6424" x2="6.9624" stroke="black" stroke-linecap="round" y1="104.651" y2="108.331" stroke-width="2.304"/>
 </g>
 <g partID="857547700">
  <line x1="6.9624" x2="6.97355" stroke="black" stroke-linecap="round" y1="108.331" y2="109.324" stroke-width="2.304"/>
 </g>
 <g partID="857548690">
  <line x1="29.7424" x2="23.9704" stroke="black" stroke-linecap="round" y1="111.891" y2="111.891" stroke-width="2.304"/>
 </g>
 <g partID="857549130">
  <line x1="14.263" x2="14.3608" stroke="black" stroke-linecap="round" y1="114.459" y2="118.598" stroke-width="2.304"/>
 </g>
 <g partID="857549200">
  <line x1="23.2276" x2="23.2824" stroke="black" stroke-linecap="round" y1="123.184" y2="128.171" stroke-width="2.304"/>
 </g>
 <g partID="857549390">
  <line x1="23.2824" x2="9.0903" stroke="black" stroke-linecap="round" y1="128.171" y2="128.033" stroke-width="2.304"/>
 </g>
</svg>
