<?xml version="1.0" encoding="UTF-8" standalone="no"?>
<!-- Created with Fritzing (http://www.fritzing.org/) -->

<svg
   xmlns:dc="http://purl.org/dc/elements/1.1/"
   xmlns:cc="http://creativecommons.org/ns#"
   xmlns:rdf="http://www.w3.org/1999/02/22-rdf-syntax-ns#"
   xmlns:svg="http://www.w3.org/2000/svg"
   xmlns="http://www.w3.org/2000/svg"
   xmlns:sodipodi="http://sodipodi.sourceforge.net/DTD/sodipodi-0.dtd"
   xmlns:inkscape="http://www.inkscape.org/namespaces/inkscape"
   version="1.2"
   width="1.4187499in"
   viewBox="0 0 102.15039 271.96554"
   height="3.777302in"
   x="0in"
   y="0in"
   id="svg500"
   sodipodi:docname="cnc.svg"
   inkscape:version="0.92.4 (unknown)">
  <metadata
     id="metadata506">
    <rdf:RDF>
      <cc:Work
         rdf:about="">
        <dc:format>image/svg+xml</dc:format>
        <dc:type
           rdf:resource="http://purl.org/dc/dcmitype/StillImage" />
      </cc:Work>
    </rdf:RDF>
  </metadata>
  <defs
     id="defs504" />
  <sodipodi:namedview
     pagecolor="#ffffff"
     bordercolor="#666666"
     borderopacity="1"
     objecttolerance="10"
     gridtolerance="10"
     guidetolerance="10"
     inkscape:pageopacity="0"
     inkscape:pageshadow="2"
     inkscape:window-width="535"
     inkscape:window-height="477"
     id="namedview502"
     showgrid="false"
     inkscape:zoom="0.65063672"
     inkscape:cx="71.173911"
     inkscape:cy="175.16268"
     inkscape:window-x="0"
     inkscape:window-y="27"
     inkscape:window-maximized="0"
     inkscape:current-layer="svg500" />
  <g
     inkscape:groupmode="layer"
     id="topmask"
     inkscape:label="topmask"
     transform="translate(-0.03780214,-0.03773088)">
    <path
       style="fill:#000000;stroke:#000000;stroke-width:2.87998915"
       d="M 9.3359375,3.9414062 A 6.0472169,6.0472169 0 0 0 3.2890625,9.9902344 6.0472169,6.0472169 0 0 0 9.3359375,16.037109 6.0472169,6.0472169 0 0 0 15.382812,9.9902344 6.0472169,6.0472169 0 0 0 9.3359375,3.9414062 Z m 117.5996125,0 a 6.0472169,6.0472169 0 0 0 -6.04688,6.0488282 6.0472169,6.0472169 0 0 0 6.04688,6.0468746 6.0472169,6.0472169 0 0 0 6.04687,-6.0468746 6.0472169,6.0472169 0 0 0 -6.04687,-6.0488282 z M 9.2304688,26.298828 A 2.7839895,2.7839895 0 0 0 6.4453125,29.082031 2.7839895,2.7839895 0 0 0 9.2304688,31.867188 2.7839895,2.7839895 0 0 0 12.013672,29.082031 2.7839895,2.7839895 0 0 0 9.2304688,26.298828 Z M 126.93555,26.404297 a 2.7839895,2.7839895 0 0 0 -2.78321,2.785156 2.7839895,2.7839895 0 0 0 2.78321,2.783203 2.7839895,2.7839895 0 0 0 2.7832,-2.783203 2.7839895,2.7839895 0 0 0 -2.7832,-2.785156 z M 9.2304688,35.898438 A 2.7839895,2.7839895 0 0 0 6.4453125,38.681641 2.7839895,2.7839895 0 0 0 9.2304688,41.466797 2.7839895,2.7839895 0 0 0 12.013672,38.681641 2.7839895,2.7839895 0 0 0 9.2304688,35.898438 Z M 126.93555,36.005859 a 2.7839895,2.7839895 0 0 0 -2.78321,2.783203 2.7839895,2.7839895 0 0 0 2.78321,2.783204 2.7839895,2.7839895 0 0 0 2.7832,-2.783204 2.7839895,2.7839895 0 0 0 -2.7832,-2.783203 z M 9.2304688,45.498047 A 2.7839895,2.7839895 0 0 0 6.4453125,48.283203 2.7839895,2.7839895 0 0 0 9.2304688,51.066406 2.7839895,2.7839895 0 0 0 12.013672,48.283203 2.7839895,2.7839895 0 0 0 9.2304688,45.498047 Z M 126.93555,45.605469 a 2.7839895,2.7839895 0 0 0 -2.78321,2.783203 2.7839895,2.7839895 0 0 0 2.78321,2.785156 2.7839895,2.7839895 0 0 0 2.7832,-2.785156 2.7839895,2.7839895 0 0 0 -2.7832,-2.783203 z M 9.2304688,55.097656 A 2.7839895,2.7839895 0 0 0 6.4453125,57.882812 2.7839895,2.7839895 0 0 0 9.2304688,60.666016 2.7839895,2.7839895 0 0 0 12.013672,57.882812 2.7839895,2.7839895 0 0 0 9.2304688,55.097656 Z M 126.93555,55.205078 a 2.7839895,2.7839895 0 0 0 -2.78321,2.783203 2.7839895,2.7839895 0 0 0 2.78321,2.785157 2.7839895,2.7839895 0 0 0 2.7832,-2.785157 2.7839895,2.7839895 0 0 0 -2.7832,-2.783203 z M 9.2304688,64.699219 A 2.7839895,2.7839895 0 0 0 6.4453125,67.482422 2.7839895,2.7839895 0 0 0 9.2304688,70.265625 2.7839895,2.7839895 0 0 0 12.013672,67.482422 2.7839895,2.7839895 0 0 0 9.2304688,64.699219 Z M 126.93555,64.804688 a 2.7839895,2.7839895 0 0 0 -2.78321,2.785156 2.7839895,2.7839895 0 0 0 2.78321,2.783203 2.7839895,2.7839895 0 0 0 2.7832,-2.783203 2.7839895,2.7839895 0 0 0 -2.7832,-2.785156 z M 9.2304688,74.298828 A 2.7839895,2.7839895 0 0 0 6.4453125,77.082031 2.7839895,2.7839895 0 0 0 9.2304688,79.867188 2.7839895,2.7839895 0 0 0 12.013672,77.082031 2.7839895,2.7839895 0 0 0 9.2304688,74.298828 Z M 126.93555,74.404297 a 2.7839895,2.7839895 0 0 0 -2.78321,2.785156 2.7839895,2.7839895 0 0 0 2.78321,2.783203 2.7839895,2.7839895 0 0 0 2.7832,-2.783203 2.7839895,2.7839895 0 0 0 -2.7832,-2.785156 z M 9.2304688,83.898438 A 2.7839895,2.7839895 0 0 0 6.4453125,86.681641 2.7839895,2.7839895 0 0 0 9.2304688,89.466797 2.7839895,2.7839895 0 0 0 12.013672,86.681641 2.7839895,2.7839895 0 0 0 9.2304688,83.898438 Z M 126.93555,84.005859 a 2.7839895,2.7839895 0 0 0 -2.78321,2.783203 2.7839895,2.7839895 0 0 0 2.78321,2.783204 2.7839895,2.7839895 0 0 0 2.7832,-2.783204 2.7839895,2.7839895 0 0 0 -2.7832,-2.783203 z M 9.2304688,93.498047 A 2.7839895,2.7839895 0 0 0 6.4453125,96.283203 2.7839895,2.7839895 0 0 0 9.2304688,99.066406 2.7839895,2.7839895 0 0 0 12.013672,96.283203 2.7839895,2.7839895 0 0 0 9.2304688,93.498047 Z M 126.93555,93.605469 a 2.7839895,2.7839895 0 0 0 -2.78321,2.783203 2.7839895,2.7839895 0 0 0 2.78321,2.785156 2.7839895,2.7839895 0 0 0 2.7832,-2.785156 2.7839895,2.7839895 0 0 0 -2.7832,-2.783203 z M 42.935547,117.74805 a 2.6399899,2.6399899 0 0 0 -2.638672,2.64062 2.6399899,2.6399899 0 0 0 2.638672,2.64063 2.6399899,2.6399899 0 0 0 2.640625,-2.64063 2.6399899,2.6399899 0 0 0 -2.640625,-2.64062 z m 9.601562,0 a 2.6399899,2.6399899 0 0 0 -2.640625,2.64062 2.6399899,2.6399899 0 0 0 2.640625,2.64063 2.6399899,2.6399899 0 0 0 2.638672,-2.64063 2.6399899,2.6399899 0 0 0 -2.638672,-2.64062 z m 9.59961,0 a 2.6399899,2.6399899 0 0 0 -2.640625,2.64062 2.6399899,2.6399899 0 0 0 2.640625,2.64063 2.6399899,2.6399899 0 0 0 2.638672,-2.64063 2.6399899,2.6399899 0 0 0 -2.638672,-2.64062 z m 9.599609,0 a 2.6399899,2.6399899 0 0 0 -2.640625,2.64062 2.6399899,2.6399899 0 0 0 2.640625,2.64063 2.6399899,2.6399899 0 0 0 2.640625,-2.64063 2.6399899,2.6399899 0 0 0 -2.640625,-2.64062 z m 9.59961,0 a 2.6399899,2.6399899 0 0 0 -2.640626,2.64062 2.6399899,2.6399899 0 0 0 2.640626,2.64063 2.6399899,2.6399899 0 0 0 2.640624,-2.64063 2.6399899,2.6399899 0 0 0 -2.640624,-2.64062 z m 9.599609,0 a 2.6399899,2.6399899 0 0 0 -2.638672,2.64062 2.6399899,2.6399899 0 0 0 2.638672,2.64063 2.6399899,2.6399899 0 0 0 2.640625,-2.64063 2.6399899,2.6399899 0 0 0 -2.640625,-2.64062 z m 9.601563,0 a 2.6399899,2.6399899 0 0 0 -2.640626,2.64062 2.6399899,2.6399899 0 0 0 2.640626,2.64063 2.6399899,2.6399899 0 0 0 2.63867,-2.64063 2.6399899,2.6399899 0 0 0 -2.63867,-2.64062 z m 9.59961,0 a 2.6399899,2.6399899 0 0 0 -2.64063,2.64062 2.6399899,2.6399899 0 0 0 2.64063,2.64063 2.6399899,2.6399899 0 0 0 2.63867,-2.64063 2.6399899,2.6399899 0 0 0 -2.63867,-2.64062 z M 6.5527344,127.20508 v 5.5664 h 5.5683596 v -5.5664 z m 12.3828126,0 a 2.7839895,2.7839895 0 0 0 -2.783203,2.7832 2.7839895,2.7839895 0 0 0 2.783203,2.7832 2.7839895,2.7839895 0 0 0 2.785156,-2.7832 2.7839895,2.7839895 0 0 0 -2.785156,-2.7832 z m 9.601562,0 a 2.7839895,2.7839895 0 0 0 -2.785156,2.7832 2.7839895,2.7839895 0 0 0 2.785156,2.7832 2.7839895,2.7839895 0 0 0 2.783203,-2.7832 2.7839895,2.7839895 0 0 0 -2.783203,-2.7832 z M 9.3359375,146.4043 a 2.7839895,2.7839895 0 0 0 -2.7832031,2.7832 2.7839895,2.7839895 0 0 0 2.7832031,2.78516 2.7839895,2.7839895 0 0 0 2.7851565,-2.78516 2.7839895,2.7839895 0 0 0 -2.7851565,-2.7832 z m 9.5996095,0 a 2.7839895,2.7839895 0 0 0 -2.783203,2.7832 2.7839895,2.7839895 0 0 0 2.783203,2.78516 2.7839895,2.7839895 0 0 0 2.785156,-2.78516 2.7839895,2.7839895 0 0 0 -2.785156,-2.7832 z m 6.816406,0 v 5.56836 h 5.568359 v -5.56836 z m 14.544922,0.14453 v 5.27929 h 5.279297 v -5.27929 z m 12.240234,0 a 2.6399899,2.6399899 0 0 0 -2.640625,2.63867 2.6399899,2.6399899 0 0 0 2.640625,2.64062 2.6399899,2.6399899 0 0 0 2.638672,-2.64062 2.6399899,2.6399899 0 0 0 -2.638672,-2.63867 z m 9.59961,0 a 2.6399899,2.6399899 0 0 0 -2.640625,2.63867 2.6399899,2.6399899 0 0 0 2.640625,2.64062 2.6399899,2.6399899 0 0 0 2.638672,-2.64062 2.6399899,2.6399899 0 0 0 -2.638672,-2.63867 z m 9.599609,0 a 2.6399899,2.6399899 0 0 0 -2.640625,2.63867 2.6399899,2.6399899 0 0 0 2.640625,2.64062 2.6399899,2.6399899 0 0 0 2.640625,-2.64062 2.6399899,2.6399899 0 0 0 -2.640625,-2.63867 z m 9.59961,0 a 2.6399899,2.6399899 0 0 0 -2.640626,2.63867 2.6399899,2.6399899 0 0 0 2.640626,2.64062 2.6399899,2.6399899 0 0 0 2.640624,-2.64062 2.6399899,2.6399899 0 0 0 -2.640624,-2.63867 z m 9.599609,0 a 2.6399899,2.6399899 0 0 0 -2.638672,2.63867 2.6399899,2.6399899 0 0 0 2.638672,2.64062 2.6399899,2.6399899 0 0 0 2.640625,-2.64062 2.6399899,2.6399899 0 0 0 -2.640625,-2.63867 z m 9.601563,0 a 2.6399899,2.6399899 0 0 0 -2.640626,2.63867 2.6399899,2.6399899 0 0 0 2.640626,2.64062 2.6399899,2.6399899 0 0 0 2.63867,-2.64062 2.6399899,2.6399899 0 0 0 -2.63867,-2.63867 z m 9.59961,0 a 2.6399899,2.6399899 0 0 0 -2.64063,2.63867 2.6399899,2.6399899 0 0 0 2.64063,2.64062 2.6399899,2.6399899 0 0 0 2.63867,-2.64062 2.6399899,2.6399899 0 0 0 -2.63867,-2.63867 z m -57.599611,12.75 a 1.8897528,1.8897528 0 0 0 -1.890625,1.89062 1.8897528,1.8897528 0 0 0 1.890625,1.88867 1.8897528,1.8897528 0 0 0 1.888672,-1.88867 1.8897528,1.8897528 0 0 0 -1.888672,-1.89062 z m 9.59961,0 a 1.8897528,1.8897528 0 0 0 -1.890625,1.89062 1.8897528,1.8897528 0 0 0 1.890625,1.88867 1.8897528,1.8897528 0 0 0 1.888672,-1.88867 1.8897528,1.8897528 0 0 0 -1.888672,-1.89062 z m 9.599609,0 a 1.8897528,1.8897528 0 0 0 -1.890625,1.89062 1.8897528,1.8897528 0 0 0 1.890625,1.88867 1.8897528,1.8897528 0 0 0 1.888672,-1.88867 1.8897528,1.8897528 0 0 0 -1.888672,-1.89062 z m 9.59961,0 a 1.8897528,1.8897528 0 0 0 -1.888672,1.89062 1.8897528,1.8897528 0 0 0 1.888672,1.88867 1.8897528,1.8897528 0 0 0 1.890624,-1.88867 1.8897528,1.8897528 0 0 0 -1.890624,-1.89062 z m 9.599609,0 a 1.8897528,1.8897528 0 0 0 -1.888672,1.89062 1.8897528,1.8897528 0 0 0 1.888672,1.88867 1.8897528,1.8897528 0 0 0 1.890625,-1.88867 1.8897528,1.8897528 0 0 0 -1.890625,-1.89062 z m 9.599613,0 a 1.8897528,1.8897528 0 0 0 -1.888676,1.89062 1.8897528,1.8897528 0 0 0 1.888676,1.88867 1.8897528,1.8897528 0 0 0 1.89062,-1.88867 1.8897528,1.8897528 0 0 0 -1.89062,-1.89062 z m -91.3046912,8.59961 a 2.7839895,2.7839895 0 0 0 -2.7851563,2.7832 2.7839895,2.7839895 0 0 0 2.7851563,2.7832 2.7839895,2.7839895 0 0 0 2.7832032,-2.7832 2.7839895,2.7839895 0 0 0 -2.7832032,-2.7832 z m 117.7050812,0.10547 a 2.7839895,2.7839895 0 0 0 -2.78321,2.78515 2.7839895,2.7839895 0 0 0 2.78321,2.78321 2.7839895,2.7839895 0 0 0 2.7832,-2.78321 2.7839895,2.7839895 0 0 0 -2.7832,-2.78515 z m -16.79883,0.89453 a 1.8897528,1.8897528 0 0 0 -1.89063,1.89062 1.8897528,1.8897528 0 0 0 1.89063,1.88867 1.8897528,1.8897528 0 0 0 1.88867,-1.88867 1.8897528,1.8897528 0 0 0 -1.88867,-1.89062 z m -28.800782,12 a 1.8897528,1.8897528 0 0 0 -1.888672,1.89062 1.8897528,1.8897528 0 0 0 1.888672,1.88867 1.8897528,1.8897528 0 0 0 1.890624,-1.88867 1.8897528,1.8897528 0 0 0 -1.890624,-1.89062 z m 19.199222,0 a 1.8897528,1.8897528 0 0 0 -1.888676,1.89062 1.8897528,1.8897528 0 0 0 1.888676,1.88867 1.8897528,1.8897528 0 0 0 1.89062,-1.88867 1.8897528,1.8897528 0 0 0 -1.89062,-1.89062 z m -91.3046912,6.19922 a 2.7839895,2.7839895 0 0 0 -2.7851563,2.7832 2.7839895,2.7839895 0 0 0 2.7851563,2.78516 2.7839895,2.7839895 0 0 0 2.7832032,-2.78516 2.7839895,2.7839895 0 0 0 -2.7832032,-2.7832 z m 117.7050812,0.10742 a 2.7839895,2.7839895 0 0 0 -2.78321,2.7832 2.7839895,2.7839895 0 0 0 2.78321,2.7832 2.7839895,2.7839895 0 0 0 2.7832,-2.7832 2.7839895,2.7839895 0 0 0 -2.7832,-2.7832 z m -74.398441,10.49414 a 1.8897528,1.8897528 0 0 0 -1.890625,1.88867 1.8897528,1.8897528 0 0 0 1.890625,1.89063 1.8897528,1.8897528 0 0 0 1.888672,-1.89063 1.8897528,1.8897528 0 0 0 -1.888672,-1.88867 z m 19.199219,0 a 1.8897528,1.8897528 0 0 0 -1.890625,1.88867 1.8897528,1.8897528 0 0 0 1.890625,1.89063 1.8897528,1.8897528 0 0 0 1.890625,-1.89063 1.8897528,1.8897528 0 0 0 -1.890625,-1.88867 z m -62.5058592,8.59766 a 2.7839895,2.7839895 0 0 0 -2.7851563,2.78515 2.7839895,2.7839895 0 0 0 2.7851563,2.7832 2.7839895,2.7839895 0 0 0 2.7832032,-2.7832 2.7839895,2.7839895 0 0 0 -2.7832032,-2.78515 z M 126.93555,206.4043 a 2.7839895,2.7839895 0 0 0 -2.78321,2.7832 2.7839895,2.7839895 0 0 0 2.78321,2.78516 2.7839895,2.7839895 0 0 0 2.7832,-2.78516 2.7839895,2.7839895 0 0 0 -2.7832,-2.7832 z M 9.2304688,225.49805 a 2.7839895,2.7839895 0 0 0 -2.7851563,2.7832 2.7839895,2.7839895 0 0 0 2.7851563,2.7832 2.7839895,2.7839895 0 0 0 2.7832032,-2.7832 2.7839895,2.7839895 0 0 0 -2.7832032,-2.7832 z m 117.7050812,0.10547 a 2.7839895,2.7839895 0 0 0 -2.78321,2.78515 2.7839895,2.7839895 0 0 0 2.78321,2.78321 2.7839895,2.7839895 0 0 0 2.7832,-2.78321 2.7839895,2.7839895 0 0 0 -2.7832,-2.78515 z M 9.2304688,235.09766 a 2.7839895,2.7839895 0 0 0 -2.7851563,2.7832 2.7839895,2.7839895 0 0 0 2.7851563,2.78516 2.7839895,2.7839895 0 0 0 2.7832032,-2.78516 2.7839895,2.7839895 0 0 0 -2.7832032,-2.7832 z m 117.7050812,0.10546 a 2.7839895,2.7839895 0 0 0 -2.78321,2.78516 2.7839895,2.7839895 0 0 0 2.78321,2.7832 2.7839895,2.7839895 0 0 0 2.7832,-2.7832 2.7839895,2.7839895 0 0 0 -2.7832,-2.78516 z M 9.2304688,244.69727 a 2.7839895,2.7839895 0 0 0 -2.7851563,2.7832 2.7839895,2.7839895 0 0 0 2.7851563,2.78515 2.7839895,2.7839895 0 0 0 2.7832032,-2.78515 2.7839895,2.7839895 0 0 0 -2.7832032,-2.7832 z m 117.7050812,0.10742 a 2.7839895,2.7839895 0 0 0 -2.78321,2.7832 2.7839895,2.7839895 0 0 0 2.78321,2.7832 2.7839895,2.7839895 0 0 0 2.7832,-2.7832 2.7839895,2.7839895 0 0 0 -2.7832,-2.7832 z M 9.2304688,254.29688 a 2.7839895,2.7839895 0 0 0 -2.7851563,2.78515 2.7839895,2.7839895 0 0 0 2.7851563,2.7832 2.7839895,2.7839895 0 0 0 2.7832032,-2.7832 2.7839895,2.7839895 0 0 0 -2.7832032,-2.78515 z M 126.93555,254.4043 a 2.7839895,2.7839895 0 0 0 -2.78321,2.7832 2.7839895,2.7839895 0 0 0 2.78321,2.78516 2.7839895,2.7839895 0 0 0 2.7832,-2.78516 2.7839895,2.7839895 0 0 0 -2.7832,-2.7832 z M 9.3359375,264.00391 a 2.7839895,2.7839895 0 0 0 -2.7832031,2.7832 2.7839895,2.7839895 0 0 0 2.7832031,2.78516 2.7839895,2.7839895 0 0 0 2.7851565,-2.78516 2.7839895,2.7839895 0 0 0 -2.7851565,-2.7832 z m 117.7070325,0.10742 a 2.7839895,2.7839895 0 0 0 -2.78516,2.7832 2.7839895,2.7839895 0 0 0 2.78516,2.7832 2.7839895,2.7839895 0 0 0 2.7832,-2.7832 2.7839895,2.7839895 0 0 0 -2.7832,-2.7832 z M 9.3359375,273.60352 a 2.7839895,2.7839895 0 0 0 -2.7832031,2.78515 2.7839895,2.7839895 0 0 0 2.7832031,2.78321 2.7839895,2.7839895 0 0 0 2.7851565,-2.78321 2.7839895,2.7839895 0 0 0 -2.7851565,-2.78515 z m 117.7070325,0.10742 a 2.7839895,2.7839895 0 0 0 -2.78516,2.7832 2.7839895,2.7839895 0 0 0 2.78516,2.78516 2.7839895,2.7839895 0 0 0 2.7832,-2.78516 2.7839895,2.7839895 0 0 0 -2.7832,-2.7832 z M 9.3359375,283.20312 a 2.7839895,2.7839895 0 0 0 -2.7832031,2.78516 2.7839895,2.7839895 0 0 0 2.7832031,2.7832 2.7839895,2.7839895 0 0 0 2.7851565,-2.7832 2.7839895,2.7839895 0 0 0 -2.7851565,-2.78516 z m 117.7070325,0.10743 a 2.7839895,2.7839895 0 0 0 -2.78516,2.7832 2.7839895,2.7839895 0 0 0 2.78516,2.78516 2.7839895,2.7839895 0 0 0 2.7832,-2.78516 2.7839895,2.7839895 0 0 0 -2.7832,-2.7832 z M 9.3359375,292.80273 a 2.7839895,2.7839895 0 0 0 -2.7832031,2.78516 2.7839895,2.7839895 0 0 0 2.7832031,2.7832 2.7839895,2.7839895 0 0 0 2.7851565,-2.7832 2.7839895,2.7839895 0 0 0 -2.7851565,-2.78516 z m 117.7070325,0.10743 a 2.7839895,2.7839895 0 0 0 -2.78516,2.78515 2.7839895,2.7839895 0 0 0 2.78516,2.78321 2.7839895,2.7839895 0 0 0 2.7832,-2.78321 2.7839895,2.7839895 0 0 0 -2.7832,-2.78515 z M 9.3359375,302.4043 a 2.7839895,2.7839895 0 0 0 -2.7832031,2.7832 2.7839895,2.7839895 0 0 0 2.7832031,2.7832 2.7839895,2.7839895 0 0 0 2.7851565,-2.7832 2.7839895,2.7839895 0 0 0 -2.7851565,-2.7832 z m 117.7070325,0.10547 a 2.7839895,2.7839895 0 0 0 -2.78516,2.78515 2.7839895,2.7839895 0 0 0 2.78516,2.7832 2.7839895,2.7839895 0 0 0 2.7832,-2.7832 2.7839895,2.7839895 0 0 0 -2.7832,-2.78515 z M 9.3359375,312.00391 a 2.7839895,2.7839895 0 0 0 -2.7832031,2.7832 2.7839895,2.7839895 0 0 0 2.7832031,2.78516 2.7839895,2.7839895 0 0 0 2.7851565,-2.78516 2.7839895,2.7839895 0 0 0 -2.7851565,-2.7832 z m 117.7070325,0.10547 a 2.7839895,2.7839895 0 0 0 -2.78516,2.78515 2.7839895,2.7839895 0 0 0 2.78516,2.7832 2.7839895,2.7839895 0 0 0 2.7832,-2.7832 2.7839895,2.7839895 0 0 0 -2.7832,-2.78515 z M 9.3359375,321.60352 a 2.7839895,2.7839895 0 0 0 -2.7832031,2.7832 2.7839895,2.7839895 0 0 0 2.7832031,2.78516 2.7839895,2.7839895 0 0 0 2.7851565,-2.78516 2.7839895,2.7839895 0 0 0 -2.7851565,-2.7832 z m 117.7070325,0.10742 a 2.7839895,2.7839895 0 0 0 -2.78516,2.7832 2.7839895,2.7839895 0 0 0 2.78516,2.7832 2.7839895,2.7839895 0 0 0 2.7832,-2.7832 2.7839895,2.7839895 0 0 0 -2.7832,-2.7832 z M 9.3359375,331.20312 a 2.7839895,2.7839895 0 0 0 -2.7832031,2.78516 2.7839895,2.7839895 0 0 0 2.7832031,2.7832 2.7839895,2.7839895 0 0 0 2.7851565,-2.7832 2.7839895,2.7839895 0 0 0 -2.7851565,-2.78516 z m 117.7070325,0.10743 a 2.7839895,2.7839895 0 0 0 -2.78516,2.7832 2.7839895,2.7839895 0 0 0 2.78516,2.78516 2.7839895,2.7839895 0 0 0 2.7832,-2.78516 2.7839895,2.7839895 0 0 0 -2.7832,-2.7832 z m -103.306642,7.98828 a 1.8897528,1.8897528 0 0 0 -1.890625,1.88867 1.8897528,1.8897528 0 0 0 1.890625,1.89062 1.8897528,1.8897528 0 0 0 1.890625,-1.89062 1.8897528,1.8897528 0 0 0 -1.890625,-1.88867 z m 67.199219,0 a 1.8897528,1.8897528 0 0 0 -1.888672,1.88867 1.8897528,1.8897528 0 0 0 1.888672,1.89062 1.8897528,1.8897528 0 0 0 1.890625,-1.89062 1.8897528,1.8897528 0 0 0 -1.890625,-1.88867 z m 19.201173,0 a 1.8897528,1.8897528 0 0 0 -1.89063,1.88867 1.8897528,1.8897528 0 0 0 1.89063,1.89062 1.8897528,1.8897528 0 0 0 1.88867,-1.89062 1.8897528,1.8897528 0 0 0 -1.88867,-1.88867 z M 9.3359375,347.14062 a 6.0472169,6.0472169 0 0 0 -6.046875,6.04688 6.0472169,6.0472169 0 0 0 6.046875,6.04688 6.0472169,6.0472169 0 0 0 6.0468745,-6.04688 6.0472169,6.0472169 0 0 0 -6.0468745,-6.04688 z m 117.5996125,0 a 6.0472169,6.0472169 0 0 0 -6.04688,6.04688 6.0472169,6.0472169 0 0 0 6.04688,6.04688 6.0472169,6.0472169 0 0 0 6.04687,-6.04688 6.0472169,6.0472169 0 0 0 -6.04687,-6.04688 z m -103.199222,5.66211 a 2.7839895,2.7839895 0 0 0 -2.783203,2.78516 2.7839895,2.7839895 0 0 0 2.783203,2.7832 2.7839895,2.7839895 0 0 0 2.783203,-2.7832 2.7839895,2.7839895 0 0 0 -2.783203,-2.78516 z m 19.199219,0 a 2.7839895,2.7839895 0 0 0 -2.783203,2.78516 2.7839895,2.7839895 0 0 0 2.783203,2.7832 2.7839895,2.7839895 0 0 0 2.785156,-2.7832 2.7839895,2.7839895 0 0 0 -2.785156,-2.78516 z m 9.601562,0 a 2.7839895,2.7839895 0 0 0 -2.785156,2.78516 2.7839895,2.7839895 0 0 0 2.785156,2.7832 2.7839895,2.7839895 0 0 0 2.783203,-2.7832 2.7839895,2.7839895 0 0 0 -2.783203,-2.78516 z m 9.59961,0 a 2.7839895,2.7839895 0 0 0 -2.785157,2.78516 2.7839895,2.7839895 0 0 0 2.785157,2.7832 2.7839895,2.7839895 0 0 0 2.783203,-2.7832 2.7839895,2.7839895 0 0 0 -2.783203,-2.78516 z m 9.599609,0 a 2.7839895,2.7839895 0 0 0 -2.783203,2.78516 2.7839895,2.7839895 0 0 0 2.783203,2.7832 2.7839895,2.7839895 0 0 0 2.783203,-2.7832 2.7839895,2.7839895 0 0 0 -2.783203,-2.78516 z m 9.59961,0 a 2.7839895,2.7839895 0 0 0 -2.783204,2.78516 2.7839895,2.7839895 0 0 0 2.783204,2.7832 2.7839895,2.7839895 0 0 0 2.785156,-2.7832 2.7839895,2.7839895 0 0 0 -2.785156,-2.78516 z m 9.599609,0 a 2.7839895,2.7839895 0 0 0 -2.783203,2.78516 2.7839895,2.7839895 0 0 0 2.783203,2.7832 2.7839895,2.7839895 0 0 0 2.785156,-2.7832 2.7839895,2.7839895 0 0 0 -2.785156,-2.78516 z m 19.201173,0 a 2.7839895,2.7839895 0 0 0 -2.78516,2.78516 2.7839895,2.7839895 0 0 0 2.78516,2.7832 2.7839895,2.7839895 0 0 0 2.7832,-2.7832 2.7839895,2.7839895 0 0 0 -2.7832,-2.78516 z"
       transform="matrix(0.75000287,0,0,0.75000287,0,-6.2748816e-4)"
       id="connector0pin"
       inkscape:connector-curvature="0" />
    <path
       style="color:#000000;font-style:normal;font-variant:normal;font-weight:normal;font-stretch:normal;font-size:medium;line-height:normal;font-family:sans-serif;font-variant-ligatures:normal;font-variant-position:normal;font-variant-caps:normal;font-variant-numeric:normal;font-variant-alternates:normal;font-feature-settings:normal;text-indent:0;text-align:start;text-decoration:none;text-decoration-line:none;text-decoration-style:solid;text-decoration-color:#000000;letter-spacing:normal;word-spacing:normal;text-transform:none;writing-mode:lr-tb;direction:ltr;text-orientation:mixed;dominant-baseline:auto;baseline-shift:baseline;text-anchor:start;white-space:normal;shape-padding:0;clip-rule:nonzero;display:inline;overflow:visible;visibility:visible;opacity:1;isolation:auto;mix-blend-mode:normal;color-interpolation:sRGB;color-interpolation-filters:linearRGB;solid-color:#000000;solid-opacity:1;vector-effect:none;fill:#000000;fill-opacity:1;fill-rule:nonzero;stroke:none;stroke-width:0.5;stroke-linecap:butt;stroke-linejoin:miter;stroke-miterlimit:4;stroke-dasharray:none;stroke-dashoffset:0;stroke-opacity:1;color-rendering:auto;image-rendering:auto;shape-rendering:auto;text-rendering:auto;enable-background:accumulate"
       d="m 0.03780214,0.03710339 v 0.25 V 272.00389 H 102.18819 V 0.03710339 Z m 0.5,0.5 H 101.68819 V 271.5039 H 0.53780214 Z"
       id="boardoutline"
       inkscape:connector-curvature="0" />
  </g>
</svg>
