<?xml version="1.0" encoding="UTF-8" standalone="no"?>
<!-- Created with Fritzing (http://www.fritzing.org/) -->

<svg
   xmlns:dc="http://purl.org/dc/elements/1.1/"
   xmlns:cc="http://creativecommons.org/ns#"
   xmlns:rdf="http://www.w3.org/1999/02/22-rdf-syntax-ns#"
   xmlns:svg="http://www.w3.org/2000/svg"
   xmlns="http://www.w3.org/2000/svg"
   xmlns:sodipodi="http://sodipodi.sourceforge.net/DTD/sodipodi-0.dtd"
   xmlns:inkscape="http://www.inkscape.org/namespaces/inkscape"
   viewBox="0 0 324.17174 286.88293"
   x="0in"
   width="4.5023847in"
   height="3.9844813in"
   version="1.2"
   y="0in"
   id="svg2058"
   sodipodi:docname="cnc.svg"
   inkscape:version="0.92.4 (unknown)">
  <metadata
     id="metadata2064">
    <rdf:RDF>
      <cc:Work
         rdf:about="">
        <dc:format>image/svg+xml</dc:format>
        <dc:type
           rdf:resource="http://purl.org/dc/dcmitype/StillImage" />
      </cc:Work>
    </rdf:RDF>
  </metadata>
  <defs
     id="defs2062" />
  <sodipodi:namedview
     pagecolor="#ffffff"
     bordercolor="#666666"
     borderopacity="1"
     objecttolerance="10"
     gridtolerance="10"
     guidetolerance="10"
     inkscape:pageopacity="0"
     inkscape:pageshadow="2"
     inkscape:window-width="535"
     inkscape:window-height="477"
     id="namedview2060"
     showgrid="false"
     inkscape:zoom="0.61681774"
     inkscape:cx="219.35691"
     inkscape:cy="183.9596"
     inkscape:window-x="0"
     inkscape:window-y="27"
     inkscape:window-maximized="0"
     inkscape:current-layer="svg2058" />
  <g
     inkscape:groupmode="layer"
     id="topmask"
     inkscape:label="topmask"
     transform="translate(-0.03763038,-0.03703864)">
    <path
       style="fill:#000000;stroke:#000000;stroke-width:3.60567832"
       d="m 11.945312,9.0976562 a 5.6692901,5.6692901 0 0 0 -5.6699214,5.6699218 5.6692901,5.6692901 0 0 0 5.6699214,5.667969 5.6692901,5.6692901 0 0 0 5.667969,-5.667969 5.6692901,5.6692901 0 0 0 -5.667969,-5.6699218 z m 406.798828,0 a 5.6692901,5.6692901 0 0 0 -5.66797,5.6699218 5.6692901,5.6692901 0 0 0 5.66797,5.667969 5.6692901,5.6692901 0 0 0 5.66992,-5.667969 5.6692901,5.6692901 0 0 0 -5.66992,-5.6699218 z M 167.94531,10.783203 a 2.7839987,2.7839987 0 0 0 -2.7832,2.783203 2.7839987,2.7839987 0 0 0 2.7832,2.785156 2.7839987,2.7839987 0 0 0 2.78321,-2.785156 2.7839987,2.7839987 0 0 0 -2.78321,-2.783203 z m 9.59961,0 a 2.7839987,2.7839987 0 0 0 -2.7832,2.783203 2.7839987,2.7839987 0 0 0 2.7832,2.785156 2.7839987,2.7839987 0 0 0 2.78516,-2.785156 2.7839987,2.7839987 0 0 0 -2.78516,-2.783203 z m 9.59961,0 a 2.7839987,2.7839987 0 0 0 -2.7832,2.783203 2.7839987,2.7839987 0 0 0 2.7832,2.785156 2.7839987,2.7839987 0 0 0 2.78516,-2.785156 2.7839987,2.7839987 0 0 0 -2.78516,-2.783203 z m 9.60156,0 a 2.7839987,2.7839987 0 0 0 -2.78515,2.783203 2.7839987,2.7839987 0 0 0 2.78515,2.785156 2.7839987,2.7839987 0 0 0 2.78321,-2.785156 2.7839987,2.7839987 0 0 0 -2.78321,-2.783203 z m 9.59961,0 a 2.7839987,2.7839987 0 0 0 -2.78515,2.783203 2.7839987,2.7839987 0 0 0 2.78515,2.785156 2.7839987,2.7839987 0 0 0 2.78321,-2.785156 2.7839987,2.7839987 0 0 0 -2.78321,-2.783203 z m 9.59961,0 a 2.7839987,2.7839987 0 0 0 -2.7832,2.783203 2.7839987,2.7839987 0 0 0 2.7832,2.785156 2.7839987,2.7839987 0 0 0 2.78321,-2.785156 2.7839987,2.7839987 0 0 0 -2.78321,-2.783203 z m 9.59961,0 a 2.7839987,2.7839987 0 0 0 -2.7832,2.783203 2.7839987,2.7839987 0 0 0 2.7832,2.785156 2.7839987,2.7839987 0 0 0 2.78516,-2.785156 2.7839987,2.7839987 0 0 0 -2.78516,-2.783203 z m 9.59961,0 a 2.7839987,2.7839987 0 0 0 -2.7832,2.783203 2.7839987,2.7839987 0 0 0 2.7832,2.785156 2.7839987,2.7839987 0 0 0 2.78516,-2.785156 2.7839987,2.7839987 0 0 0 -2.78516,-2.783203 z m 57.60156,0 a 2.7839987,2.7839987 0 0 0 -2.78515,2.783203 2.7839987,2.7839987 0 0 0 2.78515,2.785156 2.7839987,2.7839987 0 0 0 2.78321,-2.785156 2.7839987,2.7839987 0 0 0 -2.78321,-2.783203 z m 9.59961,0 a 2.7839987,2.7839987 0 0 0 -2.78515,2.783203 2.7839987,2.7839987 0 0 0 2.78515,2.785156 2.7839987,2.7839987 0 0 0 2.78321,-2.785156 2.7839987,2.7839987 0 0 0 -2.78321,-2.783203 z m 9.59961,0 a 2.7839987,2.7839987 0 0 0 -2.7832,2.783203 2.7839987,2.7839987 0 0 0 2.7832,2.785156 2.7839987,2.7839987 0 0 0 2.78321,-2.785156 2.7839987,2.7839987 0 0 0 -2.78321,-2.783203 z m 9.59961,0 a 2.7839987,2.7839987 0 0 0 -2.7832,2.783203 2.7839987,2.7839987 0 0 0 2.7832,2.785156 2.7839987,2.7839987 0 0 0 2.78516,-2.785156 2.7839987,2.7839987 0 0 0 -2.78516,-2.783203 z m 9.59961,0 a 2.7839987,2.7839987 0 0 0 -2.7832,2.783203 2.7839987,2.7839987 0 0 0 2.7832,2.785156 2.7839987,2.7839987 0 0 0 2.78516,-2.785156 2.7839987,2.7839987 0 0 0 -2.78516,-2.783203 z m 9.60156,0 a 2.7839987,2.7839987 0 0 0 -2.78515,2.783203 2.7839987,2.7839987 0 0 0 2.78515,2.785156 2.7839987,2.7839987 0 0 0 2.78321,-2.785156 2.7839987,2.7839987 0 0 0 -2.78321,-2.783203 z m 9.59961,0 a 2.7839987,2.7839987 0 0 0 -2.78515,2.783203 2.7839987,2.7839987 0 0 0 2.78515,2.785156 2.7839987,2.7839987 0 0 0 2.78321,-2.785156 2.7839987,2.7839987 0 0 0 -2.78321,-2.783203 z m 9.59961,0 a 2.7839987,2.7839987 0 0 0 -2.78515,2.783203 2.7839987,2.7839987 0 0 0 2.78515,2.785156 2.7839987,2.7839987 0 0 0 2.78321,-2.785156 2.7839987,2.7839987 0 0 0 -2.78321,-2.783203 z M 8.3457031,39.582031 a 2.7839987,2.7839987 0 0 0 -2.7851562,2.785157 2.7839987,2.7839987 0 0 0 2.7851562,2.783203 2.7839987,2.7839987 0 0 0 2.7832029,-2.783203 2.7839987,2.7839987 0 0 0 -2.7832029,-2.785157 z m 10.7988279,0.384766 a 2.3999988,2.3999988 0 0 0 -2.40039,2.400391 2.3999988,2.3999988 0 0 0 2.40039,2.40039 2.3999988,2.3999988 0 0 0 2.400391,-2.40039 2.3999988,2.3999988 0 0 0 -2.400391,-2.400391 z m 9.59961,0.888672 a 1.5118125,1.5118125 0 0 0 -1.511719,1.511719 1.5118125,1.5118125 0 0 0 1.511719,1.511718 1.5118125,1.5118125 0 0 0 1.511718,-1.511718 1.5118125,1.5118125 0 0 0 -1.511718,-1.511719 z m 391.201169,2.328125 a 2.7839987,2.7839987 0 0 0 -2.78515,2.783203 2.7839987,2.7839987 0 0 0 2.78515,2.783203 2.7839987,2.7839987 0 0 0 2.78321,-2.783203 2.7839987,2.7839987 0 0 0 -2.78321,-2.783203 z m -411.5996069,6 A 2.7839987,2.7839987 0 0 0 5.5605469,51.966797 2.7839987,2.7839987 0 0 0 8.3457031,54.75 2.7839987,2.7839987 0 0 0 11.128906,51.966797 2.7839987,2.7839987 0 0 0 8.3457031,49.183594 Z m 10.7988279,0.402344 a 2.3999988,2.3999988 0 0 0 -2.40039,2.398437 2.3999988,2.3999988 0 0 0 2.40039,2.400391 2.3999988,2.3999988 0 0 0 2.400391,-2.400391 2.3999988,2.3999988 0 0 0 -2.400391,-2.398437 z m 400.800779,3.197265 a 2.7839987,2.7839987 0 0 0 -2.78515,2.783203 2.7839987,2.7839987 0 0 0 2.78515,2.785156 2.7839987,2.7839987 0 0 0 2.78321,-2.785156 2.7839987,2.7839987 0 0 0 -2.78321,-2.783203 z M 379.14453,63.65625 a 1.5118125,1.5118125 0 0 0 -1.51172,1.511719 1.5118125,1.5118125 0 0 0 1.51172,1.511719 1.5118125,1.5118125 0 0 0 1.51172,-1.511719 1.5118125,1.5118125 0 0 0 -1.51172,-1.511719 z M 8.3457031,68.382812 A 2.7839987,2.7839987 0 0 0 5.5605469,71.166016 2.7839987,2.7839987 0 0 0 8.3457031,73.951172 2.7839987,2.7839987 0 0 0 11.128906,71.166016 2.7839987,2.7839987 0 0 0 8.3457031,68.382812 Z M 59.757812,68.5 v 5.279297 h 5.28125 V 68.5 Z m 31.439454,0 a 2.6399986,2.6399986 0 0 0 -2.638672,2.640625 2.6399986,2.6399986 0 0 0 2.638672,2.638672 2.6399986,2.6399986 0 0 0 2.640625,-2.638672 A 2.6399986,2.6399986 0 0 0 91.197266,68.5 Z m -43.251954,1.15625 a 1.5118125,1.5118125 0 0 0 -1.511718,1.511719 1.5118125,1.5118125 0 0 0 1.511718,1.511719 1.5118125,1.5118125 0 0 0 1.511719,-1.511719 1.5118125,1.5118125 0 0 0 -1.511719,-1.511719 z m 58.798828,0 a 1.5118125,1.5118125 0 0 0 -1.51172,1.511719 1.5118125,1.5118125 0 0 0 1.51172,1.511719 1.5118125,1.5118125 0 0 0 1.51172,-1.511719 1.5118125,1.5118125 0 0 0 -1.51172,-1.511719 z m 61.15625,2.371094 a 2.7839987,2.7839987 0 0 0 -2.7832,2.785156 2.7839987,2.7839987 0 0 0 2.7832,2.783203 2.7839987,2.7839987 0 0 0 2.78516,-2.783203 2.7839987,2.7839987 0 0 0 -2.78516,-2.785156 z m 9.60156,0 a 2.7839987,2.7839987 0 0 0 -2.78515,2.785156 2.7839987,2.7839987 0 0 0 2.78515,2.783203 2.7839987,2.7839987 0 0 0 2.78321,-2.783203 2.7839987,2.7839987 0 0 0 -2.78321,-2.785156 z m 9.59961,0 a 2.7839987,2.7839987 0 0 0 -2.78515,2.785156 2.7839987,2.7839987 0 0 0 2.78515,2.783203 2.7839987,2.7839987 0 0 0 2.78321,-2.783203 2.7839987,2.7839987 0 0 0 -2.78321,-2.785156 z m 9.59961,0 a 2.7839987,2.7839987 0 0 0 -2.7832,2.785156 2.7839987,2.7839987 0 0 0 2.7832,2.783203 2.7839987,2.7839987 0 0 0 2.78321,-2.783203 2.7839987,2.7839987 0 0 0 -2.78321,-2.785156 z m 9.59961,0 a 2.7839987,2.7839987 0 0 0 -2.7832,2.785156 2.7839987,2.7839987 0 0 0 2.7832,2.783203 2.7839987,2.7839987 0 0 0 2.78516,-2.783203 2.7839987,2.7839987 0 0 0 -2.78516,-2.785156 z m 9.59961,0 a 2.7839987,2.7839987 0 0 0 -2.7832,2.785156 2.7839987,2.7839987 0 0 0 2.7832,2.783203 2.7839987,2.7839987 0 0 0 2.78516,-2.783203 2.7839987,2.7839987 0 0 0 -2.78516,-2.785156 z m 9.60156,0 a 2.7839987,2.7839987 0 0 0 -2.78515,2.785156 2.7839987,2.7839987 0 0 0 2.78515,2.783203 2.7839987,2.7839987 0 0 0 2.78321,-2.783203 2.7839987,2.7839987 0 0 0 -2.78321,-2.785156 z m 9.59961,0 a 2.7839987,2.7839987 0 0 0 -2.78515,2.785156 2.7839987,2.7839987 0 0 0 2.78515,2.783203 2.7839987,2.7839987 0 0 0 2.78321,-2.783203 2.7839987,2.7839987 0 0 0 -2.78321,-2.785156 z m 57.59961,0 a 2.7839987,2.7839987 0 0 0 -2.7832,2.785156 2.7839987,2.7839987 0 0 0 2.7832,2.783203 2.7839987,2.7839987 0 0 0 2.78321,-2.783203 2.7839987,2.7839987 0 0 0 -2.78321,-2.785156 z m 9.59961,0 a 2.7839987,2.7839987 0 0 0 -2.7832,2.785156 2.7839987,2.7839987 0 0 0 2.7832,2.783203 2.7839987,2.7839987 0 0 0 2.78516,-2.783203 2.7839987,2.7839987 0 0 0 -2.78516,-2.785156 z m 9.59961,0 a 2.7839987,2.7839987 0 0 0 -2.7832,2.785156 2.7839987,2.7839987 0 0 0 2.7832,2.783203 2.7839987,2.7839987 0 0 0 2.78516,-2.783203 2.7839987,2.7839987 0 0 0 -2.78516,-2.785156 z m 9.60156,0 a 2.7839987,2.7839987 0 0 0 -2.78515,2.785156 2.7839987,2.7839987 0 0 0 2.78515,2.783203 2.7839987,2.7839987 0 0 0 2.78321,-2.783203 2.7839987,2.7839987 0 0 0 -2.78321,-2.785156 z m 9.59961,0 a 2.7839987,2.7839987 0 0 0 -2.78515,2.785156 2.7839987,2.7839987 0 0 0 2.78515,2.783203 2.7839987,2.7839987 0 0 0 2.78321,-2.783203 2.7839987,2.7839987 0 0 0 -2.78321,-2.785156 z m 9.59961,0 a 2.7839987,2.7839987 0 0 0 -2.7832,2.785156 2.7839987,2.7839987 0 0 0 2.7832,2.783203 2.7839987,2.7839987 0 0 0 2.78321,-2.783203 2.7839987,2.7839987 0 0 0 -2.78321,-2.785156 z m 9.59961,0 a 2.7839987,2.7839987 0 0 0 -2.7832,2.785156 2.7839987,2.7839987 0 0 0 2.7832,2.783203 2.7839987,2.7839987 0 0 0 2.78516,-2.783203 2.7839987,2.7839987 0 0 0 -2.78516,-2.785156 z m 9.59961,0 a 2.7839987,2.7839987 0 0 0 -2.7832,2.785156 2.7839987,2.7839987 0 0 0 2.7832,2.783203 2.7839987,2.7839987 0 0 0 2.78516,-2.783203 2.7839987,2.7839987 0 0 0 -2.78516,-2.785156 z m 19.20117,0 a 2.7839987,2.7839987 0 0 0 -2.78515,2.785156 2.7839987,2.7839987 0 0 0 2.78515,2.783203 2.7839987,2.7839987 0 0 0 2.78321,-2.783203 2.7839987,2.7839987 0 0 0 -2.78321,-2.785156 z m -220.62304,1.361328 a 1.5118125,1.5118125 0 0 0 -1.51172,1.511719 1.5118125,1.5118125 0 0 0 1.51172,1.511718 1.5118125,1.5118125 0 0 0 1.51171,-1.511718 1.5118125,1.5118125 0 0 0 -1.51171,-1.511719 z m 105.5996,0 a 1.5118125,1.5118125 0 0 0 -1.51171,1.511719 1.5118125,1.5118125 0 0 0 1.51171,1.511718 1.5118125,1.5118125 0 0 0 1.51172,-1.511718 1.5118125,1.5118125 0 0 0 -1.51172,-1.511719 z M 8.3457031,77.982422 a 2.7839987,2.7839987 0 0 0 -2.7851562,2.785156 2.7839987,2.7839987 0 0 0 2.7851562,2.783203 2.7839987,2.7839987 0 0 0 2.7832029,-2.783203 2.7839987,2.7839987 0 0 0 -2.7832029,-2.785156 z m 54.0527349,0.117187 a 2.6399986,2.6399986 0 0 0 -2.640626,2.640625 2.6399986,2.6399986 0 0 0 2.640626,2.640625 2.6399986,2.6399986 0 0 0 2.640624,-2.640625 2.6399986,2.6399986 0 0 0 -2.640624,-2.640625 z m 28.798828,0 a 2.6399986,2.6399986 0 0 0 -2.638672,2.640625 2.6399986,2.6399986 0 0 0 2.638672,2.640625 2.6399986,2.6399986 0 0 0 2.640625,-2.640625 2.6399986,2.6399986 0 0 0 -2.640625,-2.640625 z m 303.546874,5.398438 a 5.6692901,5.6692901 0 0 0 -5.66797,5.667969 5.6692901,5.6692901 0 0 0 5.66797,5.669922 5.6692901,5.6692901 0 0 0 5.66992,-5.669922 5.6692901,5.6692901 0 0 0 -5.66992,-5.667969 z M 8.3457031,87.582031 a 2.7839987,2.7839987 0 0 0 -2.7851562,2.785157 2.7839987,2.7839987 0 0 0 2.7851562,2.783203 2.7839987,2.7839987 0 0 0 2.7832029,-2.783203 2.7839987,2.7839987 0 0 0 -2.7832029,-2.785157 z m 54.0527349,0.119141 a 2.6399986,2.6399986 0 0 0 -2.640626,2.638672 2.6399986,2.6399986 0 0 0 2.640626,2.640625 2.6399986,2.6399986 0 0 0 2.640624,-2.640625 2.6399986,2.6399986 0 0 0 -2.640624,-2.638672 z m 28.798828,0 a 2.6399986,2.6399986 0 0 0 -2.638672,2.638672 2.6399986,2.6399986 0 0 0 2.638672,2.640625 2.6399986,2.6399986 0 0 0 2.640625,-2.640625 2.6399986,2.6399986 0 0 0 -2.640625,-2.638672 z M 8.3457031,97.183594 A 2.7839987,2.7839987 0 0 0 5.5605469,99.966797 2.7839987,2.7839987 0 0 0 8.3457031,102.75 2.7839987,2.7839987 0 0 0 11.128906,99.966797 2.7839987,2.7839987 0 0 0 8.3457031,97.183594 Z m 54.0527349,0.117187 a 2.6399986,2.6399986 0 0 0 -2.640626,2.638672 2.6399986,2.6399986 0 0 0 2.640626,2.640627 2.6399986,2.6399986 0 0 0 2.640624,-2.640627 2.6399986,2.6399986 0 0 0 -2.640624,-2.638672 z m 28.798828,0 a 2.6399986,2.6399986 0 0 0 -2.638672,2.638672 2.6399986,2.6399986 0 0 0 2.638672,2.640627 2.6399986,2.6399986 0 0 0 2.640625,-2.640627 2.6399986,2.6399986 0 0 0 -2.640625,-2.638672 z M 8.3457031,106.7832 a 2.7839987,2.7839987 0 0 0 -2.7851562,2.78321 2.7839987,2.7839987 0 0 0 2.7851562,2.78515 2.7839987,2.7839987 0 0 0 2.7832029,-2.78515 2.7839987,2.7839987 0 0 0 -2.7832029,-2.78321 z m 54.0527349,0.11719 a 2.6399986,2.6399986 0 0 0 -2.640626,2.64063 2.6399986,2.6399986 0 0 0 2.640626,2.63867 2.6399986,2.6399986 0 0 0 2.640624,-2.63867 2.6399986,2.6399986 0 0 0 -2.640624,-2.64063 z m 28.798828,0 a 2.6399986,2.6399986 0 0 0 -2.638672,2.64063 2.6399986,2.6399986 0 0 0 2.638672,2.63867 2.6399986,2.6399986 0 0 0 2.640625,-2.63867 2.6399986,2.6399986 0 0 0 -2.640625,-2.64063 z m 183.548824,5.95508 a 1.5118125,1.5118125 0 0 0 -1.51367,1.51172 1.5118125,1.5118125 0 0 0 1.51367,1.51172 1.5118125,1.5118125 0 0 0 1.51172,-1.51172 1.5118125,1.5118125 0 0 0 -1.51172,-1.51172 z M 8.3457031,116.38281 a 2.7839987,2.7839987 0 0 0 -2.7851562,2.78321 2.7839987,2.7839987 0 0 0 2.7851562,2.78515 2.7839987,2.7839987 0 0 0 2.7832029,-2.78515 2.7839987,2.7839987 0 0 0 -2.7832029,-2.78321 z M 62.398438,116.5 a 2.6399986,2.6399986 0 0 0 -2.640626,2.64062 2.6399986,2.6399986 0 0 0 2.640626,2.63868 2.6399986,2.6399986 0 0 0 2.640624,-2.63868 A 2.6399986,2.6399986 0 0 0 62.398438,116.5 Z m 28.798828,0 a 2.6399986,2.6399986 0 0 0 -2.638672,2.64062 2.6399986,2.6399986 0 0 0 2.638672,2.63868 2.6399986,2.6399986 0 0 0 2.640625,-2.63868 A 2.6399986,2.6399986 0 0 0 91.197266,116.5 Z m 193.148434,2.48828 a 1.5118125,1.5118125 0 0 0 -1.51172,1.51172 1.5118125,1.5118125 0 0 0 1.51172,1.51172 1.5118125,1.5118125 0 0 0 1.51172,-1.51172 1.5118125,1.5118125 0 0 0 -1.51172,-1.51172 z m 19.19922,5.86719 a 1.5118125,1.5118125 0 0 0 -1.51172,1.51172 1.5118125,1.5118125 0 0 0 1.51172,1.51172 1.5118125,1.5118125 0 0 0 1.51172,-1.51172 1.5118125,1.5118125 0 0 0 -1.51172,-1.51172 z M 8.3457031,125.98242 a 2.7839987,2.7839987 0 0 0 -2.7851562,2.78516 2.7839987,2.7839987 0 0 0 2.7851562,2.7832 2.7839987,2.7839987 0 0 0 2.7832029,-2.7832 2.7839987,2.7839987 0 0 0 -2.7832029,-2.78516 z m 54.0527349,0.11719 a 2.6399986,2.6399986 0 0 0 -2.640626,2.64062 2.6399986,2.6399986 0 0 0 2.640626,2.64063 2.6399986,2.6399986 0 0 0 2.640624,-2.64063 2.6399986,2.6399986 0 0 0 -2.640624,-2.64062 z m 28.798828,0 a 2.6399986,2.6399986 0 0 0 -2.638672,2.64062 2.6399986,2.6399986 0 0 0 2.638672,2.64063 2.6399986,2.6399986 0 0 0 2.640625,-2.64063 2.6399986,2.6399986 0 0 0 -2.640625,-2.64062 z m -82.8515629,9.48242 a 2.7839987,2.7839987 0 0 0 -2.7851562,2.78516 2.7839987,2.7839987 0 0 0 2.7851562,2.7832 2.7839987,2.7839987 0 0 0 2.7832029,-2.7832 2.7839987,2.7839987 0 0 0 -2.7832029,-2.78516 z m 54.0527349,0.11914 a 2.6399986,2.6399986 0 0 0 -2.640626,2.63867 2.6399986,2.6399986 0 0 0 2.640626,2.64063 2.6399986,2.6399986 0 0 0 2.640624,-2.64063 2.6399986,2.6399986 0 0 0 -2.640624,-2.63867 z m 28.798828,0 a 2.6399986,2.6399986 0 0 0 -2.638672,2.63867 2.6399986,2.6399986 0 0 0 2.638672,2.64063 2.6399986,2.6399986 0 0 0 2.640625,-2.64063 2.6399986,2.6399986 0 0 0 -2.640625,-2.63867 z m 100.748044,2.35547 a 1.5118125,1.5118125 0 0 0 -1.51172,1.51172 1.5118125,1.5118125 0 0 0 1.51172,1.51172 1.5118125,1.5118125 0 0 0 1.51172,-1.51172 1.5118125,1.5118125 0 0 0 -1.51172,-1.51172 z m 9.59961,0 a 1.5118125,1.5118125 0 0 0 -1.51172,1.51172 1.5118125,1.5118125 0 0 0 1.51172,1.51172 1.5118125,1.5118125 0 0 0 1.51172,-1.51172 1.5118125,1.5118125 0 0 0 -1.51172,-1.51172 z m 73.20117,0 a 1.5118125,1.5118125 0 0 0 -1.51367,1.51172 1.5118125,1.5118125 0 0 0 1.51367,1.51172 1.5118125,1.5118125 0 0 0 1.51172,-1.51172 1.5118125,1.5118125 0 0 0 -1.51172,-1.51172 z m 9.59961,0 a 1.5118125,1.5118125 0 0 0 -1.51172,1.51172 1.5118125,1.5118125 0 0 0 1.51172,1.51172 1.5118125,1.5118125 0 0 0 1.51172,-1.51172 1.5118125,1.5118125 0 0 0 -1.51172,-1.51172 z m 9.59961,0 a 1.5118125,1.5118125 0 0 0 -1.51172,1.51172 1.5118125,1.5118125 0 0 0 1.51172,1.51172 1.5118125,1.5118125 0 0 0 1.51172,-1.51172 1.5118125,1.5118125 0 0 0 -1.51172,-1.51172 z m 28.80078,0 a 1.5118125,1.5118125 0 0 0 -1.51367,1.51172 1.5118125,1.5118125 0 0 0 1.51367,1.51172 1.5118125,1.5118125 0 0 0 1.51172,-1.51172 1.5118125,1.5118125 0 0 0 -1.51172,-1.51172 z m -101.86718,0.13281 a 1.5118125,1.5118125 0 0 0 -1.51172,1.51172 1.5118125,1.5118125 0 0 0 1.51172,1.51172 1.5118125,1.5118125 0 0 0 1.51171,-1.51172 1.5118125,1.5118125 0 0 0 -1.51171,-1.51172 z m 82.66601,0 a 1.5118125,1.5118125 0 0 0 -1.51172,1.51172 1.5118125,1.5118125 0 0 0 1.51172,1.51172 1.5118125,1.5118125 0 0 0 1.51172,-1.51172 1.5118125,1.5118125 0 0 0 -1.51172,-1.51172 z M 8.3457031,145.18359 a 2.7839987,2.7839987 0 0 0 -2.7851562,2.78321 2.7839987,2.7839987 0 0 0 2.7851562,2.7832 2.7839987,2.7839987 0 0 0 2.7832029,-2.7832 2.7839987,2.7839987 0 0 0 -2.7832029,-2.78321 z m 54.0527349,0.11719 a 2.6399986,2.6399986 0 0 0 -2.640626,2.63867 2.6399986,2.6399986 0 0 0 2.640626,2.64063 2.6399986,2.6399986 0 0 0 2.640624,-2.64063 2.6399986,2.6399986 0 0 0 -2.640624,-2.63867 z m 28.798828,0 a 2.6399986,2.6399986 0 0 0 -2.638672,2.63867 2.6399986,2.6399986 0 0 0 2.638672,2.64063 2.6399986,2.6399986 0 0 0 2.640625,-2.64063 2.6399986,2.6399986 0 0 0 -2.640625,-2.63867 z m 91.148434,0.0254 a 2.6399986,2.6399986 0 0 0 -2.64062,2.64063 2.6399986,2.6399986 0 0 0 2.64062,2.64062 2.6399986,2.6399986 0 0 0 2.63868,-2.64062 2.6399986,2.6399986 0 0 0 -2.63868,-2.64063 z m 9.59961,0 a 2.6399986,2.6399986 0 0 0 -2.64062,2.64063 2.6399986,2.6399986 0 0 0 2.64062,2.64062 2.6399986,2.6399986 0 0 0 2.64063,-2.64062 2.6399986,2.6399986 0 0 0 -2.64063,-2.64063 z m 9.59961,0 a 2.6399986,2.6399986 0 0 0 -2.64062,2.64063 2.6399986,2.6399986 0 0 0 2.64062,2.64062 2.6399986,2.6399986 0 0 0 2.64063,-2.64062 2.6399986,2.6399986 0 0 0 -2.64063,-2.64063 z m 9.59961,0 a 2.6399986,2.6399986 0 0 0 -2.63867,2.64063 2.6399986,2.6399986 0 0 0 2.63867,2.64062 2.6399986,2.6399986 0 0 0 2.64063,-2.64062 2.6399986,2.6399986 0 0 0 -2.64063,-2.64063 z m 9.60156,0 a 2.6399986,2.6399986 0 0 0 -2.64062,2.64063 2.6399986,2.6399986 0 0 0 2.64062,2.64062 2.6399986,2.6399986 0 0 0 2.63868,-2.64062 2.6399986,2.6399986 0 0 0 -2.63868,-2.64063 z m 9.59961,0 a 2.6399986,2.6399986 0 0 0 -2.64062,2.64063 2.6399986,2.6399986 0 0 0 2.64062,2.64062 2.6399986,2.6399986 0 0 0 2.63868,-2.64062 2.6399986,2.6399986 0 0 0 -2.63868,-2.64063 z m 9.59961,0 a 2.6399986,2.6399986 0 0 0 -2.64062,2.64063 2.6399986,2.6399986 0 0 0 2.64062,2.64062 2.6399986,2.6399986 0 0 0 2.64063,-2.64062 2.6399986,2.6399986 0 0 0 -2.64063,-2.64063 z m 25.19922,0 a 2.6399986,2.6399986 0 0 0 -2.63867,2.64063 2.6399986,2.6399986 0 0 0 2.63867,2.64062 2.6399986,2.6399986 0 0 0 2.64063,-2.64062 2.6399986,2.6399986 0 0 0 -2.64063,-2.64063 z m 9.60156,0 a 2.6399986,2.6399986 0 0 0 -2.64062,2.64063 2.6399986,2.6399986 0 0 0 2.64062,2.64062 2.6399986,2.6399986 0 0 0 2.63868,-2.64062 2.6399986,2.6399986 0 0 0 -2.63868,-2.64063 z m 9.59961,0 a 2.6399986,2.6399986 0 0 0 -2.64062,2.64063 2.6399986,2.6399986 0 0 0 2.64062,2.64062 2.6399986,2.6399986 0 0 0 2.63868,-2.64062 2.6399986,2.6399986 0 0 0 -2.63868,-2.64063 z m 9.59961,0 a 2.6399986,2.6399986 0 0 0 -2.64062,2.64063 2.6399986,2.6399986 0 0 0 2.64062,2.64062 2.6399986,2.6399986 0 0 0 2.64063,-2.64062 2.6399986,2.6399986 0 0 0 -2.64063,-2.64063 z m 9.59961,0 a 2.6399986,2.6399986 0 0 0 -2.64062,2.64063 2.6399986,2.6399986 0 0 0 2.64062,2.64062 2.6399986,2.6399986 0 0 0 2.64063,-2.64062 2.6399986,2.6399986 0 0 0 -2.64063,-2.64063 z m 9.59961,0 a 2.6399986,2.6399986 0 0 0 -2.63867,2.64063 2.6399986,2.6399986 0 0 0 2.63867,2.64062 2.6399986,2.6399986 0 0 0 2.64063,-2.64062 2.6399986,2.6399986 0 0 0 -2.64063,-2.64063 z m 9.60156,0 a 2.6399986,2.6399986 0 0 0 -2.64062,2.64063 2.6399986,2.6399986 0 0 0 2.64062,2.64062 2.6399986,2.6399986 0 0 0 2.63868,-2.64062 2.6399986,2.6399986 0 0 0 -2.63868,-2.64063 z m -67.20117,1.13086 a 1.5118125,1.5118125 0 0 0 -1.51172,1.51172 1.5118125,1.5118125 0 0 0 1.51172,1.51172 1.5118125,1.5118125 0 0 0 1.51172,-1.51172 1.5118125,1.5118125 0 0 0 -1.51172,-1.51172 z M 62.398438,154.9004 a 2.6399986,2.6399986 0 0 0 -2.640626,2.64063 2.6399986,2.6399986 0 0 0 2.640626,2.63867 2.6399986,2.6399986 0 0 0 2.640624,-2.63867 2.6399986,2.6399986 0 0 0 -2.640624,-2.64063 z m 28.798828,0 a 2.6399986,2.6399986 0 0 0 -2.638672,2.64063 2.6399986,2.6399986 0 0 0 2.638672,2.63867 2.6399986,2.6399986 0 0 0 2.640625,-2.63867 2.6399986,2.6399986 0 0 0 -2.640625,-2.64063 z m 28.748044,1.15625 a 1.5118125,1.5118125 0 0 0 -1.51172,1.51172 1.5118125,1.5118125 0 0 0 1.51172,1.51172 1.5118125,1.5118125 0 0 0 1.51172,-1.51172 1.5118125,1.5118125 0 0 0 -1.51172,-1.51172 z m 66,0 a 1.5118125,1.5118125 0 0 0 -1.51172,1.51172 1.5118125,1.5118125 0 0 0 1.51172,1.51172 1.5118125,1.5118125 0 0 0 1.51172,-1.51172 1.5118125,1.5118125 0 0 0 -1.51172,-1.51172 z m 146.40039,0 a 1.5118125,1.5118125 0 0 0 -1.51172,1.51172 1.5118125,1.5118125 0 0 0 1.51172,1.51172 1.5118125,1.5118125 0 0 0 1.51172,-1.51172 1.5118125,1.5118125 0 0 0 -1.51172,-1.51172 z m 67.19922,0 a 1.5118125,1.5118125 0 0 0 -1.51172,1.51172 1.5118125,1.5118125 0 0 0 1.51172,1.51172 1.5118125,1.5118125 0 0 0 1.51172,-1.51172 1.5118125,1.5118125 0 0 0 -1.51172,-1.51172 z m -64.79883,3.91016 a 2.3999988,2.3999988 0 0 0 -2.40039,2.40039 2.3999988,2.3999988 0 0 0 2.40039,2.40039 2.3999988,2.3999988 0 0 0 2.39844,-2.40039 2.3999988,2.3999988 0 0 0 -2.39844,-2.40039 z m -326.4003869,4.416 a 2.7839987,2.7839987 0 0 0 -2.7851562,2.78321 2.7839987,2.7839987 0 0 0 2.7851562,2.78515 2.7839987,2.7839987 0 0 0 2.7832029,-2.78515 2.7839987,2.7839987 0 0 0 -2.7832029,-2.78321 z M 87.544922,164.75 a 2.3999988,2.3999988 0 0 0 -2.400391,2.39844 2.3999988,2.3999988 0 0 0 2.400391,2.40039 2.3999988,2.3999988 0 0 0 2.40039,-2.40039 2.3999988,2.3999988 0 0 0 -2.40039,-2.39844 z m -15.59961,0.90625 a 1.5118125,1.5118125 0 0 0 -1.511718,1.51172 1.5118125,1.5118125 0 0 0 1.511718,1.51172 1.5118125,1.5118125 0 0 0 1.511719,-1.51172 1.5118125,1.5118125 0 0 0 -1.511719,-1.51172 z m 262.800778,3.92969 a 2.3999988,2.3999988 0 0 0 -2.40039,2.39844 2.3999988,2.3999988 0 0 0 2.40039,2.40039 2.3999988,2.3999988 0 0 0 2.39844,-2.40039 2.3999988,2.3999988 0 0 0 -2.39844,-2.39844 z M 8.3457031,173.98242 a 2.7839987,2.7839987 0 0 0 -2.7851562,2.7832 2.7839987,2.7839987 0 0 0 2.7851562,2.78516 2.7839987,2.7839987 0 0 0 2.7832029,-2.78516 2.7839987,2.7839987 0 0 0 -2.7832029,-2.7832 z m 15.3593749,0.14453 v 5.2793 h 5.279297 v -5.2793 z m 31.439453,0 a 2.6399986,2.6399986 0 0 0 -2.638672,2.63867 2.6399986,2.6399986 0 0 0 2.638672,2.64063 2.6399986,2.6399986 0 0 0 2.640625,-2.64063 2.6399986,2.6399986 0 0 0 -2.640625,-2.63867 z m 124.560549,0 v 5.2793 h 5.2793 v -5.2793 z m 12.24023,0 a 2.6399986,2.6399986 0 0 0 -2.64062,2.63867 2.6399986,2.6399986 0 0 0 2.64062,2.64063 2.6399986,2.6399986 0 0 0 2.64063,-2.64063 2.6399986,2.6399986 0 0 0 -2.64063,-2.63867 z m 9.59961,0 a 2.6399986,2.6399986 0 0 0 -2.64062,2.63867 2.6399986,2.6399986 0 0 0 2.64062,2.64063 2.6399986,2.6399986 0 0 0 2.64063,-2.64063 2.6399986,2.6399986 0 0 0 -2.64063,-2.63867 z m 9.59961,0 a 2.6399986,2.6399986 0 0 0 -2.63867,2.63867 2.6399986,2.6399986 0 0 0 2.63867,2.64063 2.6399986,2.6399986 0 0 0 2.64063,-2.64063 2.6399986,2.6399986 0 0 0 -2.64063,-2.63867 z m 9.60156,0 a 2.6399986,2.6399986 0 0 0 -2.64062,2.63867 2.6399986,2.6399986 0 0 0 2.64062,2.64063 2.6399986,2.6399986 0 0 0 2.63868,-2.64063 2.6399986,2.6399986 0 0 0 -2.63868,-2.63867 z m 9.59961,0 a 2.6399986,2.6399986 0 0 0 -2.64062,2.63867 2.6399986,2.6399986 0 0 0 2.64062,2.64063 2.6399986,2.6399986 0 0 0 2.63868,-2.64063 2.6399986,2.6399986 0 0 0 -2.63868,-2.63867 z m 9.59961,0 a 2.6399986,2.6399986 0 0 0 -2.64062,2.63867 2.6399986,2.6399986 0 0 0 2.64062,2.64063 2.6399986,2.6399986 0 0 0 2.64063,-2.64063 2.6399986,2.6399986 0 0 0 -2.64063,-2.63867 z m 22.56055,0 v 5.2793 h 5.2793 v -5.2793 z m 12.24023,0 a 2.6399986,2.6399986 0 0 0 -2.64062,2.63867 2.6399986,2.6399986 0 0 0 2.64062,2.64063 2.6399986,2.6399986 0 0 0 2.63868,-2.64063 2.6399986,2.6399986 0 0 0 -2.63868,-2.63867 z m 9.59961,0 a 2.6399986,2.6399986 0 0 0 -2.64062,2.63867 2.6399986,2.6399986 0 0 0 2.64062,2.64063 2.6399986,2.6399986 0 0 0 2.63868,-2.64063 2.6399986,2.6399986 0 0 0 -2.63868,-2.63867 z m 9.59961,0 a 2.6399986,2.6399986 0 0 0 -2.64062,2.63867 2.6399986,2.6399986 0 0 0 2.64062,2.64063 2.6399986,2.6399986 0 0 0 2.64063,-2.64063 2.6399986,2.6399986 0 0 0 -2.64063,-2.63867 z m 9.59961,0 a 2.6399986,2.6399986 0 0 0 -2.64062,2.63867 2.6399986,2.6399986 0 0 0 2.64062,2.64063 2.6399986,2.6399986 0 0 0 2.64063,-2.64063 2.6399986,2.6399986 0 0 0 -2.64063,-2.63867 z m 9.59961,0 a 2.6399986,2.6399986 0 0 0 -2.63867,2.63867 2.6399986,2.6399986 0 0 0 2.63867,2.64063 2.6399986,2.6399986 0 0 0 2.64063,-2.64063 2.6399986,2.6399986 0 0 0 -2.64063,-2.63867 z m 9.60156,0 a 2.6399986,2.6399986 0 0 0 -2.64062,2.63867 2.6399986,2.6399986 0 0 0 2.64062,2.64063 2.6399986,2.6399986 0 0 0 2.63868,-2.64063 2.6399986,2.6399986 0 0 0 -2.63868,-2.63867 z m -235.201168,0.24024 a 2.3999988,2.3999988 0 0 0 -2.400391,2.40039 2.3999988,2.3999988 0 0 0 2.400391,2.39844 2.3999988,2.3999988 0 0 0 2.40039,-2.39844 2.3999988,2.3999988 0 0 0 -2.40039,-2.40039 z m 160.800778,0.88867 a 1.5118125,1.5118125 0 0 0 -1.51172,1.51172 1.5118125,1.5118125 0 0 0 1.51172,1.51172 1.5118125,1.5118125 0 0 0 1.51172,-1.51172 1.5118125,1.5118125 0 0 0 -1.51172,-1.51172 z m 84,0 a 1.5118125,1.5118125 0 0 0 -1.51172,1.51172 1.5118125,1.5118125 0 0 0 1.51172,1.51172 1.5118125,1.5118125 0 0 0 1.51172,-1.51172 1.5118125,1.5118125 0 0 0 -1.51172,-1.51172 z m -197.86718,1.33398 a 1.5118125,1.5118125 0 0 0 -1.51172,1.51172 1.5118125,1.5118125 0 0 0 1.51172,1.51172 1.5118125,1.5118125 0 0 0 1.51171,-1.51172 1.5118125,1.5118125 0 0 0 -1.51171,-1.51172 z m -57.734379,1.06641 a 1.5118125,1.5118125 0 0 0 -1.511719,1.51172 1.5118125,1.5118125 0 0 0 1.511719,1.51172 1.5118125,1.5118125 0 0 0 1.511718,-1.51172 1.5118125,1.5118125 0 0 0 -1.511718,-1.51172 z m 188.400389,6 a 1.5118125,1.5118125 0 0 0 -1.51172,1.51172 1.5118125,1.5118125 0 0 0 1.51172,1.51172 1.5118125,1.5118125 0 0 0 1.51172,-1.51172 1.5118125,1.5118125 0 0 0 -1.51172,-1.51172 z m 9.60156,0 a 1.5118125,1.5118125 0 0 0 -1.51367,1.51172 1.5118125,1.5118125 0 0 0 1.51367,1.51172 1.5118125,1.5118125 0 0 0 1.51172,-1.51172 1.5118125,1.5118125 0 0 0 -1.51172,-1.51172 z m 19.19922,0 a 1.5118125,1.5118125 0 0 0 -1.51172,1.51172 1.5118125,1.5118125 0 0 0 1.51172,1.51172 1.5118125,1.5118125 0 0 0 1.51172,-1.51172 1.5118125,1.5118125 0 0 0 -1.51172,-1.51172 z m 9.59961,0 a 1.5118125,1.5118125 0 0 0 -1.51172,1.51172 1.5118125,1.5118125 0 0 0 1.51172,1.51172 1.5118125,1.5118125 0 0 0 1.51172,-1.51172 1.5118125,1.5118125 0 0 0 -1.51172,-1.51172 z m -277.199217,0.0703 a 2.6399986,2.6399986 0 0 0 -2.640625,2.64063 2.6399986,2.6399986 0 0 0 2.640625,2.63867 2.6399986,2.6399986 0 0 0 2.638672,-2.63867 2.6399986,2.6399986 0 0 0 -2.638672,-2.64063 z m 28.798828,0 a 2.6399986,2.6399986 0 0 0 -2.638672,2.64063 2.6399986,2.6399986 0 0 0 2.638672,2.63867 2.6399986,2.6399986 0 0 0 2.640625,-2.63867 2.6399986,2.6399986 0 0 0 -2.640625,-2.64063 z m 118.800779,1.12891 a 1.5118125,1.5118125 0 0 0 -1.51172,1.51172 1.5118125,1.5118125 0 0 0 1.51172,1.51172 1.5118125,1.5118125 0 0 0 1.51172,-1.51172 1.5118125,1.5118125 0 0 0 -1.51172,-1.51172 z m -14.40039,2.40039 a 1.5118125,1.5118125 0 0 0 -1.51172,1.51172 1.5118125,1.5118125 0 0 0 1.51172,1.51172 1.5118125,1.5118125 0 0 0 1.51172,-1.51172 1.5118125,1.5118125 0 0 0 -1.51172,-1.51172 z m -133.199217,6.07031 a 2.6399986,2.6399986 0 0 0 -2.640625,2.64063 2.6399986,2.6399986 0 0 0 2.640625,2.64062 2.6399986,2.6399986 0 0 0 2.638672,-2.64062 2.6399986,2.6399986 0 0 0 -2.638672,-2.64063 z m 28.798828,0 a 2.6399986,2.6399986 0 0 0 -2.638672,2.64063 2.6399986,2.6399986 0 0 0 2.638672,2.64062 2.6399986,2.6399986 0 0 0 2.640625,-2.64062 2.6399986,2.6399986 0 0 0 -2.640625,-2.64063 z m 169.201169,1.13086 a 1.5118125,1.5118125 0 0 0 -1.51172,1.51172 1.5118125,1.5118125 0 0 0 1.51172,1.51172 1.5118125,1.5118125 0 0 0 1.51172,-1.51172 1.5118125,1.5118125 0 0 0 -1.51172,-1.51172 z m 182.39844,7.19922 a 1.5118125,1.5118125 0 0 0 -1.51172,1.51172 1.5118125,1.5118125 0 0 0 1.51172,1.51172 1.5118125,1.5118125 0 0 0 1.51367,-1.51172 1.5118125,1.5118125 0 0 0 -1.51367,-1.51172 z M 8.3457031,202.7832 a 2.7839987,2.7839987 0 0 0 -2.7851562,2.78321 2.7839987,2.7839987 0 0 0 2.7851562,2.7832 2.7839987,2.7839987 0 0 0 2.7832029,-2.7832 2.7839987,2.7839987 0 0 0 -2.7832029,-2.78321 z m 17.9999999,0.14258 a 2.6399986,2.6399986 0 0 0 -2.640625,2.64063 2.6399986,2.6399986 0 0 0 2.640625,2.64062 2.6399986,2.6399986 0 0 0 2.638672,-2.64062 2.6399986,2.6399986 0 0 0 -2.638672,-2.64063 z m 28.798828,0 a 2.6399986,2.6399986 0 0 0 -2.638672,2.64063 2.6399986,2.6399986 0 0 0 2.638672,2.64062 2.6399986,2.6399986 0 0 0 2.640625,-2.64062 2.6399986,2.6399986 0 0 0 -2.640625,-2.64063 z m 146.400389,1.13086 a 1.5118125,1.5118125 0 0 0 -1.51172,1.51172 1.5118125,1.5118125 0 0 0 1.51172,1.51172 1.5118125,1.5118125 0 0 0 1.51172,-1.51172 1.5118125,1.5118125 0 0 0 -1.51172,-1.51172 z m 19.20117,0 a 1.5118125,1.5118125 0 0 0 -1.51367,1.51172 1.5118125,1.5118125 0 0 0 1.51367,1.51172 1.5118125,1.5118125 0 0 0 1.51172,-1.51172 1.5118125,1.5118125 0 0 0 -1.51172,-1.51172 z m -144.001949,2.4707 a 2.6399986,2.6399986 0 0 0 -2.638672,2.63868 2.6399986,2.6399986 0 0 0 2.638672,2.64062 2.6399986,2.6399986 0 0 0 2.640625,-2.64062 2.6399986,2.6399986 0 0 0 -2.640625,-2.63868 z m 9.601562,0 a 2.6399986,2.6399986 0 0 0 -2.640625,2.63868 2.6399986,2.6399986 0 0 0 2.640625,2.64062 2.6399986,2.6399986 0 0 0 2.638672,-2.64062 2.6399986,2.6399986 0 0 0 -2.638672,-2.63868 z m 9.599609,0 a 2.6399986,2.6399986 0 0 0 -2.640624,2.63868 2.6399986,2.6399986 0 0 0 2.640624,2.64062 2.6399986,2.6399986 0 0 0 2.638672,-2.64062 2.6399986,2.6399986 0 0 0 -2.638672,-2.63868 z m 9.599608,0 a 2.6399986,2.6399986 0 0 0 -2.64062,2.63868 2.6399986,2.6399986 0 0 0 2.64062,2.64062 2.6399986,2.6399986 0 0 0 2.64063,-2.64062 2.6399986,2.6399986 0 0 0 -2.64063,-2.63868 z m 9.59961,0 a 2.6399986,2.6399986 0 0 0 -2.64062,2.63868 2.6399986,2.6399986 0 0 0 2.64062,2.64062 2.6399986,2.6399986 0 0 0 2.64063,-2.64062 2.6399986,2.6399986 0 0 0 -2.64063,-2.63868 z m 9.59961,0 a 2.6399986,2.6399986 0 0 0 -2.63867,2.63868 2.6399986,2.6399986 0 0 0 2.63867,2.64062 2.6399986,2.6399986 0 0 0 2.64063,-2.64062 2.6399986,2.6399986 0 0 0 -2.64063,-2.63868 z m 9.60156,0 a 2.6399986,2.6399986 0 0 0 -2.64062,2.63868 2.6399986,2.6399986 0 0 0 2.64062,2.64062 2.6399986,2.6399986 0 0 0 2.63868,-2.64062 2.6399986,2.6399986 0 0 0 -2.63868,-2.63868 z m 57.59961,4.79883 a 2.6399986,2.6399986 0 0 0 -2.64062,2.64063 2.6399986,2.6399986 0 0 0 2.64062,2.64062 2.6399986,2.6399986 0 0 0 2.64063,-2.64062 2.6399986,2.6399986 0 0 0 -2.64063,-2.64063 z m 9.59961,0 a 2.6399986,2.6399986 0 0 0 -2.64062,2.64063 2.6399986,2.6399986 0 0 0 2.64062,2.64062 2.6399986,2.6399986 0 0 0 2.64063,-2.64062 2.6399986,2.6399986 0 0 0 -2.64063,-2.64063 z m 9.59961,0 a 2.6399986,2.6399986 0 0 0 -2.63867,2.64063 2.6399986,2.6399986 0 0 0 2.63867,2.64062 2.6399986,2.6399986 0 0 0 2.64063,-2.64062 2.6399986,2.6399986 0 0 0 -2.64063,-2.64063 z m 9.60156,0 a 2.6399986,2.6399986 0 0 0 -2.64062,2.64063 2.6399986,2.6399986 0 0 0 2.64062,2.64062 2.6399986,2.6399986 0 0 0 2.63868,-2.64062 2.6399986,2.6399986 0 0 0 -2.63868,-2.64063 z m 9.59961,0 a 2.6399986,2.6399986 0 0 0 -2.64062,2.64063 2.6399986,2.6399986 0 0 0 2.64062,2.64062 2.6399986,2.6399986 0 0 0 2.63868,-2.64062 2.6399986,2.6399986 0 0 0 -2.63868,-2.64063 z m 9.59961,0 a 2.6399986,2.6399986 0 0 0 -2.64062,2.64063 2.6399986,2.6399986 0 0 0 2.64062,2.64062 2.6399986,2.6399986 0 0 0 2.64063,-2.64062 2.6399986,2.6399986 0 0 0 -2.64063,-2.64063 z m 9.59961,0 a 2.6399986,2.6399986 0 0 0 -2.64062,2.64063 2.6399986,2.6399986 0 0 0 2.64062,2.64062 2.6399986,2.6399986 0 0 0 2.64063,-2.64062 2.6399986,2.6399986 0 0 0 -2.64063,-2.64063 z M 8.3457031,212.38281 a 2.7839987,2.7839987 0 0 0 -2.7851562,2.78321 2.7839987,2.7839987 0 0 0 2.7851562,2.78515 2.7839987,2.7839987 0 0 0 2.7832029,-2.78515 2.7839987,2.7839987 0 0 0 -2.7832029,-2.78321 z m 175.1992169,0.0723 a 1.5118125,1.5118125 0 0 0 -1.51172,1.51367 1.5118125,1.5118125 0 0 0 1.51172,1.51172 1.5118125,1.5118125 0 0 0 1.51172,-1.51172 1.5118125,1.5118125 0 0 0 -1.51172,-1.51367 z m -157.199217,0.0723 a 2.6399986,2.6399986 0 0 0 -2.640625,2.63868 2.6399986,2.6399986 0 0 0 2.640625,2.64062 2.6399986,2.6399986 0 0 0 2.638672,-2.64062 2.6399986,2.6399986 0 0 0 -2.638672,-2.63868 z m 28.798828,0 a 2.6399986,2.6399986 0 0 0 -2.638672,2.63868 2.6399986,2.6399986 0 0 0 2.638672,2.64062 2.6399986,2.6399986 0 0 0 2.640625,-2.64062 2.6399986,2.6399986 0 0 0 -2.640625,-2.63868 z m 211.333989,1.12891 a 1.5118125,1.5118125 0 0 0 -1.51172,1.51172 1.5118125,1.5118125 0 0 0 1.51172,1.51172 1.5118125,1.5118125 0 0 0 1.51171,-1.51172 1.5118125,1.5118125 0 0 0 -1.51171,-1.51172 z m -121.33399,2.40039 a 1.5118125,1.5118125 0 0 0 -1.51172,1.51172 1.5118125,1.5118125 0 0 0 1.51172,1.51172 1.5118125,1.5118125 0 0 0 1.51172,-1.51172 1.5118125,1.5118125 0 0 0 -1.51172,-1.51172 z m -118.798827,6.07031 a 2.6399986,2.6399986 0 0 0 -2.640625,2.63867 2.6399986,2.6399986 0 0 0 2.640625,2.64063 2.6399986,2.6399986 0 0 0 2.638672,-2.64063 2.6399986,2.6399986 0 0 0 -2.638672,-2.63867 z m 28.798828,0 a 2.6399986,2.6399986 0 0 0 -2.638672,2.63867 2.6399986,2.6399986 0 0 0 2.638672,2.64063 2.6399986,2.6399986 0 0 0 2.640625,-2.64063 2.6399986,2.6399986 0 0 0 -2.640625,-2.63867 z m 320.382809,0.24024 a 2.3999988,2.3999988 0 0 0 -2.40039,2.39843 2.3999988,2.3999988 0 0 0 2.40039,2.4004 2.3999988,2.3999988 0 0 0 2.39844,-2.4004 2.3999988,2.3999988 0 0 0 -2.39844,-2.39843 z m 9.61719,0 a 2.3999988,2.3999988 0 0 0 -2.40039,2.39843 2.3999988,2.3999988 0 0 0 2.40039,2.4004 2.3999988,2.3999988 0 0 0 2.40039,-2.4004 2.3999988,2.3999988 0 0 0 -2.40039,-2.39843 z m -358.798827,9.35937 a 2.6399986,2.6399986 0 0 0 -2.640625,2.64063 2.6399986,2.6399986 0 0 0 2.640625,2.63867 2.6399986,2.6399986 0 0 0 2.638672,-2.63867 2.6399986,2.6399986 0 0 0 -2.638672,-2.64063 z m 28.798828,0 a 2.6399986,2.6399986 0 0 0 -2.638672,2.64063 2.6399986,2.6399986 0 0 0 2.638672,2.63867 2.6399986,2.6399986 0 0 0 2.640625,-2.63867 2.6399986,2.6399986 0 0 0 -2.640625,-2.64063 z m 127.201169,1.12891 a 1.5118125,1.5118125 0 0 0 -1.51172,1.51172 1.5118125,1.5118125 0 0 0 1.51172,1.51172 1.5118125,1.5118125 0 0 0 1.51172,-1.51172 1.5118125,1.5118125 0 0 0 -1.51172,-1.51172 z m -108.240231,2.4707 v 5.28125 h 5.279297 v -5.28125 z m 12.240234,0 a 2.6399986,2.6399986 0 0 0 -2.640625,2.64063 2.6399986,2.6399986 0 0 0 2.640625,2.64062 2.6399986,2.6399986 0 0 0 2.638672,-2.64062 2.6399986,2.6399986 0 0 0 -2.638672,-2.64063 z m 9.599609,0 a 2.6399986,2.6399986 0 0 0 -2.640624,2.64063 2.6399986,2.6399986 0 0 0 2.640624,2.64062 2.6399986,2.6399986 0 0 0 2.638672,-2.64062 2.6399986,2.6399986 0 0 0 -2.638672,-2.64063 z m 9.599608,0 a 2.6399986,2.6399986 0 0 0 -2.64062,2.64063 2.6399986,2.6399986 0 0 0 2.64062,2.64062 2.6399986,2.6399986 0 0 0 2.64063,-2.64062 2.6399986,2.6399986 0 0 0 -2.64063,-2.64063 z m 9.59961,0 a 2.6399986,2.6399986 0 0 0 -2.64062,2.64063 2.6399986,2.6399986 0 0 0 2.64062,2.64062 2.6399986,2.6399986 0 0 0 2.64063,-2.64062 2.6399986,2.6399986 0 0 0 -2.64063,-2.64063 z m 9.59961,0 a 2.6399986,2.6399986 0 0 0 -2.63867,2.64063 2.6399986,2.6399986 0 0 0 2.63867,2.64062 2.6399986,2.6399986 0 0 0 2.64063,-2.64062 2.6399986,2.6399986 0 0 0 -2.64063,-2.64063 z m 9.60156,0 a 2.6399986,2.6399986 0 0 0 -2.64062,2.64063 2.6399986,2.6399986 0 0 0 2.64062,2.64062 2.6399986,2.6399986 0 0 0 2.63868,-2.64062 2.6399986,2.6399986 0 0 0 -2.63868,-2.64063 z m 8.40039,1.12891 a 1.5118125,1.5118125 0 0 0 -1.51171,1.51172 1.5118125,1.5118125 0 0 0 1.51171,1.51172 1.5118125,1.5118125 0 0 0 1.51172,-1.51172 1.5118125,1.5118125 0 0 0 -1.51172,-1.51172 z m 235.1543,1.17187 a 2.7839987,2.7839987 0 0 0 -2.7832,2.78321 2.7839987,2.7839987 0 0 0 2.7832,2.78515 2.7839987,2.7839987 0 0 0 2.78516,-2.78515 2.7839987,2.7839987 0 0 0 -2.78516,-2.78321 z m 7.24414,1.36133 a 1.5118125,1.5118125 0 0 0 -1.51172,1.51172 1.5118125,1.5118125 0 0 0 1.51172,1.51172 1.5118125,1.5118125 0 0 0 1.51172,-1.51172 1.5118125,1.5118125 0 0 0 -1.51172,-1.51172 z m -195.83984,1.13867 v 5.2793 h 5.28125 v -5.2793 z m 12.24023,0 a 2.6399986,2.6399986 0 0 0 -2.64062,2.63867 2.6399986,2.6399986 0 0 0 2.64062,2.64063 2.6399986,2.6399986 0 0 0 2.64063,-2.64063 2.6399986,2.6399986 0 0 0 -2.64063,-2.63867 z m 9.59961,0 a 2.6399986,2.6399986 0 0 0 -2.63867,2.63867 2.6399986,2.6399986 0 0 0 2.63867,2.64063 2.6399986,2.6399986 0 0 0 2.64063,-2.64063 2.6399986,2.6399986 0 0 0 -2.64063,-2.63867 z m 9.60156,0 a 2.6399986,2.6399986 0 0 0 -2.64062,2.63867 2.6399986,2.6399986 0 0 0 2.64062,2.64063 2.6399986,2.6399986 0 0 0 2.63868,-2.64063 2.6399986,2.6399986 0 0 0 -2.63868,-2.63867 z m 9.59961,0 a 2.6399986,2.6399986 0 0 0 -2.64062,2.63867 2.6399986,2.6399986 0 0 0 2.64062,2.64063 2.6399986,2.6399986 0 0 0 2.63868,-2.64063 2.6399986,2.6399986 0 0 0 -2.63868,-2.63867 z m 9.59961,0 a 2.6399986,2.6399986 0 0 0 -2.64062,2.63867 2.6399986,2.6399986 0 0 0 2.64062,2.64063 2.6399986,2.6399986 0 0 0 2.64063,-2.64063 2.6399986,2.6399986 0 0 0 -2.64063,-2.63867 z m 9.59961,0 a 2.6399986,2.6399986 0 0 0 -2.64062,2.63867 2.6399986,2.6399986 0 0 0 2.64062,2.64063 2.6399986,2.6399986 0 0 0 2.64063,-2.64063 2.6399986,2.6399986 0 0 0 -2.64063,-2.63867 z m -223.199217,1.12696 a 1.5118125,1.5118125 0 0 0 -1.511719,1.51171 1.5118125,1.5118125 0 0 0 1.511719,1.51368 1.5118125,1.5118125 0 0 0 1.511719,-1.51368 1.5118125,1.5118125 0 0 0 -1.511719,-1.51171 z m 88.798827,3.60156 a 1.5118125,1.5118125 0 0 0 -1.51172,1.51172 1.5118125,1.5118125 0 0 0 1.51172,1.51172 1.5118125,1.5118125 0 0 0 1.51172,-1.51172 1.5118125,1.5118125 0 0 0 -1.51172,-1.51172 z m 198,0 a 1.5118125,1.5118125 0 0 0 -1.51172,1.51172 1.5118125,1.5118125 0 0 0 1.51172,1.51172 1.5118125,1.5118125 0 0 0 1.51172,-1.51172 1.5118125,1.5118125 0 0 0 -1.51172,-1.51172 z m 9.60156,0 a 1.5118125,1.5118125 0 0 0 -1.51367,1.51172 1.5118125,1.5118125 0 0 0 1.51367,1.51172 1.5118125,1.5118125 0 0 0 1.51172,-1.51172 1.5118125,1.5118125 0 0 0 -1.51172,-1.51172 z m 9.59961,0 a 1.5118125,1.5118125 0 0 0 -1.51172,1.51172 1.5118125,1.5118125 0 0 0 1.51172,1.51172 1.5118125,1.5118125 0 0 0 1.51172,-1.51172 1.5118125,1.5118125 0 0 0 -1.51172,-1.51172 z m 9.59961,0 a 1.5118125,1.5118125 0 0 0 -1.51172,1.51172 1.5118125,1.5118125 0 0 0 1.51172,1.51172 1.5118125,1.5118125 0 0 0 1.51172,-1.51172 1.5118125,1.5118125 0 0 0 -1.51172,-1.51172 z m 35.95508,2.37109 a 2.7839987,2.7839987 0 0 0 -2.7832,2.78321 2.7839987,2.7839987 0 0 0 2.7832,2.78515 2.7839987,2.7839987 0 0 0 2.78516,-2.78515 2.7839987,2.7839987 0 0 0 -2.78516,-2.78321 z m -7.1543,1.36133 a 1.5118125,1.5118125 0 0 0 -1.51367,1.51172 1.5118125,1.5118125 0 0 0 1.51367,1.51172 1.5118125,1.5118125 0 0 0 1.51172,-1.51172 1.5118125,1.5118125 0 0 0 -1.51172,-1.51172 z m -121.20117,1.06641 a 1.5118125,1.5118125 0 0 0 -1.51172,1.51172 1.5118125,1.5118125 0 0 0 1.51172,1.51171 1.5118125,1.5118125 0 0 0 1.51172,-1.51171 1.5118125,1.5118125 0 0 0 -1.51172,-1.51172 z M 8.3457031,250.7832 a 2.7839987,2.7839987 0 0 0 -2.7851562,2.78321 2.7839987,2.7839987 0 0 0 2.7851562,2.7832 2.7839987,2.7839987 0 0 0 2.7832029,-2.7832 2.7839987,2.7839987 0 0 0 -2.7832029,-2.78321 z m 7.1992189,1.27149 a 1.5118125,1.5118125 0 0 0 -1.511719,1.51172 1.5118125,1.5118125 0 0 0 1.511719,1.51171 1.5118125,1.5118125 0 0 0 1.511719,-1.51171 1.5118125,1.5118125 0 0 0 -1.511719,-1.51172 z m 176.400388,4.80078 a 1.5118125,1.5118125 0 0 0 -1.51172,1.51172 1.5118125,1.5118125 0 0 0 1.51172,1.51172 1.5118125,1.5118125 0 0 0 1.51172,-1.51172 1.5118125,1.5118125 0 0 0 -1.51172,-1.51172 z m 82.80078,0 a 1.5118125,1.5118125 0 0 0 -1.51367,1.51172 1.5118125,1.5118125 0 0 0 1.51367,1.51172 1.5118125,1.5118125 0 0 0 1.51172,-1.51172 1.5118125,1.5118125 0 0 0 -1.51172,-1.51172 z m -225.601559,2.39844 a 1.5118125,1.5118125 0 0 0 -1.511719,1.51171 1.5118125,1.5118125 0 0 0 1.511719,1.51368 1.5118125,1.5118125 0 0 0 1.511719,-1.51368 1.5118125,1.5118125 0 0 0 -1.511719,-1.51171 z m -40.7988279,1.1289 a 2.7839987,2.7839987 0 0 0 -2.7851562,2.78321 2.7839987,2.7839987 0 0 0 2.7851562,2.78515 2.7839987,2.7839987 0 0 0 2.7832029,-2.78515 2.7839987,2.7839987 0 0 0 -2.7832029,-2.78321 z m 212.4003869,3.67188 a 1.5118125,1.5118125 0 0 0 -1.51367,1.51172 1.5118125,1.5118125 0 0 0 1.51367,1.51171 1.5118125,1.5118125 0 0 0 1.51172,-1.51171 1.5118125,1.5118125 0 0 0 -1.51172,-1.51172 z m -122.267574,1.33398 a 1.5118125,1.5118125 0 0 0 -1.511719,1.51172 1.5118125,1.5118125 0 0 0 1.511719,1.51172 1.5118125,1.5118125 0 0 0 1.511718,-1.51172 1.5118125,1.5118125 0 0 0 -1.511718,-1.51172 z m 52.667964,0.50781 a 5.6692901,5.6692901 0 0 0 -5.66992,5.66993 5.6692901,5.6692901 0 0 0 5.66992,5.66992 5.6692901,5.6692901 0 0 0 5.66993,-5.66992 5.6692901,5.6692901 0 0 0 -5.66993,-5.66993 z m 243.59766,0 a 5.6692901,5.6692901 0 0 0 -5.66797,5.66993 5.6692901,5.6692901 0 0 0 5.66797,5.66992 5.6692901,5.6692901 0 0 0 5.66992,-5.66992 5.6692901,5.6692901 0 0 0 -5.66992,-5.66993 z M 8.3457031,269.98242 a 2.7839987,2.7839987 0 0 0 -2.7851562,2.7832 2.7839987,2.7839987 0 0 0 2.7851562,2.78516 2.7839987,2.7839987 0 0 0 2.7832029,-2.78516 2.7839987,2.7839987 0 0 0 -2.7832029,-2.7832 z m 160.7988269,0.0723 a 1.5118125,1.5118125 0 0 0 -1.51172,1.51172 1.5118125,1.5118125 0 0 0 1.51172,1.51171 1.5118125,1.5118125 0 0 0 1.51172,-1.51171 1.5118125,1.5118125 0 0 0 -1.51172,-1.51172 z m -44.40039,2.40039 a 1.5118125,1.5118125 0 0 0 -1.51172,1.51172 1.5118125,1.5118125 0 0 0 1.51172,1.51172 1.5118125,1.5118125 0 0 0 1.51172,-1.51172 1.5118125,1.5118125 0 0 0 -1.51172,-1.51172 z m 88.80078,0 a 1.5118125,1.5118125 0 0 0 -1.51172,1.51172 1.5118125,1.5118125 0 0 0 1.51172,1.51172 1.5118125,1.5118125 0 0 0 1.51172,-1.51172 1.5118125,1.5118125 0 0 0 -1.51172,-1.51172 z m -33.4668,0.13281 a 1.5118125,1.5118125 0 0 0 -1.51171,1.51172 1.5118125,1.5118125 0 0 0 1.51171,1.51172 1.5118125,1.5118125 0 0 0 1.51172,-1.51172 1.5118125,1.5118125 0 0 0 -1.51172,-1.51172 z m -74.26562,0.13281 a 1.5118125,1.5118125 0 0 0 -1.51367,1.51172 1.5118125,1.5118125 0 0 0 1.51367,1.51172 1.5118125,1.5118125 0 0 0 1.51172,-1.51172 1.5118125,1.5118125 0 0 0 -1.51172,-1.51172 z m -29.068359,0.9336 a 1.5118125,1.5118125 0 0 0 -1.511719,1.51172 1.5118125,1.5118125 0 0 0 1.511719,1.51171 1.5118125,1.5118125 0 0 0 1.511718,-1.51171 1.5118125,1.5118125 0 0 0 -1.511718,-1.51172 z m -19.199219,4.87304 a 2.6399986,2.6399986 0 0 0 -2.640625,2.63868 2.6399986,2.6399986 0 0 0 2.640625,2.64062 2.6399986,2.6399986 0 0 0 2.640625,-2.64062 2.6399986,2.6399986 0 0 0 -2.640625,-2.63868 z m 9.599609,0 a 2.6399986,2.6399986 0 0 0 -2.638672,2.63868 2.6399986,2.6399986 0 0 0 2.638672,2.64062 2.6399986,2.6399986 0 0 0 2.640625,-2.64062 2.6399986,2.6399986 0 0 0 -2.640625,-2.63868 z m 9.59961,0 a 2.6399986,2.6399986 0 0 0 -2.638672,2.63868 2.6399986,2.6399986 0 0 0 2.638672,2.64062 2.6399986,2.6399986 0 0 0 2.640625,-2.64062 2.6399986,2.6399986 0 0 0 -2.640625,-2.63868 z m 9.601562,0 a 2.6399986,2.6399986 0 0 0 -2.640625,2.63868 2.6399986,2.6399986 0 0 0 2.640625,2.64062 2.6399986,2.6399986 0 0 0 2.638672,-2.64062 2.6399986,2.6399986 0 0 0 -2.638672,-2.63868 z m 9.599609,0 a 2.6399986,2.6399986 0 0 0 -2.640624,2.63868 2.6399986,2.6399986 0 0 0 2.640624,2.64062 2.6399986,2.6399986 0 0 0 2.638672,-2.64062 2.6399986,2.6399986 0 0 0 -2.638672,-2.63868 z m 9.599608,0 a 2.6399986,2.6399986 0 0 0 -2.64062,2.63868 2.6399986,2.6399986 0 0 0 2.64062,2.64062 2.6399986,2.6399986 0 0 0 2.64063,-2.64062 2.6399986,2.6399986 0 0 0 -2.64063,-2.63868 z m 9.59961,0 a 2.6399986,2.6399986 0 0 0 -2.64062,2.63868 2.6399986,2.6399986 0 0 0 2.64062,2.64062 2.6399986,2.6399986 0 0 0 2.64063,-2.64062 2.6399986,2.6399986 0 0 0 -2.64063,-2.63868 z M 8.3457031,279.58203 a 2.7839987,2.7839987 0 0 0 -2.7851562,2.78516 2.7839987,2.7839987 0 0 0 2.7851562,2.7832 2.7839987,2.7839987 0 0 0 2.7832029,-2.7832 2.7839987,2.7839987 0 0 0 -2.7832029,-2.78516 z m 237.5546869,1.24414 a 2.7839987,2.7839987 0 0 0 -2.7832,2.78516 2.7839987,2.7839987 0 0 0 2.7832,2.7832 2.7839987,2.7839987 0 0 0 2.78516,-2.7832 2.7839987,2.7839987 0 0 0 -2.78516,-2.78516 z m 9.60156,0 a 2.7839987,2.7839987 0 0 0 -2.78515,2.78516 2.7839987,2.7839987 0 0 0 2.78515,2.7832 2.7839987,2.7839987 0 0 0 2.78321,-2.7832 2.7839987,2.7839987 0 0 0 -2.78321,-2.78516 z m 19.19922,0 a 2.7839987,2.7839987 0 0 0 -2.7832,2.78516 2.7839987,2.7839987 0 0 0 2.7832,2.7832 2.7839987,2.7839987 0 0 0 2.78321,-2.7832 2.7839987,2.7839987 0 0 0 -2.78321,-2.78516 z m 9.59961,0 a 2.7839987,2.7839987 0 0 0 -2.7832,2.78516 2.7839987,2.7839987 0 0 0 2.7832,2.7832 2.7839987,2.7839987 0 0 0 2.78516,-2.7832 2.7839987,2.7839987 0 0 0 -2.78516,-2.78516 z m 9.59961,0 a 2.7839987,2.7839987 0 0 0 -2.7832,2.78516 2.7839987,2.7839987 0 0 0 2.7832,2.7832 2.7839987,2.7839987 0 0 0 2.78516,-2.7832 2.7839987,2.7839987 0 0 0 -2.78516,-2.78516 z m 9.60156,0 a 2.7839987,2.7839987 0 0 0 -2.78515,2.78516 2.7839987,2.7839987 0 0 0 2.78515,2.7832 2.7839987,2.7839987 0 0 0 2.78321,-2.7832 2.7839987,2.7839987 0 0 0 -2.78321,-2.78516 z m 9.59961,0 a 2.7839987,2.7839987 0 0 0 -2.78515,2.78516 2.7839987,2.7839987 0 0 0 2.78515,2.7832 2.7839987,2.7839987 0 0 0 2.78321,-2.7832 2.7839987,2.7839987 0 0 0 -2.78321,-2.78516 z m 9.59961,0 a 2.7839987,2.7839987 0 0 0 -2.7832,2.78516 2.7839987,2.7839987 0 0 0 2.7832,2.7832 2.7839987,2.7839987 0 0 0 2.78321,-2.7832 2.7839987,2.7839987 0 0 0 -2.78321,-2.78516 z m 9.59961,0 a 2.7839987,2.7839987 0 0 0 -2.7832,2.78516 2.7839987,2.7839987 0 0 0 2.7832,2.7832 2.7839987,2.7839987 0 0 0 2.78516,-2.7832 2.7839987,2.7839987 0 0 0 -2.78516,-2.78516 z m 9.59961,0 a 2.7839987,2.7839987 0 0 0 -2.7832,2.78516 2.7839987,2.7839987 0 0 0 2.7832,2.7832 2.7839987,2.7839987 0 0 0 2.78516,-2.7832 2.7839987,2.7839987 0 0 0 -2.78516,-2.78516 z m 19.20117,0 a 2.7839987,2.7839987 0 0 0 -2.78515,2.78516 2.7839987,2.7839987 0 0 0 2.78515,2.7832 2.7839987,2.7839987 0 0 0 2.78321,-2.7832 2.7839987,2.7839987 0 0 0 -2.78321,-2.78516 z m 9.59961,0 a 2.7839987,2.7839987 0 0 0 -2.7832,2.78516 2.7839987,2.7839987 0 0 0 2.7832,2.7832 2.7839987,2.7839987 0 0 0 2.78321,-2.7832 2.7839987,2.7839987 0 0 0 -2.78321,-2.78516 z m 9.59961,0 a 2.7839987,2.7839987 0 0 0 -2.7832,2.78516 2.7839987,2.7839987 0 0 0 2.7832,2.7832 2.7839987,2.7839987 0 0 0 2.78516,-2.7832 2.7839987,2.7839987 0 0 0 -2.78516,-2.78516 z m -364.755858,0.0293 a 1.5118125,1.5118125 0 0 0 -1.511719,1.51172 1.5118125,1.5118125 0 0 0 1.511719,1.51172 1.5118125,1.5118125 0 0 0 1.511719,-1.51172 1.5118125,1.5118125 0 0 0 -1.511719,-1.51172 z m 8.40039,9.59961 a 1.5118125,1.5118125 0 0 0 -1.511718,1.51172 1.5118125,1.5118125 0 0 0 1.511718,1.51172 1.5118125,1.5118125 0 0 0 1.511719,-1.51172 1.5118125,1.5118125 0 0 0 -1.511719,-1.51172 z m 24,2.40039 a 1.5118125,1.5118125 0 0 0 -1.511718,1.51172 1.5118125,1.5118125 0 0 0 1.511718,1.51172 1.5118125,1.5118125 0 0 0 1.511719,-1.51172 1.5118125,1.5118125 0 0 0 -1.511719,-1.51172 z m 220.800778,2.39844 a 1.5118125,1.5118125 0 0 0 -1.51367,1.51171 1.5118125,1.5118125 0 0 0 1.51367,1.51368 1.5118125,1.5118125 0 0 0 1.51172,-1.51368 1.5118125,1.5118125 0 0 0 -1.51172,-1.51171 z m -86.40039,3.60156 a 1.5118125,1.5118125 0 0 0 -1.51172,1.51172 1.5118125,1.5118125 0 0 0 1.51172,1.51172 1.5118125,1.5118125 0 0 0 1.51172,-1.51172 1.5118125,1.5118125 0 0 0 -1.51172,-1.51172 z m 9.59961,0 a 1.5118125,1.5118125 0 0 0 -1.51172,1.51172 1.5118125,1.5118125 0 0 0 1.51172,1.51172 1.5118125,1.5118125 0 0 0 1.51172,-1.51172 1.5118125,1.5118125 0 0 0 -1.51172,-1.51172 z m -160.800779,1.19922 a 1.5118125,1.5118125 0 0 0 -1.511719,1.51172 1.5118125,1.5118125 0 0 0 1.511719,1.51171 1.5118125,1.5118125 0 0 0 1.511719,-1.51171 1.5118125,1.5118125 0 0 0 -1.511719,-1.51172 z m 45.59961,0 a 1.5118125,1.5118125 0 0 0 -1.511719,1.51172 1.5118125,1.5118125 0 0 0 1.511719,1.51171 1.5118125,1.5118125 0 0 0 1.511718,-1.51171 1.5118125,1.5118125 0 0 0 -1.511718,-1.51172 z m 85.201169,0 a 1.5118125,1.5118125 0 0 0 -1.51172,1.51172 1.5118125,1.5118125 0 0 0 1.51172,1.51171 1.5118125,1.5118125 0 0 0 1.51172,-1.51171 1.5118125,1.5118125 0 0 0 -1.51172,-1.51172 z m 10.80078,4.87109 a 2.6399986,2.6399986 0 0 0 -2.64062,2.64063 2.6399986,2.6399986 0 0 0 2.64062,2.64062 2.6399986,2.6399986 0 0 0 2.63868,-2.64062 2.6399986,2.6399986 0 0 0 -2.63868,-2.64063 z m 9.59961,0 a 2.6399986,2.6399986 0 0 0 -2.64062,2.64063 2.6399986,2.6399986 0 0 0 2.64062,2.64062 2.6399986,2.6399986 0 0 0 2.63868,-2.64062 2.6399986,2.6399986 0 0 0 -2.63868,-2.64063 z m 9.59961,0 a 2.6399986,2.6399986 0 0 0 -2.64062,2.64063 2.6399986,2.6399986 0 0 0 2.64062,2.64062 2.6399986,2.6399986 0 0 0 2.64063,-2.64062 2.6399986,2.6399986 0 0 0 -2.64063,-2.64063 z m 9.59961,0 a 2.6399986,2.6399986 0 0 0 -2.64062,2.64063 2.6399986,2.6399986 0 0 0 2.64062,2.64062 2.6399986,2.6399986 0 0 0 2.64063,-2.64062 2.6399986,2.6399986 0 0 0 -2.64063,-2.64063 z m 9.59961,0 a 2.6399986,2.6399986 0 0 0 -2.63867,2.64063 2.6399986,2.6399986 0 0 0 2.63867,2.64062 2.6399986,2.6399986 0 0 0 2.64063,-2.64062 2.6399986,2.6399986 0 0 0 -2.64063,-2.64063 z m 9.60156,0 a 2.6399986,2.6399986 0 0 0 -2.64062,2.64063 2.6399986,2.6399986 0 0 0 2.64062,2.64062 2.6399986,2.6399986 0 0 0 2.63868,-2.64062 2.6399986,2.6399986 0 0 0 -2.63868,-2.64063 z m 9.59961,0 a 2.6399986,2.6399986 0 0 0 -2.64062,2.64063 2.6399986,2.6399986 0 0 0 2.64062,2.64062 2.6399986,2.6399986 0 0 0 2.63868,-2.64062 2.6399986,2.6399986 0 0 0 -2.63868,-2.64063 z m -175.441403,2.40039 v 5.28125 h 5.28125 v -5.28125 z m 12.240234,0 a 2.6399986,2.6399986 0 0 0 -2.638672,2.64063 2.6399986,2.6399986 0 0 0 2.638672,2.64062 2.6399986,2.6399986 0 0 0 2.640625,-2.64062 2.6399986,2.6399986 0 0 0 -2.640625,-2.64063 z m 9.59961,0 a 2.6399986,2.6399986 0 0 0 -2.638672,2.64063 2.6399986,2.6399986 0 0 0 2.638672,2.64062 2.6399986,2.6399986 0 0 0 2.640625,-2.64062 2.6399986,2.6399986 0 0 0 -2.640625,-2.64063 z m 9.601562,0 a 2.6399986,2.6399986 0 0 0 -2.640625,2.64063 2.6399986,2.6399986 0 0 0 2.640625,2.64062 2.6399986,2.6399986 0 0 0 2.638672,-2.64062 2.6399986,2.6399986 0 0 0 -2.638672,-2.64063 z m 9.599609,0 a 2.6399986,2.6399986 0 0 0 -2.640624,2.64063 2.6399986,2.6399986 0 0 0 2.640624,2.64062 2.6399986,2.6399986 0 0 0 2.638672,-2.64062 2.6399986,2.6399986 0 0 0 -2.638672,-2.64063 z m 9.599608,0 a 2.6399986,2.6399986 0 0 0 -2.64062,2.64063 2.6399986,2.6399986 0 0 0 2.64062,2.64062 2.6399986,2.6399986 0 0 0 2.64063,-2.64062 2.6399986,2.6399986 0 0 0 -2.64063,-2.64063 z m 9.59961,0 a 2.6399986,2.6399986 0 0 0 -2.64062,2.64063 2.6399986,2.6399986 0 0 0 2.64062,2.64062 2.6399986,2.6399986 0 0 0 2.64063,-2.64062 2.6399986,2.6399986 0 0 0 -2.64063,-2.64063 z m 38.5332,4.72852 a 1.5118125,1.5118125 0 0 0 -1.51171,1.51172 1.5118125,1.5118125 0 0 0 1.51171,1.51171 1.5118125,1.5118125 0 0 0 1.51172,-1.51171 1.5118125,1.5118125 0 0 0 -1.51172,-1.51172 z m 92.26758,0 a 1.5118125,1.5118125 0 0 0 -1.51172,1.51172 1.5118125,1.5118125 0 0 0 1.51172,1.51171 1.5118125,1.5118125 0 0 0 1.51172,-1.51171 1.5118125,1.5118125 0 0 0 -1.51172,-1.51172 z m -25.19922,2.5332 a 1.5118125,1.5118125 0 0 0 -1.51367,1.51172 1.5118125,1.5118125 0 0 0 1.51367,1.51172 1.5118125,1.5118125 0 0 0 1.51172,-1.51172 1.5118125,1.5118125 0 0 0 -1.51172,-1.51172 z M 57.544922,315.6543 a 1.5118125,1.5118125 0 0 0 -1.511719,1.51172 1.5118125,1.5118125 0 0 0 1.511719,1.51171 1.5118125,1.5118125 0 0 0 1.511719,-1.51171 1.5118125,1.5118125 0 0 0 -1.511719,-1.51172 z m 28.800781,0 a 1.5118125,1.5118125 0 0 0 -1.511719,1.51172 1.5118125,1.5118125 0 0 0 1.511719,1.51171 1.5118125,1.5118125 0 0 0 1.511719,-1.51171 1.5118125,1.5118125 0 0 0 -1.511719,-1.51172 z m 9.599609,0 a 1.5118125,1.5118125 0 0 0 -1.511718,1.51172 1.5118125,1.5118125 0 0 0 1.511718,1.51171 1.5118125,1.5118125 0 0 0 1.511719,-1.51171 1.5118125,1.5118125 0 0 0 -1.511719,-1.51172 z m -87.5996089,2.32812 a 2.7839987,2.7839987 0 0 0 -2.7851562,2.7832 2.7839987,2.7839987 0 0 0 2.7851562,2.78516 2.7839987,2.7839987 0 0 0 2.7832029,-2.78516 2.7839987,2.7839987 0 0 0 -2.7832029,-2.7832 z m 183.5996069,1.27149 a 1.5118125,1.5118125 0 0 0 -1.51172,1.51171 1.5118125,1.5118125 0 0 0 1.51172,1.51172 1.5118125,1.5118125 0 0 0 1.51172,-1.51172 1.5118125,1.5118125 0 0 0 -1.51172,-1.51171 z m 64.9336,4.80078 a 1.5118125,1.5118125 0 0 0 -1.51172,1.51172 1.5118125,1.5118125 0 0 0 1.51172,1.51171 1.5118125,1.5118125 0 0 0 1.51171,-1.51171 1.5118125,1.5118125 0 0 0 -1.51171,-1.51172 z M 8.3457031,327.58203 a 2.7839987,2.7839987 0 0 0 -2.7851562,2.78516 2.7839987,2.7839987 0 0 0 2.7851562,2.7832 2.7839987,2.7839987 0 0 0 2.7832029,-2.7832 2.7839987,2.7839987 0 0 0 -2.7832029,-2.78516 z M 299.94531,333.6543 a 1.5118125,1.5118125 0 0 0 -1.51172,1.51172 1.5118125,1.5118125 0 0 0 1.51172,1.51171 1.5118125,1.5118125 0 0 0 1.51172,-1.51171 1.5118125,1.5118125 0 0 0 -1.51172,-1.51172 z m -129.83984,0.0723 v 5.2793 h 5.2793 v -5.2793 z m 12.24023,0 a 2.6399986,2.6399986 0 0 0 -2.64062,2.64063 2.6399986,2.6399986 0 0 0 2.64062,2.63867 2.6399986,2.6399986 0 0 0 2.63868,-2.63867 2.6399986,2.6399986 0 0 0 -2.63868,-2.64063 z m 9.59961,0 a 2.6399986,2.6399986 0 0 0 -2.64062,2.64063 2.6399986,2.6399986 0 0 0 2.64062,2.63867 2.6399986,2.6399986 0 0 0 2.64063,-2.63867 2.6399986,2.6399986 0 0 0 -2.64063,-2.64063 z m 9.59961,0 a 2.6399986,2.6399986 0 0 0 -2.64062,2.64063 2.6399986,2.6399986 0 0 0 2.64062,2.63867 2.6399986,2.6399986 0 0 0 2.64063,-2.63867 2.6399986,2.6399986 0 0 0 -2.64063,-2.64063 z m 9.59961,0 a 2.6399986,2.6399986 0 0 0 -2.63867,2.64063 2.6399986,2.6399986 0 0 0 2.63867,2.63867 2.6399986,2.6399986 0 0 0 2.64063,-2.63867 2.6399986,2.6399986 0 0 0 -2.64063,-2.64063 z m 9.60156,0 a 2.6399986,2.6399986 0 0 0 -2.64062,2.64063 2.6399986,2.6399986 0 0 0 2.64062,2.63867 2.6399986,2.6399986 0 0 0 2.63868,-2.63867 2.6399986,2.6399986 0 0 0 -2.63868,-2.64063 z m 9.59961,0 a 2.6399986,2.6399986 0 0 0 -2.64062,2.64063 2.6399986,2.6399986 0 0 0 2.64062,2.63867 2.6399986,2.6399986 0 0 0 2.63868,-2.63867 2.6399986,2.6399986 0 0 0 -2.63868,-2.64063 z M 8.3457031,337.18164 a 2.7839987,2.7839987 0 0 0 -2.7851562,2.78516 2.7839987,2.7839987 0 0 0 2.7851562,2.7832 2.7839987,2.7839987 0 0 0 2.7832029,-2.7832 2.7839987,2.7839987 0 0 0 -2.7832029,-2.78516 z M 182.3457,343.25391 a 1.5118125,1.5118125 0 0 0 -1.51172,1.51171 1.5118125,1.5118125 0 0 0 1.51172,1.51172 1.5118125,1.5118125 0 0 0 1.51172,-1.51172 1.5118125,1.5118125 0 0 0 -1.51172,-1.51171 z m 28.79883,10.80078 a 1.5118125,1.5118125 0 0 0 -1.51172,1.51172 1.5118125,1.5118125 0 0 0 1.51172,1.51171 1.5118125,1.5118125 0 0 0 1.51172,-1.51171 1.5118125,1.5118125 0 0 0 -1.51172,-1.51172 z m -199.199218,3.04297 a 5.6692901,5.6692901 0 0 0 -5.6699214,5.66796 5.6692901,5.6692901 0 0 0 5.6699214,5.66993 5.6692901,5.6692901 0 0 0 5.667969,-5.66993 5.6692901,5.6692901 0 0 0 -5.667969,-5.66796 z m 406.798828,0 a 5.6692901,5.6692901 0 0 0 -5.66797,5.66796 5.6692901,5.6692901 0 0 0 5.66797,5.66993 5.6692901,5.6692901 0 0 0 5.66992,-5.66993 5.6692901,5.6692901 0 0 0 -5.66992,-5.66796 z"
       transform="scale(0.75000039)"
       id="connector0pin"
       inkscape:connector-curvature="0" />
    <path
       style="color:#000000;font-style:normal;font-variant:normal;font-weight:normal;font-stretch:normal;font-size:medium;line-height:normal;font-family:sans-serif;font-variant-ligatures:normal;font-variant-position:normal;font-variant-caps:normal;font-variant-numeric:normal;font-variant-alternates:normal;font-feature-settings:normal;text-indent:0;text-align:start;text-decoration:none;text-decoration-line:none;text-decoration-style:solid;text-decoration-color:#000000;letter-spacing:normal;word-spacing:normal;text-transform:none;writing-mode:lr-tb;direction:ltr;text-orientation:mixed;dominant-baseline:auto;baseline-shift:baseline;text-anchor:start;white-space:normal;shape-padding:0;clip-rule:nonzero;display:inline;overflow:visible;visibility:visible;opacity:1;isolation:auto;mix-blend-mode:normal;color-interpolation:sRGB;color-interpolation-filters:linearRGB;solid-color:#000000;solid-opacity:1;vector-effect:none;fill:#000000;fill-opacity:1;fill-rule:nonzero;stroke:none;stroke-width:0.5;stroke-linecap:butt;stroke-linejoin:miter;stroke-miterlimit:4;stroke-dasharray:none;stroke-dashoffset:0;stroke-opacity:1;color-rendering:auto;image-rendering:auto;shape-rendering:auto;text-rendering:auto;enable-background:accumulate"
       d="m 0.03763038,0.03703864 v 0.25 V 286.91984 H 324.20949 V 0.03703864 Z M 0.53763037,0.53703863 H 323.70949 V 286.41984 H 0.53763037 Z"
       id="boardoutline"
       inkscape:connector-curvature="0" />
  </g>
</svg>
