<?xml version="1.0" encoding="UTF-8" standalone="no"?>
<!-- Created with Fritzing (http://www.fritzing.org/) -->

<svg
   xmlns:dc="http://purl.org/dc/elements/1.1/"
   xmlns:cc="http://creativecommons.org/ns#"
   xmlns:rdf="http://www.w3.org/1999/02/22-rdf-syntax-ns#"
   xmlns:svg="http://www.w3.org/2000/svg"
   xmlns="http://www.w3.org/2000/svg"
   xmlns:sodipodi="http://sodipodi.sourceforge.net/DTD/sodipodi-0.dtd"
   xmlns:inkscape="http://www.inkscape.org/namespaces/inkscape"
   viewBox="0 0 280.25546 95.308595"
   x="0in"
   y="0in"
   version="1.2"
   height="1.3237313in"
   width="3.8924448in"
   id="svg425"
   sodipodi:docname="cnc.svg"
   inkscape:version="0.92.4 (unknown)">
  <metadata
     id="metadata431">
    <rdf:RDF>
      <cc:Work
         rdf:about="">
        <dc:format>image/svg+xml</dc:format>
        <dc:type
           rdf:resource="http://purl.org/dc/dcmitype/StillImage" />
      </cc:Work>
    </rdf:RDF>
  </metadata>
  <defs
     id="defs429" />
  <sodipodi:namedview
     pagecolor="#ffffff"
     bordercolor="#666666"
     borderopacity="1"
     objecttolerance="10"
     gridtolerance="10"
     guidetolerance="10"
     inkscape:pageopacity="0"
     inkscape:pageshadow="2"
     inkscape:window-width="535"
     inkscape:window-height="477"
     id="namedview427"
     showgrid="false"
     inkscape:zoom="1.0139815"
     inkscape:cx="188.80978"
     inkscape:cy="59.59426"
     inkscape:window-x="0"
     inkscape:window-y="27"
     inkscape:window-maximized="0"
     inkscape:current-layer="svg425" />
  <g
     inkscape:groupmode="layer"
     id="topmask"
     inkscape:label="topmask"
     transform="translate(-0.03726414,-0.037751)">
    <path
       style="fill:#000000;stroke:#000000;stroke-width:2.88000178"
       d="m 241.87695,6.9921875 a 2.0787346,2.0787346 0 0 0 -2.07812,2.078125 2.0787346,2.0787346 0 0 0 2.07812,2.0781255 2.0787346,2.0787346 0 0 0 2.07813,-2.0781255 2.0787346,2.0787346 0 0 0 -2.07813,-2.078125 z M 11.476562,7.8242188 a 6.0472437,6.0472437 0 0 0 -6.0468745,6.0468752 6.0472437,6.0472437 0 0 0 6.0468745,6.046875 6.0472437,6.0472437 0 0 0 6.046876,-6.046875 6.0472437,6.0472437 0 0 0 -6.046876,-6.0468752 z m 350.400388,0 a 6.0472437,6.0472437 0 0 0 -6.04687,6.0468752 6.0472437,6.0472437 0 0 0 6.04687,6.046875 6.0472437,6.0472437 0 0 0 6.04688,-6.046875 6.0472437,6.0472437 0 0 0 -6.04688,-6.0468752 z M 232.27734,14.191406 a 2.0787346,2.0787346 0 0 0 -2.08007,2.078125 2.0787346,2.0787346 0 0 0 2.08007,2.080078 2.0787346,2.0787346 0 0 0 2.07813,-2.080078 2.0787346,2.0787346 0 0 0 -2.07813,-2.078125 z m -153.820309,1.69336 v 5.28125 h 5.279297 v -5.28125 z m 31.439449,0 a 2.6400016,2.6400016 0 0 0 -2.63867,2.640625 2.6400016,2.6400016 0 0 0 2.63867,2.640625 2.6400016,2.6400016 0 0 0 2.64063,-2.640625 2.6400016,2.6400016 0 0 0 -2.64063,-2.640625 z m 11.98047,0.707031 a 2.0787346,2.0787346 0 0 0 -2.08007,2.078125 2.0787346,2.0787346 0 0 0 2.08007,2.078125 2.0787346,2.0787346 0 0 0 2.07813,-2.078125 2.0787346,2.0787346 0 0 0 -2.07813,-2.078125 z m 100.79883,4.798828 a 2.0787346,2.0787346 0 0 0 -2.07812,2.080078 2.0787346,2.0787346 0 0 0 2.07812,2.078125 2.0787346,2.0787346 0 0 0 2.08008,-2.078125 2.0787346,2.0787346 0 0 0 -2.08008,-2.080078 z M 81.097656,25.484375 A 2.6400016,2.6400016 0 0 0 78.457031,28.125 2.6400016,2.6400016 0 0 0 81.097656,30.765625 2.6400016,2.6400016 0 0 0 83.736328,28.125 2.6400016,2.6400016 0 0 0 81.097656,25.484375 Z m 28.798824,0 a 2.6400016,2.6400016 0 0 0 -2.63867,2.640625 2.6400016,2.6400016 0 0 0 2.63867,2.640625 2.6400016,2.6400016 0 0 0 2.64063,-2.640625 2.6400016,2.6400016 0 0 0 -2.64063,-2.640625 z m -72.259761,0.146484 v 5.279297 h 5.279297 v -5.279297 z m 31.439453,0 a 2.6400016,2.6400016 0 0 0 -2.638672,2.638672 2.6400016,2.6400016 0 0 0 2.638672,2.640625 2.6400016,2.6400016 0 0 0 2.640625,-2.640625 2.6400016,2.6400016 0 0 0 -2.640625,-2.638672 z m 143.999998,2.960938 a 2.0787346,2.0787346 0 0 0 -2.07812,2.078125 2.0787346,2.0787346 0 0 0 2.07812,2.078125 2.0787346,2.0787346 0 0 0 2.08008,-2.078125 2.0787346,2.0787346 0 0 0 -2.08008,-2.078125 z M 81.097656,35.085938 a 2.6400016,2.6400016 0 0 0 -2.640625,2.638671 2.6400016,2.6400016 0 0 0 2.640625,2.640625 2.6400016,2.6400016 0 0 0 2.638672,-2.640625 2.6400016,2.6400016 0 0 0 -2.638672,-2.638671 z m 28.798824,0 a 2.6400016,2.6400016 0 0 0 -2.63867,2.638671 2.6400016,2.6400016 0 0 0 2.63867,2.640625 2.6400016,2.6400016 0 0 0 2.64063,-2.640625 2.6400016,2.6400016 0 0 0 -2.64063,-2.638671 z m -69.619136,0.144531 a 2.6400016,2.6400016 0 0 0 -2.640625,2.640625 2.6400016,2.6400016 0 0 0 2.640625,2.638672 2.6400016,2.6400016 0 0 0 2.638672,-2.638672 2.6400016,2.6400016 0 0 0 -2.638672,-2.640625 z m 28.798828,0 a 2.6400016,2.6400016 0 0 0 -2.638672,2.640625 2.6400016,2.6400016 0 0 0 2.638672,2.638672 2.6400016,2.6400016 0 0 0 2.640625,-2.638672 2.6400016,2.6400016 0 0 0 -2.640625,-2.640625 z m 134.400388,0.560547 a 2.0787346,2.0787346 0 0 0 -2.07812,2.080078 2.0787346,2.0787346 0 0 0 2.07812,2.078125 2.0787346,2.0787346 0 0 0 2.07813,-2.078125 2.0787346,2.0787346 0 0 0 -2.07813,-2.080078 z m -9.59961,7.201172 a 2.0787346,2.0787346 0 0 0 -2.07812,2.078124 2.0787346,2.0787346 0 0 0 2.07812,2.078126 2.0787346,2.0787346 0 0 0 2.07813,-2.078126 2.0787346,2.0787346 0 0 0 -2.07813,-2.078124 z M 81.097656,44.685547 a 2.6400016,2.6400016 0 0 0 -2.640625,2.640625 2.6400016,2.6400016 0 0 0 2.640625,2.638672 2.6400016,2.6400016 0 0 0 2.638672,-2.638672 2.6400016,2.6400016 0 0 0 -2.638672,-2.640625 z m 28.798824,0 a 2.6400016,2.6400016 0 0 0 -2.63867,2.640625 2.6400016,2.6400016 0 0 0 2.63867,2.638672 2.6400016,2.6400016 0 0 0 2.64063,-2.638672 2.6400016,2.6400016 0 0 0 -2.64063,-2.640625 z m -69.619136,0.144531 a 2.6400016,2.6400016 0 0 0 -2.640625,2.640625 2.6400016,2.6400016 0 0 0 2.640625,2.638672 2.6400016,2.6400016 0 0 0 2.638672,-2.638672 2.6400016,2.6400016 0 0 0 -2.638672,-2.640625 z m 28.798828,0 a 2.6400016,2.6400016 0 0 0 -2.638672,2.640625 2.6400016,2.6400016 0 0 0 2.638672,2.638672 2.6400016,2.6400016 0 0 0 2.640625,-2.638672 2.6400016,2.6400016 0 0 0 -2.640625,-2.640625 z m -55.199219,4.65625 a 2.7840019,2.7840019 0 0 0 -2.785156,2.783203 2.7840019,2.7840019 0 0 0 2.785156,2.785157 2.7840019,2.7840019 0 0 0 2.783203,-2.785157 2.7840019,2.7840019 0 0 0 -2.783203,-2.783203 z m 170.400387,0.705078 a 2.0787346,2.0787346 0 0 0 -2.08007,2.078125 2.0787346,2.0787346 0 0 0 2.08007,2.080078 2.0787346,2.0787346 0 0 0 2.07813,-2.080078 2.0787346,2.0787346 0 0 0 -2.07813,-2.078125 z m -103.179684,4.09375 a 2.6400016,2.6400016 0 0 0 -2.640625,2.640625 2.6400016,2.6400016 0 0 0 2.640625,2.638672 2.6400016,2.6400016 0 0 0 2.638672,-2.638672 2.6400016,2.6400016 0 0 0 -2.638672,-2.640625 z m 28.798824,0 a 2.6400016,2.6400016 0 0 0 -2.63867,2.640625 2.6400016,2.6400016 0 0 0 2.63867,2.638672 2.6400016,2.6400016 0 0 0 2.64063,-2.638672 2.6400016,2.6400016 0 0 0 -2.64063,-2.640625 z m -69.619136,0.144532 a 2.6400016,2.6400016 0 0 0 -2.640625,2.640624 2.6400016,2.6400016 0 0 0 2.640625,2.640626 2.6400016,2.6400016 0 0 0 2.638672,-2.640626 2.6400016,2.6400016 0 0 0 -2.638672,-2.640624 z m 28.798828,0 a 2.6400016,2.6400016 0 0 0 -2.638672,2.640624 2.6400016,2.6400016 0 0 0 2.638672,2.640626 2.6400016,2.6400016 0 0 0 2.640625,-2.640626 2.6400016,2.6400016 0 0 0 -2.640625,-2.640624 z m 105.599608,2.960937 a 2.0787346,2.0787346 0 0 0 -2.07812,2.080078 2.0787346,2.0787346 0 0 0 2.07812,2.078125 2.0787346,2.0787346 0 0 0 2.08008,-2.078125 2.0787346,2.0787346 0 0 0 -2.08008,-2.080078 z M 13.876953,59.085938 a 2.7840019,2.7840019 0 0 0 -2.785156,2.785156 2.7840019,2.7840019 0 0 0 2.785156,2.783203 2.7840019,2.7840019 0 0 0 2.783203,-2.783203 2.7840019,2.7840019 0 0 0 -2.783203,-2.785156 z m 67.220703,4.798828 a 2.6400016,2.6400016 0 0 0 -2.640625,2.640625 2.6400016,2.6400016 0 0 0 2.640625,2.640625 2.6400016,2.6400016 0 0 0 2.638672,-2.640625 2.6400016,2.6400016 0 0 0 -2.638672,-2.640625 z m 28.798824,0 a 2.6400016,2.6400016 0 0 0 -2.63867,2.640625 2.6400016,2.6400016 0 0 0 2.63867,2.640625 2.6400016,2.6400016 0 0 0 2.64063,-2.640625 2.6400016,2.6400016 0 0 0 -2.64063,-2.640625 z M 40.277344,64.03125 a 2.6400016,2.6400016 0 0 0 -2.640625,2.638672 2.6400016,2.6400016 0 0 0 2.640625,2.640625 2.6400016,2.6400016 0 0 0 2.638672,-2.640625 2.6400016,2.6400016 0 0 0 -2.638672,-2.638672 z m 28.798828,0 a 2.6400016,2.6400016 0 0 0 -2.638672,2.638672 2.6400016,2.6400016 0 0 0 2.638672,2.640625 2.6400016,2.6400016 0 0 0 2.640625,-2.640625 2.6400016,2.6400016 0 0 0 -2.640625,-2.638672 z m -55.199219,4.654297 a 2.7840019,2.7840019 0 0 0 -2.785156,2.785156 2.7840019,2.7840019 0 0 0 2.785156,2.783203 2.7840019,2.7840019 0 0 0 2.783203,-2.783203 2.7840019,2.7840019 0 0 0 -2.783203,-2.785156 z m 67.220703,4.798828 A 2.6400016,2.6400016 0 0 0 78.457031,76.125 2.6400016,2.6400016 0 0 0 81.097656,78.765625 2.6400016,2.6400016 0 0 0 83.736328,76.125 2.6400016,2.6400016 0 0 0 81.097656,73.484375 Z m 28.798824,0 a 2.6400016,2.6400016 0 0 0 -2.63867,2.640625 2.6400016,2.6400016 0 0 0 2.63867,2.640625 2.6400016,2.6400016 0 0 0 2.64063,-2.640625 2.6400016,2.6400016 0 0 0 -2.64063,-2.640625 z m -69.619136,0.146484 a 2.6400016,2.6400016 0 0 0 -2.640625,2.638672 2.6400016,2.6400016 0 0 0 2.640625,2.640625 2.6400016,2.6400016 0 0 0 2.638672,-2.640625 2.6400016,2.6400016 0 0 0 -2.638672,-2.638672 z m 28.798828,0 a 2.6400016,2.6400016 0 0 0 -2.638672,2.638672 2.6400016,2.6400016 0 0 0 2.638672,2.640625 2.6400016,2.6400016 0 0 0 2.640625,-2.640625 2.6400016,2.6400016 0 0 0 -2.640625,-2.638672 z m -55.199219,4.65625 a 2.7840019,2.7840019 0 0 0 -2.785156,2.783203 2.7840019,2.7840019 0 0 0 2.785156,2.783204 2.7840019,2.7840019 0 0 0 2.783203,-2.783204 2.7840019,2.7840019 0 0 0 -2.783203,-2.783203 z m 141.599607,0.142579 a 2.6400016,2.6400016 0 0 0 -2.64062,2.640624 2.6400016,2.6400016 0 0 0 2.64062,2.640626 2.6400016,2.6400016 0 0 0 2.64063,-2.640626 2.6400016,2.6400016 0 0 0 -2.64063,-2.640624 z m 9.59961,0 a 2.6400016,2.6400016 0 0 0 -2.64062,2.640624 2.6400016,2.6400016 0 0 0 2.64062,2.640626 2.6400016,2.6400016 0 0 0 2.64063,-2.640626 2.6400016,2.6400016 0 0 0 -2.64063,-2.640624 z m 9.59961,0 a 2.6400016,2.6400016 0 0 0 -2.63867,2.640624 2.6400016,2.6400016 0 0 0 2.63867,2.640626 2.6400016,2.6400016 0 0 0 2.64063,-2.640626 2.6400016,2.6400016 0 0 0 -2.64063,-2.640624 z m 9.60156,0 a 2.6400016,2.6400016 0 0 0 -2.64062,2.640624 2.6400016,2.6400016 0 0 0 2.64062,2.640626 2.6400016,2.6400016 0 0 0 2.63868,-2.640626 2.6400016,2.6400016 0 0 0 -2.63868,-2.640624 z m 9.59961,0 a 2.6400016,2.6400016 0 0 0 -2.64062,2.640624 2.6400016,2.6400016 0 0 0 2.64062,2.640626 2.6400016,2.6400016 0 0 0 2.63867,-2.640626 2.6400016,2.6400016 0 0 0 -2.63867,-2.640624 z m 9.59961,0 a 2.6400016,2.6400016 0 0 0 -2.64062,2.640624 2.6400016,2.6400016 0 0 0 2.64062,2.640626 2.6400016,2.6400016 0 0 0 2.64063,-2.640626 2.6400016,2.6400016 0 0 0 -2.64063,-2.640624 z m 9.59961,0 a 2.6400016,2.6400016 0 0 0 -2.64062,2.640624 2.6400016,2.6400016 0 0 0 2.64062,2.640626 2.6400016,2.6400016 0 0 0 2.64063,-2.640626 2.6400016,2.6400016 0 0 0 -2.64063,-2.640624 z m 9.59961,0 a 2.6400016,2.6400016 0 0 0 -2.63867,2.640624 2.6400016,2.6400016 0 0 0 2.63867,2.640626 2.6400016,2.6400016 0 0 0 2.64063,-2.640626 2.6400016,2.6400016 0 0 0 -2.64063,-2.640624 z m 9.60156,0 a 2.6400016,2.6400016 0 0 0 -2.64062,2.640624 2.6400016,2.6400016 0 0 0 2.64062,2.640626 2.6400016,2.6400016 0 0 0 2.63868,-2.640626 2.6400016,2.6400016 0 0 0 -2.63868,-2.640624 z m 9.59961,0 a 2.6400016,2.6400016 0 0 0 -2.64062,2.640624 2.6400016,2.6400016 0 0 0 2.64062,2.640626 2.6400016,2.6400016 0 0 0 2.63867,-2.640626 2.6400016,2.6400016 0 0 0 -2.63867,-2.640624 z m -160.779294,4.65625 a 2.6400016,2.6400016 0 0 0 -2.640625,2.638671 2.6400016,2.6400016 0 0 0 2.640625,2.640625 2.6400016,2.6400016 0 0 0 2.638672,-2.640625 2.6400016,2.6400016 0 0 0 -2.638672,-2.638671 z m 28.798824,0 a 2.6400016,2.6400016 0 0 0 -2.63867,2.638671 2.6400016,2.6400016 0 0 0 2.63867,2.640625 2.6400016,2.6400016 0 0 0 2.64063,-2.640625 2.6400016,2.6400016 0 0 0 -2.64063,-2.638671 z m -69.619136,0.144531 a 2.6400016,2.6400016 0 0 0 -2.640625,2.640625 2.6400016,2.6400016 0 0 0 2.640625,2.638672 2.6400016,2.6400016 0 0 0 2.638672,-2.638672 2.6400016,2.6400016 0 0 0 -2.638672,-2.640625 z m 28.798828,0 a 2.6400016,2.6400016 0 0 0 -2.638672,2.640625 2.6400016,2.6400016 0 0 0 2.638672,2.638672 2.6400016,2.6400016 0 0 0 2.640625,-2.638672 2.6400016,2.6400016 0 0 0 -2.640625,-2.640625 z m 12.021484,9.455078 a 2.6400016,2.6400016 0 0 0 -2.640625,2.640625 2.6400016,2.6400016 0 0 0 2.640625,2.638672 2.6400016,2.6400016 0 0 0 2.638672,-2.638672 2.6400016,2.6400016 0 0 0 -2.638672,-2.640625 z m 28.798824,0 a 2.6400016,2.6400016 0 0 0 -2.63867,2.640625 2.6400016,2.6400016 0 0 0 2.63867,2.638672 2.6400016,2.6400016 0 0 0 2.64063,-2.638672 2.6400016,2.6400016 0 0 0 -2.64063,-2.640625 z m -69.619136,0.144531 a 2.6400016,2.6400016 0 0 0 -2.640625,2.640625 2.6400016,2.6400016 0 0 0 2.640625,2.638672 2.6400016,2.6400016 0 0 0 2.638672,-2.638672 2.6400016,2.6400016 0 0 0 -2.638672,-2.640625 z m 28.798828,0 a 2.6400016,2.6400016 0 0 0 -2.638672,2.640625 2.6400016,2.6400016 0 0 0 2.638672,2.638672 2.6400016,2.6400016 0 0 0 2.640625,-2.638672 2.6400016,2.6400016 0 0 0 -2.640625,-2.640625 z m 71.999998,0.560547 a 2.0787346,2.0787346 0 0 0 -2.07812,2.080078 2.0787346,2.0787346 0 0 0 2.07812,2.078125 2.0787346,2.0787346 0 0 0 2.08008,-2.078125 2.0787346,2.0787346 0 0 0 -2.08008,-2.080078 z m -7.19922,6.640625 a 2.6400016,2.6400016 0 0 0 -2.64062,2.63867 2.6400016,2.6400016 0 0 0 2.64062,2.64063 2.6400016,2.6400016 0 0 0 2.64063,-2.64063 2.6400016,2.6400016 0 0 0 -2.64063,-2.63867 z m -52.779294,2.25391 a 2.6400016,2.6400016 0 0 0 -2.640625,2.64062 2.6400016,2.6400016 0 0 0 2.640625,2.63867 2.6400016,2.6400016 0 0 0 2.638672,-2.63867 2.6400016,2.6400016 0 0 0 -2.638672,-2.64062 z m 28.798824,0 a 2.6400016,2.6400016 0 0 0 -2.63867,2.64062 2.6400016,2.6400016 0 0 0 2.63867,2.63867 2.6400016,2.6400016 0 0 0 2.64063,-2.63867 2.6400016,2.6400016 0 0 0 -2.64063,-2.64062 z m 146.38086,2.40039 a 2.7840019,2.7840019 0 0 0 -2.78515,2.78515 2.7840019,2.7840019 0 0 0 2.78515,2.78321 2.7840019,2.7840019 0 0 0 2.78321,-2.78321 2.7840019,2.7840019 0 0 0 -2.78321,-2.78515 z m 9.59961,0 a 2.7840019,2.7840019 0 0 0 -2.78515,2.78515 2.7840019,2.7840019 0 0 0 2.78515,2.78321 2.7840019,2.7840019 0 0 0 2.78321,-2.78321 2.7840019,2.7840019 0 0 0 -2.78321,-2.78515 z m 9.59961,0 a 2.7840019,2.7840019 0 0 0 -2.7832,2.78515 2.7840019,2.7840019 0 0 0 2.7832,2.78321 2.7840019,2.7840019 0 0 0 2.78321,-2.78321 2.7840019,2.7840019 0 0 0 -2.78321,-2.78515 z m 9.59961,0 a 2.7840019,2.7840019 0 0 0 -2.7832,2.78515 2.7840019,2.7840019 0 0 0 2.7832,2.78321 2.7840019,2.7840019 0 0 0 2.78516,-2.78321 2.7840019,2.7840019 0 0 0 -2.78516,-2.78515 z m 9.59961,0 a 2.7840019,2.7840019 0 0 0 -2.7832,2.78515 2.7840019,2.7840019 0 0 0 2.7832,2.78321 2.7840019,2.7840019 0 0 0 2.78516,-2.78321 2.7840019,2.7840019 0 0 0 -2.78516,-2.78515 z m 9.60156,0 a 2.7840019,2.7840019 0 0 0 -2.78515,2.78515 2.7840019,2.7840019 0 0 0 2.78515,2.78321 2.7840019,2.7840019 0 0 0 2.78321,-2.78321 2.7840019,2.7840019 0 0 0 -2.78321,-2.78515 z m 9.59961,0 a 2.7840019,2.7840019 0 0 0 -2.78515,2.78515 2.7840019,2.7840019 0 0 0 2.78515,2.78321 2.7840019,2.7840019 0 0 0 2.78321,-2.78321 2.7840019,2.7840019 0 0 0 -2.78321,-2.78515 z m 9.59961,0 a 2.7840019,2.7840019 0 0 0 -2.7832,2.78515 2.7840019,2.7840019 0 0 0 2.7832,2.78321 2.7840019,2.7840019 0 0 0 2.78321,-2.78321 2.7840019,2.7840019 0 0 0 -2.78321,-2.78515 z m 9.59961,0 a 2.7840019,2.7840019 0 0 0 -2.7832,2.78515 2.7840019,2.7840019 0 0 0 2.7832,2.78321 2.7840019,2.7840019 0 0 0 2.78516,-2.78321 2.7840019,2.7840019 0 0 0 -2.78516,-2.78515 z m 9.59961,0 a 2.7840019,2.7840019 0 0 0 -2.7832,2.78515 2.7840019,2.7840019 0 0 0 2.7832,2.78321 2.7840019,2.7840019 0 0 0 2.78516,-2.78321 2.7840019,2.7840019 0 0 0 -2.78516,-2.78515 z m -189.83984,2.54492 v 5.2793 h 5.28125 v -5.2793 z m 12.24023,0 a 2.6400016,2.6400016 0 0 0 -2.64062,2.64062 2.6400016,2.6400016 0 0 0 2.64062,2.63868 2.6400016,2.6400016 0 0 0 2.64063,-2.63868 2.6400016,2.6400016 0 0 0 -2.64063,-2.64062 z m 9.59961,0 a 2.6400016,2.6400016 0 0 0 -2.63867,2.64062 2.6400016,2.6400016 0 0 0 2.63867,2.63868 2.6400016,2.6400016 0 0 0 2.64063,-2.63868 2.6400016,2.6400016 0 0 0 -2.64063,-2.64062 z m 9.60156,0 a 2.6400016,2.6400016 0 0 0 -2.64062,2.64062 2.6400016,2.6400016 0 0 0 2.64062,2.63868 2.6400016,2.6400016 0 0 0 2.63868,-2.63868 2.6400016,2.6400016 0 0 0 -2.63868,-2.64062 z m 9.59961,0 a 2.6400016,2.6400016 0 0 0 -2.64062,2.64062 2.6400016,2.6400016 0 0 0 2.64062,2.63868 2.6400016,2.6400016 0 0 0 2.63867,-2.63868 2.6400016,2.6400016 0 0 0 -2.63867,-2.64062 z m 9.59961,0 a 2.6400016,2.6400016 0 0 0 -2.64062,2.64062 2.6400016,2.6400016 0 0 0 2.64062,2.63868 2.6400016,2.6400016 0 0 0 2.64063,-2.63868 2.6400016,2.6400016 0 0 0 -2.64063,-2.64062 z m 9.59961,0 a 2.6400016,2.6400016 0 0 0 -2.64062,2.64062 2.6400016,2.6400016 0 0 0 2.64062,2.63868 2.6400016,2.6400016 0 0 0 2.64063,-2.63868 2.6400016,2.6400016 0 0 0 -2.64063,-2.64062 z m 9.59961,0 a 2.6400016,2.6400016 0 0 0 -2.63867,2.64062 2.6400016,2.6400016 0 0 0 2.63867,2.63868 2.6400016,2.6400016 0 0 0 2.64063,-2.63868 2.6400016,2.6400016 0 0 0 -2.64063,-2.64062 z m 9.60156,0 a 2.6400016,2.6400016 0 0 0 -2.64062,2.64062 2.6400016,2.6400016 0 0 0 2.64062,2.63868 2.6400016,2.6400016 0 0 0 2.63868,-2.63868 2.6400016,2.6400016 0 0 0 -2.63868,-2.64062 z m 9.59961,0 a 2.6400016,2.6400016 0 0 0 -2.64062,2.64062 2.6400016,2.6400016 0 0 0 2.64062,2.63868 2.6400016,2.6400016 0 0 0 2.63867,-2.63868 2.6400016,2.6400016 0 0 0 -2.63867,-2.64062 z m -230.400388,1.39258 a 6.0472437,6.0472437 0 0 0 -6.0468745,6.04687 6.0472437,6.0472437 0 0 0 6.0468745,6.04883 6.0472437,6.0472437 0 0 0 6.046876,-6.04883 6.0472437,6.0472437 0 0 0 -6.046876,-6.04687 z m 350.400388,0 a 6.0472437,6.0472437 0 0 0 -6.04687,6.04687 6.0472437,6.0472437 0 0 0 6.04687,6.04883 6.0472437,6.0472437 0 0 0 6.04688,-6.04883 6.0472437,6.0472437 0 0 0 -6.04688,-6.04687 z m -230.64062,1.00781 v 5.2793 h 5.28125 v -5.2793 z"
       transform="matrix(0.74999954,0,0,0.74999954,-1.9255949e-4,0)"
       id="connector0pin"
       inkscape:connector-curvature="0" />
    <path
       style="color:#000000;font-style:normal;font-variant:normal;font-weight:normal;font-stretch:normal;font-size:medium;line-height:normal;font-family:sans-serif;font-variant-ligatures:normal;font-variant-position:normal;font-variant-caps:normal;font-variant-numeric:normal;font-variant-alternates:normal;font-feature-settings:normal;text-indent:0;text-align:start;text-decoration:none;text-decoration-line:none;text-decoration-style:solid;text-decoration-color:#000000;letter-spacing:normal;word-spacing:normal;text-transform:none;writing-mode:lr-tb;direction:ltr;text-orientation:mixed;dominant-baseline:auto;baseline-shift:baseline;text-anchor:start;white-space:normal;shape-padding:0;clip-rule:nonzero;display:inline;overflow:visible;visibility:visible;opacity:1;isolation:auto;mix-blend-mode:normal;color-interpolation:sRGB;color-interpolation-filters:linearRGB;solid-color:#000000;solid-opacity:1;vector-effect:none;fill:#000000;fill-opacity:1;fill-rule:nonzero;stroke:none;stroke-width:0.5;stroke-linecap:butt;stroke-linejoin:miter;stroke-miterlimit:4;stroke-dasharray:none;stroke-dashoffset:0;stroke-opacity:1;color-rendering:auto;image-rendering:auto;shape-rendering:auto;text-rendering:auto;enable-background:accumulate"
       d="M 0.03707158,0.037751 V 0.28775102 95.346349 H 280.29293 V 0.037751 Z M 0.5370716,0.53775102 H 279.79294 V 94.846347 H 0.5370716 Z"
       id="boardoutline"
       inkscape:connector-curvature="0" />
  </g>
</svg>
