G04 MADE WITH FRITZING*
G04 WWW.FRITZING.ORG*
G04 DOUBLE SIDED*
G04 HOLES PLATED*
G04 CONTOUR ON CENTER OF CONTOUR VECTOR*
%ASAXBY*%
%FSLAX23Y23*%
%MOIN*%
%OFA0B0*%
%SFA1.0B1.0*%
%ADD10C,0.039370*%
%ADD11C,0.078000*%
%ADD12C,0.070000*%
%ADD13R,0.074803X0.062992*%
%ADD14C,0.048000*%
%ADD15C,0.032000*%
%ADD16C,0.024000*%
%LNCOPPER1*%
G90*
G70*
G54D10*
X468Y2522D03*
G54D11*
X1943Y919D03*
X1943Y819D03*
X1693Y919D03*
X1693Y819D03*
X3518Y919D03*
X3518Y819D03*
X3268Y919D03*
X3268Y819D03*
G54D10*
X1543Y819D03*
X3118Y819D03*
X1943Y1147D03*
X1693Y1147D03*
X2343Y3597D03*
X2443Y3522D03*
X2543Y3447D03*
X2643Y3372D03*
X2743Y3297D03*
X2843Y3222D03*
X2943Y3147D03*
X3043Y3072D03*
X1518Y2747D03*
X1418Y2747D03*
X1318Y2747D03*
X1218Y2747D03*
X1118Y2747D03*
X1018Y2747D03*
X918Y2747D03*
X818Y2747D03*
X2543Y1672D03*
X2843Y1772D03*
X2943Y1872D03*
X1368Y2147D03*
X1418Y1947D03*
X1318Y1922D03*
X1018Y1947D03*
X1018Y2147D03*
X1943Y2522D03*
G54D11*
X418Y2647D03*
X518Y2647D03*
X618Y2647D03*
X718Y2647D03*
X818Y2647D03*
X918Y2647D03*
X1018Y2647D03*
X1118Y2647D03*
X1218Y2647D03*
X1318Y2647D03*
X1418Y2647D03*
X1518Y2647D03*
X1943Y2647D03*
X2043Y2647D03*
X2143Y2647D03*
X2243Y2647D03*
X2343Y2647D03*
X2443Y2647D03*
X2543Y2647D03*
X2643Y2647D03*
X2743Y2647D03*
X2843Y2647D03*
X2943Y2647D03*
X3043Y2647D03*
X418Y2047D03*
X518Y2047D03*
X618Y2047D03*
X718Y2047D03*
X818Y2047D03*
X918Y2047D03*
X1018Y2047D03*
X1118Y2047D03*
X1218Y2047D03*
X1318Y2047D03*
X1418Y2047D03*
X1518Y2047D03*
X1943Y2047D03*
X2043Y2047D03*
X2143Y2047D03*
X2243Y2047D03*
X2343Y2047D03*
X2443Y2047D03*
X2543Y2047D03*
X2643Y2047D03*
X2743Y2047D03*
X2843Y2047D03*
X2943Y2047D03*
X3043Y2047D03*
G54D10*
X693Y397D03*
X793Y397D03*
X893Y397D03*
X993Y397D03*
X1093Y397D03*
X1193Y397D03*
X1293Y397D03*
X1393Y397D03*
X2293Y397D03*
X2393Y397D03*
X2493Y397D03*
X2593Y397D03*
X2693Y397D03*
X2793Y397D03*
X2893Y397D03*
X2993Y397D03*
G54D12*
X3618Y1472D03*
X3618Y1371D03*
G54D11*
X1093Y122D03*
X1193Y122D03*
X1293Y122D03*
X1393Y122D03*
X2593Y122D03*
X2493Y122D03*
X2393Y122D03*
X2293Y122D03*
X693Y122D03*
X793Y122D03*
X893Y122D03*
X993Y122D03*
X2993Y122D03*
X2893Y122D03*
X2793Y122D03*
X2693Y122D03*
X3843Y2672D03*
X3843Y2572D03*
X3843Y2472D03*
X3843Y2372D03*
X3843Y2272D03*
X3843Y2172D03*
X3843Y2072D03*
X3843Y1972D03*
X3843Y1872D03*
X3843Y1772D03*
X3843Y1672D03*
X3743Y2672D03*
X3743Y2572D03*
X3743Y2472D03*
X3743Y2372D03*
X3743Y2272D03*
X3743Y2172D03*
X3743Y2072D03*
X3743Y1972D03*
X3743Y1872D03*
X3743Y1772D03*
X3743Y1672D03*
X3843Y1472D03*
X3843Y1372D03*
X3743Y1472D03*
X3743Y1372D03*
G54D10*
X3518Y1372D03*
X2543Y2522D03*
X2893Y2322D03*
X3418Y1472D03*
G54D13*
X693Y475D03*
X693Y597D03*
X793Y475D03*
X793Y597D03*
X893Y475D03*
X893Y597D03*
X993Y472D03*
X993Y594D03*
X1093Y472D03*
X1093Y594D03*
X1193Y472D03*
X1193Y594D03*
X1293Y472D03*
X1293Y594D03*
X1393Y472D03*
X1393Y594D03*
X2293Y475D03*
X2293Y597D03*
X2393Y475D03*
X2393Y597D03*
X2493Y475D03*
X2493Y597D03*
X2593Y472D03*
X2593Y594D03*
X2693Y472D03*
X2693Y594D03*
X2793Y472D03*
X2793Y594D03*
X2893Y472D03*
X2893Y594D03*
X2993Y472D03*
X2993Y594D03*
X693Y700D03*
X693Y822D03*
X793Y700D03*
X793Y822D03*
X893Y700D03*
X893Y822D03*
X993Y697D03*
X993Y819D03*
X1093Y697D03*
X1093Y819D03*
X1193Y697D03*
X1193Y819D03*
X1293Y697D03*
X1293Y819D03*
X1393Y697D03*
X1393Y819D03*
X2293Y700D03*
X2293Y822D03*
X2393Y700D03*
X2393Y822D03*
X2493Y700D03*
X2493Y822D03*
X2593Y697D03*
X2593Y819D03*
X2693Y697D03*
X2693Y819D03*
X2793Y697D03*
X2793Y819D03*
X2893Y697D03*
X2893Y819D03*
X2993Y697D03*
X2993Y819D03*
G54D14*
X1020Y2523D02*
X498Y2522D01*
G54D15*
D02*
X1293Y421D02*
X1293Y446D01*
D02*
X1393Y421D02*
X1393Y446D01*
D02*
X2993Y446D02*
X2993Y421D01*
D02*
X693Y421D02*
X693Y449D01*
D02*
X793Y421D02*
X793Y449D01*
D02*
X893Y449D02*
X893Y421D01*
D02*
X993Y421D02*
X993Y446D01*
D02*
X1093Y421D02*
X1093Y446D01*
D02*
X1193Y421D02*
X1193Y446D01*
D02*
X2293Y421D02*
X2293Y449D01*
D02*
X2393Y421D02*
X2393Y449D01*
D02*
X2493Y421D02*
X2493Y449D01*
D02*
X2593Y421D02*
X2593Y446D01*
D02*
X2693Y421D02*
X2693Y446D01*
D02*
X2793Y421D02*
X2793Y446D01*
D02*
X2893Y421D02*
X2893Y446D01*
G54D14*
D02*
X3702Y1472D02*
X3655Y1472D01*
D02*
X3802Y1372D02*
X3784Y1372D01*
D02*
X3802Y1472D02*
X3784Y1472D01*
D02*
X1994Y1472D02*
X3388Y1472D01*
D02*
X1713Y1169D02*
X1994Y1472D01*
D02*
X2142Y1372D02*
X1963Y1169D01*
D02*
X3488Y1372D02*
X2142Y1372D01*
D02*
X1513Y819D02*
X1425Y819D01*
D02*
X3088Y819D02*
X3025Y819D01*
D02*
X3702Y1372D02*
X3655Y1371D01*
G54D16*
D02*
X3813Y1872D02*
X3773Y1872D01*
D02*
X3813Y1772D02*
X3773Y1772D01*
D02*
X3813Y1672D02*
X3773Y1672D01*
D02*
X3813Y2672D02*
X3773Y2672D01*
D02*
X3813Y2572D02*
X3773Y2572D01*
D02*
X3813Y2472D02*
X3773Y2472D01*
D02*
X3813Y2372D02*
X3773Y2372D01*
D02*
X3813Y2272D02*
X3773Y2272D01*
D02*
X3813Y2172D02*
X3773Y2172D01*
D02*
X3813Y2072D02*
X3773Y2072D01*
D02*
X3813Y1972D02*
X3773Y1972D01*
G54D15*
D02*
X820Y3246D02*
X1168Y3598D01*
D02*
X920Y3220D02*
X918Y2771D01*
D02*
X1020Y3198D02*
X1018Y2771D01*
D02*
X1120Y3172D02*
X1118Y2771D01*
D02*
X1216Y3146D02*
X1218Y2771D01*
D02*
X1320Y3120D02*
X1318Y2771D01*
D02*
X1420Y3098D02*
X1418Y2771D01*
D02*
X818Y2771D02*
X820Y3246D01*
D02*
X1468Y3146D02*
X1420Y3098D01*
D02*
X1420Y3220D02*
X1320Y3120D01*
D02*
X1368Y3298D02*
X1216Y3146D01*
D02*
X1320Y3372D02*
X1120Y3172D01*
D02*
X1268Y3446D02*
X1020Y3198D01*
D02*
X1220Y3520D02*
X920Y3220D01*
D02*
X2918Y3147D02*
X1468Y3146D01*
D02*
X2818Y3222D02*
X1420Y3220D01*
D02*
X2718Y3297D02*
X1368Y3298D01*
D02*
X2618Y3372D02*
X1320Y3372D01*
D02*
X2518Y3447D02*
X1268Y3446D01*
D02*
X2418Y3522D02*
X1220Y3520D01*
D02*
X1168Y3598D02*
X2318Y3597D01*
D02*
X1492Y1872D02*
X2918Y1872D01*
D02*
X1292Y1672D02*
X1035Y1929D01*
D02*
X2518Y1672D02*
X1292Y1672D01*
D02*
X1468Y1772D02*
X1335Y1904D01*
D02*
X2818Y1772D02*
X1468Y1772D01*
D02*
X1435Y1929D02*
X1492Y1872D01*
D02*
X1516Y3072D02*
X3018Y3072D01*
D02*
X1518Y2771D02*
X1516Y3072D01*
G54D14*
D02*
X1020Y2523D02*
X1913Y2522D01*
D02*
X1018Y2177D02*
X1020Y2523D01*
D02*
X1368Y2220D02*
X1368Y2177D01*
D02*
X1468Y2320D02*
X1368Y2220D01*
D02*
X2863Y2322D02*
X1468Y2320D01*
D02*
X1973Y2522D02*
X2513Y2522D01*
D02*
X2761Y819D02*
X2725Y819D01*
D02*
X2861Y819D02*
X2825Y819D01*
D02*
X2961Y819D02*
X2925Y819D01*
D02*
X961Y820D02*
X925Y821D01*
D02*
X1061Y819D02*
X1025Y819D01*
D02*
X1161Y819D02*
X1125Y819D01*
D02*
X1261Y819D02*
X1225Y819D01*
D02*
X1361Y819D02*
X1325Y819D01*
D02*
X2361Y822D02*
X2325Y822D01*
D02*
X2461Y822D02*
X2425Y822D01*
D02*
X2561Y820D02*
X2525Y821D01*
D02*
X2661Y819D02*
X2625Y819D01*
D02*
X761Y822D02*
X725Y822D01*
D02*
X861Y822D02*
X825Y822D01*
G54D15*
D02*
X693Y623D02*
X693Y674D01*
D02*
X793Y623D02*
X793Y674D01*
D02*
X893Y623D02*
X893Y674D01*
D02*
X993Y620D02*
X993Y671D01*
D02*
X1093Y620D02*
X1093Y671D01*
D02*
X1193Y620D02*
X1193Y671D01*
D02*
X1293Y620D02*
X1293Y671D01*
D02*
X1393Y620D02*
X1393Y671D01*
D02*
X2293Y623D02*
X2293Y674D01*
D02*
X2393Y623D02*
X2393Y674D01*
D02*
X2493Y623D02*
X2493Y674D01*
D02*
X2593Y620D02*
X2593Y671D01*
D02*
X2693Y620D02*
X2693Y671D01*
D02*
X2793Y620D02*
X2793Y671D01*
D02*
X2893Y620D02*
X2893Y671D01*
D02*
X2993Y620D02*
X2993Y671D01*
G54D14*
D02*
X3417Y1920D02*
X3418Y1502D01*
D02*
X2968Y2320D02*
X3417Y1920D01*
D02*
X2923Y2321D02*
X2968Y2320D01*
D02*
X3519Y1972D02*
X2917Y2522D01*
D02*
X2917Y2522D02*
X2573Y2522D01*
D02*
X3518Y1402D02*
X3519Y1972D01*
G04 End of Copper1*
M02*