G04 MADE WITH FRITZING*
G04 WWW.FRITZING.ORG*
G04 DOUBLE SIDED*
G04 HOLES PLATED*
G04 CONTOUR ON CENTER OF CONTOUR VECTOR*
%ASAXBY*%
%FSLAX23Y23*%
%MOIN*%
%OFA0B0*%
%SFA1.0B1.0*%
%ADD10C,0.039370*%
%ADD11C,0.078000*%
%ADD12C,0.070000*%
%ADD13C,0.048000*%
%ADD14C,0.032000*%
%LNCOPPER0*%
G90*
G70*
G54D10*
X468Y2522D03*
G54D11*
X1943Y919D03*
X1943Y819D03*
X1693Y919D03*
X1693Y819D03*
X3518Y919D03*
X3518Y819D03*
X3268Y919D03*
X3268Y819D03*
G54D10*
X1543Y819D03*
X3118Y819D03*
X1943Y1147D03*
X1693Y1147D03*
X2343Y3597D03*
X2443Y3522D03*
X2543Y3447D03*
X2643Y3372D03*
X2743Y3297D03*
X2843Y3222D03*
X2943Y3147D03*
X3043Y3072D03*
X1518Y2747D03*
X1418Y2747D03*
X1318Y2747D03*
X1218Y2747D03*
X1118Y2747D03*
X1018Y2747D03*
X918Y2747D03*
X818Y2747D03*
X2543Y1672D03*
X2843Y1772D03*
X2943Y1872D03*
X1368Y2147D03*
X1418Y1947D03*
X1318Y1922D03*
X1018Y1947D03*
X1018Y2147D03*
X1943Y2522D03*
G54D11*
X418Y2647D03*
X518Y2647D03*
X618Y2647D03*
X718Y2647D03*
X818Y2647D03*
X918Y2647D03*
X1018Y2647D03*
X1118Y2647D03*
X1218Y2647D03*
X1318Y2647D03*
X1418Y2647D03*
X1518Y2647D03*
X1943Y2647D03*
X2043Y2647D03*
X2143Y2647D03*
X2243Y2647D03*
X2343Y2647D03*
X2443Y2647D03*
X2543Y2647D03*
X2643Y2647D03*
X2743Y2647D03*
X2843Y2647D03*
X2943Y2647D03*
X3043Y2647D03*
X418Y2047D03*
X518Y2047D03*
X618Y2047D03*
X718Y2047D03*
X818Y2047D03*
X918Y2047D03*
X1018Y2047D03*
X1118Y2047D03*
X1218Y2047D03*
X1318Y2047D03*
X1418Y2047D03*
X1518Y2047D03*
X1943Y2047D03*
X2043Y2047D03*
X2143Y2047D03*
X2243Y2047D03*
X2343Y2047D03*
X2443Y2047D03*
X2543Y2047D03*
X2643Y2047D03*
X2743Y2047D03*
X2843Y2047D03*
X2943Y2047D03*
X3043Y2047D03*
G54D10*
X693Y397D03*
X793Y397D03*
X893Y397D03*
X993Y397D03*
X1093Y397D03*
X1193Y397D03*
X1293Y397D03*
X1393Y397D03*
X2293Y397D03*
X2393Y397D03*
X2493Y397D03*
X2593Y397D03*
X2693Y397D03*
X2793Y397D03*
X2893Y397D03*
X2993Y397D03*
G54D12*
X3618Y1472D03*
X3618Y1371D03*
G54D11*
X1093Y122D03*
X1193Y122D03*
X1293Y122D03*
X1393Y122D03*
X2593Y122D03*
X2493Y122D03*
X2393Y122D03*
X2293Y122D03*
X693Y122D03*
X793Y122D03*
X893Y122D03*
X993Y122D03*
X2993Y122D03*
X2893Y122D03*
X2793Y122D03*
X2693Y122D03*
X3843Y2672D03*
X3843Y2572D03*
X3843Y2472D03*
X3843Y2372D03*
X3843Y2272D03*
X3843Y2172D03*
X3843Y2072D03*
X3843Y1972D03*
X3843Y1872D03*
X3843Y1772D03*
X3843Y1672D03*
X3743Y2672D03*
X3743Y2572D03*
X3743Y2472D03*
X3743Y2372D03*
X3743Y2272D03*
X3743Y2172D03*
X3743Y2072D03*
X3743Y1972D03*
X3743Y1872D03*
X3743Y1772D03*
X3743Y1672D03*
X3843Y1472D03*
X3843Y1372D03*
X3743Y1472D03*
X3743Y1372D03*
G54D10*
X3518Y1372D03*
X2543Y2522D03*
X2893Y2322D03*
X3418Y1472D03*
G54D13*
X446Y2542D02*
X417Y2570D01*
D02*
X417Y2570D02*
X417Y2605D01*
G54D14*
D02*
X719Y1922D02*
X718Y2011D01*
D02*
X1294Y1374D02*
X719Y1922D01*
D02*
X1293Y421D02*
X1294Y1374D01*
D02*
X1393Y1395D02*
X1393Y421D01*
D02*
X818Y1948D02*
X1393Y1395D01*
D02*
X818Y2011D02*
X818Y1948D01*
D02*
X1194Y1348D02*
X620Y1896D01*
D02*
X620Y1896D02*
X618Y2011D01*
D02*
X1193Y421D02*
X1194Y1348D01*
D02*
X1095Y1322D02*
X516Y1870D01*
D02*
X516Y1870D02*
X518Y2011D01*
D02*
X1093Y421D02*
X1095Y1322D01*
D02*
X991Y1296D02*
X417Y1849D01*
D02*
X417Y1849D02*
X418Y2011D01*
D02*
X993Y421D02*
X991Y1296D01*
D02*
X893Y421D02*
X892Y1270D01*
D02*
X892Y1270D02*
X317Y1823D01*
D02*
X317Y1823D02*
X317Y2695D01*
D02*
X317Y2695D02*
X369Y2747D01*
D02*
X369Y2747D02*
X469Y2747D01*
D02*
X469Y2747D02*
X516Y2695D01*
D02*
X516Y2695D02*
X517Y2682D01*
D02*
X618Y2697D02*
X618Y2682D01*
D02*
X518Y2822D02*
X618Y2697D01*
D02*
X318Y2822D02*
X518Y2822D01*
D02*
X243Y2722D02*
X318Y2822D01*
D02*
X243Y1772D02*
X243Y2722D01*
D02*
X793Y1247D02*
X243Y1772D01*
D02*
X793Y421D02*
X793Y1247D01*
D02*
X168Y2772D02*
X268Y2897D01*
D02*
X268Y2897D02*
X568Y2894D01*
D02*
X168Y1722D02*
X168Y2772D01*
D02*
X568Y2894D02*
X718Y2697D01*
D02*
X693Y1222D02*
X168Y1722D01*
D02*
X718Y2697D02*
X718Y2682D01*
D02*
X693Y421D02*
X693Y1222D01*
D02*
X2342Y1746D02*
X2343Y2011D01*
D02*
X2993Y1122D02*
X2342Y1746D01*
D02*
X2993Y421D02*
X2993Y1122D01*
D02*
X2242Y1720D02*
X2243Y2011D01*
D02*
X2893Y1097D02*
X2242Y1720D01*
D02*
X2893Y421D02*
X2893Y1097D01*
D02*
X2793Y421D02*
X2793Y1072D01*
D02*
X2793Y1072D02*
X2142Y1698D01*
D02*
X2142Y1698D02*
X2143Y2011D01*
D02*
X2693Y1047D02*
X2042Y1672D01*
D02*
X2042Y1672D02*
X2043Y2011D01*
D02*
X2693Y421D02*
X2693Y1047D01*
D02*
X2593Y1022D02*
X1942Y1646D01*
D02*
X1942Y1646D02*
X1943Y2011D01*
D02*
X2593Y421D02*
X2593Y1022D01*
D02*
X1843Y2697D02*
X1893Y2747D01*
D02*
X1893Y2747D02*
X1993Y2747D01*
D02*
X1842Y1620D02*
X1843Y2697D01*
D02*
X1993Y2747D02*
X2043Y2697D01*
D02*
X2493Y997D02*
X1842Y1620D01*
D02*
X2043Y2697D02*
X2043Y2682D01*
D02*
X2493Y421D02*
X2493Y997D01*
D02*
X2394Y972D02*
X1768Y1572D01*
D02*
X1768Y1572D02*
X1768Y2746D01*
D02*
X2393Y421D02*
X2394Y972D01*
D02*
X1768Y2746D02*
X1842Y2820D01*
D02*
X1842Y2820D02*
X2046Y2822D01*
D02*
X2046Y2822D02*
X2142Y2698D01*
D02*
X2142Y2698D02*
X2142Y2682D01*
D02*
X2242Y2698D02*
X2242Y2682D01*
D02*
X2096Y2894D02*
X2242Y2698D01*
D02*
X1794Y2898D02*
X2096Y2894D01*
D02*
X1694Y2772D02*
X1794Y2898D01*
D02*
X1694Y1523D02*
X1694Y2772D01*
D02*
X2294Y946D02*
X1694Y1523D01*
D02*
X2293Y421D02*
X2294Y946D01*
G54D13*
D02*
X3581Y1371D02*
X3548Y1372D01*
D02*
X3655Y1371D02*
X3702Y1372D01*
D02*
X3702Y1472D02*
X3655Y1472D01*
D02*
X3581Y1472D02*
X3448Y1472D01*
D02*
X3268Y960D02*
X3268Y1472D01*
D02*
X3268Y1472D02*
X3388Y1472D01*
D02*
X3518Y960D02*
X3518Y1341D01*
D02*
X3227Y819D02*
X3148Y819D01*
D02*
X1902Y819D02*
X1734Y819D01*
D02*
X3477Y819D02*
X3309Y819D01*
D02*
X1573Y819D02*
X1652Y819D01*
D02*
X1943Y1116D02*
X1943Y960D01*
D02*
X1693Y960D02*
X1693Y1116D01*
G54D14*
D02*
X2843Y1796D02*
X2843Y2011D01*
D02*
X3692Y1672D02*
X2568Y1672D01*
D02*
X2743Y2682D02*
X2743Y3272D01*
D02*
X2643Y2682D02*
X2643Y3347D01*
D02*
X2543Y2682D02*
X2543Y3422D01*
D02*
X2443Y2682D02*
X2443Y3497D01*
D02*
X2343Y2682D02*
X2343Y3572D01*
D02*
X1518Y2682D02*
X1518Y2722D01*
D02*
X818Y2682D02*
X818Y2722D01*
D02*
X918Y2722D02*
X918Y2682D01*
D02*
X1018Y2722D02*
X1018Y2682D01*
D02*
X1118Y2722D02*
X1118Y2682D01*
D02*
X1218Y2722D02*
X1218Y2682D01*
D02*
X1318Y2722D02*
X1318Y2682D01*
D02*
X1418Y2722D02*
X1418Y2682D01*
G54D13*
D02*
X2792Y2147D02*
X2744Y2096D01*
D02*
X2992Y2147D02*
X2792Y2147D01*
D02*
X3044Y2096D02*
X2992Y2147D01*
D02*
X2744Y2096D02*
X2743Y2088D01*
D02*
X3043Y2088D02*
X3044Y2096D01*
D02*
X1468Y2146D02*
X1398Y2146D01*
D02*
X1519Y2096D02*
X1468Y2146D01*
D02*
X1338Y2147D02*
X1268Y2147D01*
D02*
X1268Y2147D02*
X1219Y2096D01*
D02*
X1219Y2096D02*
X1219Y2088D01*
D02*
X1519Y2088D02*
X1519Y2096D01*
G54D14*
D02*
X1418Y2011D02*
X1418Y1971D01*
D02*
X1318Y1946D02*
X1318Y2011D01*
D02*
X1018Y1971D02*
X1018Y2011D01*
G54D13*
D02*
X968Y2147D02*
X988Y2147D01*
D02*
X1068Y2146D02*
X1119Y2096D01*
D02*
X1048Y2146D02*
X1068Y2146D01*
D02*
X919Y2096D02*
X968Y2147D01*
D02*
X1119Y2096D02*
X1119Y2088D01*
D02*
X919Y2088D02*
X919Y2096D01*
G54D14*
D02*
X2543Y1696D02*
X2543Y2011D01*
D02*
X2943Y1896D02*
X2943Y2011D01*
D02*
X3692Y1872D02*
X2968Y1872D01*
G54D13*
D02*
X2892Y2147D02*
X2992Y2147D01*
D02*
X2992Y2147D02*
X3044Y2096D01*
D02*
X3044Y2096D02*
X3043Y2088D01*
D02*
X2893Y2291D02*
X2892Y2147D01*
D02*
X2592Y2147D02*
X2492Y2147D01*
D02*
X2492Y2147D02*
X2444Y2096D01*
D02*
X2644Y2096D02*
X2592Y2147D01*
D02*
X2444Y2096D02*
X2443Y2088D01*
D02*
X2643Y2088D02*
X2644Y2096D01*
D02*
X1943Y2605D02*
X1943Y2552D01*
G54D14*
D02*
X2368Y3597D02*
X3346Y3594D01*
D02*
X3346Y3594D02*
X3744Y3196D01*
D02*
X3744Y3196D02*
X3743Y2707D01*
D02*
X3692Y2572D02*
X3707Y2572D01*
D02*
X3644Y2620D02*
X3692Y2572D01*
D02*
X3644Y3172D02*
X3644Y2620D01*
D02*
X3292Y3520D02*
X3644Y3172D01*
D02*
X2468Y3522D02*
X3292Y3520D01*
D02*
X2568Y3447D02*
X3268Y3447D01*
D02*
X3268Y3447D02*
X3568Y3147D01*
D02*
X3568Y3147D02*
X3568Y2596D01*
D02*
X3568Y2596D02*
X3692Y2472D01*
D02*
X3692Y2472D02*
X3707Y2472D01*
D02*
X3692Y2372D02*
X3707Y2372D01*
D02*
X3492Y2572D02*
X3692Y2372D01*
D02*
X3492Y3120D02*
X3492Y2572D01*
D02*
X3244Y3372D02*
X3492Y3120D01*
D02*
X2668Y3372D02*
X3244Y3372D01*
D02*
X3419Y3096D02*
X3419Y2547D01*
D02*
X3217Y3296D02*
X3419Y3096D01*
D02*
X2768Y3297D02*
X3217Y3296D01*
D02*
X3419Y2547D02*
X3692Y2272D01*
D02*
X3692Y2272D02*
X3707Y2272D01*
D02*
X3692Y2172D02*
X3707Y2172D01*
D02*
X3344Y2520D02*
X3692Y2172D01*
D02*
X3344Y3072D02*
X3344Y2520D01*
D02*
X3192Y3220D02*
X3344Y3072D01*
D02*
X2868Y3222D02*
X3192Y3220D01*
D02*
X2843Y2682D02*
X2843Y3197D01*
D02*
X3692Y2072D02*
X3707Y2072D01*
D02*
X3268Y2496D02*
X3692Y2072D01*
D02*
X3268Y3047D02*
X3268Y2496D01*
D02*
X3168Y3147D02*
X3268Y3047D01*
D02*
X2968Y3147D02*
X3168Y3147D01*
D02*
X2943Y2682D02*
X2943Y3122D01*
D02*
X3144Y3072D02*
X3192Y3020D01*
D02*
X3692Y1972D02*
X3707Y1972D01*
D02*
X3192Y2472D02*
X3692Y1972D01*
D02*
X3192Y3020D02*
X3192Y2472D01*
D02*
X3068Y3072D02*
X3144Y3072D01*
D02*
X3043Y2682D02*
X3043Y3047D01*
G54D13*
D02*
X2544Y2147D02*
X2492Y2147D01*
D02*
X2492Y2147D02*
X2444Y2096D01*
D02*
X2444Y2096D02*
X2443Y2088D01*
D02*
X2543Y2491D02*
X2544Y2147D01*
G54D14*
D02*
X3779Y2672D02*
X3807Y2672D01*
D02*
X3779Y2572D02*
X3807Y2572D01*
D02*
X3779Y2472D02*
X3807Y2472D01*
D02*
X3779Y2372D02*
X3807Y2372D01*
D02*
X3779Y2272D02*
X3807Y2272D01*
D02*
X3779Y2172D02*
X3807Y2172D01*
D02*
X3779Y2072D02*
X3807Y2072D01*
D02*
X3779Y1972D02*
X3807Y1972D01*
D02*
X3779Y1872D02*
X3807Y1872D01*
D02*
X3779Y1772D02*
X3807Y1772D01*
D02*
X3779Y1672D02*
X3807Y1672D01*
G54D13*
D02*
X3784Y1472D02*
X3802Y1472D01*
D02*
X3784Y1372D02*
X3802Y1372D01*
G54D14*
D02*
X1393Y372D02*
X1393Y157D01*
D02*
X1093Y372D02*
X1093Y157D01*
D02*
X1193Y372D02*
X1193Y157D01*
D02*
X1293Y372D02*
X1293Y157D01*
D02*
X893Y157D02*
X893Y372D01*
D02*
X693Y372D02*
X693Y157D01*
D02*
X993Y372D02*
X993Y157D01*
D02*
X793Y372D02*
X793Y157D01*
D02*
X2293Y372D02*
X2293Y157D01*
D02*
X2393Y372D02*
X2393Y157D01*
D02*
X2493Y372D02*
X2493Y157D01*
D02*
X2593Y372D02*
X2593Y157D01*
D02*
X2793Y372D02*
X2793Y157D01*
D02*
X2693Y372D02*
X2693Y157D01*
D02*
X2993Y372D02*
X2993Y157D01*
D02*
X2893Y372D02*
X2893Y157D01*
D02*
X3692Y1772D02*
X2868Y1772D01*
D02*
X3707Y1772D02*
X3692Y1772D01*
D02*
X3707Y1672D02*
X3692Y1672D01*
D02*
X3707Y1872D02*
X3692Y1872D01*
G04 End of Copper0*
M02*