; NON-PLATED HOLES START AT T1
; THROUGH (PLATED) HOLES START AT T100
M48
INCH
T1C0.118110
T100C0.030000
T101C0.015748
T102C0.038000
%
T1
X001430Y001215
X037680Y036215
X001430Y036215
X037680Y001215
T100
X036180Y014715
X036180Y013713
T101
X028430Y032215
X008930Y003965
X007930Y003965
X010180Y021465
X031180Y008186
X010180Y019465
X006930Y003965
X016930Y011465
X015430Y008186
X023930Y003965
X009180Y027465
X022930Y003965
X024930Y003965
X025930Y003965
X015180Y027465
X028930Y003965
X013680Y021465
X014180Y027465
X027930Y003965
X014180Y019465
X011930Y003965
X009930Y003965
X029430Y031465
X013180Y019215
X034180Y014715
X030430Y030715
X026430Y033715
X019430Y011465
X004680Y025215
X028930Y023215
X026930Y003965
X024430Y035215
X023430Y035965
X028430Y017715
X025430Y016715
X008180Y027465
X010930Y003965
X011180Y027465
X025430Y034465
X025430Y025215
X019430Y025215
X027430Y032965
X029430Y018715
X029930Y003965
X035180Y013715
X013180Y027465
X013930Y003965
X012180Y027465
X012930Y003965
X010180Y027465
T102
X037430Y021715
X038430Y013715
X008180Y026465
X024930Y001215
X029430Y026465
X025430Y026465
X035180Y008186
X037430Y024715
X014180Y026465
X008930Y001215
X038430Y026715
X037430Y014715
X011180Y020465
X007180Y020465
X005180Y020465
X007180Y026465
X008180Y020465
X009930Y001215
X013930Y001215
X038430Y023715
X028430Y026465
X015180Y026465
X020430Y026465
X026430Y026465
X023930Y001215
X037430Y018715
X026930Y001215
X038430Y025715
X006180Y026465
X037430Y026715
X038430Y021715
X037430Y019715
X024430Y026465
X004180Y026465
X020430Y020465
X013180Y020465
X022430Y020465
X019430Y026465
X038430Y020715
X025430Y020465
X035180Y009186
X037430Y022715
X004180Y020465
X027930Y001215
X011180Y026465
X038430Y022715
X016930Y008186
X010180Y026465
X023430Y020465
X016930Y009186
X009180Y020465
X021430Y020465
X026430Y020465
X019430Y008186
X038430Y017715
X038430Y019715
X030430Y026465
X028430Y020465
X032680Y009186
X012180Y020465
X038430Y018715
X014180Y020465
X037430Y025715
X038430Y016715
X037430Y023715
X006930Y001215
X010180Y020465
X015180Y020465
X037430Y016715
X022430Y026465
X010930Y001215
X038430Y014715
X038430Y024715
X021430Y026465
X019430Y009186
X019430Y020465
X007930Y001215
X032680Y008186
X013180Y026465
X011930Y001215
X037430Y013715
X028930Y001215
X037430Y017715
X012930Y001215
X024430Y020465
X005180Y026465
X027430Y020465
X025930Y001215
X029930Y001215
X006180Y020465
X029430Y020465
X009180Y026465
X012180Y026465
X037430Y020715
X030430Y020465
X022930Y001215
X027430Y026465
X023430Y026465
T00
M30
