<?xml version="1.0" encoding="UTF-8"?>
<svg width="186.71mm" height="176.99mm" version="1.1" viewBox="0 0 186.71 176.99">
<g  transform="translate(.29757 -1.9041)">
<rect x=".45948" y="2.6612" width="185.2" height="175.48" ry="1.7378" fill="#4d4d4d" stroke="#7f8080" stroke-width="1.5141"/>
<rect x="10.456" y="128.54" width="38.325" height="45.887" ry="1.7186" fill="#008000" stroke="#ff0" stroke-width=".2406"/>
<rect x="3.9258" y="15.838" width="44.855" height="44.34" ry="1.7186" fill="#008000" stroke="#ff0" stroke-width=".2406"/>
<rect x="34.236" y="23.918" width="13.854" height="5.8331" ry=".86794" stroke="#ff0" stroke-width=".2406"/>
<text x="41.105778" y="28.713011" fill="#ff0000" font-family="monospace" font-size="5.1329px" letter-spacing="0px" stroke="#ff0000" stroke-width=".2406" text-align="center" text-anchor="middle" word-spacing="0px" style="line-height:1.25" xml:space="preserve"><tspan x="41.105778" y="28.713011" fill="#ff0000" font-family="monospace" font-size="5.1329px" stroke="#ff0000" stroke-width=".2406" text-align="center" text-anchor="middle">0000</tspan></text>
<rect x="34.236" y="32.579" width="13.854" height="5.8331" ry=".86794" stroke="#ff0" stroke-width=".2406"/>
<text x="41.586987" y="37.374744" fill="#ff0000" font-family="monospace" font-size="5.1329px" letter-spacing="0px" stroke="#ff0000" stroke-width=".2406" text-align="center" text-anchor="middle" word-spacing="0px" style="line-height:1.25" xml:space="preserve"><tspan x="41.586987" y="37.374744" fill="#ff0000" font-family="monospace" font-size="5.1329px" stroke="#ff0000" stroke-width=".2406" text-align="center" text-anchor="middle">0000</tspan></text>
<rect x="34.236" y="41.241" width="13.854" height="5.8331" ry=".86794" stroke="#ff0" stroke-width=".2406"/>
<text x="41.105782" y="46.036491" fill="#ff0000" font-family="monospace" font-size="5.1329px" letter-spacing="0px" stroke="#ff0000" stroke-width=".2406" text-align="center" text-anchor="middle" word-spacing="0px" style="line-height:1.25" xml:space="preserve"><tspan x="41.105782" y="46.036491" fill="#ff0000" font-family="monospace" font-size="5.1329px" stroke="#ff0000" stroke-width=".2406" text-align="center" text-anchor="middle">0000</tspan></text>
<rect x="34.236" y="49.903" width="13.854" height="5.8331" ry=".86794" stroke="#ff0" stroke-width=".2406"/>
<text x="41.105782" y="54.698235" fill="#ff0000" font-family="monospace" font-size="5.1329px" letter-spacing="0px" stroke="#ff0000" stroke-width=".2406" text-align="center" text-anchor="middle" word-spacing="0px" style="line-height:1.25" xml:space="preserve"><tspan x="41.105782" y="54.698235" fill="#ff0000" font-family="monospace" font-size="5.1329px" stroke="#ff0000" stroke-width=".2406" text-align="center" text-anchor="middle">0000</tspan></text>
<text x="18.422586" y="21.312126" fill="#ffffff" font-family="monospace" font-size="4.4827px" letter-spacing="0px" stroke-width=".11207" word-spacing="0px" style="line-height:1.25" xml:space="preserve"><tspan x="18.422586" y="21.312126" fill="#ffffff" font-family="monospace" stroke-width=".11207">OUTPUT</tspan></text>
<rect x="79.957" y="6.3127" width="44.855" height="44.34" ry="1.7186" fill="#008000" stroke="#ff0" stroke-width=".2406"/>
<rect x="94.868" y="23.054" width="13.854" height="5.8331" ry=".86794" stroke="#ff0" stroke-width=".2406"/>
<text x="101.73798" y="27.849735" fill="#ff0000" font-family="monospace" font-size="5.1329px" letter-spacing="0px" stroke="#ff0000" stroke-width=".2406" text-align="center" text-anchor="middle" word-spacing="0px" style="line-height:1.25" xml:space="preserve"><tspan x="101.73798" y="27.849735" fill="#ff0000" font-family="monospace" font-size="5.1329px" stroke="#ff0000" stroke-width=".2406" text-align="center" text-anchor="middle">0000</tspan></text>
<rect x="94.868" y="37.972" width="13.854" height="5.8331" ry=".86794" stroke="#ff0" stroke-width=".2406"/>
<text x="101.73798" y="42.767185" fill="#ff0000" font-family="monospace" font-size="5.1329px" letter-spacing="0px" stroke="#ff0000" stroke-width=".2406" text-align="center" text-anchor="middle" word-spacing="0px" style="line-height:1.25" xml:space="preserve"><tspan x="101.73798" y="42.767185" fill="#ff0000" font-family="monospace" font-size="5.1329px" stroke="#ff0000" stroke-width=".2406" text-align="center" text-anchor="middle">0000</tspan></text>
<text x="81.69413" y="11.66561" fill="#ffffff" font-family="monospace" font-size="4.4827px" letter-spacing="0px" stroke-width=".11207" word-spacing="0px" style="line-height:1.25" xml:space="preserve"><tspan x="81.69413" y="11.66561" fill="#ffffff" font-family="monospace" stroke-width=".11207">PROGRAM COUNTER</tspan></text>
<text x="92.124054" y="22.372309" fill="#ffffff" font-family="monospace" font-size="3.227px" letter-spacing="0px" stroke-width=".080674" word-spacing="0px" style="line-height:1.25" xml:space="preserve"><tspan x="92.124054" y="22.372309" fill="#ffffff" font-family="monospace" stroke-width=".080674">JumpTarget</tspan></text>
<text x="95.011261" y="37.289761" fill="#ffffff" font-family="monospace" font-size="3.227px" letter-spacing="0px" stroke-width=".080674" word-spacing="0px" style="line-height:1.25" xml:space="preserve"><tspan x="95.011261" y="37.289761" fill="#ffffff" font-family="monospace" stroke-width=".080674">Current</tspan></text>
<g transform="matrix(.90937 0 0 .90937 -.026969 4.0222)">
<rect x="87.955" y="58.081" width="49.326" height="26.836" ry="1.8899" fill="#008000" stroke="#ff0" stroke-width=".26458"/>
<text x="112.46673" y="70.445946" fill="#ffffff" font-family="monospace" font-size="4.9294px" letter-spacing="0px" stroke-width=".12324" text-align="center" text-anchor="middle" word-spacing="0px" style="line-height:1.25" xml:space="preserve"><tspan x="112.46673" y="70.445946" text-align="center">PC / SP</tspan><tspan x="112.46673" y="76.607742" text-align="center">MUX</tspan></text>
</g>
<rect x="79.957" y="88.118" width="44.855" height="44.34" ry="1.7186" fill="#008000" stroke="#ff0" stroke-width=".2406"/>
<text x="102.24677" y="93.587593" fill="#ffffff" font-family="monospace" font-size="4.4827px" letter-spacing="0px" stroke-width=".11207" text-align="center" text-anchor="middle" word-spacing="0px" style="line-height:1.25" xml:space="preserve"><tspan x="102.24677" y="93.587593" text-align="center">MEMORY ADDRESS</tspan><tspan x="102.24677" y="99.190933" text-align="center">REGISTER</tspan></text>
<rect x="95.83" y="107.85" width="13.854" height="5.8331" ry=".86794" stroke="#ff0" stroke-width=".2406"/>
<text x="102.7004" y="112.64147" fill="#ff0000" font-family="monospace" font-size="5.1329px" letter-spacing="0px" stroke="#ff0000" stroke-width=".2406" text-align="center" text-anchor="middle" word-spacing="0px" style="line-height:1.25" xml:space="preserve"><tspan x="102.7004" y="112.64147" fill="#ff0000" font-family="monospace" font-size="5.1329px" stroke="#ff0000" stroke-width=".2406" text-align="center" text-anchor="middle">0000</tspan></text>
<text x="95.973663" y="107.16407" fill="#ffffff" font-family="monospace" font-size="3.227px" letter-spacing="0px" stroke-width=".080674" word-spacing="0px" style="line-height:1.25" xml:space="preserve"><tspan x="95.973663" y="107.16407" fill="#ffffff" font-family="monospace" stroke-width=".080674">Address</tspan></text>
<g transform="matrix(.90937 0 0 .90937 -.026969 9.7967)">
<rect x="87.955" y="142.22" width="49.326" height="33.829" ry="1.8899" fill="#008000" stroke="#ff0" stroke-width=".26458"/>
<text x="112.9959" y="160.933" fill="#ffffff" font-family="monospace" font-size="4.9294px" letter-spacing="0px" stroke-width=".12324" text-align="center" text-anchor="middle" word-spacing="0px" style="line-height:1.25" xml:space="preserve"><tspan x="112.9959" y="160.933" fill="#ffffff" font-family="monospace" stroke-width=".12324" text-align="center" text-anchor="middle">RAM</tspan></text>
</g>
<rect x="130.48" y="46.425" width="49.109" height="30.591" ry=".77337" fill="#008000" stroke="#ff0" stroke-width=".2406"/>
<text x="137.03275" y="51.605873" fill="#ffffff" font-family="monospace" font-size="4.4827px" letter-spacing="0px" stroke-width=".11207" word-spacing="0px" style="line-height:1.25" xml:space="preserve"><tspan x="137.03275" y="51.605873" fill="#ffffff" font-family="monospace" stroke-width=".11207">STACK POINTER</tspan></text>
<rect x="147.8" y="60.107" width="13.854" height="5.8331" ry=".86794" stroke="#ff0" stroke-width=".2406"/>
<text x="154.67096" y="64.902756" fill="#ff0000" font-family="monospace" font-size="5.1329px" letter-spacing="0px" stroke="#ff0000" stroke-width=".2406" text-align="center" text-anchor="middle" word-spacing="0px" style="line-height:1.25" xml:space="preserve"><tspan x="154.67096" y="64.902756" fill="#ff0000" font-family="monospace" font-size="5.1329px" stroke="#ff0000" stroke-width=".2406" text-align="center" text-anchor="middle">0000</tspan></text>
<rect x="130.48" y="117.64" width="51.548" height="51.974" ry=".77337" fill="#008000" stroke="#ff0" stroke-width=".2406"/>
<text x="155.63834" y="124.26811" fill="#ffffff" font-family="monospace" font-size="4.4827px" letter-spacing="0px" stroke-width=".11207" text-align="center" text-anchor="middle" word-spacing="0px" style="line-height:1.25" xml:space="preserve"><tspan x="155.63834" y="124.26811" fill="#ffffff" font-family="monospace" stroke-width=".11207" text-align="center" text-anchor="middle">ALU</tspan></text>
<rect x="144.91" y="159.24" width="13.854" height="5.8331" ry=".86794" stroke="#ff0" stroke-width=".2406"/>
<text x="151.78371" y="164.03194" fill="#ff0000" font-family="monospace" font-size="5.1329px" letter-spacing="0px" stroke="#ff0000" stroke-width=".2406" text-align="center" text-anchor="middle" word-spacing="0px" style="line-height:1.25" xml:space="preserve"><tspan x="151.78371" y="164.03194" fill="#ff0000" font-family="monospace" font-size="5.1329px" stroke="#ff0000" stroke-width=".2406" text-align="center" text-anchor="middle">0000</tspan></text>
<rect x="162.38" y="160.45" width="3.1596" height="3.2811" ry=".86794" stroke="#ff0" stroke-width=".2406"/>
<text x="164.02289" y="162.9382" fill="#ff0000" font-family="monospace" font-size="3.208px" letter-spacing="0px" stroke="#ff0000" stroke-width=".2406" text-align="center" text-anchor="middle" word-spacing="0px" style="line-height:1.25" xml:space="preserve"><tspan x="164.02289" y="162.9382" fill="#ff0000" font-family="monospace" font-size="3.208px" stroke="#ff0000" stroke-width=".2406" text-align="center" text-anchor="middle">x</tspan></text>
<text x="146.01878" y="158.07231" fill="#ffffff" font-family="monospace" font-size="3.227px" letter-spacing="0px" stroke-width=".080674" word-spacing="0px" style="line-height:1.25" xml:space="preserve"><tspan x="146.01878" y="158.07231" fill="#ffffff" font-family="monospace" stroke-width=".080674">Result</tspan></text>
<text x="166.04001" y="163.17628" fill="#ffffff" font-family="monospace" font-size="3.227px" letter-spacing="0px" stroke-width=".080674" word-spacing="0px" style="line-height:1.25" xml:space="preserve"><tspan x="166.04001" y="163.17628" fill="#ffffff" font-family="monospace" stroke-width=".080674">C.out</tspan></text>
<rect x="172.48" y="133.99" width="3.1596" height="3.2811" ry=".86794" stroke="#ff0" stroke-width=".2406"/>
<text x="174.12825" y="136.47176" fill="#ff0000" font-family="monospace" font-size="3.208px" letter-spacing="0px" stroke="#ff0000" stroke-width=".2406" text-align="center" text-anchor="middle" word-spacing="0px" style="line-height:1.25" xml:space="preserve"><tspan x="174.12825" y="136.47176" fill="#ff0000" font-family="monospace" font-size="3.208px" stroke="#ff0000" stroke-width=".2406" text-align="center" text-anchor="middle">x</tspan></text>
<text x="177.10764" y="136.71022" fill="#ffffff" font-family="monospace" font-size="3.227px" letter-spacing="0px" stroke-width=".080674" word-spacing="0px" style="line-height:1.25" xml:space="preserve"><tspan x="177.10764" y="136.71022" fill="#ffffff" font-family="monospace" stroke-width=".080674">C</tspan></text>
<rect x="172.48" y="138.8" width="3.1596" height="3.2811" ry=".86794" stroke="#ff0" stroke-width=".2406"/>
<text x="174.12825" y="141.28384" fill="#ff0000" font-family="monospace" font-size="3.208px" letter-spacing="0px" stroke="#ff0000" stroke-width=".2406" text-align="center" text-anchor="middle" word-spacing="0px" style="line-height:1.25" xml:space="preserve"><tspan x="174.12825" y="141.28384" fill="#ff0000" font-family="monospace" font-size="3.208px" stroke="#ff0000" stroke-width=".2406" text-align="center" text-anchor="middle">x</tspan></text>
<text x="177.10764" y="141.52223" fill="#ffffff" font-family="monospace" font-size="3.227px" letter-spacing="0px" stroke-width=".080674" word-spacing="0px" style="line-height:1.25" xml:space="preserve"><tspan x="177.10764" y="141.52223" fill="#ffffff" font-family="monospace" stroke-width=".080674">V</tspan></text>
<rect x="172.48" y="143.61" width="3.1596" height="3.2811" ry=".86794" stroke="#ff0" stroke-width=".2406"/>
<text x="174.12825" y="146.09592" fill="#ff0000" font-family="monospace" font-size="3.208px" letter-spacing="0px" stroke="#ff0000" stroke-width=".2406" text-align="center" text-anchor="middle" word-spacing="0px" style="line-height:1.25" xml:space="preserve"><tspan x="174.12825" y="146.09592" fill="#ff0000" font-family="monospace" font-size="3.208px" stroke="#ff0000" stroke-width=".2406" text-align="center" text-anchor="middle">x</tspan></text>
<text x="177.10764" y="146.33424" fill="#ffffff" font-family="monospace" font-size="3.227px" letter-spacing="0px" stroke-width=".080674" word-spacing="0px" style="line-height:1.25" xml:space="preserve"><tspan x="177.10764" y="146.33424" fill="#ffffff" font-family="monospace" stroke-width=".080674">Z</tspan></text>
<rect x="172.48" y="148.42" width="3.1596" height="3.2811" ry=".86794" stroke="#ff0" stroke-width=".2406"/>
<text x="174.12825" y="150.908" fill="#ff0000" font-family="monospace" font-size="3.208px" letter-spacing="0px" stroke="#ff0000" stroke-width=".2406" text-align="center" text-anchor="middle" word-spacing="0px" style="line-height:1.25" xml:space="preserve"><tspan x="174.12825" y="150.908" fill="#ff0000" font-family="monospace" font-size="3.208px" stroke="#ff0000" stroke-width=".2406" text-align="center" text-anchor="middle">x</tspan></text>
<text x="177.10764" y="151.14626" fill="#ffffff" font-family="monospace" font-size="3.227px" letter-spacing="0px" stroke-width=".080674" word-spacing="0px" style="line-height:1.25" xml:space="preserve"><tspan x="177.10764" y="151.14626" fill="#ffffff" font-family="monospace" stroke-width=".080674">N</tspan></text>
<rect x="144.91" y="137.58" width="13.854" height="5.8331" ry=".86794" stroke="#ff0" stroke-width=".2406"/>
<text x="151.78371" y="142.37746" fill="#ff0000" font-family="monospace" font-size="5.1329px" letter-spacing="0px" stroke="#ff0000" stroke-width=".2406" text-align="center" text-anchor="middle" word-spacing="0px" style="line-height:1.25" xml:space="preserve"><tspan x="151.78371" y="142.37746" fill="#ff0000" font-family="monospace" font-size="5.1329px" stroke="#ff0000" stroke-width=".2406" text-align="center" text-anchor="middle">ADD</tspan></text>
<text x="143.13158" y="136.41826" fill="#ffffff" font-family="monospace" font-size="3.227px" letter-spacing="0px" stroke-width=".080674" word-spacing="0px" style="line-height:1.25" xml:space="preserve"><tspan x="143.13158" y="136.41826" fill="#ffffff" font-family="monospace" stroke-width=".080674">Operation</tspan></text>
<text x="169.93364" y="132.23831" fill="#ffffff" font-family="monospace" font-size="3.227px" letter-spacing="0px" stroke-width=".080674" word-spacing="0px" style="line-height:1.25" xml:space="preserve"><tspan x="169.93364" y="132.23831" fill="#ffffff" font-family="monospace" stroke-width=".080674">Flags</tspan></text>
<rect x="130.48" y="6.3127" width="49.352" height="35.575" ry=".77337" fill="#008000" stroke="#ff0" stroke-width=".2406"/>
<text x="142.32596" y="11.665603" fill="#ffffff" font-family="monospace" font-size="4.4827px" letter-spacing="0px" stroke-width=".11207" word-spacing="0px" style="line-height:1.25" xml:space="preserve"><tspan x="142.32596" y="11.665603" fill="#ffffff" font-family="monospace" stroke-width=".11207">REGISTERS</tspan></text>
<rect x="131.44" y="21.611" width="13.854" height="5.8331" ry=".86794" stroke="#ff0" stroke-width=".2406"/>
<text x="138.3098" y="26.406113" fill="#ff0000" font-family="monospace" font-size="5.1329px" letter-spacing="0px" stroke="#ff0000" stroke-width=".2406" text-align="center" text-anchor="middle" word-spacing="0px" style="line-height:1.25" xml:space="preserve"><tspan x="138.3098" y="26.406113" fill="#ff0000" font-family="monospace" font-size="5.1329px" stroke="#ff0000" stroke-width=".2406" text-align="center" text-anchor="middle">0000</tspan></text>
<rect x="147.32" y="21.611" width="13.854" height="5.8331" ry=".86794" stroke="#ff0" stroke-width=".2406"/>
<text x="154.18974" y="26.406115" fill="#ff0000" font-family="monospace" font-size="5.1329px" letter-spacing="0px" stroke="#ff0000" stroke-width=".2406" text-align="center" text-anchor="middle" word-spacing="0px" style="line-height:1.25" xml:space="preserve"><tspan x="154.18974" y="26.406115" fill="#ff0000" font-family="monospace" font-size="5.1329px" stroke="#ff0000" stroke-width=".2406" text-align="center" text-anchor="middle">0000</tspan></text>
<rect x="163.2" y="21.611" width="13.854" height="5.8331" ry=".86794" stroke="#ff0" stroke-width=".2406"/>
<text x="170.0697" y="26.406115" fill="#ff0000" font-family="monospace" font-size="5.1329px" letter-spacing="0px" stroke="#ff0000" stroke-width=".2406" text-align="center" text-anchor="middle" word-spacing="0px" style="line-height:1.25" xml:space="preserve"><tspan x="170.0697" y="26.406115" fill="#ff0000" font-family="monospace" font-size="5.1329px" stroke="#ff0000" stroke-width=".2406" text-align="center" text-anchor="middle">0000</tspan></text>
<rect x="163.2" y="33.641" width="13.854" height="5.8331" ry=".86794" stroke="#ff0" stroke-width=".2406"/>
<text x="170.0697" y="38.436314" fill="#ff0000" font-family="monospace" font-size="5.1329px" letter-spacing="0px" stroke="#ff0000" stroke-width=".2406" text-align="center" text-anchor="middle" word-spacing="0px" style="line-height:1.25" xml:space="preserve"><tspan x="170.0697" y="38.436314" fill="#ff0000" font-family="monospace" font-size="5.1329px" stroke="#ff0000" stroke-width=".2406" text-align="center" text-anchor="middle">0000</tspan></text>
<text x="137.36006" y="20.700298" fill="#ffffff" font-family="monospace" font-size="3.227px" letter-spacing="0px" stroke-width=".080674" word-spacing="0px" style="line-height:1.25" xml:space="preserve"><tspan x="137.36006" y="20.700298" fill="#ffffff" font-family="monospace" stroke-width=".080674">X</tspan></text>
<text x="153.2397" y="20.700287" fill="#ffffff" font-family="monospace" font-size="3.227px" letter-spacing="0px" stroke-width=".080674" word-spacing="0px" style="line-height:1.25" xml:space="preserve"><tspan x="153.2397" y="20.700287" fill="#ffffff" font-family="monospace" stroke-width=".080674">Y</tspan></text>
<text x="169.11934" y="20.700287" fill="#ffffff" font-family="monospace" font-size="3.227px" letter-spacing="0px" stroke-width=".080674" word-spacing="0px" style="line-height:1.25" xml:space="preserve"><tspan x="169.11934" y="20.700287" fill="#ffffff" font-family="monospace" stroke-width=".080674">Z</tspan></text>
<text x="169.11934" y="32.730492" fill="#ffffff" font-family="monospace" font-size="3.227px" letter-spacing="0px" stroke-width=".080674" word-spacing="0px" style="line-height:1.25" xml:space="preserve"><tspan x="169.11934" y="32.730492" fill="#ffffff" font-family="monospace" stroke-width=".080674">T</tspan></text>
<rect x="130.48" y="81.553" width="47.595" height="33.069" ry=".77337" fill="#008000" stroke="#ff0" stroke-width=".2406"/>
<text x="153.71353" y="87.696495" fill="#ffffff" font-family="monospace" font-size="4.4827px" letter-spacing="0px" stroke-width=".11207" text-align="center" text-anchor="middle" word-spacing="0px" style="line-height:1.25" xml:space="preserve"><tspan x="153.71353" y="87.696495" text-align="center">OPERAND</tspan><tspan x="153.71353" y="93.299835" text-align="center">REGISTERS</tspan></text>
<rect x="135.29" y="101.97" width="13.854" height="5.8331" ry=".86794" stroke="#ff0" stroke-width=".2406"/>
<text x="142.1595" y="106.76786" fill="#ff0000" font-family="monospace" font-size="5.1329px" letter-spacing="0px" stroke="#ff0000" stroke-width=".2406" text-align="center" text-anchor="middle" word-spacing="0px" style="line-height:1.25" xml:space="preserve"><tspan x="142.1595" y="106.76786" fill="#ff0000" font-family="monospace" font-size="5.1329px" stroke="#ff0000" stroke-width=".2406" text-align="center" text-anchor="middle">0000</tspan></text>
<rect x="158.87" y="101.97" width="13.854" height="5.8331" ry=".86794" stroke="#ff0" stroke-width=".2406"/>
<text x="165.73883" y="106.76786" fill="#ff0000" font-family="monospace" font-size="5.1329px" letter-spacing="0px" stroke="#ff0000" stroke-width=".2406" text-align="center" text-anchor="middle" word-spacing="0px" style="line-height:1.25" xml:space="preserve"><tspan x="165.73883" y="106.76786" fill="#ff0000" font-family="monospace" font-size="5.1329px" stroke="#ff0000" stroke-width=".2406" text-align="center" text-anchor="middle">0000</tspan></text>
<text x="141.20963" y="100.58083" fill="#ffffff" font-family="monospace" font-size="3.227px" letter-spacing="0px" stroke-width=".080674" word-spacing="0px" style="line-height:1.25" xml:space="preserve"><tspan x="141.20963" y="100.58083" fill="#ffffff" font-family="monospace" stroke-width=".080674">A</tspan></text>
<text x="164.78848" y="100.58083" fill="#ffffff" font-family="monospace" font-size="3.227px" letter-spacing="0px" stroke-width=".080674" word-spacing="0px" style="line-height:1.25" xml:space="preserve"><tspan x="164.78848" y="100.58083" fill="#ffffff" font-family="monospace" stroke-width=".080674">B</tspan></text>
<rect x="3.9258" y="79.938" width="44.855" height="44.34" ry="1.7186" fill="#008000" stroke="#ff0" stroke-width=".2406"/>
<text x="26.215889" y="86.850677" fill="#ffffff" font-family="monospace" font-size="4.4827px" letter-spacing="0px" stroke-width=".11207" text-align="center" text-anchor="middle" word-spacing="0px" style="line-height:1.25" xml:space="preserve"><tspan x="26.215889" y="86.850677" text-align="center">INSTRUCTION</tspan><tspan x="26.215889" y="92.454018" text-align="center">REGISTER</tspan></text>
<rect x="13.544" y="107.27" width="8.0104" height="5.8331" ry=".86794" stroke="#ff0" stroke-width=".2406"/>
<text x="17.52659" y="112.06114" fill="#ff0000" font-family="monospace" font-size="5.1329px" letter-spacing="0px" stroke="#ff0000" stroke-width=".2406" text-align="center" text-anchor="middle" word-spacing="0px" style="line-height:1.25" xml:space="preserve"><tspan x="17.52659" y="112.06114" fill="#ff0000" font-family="monospace" font-size="5.1329px" stroke="#ff0000" stroke-width=".2406" text-align="center" text-anchor="middle">00</tspan></text>
<rect x="33.273" y="107.27" width="8.0104" height="5.8331" ry=".86794" stroke="#ff0" stroke-width=".2406"/>
<text x="37.256115" y="112.06114" fill="#ff0000" font-family="monospace" font-size="5.1329px" letter-spacing="0px" stroke="#ff0000" stroke-width=".2406" text-align="center" text-anchor="middle" word-spacing="0px" style="line-height:1.25" xml:space="preserve"><tspan x="37.256115" y="112.06114" fill="#ff0000" font-family="monospace" font-size="5.1329px" stroke="#ff0000" stroke-width=".2406" text-align="center" text-anchor="middle">00</tspan></text>
<text x="6.9501739" y="106.5837" fill="#ffffff" font-family="monospace" font-size="3.227px" letter-spacing="0px" stroke-width=".080674" word-spacing="0px" style="line-height:1.25" xml:space="preserve"><tspan x="6.9501739" y="106.5837" fill="#ffffff" font-family="monospace" stroke-width=".080674">Instruction</tspan></text>
<text x="33.416618" y="106.5837" fill="#ffffff" font-family="monospace" font-size="3.227px" letter-spacing="0px" stroke-width=".080674" word-spacing="0px" style="line-height:1.25" xml:space="preserve"><tspan x="33.416618" y="106.5837" fill="#ffffff" font-family="monospace" stroke-width=".080674">Step</tspan></text>
<text x="29.584341" y="134.49001" fill="#ffffff" font-family="monospace" font-size="4.4827px" letter-spacing="0px" stroke-width=".11207" text-align="center" text-anchor="middle" word-spacing="0px" style="line-height:1.25" xml:space="preserve"><tspan x="29.584341" y="134.49001" fill="#ffffff" font-family="monospace" stroke-width=".11207" text-align="center" text-anchor="middle">DECODER</tspan></text>
<rect x="54.934" y="6.3127" width="19.092" height="157.36" ry="1.7186" fill="#008000" stroke="#ff0" stroke-width=".2406"/>
<text x="60.287689" y="11.787132" fill="#ffffff" font-family="monospace" font-size="4.4827px" letter-spacing="0px" stroke-width=".11207" word-spacing="0px" style="line-height:1.25" xml:space="preserve"><tspan x="60.287689" y="11.787132" fill="#ffffff" font-family="monospace" stroke-width=".11207">BUS</tspan></text>
<rect x="60.221" y="13.43" width="8.0104" height="5.8331" ry=".86794" stroke="#ff0" stroke-width=".2406"/>
<text x="64.203751" y="18.22558" fill="#ff0000" font-family="monospace" font-size="5.1329px" letter-spacing="0px" stroke="#ff0000" stroke-width=".2406" text-align="center" text-anchor="middle" word-spacing="0px" style="line-height:1.25" xml:space="preserve"><tspan x="64.203751" y="18.22558" fill="#ff0000" font-family="monospace" font-size="5.1329px" stroke="#ff0000" stroke-width=".2406" text-align="center" text-anchor="middle">00</tspan></text>
<g transform="matrix(.00046642 0 0 -.00046642 49.081 29.581)" fill="#ff0" stroke="#ff0">
<path d="m6965 11229c-18-5-351-280-800-661-2115-1791-3476-2943-4520-3826-632-535-1163-991-1179-1012-35-47-40-115-13-166 10-19 480-424 1189-1026 645-547 1900-1610 2788-2363s1817-1540 2063-1750c246-209 467-390 490-403 78-43 177-10 214 73 17 37 18 110 18 1320v1280l2017 5 21304 5 27 21c40 29 64 65 74 110 13 52 13 5466 0 5518-10 45-34 81-74 110l-27 21-21322 3-2034 2-2 1318-3 1317-24 39c-38 61-112 87-186 65z" fill="#ff0" stroke="#ff0"/>
</g>
<g transform="matrix(.00046642 0 0 -.00046642 49.081 38.242)" fill="#ff0" stroke="#ff0">
<path d="m6965 11229c-18-5-351-280-800-661-2115-1791-3476-2943-4520-3826-632-535-1163-991-1179-1012-35-47-40-115-13-166 10-19 480-424 1189-1026 645-547 1900-1610 2788-2363s1817-1540 2063-1750c246-209 467-390 490-403 78-43 177-10 214 73 17 37 18 110 18 1320v1280l2017 5 21304 5 27 21c40 29 64 65 74 110 13 52 13 5466 0 5518-10 45-34 81-74 110l-27 21-21322 3-2034 2-2 1318-3 1317-24 39c-38 61-112 87-186 65z" fill="#ff0" stroke="#ff0"/>
</g>
<g transform="matrix(.00046642 0 0 -.00046642 49.081 55.566)" fill="#ff0" stroke="#ff0">
<path d="m6965 11229c-18-5-351-280-800-661-2115-1791-3476-2943-4520-3826-632-535-1163-991-1179-1012-35-47-40-115-13-166 10-19 480-424 1189-1026 645-547 1900-1610 2788-2363s1817-1540 2063-1750c246-209 467-390 490-403 78-43 177-10 214 73 17 37 18 110 18 1320v1280l2017 5 21304 5 27 21c40 29 64 65 74 110 13 52 13 5466 0 5518-10 45-34 81-74 110l-27 21-21322 3-2034 2-2 1318-3 1317-24 39c-38 61-112 87-186 65z" fill="#ff0" stroke="#ff0"/>
</g>
<g transform="matrix(0 -.00046642 .00046642 0 99.978 87.623)" fill="#ff0" stroke="#ff0">
<path d="m6965 11229c-18-5-351-280-800-661-2115-1791-3476-2943-4520-3826-632-535-1163-991-1179-1012-35-47-40-115-13-166 10-19 480-424 1189-1026 645-547 1900-1610 2788-2363s1817-1540 2063-1750c246-209 467-390 490-403 78-43 177-10 214 73 17 37 18 110 18 1320v1280l4034 10 27 21c40 29 64 65 74 110 13 52 13 5466 0 5518-10 45-34 81-74 110l-27 21-2035 3-2034 2-2 1318-3 1317-24 39c-38 61-112 87-186 65z" fill="#ff0" stroke="#ff0"/>
</g>
<g transform="matrix(-.00046642 0 0 -.00046642 79.863 150.72)" fill="#ff0" stroke="#ff0">
<path d="m6965 11229c-18-5-351-280-800-661-2115-1791-3476-2943-4520-3826-632-535-1163-991-1179-1012-35-47-40-115-13-166 10-19 480-424 1189-1026 645-547 1900-1610 2788-2363s1817-1540 2063-1750c246-209 467-390 490-403 78-43 177-10 214 73 17 37 18 110 18 1320v1280l2017 5 22438 5 27 21c40 29 64 65 74 110 13 52 13 5466 0 5518-10 45-34 81-74 110l-27 21-22456 3-2034 2-2 1318-3 1317-24 39c-38 61-112 87-186 65z" fill="#ff0" stroke="#ff0"/>
</g>
<g transform="matrix(.00046642 0 0 -.00046642 74.362 156.98)" fill="#ff0" stroke-width="0">
<path d="m-11187 11229c-18-5-351-280-800-661-2115-1791-3476-2943-4520-3826-632-535-1163-991-1179-1012-35-47-40-115-13-166 10-19 480-424 1189-1026 645-547 1900-1610 2788-2363s1817-1540 2063-1750c246-209 467-390 490-403 78-43 177-10 214 73 17 37-784.59 414.49 18 1320v1280l2017 5 20169 5 27 21c40 29 64 65 74 110 13 52 13 5466 0 5518-10 45-34 81-74 110l-27 21-20187 3-2034 2-2 1318-3 1317-24 39c-38 61-112 87-186 65z" fill="#ff0" stroke-width="0"/>
</g>
<g transform="matrix(0 .00046642 .00046642 0 61.98 164.12)" fill="#ff0" stroke="#ff0">
<path d="m17466 190043-27-182085-20705 3-2034 2-2 1318-3 1317-24 39c-38 61-112 87-186 65-18-5-351-280-800-661-2115-1791-3476-2943-4520-3826-632-535-1163-991-1179-1012-35-47-40-115-13-166 10-19 480-424 1189-1026 645-547 1900-1610 2788-2363 888-753 1817-1540 2063-1750 246-209 467-390 490-403 78-43 177-10 214 73 17 37 18 110 18 1320v1280l2017 5 23782 5-4099.8 21c40 29 6254.2 65 6264.2 110 13 52 12.366 192730 0 192782-5.318 22.43-10222 14.25-10222 14.25l-35.315-5067.4" fill="#ff0" stroke="#ff0"/>
</g>
<g transform="matrix(.00046642 0 0 -.00046642 124.83 70.258)" fill="#ff0" stroke="#ff0">
<path d="m6965 11229c-18-5-351-280-800-661-2115-1791-3476-2943-4520-3826-632-535-1163-991-1179-1012-35-47-40-115-13-166 10-19 480-424 1189-1026 645-547 1900-1610 2788-2363s1817-1540 2063-1750c246-209 467-390 490-403 78-43 177-10 214 73 17 37 18 110 18 1320v1280l4034 10 27 21c40 29 64 65 74 110 13 52 13 5466 0 5518-10 45-34 81-74 110l-27 21-2035 3-2034 2-2 1318-3 1317-24 39c-38 61-112 87-186 65z" fill="#ff0" stroke="#ff0"/>
</g>
<g transform="matrix(-.00046642 0 0 -.00046642 79.863 121.89)" fill="#ff0" stroke="#ff0">
<path d="m-29340 11229c-18-5-351-280-800-661-2115-1791-3476-2943-4520-3826-632-535-1163-991-1179-1012-35-47-40-115-13-166 10-19 480-424 1189-1026 645-547 1900-1610 2788-2363s1817-1540 2063-1750c246-209 467-390 490-403 78-43 177-10 214 73 17 37-784.59 414.49 18 1320v1280l2017 5 58743 5 27 21c40 29 64 65 74 110 13 52 13 5466 0 5518-10 45-34 81-74 110l-27 21-58761 3-2034 2-2 1318-3 1317-24 39c-38 61-112 87-186 65z" fill="#ff0" stroke="#ff0"/>
</g>
<g transform="matrix(0 -.00046642 .00046642 0 98.833 35.263)" fill="#ff0" stroke="#ff0">
<path d="m6965 11229c-18-5-351-280-800-661-2115-1791-3476-2943-4520-3826-632-535-1163-991-1179-1012-35-47-40-115-13-166 10-19 480-424 1189-1026 645-547 1900-1610 2788-2363s1817-1540 2063-1750c246-209 467-390 490-403 78-43 177-10 214 73 17 37 18 110 18 1320v1280l4034 10 27 21c40 29 64 65 74 110 13 52 13 5466 0 5518-10 45-34 81-74 110l-27 21-2035 3-2034 2-2 1318-3 1317-24 39c-38 61-112 87-186 65z" fill="#ff0" stroke="#ff0"/>
</g>
<g transform="matrix(-.00046642 0 0 -.00046642 161.09 39.074)" fill="#ff0" stroke="#ff0">
<path d="m6965 11229c-18-5-351-280-800-661-2115-1791-3476-2943-4520-3826-632-535-1163-991-1179-1012-35-47-40-115-13-166 10-19 480-424 1189-1026 645-547 1900-1610 2788-2363s1817-1540 2063-1750c246-209 467-390 490-403 78-43 177-10 214 73 17 37 18 110 18 1320v1280l4034 10 27 21c40 29 64 65 74 110 13 52 13 5466 0 5518-10 45-34 81-74 110l-27 21-2035 3-2034 2-2 1318-3 1317-24 39c-38 61-112 87-186 65z" fill="#ff0" stroke="#ff0"/>
</g>
<g transform="matrix(.00046642 0 0 .00046642 73.937 37.932)" fill="#ff0" stroke="#ff0">
<path d="m-10053 11229c-18-5-351-280-800-661-2115-1791-3476-2943-4520-3826-632-535-1163-991-1179-1012-35-47-40-115-13-166 10-19 480-424 1189-1026 645-547 1900-1610 2788-2363s1817-1540 2063-1750c246-209 467-390 490-403 78-43 177-10 214 73 17 37 18 110 18 1320v1280l2017 5 19035 5 27 21c40 29 64 65 74 110 13 52 13 5466 0 5518-10 45-34 81-74 110l-27 21-19053 3-2034 2-2 1318-3 1317-24 39c-38 61-112 87-186 65z" fill="#ff0" stroke="#ff0"/>
</g>
<g transform="matrix(.00046642 0 0 -.00046642 150.83 39.074)" fill="#ff0" stroke="#ff0">
<path d="m6965 11229c-18-5-351-280-800-661-2115-1791-3476-2943-4520-3826-632-535-1163-991-1179-1012-35-47-40-115-13-166 10-19 480-424 1189-1026 645-547 1900-1610 2788-2363s1817-1540 2063-1750c246-209 467-390 490-403 78-43 177-10 214 73 17 37 18 110 18 1320v1280l4034 10 27 21c40 29 64 65 74 110 13 52 13 5466 0 5518-10 45-34 81-74 110l-27 21-2035 3-2034 2-2 1318-3 1317-24 39c-38 61-112 87-186 65z" fill="#ff0" stroke="#ff0"/>
</g>
<g transform="matrix(.00046642 0 0 -.00046642 49.081 47.043)" fill="#ff0" stroke="#ff0">
<path d="m6965 11229c-18-5-351-280-800-661-2115-1791-3476-2943-4520-3826-632-535-1163-991-1179-1012-35-47-40-115-13-166 10-19 480-424 1189-1026 645-547 1900-1610 2788-2363s1817-1540 2063-1750c246-209 467-390 490-403 78-43 177-10 214 73 17 37 18 110 18 1320v1280l2017 5 21304 5 27 21c40 29 64 65 74 110 13 52 13 5466 0 5518-10 45-34 81-74 110l-27 21-21322 3-2034 2-2 1318-3 1317-24 39c-38 61-112 87-186 65z" fill="#ff0" stroke="#ff0"/>
</g>
<g fill="#ff0">
<path d="m137.3 28.311v1.9238l-10.766 0.13086-0.14844 22.379-56.947 0.07031 2e-3 2 58.934-0.07422 0.14648-22.398 10.779-0.13281v-3.8984z" color="#000000" color-rendering="auto" dominant-baseline="auto" image-rendering="auto" shape-rendering="auto" solid-color="#000000" style="font-feature-settings:normal;font-variant-alternates:normal;font-variant-caps:normal;font-variant-ligatures:normal;font-variant-numeric:normal;font-variant-position:normal;isolation:auto;mix-blend-mode:normal;shape-padding:0;text-decoration-color:#000000;text-decoration-line:none;text-decoration-style:solid;text-indent:0;text-orientation:mixed;text-transform:none;white-space:normal"/>
<path d="m67.136 53.818 3.4575-2.0044 5e-3 4z" fill-rule="evenodd" stroke="#ff0" stroke-width=".4pt"/>
</g>
<path d="m64.382 25.615v132.44" fill="none" stroke="#ff0" stroke-width="3"/>
<g fill="#ff0">
<path d="m141.58 110.94v4.2148h-14.742v19.656h-61.744v2h63.744v-19.656h14.742v-6.2148z" color="#000000" color-rendering="auto" dominant-baseline="auto" image-rendering="auto" shape-rendering="auto" solid-color="#000000" style="font-feature-settings:normal;font-variant-alternates:normal;font-variant-caps:normal;font-variant-ligatures:normal;font-variant-numeric:normal;font-variant-position:normal;isolation:auto;mix-blend-mode:normal;shape-padding:0;text-decoration-color:#000000;text-decoration-line:none;text-decoration-style:solid;text-indent:0;text-orientation:mixed;text-transform:none;white-space:normal"/>
<path d="m142.58 108.63 2 3.46h-4z" fill-rule="evenodd" stroke="#ff0" stroke-width=".4pt"/>
</g>
<g transform="translate(5.4833e-7 -1.1068e-6)">
<g fill="#ff0">
<path d="m164.86 110.94v4.2148h-38.025v19.656h-61.744v2h63.744v-19.656h38.025v-6.2148z" color="#000000" color-rendering="auto" dominant-baseline="auto" image-rendering="auto" shape-rendering="auto" solid-color="#000000" style="font-feature-settings:normal;font-variant-alternates:normal;font-variant-caps:normal;font-variant-ligatures:normal;font-variant-numeric:normal;font-variant-position:normal;isolation:auto;mix-blend-mode:normal;shape-padding:0;text-decoration-color:#000000;text-decoration-line:none;text-decoration-style:solid;text-indent:0;text-orientation:mixed;text-transform:none;white-space:normal"/>
<path d="m165.86 108.63 2 3.46h-4z" fill-rule="evenodd" stroke="#ff0" stroke-width=".4pt"/>
</g>
</g>
<g transform="matrix(1 0 0 -1 0 231)">
<g fill="#ff0">
<path d="m98.488 127.15v2.4024h-34.152v2h36.152v-4.4024z" color="#000000" color-rendering="auto" dominant-baseline="auto" image-rendering="auto" shape-rendering="auto" solid-color="#000000" style="font-feature-settings:normal;font-variant-alternates:normal;font-variant-caps:normal;font-variant-ligatures:normal;font-variant-numeric:normal;font-variant-position:normal;isolation:auto;mix-blend-mode:normal;shape-padding:0;text-decoration-color:#000000;text-decoration-line:none;text-decoration-style:solid;text-indent:0;text-orientation:mixed;text-transform:none;white-space:normal"/>
<path d="m99.488 124.84 2 3.46h-4z" fill-rule="evenodd" stroke="#ff0" stroke-width=".4pt"/>
</g>
</g>
<g transform="matrix(1 0 0 -1 0 231)">
<g fill="#ff0">
<path d="m104.84 127.15v2.4024h-40.502v2h42.502v-4.4024z" color="#000000" color-rendering="auto" dominant-baseline="auto" image-rendering="auto" shape-rendering="auto" solid-color="#000000" style="font-feature-settings:normal;font-variant-alternates:normal;font-variant-caps:normal;font-variant-ligatures:normal;font-variant-numeric:normal;font-variant-position:normal;isolation:auto;mix-blend-mode:normal;shape-padding:0;text-decoration-color:#000000;text-decoration-line:none;text-decoration-style:solid;text-indent:0;text-orientation:mixed;text-transform:none;white-space:normal"/>
<path d="m105.84 124.84 2 3.46h-4z" fill-rule="evenodd" stroke="#ff0" stroke-width=".4pt"/>
</g>
</g>
<g transform="translate(-1.166e-6)">
<g fill="#ff0">
<path d="m153.18 28.311v1.916l-26.641 0.13281-0.14844 22.385-56.947 0.07031 2e-3 2 58.934-0.07422 0.14648-22.391 26.654-0.13281v-3.9062z" color="#000000" color-rendering="auto" dominant-baseline="auto" image-rendering="auto" shape-rendering="auto" solid-color="#000000" style="font-feature-settings:normal;font-variant-alternates:normal;font-variant-caps:normal;font-variant-ligatures:normal;font-variant-numeric:normal;font-variant-position:normal;isolation:auto;mix-blend-mode:normal;shape-padding:0;text-decoration-color:#000000;text-decoration-line:none;text-decoration-style:solid;text-indent:0;text-orientation:mixed;text-transform:none;white-space:normal"/>
<path d="m67.136 53.818 3.4575-2.0044 5e-3 4z" fill-rule="evenodd" stroke="#ff0" stroke-width=".4pt"/>
</g>
</g>
<g transform="translate(-1.166e-6)">
<g fill="#ff0">
<path d="m169.05 28.311v1.9141l-42.516 0.13281-0.14844 22.387-56.947 0.07031 2e-3 2 58.934-0.07422 0.14648-22.391 42.529-0.13086v-3.9082z" color="#000000" color-rendering="auto" dominant-baseline="auto" image-rendering="auto" shape-rendering="auto" solid-color="#000000" style="font-feature-settings:normal;font-variant-alternates:normal;font-variant-caps:normal;font-variant-ligatures:normal;font-variant-numeric:normal;font-variant-position:normal;isolation:auto;mix-blend-mode:normal;shape-padding:0;text-decoration-color:#000000;text-decoration-line:none;text-decoration-style:solid;text-indent:0;text-orientation:mixed;text-transform:none;white-space:normal"/>
<path d="m67.136 53.818 3.4575-2.0044 5e-3 4z" fill-rule="evenodd" stroke="#ff0" stroke-width=".4pt"/>
</g>
</g>
<g transform="translate(-1.166e-6)">
<g fill="#ff0">
<path d="m171.05 12.227-44.52 0.13867-0.14649 40.379-61.709 0.07031 2e-3 2 63.699-0.07422 0.14844-40.381 40.525-0.125v1.9062h2z" color="#000000" color-rendering="auto" dominant-baseline="auto" image-rendering="auto" shape-rendering="auto" solid-color="#000000" style="font-feature-settings:normal;font-variant-alternates:normal;font-variant-caps:normal;font-variant-ligatures:normal;font-variant-numeric:normal;font-variant-position:normal;isolation:auto;mix-blend-mode:normal;shape-padding:0;text-decoration-color:#000000;text-decoration-line:none;text-decoration-style:solid;text-indent:0;text-orientation:mixed;text-transform:none;white-space:normal"/>
<path d="m170.05 18.449-2-3.46h4z" fill-rule="evenodd" stroke="#ff0" stroke-width=".4pt"/>
</g>
</g>
<g fill="#ff0">
<path d="m155.18 12.225-28.645 0.14258-0.14649 40.377-61.709 0.07031 2e-3 2 63.699-0.07422 0.14844-40.383 24.65-0.12109v1.9043h2z" color="#000000" color-rendering="auto" dominant-baseline="auto" image-rendering="auto" shape-rendering="auto" solid-color="#000000" style="font-feature-settings:normal;font-variant-alternates:normal;font-variant-caps:normal;font-variant-ligatures:normal;font-variant-numeric:normal;font-variant-position:normal;isolation:auto;mix-blend-mode:normal;shape-padding:0;text-decoration-color:#000000;text-decoration-line:none;text-decoration-style:solid;text-indent:0;text-orientation:mixed;text-transform:none;white-space:normal"/>
<path d="m154.18 18.449-2-3.46h4z" fill-rule="evenodd" stroke="#ff0" stroke-width=".4pt"/>
</g>
<g fill="#ff0">
<path d="m139.3 12.219-12.77 0.15625-0.14649 40.369-61.709 0.07031 2e-3 2 63.699-0.07422 0.14844-40.391 8.7754-0.10742v1.8984h2z" color="#000000" color-rendering="auto" dominant-baseline="auto" image-rendering="auto" shape-rendering="auto" solid-color="#000000" style="font-feature-settings:normal;font-variant-alternates:normal;font-variant-caps:normal;font-variant-ligatures:normal;font-variant-numeric:normal;font-variant-position:normal;isolation:auto;mix-blend-mode:normal;shape-padding:0;text-decoration-color:#000000;text-decoration-line:none;text-decoration-style:solid;text-indent:0;text-orientation:mixed;text-transform:none;white-space:normal"/>
<path d="m138.3 18.449-2-3.46h4z" fill-rule="evenodd" stroke="#ff0" stroke-width=".4pt"/>
</g>
<g transform="matrix(1 0 0 -1 0 218.43)">
<g fill="#ff0">
<path d="m16.738 116.34v5.5274h48.307v-2h-46.307v-3.5274z" color="#000000" color-rendering="auto" dominant-baseline="auto" image-rendering="auto" shape-rendering="auto" solid-color="#000000" style="font-feature-settings:normal;font-variant-alternates:normal;font-variant-caps:normal;font-variant-ligatures:normal;font-variant-numeric:normal;font-variant-position:normal;isolation:auto;mix-blend-mode:normal;shape-padding:0;text-decoration-color:#000000;text-decoration-line:none;text-decoration-style:solid;text-indent:0;text-orientation:mixed;text-transform:none;white-space:normal"/>
<path d="m17.738 114.03 2 3.46h-4z" fill-rule="evenodd" stroke="#ff0" stroke-width=".4pt"/>
</g>
</g>
<g fill="#ff0">
<path d="m75.943 12.857v12.963h-10.443v2h12.443v-12.963h18.848v2.625h2v-4.625z" color="#000000" color-rendering="auto" dominant-baseline="auto" image-rendering="auto" shape-rendering="auto" solid-color="#000000" style="font-feature-settings:normal;font-variant-alternates:normal;font-variant-caps:normal;font-variant-ligatures:normal;font-variant-numeric:normal;font-variant-position:normal;isolation:auto;mix-blend-mode:normal;shape-padding:0;text-decoration-color:#000000;text-decoration-line:none;text-decoration-style:solid;text-indent:0;text-orientation:mixed;text-transform:none;white-space:normal"/>
<path d="m97.79 19.79-2-3.46h4z" fill-rule="evenodd" stroke="#ff0" stroke-width=".4pt"/>
</g>
<g transform="translate(6.9167e-8 12.7)" fill="#ff0">
<path d="m75.943 0.15742v12.963h-10.443v2h12.443v-12.963h26.256v2.625h2v-4.625z" color="#000000" color-rendering="auto" dominant-baseline="auto" image-rendering="auto" shape-rendering="auto" solid-color="#000000" style="font-feature-settings:normal;font-variant-alternates:normal;font-variant-caps:normal;font-variant-ligatures:normal;font-variant-numeric:normal;font-variant-position:normal;isolation:auto;mix-blend-mode:normal;shape-padding:0;text-decoration-color:#000000;text-decoration-line:none;text-decoration-style:solid;text-indent:0;text-orientation:mixed;text-transform:none;white-space:normal"/>
<path d="m105.2 7.0905-2-3.46h4z" fill-rule="evenodd" stroke="#ff0" stroke-width=".4pt"/>
</g>
<g transform="matrix(0 -.00046642 -.00046642 0 104.8 56.629)" fill="#ff0" stroke="#ff0">
<path d="m6965 11229c-18-5-351-280-800-661-2115-1791-3476-2943-4520-3826-632-535-1163-991-1179-1012-35-47-40-115-13-166 10-19 480-424 1189-1026 645-547 1900-1610 2788-2363s1817-1540 2063-1750c246-209 467-390 490-403 78-43 177-10 214 73 17 37 18 110 18 1320v1280l4034 10 27 21c40 29 64 65 74 110 13 52 13 5466 0 5518-10 45-34 81-74 110l-27 21-2035 3-2034 2-2 1318-3 1317-24 39c-38 61-112 87-186 65z" fill="#ff0" stroke="#ff0"/>
</g>
<rect x="98.476" y="116.31" width="8.373" height="5.8331" ry=".86794" stroke="#ff0" stroke-width=".2406"/>
<text x="102.7004" y="121.10814" fill="#ff0000" font-family="monospace" font-size="5.1329px" letter-spacing="0px" stroke="#ff0000" stroke-width=".2406" text-align="center" text-anchor="middle" word-spacing="0px" style="line-height:1.25" xml:space="preserve"><tspan x="102.7004" y="121.10814" fill="#ff0000" font-family="monospace" font-size="5.1329px" stroke="#ff0000" stroke-width=".2406" text-align="center" text-anchor="middle">00</tspan></text>
<rect x="95.83" y="124.78" width="13.854" height="5.8331" ry=".86794" stroke="#ff0" stroke-width=".2406"/>
<text x="102.7004" y="129.57478" fill="#ff0000" font-family="monospace" font-size="5.1329px" letter-spacing="0px" stroke="#ff0000" stroke-width=".2406" text-align="center" text-anchor="middle" word-spacing="0px" style="line-height:1.25" xml:space="preserve"><tspan x="102.7004" y="129.57478" fill="#ff0000" font-family="monospace" font-size="5.1329px" stroke="#ff0000" stroke-width=".2406" text-align="center" text-anchor="middle">0000</tspan></text>
<text x="107.61533" y="120.39326" fill="#ffffff" font-family="monospace" font-size="3.227px" letter-spacing="0px" stroke-width=".080674" word-spacing="0px" style="line-height:1.25" xml:space="preserve"><tspan x="107.61533" y="120.39326" fill="#ffffff" font-family="monospace" stroke-width=".080674">Offset</tspan></text>
<rect x="8.1386" y="114.15" width="17.649" height="5.8331" ry=".86794" stroke="#ff0" stroke-width=".2406"/>
<text x="16.997423" y="118.94032" fill="#ff0000" font-family="monospace" font-size="5.1329px" letter-spacing="0px" stroke="#ff0000" stroke-width=".2406" text-align="center" text-anchor="middle" word-spacing="0px" style="line-height:1.25" xml:space="preserve"><tspan x="16.997423" y="118.94032" fill="#ff0000" font-family="monospace" font-size="5.1329px" stroke="#ff0000" stroke-width=".2406" text-align="center" text-anchor="middle">INST</tspan></text>
</g>
</svg>
