G04 MADE WITH FRITZING*
G04 WWW.FRITZING.ORG*
G04 DOUBLE SIDED*
G04 HOLES PLATED*
G04 CONTOUR ON CENTER OF CONTOUR VECTOR*
%ASAXBY*%
%FSLAX23Y23*%
%MOIN*%
%OFA0B0*%
%SFA1.0B1.0*%
%ADD10C,0.049370*%
%ADD11C,0.096614*%
%ADD12C,0.080000*%
%ADD13C,0.088000*%
%ADD14C,0.085000*%
%ADD15R,0.085000X0.085000*%
%LNMASK0*%
G90*
G70*
G54D10*
X419Y2781D03*
X294Y2056D03*
X244Y3656D03*
X893Y3856D03*
X994Y3781D03*
X1094Y3706D03*
X1194Y3631D03*
X1794Y3556D03*
X1894Y3481D03*
X1994Y3406D03*
X2094Y3331D03*
X244Y3556D03*
X244Y3456D03*
X244Y3356D03*
X244Y3256D03*
X244Y3156D03*
X244Y3056D03*
X244Y2956D03*
X3444Y2231D03*
X1019Y1206D03*
X1019Y1306D03*
X1019Y1406D03*
X1019Y1506D03*
X1019Y281D03*
X1019Y381D03*
X1019Y481D03*
X1019Y581D03*
X1019Y681D03*
X1019Y781D03*
X1019Y881D03*
G54D11*
X3819Y106D03*
X119Y106D03*
X3819Y3831D03*
X119Y3831D03*
G54D10*
X2644Y228D03*
X2544Y228D03*
X2444Y228D03*
X2344Y228D03*
X2244Y228D03*
X2144Y228D03*
X2044Y228D03*
X1944Y228D03*
X1844Y228D03*
X1744Y228D03*
X1644Y228D03*
X2944Y631D03*
G54D12*
X1494Y2880D03*
X1494Y2981D03*
G54D13*
X119Y1381D03*
X119Y1281D03*
X119Y1181D03*
X119Y1081D03*
X119Y981D03*
X119Y881D03*
X119Y781D03*
X119Y681D03*
X119Y581D03*
X119Y481D03*
X119Y381D03*
X119Y281D03*
G54D10*
X2744Y1506D03*
X2644Y1406D03*
X2544Y1306D03*
X2444Y1206D03*
X1269Y381D03*
X1344Y481D03*
X1444Y581D03*
X1544Y681D03*
X1644Y781D03*
X1744Y881D03*
X494Y1681D03*
X519Y181D03*
X544Y1206D03*
X969Y2531D03*
X2394Y2531D03*
X494Y1931D03*
X1044Y2006D03*
X569Y2381D03*
X1344Y2681D03*
X2194Y2681D03*
X1344Y3156D03*
X2244Y3256D03*
X569Y2481D03*
X3069Y3006D03*
X2394Y2881D03*
X2393Y3053D03*
X1618Y3253D03*
X794Y3181D03*
G54D13*
X3794Y2131D03*
X3794Y2431D03*
X3794Y2231D03*
X3794Y2331D03*
X2844Y78D03*
X2944Y78D03*
G54D10*
X2844Y278D03*
X3544Y2331D03*
G54D12*
X2219Y2230D03*
X2219Y2331D03*
X3644Y2230D03*
X3644Y2331D03*
G54D10*
X3419Y2956D03*
X3419Y3056D03*
X3419Y3156D03*
X3419Y3256D03*
X3419Y3356D03*
X3419Y3456D03*
X3419Y3656D03*
X3419Y3556D03*
X3344Y2006D03*
G54D14*
X2344Y2131D03*
X2344Y2431D03*
X2444Y2131D03*
X2444Y2431D03*
X2544Y2131D03*
X2544Y2431D03*
X2644Y2131D03*
X2644Y2431D03*
X2744Y2131D03*
X2744Y2431D03*
X2844Y2131D03*
X2844Y2431D03*
X2944Y2131D03*
X2944Y2431D03*
X3044Y2131D03*
X3044Y2431D03*
X3144Y2131D03*
X3144Y2431D03*
X3244Y2131D03*
X3244Y2431D03*
X943Y2133D03*
X943Y2433D03*
X1043Y2133D03*
X1043Y2433D03*
X1143Y2133D03*
X1143Y2433D03*
X1243Y2133D03*
X1243Y2433D03*
X1343Y2133D03*
X1343Y2433D03*
X1443Y2133D03*
X1443Y2433D03*
X1543Y2133D03*
X1543Y2433D03*
X1643Y2133D03*
X1643Y2433D03*
X1743Y2133D03*
X1743Y2433D03*
X1843Y2133D03*
X1843Y2433D03*
X944Y81D03*
X644Y81D03*
X944Y181D03*
X644Y181D03*
X944Y281D03*
X644Y281D03*
X944Y381D03*
X644Y381D03*
X944Y481D03*
X644Y481D03*
X944Y581D03*
X644Y581D03*
X944Y681D03*
X644Y681D03*
X944Y781D03*
X644Y781D03*
X944Y881D03*
X644Y881D03*
X944Y981D03*
X644Y981D03*
X944Y1106D03*
X644Y1106D03*
X944Y1206D03*
X644Y1206D03*
X944Y1306D03*
X644Y1306D03*
X944Y1406D03*
X644Y1406D03*
X944Y1506D03*
X644Y1506D03*
X944Y1606D03*
X644Y1606D03*
X944Y1706D03*
X644Y1706D03*
X944Y1806D03*
X644Y1806D03*
X944Y1906D03*
X644Y1906D03*
X944Y2006D03*
X644Y2006D03*
G54D13*
X1644Y78D03*
X1744Y78D03*
X1844Y78D03*
X1944Y78D03*
X2044Y78D03*
X2144Y78D03*
X2244Y78D03*
X2344Y78D03*
X2444Y78D03*
X2544Y78D03*
X2644Y78D03*
X3794Y1881D03*
X3794Y1781D03*
X3794Y1681D03*
X3794Y1581D03*
X3794Y1481D03*
X3794Y1381D03*
X3794Y1281D03*
X3794Y1181D03*
X3794Y1081D03*
X3794Y981D03*
X3794Y881D03*
X3794Y781D03*
X3794Y681D03*
X3794Y581D03*
X3794Y481D03*
X119Y1881D03*
X3794Y2756D03*
X3794Y2856D03*
G54D14*
X3169Y3081D03*
X3169Y2781D03*
X3069Y3081D03*
X3069Y2781D03*
X2969Y3081D03*
X2969Y2781D03*
X2869Y3081D03*
X2869Y2781D03*
X2769Y3081D03*
X2769Y2781D03*
X2669Y3081D03*
X2669Y2781D03*
X2569Y3081D03*
X2569Y2781D03*
X2469Y3081D03*
X2469Y2781D03*
X694Y2781D03*
X694Y3081D03*
X794Y2781D03*
X794Y3081D03*
X894Y2781D03*
X894Y3081D03*
X994Y2781D03*
X994Y3081D03*
X1094Y2781D03*
X1094Y3081D03*
X1194Y2781D03*
X1194Y3081D03*
X1294Y2781D03*
X1294Y3081D03*
X1394Y2781D03*
X1394Y3081D03*
X1593Y2778D03*
X1593Y3078D03*
X1693Y2778D03*
X1693Y3078D03*
X1793Y2778D03*
X1793Y3078D03*
X1893Y2778D03*
X1893Y3078D03*
X1993Y2778D03*
X1993Y3078D03*
X2093Y2778D03*
X2093Y3078D03*
X2193Y2778D03*
X2193Y3078D03*
X2293Y2778D03*
X2293Y3078D03*
G54D13*
X119Y2956D03*
X119Y3056D03*
X119Y3156D03*
X119Y3256D03*
X119Y3356D03*
X119Y3456D03*
X119Y3556D03*
X119Y3656D03*
X3794Y2956D03*
X3794Y3056D03*
X3794Y3156D03*
X3794Y3256D03*
X3794Y3356D03*
X3794Y3456D03*
X3794Y3556D03*
X3794Y3656D03*
X244Y1981D03*
X244Y1881D03*
X394Y1781D03*
X394Y1681D03*
X119Y1681D03*
G54D14*
X494Y2181D03*
X194Y2181D03*
X494Y2281D03*
X194Y2281D03*
X494Y2381D03*
X194Y2381D03*
X494Y2481D03*
X194Y2481D03*
X494Y2581D03*
X194Y2581D03*
X494Y2681D03*
X194Y2681D03*
X494Y2781D03*
X194Y2781D03*
G54D10*
X2069Y2231D03*
X2069Y2431D03*
X569Y2281D03*
X319Y1881D03*
X619Y2156D03*
G54D15*
X2344Y2131D03*
X943Y2133D03*
X944Y81D03*
X944Y1106D03*
X3169Y3081D03*
X694Y2781D03*
X1593Y2778D03*
X494Y2181D03*
G04 End of Mask0*
M02*