G04 MADE WITH FRITZING*
G04 WWW.FRITZING.ORG*
G04 DOUBLE SIDED*
G04 HOLES PLATED*
G04 CONTOUR ON CENTER OF CONTOUR VECTOR*
%ASAXBY*%
%FSLAX23Y23*%
%MOIN*%
%OFA0B0*%
%SFA1.0B1.0*%
%ADD10R,0.074803X0.062992*%
%ADD11R,0.062992X0.074803*%
%LNPASTEMASK1*%
G90*
G70*
G54D10*
X1944Y306D03*
X1944Y428D03*
X1744Y306D03*
X1744Y428D03*
X1844Y306D03*
X1844Y428D03*
X1644Y306D03*
X1644Y428D03*
X2469Y306D03*
X2469Y428D03*
X2569Y306D03*
X2569Y428D03*
X2669Y306D03*
X2669Y428D03*
X2144Y306D03*
X2144Y428D03*
X2044Y306D03*
X2044Y428D03*
X2368Y309D03*
X2368Y431D03*
X2244Y306D03*
X2244Y428D03*
X1944Y506D03*
X1944Y628D03*
X1644Y506D03*
X1644Y628D03*
X1744Y506D03*
X1744Y628D03*
X1844Y506D03*
X1844Y628D03*
X2469Y506D03*
X2469Y628D03*
X2569Y506D03*
X2569Y628D03*
G54D11*
X3494Y2956D03*
X3616Y2956D03*
X3497Y3056D03*
X3619Y3056D03*
X3497Y3156D03*
X3619Y3156D03*
X3497Y3256D03*
X3619Y3256D03*
X3497Y3356D03*
X3619Y3356D03*
X3497Y3456D03*
X3619Y3456D03*
X3497Y3556D03*
X3619Y3556D03*
X3497Y3656D03*
X3619Y3656D03*
G54D10*
X2669Y506D03*
X2669Y628D03*
X2144Y506D03*
X2144Y628D03*
X2044Y506D03*
X2044Y628D03*
X2368Y509D03*
X2368Y631D03*
X2244Y506D03*
X2244Y628D03*
G04 End of PasteMask1*
M02*