; NON-PLATED HOLES START AT T1
; THROUGH (PLATED) HOLES START AT T100
M48
INCH
T1C0.086614
T100C0.038000
T101C0.015748
T102C0.030000
T103C0.035000
%
T1
X001185Y038306
X038185Y038306
X001185Y001056
X038185Y001056
T100
X037935Y034556
X037935Y010806
X001185Y034556
X016436Y000776
X037935Y022306
X001185Y006806
X001185Y036556
X037935Y021306
X037935Y027556
X037935Y030556
X037935Y006806
X001185Y030556
X037935Y015806
X001185Y003806
X037935Y018806
X037935Y011806
X037935Y005806
X001185Y018806
X018436Y000776
X037935Y009806
X037935Y033556
X037935Y017806
X037935Y004806
X001185Y007806
X001185Y012806
X017436Y000776
X026436Y000776
X020436Y000776
X002435Y018806
X001185Y011806
X001185Y016806
X001185Y002806
X037935Y007806
X022436Y000776
X001185Y035556
X037935Y035556
X003935Y016806
X001185Y031556
X001185Y029556
X037935Y031556
X037935Y032556
X019436Y000776
X037935Y012806
X002435Y019806
X001185Y009806
X021436Y000776
X003935Y017806
X037935Y023306
X001185Y005806
X025436Y000776
X023436Y000776
X037935Y028556
X001185Y008806
X037935Y036556
X001185Y010806
X037935Y013806
X001185Y033556
X037935Y016806
X037935Y024306
X028436Y000776
X001185Y004806
X001185Y013806
X037935Y014806
X001185Y032556
X037935Y008806
X029436Y000776
X037935Y029556
X024436Y000776
T101
X034185Y032556
X013435Y031556
X017435Y008806
X017436Y002276
X034185Y035556
X005185Y001806
X016435Y007806
X002935Y020556
X002435Y030556
X014435Y005806
X009935Y037806
X016436Y002276
X024435Y012056
X028436Y002776
X002435Y031556
X005685Y022806
X010185Y013056
X023436Y002276
X011935Y036306
X025435Y013056
X023935Y028806
X020935Y033306
X023935Y025306
X010185Y007806
X007935Y031806
X005435Y012056
X010185Y008806
X015435Y006806
X008934Y038556
X019935Y034056
X004185Y027806
X022435Y032556
X013435Y004806
X004935Y016806
X004935Y019306
X017935Y035556
X020685Y024306
X026436Y002276
X030685Y030056
X010185Y004806
X002435Y033556
X003185Y018806
X026435Y014056
X027435Y015056
X010185Y014056
X034435Y022306
X010935Y037056
X018935Y034806
X012685Y003806
X010185Y005806
X018436Y002276
X019436Y002276
X002435Y035556
X021935Y026806
X025436Y002276
X034185Y033556
X021436Y002276
X035435Y023306
X010185Y006806
X010185Y002806
X020685Y022306
X002435Y032556
X033435Y020056
X020436Y002276
X034185Y030556
X010185Y012056
X024436Y002276
X005685Y024806
X005685Y023806
X029435Y006306
X022436Y002276
X010185Y015056
X034185Y036556
X002435Y029556
X006185Y021556
X023926Y030528
X010185Y003806
X016176Y032528
X013435Y026806
X009685Y025306
X034185Y031556
X010435Y020056
X002435Y034556
X002435Y036556
X034185Y029556
X034185Y034556
T102
X036435Y023306
X022185Y022304
X036435Y022304
X022185Y023306
X014935Y028804
X014935Y029806
T103
X026435Y021306
X009435Y000806
X018926Y030778
X009435Y005806
X009435Y007806
X009435Y019056
X029685Y030806
X004935Y025806
X028435Y024306
X023435Y024306
X027685Y030806
X001935Y027806
X009935Y027806
X025685Y027806
X010935Y030806
X032435Y021306
X021926Y030778
X018426Y024325
X031685Y027806
X006435Y020056
X001935Y021806
X028685Y030806
X009435Y020056
X010426Y021325
X017926Y030778
X006935Y030806
X006435Y009806
X032435Y024306
X009435Y015056
X009435Y002806
X009435Y018056
X007935Y027806
X008935Y030806
X006435Y012056
X028685Y027806
X004935Y022806
X031435Y021306
X006435Y018056
X015426Y024325
X025685Y030806
X009426Y024325
X024435Y021306
X009435Y004806
X001935Y025806
X006435Y016056
X006435Y017056
X029435Y024306
X006435Y007806
X006435Y013056
X010426Y024325
X013426Y024325
X031685Y030806
X030435Y024306
X027435Y024306
X006435Y001806
X004935Y024806
X006435Y008806
X011426Y021325
X006435Y011056
X006435Y006806
X030685Y030806
X027435Y021306
X030435Y021306
X017426Y024325
X001935Y022806
X004935Y021806
X009435Y001806
X024435Y024306
X018926Y027778
X006435Y003806
X025435Y024306
X004935Y027806
X006435Y019056
X011935Y030806
X024685Y030806
X020926Y027778
X009435Y003806
X011426Y024325
X031435Y024306
X028435Y021306
X006435Y015056
X025435Y021306
X009935Y030806
X009435Y011056
X009435Y006806
X009435Y017056
X018426Y021325
X013426Y021325
X029435Y021306
X004935Y023806
X004935Y026806
X016426Y024325
X009435Y013056
X015426Y021325
X015926Y030778
X009435Y016056
X024685Y027806
X014426Y021325
X006435Y004806
X012935Y030806
X009426Y021325
X019926Y027778
X016926Y027778
X011935Y027806
X006435Y005806
X006935Y027806
X029685Y027806
X023435Y021306
X021926Y027778
X001935Y023806
X013935Y030806
X012935Y027806
X026685Y027806
X022926Y030778
X020926Y030778
X016926Y030778
X017926Y027778
X015926Y027778
X009435Y009806
X013935Y027806
X019926Y030778
X030685Y027806
X009435Y014056
X014426Y024325
X026685Y030806
X008935Y027806
X006435Y002806
X026435Y024306
X001935Y026806
X017426Y021325
X016426Y021325
X027685Y027806
X010935Y027806
X006435Y000806
X006435Y014056
X001935Y024806
X007935Y030806
X012426Y024325
X009435Y012056
X022926Y027778
X009435Y008806
X012426Y021325
T00
M30
