G04 MADE WITH FRITZING*
G04 WWW.FRITZING.ORG*
G04 DOUBLE SIDED*
G04 HOLES PLATED*
G04 CONTOUR ON CENTER OF CONTOUR VECTOR*
%ASAXBY*%
%FSLAX23Y23*%
%MOIN*%
%OFA0B0*%
%SFA1.0B1.0*%
%ADD10C,0.039370*%
%ADD11C,0.070000*%
%ADD12C,0.078000*%
%ADD13C,0.075000*%
%ADD14R,0.074803X0.062992*%
%ADD15R,0.062992X0.074803*%
%ADD16R,0.075000X0.075000*%
%ADD17C,0.032000*%
%ADD18C,0.038000*%
%ADD19C,0.048000*%
%LNCOPPER1*%
G90*
G70*
G54D10*
X419Y2781D03*
X294Y2056D03*
X244Y3656D03*
X893Y3856D03*
X994Y3781D03*
X1094Y3706D03*
X1194Y3631D03*
X1794Y3556D03*
X1894Y3481D03*
X1994Y3406D03*
X2094Y3331D03*
X244Y3556D03*
X244Y3456D03*
X244Y3356D03*
X244Y3256D03*
X244Y3156D03*
X244Y3056D03*
X244Y2956D03*
X3444Y2231D03*
X1019Y1206D03*
X1019Y1306D03*
X1019Y1406D03*
X1019Y1506D03*
X1019Y281D03*
X1019Y381D03*
X1019Y481D03*
X1019Y581D03*
X1019Y681D03*
X1019Y781D03*
X1019Y881D03*
X2644Y228D03*
X2544Y228D03*
X2444Y228D03*
X2344Y228D03*
X2244Y228D03*
X2144Y228D03*
X2044Y228D03*
X1944Y228D03*
X1844Y228D03*
X1744Y228D03*
X1644Y228D03*
X2944Y631D03*
G54D11*
X1494Y2880D03*
X1494Y2981D03*
G54D12*
X119Y1381D03*
X119Y1281D03*
X119Y1181D03*
X119Y1081D03*
X119Y981D03*
X119Y881D03*
X119Y781D03*
X119Y681D03*
X119Y581D03*
X119Y481D03*
X119Y381D03*
X119Y281D03*
G54D10*
X2744Y1506D03*
X2644Y1406D03*
X2544Y1306D03*
X2444Y1206D03*
X1269Y381D03*
X1344Y481D03*
X1444Y581D03*
X1544Y681D03*
X1644Y781D03*
X1744Y881D03*
X494Y1681D03*
X519Y181D03*
X544Y1206D03*
X969Y2531D03*
X2394Y2531D03*
X494Y1931D03*
X1044Y2006D03*
X569Y2381D03*
X1344Y2681D03*
X2194Y2681D03*
X1344Y3156D03*
X2244Y3256D03*
X569Y2481D03*
X3069Y3006D03*
X2394Y2881D03*
X2393Y3053D03*
X1618Y3253D03*
X794Y3181D03*
G54D12*
X3794Y2131D03*
X3794Y2431D03*
X3794Y2231D03*
X3794Y2331D03*
X2844Y78D03*
X2944Y78D03*
G54D10*
X2844Y278D03*
X3544Y2331D03*
G54D11*
X2219Y2230D03*
X2219Y2331D03*
X3644Y2230D03*
X3644Y2331D03*
G54D10*
X3419Y2956D03*
X3419Y3056D03*
X3419Y3156D03*
X3419Y3256D03*
X3419Y3356D03*
X3419Y3456D03*
X3419Y3656D03*
X3419Y3556D03*
X3344Y2006D03*
G54D13*
X2344Y2131D03*
X2344Y2431D03*
X2444Y2131D03*
X2444Y2431D03*
X2544Y2131D03*
X2544Y2431D03*
X2644Y2131D03*
X2644Y2431D03*
X2744Y2131D03*
X2744Y2431D03*
X2844Y2131D03*
X2844Y2431D03*
X2944Y2131D03*
X2944Y2431D03*
X3044Y2131D03*
X3044Y2431D03*
X3144Y2131D03*
X3144Y2431D03*
X3244Y2131D03*
X3244Y2431D03*
X943Y2133D03*
X943Y2433D03*
X1043Y2133D03*
X1043Y2433D03*
X1143Y2133D03*
X1143Y2433D03*
X1243Y2133D03*
X1243Y2433D03*
X1343Y2133D03*
X1343Y2433D03*
X1443Y2133D03*
X1443Y2433D03*
X1543Y2133D03*
X1543Y2433D03*
X1643Y2133D03*
X1643Y2433D03*
X1743Y2133D03*
X1743Y2433D03*
X1843Y2133D03*
X1843Y2433D03*
X944Y81D03*
X644Y81D03*
X944Y181D03*
X644Y181D03*
X944Y281D03*
X644Y281D03*
X944Y381D03*
X644Y381D03*
X944Y481D03*
X644Y481D03*
X944Y581D03*
X644Y581D03*
X944Y681D03*
X644Y681D03*
X944Y781D03*
X644Y781D03*
X944Y881D03*
X644Y881D03*
X944Y981D03*
X644Y981D03*
X944Y1106D03*
X644Y1106D03*
X944Y1206D03*
X644Y1206D03*
X944Y1306D03*
X644Y1306D03*
X944Y1406D03*
X644Y1406D03*
X944Y1506D03*
X644Y1506D03*
X944Y1606D03*
X644Y1606D03*
X944Y1706D03*
X644Y1706D03*
X944Y1806D03*
X644Y1806D03*
X944Y1906D03*
X644Y1906D03*
X944Y2006D03*
X644Y2006D03*
G54D12*
X1644Y78D03*
X1744Y78D03*
X1844Y78D03*
X1944Y78D03*
X2044Y78D03*
X2144Y78D03*
X2244Y78D03*
X2344Y78D03*
X2444Y78D03*
X2544Y78D03*
X2644Y78D03*
X3794Y1881D03*
X3794Y1781D03*
X3794Y1681D03*
X3794Y1581D03*
X3794Y1481D03*
X3794Y1381D03*
X3794Y1281D03*
X3794Y1181D03*
X3794Y1081D03*
X3794Y981D03*
X3794Y881D03*
X3794Y781D03*
X3794Y681D03*
X3794Y581D03*
X3794Y481D03*
X119Y1881D03*
X3794Y2756D03*
X3794Y2856D03*
G54D13*
X3169Y3081D03*
X3169Y2781D03*
X3069Y3081D03*
X3069Y2781D03*
X2969Y3081D03*
X2969Y2781D03*
X2869Y3081D03*
X2869Y2781D03*
X2769Y3081D03*
X2769Y2781D03*
X2669Y3081D03*
X2669Y2781D03*
X2569Y3081D03*
X2569Y2781D03*
X2469Y3081D03*
X2469Y2781D03*
X694Y2781D03*
X694Y3081D03*
X794Y2781D03*
X794Y3081D03*
X894Y2781D03*
X894Y3081D03*
X994Y2781D03*
X994Y3081D03*
X1094Y2781D03*
X1094Y3081D03*
X1194Y2781D03*
X1194Y3081D03*
X1294Y2781D03*
X1294Y3081D03*
X1394Y2781D03*
X1394Y3081D03*
X1593Y2778D03*
X1593Y3078D03*
X1693Y2778D03*
X1693Y3078D03*
X1793Y2778D03*
X1793Y3078D03*
X1893Y2778D03*
X1893Y3078D03*
X1993Y2778D03*
X1993Y3078D03*
X2093Y2778D03*
X2093Y3078D03*
X2193Y2778D03*
X2193Y3078D03*
X2293Y2778D03*
X2293Y3078D03*
G54D12*
X119Y2956D03*
X119Y3056D03*
X119Y3156D03*
X119Y3256D03*
X119Y3356D03*
X119Y3456D03*
X119Y3556D03*
X119Y3656D03*
X3794Y2956D03*
X3794Y3056D03*
X3794Y3156D03*
X3794Y3256D03*
X3794Y3356D03*
X3794Y3456D03*
X3794Y3556D03*
X3794Y3656D03*
X244Y1981D03*
X244Y1881D03*
X394Y1781D03*
X394Y1681D03*
X119Y1681D03*
G54D13*
X494Y2181D03*
X194Y2181D03*
X494Y2281D03*
X194Y2281D03*
X494Y2381D03*
X194Y2381D03*
X494Y2481D03*
X194Y2481D03*
X494Y2581D03*
X194Y2581D03*
X494Y2681D03*
X194Y2681D03*
X494Y2781D03*
X194Y2781D03*
G54D10*
X2069Y2231D03*
X2069Y2431D03*
X569Y2281D03*
X319Y1881D03*
X619Y2156D03*
G54D14*
X1944Y306D03*
X1944Y428D03*
X1744Y306D03*
X1744Y428D03*
X1844Y306D03*
X1844Y428D03*
X1644Y306D03*
X1644Y428D03*
X2469Y306D03*
X2469Y428D03*
X2569Y306D03*
X2569Y428D03*
X2669Y306D03*
X2669Y428D03*
X2144Y306D03*
X2144Y428D03*
X2044Y306D03*
X2044Y428D03*
X2368Y309D03*
X2368Y431D03*
X2244Y306D03*
X2244Y428D03*
X1944Y506D03*
X1944Y628D03*
X1644Y506D03*
X1644Y628D03*
X1744Y506D03*
X1744Y628D03*
X1844Y506D03*
X1844Y628D03*
X2469Y506D03*
X2469Y628D03*
X2569Y506D03*
X2569Y628D03*
G54D15*
X3494Y2956D03*
X3616Y2956D03*
X3497Y3056D03*
X3619Y3056D03*
X3497Y3156D03*
X3619Y3156D03*
X3497Y3256D03*
X3619Y3256D03*
X3497Y3356D03*
X3619Y3356D03*
X3497Y3456D03*
X3619Y3456D03*
X3497Y3556D03*
X3619Y3556D03*
X3497Y3656D03*
X3619Y3656D03*
G54D14*
X2669Y506D03*
X2669Y628D03*
X2144Y506D03*
X2144Y628D03*
X2044Y506D03*
X2044Y628D03*
X2368Y509D03*
X2368Y631D03*
X2244Y506D03*
X2244Y628D03*
G54D16*
X2344Y2131D03*
X943Y2133D03*
X944Y81D03*
X944Y1106D03*
X3169Y3081D03*
X694Y2781D03*
X1593Y2778D03*
X494Y2181D03*
G54D17*
X294Y2656D02*
X294Y2080D01*
D02*
X401Y2763D02*
X294Y2656D01*
D02*
X969Y3781D02*
X493Y3780D01*
D02*
X2793Y3555D02*
X2593Y3782D01*
D02*
X2593Y3782D02*
X1018Y3781D01*
D02*
X269Y3557D02*
X268Y3557D01*
D02*
X493Y3780D02*
X269Y3557D01*
D02*
X3394Y3556D02*
X2793Y3555D01*
D02*
X869Y3856D02*
X417Y3855D01*
D02*
X2644Y3855D02*
X918Y3856D01*
D02*
X417Y3855D02*
X260Y3674D01*
D02*
X2820Y3655D02*
X2644Y3855D01*
D02*
X3394Y3656D02*
X2820Y3655D01*
D02*
X3220Y3180D02*
X3394Y2956D01*
D02*
X3394Y2956D02*
X3394Y2956D01*
D02*
X2520Y3180D02*
X3220Y3180D01*
D02*
X2364Y3333D02*
X2520Y3180D01*
D02*
X2118Y3331D02*
X2364Y3333D01*
D02*
X3394Y3056D02*
X3394Y3056D01*
D02*
X3244Y3255D02*
X3394Y3056D01*
D02*
X2569Y3255D02*
X3244Y3255D01*
D02*
X2431Y3408D02*
X2569Y3255D01*
D02*
X2018Y3406D02*
X2431Y3408D01*
D02*
X3394Y3256D02*
X3394Y3256D01*
D02*
X3344Y3255D02*
X3394Y3256D01*
D02*
X3293Y3331D02*
X3344Y3255D01*
D02*
X2644Y3331D02*
X3293Y3331D01*
D02*
X2444Y3555D02*
X2644Y3331D01*
D02*
X1818Y3556D02*
X2444Y3555D01*
D02*
X3394Y3356D02*
X3394Y3356D01*
D02*
X3369Y3355D02*
X3394Y3356D01*
D02*
X3317Y3406D02*
X3369Y3355D01*
D02*
X2693Y3406D02*
X3317Y3406D01*
D02*
X2493Y3631D02*
X2693Y3406D01*
D02*
X1218Y3631D02*
X2493Y3631D01*
D02*
X3394Y3456D02*
X3394Y3456D01*
D02*
X3369Y3482D02*
X3394Y3456D01*
D02*
X2744Y3480D02*
X3369Y3482D01*
D02*
X2544Y3706D02*
X2744Y3480D01*
D02*
X1118Y3706D02*
X2544Y3706D01*
D02*
X769Y2681D02*
X1319Y2681D01*
D02*
X586Y2498D02*
X769Y2681D01*
D02*
X268Y3056D02*
X394Y3057D01*
D02*
X343Y3257D02*
X268Y3256D01*
D02*
X644Y3555D02*
X343Y3257D01*
D02*
X693Y3480D02*
X369Y3157D01*
D02*
X369Y3157D02*
X268Y3156D01*
D02*
X394Y3057D02*
X744Y3406D01*
D02*
X420Y2957D02*
X268Y2956D01*
D02*
X793Y3331D02*
X420Y2957D01*
D02*
X2069Y3331D02*
X793Y3331D01*
D02*
X744Y3406D02*
X1969Y3406D01*
D02*
X1869Y3481D02*
X693Y3480D01*
D02*
X1769Y3556D02*
X644Y3555D01*
D02*
X320Y3357D02*
X268Y3356D01*
D02*
X593Y3631D02*
X320Y3357D01*
D02*
X1169Y3631D02*
X593Y3631D01*
D02*
X544Y3706D02*
X294Y3457D01*
D02*
X294Y3457D02*
X268Y3456D01*
D02*
X1069Y3706D02*
X544Y3706D01*
G54D18*
D02*
X3468Y2956D02*
X3443Y2956D01*
D02*
X3471Y3056D02*
X3443Y3056D01*
D02*
X3471Y3156D02*
X3443Y3156D01*
D02*
X3471Y3256D02*
X3443Y3256D01*
D02*
X3471Y3356D02*
X3443Y3356D01*
D02*
X3471Y3456D02*
X3443Y3456D01*
D02*
X3471Y3556D02*
X3443Y3556D01*
D02*
X3443Y3656D02*
X3471Y3656D01*
G54D17*
D02*
X3217Y2682D02*
X2218Y2681D01*
D02*
X3269Y2731D02*
X3217Y2682D01*
D02*
X3269Y2831D02*
X3269Y2731D01*
D02*
X3087Y2989D02*
X3269Y2831D01*
G54D19*
D02*
X3444Y2406D02*
X3444Y2261D01*
D02*
X3619Y2606D02*
X3444Y2406D01*
D02*
X3619Y3387D02*
X3619Y3424D01*
D02*
X3619Y3287D02*
X3619Y3324D01*
D02*
X3619Y3187D02*
X3619Y3224D01*
D02*
X3619Y3087D02*
X3619Y3124D01*
D02*
X3617Y2987D02*
X3618Y3024D01*
D02*
X3616Y2924D02*
X3619Y2606D01*
G54D18*
D02*
X1219Y231D02*
X1144Y281D01*
D02*
X1144Y281D02*
X1043Y281D01*
D02*
X1619Y228D02*
X1219Y231D01*
G54D19*
D02*
X3619Y3587D02*
X3619Y3624D01*
D02*
X3619Y3487D02*
X3619Y3524D01*
G54D18*
D02*
X2419Y1206D02*
X1043Y1206D01*
D02*
X1844Y280D02*
X1844Y252D01*
D02*
X1744Y280D02*
X1744Y252D01*
D02*
X1644Y280D02*
X1644Y252D01*
D02*
X1644Y454D02*
X1644Y480D01*
D02*
X1844Y454D02*
X1844Y480D01*
D02*
X1744Y454D02*
X1744Y480D01*
D02*
X1944Y454D02*
X1944Y480D01*
D02*
X2469Y454D02*
X2469Y480D01*
D02*
X2569Y454D02*
X2569Y480D01*
D02*
X2669Y454D02*
X2669Y480D01*
D02*
X2044Y454D02*
X2044Y480D01*
D02*
X2144Y454D02*
X2144Y480D01*
D02*
X2369Y457D02*
X2369Y483D01*
D02*
X2244Y454D02*
X2244Y480D01*
G54D19*
D02*
X2913Y630D02*
X2700Y628D01*
G54D18*
D02*
X2660Y280D02*
X2651Y251D01*
D02*
X2560Y280D02*
X2551Y251D01*
D02*
X2460Y280D02*
X2451Y251D01*
D02*
X2361Y283D02*
X2351Y251D01*
D02*
X2244Y280D02*
X2244Y252D01*
D02*
X2144Y280D02*
X2144Y252D01*
D02*
X2044Y280D02*
X2044Y252D01*
D02*
X1944Y280D02*
X1944Y252D01*
G54D19*
D02*
X1712Y628D02*
X1675Y628D01*
D02*
X1812Y628D02*
X1775Y628D01*
D02*
X1912Y628D02*
X1875Y628D01*
D02*
X2012Y628D02*
X1975Y628D01*
D02*
X2112Y628D02*
X2075Y628D01*
D02*
X2212Y628D02*
X2175Y628D01*
D02*
X2337Y630D02*
X2275Y628D01*
D02*
X2437Y629D02*
X2400Y630D01*
D02*
X2537Y628D02*
X2500Y628D01*
D02*
X2637Y628D02*
X2600Y628D01*
G54D18*
D02*
X1244Y381D02*
X1043Y381D01*
D02*
X1719Y881D02*
X1043Y881D01*
D02*
X1619Y781D02*
X1043Y781D01*
D02*
X1519Y681D02*
X1043Y681D01*
D02*
X1419Y581D02*
X1043Y581D01*
D02*
X1319Y481D02*
X1043Y481D01*
D02*
X2519Y1306D02*
X1043Y1306D01*
D02*
X2619Y1406D02*
X1043Y1406D01*
D02*
X1043Y1505D02*
X1043Y1505D01*
D02*
X2719Y1506D02*
X1043Y1505D01*
D02*
X494Y1906D02*
X494Y1705D01*
D02*
X993Y2531D02*
X2369Y2531D01*
D02*
X494Y1206D02*
X519Y1206D01*
D02*
X501Y198D02*
X494Y206D01*
D02*
X494Y206D02*
X494Y1206D01*
D02*
X494Y1206D02*
X494Y1656D01*
G54D17*
D02*
X2169Y2681D02*
X1368Y2681D01*
D02*
X1820Y3255D02*
X2219Y3256D01*
D02*
X1720Y3180D02*
X1820Y3255D01*
D02*
X1369Y3180D02*
X1720Y3180D01*
D02*
X1361Y3173D02*
X1369Y3180D01*
D02*
X811Y3198D02*
X869Y3255D01*
D02*
X869Y3255D02*
X1593Y3253D01*
G54D19*
D02*
X2393Y2911D02*
X2393Y3023D01*
D02*
X3544Y854D02*
X2867Y297D01*
D02*
X3544Y2301D02*
X3544Y854D01*
G54D18*
D02*
X1068Y2006D02*
X3319Y2006D01*
G54D19*
D02*
X2069Y2261D02*
X2069Y2401D01*
G54D17*
D02*
X3344Y2480D02*
X3193Y2606D01*
D02*
X3193Y2606D02*
X819Y2606D01*
D02*
X819Y2606D02*
X593Y2380D01*
D02*
X593Y2380D02*
X593Y2380D01*
D02*
X3344Y2030D02*
X3344Y2480D01*
D02*
X619Y2281D02*
X593Y2281D01*
D02*
X944Y2531D02*
X869Y2531D01*
D02*
X869Y2531D02*
X619Y2281D01*
G54D18*
D02*
X600Y2139D02*
X337Y1897D01*
G04 End of Copper1*
M02*