; NON-PLATED HOLES START AT T1
; THROUGH (PLATED) HOLES START AT T100
M48
INCH
T1C0.086614
T100C0.038000
T101C0.030000
T102C0.035000
T103C0.015748
%
T1
X001213Y038251
X037212Y001001
X001212Y001001
X037212Y038251
T100
X037713Y017751
X000963Y030501
X003713Y017751
X037713Y033501
X037713Y021251
X026213Y001250
X000963Y005750
X037713Y007750
X037713Y018751
X037713Y015751
X037713Y022251
X002213Y018751
X029213Y001250
X002213Y019751
X037713Y009751
X037713Y008751
X023213Y001250
X000963Y034501
X000963Y029501
X019213Y001250
X000963Y007750
X000963Y016751
X037713Y004750
X028213Y001250
X037713Y035501
X037713Y032501
X000963Y036501
X037713Y029501
X003713Y016751
X000963Y009751
X037713Y023251
X037713Y014751
X000963Y012751
X000963Y031501
X037713Y011751
X020213Y001250
X000963Y002750
X037713Y005750
X000963Y035501
X037713Y013751
X000963Y032501
X000963Y011751
X025213Y001250
X037713Y031501
X037713Y027501
X022213Y001250
X037713Y034501
X031213Y001250
X000963Y006750
X037713Y030501
X037713Y024251
X024213Y001250
X000963Y018751
X037713Y006750
X037713Y028501
X000963Y010751
X000963Y003750
X032213Y001250
X000963Y013751
X037713Y036501
X037713Y016751
X000963Y033501
X000963Y004750
X021213Y001250
X037713Y010751
X027213Y001250
X000963Y008751
X037713Y012751
T101
X036213Y022249
X021963Y022249
X036213Y023250
X014713Y028749
X021963Y023250
X014713Y029750
T102
X009213Y002750
X001713Y026751
X006213Y003750
X024213Y021251
X006213Y006750
X025463Y027751
X004713Y021751
X012204Y024269
X011204Y021269
X006713Y027751
X030463Y027751
X006213Y009751
X010713Y030751
X011204Y024269
X031213Y021251
X006213Y015001
X006213Y020001
X001713Y022751
X006213Y008751
X022704Y027723
X015204Y024269
X009213Y019001
X025213Y021251
X009713Y030751
X004713Y023751
X029463Y027751
X009213Y014001
X010204Y021269
X013204Y024269
X013713Y027751
X001713Y023751
X021704Y030723
X017704Y027723
X009204Y024269
X009213Y013001
X012204Y021269
X027213Y024251
X019704Y030723
X013204Y021269
X012713Y027751
X006213Y001750
X006213Y014001
X031463Y027751
X026213Y021251
X004713Y026751
X006213Y018001
X001713Y027751
X007713Y030751
X011713Y027751
X016204Y021269
X015704Y027723
X009213Y000750
X018704Y027723
X030463Y030751
X020704Y030723
X014204Y024269
X016704Y027723
X009213Y018001
X006213Y012001
X010204Y024269
X004713Y024751
X001713Y024751
X028463Y027751
X008713Y030751
X028213Y021251
X020704Y027723
X009213Y017001
X011713Y030751
X009213Y012001
X006213Y005750
X031213Y024251
X025213Y024251
X009213Y004750
X023213Y024251
X006213Y016001
X026213Y024251
X009213Y015001
X022704Y030723
X025463Y030751
X007713Y027751
X009213Y011001
X001713Y021751
X017204Y024269
X009213Y005750
X030213Y024251
X006213Y000750
X016204Y024269
X013713Y030751
X029463Y030751
X028213Y024251
X006213Y004750
X019704Y027723
X028463Y030751
X017204Y021269
X009204Y021269
X009213Y008751
X006213Y013001
X018704Y030723
X004713Y022751
X026463Y027751
X006213Y011001
X031463Y030751
X027213Y021251
X012713Y030751
X008713Y027751
X016704Y030723
X006213Y017001
X009213Y009751
X030213Y021251
X009213Y007750
X024463Y030751
X009213Y003750
X010713Y027751
X004713Y025751
X027463Y027751
X009213Y006750
X014204Y021269
X027463Y030751
X024463Y027751
X018204Y021269
X032213Y021251
X006213Y019001
X015704Y030723
X004713Y027751
X021704Y027723
X015204Y021269
X018204Y024269
X006713Y030751
X023213Y021251
X001713Y025751
X024213Y024251
X017704Y030723
X029213Y021251
X009213Y016001
X006213Y002750
X006213Y007750
X009713Y027751
X009213Y001750
X026463Y030751
X029213Y024251
X032213Y024251
X009213Y020001
T103
X021213Y002250
X020463Y022251
X005962Y021501
X021713Y026751
X033963Y036501
X015213Y006750
X024213Y012001
X027213Y002250
X005212Y012001
X023713Y025251
X031213Y002750
X020463Y024251
X009713Y037501
X002212Y030501
X026213Y002250
X019213Y002250
X004712Y019251
X033963Y033501
X033963Y032501
X002963Y018751
X033213Y020001
X009963Y005750
X002212Y029501
X009963Y014001
X009963Y002750
X002212Y034501
X032213Y006250
X023213Y002250
X009963Y012001
X005462Y024751
X009963Y015001
X033963Y035501
X011713Y036001
X009963Y008751
X003963Y027751
X009963Y003750
X017713Y035251
X020213Y002250
X018713Y034501
X027213Y015001
X020713Y033001
X023704Y030473
X023713Y028751
X016213Y007750
X002212Y036501
X013213Y031501
X010213Y020001
X015954Y032223
X008712Y038251
X007712Y031751
X013213Y004750
X026213Y014001
X009463Y025251
X009963Y013001
X033963Y030501
X025213Y002250
X002212Y031501
X002212Y032501
X017213Y008751
X022213Y032251
X013213Y026751
X024213Y002250
X029213Y002250
X002212Y035501
X004962Y001750
X010713Y036751
X005462Y023751
X033963Y029501
X005462Y022751
X022213Y002250
X025213Y013001
X028213Y002250
X009963Y004750
X019713Y033751
X033963Y034501
X033963Y031501
X030463Y030001
X002713Y020501
X004712Y016751
X009963Y007750
X009963Y006750
X002212Y033501
X014213Y005750
X034213Y022251
X012463Y003750
X035213Y023251
T00
M30
