G04 MADE WITH FRITZING*
G04 WWW.FRITZING.ORG*
G04 DOUBLE SIDED*
G04 HOLES PLATED*
G04 CONTOUR ON CENTER OF CONTOUR VECTOR*
%ASAXBY*%
%FSLAX23Y23*%
%MOIN*%
%OFA0B0*%
%SFA1.0B1.0*%
%ADD10C,0.039370*%
%ADD11C,0.070000*%
%ADD12C,0.078000*%
%ADD13C,0.075000*%
%ADD14R,0.074803X0.062992*%
%ADD15R,0.062992X0.074803*%
%ADD16R,0.075000X0.075000*%
%ADD17C,0.032000*%
%ADD18C,0.038000*%
%ADD19C,0.048000*%
%LNCOPPER1*%
G90*
G70*
G54D10*
X221Y3650D03*
X871Y3825D03*
X971Y3750D03*
X1071Y3675D03*
X1171Y3600D03*
X1771Y3525D03*
X1871Y3450D03*
X1971Y3375D03*
X2071Y3300D03*
X221Y3550D03*
X221Y3450D03*
X221Y3350D03*
X221Y3250D03*
X221Y3150D03*
X221Y3050D03*
X221Y2950D03*
X3421Y2225D03*
X996Y1200D03*
X996Y1300D03*
X996Y1400D03*
X996Y1500D03*
X996Y275D03*
X996Y375D03*
X996Y475D03*
X996Y575D03*
X996Y675D03*
X996Y775D03*
X996Y875D03*
X2921Y225D03*
X2821Y225D03*
X2721Y225D03*
X2621Y225D03*
X2521Y225D03*
X2421Y225D03*
X2321Y225D03*
X2221Y225D03*
X2121Y225D03*
X2021Y225D03*
X1921Y225D03*
X3221Y625D03*
G54D11*
X1471Y2875D03*
X1471Y2975D03*
G54D12*
X96Y1375D03*
X96Y1275D03*
X96Y1175D03*
X96Y1075D03*
X96Y975D03*
X96Y875D03*
X96Y775D03*
X96Y675D03*
X96Y575D03*
X96Y475D03*
X96Y375D03*
X96Y275D03*
G54D10*
X2721Y1500D03*
X2621Y1400D03*
X2521Y1300D03*
X2421Y1200D03*
X1246Y375D03*
X1321Y475D03*
X1421Y575D03*
X1521Y675D03*
X1621Y775D03*
X1721Y875D03*
X471Y1675D03*
X496Y175D03*
X521Y1200D03*
X946Y2525D03*
X2371Y2525D03*
X471Y1925D03*
X1021Y2000D03*
X546Y2375D03*
X1321Y2675D03*
X2171Y2675D03*
X1321Y3150D03*
X2221Y3225D03*
X546Y2475D03*
X3046Y3000D03*
X2371Y2875D03*
X2370Y3047D03*
X1595Y3222D03*
X771Y3175D03*
G54D12*
X3771Y2125D03*
X3771Y2425D03*
X3771Y2225D03*
X3771Y2325D03*
X3121Y125D03*
X3221Y125D03*
G54D10*
X3121Y275D03*
X3521Y2325D03*
G54D11*
X2196Y2225D03*
X2196Y2325D03*
X3621Y2225D03*
X3621Y2325D03*
G54D10*
X3396Y2950D03*
X3396Y3050D03*
X3396Y3150D03*
X3396Y3250D03*
X3396Y3350D03*
X3396Y3450D03*
X3396Y3650D03*
X3396Y3550D03*
X3321Y2000D03*
G54D13*
X2321Y2125D03*
X2321Y2425D03*
X2421Y2125D03*
X2421Y2425D03*
X2521Y2125D03*
X2521Y2425D03*
X2621Y2125D03*
X2621Y2425D03*
X2721Y2125D03*
X2721Y2425D03*
X2821Y2125D03*
X2821Y2425D03*
X2921Y2125D03*
X2921Y2425D03*
X3021Y2125D03*
X3021Y2425D03*
X3121Y2125D03*
X3121Y2425D03*
X3221Y2125D03*
X3221Y2425D03*
X920Y2127D03*
X920Y2427D03*
X1020Y2127D03*
X1020Y2427D03*
X1120Y2127D03*
X1120Y2427D03*
X1220Y2127D03*
X1220Y2427D03*
X1320Y2127D03*
X1320Y2427D03*
X1420Y2127D03*
X1420Y2427D03*
X1520Y2127D03*
X1520Y2427D03*
X1620Y2127D03*
X1620Y2427D03*
X1720Y2127D03*
X1720Y2427D03*
X1820Y2127D03*
X1820Y2427D03*
X921Y75D03*
X621Y75D03*
X921Y175D03*
X621Y175D03*
X921Y275D03*
X621Y275D03*
X921Y375D03*
X621Y375D03*
X921Y475D03*
X621Y475D03*
X921Y575D03*
X621Y575D03*
X921Y675D03*
X621Y675D03*
X921Y775D03*
X621Y775D03*
X921Y875D03*
X621Y875D03*
X921Y975D03*
X621Y975D03*
X921Y1100D03*
X621Y1100D03*
X921Y1200D03*
X621Y1200D03*
X921Y1300D03*
X621Y1300D03*
X921Y1400D03*
X621Y1400D03*
X921Y1500D03*
X621Y1500D03*
X921Y1600D03*
X621Y1600D03*
X921Y1700D03*
X621Y1700D03*
X921Y1800D03*
X621Y1800D03*
X921Y1900D03*
X621Y1900D03*
X921Y2000D03*
X621Y2000D03*
G54D12*
X1921Y125D03*
X2021Y125D03*
X2121Y125D03*
X2221Y125D03*
X2321Y125D03*
X2421Y125D03*
X2521Y125D03*
X2621Y125D03*
X2721Y125D03*
X2821Y125D03*
X2921Y125D03*
X3771Y1875D03*
X3771Y1775D03*
X3771Y1675D03*
X3771Y1575D03*
X3771Y1475D03*
X3771Y1375D03*
X3771Y1275D03*
X3771Y1175D03*
X3771Y1075D03*
X3771Y975D03*
X3771Y875D03*
X3771Y775D03*
X3771Y675D03*
X3771Y575D03*
X3771Y475D03*
X96Y1875D03*
X3771Y2750D03*
X3771Y2850D03*
G54D13*
X3146Y3075D03*
X3146Y2775D03*
X3046Y3075D03*
X3046Y2775D03*
X2946Y3075D03*
X2946Y2775D03*
X2846Y3075D03*
X2846Y2775D03*
X2746Y3075D03*
X2746Y2775D03*
X2646Y3075D03*
X2646Y2775D03*
X2546Y3075D03*
X2546Y2775D03*
X2446Y3075D03*
X2446Y2775D03*
X671Y2775D03*
X671Y3075D03*
X771Y2775D03*
X771Y3075D03*
X871Y2775D03*
X871Y3075D03*
X971Y2775D03*
X971Y3075D03*
X1071Y2775D03*
X1071Y3075D03*
X1171Y2775D03*
X1171Y3075D03*
X1271Y2775D03*
X1271Y3075D03*
X1371Y2775D03*
X1371Y3075D03*
X1570Y2772D03*
X1570Y3072D03*
X1670Y2772D03*
X1670Y3072D03*
X1770Y2772D03*
X1770Y3072D03*
X1870Y2772D03*
X1870Y3072D03*
X1970Y2772D03*
X1970Y3072D03*
X2070Y2772D03*
X2070Y3072D03*
X2170Y2772D03*
X2170Y3072D03*
X2270Y2772D03*
X2270Y3072D03*
G54D12*
X96Y2950D03*
X96Y3050D03*
X96Y3150D03*
X96Y3250D03*
X96Y3350D03*
X96Y3450D03*
X96Y3550D03*
X96Y3650D03*
X3771Y2950D03*
X3771Y3050D03*
X3771Y3150D03*
X3771Y3250D03*
X3771Y3350D03*
X3771Y3450D03*
X3771Y3550D03*
X3771Y3650D03*
X371Y1775D03*
X371Y1675D03*
X96Y1675D03*
G54D13*
X471Y2175D03*
X171Y2175D03*
X471Y2275D03*
X171Y2275D03*
X471Y2375D03*
X171Y2375D03*
X471Y2475D03*
X171Y2475D03*
X471Y2575D03*
X171Y2575D03*
X471Y2675D03*
X171Y2675D03*
X471Y2775D03*
X171Y2775D03*
G54D10*
X2046Y2225D03*
X2046Y2425D03*
X546Y2275D03*
X296Y1875D03*
X596Y2150D03*
G54D12*
X221Y1875D03*
X221Y1975D03*
G54D10*
X396Y2775D03*
X271Y2050D03*
G54D14*
X2221Y303D03*
X2221Y425D03*
X2021Y303D03*
X2021Y425D03*
X2121Y303D03*
X2121Y425D03*
X1921Y303D03*
X1921Y425D03*
X2721Y303D03*
X2721Y425D03*
X2821Y303D03*
X2821Y425D03*
X2921Y303D03*
X2921Y425D03*
X2421Y303D03*
X2421Y425D03*
X2321Y303D03*
X2321Y425D03*
X2621Y303D03*
X2621Y425D03*
X2521Y303D03*
X2521Y425D03*
X2221Y503D03*
X2221Y625D03*
X1921Y503D03*
X1921Y625D03*
X2021Y503D03*
X2021Y625D03*
X2121Y503D03*
X2121Y625D03*
X2721Y503D03*
X2721Y625D03*
X2821Y503D03*
X2821Y625D03*
G54D15*
X3471Y2950D03*
X3593Y2950D03*
X3474Y3050D03*
X3596Y3050D03*
X3474Y3150D03*
X3596Y3150D03*
X3474Y3250D03*
X3596Y3250D03*
X3474Y3350D03*
X3596Y3350D03*
X3474Y3450D03*
X3596Y3450D03*
X3474Y3550D03*
X3596Y3550D03*
X3474Y3650D03*
X3596Y3650D03*
G54D14*
X2921Y503D03*
X2921Y625D03*
X2421Y503D03*
X2421Y625D03*
X2321Y503D03*
X2321Y625D03*
X2621Y503D03*
X2621Y625D03*
X2521Y503D03*
X2521Y625D03*
G54D16*
X2321Y2125D03*
X920Y2127D03*
X921Y75D03*
X921Y1100D03*
X3146Y3075D03*
X671Y2775D03*
X1570Y2772D03*
X471Y2175D03*
G54D17*
X3371Y3550D02*
X3246Y3751D01*
D02*
X947Y3750D02*
X446Y3751D01*
D02*
X3246Y3751D02*
X996Y3750D01*
D02*
X246Y3551D02*
X246Y3551D01*
D02*
X446Y3751D02*
X246Y3551D01*
D02*
X3372Y3550D02*
X3371Y3550D01*
D02*
X847Y3825D02*
X394Y3825D01*
D02*
X3296Y3825D02*
X896Y3825D01*
D02*
X394Y3825D02*
X239Y3668D01*
D02*
X3384Y3671D02*
X3296Y3825D01*
D02*
X3096Y3300D02*
X3371Y2950D01*
D02*
X3371Y2950D02*
X3372Y2950D01*
D02*
X2096Y3300D02*
X3096Y3300D01*
D02*
X3371Y3050D02*
X3372Y3050D01*
D02*
X3121Y3375D02*
X3371Y3050D01*
D02*
X1996Y3375D02*
X3121Y3375D01*
D02*
X3146Y3450D02*
X3371Y3150D01*
D02*
X3371Y3150D02*
X3372Y3150D01*
D02*
X1896Y3450D02*
X3146Y3450D01*
D02*
X3371Y3250D02*
X3372Y3250D01*
D02*
X3171Y3525D02*
X3371Y3250D01*
D02*
X1796Y3525D02*
X3171Y3525D01*
D02*
X3371Y3350D02*
X3372Y3350D01*
D02*
X3196Y3600D02*
X3371Y3350D01*
D02*
X1196Y3600D02*
X3196Y3600D01*
D02*
X3371Y3450D02*
X3372Y3450D01*
D02*
X3221Y3675D02*
X3371Y3450D01*
D02*
X1096Y3675D02*
X3221Y3675D01*
D02*
X746Y2675D02*
X1297Y2675D01*
D02*
X564Y2492D02*
X746Y2675D01*
D02*
X246Y3050D02*
X372Y3051D01*
D02*
X320Y3251D02*
X246Y3250D01*
D02*
X598Y3525D02*
X320Y3251D01*
D02*
X646Y3451D02*
X346Y3151D01*
D02*
X346Y3151D02*
X246Y3150D01*
D02*
X372Y3051D02*
X694Y3373D01*
D02*
X398Y2951D02*
X246Y2950D01*
D02*
X746Y3299D02*
X398Y2951D01*
D02*
X2047Y3300D02*
X746Y3299D01*
D02*
X694Y3373D02*
X1947Y3375D01*
D02*
X1847Y3450D02*
X646Y3451D01*
D02*
X1747Y3525D02*
X598Y3525D01*
D02*
X298Y3351D02*
X246Y3350D01*
D02*
X546Y3599D02*
X298Y3351D01*
D02*
X1147Y3600D02*
X546Y3599D01*
D02*
X494Y3677D02*
X272Y3451D01*
D02*
X272Y3451D02*
X246Y3451D01*
D02*
X1047Y3675D02*
X494Y3677D01*
G54D18*
D02*
X3446Y2950D02*
X3421Y2950D01*
D02*
X3448Y3050D02*
X3421Y3050D01*
D02*
X3448Y3150D02*
X3421Y3150D01*
D02*
X3448Y3250D02*
X3421Y3250D01*
D02*
X3448Y3350D02*
X3421Y3350D01*
D02*
X3448Y3450D02*
X3421Y3450D01*
D02*
X3448Y3550D02*
X3421Y3550D01*
D02*
X3421Y3650D02*
X3448Y3650D01*
G54D17*
D02*
X3195Y2676D02*
X2196Y2675D01*
D02*
X3246Y2725D02*
X3195Y2676D01*
D02*
X3246Y2825D02*
X3246Y2725D01*
D02*
X3065Y2984D02*
X3246Y2825D01*
G54D19*
D02*
X3422Y2401D02*
X3421Y2255D01*
D02*
X3596Y2600D02*
X3422Y2401D01*
D02*
X3596Y3382D02*
X3596Y3418D01*
D02*
X3596Y3282D02*
X3596Y3318D01*
D02*
X3596Y3182D02*
X3596Y3218D01*
D02*
X3596Y3082D02*
X3596Y3118D01*
D02*
X3594Y2982D02*
X3595Y3018D01*
D02*
X3594Y2918D02*
X3596Y2600D01*
G54D18*
D02*
X1196Y225D02*
X1121Y275D01*
D02*
X1121Y275D02*
X1021Y275D01*
D02*
X1897Y225D02*
X1196Y225D01*
G54D19*
D02*
X3596Y3582D02*
X3596Y3618D01*
D02*
X3596Y3482D02*
X3596Y3518D01*
G54D18*
D02*
X2397Y1200D02*
X1021Y1200D01*
D02*
X2121Y277D02*
X2121Y250D01*
D02*
X2021Y277D02*
X2021Y250D01*
D02*
X1921Y277D02*
X1921Y250D01*
D02*
X1921Y451D02*
X1921Y477D01*
D02*
X2121Y451D02*
X2121Y477D01*
D02*
X2021Y451D02*
X2021Y477D01*
D02*
X2221Y451D02*
X2221Y477D01*
D02*
X2721Y451D02*
X2721Y477D01*
D02*
X2821Y451D02*
X2821Y477D01*
D02*
X2921Y451D02*
X2921Y477D01*
D02*
X2321Y451D02*
X2321Y477D01*
D02*
X2421Y451D02*
X2421Y477D01*
D02*
X2621Y451D02*
X2621Y477D01*
D02*
X2521Y451D02*
X2521Y477D01*
G54D19*
D02*
X3191Y625D02*
X2953Y625D01*
G54D18*
D02*
X2921Y277D02*
X2921Y250D01*
D02*
X2821Y277D02*
X2821Y250D01*
D02*
X2721Y277D02*
X2721Y250D01*
D02*
X2621Y277D02*
X2621Y250D01*
D02*
X2521Y277D02*
X2521Y250D01*
D02*
X2421Y277D02*
X2421Y250D01*
D02*
X2321Y277D02*
X2321Y250D01*
D02*
X2221Y277D02*
X2221Y250D01*
G54D19*
D02*
X1989Y625D02*
X1953Y625D01*
D02*
X2089Y625D02*
X2053Y625D01*
D02*
X2189Y625D02*
X2153Y625D01*
D02*
X2289Y625D02*
X2253Y625D01*
D02*
X2389Y625D02*
X2353Y625D01*
D02*
X2489Y625D02*
X2453Y625D01*
D02*
X2589Y625D02*
X2553Y625D01*
D02*
X2689Y625D02*
X2653Y625D01*
D02*
X2789Y625D02*
X2753Y625D01*
D02*
X2889Y625D02*
X2853Y625D01*
G54D18*
D02*
X1222Y375D02*
X1021Y375D01*
D02*
X1697Y875D02*
X1021Y875D01*
D02*
X1597Y775D02*
X1021Y775D01*
D02*
X1497Y675D02*
X1021Y675D01*
D02*
X1397Y575D02*
X1021Y575D01*
D02*
X1297Y475D02*
X1021Y475D01*
D02*
X2497Y1300D02*
X1021Y1300D01*
D02*
X2597Y1400D02*
X1021Y1400D01*
D02*
X1020Y1499D02*
X1021Y1499D01*
D02*
X2697Y1500D02*
X1020Y1499D01*
D02*
X471Y1901D02*
X471Y1700D01*
D02*
X971Y2525D02*
X2347Y2525D01*
D02*
X471Y1200D02*
X497Y1200D01*
D02*
X479Y192D02*
X471Y200D01*
D02*
X471Y200D02*
X471Y1200D01*
D02*
X471Y1200D02*
X471Y1651D01*
G54D17*
D02*
X2147Y2675D02*
X1346Y2675D01*
D02*
X1771Y3225D02*
X2197Y3225D01*
D02*
X1705Y3150D02*
X1771Y3225D01*
D02*
X1346Y3150D02*
X1705Y3150D01*
D02*
X789Y3192D02*
X822Y3225D01*
D02*
X822Y3225D02*
X1571Y3222D01*
G54D19*
D02*
X2371Y2905D02*
X2371Y3017D01*
D02*
X3522Y501D02*
X3147Y290D01*
D02*
X3521Y2295D02*
X3522Y501D01*
G54D18*
D02*
X1046Y2000D02*
X3297Y2000D01*
G54D19*
D02*
X2046Y2255D02*
X2046Y2395D01*
G54D17*
D02*
X3322Y2474D02*
X3171Y2601D01*
D02*
X3171Y2601D02*
X796Y2600D01*
D02*
X796Y2600D02*
X571Y2374D01*
D02*
X571Y2374D02*
X571Y2374D01*
D02*
X3321Y2025D02*
X3322Y2474D01*
D02*
X596Y2275D02*
X571Y2275D01*
D02*
X922Y2525D02*
X846Y2525D01*
D02*
X846Y2525D02*
X596Y2275D01*
G54D18*
D02*
X578Y2134D02*
X314Y1892D01*
G54D17*
D02*
X271Y2650D02*
X271Y2075D01*
D02*
X379Y2758D02*
X271Y2650D01*
G04 End of Copper1*
M02*