G04 MADE WITH FRITZING*
G04 WWW.FRITZING.ORG*
G04 DOUBLE SIDED*
G04 HOLES PLATED*
G04 CONTOUR ON CENTER OF CONTOUR VECTOR*
%ASAXBY*%
%FSLAX23Y23*%
%MOIN*%
%OFA0B0*%
%SFA1.0B1.0*%
%ADD10C,0.078000*%
%ADD11C,0.039370*%
%ADD12C,0.048000*%
%LNCOPPER1*%
G90*
G70*
G54D10*
X2869Y208D03*
X2969Y208D03*
X3069Y208D03*
X3169Y208D03*
X3269Y208D03*
X3369Y208D03*
X3469Y208D03*
X3569Y208D03*
X2869Y1783D03*
X2969Y1783D03*
X3069Y1783D03*
X3169Y1783D03*
X3269Y1783D03*
X3369Y1783D03*
X3469Y1783D03*
X3569Y1783D03*
X2719Y208D03*
X2619Y208D03*
X2519Y208D03*
X2419Y208D03*
X2319Y208D03*
X2219Y208D03*
X2119Y208D03*
X2019Y208D03*
X2719Y1783D03*
X2619Y1783D03*
X2519Y1783D03*
X2419Y1783D03*
X2319Y1783D03*
X2219Y1783D03*
X2119Y1783D03*
X2019Y1783D03*
X1169Y208D03*
X1269Y208D03*
X1369Y208D03*
X1469Y208D03*
X1569Y208D03*
X1669Y208D03*
X1769Y208D03*
X1869Y208D03*
X1169Y1783D03*
X1269Y1783D03*
X1369Y1783D03*
X1469Y1783D03*
X1569Y1783D03*
X1669Y1783D03*
X1769Y1783D03*
X1869Y1783D03*
X1019Y208D03*
X919Y208D03*
X819Y208D03*
X719Y208D03*
X619Y208D03*
X519Y208D03*
X419Y208D03*
X319Y208D03*
X1019Y1783D03*
X919Y1783D03*
X819Y1783D03*
X719Y1783D03*
X619Y1783D03*
X519Y1783D03*
X419Y1783D03*
X319Y1783D03*
X2869Y1108D03*
X2969Y1108D03*
X3069Y1108D03*
X3169Y1108D03*
X3269Y1108D03*
X3369Y1108D03*
X3469Y1108D03*
X3569Y1108D03*
X2869Y2683D03*
X2969Y2683D03*
X3069Y2683D03*
X3169Y2683D03*
X3269Y2683D03*
X3369Y2683D03*
X3469Y2683D03*
X3569Y2683D03*
X2719Y1108D03*
X2619Y1108D03*
X2519Y1108D03*
X2419Y1108D03*
X2319Y1108D03*
X2219Y1108D03*
X2119Y1108D03*
X2019Y1108D03*
X2719Y2683D03*
X2619Y2683D03*
X2519Y2683D03*
X2419Y2683D03*
X2319Y2683D03*
X2219Y2683D03*
X2119Y2683D03*
X2019Y2683D03*
X1169Y1108D03*
X1269Y1108D03*
X1369Y1108D03*
X1469Y1108D03*
X1569Y1108D03*
X1669Y1108D03*
X1769Y1108D03*
X1869Y1108D03*
X1169Y2683D03*
X1269Y2683D03*
X1369Y2683D03*
X1469Y2683D03*
X1569Y2683D03*
X1669Y2683D03*
X1769Y2683D03*
X1869Y2683D03*
X1019Y1108D03*
X919Y1108D03*
X819Y1108D03*
X719Y1108D03*
X619Y1108D03*
X519Y1108D03*
X419Y1108D03*
X319Y1108D03*
X1019Y2683D03*
X919Y2683D03*
X819Y2683D03*
X719Y2683D03*
X619Y2683D03*
X519Y2683D03*
X419Y2683D03*
X319Y2683D03*
X3769Y308D03*
X3769Y408D03*
X3769Y508D03*
X3769Y608D03*
X3769Y708D03*
X3769Y808D03*
X3769Y908D03*
X3769Y1008D03*
X3769Y1883D03*
X3769Y1983D03*
X3769Y2083D03*
X3769Y2183D03*
X3769Y2283D03*
X3769Y2383D03*
X3769Y2483D03*
X3769Y2583D03*
X119Y308D03*
X119Y408D03*
X119Y508D03*
X119Y608D03*
X119Y708D03*
X119Y808D03*
X119Y908D03*
X119Y1008D03*
X119Y1883D03*
X119Y1983D03*
X119Y2083D03*
X119Y2183D03*
X119Y2283D03*
X119Y2383D03*
X119Y2483D03*
X119Y2583D03*
G54D11*
X3069Y508D03*
X3069Y2083D03*
X2519Y508D03*
X2519Y2083D03*
X1369Y508D03*
X1369Y2083D03*
X819Y508D03*
X819Y2083D03*
X2869Y308D03*
X2869Y1883D03*
X2719Y308D03*
X2719Y1883D03*
X1169Y308D03*
X1169Y1883D03*
X1019Y308D03*
X1019Y1883D03*
X2969Y408D03*
X2969Y1983D03*
X2619Y408D03*
X2619Y1983D03*
X1269Y408D03*
X1269Y1983D03*
X919Y408D03*
X919Y1983D03*
X3169Y608D03*
X3169Y2183D03*
X2419Y608D03*
X2419Y2183D03*
X1469Y608D03*
X1469Y2183D03*
X719Y608D03*
X719Y2183D03*
X3269Y708D03*
X3269Y2283D03*
X2319Y708D03*
X2319Y2283D03*
X1569Y708D03*
X1569Y2283D03*
X619Y708D03*
X619Y2283D03*
X3369Y808D03*
X3369Y2383D03*
X2219Y808D03*
X2219Y2383D03*
X1669Y808D03*
X1669Y2383D03*
X519Y808D03*
X519Y2383D03*
X3469Y908D03*
X3469Y2483D03*
X2119Y908D03*
X2119Y2483D03*
X1769Y908D03*
X1769Y2483D03*
X419Y908D03*
X419Y2483D03*
X3569Y1008D03*
X3569Y2583D03*
X2019Y1008D03*
X2019Y2583D03*
X1869Y1008D03*
X1869Y2583D03*
X319Y1008D03*
X319Y2583D03*
G54D12*
X3569Y977D02*
X3569Y249D01*
D02*
X3569Y2552D02*
X3569Y1824D01*
D02*
X2019Y977D02*
X2019Y249D01*
D02*
X2019Y2552D02*
X2019Y1824D01*
D02*
X1869Y977D02*
X1869Y249D01*
D02*
X1869Y2552D02*
X1869Y1824D01*
D02*
X319Y977D02*
X319Y249D01*
D02*
X319Y2552D02*
X319Y1824D01*
D02*
X3569Y1066D02*
X3569Y1038D01*
D02*
X3569Y2641D02*
X3569Y2613D01*
D02*
X2019Y1066D02*
X2019Y1038D01*
D02*
X2019Y2641D02*
X2019Y2613D01*
D02*
X1869Y1066D02*
X1869Y1038D01*
D02*
X1869Y2641D02*
X1869Y2613D01*
D02*
X319Y1066D02*
X319Y1038D01*
D02*
X319Y2641D02*
X319Y2613D01*
D02*
X3469Y938D02*
X3469Y1066D01*
D02*
X3469Y2513D02*
X3469Y2641D01*
D02*
X2119Y938D02*
X2119Y1066D01*
D02*
X2119Y2513D02*
X2119Y2641D01*
D02*
X1769Y938D02*
X1769Y1066D01*
D02*
X1769Y2513D02*
X1769Y2641D01*
D02*
X419Y938D02*
X419Y1066D01*
D02*
X419Y2513D02*
X419Y2641D01*
D02*
X3469Y249D02*
X3469Y877D01*
D02*
X3469Y1824D02*
X3469Y2452D01*
D02*
X2119Y249D02*
X2119Y877D01*
D02*
X2119Y1824D02*
X2119Y2452D01*
D02*
X1769Y249D02*
X1769Y877D01*
D02*
X1769Y1824D02*
X1769Y2452D01*
D02*
X419Y249D02*
X419Y877D01*
D02*
X419Y1824D02*
X419Y2452D01*
D02*
X3369Y777D02*
X3369Y249D01*
D02*
X3369Y2352D02*
X3369Y1824D01*
D02*
X2219Y777D02*
X2219Y249D01*
D02*
X2219Y2352D02*
X2219Y1824D01*
D02*
X1669Y777D02*
X1669Y249D01*
D02*
X1669Y2352D02*
X1669Y1824D01*
D02*
X519Y777D02*
X519Y249D01*
D02*
X519Y2352D02*
X519Y1824D01*
D02*
X3369Y838D02*
X3369Y1066D01*
D02*
X3369Y2413D02*
X3369Y2641D01*
D02*
X2219Y838D02*
X2219Y1066D01*
D02*
X2219Y2413D02*
X2219Y2641D01*
D02*
X1669Y838D02*
X1669Y1066D01*
D02*
X1669Y2413D02*
X1669Y2641D01*
D02*
X519Y838D02*
X519Y1066D01*
D02*
X519Y2413D02*
X519Y2641D01*
D02*
X3269Y1066D02*
X3269Y738D01*
D02*
X3269Y2641D02*
X3269Y2313D01*
D02*
X2319Y1066D02*
X2319Y738D01*
D02*
X2319Y2641D02*
X2319Y2313D01*
D02*
X1569Y1066D02*
X1569Y738D01*
D02*
X1569Y2641D02*
X1569Y2313D01*
D02*
X619Y1066D02*
X619Y738D01*
D02*
X619Y2641D02*
X619Y2313D01*
D02*
X3269Y677D02*
X3269Y249D01*
D02*
X3269Y2252D02*
X3269Y1824D01*
D02*
X2319Y677D02*
X2319Y249D01*
D02*
X2319Y2252D02*
X2319Y1824D01*
D02*
X1569Y677D02*
X1569Y249D01*
D02*
X1569Y2252D02*
X1569Y1824D01*
D02*
X619Y677D02*
X619Y249D01*
D02*
X619Y2252D02*
X619Y1824D01*
D02*
X3169Y638D02*
X3169Y1066D01*
D02*
X3169Y2213D02*
X3169Y2641D01*
D02*
X2419Y638D02*
X2419Y1066D01*
D02*
X2419Y2213D02*
X2419Y2641D01*
D02*
X1469Y638D02*
X1469Y1066D01*
D02*
X1469Y2213D02*
X1469Y2641D01*
D02*
X719Y638D02*
X719Y1066D01*
D02*
X719Y2213D02*
X719Y2641D01*
D02*
X3169Y577D02*
X3169Y249D01*
D02*
X3169Y2152D02*
X3169Y1824D01*
D02*
X2419Y577D02*
X2419Y249D01*
D02*
X2419Y2152D02*
X2419Y1824D01*
D02*
X1469Y577D02*
X1469Y249D01*
D02*
X1469Y2152D02*
X1469Y1824D01*
D02*
X719Y577D02*
X719Y249D01*
D02*
X719Y2152D02*
X719Y1824D01*
D02*
X3069Y538D02*
X3069Y1066D01*
D02*
X3069Y2113D02*
X3069Y2641D01*
D02*
X2519Y538D02*
X2519Y1066D01*
D02*
X2519Y2113D02*
X2519Y2641D01*
D02*
X1369Y538D02*
X1369Y1066D01*
D02*
X1369Y2113D02*
X1369Y2641D01*
D02*
X819Y538D02*
X819Y1066D01*
D02*
X819Y2113D02*
X819Y2641D01*
D02*
X3069Y477D02*
X3069Y249D01*
D02*
X3069Y2052D02*
X3069Y1824D01*
D02*
X2519Y477D02*
X2519Y249D01*
D02*
X2519Y2052D02*
X2519Y1824D01*
D02*
X1369Y477D02*
X1369Y249D01*
D02*
X1369Y2052D02*
X1369Y1824D01*
D02*
X819Y477D02*
X819Y249D01*
D02*
X819Y2052D02*
X819Y1824D01*
D02*
X2969Y377D02*
X2969Y249D01*
D02*
X2969Y1952D02*
X2969Y1824D01*
D02*
X2619Y377D02*
X2619Y249D01*
D02*
X2619Y1952D02*
X2619Y1824D01*
D02*
X1269Y377D02*
X1269Y249D01*
D02*
X1269Y1952D02*
X1269Y1824D01*
D02*
X919Y377D02*
X919Y249D01*
D02*
X919Y1952D02*
X919Y1824D01*
D02*
X2869Y277D02*
X2869Y249D01*
D02*
X2869Y1852D02*
X2869Y1824D01*
D02*
X2719Y277D02*
X2719Y249D01*
D02*
X2719Y1852D02*
X2719Y1824D01*
D02*
X1169Y277D02*
X1169Y249D01*
D02*
X1169Y1852D02*
X1169Y1824D01*
D02*
X1019Y277D02*
X1019Y249D01*
D02*
X1019Y1852D02*
X1019Y1824D01*
D02*
X2969Y438D02*
X2969Y1066D01*
D02*
X2969Y2013D02*
X2969Y2641D01*
D02*
X2619Y438D02*
X2619Y1066D01*
D02*
X2619Y2013D02*
X2619Y2641D01*
D02*
X1269Y438D02*
X1269Y1066D01*
D02*
X1269Y2013D02*
X1269Y2641D01*
D02*
X919Y438D02*
X919Y1066D01*
D02*
X919Y2013D02*
X919Y2641D01*
D02*
X2869Y338D02*
X2869Y1066D01*
D02*
X2869Y1913D02*
X2869Y2641D01*
D02*
X2719Y338D02*
X2719Y1066D01*
D02*
X2719Y1913D02*
X2719Y2641D01*
D02*
X1169Y338D02*
X1169Y1066D01*
D02*
X1169Y1913D02*
X1169Y2641D01*
D02*
X1019Y338D02*
X1019Y1066D01*
D02*
X1019Y1913D02*
X1019Y2641D01*
G04 End of Copper1*
M02*