; NON-PLATED HOLES START AT T1
; THROUGH (PLATED) HOLES START AT T100
M48
INCH
T1C0.125984
T100C0.038000
T101C0.015748
%
T1
X001194Y017075
X037694Y027575
X001194Y027575
X037694Y011825
X001194Y011825
X037694Y017075
X001194Y001325
X037694Y001325
T100
X022194Y026825
X004194Y011075
X035694Y017825
X034694Y017825
X037694Y005075
X033694Y011075
X011694Y017825
X001194Y008075
X032694Y011075
X032694Y017825
X010194Y011075
X025194Y011075
X001194Y006075
X026194Y011075
X001194Y004075
X016694Y011075
X021194Y026825
X033694Y026825
X009194Y011075
X016694Y002075
X033694Y017825
X027194Y017825
X017694Y002075
X004194Y002075
X015694Y002075
X029694Y002075
X015694Y011075
X029694Y026825
X007194Y011075
X031694Y011075
X015694Y017825
X031694Y002075
X014694Y011075
X031694Y017825
X001194Y010075
X032694Y002075
X017694Y026825
X001194Y022825
X022194Y011075
X006194Y011075
X008194Y002075
X010194Y002075
X018694Y011075
X003194Y002075
X037694Y024825
X031694Y026825
X037694Y023825
X037694Y019825
X001194Y020825
X017694Y011075
X006194Y002075
X016694Y026825
X007194Y017825
X030694Y017825
X014694Y002075
X023194Y002075
X005194Y026825
X009194Y017825
X018694Y017825
X001194Y025825
X037694Y007075
X012694Y026825
X001194Y003075
X037694Y018825
X003194Y026825
X001194Y005075
X018694Y026825
X026194Y026825
X011694Y026825
X014694Y026825
X001194Y019825
X027194Y011075
X028694Y026825
X010194Y026825
X008194Y017825
X004194Y017825
X037694Y004075
X022194Y002075
X027194Y026825
X023194Y026825
X020194Y011075
X020194Y002075
X021194Y017825
X006194Y026825
X005194Y017825
X013694Y017825
X009194Y026825
X025194Y026825
X030694Y011075
X030694Y026825
X013694Y011075
X037694Y008075
X001194Y021825
X024194Y011075
X007194Y026825
X008194Y026825
X008194Y011075
X037694Y022825
X003194Y017825
X024194Y017825
X009194Y002075
X026194Y017825
X037694Y021825
X015694Y026825
X024194Y026825
X037694Y020825
X033694Y002075
X030694Y002075
X017694Y017825
X037694Y003075
X034694Y026825
X020194Y026825
X024194Y002075
X021194Y011075
X011694Y011075
X026194Y002075
X035694Y002075
X034694Y002075
X016694Y017825
X028694Y017825
X012694Y002075
X018694Y002075
X028694Y002075
X001194Y009075
X029694Y011075
X014694Y017825
X006194Y017825
X011694Y002075
X035694Y011075
X013694Y002075
X004194Y026825
X023194Y011075
X023194Y017825
X027194Y002075
X035694Y026825
X025194Y002075
X037694Y010075
X037694Y009075
X034694Y011075
X012694Y017825
X012694Y011075
X037694Y025825
X022194Y017825
X020194Y017825
X029694Y017825
X001194Y023825
X037694Y006075
X032694Y026825
X010194Y017825
X001194Y018825
X001194Y007075
X003194Y011075
X013694Y026825
X021194Y002075
X028694Y011075
X005194Y002075
X001194Y024825
X007194Y002075
X005194Y011075
X025194Y017825
T101
X016694Y023825
X028694Y018825
X013694Y005075
X003194Y010075
X016694Y008075
X015694Y022825
X007194Y006075
X022194Y023825
X012694Y019825
X035694Y025825
X035694Y010075
X018694Y010075
X004194Y009075
X029694Y019825
X034694Y009075
X023194Y022825
X024194Y006075
X021194Y009075
X003194Y025825
X012694Y004075
X011694Y003075
X020194Y025825
X010194Y018825
X008194Y005075
X034694Y024825
X011694Y018825
X024194Y021825
X029694Y004075
X009194Y004075
X017694Y009075
X031694Y006075
X027194Y003075
X006194Y007075
X010194Y003075
X021194Y024825
X031694Y021825
X022194Y008075
X025194Y020825
X018694Y025825
X023194Y007075
X009194Y019825
X005194Y008075
X020194Y010075
X033694Y023825
X013694Y020825
X032694Y007075
X014694Y006075
X008194Y020825
X033694Y008075
X015694Y007075
X030694Y020825
X007194Y021825
X026194Y019825
X032694Y022825
X017694Y024825
X005194Y023825
X027194Y018825
X030694Y005075
X025194Y005075
X004194Y024825
X014694Y021825
X028694Y003075
X006194Y022825
X026194Y004075
T00
M30
