G04 MADE WITH FRITZING*
G04 WWW.FRITZING.ORG*
G04 DOUBLE SIDED*
G04 HOLES PLATED*
G04 CONTOUR ON CENTER OF CONTOUR VECTOR*
%ASAXBY*%
%FSLAX23Y23*%
%MOIN*%
%OFA0B0*%
%SFA1.0B1.0*%
%ADD10C,0.008*%
%LNCONTOUR*%
G90*
G70*
G54D10*
X0Y2885D02*
X0Y2884D01*
X0Y1563D01*
X1Y1563D01*
X2Y1563D01*
X3Y1563D01*
X4Y1563D01*
X5Y1563D01*
X6Y1563D01*
X7Y1563D01*
X8Y1563D01*
X9Y1563D01*
X10Y1563D01*
X11Y1563D01*
X12Y1563D01*
X13Y1563D01*
X14Y1563D01*
X15Y1563D01*
X16Y1563D01*
X17Y1563D01*
X18Y1563D01*
X19Y1563D01*
X20Y1563D01*
X21Y1563D01*
X22Y1563D01*
X23Y1563D01*
X24Y1563D01*
X25Y1563D01*
X26Y1563D01*
X27Y1563D01*
X28Y1563D01*
X29Y1563D01*
X30Y1563D01*
X31Y1563D01*
X32Y1563D01*
X33Y1563D01*
X34Y1563D01*
X35Y1563D01*
X36Y1563D01*
X37Y1563D01*
X38Y1563D01*
X39Y1563D01*
X40Y1563D01*
X41Y1563D01*
X42Y1563D01*
X43Y1563D01*
X44Y1563D01*
X45Y1563D01*
X46Y1563D01*
X47Y1563D01*
X48Y1563D01*
X49Y1563D01*
X50Y1563D01*
X51Y1563D01*
X52Y1563D01*
X53Y1563D01*
X54Y1563D01*
X55Y1563D01*
X56Y1563D01*
X57Y1563D01*
X58Y1563D01*
X59Y1563D01*
X60Y1563D01*
X61Y1563D01*
X62Y1563D01*
X63Y1563D01*
X64Y1563D01*
X65Y1563D01*
X66Y1563D01*
X67Y1563D01*
X68Y1563D01*
X69Y1563D01*
X70Y1563D01*
X71Y1563D01*
X72Y1563D01*
X73Y1563D01*
X74Y1563D01*
X75Y1563D01*
X76Y1563D01*
X77Y1563D01*
X78Y1563D01*
X79Y1563D01*
X80Y1563D01*
X81Y1563D01*
X82Y1563D01*
X83Y1563D01*
X84Y1563D01*
X85Y1563D01*
X86Y1563D01*
X87Y1563D01*
X88Y1563D01*
X89Y1563D01*
X90Y1563D01*
X91Y1563D01*
X92Y1563D01*
X93Y1563D01*
X94Y1563D01*
X95Y1563D01*
X96Y1563D01*
X97Y1563D01*
X98Y1563D01*
X99Y1563D01*
X100Y1563D01*
X101Y1563D01*
X102Y1563D01*
X103Y1563D01*
X104Y1563D01*
X105Y1563D01*
X106Y1563D01*
X107Y1563D01*
X108Y1563D01*
X109Y1563D01*
X110Y1563D01*
X111Y1563D01*
X112Y1563D01*
X113Y1563D01*
X114Y1563D01*
X115Y1563D01*
X116Y1563D01*
X117Y1563D01*
X118Y1563D01*
X119Y1563D01*
X120Y1563D01*
X121Y1563D01*
X122Y1563D01*
X123Y1563D01*
X124Y1563D01*
X125Y1563D01*
X126Y1563D01*
X127Y1563D01*
X128Y1563D01*
X129Y1563D01*
X130Y1563D01*
X131Y1563D01*
X132Y1563D01*
X133Y1563D01*
X134Y1563D01*
X135Y1563D01*
X136Y1563D01*
X137Y1563D01*
X138Y1563D01*
X139Y1563D01*
X140Y1563D01*
X141Y1563D01*
X142Y1563D01*
X143Y1563D01*
X144Y1563D01*
X145Y1563D01*
X146Y1563D01*
X147Y1563D01*
X148Y1563D01*
X149Y1563D01*
X150Y1563D01*
X151Y1563D01*
X152Y1563D01*
X153Y1563D01*
X154Y1563D01*
X155Y1563D01*
X156Y1563D01*
X157Y1563D01*
X158Y1563D01*
X159Y1563D01*
X160Y1563D01*
X161Y1563D01*
X162Y1563D01*
X163Y1563D01*
X164Y1563D01*
X165Y1563D01*
X166Y1563D01*
X167Y1563D01*
X168Y1563D01*
X169Y1563D01*
X170Y1563D01*
X171Y1563D01*
X172Y1563D01*
X173Y1563D01*
X174Y1563D01*
X175Y1563D01*
X176Y1563D01*
X177Y1563D01*
X178Y1563D01*
X179Y1563D01*
X180Y1563D01*
X181Y1563D01*
X182Y1563D01*
X183Y1563D01*
X184Y1563D01*
X185Y1563D01*
X186Y1563D01*
X187Y1563D01*
X188Y1563D01*
X189Y1563D01*
X190Y1563D01*
X191Y1563D01*
X192Y1563D01*
X193Y1563D01*
X194Y1563D01*
X195Y1563D01*
X196Y1563D01*
X197Y1563D01*
X198Y1563D01*
X199Y1563D01*
X200Y1563D01*
X201Y1563D01*
X202Y1563D01*
X203Y1563D01*
X204Y1563D01*
X205Y1563D01*
X206Y1563D01*
X207Y1563D01*
X208Y1563D01*
X209Y1563D01*
X210Y1563D01*
X211Y1563D01*
X212Y1563D01*
X213Y1563D01*
X214Y1563D01*
X215Y1563D01*
X216Y1563D01*
X217Y1563D01*
X218Y1563D01*
X219Y1563D01*
X220Y1563D01*
X221Y1563D01*
X222Y1563D01*
X223Y1563D01*
X224Y1563D01*
X225Y1563D01*
X226Y1563D01*
X227Y1563D01*
X228Y1563D01*
X229Y1563D01*
X230Y1563D01*
X231Y1563D01*
X232Y1563D01*
X233Y1563D01*
X234Y1563D01*
X235Y1563D01*
X236Y1563D01*
X237Y1563D01*
X238Y1563D01*
X239Y1563D01*
X240Y1563D01*
X241Y1563D01*
X242Y1563D01*
X243Y1563D01*
X244Y1563D01*
X245Y1563D01*
X246Y1563D01*
X247Y1563D01*
X248Y1563D01*
X249Y1563D01*
X250Y1563D01*
X251Y1563D01*
X252Y1563D01*
X253Y1563D01*
X254Y1563D01*
X255Y1563D01*
X256Y1563D01*
X257Y1563D01*
X258Y1563D01*
X259Y1563D01*
X260Y1563D01*
X261Y1563D01*
X262Y1563D01*
X263Y1563D01*
X264Y1563D01*
X265Y1563D01*
X266Y1563D01*
X267Y1563D01*
X268Y1563D01*
X269Y1563D01*
X270Y1563D01*
X271Y1563D01*
X272Y1563D01*
X273Y1563D01*
X274Y1563D01*
X275Y1563D01*
X276Y1563D01*
X277Y1563D01*
X278Y1563D01*
X279Y1563D01*
X280Y1563D01*
X281Y1563D01*
X282Y1563D01*
X283Y1563D01*
X284Y1563D01*
X285Y1563D01*
X286Y1563D01*
X287Y1563D01*
X288Y1563D01*
X289Y1563D01*
X290Y1563D01*
X291Y1563D01*
X292Y1563D01*
X293Y1563D01*
X294Y1563D01*
X295Y1563D01*
X296Y1563D01*
X297Y1563D01*
X298Y1563D01*
X299Y1563D01*
X300Y1563D01*
X301Y1563D01*
X302Y1563D01*
X303Y1563D01*
X304Y1563D01*
X305Y1563D01*
X306Y1563D01*
X307Y1563D01*
X308Y1563D01*
X309Y1563D01*
X310Y1563D01*
X311Y1563D01*
X312Y1563D01*
X313Y1563D01*
X314Y1563D01*
X315Y1563D01*
X316Y1563D01*
X317Y1563D01*
X318Y1563D01*
X319Y1563D01*
X320Y1563D01*
X321Y1563D01*
X322Y1563D01*
X323Y1563D01*
X324Y1563D01*
X325Y1563D01*
X326Y1563D01*
X327Y1563D01*
X328Y1563D01*
X329Y1563D01*
X330Y1563D01*
X331Y1563D01*
X332Y1563D01*
X333Y1563D01*
X334Y1563D01*
X335Y1563D01*
X336Y1563D01*
X337Y1563D01*
X338Y1563D01*
X339Y1563D01*
X340Y1563D01*
X341Y1563D01*
X342Y1563D01*
X343Y1563D01*
X344Y1563D01*
X345Y1563D01*
X346Y1563D01*
X347Y1563D01*
X348Y1563D01*
X349Y1563D01*
X350Y1563D01*
X351Y1563D01*
X352Y1563D01*
X353Y1563D01*
X354Y1563D01*
X355Y1563D01*
X356Y1563D01*
X357Y1563D01*
X358Y1563D01*
X359Y1563D01*
X360Y1563D01*
X361Y1563D01*
X362Y1563D01*
X363Y1563D01*
X364Y1563D01*
X365Y1563D01*
X366Y1563D01*
X367Y1563D01*
X368Y1563D01*
X369Y1563D01*
X370Y1563D01*
X371Y1563D01*
X372Y1563D01*
X373Y1563D01*
X374Y1563D01*
X375Y1563D01*
X376Y1563D01*
X377Y1563D01*
X378Y1563D01*
X379Y1563D01*
X380Y1563D01*
X381Y1563D01*
X382Y1563D01*
X383Y1563D01*
X384Y1563D01*
X385Y1563D01*
X386Y1563D01*
X387Y1563D01*
X388Y1563D01*
X389Y1563D01*
X390Y1563D01*
X391Y1563D01*
X392Y1563D01*
X393Y1563D01*
X394Y1563D01*
X395Y1563D01*
X396Y1563D01*
X397Y1563D01*
X398Y1563D01*
X399Y1563D01*
X400Y1563D01*
X401Y1563D01*
X402Y1563D01*
X403Y1563D01*
X404Y1563D01*
X405Y1563D01*
X406Y1563D01*
X407Y1563D01*
X408Y1563D01*
X409Y1563D01*
X410Y1563D01*
X411Y1563D01*
X412Y1563D01*
X413Y1563D01*
X414Y1563D01*
X415Y1563D01*
X416Y1563D01*
X417Y1563D01*
X418Y1563D01*
X419Y1563D01*
X420Y1563D01*
X421Y1563D01*
X422Y1563D01*
X423Y1563D01*
X424Y1563D01*
X425Y1563D01*
X426Y1563D01*
X427Y1563D01*
X428Y1563D01*
X429Y1563D01*
X430Y1563D01*
X431Y1563D01*
X432Y1563D01*
X433Y1563D01*
X434Y1563D01*
X435Y1563D01*
X436Y1563D01*
X437Y1563D01*
X438Y1563D01*
X439Y1563D01*
X440Y1563D01*
X441Y1563D01*
X442Y1563D01*
X443Y1563D01*
X444Y1563D01*
X445Y1563D01*
X446Y1563D01*
X447Y1563D01*
X448Y1563D01*
X449Y1563D01*
X450Y1563D01*
X451Y1563D01*
X452Y1563D01*
X453Y1563D01*
X454Y1563D01*
X455Y1563D01*
X456Y1563D01*
X457Y1563D01*
X458Y1563D01*
X459Y1563D01*
X460Y1563D01*
X461Y1563D01*
X462Y1563D01*
X463Y1563D01*
X464Y1563D01*
X465Y1563D01*
X466Y1563D01*
X467Y1563D01*
X468Y1563D01*
X469Y1563D01*
X470Y1563D01*
X471Y1563D01*
X472Y1563D01*
X473Y1563D01*
X474Y1563D01*
X475Y1563D01*
X476Y1563D01*
X477Y1563D01*
X478Y1563D01*
X479Y1563D01*
X480Y1563D01*
X481Y1563D01*
X482Y1563D01*
X483Y1563D01*
X484Y1563D01*
X485Y1563D01*
X486Y1563D01*
X487Y1563D01*
X488Y1563D01*
X489Y1563D01*
X490Y1563D01*
X491Y1563D01*
X492Y1563D01*
X493Y1563D01*
X494Y1563D01*
X495Y1563D01*
X496Y1563D01*
X497Y1563D01*
X498Y1563D01*
X499Y1563D01*
X500Y1563D01*
X501Y1563D01*
X502Y1563D01*
X503Y1563D01*
X504Y1563D01*
X505Y1563D01*
X506Y1563D01*
X507Y1563D01*
X508Y1563D01*
X509Y1563D01*
X510Y1563D01*
X511Y1563D01*
X512Y1563D01*
X513Y1563D01*
X514Y1563D01*
X515Y1563D01*
X516Y1563D01*
X517Y1563D01*
X518Y1563D01*
X519Y1563D01*
X520Y1563D01*
X521Y1563D01*
X522Y1563D01*
X523Y1563D01*
X524Y1563D01*
X525Y1563D01*
X526Y1563D01*
X527Y1563D01*
X528Y1563D01*
X529Y1563D01*
X530Y1563D01*
X531Y1563D01*
X532Y1563D01*
X533Y1563D01*
X534Y1563D01*
X535Y1563D01*
X536Y1563D01*
X537Y1563D01*
X538Y1563D01*
X539Y1563D01*
X540Y1563D01*
X541Y1563D01*
X542Y1563D01*
X543Y1563D01*
X544Y1563D01*
X545Y1563D01*
X546Y1563D01*
X547Y1563D01*
X548Y1563D01*
X549Y1563D01*
X550Y1563D01*
X551Y1563D01*
X552Y1563D01*
X553Y1563D01*
X554Y1563D01*
X555Y1563D01*
X556Y1563D01*
X557Y1563D01*
X558Y1563D01*
X559Y1563D01*
X560Y1563D01*
X561Y1563D01*
X562Y1563D01*
X563Y1563D01*
X564Y1563D01*
X565Y1563D01*
X566Y1563D01*
X567Y1563D01*
X568Y1563D01*
X569Y1563D01*
X570Y1563D01*
X571Y1563D01*
X572Y1563D01*
X573Y1563D01*
X574Y1563D01*
X575Y1563D01*
X576Y1563D01*
X577Y1563D01*
X578Y1563D01*
X579Y1563D01*
X580Y1563D01*
X581Y1563D01*
X582Y1563D01*
X583Y1563D01*
X584Y1563D01*
X585Y1563D01*
X586Y1563D01*
X587Y1563D01*
X588Y1563D01*
X589Y1563D01*
X590Y1563D01*
X591Y1563D01*
X592Y1563D01*
X593Y1563D01*
X594Y1563D01*
X595Y1563D01*
X596Y1563D01*
X597Y1563D01*
X598Y1563D01*
X599Y1563D01*
X600Y1563D01*
X601Y1563D01*
X602Y1563D01*
X603Y1563D01*
X604Y1563D01*
X605Y1563D01*
X606Y1563D01*
X607Y1563D01*
X608Y1563D01*
X609Y1563D01*
X610Y1563D01*
X611Y1563D01*
X612Y1563D01*
X613Y1563D01*
X614Y1563D01*
X615Y1563D01*
X616Y1563D01*
X617Y1563D01*
X618Y1563D01*
X619Y1563D01*
X620Y1563D01*
X621Y1563D01*
X622Y1563D01*
X623Y1563D01*
X624Y1563D01*
X625Y1563D01*
X626Y1563D01*
X627Y1563D01*
X628Y1563D01*
X629Y1563D01*
X630Y1563D01*
X631Y1563D01*
X632Y1563D01*
X633Y1563D01*
X634Y1563D01*
X635Y1563D01*
X636Y1563D01*
X637Y1563D01*
X638Y1563D01*
X639Y1563D01*
X640Y1563D01*
X641Y1563D01*
X642Y1563D01*
X643Y1563D01*
X644Y1563D01*
X645Y1563D01*
X646Y1563D01*
X647Y1563D01*
X648Y1563D01*
X649Y1563D01*
X650Y1563D01*
X651Y1563D01*
X652Y1563D01*
X653Y1563D01*
X654Y1563D01*
X655Y1563D01*
X656Y1563D01*
X657Y1563D01*
X658Y1563D01*
X659Y1563D01*
X660Y1563D01*
X661Y1563D01*
X662Y1563D01*
X663Y1563D01*
X664Y1563D01*
X665Y1563D01*
X666Y1563D01*
X667Y1563D01*
X668Y1563D01*
X669Y1563D01*
X670Y1563D01*
X671Y1563D01*
X672Y1563D01*
X673Y1563D01*
X674Y1563D01*
X675Y1563D01*
X676Y1563D01*
X677Y1563D01*
X678Y1563D01*
X679Y1563D01*
X680Y1563D01*
X681Y1563D01*
X682Y1563D01*
X683Y1563D01*
X684Y1563D01*
X685Y1563D01*
X686Y1563D01*
X687Y1563D01*
X688Y1563D01*
X689Y1563D01*
X690Y1563D01*
X691Y1563D01*
X692Y1563D01*
X693Y1563D01*
X694Y1563D01*
X695Y1563D01*
X696Y1563D01*
X697Y1563D01*
X698Y1563D01*
X699Y1563D01*
X700Y1563D01*
X701Y1563D01*
X702Y1563D01*
X703Y1563D01*
X704Y1563D01*
X705Y1563D01*
X706Y1563D01*
X707Y1563D01*
X708Y1563D01*
X709Y1563D01*
X710Y1563D01*
X711Y1563D01*
X712Y1563D01*
X713Y1563D01*
X714Y1563D01*
X715Y1563D01*
X716Y1563D01*
X717Y1563D01*
X718Y1563D01*
X719Y1563D01*
X720Y1563D01*
X721Y1563D01*
X722Y1563D01*
X723Y1563D01*
X724Y1563D01*
X725Y1563D01*
X726Y1563D01*
X727Y1563D01*
X728Y1563D01*
X729Y1563D01*
X730Y1563D01*
X731Y1563D01*
X732Y1563D01*
X733Y1563D01*
X734Y1563D01*
X735Y1563D01*
X736Y1563D01*
X737Y1563D01*
X738Y1563D01*
X739Y1563D01*
X740Y1563D01*
X741Y1563D01*
X742Y1563D01*
X743Y1563D01*
X744Y1563D01*
X745Y1563D01*
X746Y1563D01*
X747Y1563D01*
X748Y1563D01*
X749Y1563D01*
X750Y1563D01*
X751Y1563D01*
X752Y1563D01*
X753Y1563D01*
X754Y1563D01*
X755Y1563D01*
X756Y1563D01*
X757Y1563D01*
X758Y1563D01*
X759Y1563D01*
X760Y1563D01*
X761Y1563D01*
X762Y1563D01*
X763Y1563D01*
X764Y1563D01*
X765Y1563D01*
X766Y1563D01*
X767Y1563D01*
X768Y1563D01*
X769Y1563D01*
X770Y1563D01*
X771Y1563D01*
X772Y1563D01*
X773Y1563D01*
X774Y1563D01*
X775Y1563D01*
X776Y1563D01*
X777Y1563D01*
X778Y1563D01*
X779Y1563D01*
X780Y1563D01*
X781Y1563D01*
X782Y1563D01*
X783Y1563D01*
X784Y1563D01*
X785Y1563D01*
X786Y1563D01*
X787Y1563D01*
X788Y1563D01*
X789Y1563D01*
X790Y1563D01*
X791Y1563D01*
X792Y1563D01*
X793Y1563D01*
X794Y1563D01*
X795Y1563D01*
X796Y1563D01*
X797Y1563D01*
X798Y1563D01*
X799Y1563D01*
X800Y1563D01*
X801Y1563D01*
X802Y1563D01*
X803Y1563D01*
X804Y1563D01*
X805Y1563D01*
X806Y1563D01*
X807Y1563D01*
X808Y1563D01*
X809Y1563D01*
X810Y1563D01*
X811Y1563D01*
X812Y1563D01*
X813Y1563D01*
X814Y1563D01*
X815Y1563D01*
X816Y1563D01*
X817Y1563D01*
X818Y1563D01*
X819Y1563D01*
X820Y1563D01*
X821Y1563D01*
X822Y1563D01*
X823Y1563D01*
X824Y1563D01*
X825Y1563D01*
X826Y1563D01*
X827Y1563D01*
X828Y1563D01*
X829Y1563D01*
X830Y1563D01*
X831Y1563D01*
X832Y1563D01*
X833Y1563D01*
X834Y1563D01*
X835Y1563D01*
X836Y1563D01*
X837Y1563D01*
X838Y1563D01*
X839Y1563D01*
X840Y1563D01*
X841Y1563D01*
X842Y1563D01*
X843Y1563D01*
X844Y1563D01*
X845Y1563D01*
X846Y1563D01*
X847Y1563D01*
X848Y1563D01*
X849Y1563D01*
X850Y1563D01*
X851Y1563D01*
X852Y1563D01*
X853Y1563D01*
X854Y1563D01*
X855Y1563D01*
X856Y1563D01*
X857Y1563D01*
X858Y1563D01*
X859Y1563D01*
X860Y1563D01*
X861Y1563D01*
X862Y1563D01*
X863Y1563D01*
X864Y1563D01*
X865Y1563D01*
X866Y1563D01*
X867Y1563D01*
X868Y1563D01*
X869Y1563D01*
X870Y1563D01*
X871Y1563D01*
X872Y1563D01*
X873Y1563D01*
X874Y1563D01*
X875Y1563D01*
X876Y1563D01*
X877Y1563D01*
X878Y1563D01*
X879Y1563D01*
X880Y1563D01*
X881Y1563D01*
X882Y1563D01*
X883Y1563D01*
X884Y1563D01*
X885Y1563D01*
X886Y1563D01*
X887Y1563D01*
X888Y1563D01*
X889Y1563D01*
X890Y1563D01*
X891Y1563D01*
X892Y1563D01*
X893Y1563D01*
X894Y1563D01*
X895Y1563D01*
X896Y1563D01*
X897Y1563D01*
X898Y1563D01*
X899Y1563D01*
X900Y1563D01*
X901Y1563D01*
X902Y1563D01*
X903Y1563D01*
X904Y1563D01*
X905Y1563D01*
X906Y1563D01*
X907Y1563D01*
X908Y1563D01*
X909Y1563D01*
X910Y1563D01*
X911Y1563D01*
X912Y1563D01*
X913Y1563D01*
X914Y1563D01*
X915Y1563D01*
X916Y1563D01*
X917Y1563D01*
X918Y1563D01*
X919Y1563D01*
X920Y1563D01*
X921Y1563D01*
X922Y1563D01*
X923Y1563D01*
X924Y1563D01*
X925Y1563D01*
X926Y1563D01*
X927Y1563D01*
X928Y1563D01*
X929Y1563D01*
X930Y1563D01*
X931Y1563D01*
X932Y1563D01*
X933Y1563D01*
X934Y1563D01*
X935Y1563D01*
X936Y1563D01*
X937Y1563D01*
X938Y1563D01*
X939Y1563D01*
X940Y1563D01*
X941Y1563D01*
X942Y1563D01*
X943Y1563D01*
X944Y1563D01*
X945Y1563D01*
X946Y1563D01*
X947Y1563D01*
X948Y1563D01*
X949Y1563D01*
X950Y1563D01*
X951Y1563D01*
X952Y1563D01*
X953Y1563D01*
X954Y1563D01*
X955Y1563D01*
X956Y1563D01*
X957Y1563D01*
X958Y1563D01*
X959Y1563D01*
X960Y1563D01*
X961Y1563D01*
X962Y1563D01*
X963Y1563D01*
X964Y1563D01*
X965Y1563D01*
X966Y1563D01*
X967Y1563D01*
X968Y1563D01*
X969Y1563D01*
X970Y1563D01*
X971Y1563D01*
X972Y1563D01*
X973Y1563D01*
X974Y1563D01*
X975Y1563D01*
X976Y1563D01*
X977Y1563D01*
X978Y1563D01*
X979Y1563D01*
X980Y1563D01*
X981Y1563D01*
X982Y1563D01*
X983Y1563D01*
X984Y1563D01*
X985Y1563D01*
X986Y1563D01*
X987Y1563D01*
X988Y1563D01*
X989Y1563D01*
X990Y1563D01*
X991Y1563D01*
X992Y1563D01*
X993Y1563D01*
X994Y1563D01*
X995Y1563D01*
X996Y1563D01*
X997Y1563D01*
X998Y1563D01*
X999Y1563D01*
X1000Y1563D01*
X1001Y1563D01*
X1002Y1563D01*
X1003Y1563D01*
X1004Y1563D01*
X1005Y1563D01*
X1006Y1563D01*
X1007Y1563D01*
X1008Y1563D01*
X1009Y1563D01*
X1010Y1563D01*
X1011Y1563D01*
X1012Y1563D01*
X1013Y1563D01*
X1014Y1563D01*
X1015Y1563D01*
X1016Y1563D01*
X1017Y1563D01*
X1018Y1563D01*
X1019Y1563D01*
X1020Y1563D01*
X1021Y1563D01*
X1022Y1563D01*
X1023Y1563D01*
X1024Y1563D01*
X1025Y1563D01*
X1026Y1563D01*
X1027Y1563D01*
X1028Y1563D01*
X1029Y1563D01*
X1030Y1563D01*
X1031Y1563D01*
X1032Y1563D01*
X1033Y1563D01*
X1034Y1563D01*
X1035Y1563D01*
X1036Y1563D01*
X1037Y1563D01*
X1038Y1563D01*
X1039Y1563D01*
X1040Y1563D01*
X1041Y1563D01*
X1042Y1563D01*
X1043Y1563D01*
X1044Y1563D01*
X1045Y1563D01*
X1046Y1563D01*
X1047Y1563D01*
X1048Y1563D01*
X1049Y1563D01*
X1050Y1563D01*
X1051Y1563D01*
X1052Y1563D01*
X1053Y1563D01*
X1054Y1563D01*
X1055Y1563D01*
X1056Y1563D01*
X1057Y1563D01*
X1058Y1563D01*
X1059Y1563D01*
X1060Y1563D01*
X1061Y1563D01*
X1062Y1563D01*
X1063Y1563D01*
X1064Y1563D01*
X1065Y1563D01*
X1066Y1563D01*
X1067Y1563D01*
X1068Y1563D01*
X1069Y1563D01*
X1070Y1563D01*
X1071Y1563D01*
X1072Y1563D01*
X1073Y1563D01*
X1074Y1563D01*
X1075Y1563D01*
X1076Y1563D01*
X1077Y1563D01*
X1078Y1563D01*
X1079Y1563D01*
X1080Y1563D01*
X1081Y1563D01*
X1082Y1563D01*
X1083Y1563D01*
X1084Y1563D01*
X1085Y1563D01*
X1086Y1563D01*
X1087Y1563D01*
X1088Y1563D01*
X1089Y1563D01*
X1090Y1563D01*
X1091Y1563D01*
X1092Y1563D01*
X1093Y1563D01*
X1094Y1563D01*
X1095Y1563D01*
X1096Y1563D01*
X1097Y1563D01*
X1098Y1563D01*
X1099Y1563D01*
X1100Y1563D01*
X1101Y1563D01*
X1102Y1563D01*
X1103Y1563D01*
X1104Y1563D01*
X1105Y1563D01*
X1106Y1563D01*
X1107Y1563D01*
X1108Y1563D01*
X1109Y1563D01*
X1110Y1563D01*
X1111Y1563D01*
X1112Y1563D01*
X1113Y1563D01*
X1114Y1563D01*
X1115Y1563D01*
X1116Y1563D01*
X1117Y1563D01*
X1118Y1563D01*
X1119Y1563D01*
X1120Y1563D01*
X1121Y1563D01*
X1122Y1563D01*
X1123Y1563D01*
X1124Y1563D01*
X1125Y1563D01*
X1126Y1563D01*
X1127Y1563D01*
X1128Y1563D01*
X1129Y1563D01*
X1130Y1563D01*
X1131Y1563D01*
X1132Y1563D01*
X1133Y1563D01*
X1134Y1563D01*
X1135Y1563D01*
X1136Y1563D01*
X1137Y1563D01*
X1138Y1563D01*
X1139Y1563D01*
X1140Y1563D01*
X1141Y1563D01*
X1142Y1563D01*
X1143Y1563D01*
X1144Y1563D01*
X1145Y1563D01*
X1146Y1563D01*
X1147Y1563D01*
X1148Y1563D01*
X1149Y1563D01*
X1150Y1563D01*
X1151Y1563D01*
X1152Y1563D01*
X1153Y1563D01*
X1154Y1563D01*
X1155Y1563D01*
X1156Y1563D01*
X1157Y1563D01*
X1158Y1563D01*
X1159Y1563D01*
X1160Y1563D01*
X1161Y1563D01*
X1162Y1563D01*
X1163Y1563D01*
X1164Y1563D01*
X1165Y1563D01*
X1166Y1563D01*
X1167Y1563D01*
X1168Y1563D01*
X1169Y1563D01*
X1170Y1563D01*
X1171Y1563D01*
X1172Y1563D01*
X1173Y1563D01*
X1174Y1563D01*
X1175Y1563D01*
X1176Y1563D01*
X1177Y1563D01*
X1178Y1563D01*
X1179Y1563D01*
X1180Y1563D01*
X1181Y1563D01*
X1182Y1563D01*
X1183Y1563D01*
X1184Y1563D01*
X1185Y1563D01*
X1186Y1563D01*
X1187Y1563D01*
X1188Y1563D01*
X1189Y1563D01*
X1190Y1563D01*
X1191Y1563D01*
X1192Y1563D01*
X1193Y1563D01*
X1194Y1563D01*
X1195Y1563D01*
X1196Y1563D01*
X1197Y1563D01*
X1198Y1563D01*
X1199Y1563D01*
X1200Y1563D01*
X1201Y1563D01*
X1202Y1563D01*
X1203Y1563D01*
X1204Y1563D01*
X1205Y1563D01*
X1206Y1563D01*
X1207Y1563D01*
X1208Y1563D01*
X1209Y1563D01*
X1210Y1563D01*
X1211Y1563D01*
X1212Y1563D01*
X1213Y1563D01*
X1214Y1563D01*
X1215Y1563D01*
X1216Y1563D01*
X1217Y1563D01*
X1218Y1563D01*
X1219Y1563D01*
X1220Y1563D01*
X1221Y1563D01*
X1222Y1563D01*
X1223Y1563D01*
X1224Y1563D01*
X1225Y1563D01*
X1226Y1563D01*
X1227Y1563D01*
X1228Y1563D01*
X1229Y1563D01*
X1230Y1563D01*
X1231Y1563D01*
X1232Y1563D01*
X1233Y1563D01*
X1234Y1563D01*
X1235Y1563D01*
X1236Y1563D01*
X1237Y1563D01*
X1238Y1563D01*
X1239Y1563D01*
X1240Y1563D01*
X1241Y1563D01*
X1242Y1563D01*
X1243Y1563D01*
X1244Y1563D01*
X1245Y1563D01*
X1246Y1563D01*
X1247Y1563D01*
X1248Y1563D01*
X1249Y1563D01*
X1250Y1563D01*
X1251Y1563D01*
X1252Y1563D01*
X1253Y1563D01*
X1254Y1563D01*
X1255Y1563D01*
X1256Y1563D01*
X1257Y1563D01*
X1258Y1563D01*
X1259Y1563D01*
X1260Y1563D01*
X1261Y1563D01*
X1262Y1563D01*
X1263Y1563D01*
X1264Y1563D01*
X1265Y1563D01*
X1266Y1563D01*
X1267Y1563D01*
X1268Y1563D01*
X1269Y1563D01*
X1270Y1563D01*
X1271Y1563D01*
X1272Y1563D01*
X1273Y1563D01*
X1274Y1563D01*
X1275Y1563D01*
X1276Y1563D01*
X1277Y1563D01*
X1278Y1563D01*
X1279Y1563D01*
X1280Y1563D01*
X1281Y1563D01*
X1282Y1563D01*
X1283Y1563D01*
X1284Y1563D01*
X1285Y1563D01*
X1286Y1563D01*
X1287Y1563D01*
X1288Y1563D01*
X1289Y1563D01*
X1290Y1563D01*
X1291Y1563D01*
X1292Y1563D01*
X1293Y1563D01*
X1294Y1563D01*
X1295Y1563D01*
X1296Y1563D01*
X1297Y1563D01*
X1298Y1563D01*
X1299Y1563D01*
X1300Y1563D01*
X1301Y1563D01*
X1302Y1563D01*
X1303Y1563D01*
X1304Y1563D01*
X1305Y1563D01*
X1306Y1563D01*
X1307Y1563D01*
X1308Y1563D01*
X1309Y1563D01*
X1310Y1563D01*
X1311Y1563D01*
X1312Y1563D01*
X1313Y1563D01*
X1314Y1563D01*
X1315Y1563D01*
X1316Y1563D01*
X1317Y1563D01*
X1318Y1563D01*
X1319Y1563D01*
X1320Y1563D01*
X1321Y1563D01*
X1322Y1563D01*
X1323Y1563D01*
X1324Y1563D01*
X1325Y1563D01*
X1326Y1563D01*
X1327Y1563D01*
X1328Y1563D01*
X1329Y1563D01*
X1330Y1563D01*
X1331Y1563D01*
X1332Y1563D01*
X1333Y1563D01*
X1334Y1563D01*
X1335Y1563D01*
X1336Y1563D01*
X1337Y1563D01*
X1338Y1563D01*
X1339Y1563D01*
X1340Y1563D01*
X1341Y1563D01*
X1342Y1563D01*
X1343Y1563D01*
X1344Y1563D01*
X1345Y1563D01*
X1346Y1563D01*
X1347Y1563D01*
X1348Y1563D01*
X1349Y1563D01*
X1350Y1563D01*
X1351Y1563D01*
X1352Y1563D01*
X1353Y1563D01*
X1354Y1563D01*
X1355Y1563D01*
X1356Y1563D01*
X1357Y1563D01*
X1358Y1563D01*
X1359Y1563D01*
X1360Y1563D01*
X1361Y1563D01*
X1362Y1563D01*
X1363Y1563D01*
X1364Y1563D01*
X1365Y1563D01*
X1366Y1563D01*
X1367Y1563D01*
X1368Y1563D01*
X1369Y1563D01*
X1370Y1563D01*
X1371Y1563D01*
X1372Y1563D01*
X1373Y1563D01*
X1374Y1563D01*
X1375Y1563D01*
X1376Y1563D01*
X1377Y1563D01*
X1378Y1563D01*
X1379Y1563D01*
X1380Y1563D01*
X1381Y1563D01*
X1382Y1563D01*
X1383Y1563D01*
X1384Y1563D01*
X1385Y1563D01*
X1386Y1563D01*
X1387Y1563D01*
X1388Y1563D01*
X1389Y1563D01*
X1390Y1563D01*
X1391Y1563D01*
X1392Y1563D01*
X1393Y1563D01*
X1394Y1563D01*
X1395Y1563D01*
X1396Y1563D01*
X1397Y1563D01*
X1398Y1563D01*
X1399Y1563D01*
X1400Y1563D01*
X1401Y1563D01*
X1402Y1563D01*
X1403Y1563D01*
X1404Y1563D01*
X1405Y1563D01*
X1406Y1563D01*
X1407Y1563D01*
X1408Y1563D01*
X1409Y1563D01*
X1410Y1563D01*
X1411Y1563D01*
X1412Y1563D01*
X1413Y1563D01*
X1414Y1563D01*
X1415Y1563D01*
X1416Y1563D01*
X1417Y1563D01*
X1418Y1563D01*
X1419Y1563D01*
X1420Y1563D01*
X1421Y1563D01*
X1422Y1563D01*
X1423Y1563D01*
X1424Y1563D01*
X1425Y1563D01*
X1426Y1563D01*
X1427Y1563D01*
X1428Y1563D01*
X1429Y1563D01*
X1430Y1562D01*
X1430Y1324D01*
X1429Y1323D01*
X1428Y1323D01*
X1427Y1323D01*
X1426Y1323D01*
X1425Y1323D01*
X1424Y1323D01*
X1423Y1323D01*
X1422Y1323D01*
X1421Y1323D01*
X1420Y1323D01*
X1419Y1323D01*
X1418Y1323D01*
X1417Y1323D01*
X1416Y1323D01*
X1415Y1323D01*
X1414Y1323D01*
X1413Y1323D01*
X1412Y1323D01*
X1411Y1323D01*
X1410Y1323D01*
X1409Y1323D01*
X1408Y1323D01*
X1407Y1323D01*
X1406Y1323D01*
X1405Y1323D01*
X1404Y1323D01*
X1403Y1323D01*
X1402Y1323D01*
X1401Y1323D01*
X1400Y1323D01*
X1399Y1323D01*
X1398Y1323D01*
X1397Y1323D01*
X1396Y1323D01*
X1395Y1323D01*
X1394Y1323D01*
X1393Y1323D01*
X1392Y1323D01*
X1391Y1323D01*
X1390Y1323D01*
X1389Y1323D01*
X1388Y1323D01*
X1387Y1323D01*
X1386Y1323D01*
X1385Y1323D01*
X1384Y1323D01*
X1383Y1323D01*
X1382Y1323D01*
X1381Y1323D01*
X1380Y1323D01*
X1379Y1323D01*
X1378Y1323D01*
X1377Y1323D01*
X1376Y1323D01*
X1375Y1323D01*
X1374Y1323D01*
X1373Y1323D01*
X1372Y1323D01*
X1371Y1323D01*
X1370Y1323D01*
X1369Y1323D01*
X1368Y1323D01*
X1367Y1323D01*
X1366Y1323D01*
X1365Y1323D01*
X1364Y1323D01*
X1363Y1323D01*
X1362Y1323D01*
X1361Y1323D01*
X1360Y1323D01*
X1359Y1323D01*
X1358Y1323D01*
X1357Y1323D01*
X1356Y1323D01*
X1355Y1323D01*
X1354Y1323D01*
X1353Y1323D01*
X1352Y1323D01*
X1351Y1323D01*
X1350Y1323D01*
X1349Y1323D01*
X1348Y1323D01*
X1347Y1323D01*
X1346Y1323D01*
X1345Y1323D01*
X1344Y1323D01*
X1343Y1323D01*
X1342Y1323D01*
X1341Y1323D01*
X1340Y1323D01*
X1339Y1323D01*
X1338Y1323D01*
X1337Y1323D01*
X1336Y1323D01*
X1335Y1323D01*
X1334Y1323D01*
X1333Y1323D01*
X1332Y1323D01*
X1331Y1323D01*
X1330Y1323D01*
X1329Y1323D01*
X1328Y1323D01*
X1327Y1323D01*
X1326Y1323D01*
X1325Y1323D01*
X1324Y1323D01*
X1323Y1323D01*
X1322Y1323D01*
X1321Y1323D01*
X1320Y1323D01*
X1319Y1323D01*
X1318Y1323D01*
X1317Y1323D01*
X1316Y1323D01*
X1315Y1323D01*
X1314Y1323D01*
X1313Y1323D01*
X1312Y1323D01*
X1311Y1323D01*
X1310Y1323D01*
X1309Y1323D01*
X1308Y1323D01*
X1307Y1323D01*
X1306Y1323D01*
X1305Y1323D01*
X1304Y1323D01*
X1303Y1323D01*
X1302Y1323D01*
X1301Y1323D01*
X1300Y1323D01*
X1299Y1323D01*
X1298Y1323D01*
X1297Y1323D01*
X1296Y1323D01*
X1295Y1323D01*
X1294Y1323D01*
X1293Y1323D01*
X1292Y1323D01*
X1291Y1323D01*
X1290Y1323D01*
X1289Y1323D01*
X1288Y1323D01*
X1287Y1323D01*
X1286Y1323D01*
X1285Y1323D01*
X1284Y1323D01*
X1283Y1323D01*
X1282Y1323D01*
X1281Y1323D01*
X1280Y1323D01*
X1279Y1323D01*
X1278Y1323D01*
X1277Y1323D01*
X1276Y1323D01*
X1275Y1323D01*
X1274Y1323D01*
X1273Y1323D01*
X1272Y1323D01*
X1271Y1323D01*
X1270Y1323D01*
X1269Y1323D01*
X1268Y1323D01*
X1267Y1323D01*
X1266Y1323D01*
X1265Y1323D01*
X1264Y1323D01*
X1263Y1323D01*
X1262Y1323D01*
X1261Y1323D01*
X1260Y1323D01*
X1259Y1323D01*
X1258Y1323D01*
X1257Y1323D01*
X1256Y1323D01*
X1255Y1323D01*
X1254Y1323D01*
X1253Y1323D01*
X1252Y1323D01*
X1251Y1323D01*
X1250Y1323D01*
X1249Y1323D01*
X1248Y1323D01*
X1247Y1323D01*
X1246Y1323D01*
X1245Y1323D01*
X1244Y1323D01*
X1243Y1323D01*
X1242Y1323D01*
X1241Y1323D01*
X1240Y1323D01*
X1239Y1323D01*
X1238Y1323D01*
X1237Y1323D01*
X1236Y1323D01*
X1235Y1323D01*
X1234Y1323D01*
X1233Y1323D01*
X1232Y1323D01*
X1231Y1323D01*
X1230Y1323D01*
X1229Y1323D01*
X1228Y1323D01*
X1227Y1323D01*
X1226Y1323D01*
X1225Y1323D01*
X1224Y1323D01*
X1223Y1323D01*
X1222Y1323D01*
X1221Y1323D01*
X1220Y1323D01*
X1219Y1323D01*
X1218Y1323D01*
X1217Y1323D01*
X1216Y1323D01*
X1215Y1323D01*
X1214Y1323D01*
X1213Y1323D01*
X1212Y1323D01*
X1211Y1323D01*
X1210Y1323D01*
X1209Y1323D01*
X1208Y1323D01*
X1207Y1323D01*
X1206Y1323D01*
X1205Y1323D01*
X1204Y1323D01*
X1203Y1323D01*
X1202Y1323D01*
X1201Y1323D01*
X1200Y1323D01*
X1199Y1323D01*
X1198Y1323D01*
X1197Y1323D01*
X1196Y1323D01*
X1195Y1323D01*
X1194Y1323D01*
X1193Y1323D01*
X1192Y1323D01*
X1191Y1323D01*
X1190Y1323D01*
X1189Y1323D01*
X1188Y1323D01*
X1187Y1323D01*
X1186Y1323D01*
X1185Y1323D01*
X1184Y1323D01*
X1183Y1323D01*
X1182Y1323D01*
X1181Y1323D01*
X1180Y1323D01*
X1179Y1323D01*
X1178Y1323D01*
X1177Y1323D01*
X1176Y1323D01*
X1175Y1323D01*
X1174Y1323D01*
X1173Y1323D01*
X1172Y1323D01*
X1171Y1323D01*
X1170Y1323D01*
X1169Y1323D01*
X1168Y1323D01*
X1167Y1323D01*
X1166Y1323D01*
X1165Y1323D01*
X1164Y1323D01*
X1163Y1323D01*
X1162Y1323D01*
X1161Y1323D01*
X1160Y1323D01*
X1159Y1323D01*
X1158Y1323D01*
X1157Y1323D01*
X1156Y1323D01*
X1155Y1323D01*
X1154Y1323D01*
X1153Y1323D01*
X1152Y1323D01*
X1151Y1323D01*
X1150Y1323D01*
X1149Y1323D01*
X1148Y1323D01*
X1147Y1323D01*
X1146Y1323D01*
X1145Y1323D01*
X1144Y1323D01*
X1143Y1323D01*
X1142Y1323D01*
X1141Y1323D01*
X1140Y1323D01*
X1139Y1323D01*
X1138Y1323D01*
X1137Y1323D01*
X1136Y1323D01*
X1135Y1323D01*
X1134Y1323D01*
X1133Y1323D01*
X1132Y1323D01*
X1131Y1323D01*
X1130Y1323D01*
X1129Y1323D01*
X1128Y1323D01*
X1127Y1323D01*
X1126Y1323D01*
X1125Y1323D01*
X1124Y1323D01*
X1123Y1323D01*
X1122Y1323D01*
X1121Y1323D01*
X1120Y1323D01*
X1119Y1323D01*
X1118Y1323D01*
X1117Y1323D01*
X1116Y1323D01*
X1115Y1323D01*
X1114Y1323D01*
X1113Y1323D01*
X1112Y1323D01*
X1111Y1323D01*
X1110Y1323D01*
X1109Y1323D01*
X1108Y1323D01*
X1107Y1323D01*
X1106Y1323D01*
X1105Y1323D01*
X1104Y1323D01*
X1103Y1323D01*
X1102Y1323D01*
X1101Y1323D01*
X1100Y1323D01*
X1099Y1323D01*
X1098Y1323D01*
X1097Y1323D01*
X1096Y1323D01*
X1095Y1323D01*
X1094Y1323D01*
X1093Y1323D01*
X1092Y1323D01*
X1091Y1323D01*
X1090Y1323D01*
X1089Y1323D01*
X1088Y1323D01*
X1087Y1323D01*
X1086Y1323D01*
X1085Y1323D01*
X1084Y1323D01*
X1083Y1323D01*
X1082Y1323D01*
X1081Y1323D01*
X1080Y1323D01*
X1079Y1323D01*
X1078Y1323D01*
X1077Y1323D01*
X1076Y1323D01*
X1075Y1323D01*
X1074Y1323D01*
X1073Y1323D01*
X1072Y1323D01*
X1071Y1323D01*
X1070Y1323D01*
X1069Y1323D01*
X1068Y1323D01*
X1067Y1323D01*
X1066Y1323D01*
X1065Y1323D01*
X1064Y1323D01*
X1063Y1323D01*
X1062Y1323D01*
X1061Y1323D01*
X1060Y1323D01*
X1059Y1323D01*
X1058Y1323D01*
X1057Y1323D01*
X1056Y1323D01*
X1055Y1323D01*
X1054Y1323D01*
X1053Y1323D01*
X1052Y1323D01*
X1051Y1323D01*
X1050Y1323D01*
X1049Y1323D01*
X1048Y1323D01*
X1047Y1323D01*
X1046Y1323D01*
X1045Y1323D01*
X1044Y1323D01*
X1043Y1323D01*
X1042Y1323D01*
X1041Y1323D01*
X1040Y1323D01*
X1039Y1323D01*
X1038Y1323D01*
X1037Y1323D01*
X1036Y1323D01*
X1035Y1323D01*
X1034Y1323D01*
X1033Y1323D01*
X1032Y1323D01*
X1031Y1323D01*
X1030Y1323D01*
X1029Y1323D01*
X1028Y1323D01*
X1027Y1323D01*
X1026Y1323D01*
X1025Y1323D01*
X1024Y1323D01*
X1023Y1323D01*
X1022Y1323D01*
X1021Y1323D01*
X1020Y1323D01*
X1019Y1323D01*
X1018Y1323D01*
X1017Y1323D01*
X1016Y1323D01*
X1015Y1323D01*
X1014Y1323D01*
X1013Y1323D01*
X1012Y1323D01*
X1011Y1323D01*
X1010Y1323D01*
X1009Y1323D01*
X1008Y1323D01*
X1007Y1323D01*
X1006Y1323D01*
X1005Y1323D01*
X1004Y1323D01*
X1003Y1323D01*
X1002Y1323D01*
X1001Y1323D01*
X1000Y1323D01*
X999Y1323D01*
X998Y1323D01*
X997Y1323D01*
X996Y1323D01*
X995Y1323D01*
X994Y1323D01*
X993Y1323D01*
X992Y1323D01*
X991Y1323D01*
X990Y1323D01*
X989Y1323D01*
X988Y1323D01*
X987Y1323D01*
X986Y1323D01*
X985Y1323D01*
X984Y1323D01*
X983Y1323D01*
X982Y1323D01*
X981Y1323D01*
X980Y1323D01*
X979Y1323D01*
X978Y1323D01*
X977Y1323D01*
X976Y1323D01*
X975Y1323D01*
X974Y1323D01*
X973Y1323D01*
X972Y1323D01*
X971Y1323D01*
X970Y1323D01*
X969Y1323D01*
X968Y1323D01*
X967Y1323D01*
X966Y1323D01*
X965Y1323D01*
X964Y1323D01*
X963Y1323D01*
X962Y1323D01*
X961Y1323D01*
X960Y1323D01*
X959Y1323D01*
X958Y1323D01*
X957Y1323D01*
X956Y1323D01*
X955Y1323D01*
X954Y1323D01*
X953Y1323D01*
X952Y1323D01*
X951Y1323D01*
X950Y1323D01*
X949Y1323D01*
X948Y1323D01*
X947Y1323D01*
X946Y1323D01*
X945Y1323D01*
X944Y1323D01*
X943Y1323D01*
X942Y1323D01*
X941Y1323D01*
X940Y1323D01*
X939Y1323D01*
X938Y1323D01*
X937Y1323D01*
X936Y1323D01*
X935Y1323D01*
X934Y1323D01*
X933Y1323D01*
X932Y1323D01*
X931Y1323D01*
X930Y1323D01*
X929Y1323D01*
X928Y1323D01*
X927Y1323D01*
X926Y1323D01*
X925Y1323D01*
X924Y1323D01*
X923Y1323D01*
X922Y1323D01*
X921Y1323D01*
X920Y1323D01*
X919Y1323D01*
X918Y1323D01*
X917Y1323D01*
X916Y1323D01*
X915Y1323D01*
X914Y1323D01*
X913Y1323D01*
X912Y1323D01*
X911Y1323D01*
X910Y1323D01*
X909Y1323D01*
X908Y1323D01*
X907Y1323D01*
X906Y1323D01*
X905Y1323D01*
X904Y1323D01*
X903Y1323D01*
X902Y1323D01*
X901Y1323D01*
X900Y1323D01*
X899Y1323D01*
X898Y1323D01*
X897Y1323D01*
X896Y1323D01*
X895Y1323D01*
X894Y1323D01*
X893Y1323D01*
X892Y1323D01*
X891Y1323D01*
X890Y1323D01*
X889Y1323D01*
X888Y1323D01*
X887Y1323D01*
X886Y1323D01*
X885Y1323D01*
X884Y1323D01*
X883Y1323D01*
X882Y1323D01*
X881Y1323D01*
X880Y1323D01*
X879Y1323D01*
X878Y1323D01*
X877Y1323D01*
X876Y1323D01*
X875Y1323D01*
X874Y1323D01*
X873Y1323D01*
X872Y1323D01*
X871Y1323D01*
X870Y1323D01*
X869Y1323D01*
X868Y1323D01*
X867Y1323D01*
X866Y1323D01*
X865Y1323D01*
X864Y1323D01*
X863Y1323D01*
X862Y1323D01*
X861Y1323D01*
X860Y1323D01*
X859Y1323D01*
X858Y1323D01*
X857Y1323D01*
X856Y1323D01*
X855Y1323D01*
X854Y1323D01*
X853Y1323D01*
X852Y1323D01*
X851Y1323D01*
X850Y1323D01*
X849Y1323D01*
X848Y1323D01*
X847Y1323D01*
X846Y1323D01*
X845Y1323D01*
X844Y1323D01*
X843Y1323D01*
X842Y1323D01*
X841Y1323D01*
X840Y1323D01*
X839Y1323D01*
X838Y1323D01*
X837Y1323D01*
X836Y1323D01*
X835Y1323D01*
X834Y1323D01*
X833Y1323D01*
X832Y1323D01*
X831Y1323D01*
X830Y1323D01*
X829Y1323D01*
X828Y1323D01*
X827Y1323D01*
X826Y1323D01*
X825Y1323D01*
X824Y1323D01*
X823Y1323D01*
X822Y1323D01*
X821Y1323D01*
X820Y1323D01*
X819Y1323D01*
X818Y1323D01*
X817Y1323D01*
X816Y1323D01*
X815Y1323D01*
X814Y1323D01*
X813Y1323D01*
X812Y1323D01*
X811Y1323D01*
X810Y1323D01*
X809Y1323D01*
X808Y1323D01*
X807Y1323D01*
X806Y1323D01*
X805Y1323D01*
X804Y1323D01*
X803Y1323D01*
X802Y1323D01*
X801Y1323D01*
X800Y1323D01*
X799Y1323D01*
X798Y1323D01*
X797Y1323D01*
X796Y1323D01*
X795Y1323D01*
X794Y1323D01*
X793Y1323D01*
X792Y1323D01*
X791Y1323D01*
X790Y1323D01*
X789Y1323D01*
X788Y1323D01*
X787Y1323D01*
X786Y1323D01*
X785Y1323D01*
X784Y1323D01*
X783Y1323D01*
X782Y1323D01*
X781Y1323D01*
X780Y1323D01*
X779Y1323D01*
X778Y1323D01*
X777Y1323D01*
X776Y1323D01*
X775Y1323D01*
X774Y1323D01*
X773Y1323D01*
X772Y1323D01*
X771Y1323D01*
X770Y1323D01*
X769Y1323D01*
X768Y1323D01*
X767Y1323D01*
X766Y1323D01*
X765Y1323D01*
X764Y1323D01*
X763Y1323D01*
X762Y1323D01*
X761Y1323D01*
X760Y1323D01*
X759Y1323D01*
X758Y1323D01*
X757Y1323D01*
X756Y1323D01*
X755Y1323D01*
X754Y1323D01*
X753Y1323D01*
X752Y1323D01*
X751Y1323D01*
X750Y1323D01*
X749Y1323D01*
X748Y1323D01*
X747Y1323D01*
X746Y1323D01*
X745Y1323D01*
X744Y1323D01*
X743Y1323D01*
X742Y1323D01*
X741Y1323D01*
X740Y1323D01*
X739Y1323D01*
X738Y1323D01*
X737Y1323D01*
X736Y1323D01*
X735Y1323D01*
X734Y1323D01*
X733Y1323D01*
X732Y1323D01*
X731Y1323D01*
X730Y1323D01*
X729Y1323D01*
X728Y1323D01*
X727Y1323D01*
X726Y1323D01*
X725Y1323D01*
X724Y1323D01*
X723Y1323D01*
X722Y1323D01*
X721Y1323D01*
X720Y1323D01*
X719Y1323D01*
X718Y1323D01*
X717Y1323D01*
X716Y1323D01*
X715Y1323D01*
X714Y1323D01*
X713Y1323D01*
X712Y1323D01*
X711Y1323D01*
X710Y1323D01*
X709Y1323D01*
X708Y1323D01*
X707Y1323D01*
X706Y1323D01*
X705Y1323D01*
X704Y1323D01*
X703Y1323D01*
X702Y1323D01*
X701Y1323D01*
X700Y1323D01*
X699Y1323D01*
X698Y1323D01*
X697Y1323D01*
X696Y1323D01*
X695Y1323D01*
X694Y1323D01*
X693Y1323D01*
X692Y1323D01*
X691Y1323D01*
X690Y1323D01*
X689Y1323D01*
X688Y1323D01*
X687Y1323D01*
X686Y1323D01*
X685Y1323D01*
X684Y1323D01*
X683Y1323D01*
X682Y1323D01*
X681Y1323D01*
X680Y1323D01*
X679Y1323D01*
X678Y1323D01*
X677Y1323D01*
X676Y1323D01*
X675Y1323D01*
X674Y1323D01*
X673Y1323D01*
X672Y1323D01*
X671Y1323D01*
X670Y1323D01*
X669Y1323D01*
X668Y1323D01*
X667Y1323D01*
X666Y1323D01*
X665Y1323D01*
X664Y1323D01*
X663Y1323D01*
X662Y1323D01*
X661Y1323D01*
X660Y1323D01*
X659Y1323D01*
X658Y1323D01*
X657Y1323D01*
X656Y1323D01*
X655Y1323D01*
X654Y1323D01*
X653Y1323D01*
X652Y1323D01*
X651Y1323D01*
X650Y1323D01*
X649Y1323D01*
X648Y1323D01*
X647Y1323D01*
X646Y1323D01*
X645Y1323D01*
X644Y1323D01*
X643Y1323D01*
X642Y1323D01*
X641Y1323D01*
X640Y1323D01*
X639Y1323D01*
X638Y1323D01*
X637Y1323D01*
X636Y1323D01*
X635Y1323D01*
X634Y1323D01*
X633Y1323D01*
X632Y1323D01*
X631Y1323D01*
X630Y1323D01*
X629Y1323D01*
X628Y1323D01*
X627Y1323D01*
X626Y1323D01*
X625Y1323D01*
X624Y1323D01*
X623Y1323D01*
X622Y1323D01*
X621Y1323D01*
X620Y1323D01*
X619Y1323D01*
X618Y1323D01*
X617Y1323D01*
X616Y1323D01*
X615Y1323D01*
X614Y1323D01*
X613Y1323D01*
X612Y1323D01*
X611Y1323D01*
X610Y1323D01*
X609Y1323D01*
X608Y1323D01*
X607Y1323D01*
X606Y1323D01*
X605Y1323D01*
X604Y1323D01*
X603Y1323D01*
X602Y1323D01*
X601Y1323D01*
X600Y1323D01*
X599Y1323D01*
X598Y1323D01*
X597Y1323D01*
X596Y1323D01*
X595Y1323D01*
X594Y1323D01*
X593Y1323D01*
X592Y1323D01*
X591Y1323D01*
X590Y1323D01*
X589Y1323D01*
X588Y1323D01*
X587Y1323D01*
X586Y1323D01*
X585Y1323D01*
X584Y1323D01*
X583Y1323D01*
X582Y1323D01*
X581Y1323D01*
X580Y1323D01*
X579Y1323D01*
X578Y1323D01*
X577Y1323D01*
X576Y1323D01*
X575Y1323D01*
X574Y1323D01*
X573Y1323D01*
X572Y1323D01*
X571Y1323D01*
X570Y1323D01*
X569Y1323D01*
X568Y1323D01*
X567Y1323D01*
X566Y1323D01*
X565Y1323D01*
X564Y1323D01*
X563Y1323D01*
X562Y1323D01*
X561Y1323D01*
X560Y1323D01*
X559Y1323D01*
X558Y1323D01*
X557Y1323D01*
X556Y1323D01*
X555Y1323D01*
X554Y1323D01*
X553Y1323D01*
X552Y1323D01*
X551Y1323D01*
X550Y1323D01*
X549Y1323D01*
X548Y1323D01*
X547Y1323D01*
X546Y1323D01*
X545Y1323D01*
X544Y1323D01*
X543Y1323D01*
X542Y1323D01*
X541Y1323D01*
X540Y1323D01*
X539Y1323D01*
X538Y1323D01*
X537Y1323D01*
X536Y1323D01*
X535Y1323D01*
X534Y1323D01*
X533Y1323D01*
X532Y1323D01*
X531Y1323D01*
X530Y1323D01*
X529Y1323D01*
X528Y1323D01*
X527Y1323D01*
X526Y1323D01*
X525Y1323D01*
X524Y1323D01*
X523Y1323D01*
X522Y1323D01*
X521Y1323D01*
X520Y1323D01*
X519Y1323D01*
X518Y1323D01*
X517Y1323D01*
X516Y1323D01*
X515Y1323D01*
X514Y1323D01*
X513Y1323D01*
X512Y1323D01*
X511Y1323D01*
X510Y1323D01*
X509Y1323D01*
X508Y1323D01*
X507Y1323D01*
X506Y1323D01*
X505Y1323D01*
X504Y1323D01*
X503Y1323D01*
X502Y1323D01*
X501Y1323D01*
X500Y1323D01*
X499Y1323D01*
X498Y1323D01*
X497Y1323D01*
X496Y1323D01*
X495Y1323D01*
X494Y1323D01*
X493Y1323D01*
X492Y1323D01*
X491Y1323D01*
X490Y1323D01*
X489Y1323D01*
X488Y1323D01*
X487Y1323D01*
X486Y1323D01*
X485Y1323D01*
X484Y1323D01*
X483Y1323D01*
X482Y1323D01*
X481Y1323D01*
X480Y1323D01*
X479Y1323D01*
X478Y1323D01*
X477Y1323D01*
X476Y1323D01*
X475Y1323D01*
X474Y1323D01*
X473Y1323D01*
X472Y1323D01*
X471Y1323D01*
X470Y1323D01*
X469Y1323D01*
X468Y1323D01*
X467Y1323D01*
X466Y1323D01*
X465Y1323D01*
X464Y1323D01*
X463Y1323D01*
X462Y1323D01*
X461Y1323D01*
X460Y1323D01*
X459Y1323D01*
X458Y1323D01*
X457Y1323D01*
X456Y1323D01*
X455Y1323D01*
X454Y1323D01*
X453Y1323D01*
X452Y1323D01*
X451Y1323D01*
X450Y1323D01*
X449Y1323D01*
X448Y1323D01*
X447Y1323D01*
X446Y1323D01*
X445Y1323D01*
X444Y1323D01*
X443Y1323D01*
X442Y1323D01*
X441Y1323D01*
X440Y1323D01*
X439Y1323D01*
X438Y1323D01*
X437Y1323D01*
X436Y1323D01*
X435Y1323D01*
X434Y1323D01*
X433Y1323D01*
X432Y1323D01*
X431Y1323D01*
X430Y1323D01*
X429Y1323D01*
X428Y1323D01*
X427Y1323D01*
X426Y1323D01*
X425Y1323D01*
X424Y1323D01*
X423Y1323D01*
X422Y1323D01*
X421Y1323D01*
X420Y1323D01*
X419Y1323D01*
X418Y1323D01*
X417Y1323D01*
X416Y1323D01*
X415Y1323D01*
X414Y1323D01*
X413Y1323D01*
X412Y1323D01*
X411Y1323D01*
X410Y1323D01*
X409Y1323D01*
X408Y1323D01*
X407Y1323D01*
X406Y1323D01*
X405Y1323D01*
X404Y1323D01*
X403Y1323D01*
X402Y1323D01*
X401Y1323D01*
X400Y1323D01*
X399Y1323D01*
X398Y1323D01*
X397Y1323D01*
X396Y1323D01*
X395Y1323D01*
X394Y1323D01*
X393Y1323D01*
X392Y1323D01*
X391Y1323D01*
X390Y1323D01*
X389Y1323D01*
X388Y1323D01*
X387Y1323D01*
X386Y1323D01*
X385Y1323D01*
X384Y1323D01*
X383Y1323D01*
X382Y1323D01*
X381Y1323D01*
X380Y1323D01*
X379Y1323D01*
X378Y1323D01*
X377Y1323D01*
X376Y1323D01*
X375Y1323D01*
X374Y1323D01*
X373Y1323D01*
X372Y1323D01*
X371Y1323D01*
X370Y1323D01*
X369Y1323D01*
X368Y1323D01*
X367Y1323D01*
X366Y1323D01*
X365Y1323D01*
X364Y1323D01*
X363Y1323D01*
X362Y1323D01*
X361Y1323D01*
X360Y1323D01*
X359Y1323D01*
X358Y1323D01*
X357Y1323D01*
X356Y1323D01*
X355Y1323D01*
X354Y1323D01*
X353Y1323D01*
X352Y1323D01*
X351Y1323D01*
X350Y1323D01*
X349Y1323D01*
X348Y1323D01*
X347Y1323D01*
X346Y1323D01*
X345Y1323D01*
X344Y1323D01*
X343Y1323D01*
X342Y1323D01*
X341Y1323D01*
X340Y1323D01*
X339Y1323D01*
X338Y1323D01*
X337Y1323D01*
X336Y1323D01*
X335Y1323D01*
X334Y1323D01*
X333Y1323D01*
X332Y1323D01*
X331Y1323D01*
X330Y1323D01*
X329Y1323D01*
X328Y1323D01*
X327Y1323D01*
X326Y1323D01*
X325Y1323D01*
X324Y1323D01*
X323Y1323D01*
X322Y1323D01*
X321Y1323D01*
X320Y1323D01*
X319Y1323D01*
X318Y1323D01*
X317Y1323D01*
X316Y1323D01*
X315Y1323D01*
X314Y1323D01*
X313Y1323D01*
X312Y1323D01*
X311Y1323D01*
X310Y1323D01*
X309Y1323D01*
X308Y1323D01*
X307Y1323D01*
X306Y1323D01*
X305Y1323D01*
X304Y1323D01*
X303Y1323D01*
X302Y1323D01*
X301Y1323D01*
X300Y1323D01*
X299Y1323D01*
X298Y1323D01*
X297Y1323D01*
X296Y1323D01*
X295Y1323D01*
X294Y1323D01*
X293Y1323D01*
X292Y1323D01*
X291Y1323D01*
X290Y1323D01*
X289Y1323D01*
X288Y1323D01*
X287Y1323D01*
X286Y1323D01*
X285Y1323D01*
X284Y1323D01*
X283Y1323D01*
X282Y1323D01*
X281Y1323D01*
X280Y1323D01*
X279Y1323D01*
X278Y1323D01*
X277Y1323D01*
X276Y1323D01*
X275Y1323D01*
X274Y1323D01*
X273Y1323D01*
X272Y1323D01*
X271Y1323D01*
X270Y1323D01*
X269Y1323D01*
X268Y1323D01*
X267Y1323D01*
X266Y1323D01*
X265Y1323D01*
X264Y1323D01*
X263Y1323D01*
X262Y1323D01*
X261Y1323D01*
X260Y1323D01*
X259Y1323D01*
X258Y1323D01*
X257Y1323D01*
X256Y1323D01*
X255Y1323D01*
X254Y1323D01*
X253Y1323D01*
X252Y1323D01*
X251Y1323D01*
X250Y1323D01*
X249Y1323D01*
X248Y1323D01*
X247Y1323D01*
X246Y1323D01*
X245Y1323D01*
X244Y1323D01*
X243Y1323D01*
X242Y1323D01*
X241Y1323D01*
X240Y1323D01*
X239Y1323D01*
X238Y1323D01*
X237Y1323D01*
X236Y1323D01*
X235Y1323D01*
X234Y1323D01*
X233Y1323D01*
X232Y1323D01*
X231Y1323D01*
X230Y1323D01*
X229Y1323D01*
X228Y1323D01*
X227Y1323D01*
X226Y1323D01*
X225Y1323D01*
X224Y1323D01*
X223Y1323D01*
X222Y1323D01*
X221Y1323D01*
X220Y1323D01*
X219Y1323D01*
X218Y1323D01*
X217Y1323D01*
X216Y1323D01*
X215Y1323D01*
X214Y1323D01*
X213Y1323D01*
X212Y1323D01*
X211Y1323D01*
X210Y1323D01*
X209Y1323D01*
X208Y1323D01*
X207Y1323D01*
X206Y1323D01*
X205Y1323D01*
X204Y1323D01*
X203Y1323D01*
X202Y1323D01*
X201Y1323D01*
X200Y1323D01*
X199Y1323D01*
X198Y1323D01*
X197Y1323D01*
X196Y1323D01*
X195Y1323D01*
X194Y1323D01*
X193Y1323D01*
X192Y1323D01*
X191Y1323D01*
X190Y1323D01*
X189Y1323D01*
X188Y1323D01*
X187Y1323D01*
X186Y1323D01*
X185Y1323D01*
X184Y1323D01*
X183Y1323D01*
X182Y1323D01*
X181Y1323D01*
X180Y1323D01*
X179Y1323D01*
X178Y1323D01*
X177Y1323D01*
X176Y1323D01*
X175Y1323D01*
X174Y1323D01*
X173Y1323D01*
X172Y1323D01*
X171Y1323D01*
X170Y1323D01*
X169Y1323D01*
X168Y1323D01*
X167Y1323D01*
X166Y1323D01*
X165Y1323D01*
X164Y1323D01*
X163Y1323D01*
X162Y1323D01*
X161Y1323D01*
X160Y1323D01*
X159Y1323D01*
X158Y1323D01*
X157Y1323D01*
X156Y1323D01*
X155Y1323D01*
X154Y1323D01*
X153Y1323D01*
X152Y1323D01*
X151Y1323D01*
X150Y1323D01*
X149Y1323D01*
X148Y1323D01*
X147Y1323D01*
X146Y1323D01*
X145Y1323D01*
X144Y1323D01*
X143Y1323D01*
X142Y1323D01*
X141Y1323D01*
X140Y1323D01*
X139Y1323D01*
X138Y1323D01*
X137Y1323D01*
X136Y1323D01*
X135Y1323D01*
X134Y1323D01*
X133Y1323D01*
X132Y1323D01*
X131Y1323D01*
X130Y1323D01*
X129Y1323D01*
X128Y1323D01*
X127Y1323D01*
X126Y1323D01*
X125Y1323D01*
X124Y1323D01*
X123Y1323D01*
X122Y1323D01*
X121Y1323D01*
X120Y1323D01*
X119Y1323D01*
X118Y1323D01*
X117Y1323D01*
X116Y1323D01*
X115Y1323D01*
X114Y1323D01*
X113Y1323D01*
X112Y1323D01*
X111Y1323D01*
X110Y1323D01*
X109Y1323D01*
X108Y1323D01*
X107Y1323D01*
X106Y1323D01*
X105Y1323D01*
X104Y1323D01*
X103Y1323D01*
X102Y1323D01*
X101Y1323D01*
X100Y1323D01*
X99Y1323D01*
X98Y1323D01*
X97Y1323D01*
X96Y1323D01*
X95Y1323D01*
X94Y1323D01*
X93Y1323D01*
X92Y1323D01*
X91Y1323D01*
X90Y1323D01*
X89Y1323D01*
X88Y1323D01*
X87Y1323D01*
X86Y1323D01*
X85Y1323D01*
X84Y1323D01*
X83Y1323D01*
X82Y1323D01*
X81Y1323D01*
X80Y1323D01*
X79Y1323D01*
X78Y1323D01*
X77Y1323D01*
X76Y1323D01*
X75Y1323D01*
X74Y1323D01*
X73Y1323D01*
X72Y1323D01*
X71Y1323D01*
X70Y1323D01*
X69Y1323D01*
X68Y1323D01*
X67Y1323D01*
X66Y1323D01*
X65Y1323D01*
X64Y1323D01*
X63Y1323D01*
X62Y1323D01*
X61Y1323D01*
X60Y1323D01*
X59Y1323D01*
X58Y1323D01*
X57Y1323D01*
X56Y1323D01*
X55Y1323D01*
X54Y1323D01*
X53Y1323D01*
X52Y1323D01*
X51Y1323D01*
X50Y1323D01*
X49Y1323D01*
X48Y1323D01*
X47Y1323D01*
X46Y1323D01*
X45Y1323D01*
X44Y1323D01*
X43Y1323D01*
X42Y1323D01*
X41Y1323D01*
X40Y1323D01*
X39Y1323D01*
X38Y1323D01*
X37Y1323D01*
X36Y1323D01*
X35Y1323D01*
X34Y1323D01*
X33Y1323D01*
X32Y1323D01*
X31Y1323D01*
X30Y1323D01*
X29Y1323D01*
X28Y1323D01*
X27Y1323D01*
X26Y1323D01*
X25Y1323D01*
X24Y1323D01*
X23Y1323D01*
X22Y1323D01*
X21Y1323D01*
X20Y1323D01*
X19Y1323D01*
X18Y1323D01*
X17Y1323D01*
X16Y1323D01*
X15Y1323D01*
X14Y1323D01*
X13Y1323D01*
X12Y1323D01*
X11Y1323D01*
X10Y1323D01*
X9Y1323D01*
X8Y1323D01*
X7Y1323D01*
X6Y1323D01*
X5Y1323D01*
X4Y1323D01*
X3Y1323D01*
X2Y1323D01*
X1Y1323D01*
X0Y1323D01*
X0Y1D01*
X1Y1D01*
X2Y1D01*
X3Y1D01*
X4Y1D01*
X5Y1D01*
X6Y1D01*
X7Y1D01*
X8Y1D01*
X9Y1D01*
X10Y1D01*
X11Y1D01*
X12Y1D01*
X13Y1D01*
X14Y1D01*
X15Y1D01*
X16Y1D01*
X17Y1D01*
X18Y1D01*
X19Y1D01*
X20Y1D01*
X21Y1D01*
X22Y1D01*
X23Y1D01*
X24Y1D01*
X25Y1D01*
X26Y1D01*
X27Y1D01*
X28Y1D01*
X29Y1D01*
X30Y1D01*
X31Y1D01*
X32Y1D01*
X33Y1D01*
X34Y1D01*
X35Y1D01*
X36Y1D01*
X37Y1D01*
X38Y1D01*
X39Y1D01*
X40Y1D01*
X41Y1D01*
X42Y1D01*
X43Y1D01*
X44Y1D01*
X45Y1D01*
X46Y1D01*
X47Y1D01*
X48Y1D01*
X49Y1D01*
X50Y1D01*
X51Y1D01*
X52Y1D01*
X53Y1D01*
X54Y1D01*
X55Y1D01*
X56Y1D01*
X57Y1D01*
X58Y1D01*
X59Y1D01*
X60Y1D01*
X61Y1D01*
X62Y1D01*
X63Y1D01*
X64Y1D01*
X65Y1D01*
X66Y1D01*
X67Y1D01*
X68Y1D01*
X69Y1D01*
X70Y1D01*
X71Y1D01*
X72Y1D01*
X73Y1D01*
X74Y1D01*
X75Y1D01*
X76Y1D01*
X77Y1D01*
X78Y1D01*
X79Y1D01*
X80Y1D01*
X81Y1D01*
X82Y1D01*
X83Y1D01*
X84Y1D01*
X85Y1D01*
X86Y1D01*
X87Y1D01*
X88Y1D01*
X89Y1D01*
X90Y1D01*
X91Y1D01*
X92Y1D01*
X93Y1D01*
X94Y1D01*
X95Y1D01*
X96Y1D01*
X97Y1D01*
X98Y1D01*
X99Y1D01*
X100Y1D01*
X101Y1D01*
X102Y1D01*
X103Y1D01*
X104Y1D01*
X105Y1D01*
X106Y1D01*
X107Y1D01*
X108Y1D01*
X109Y1D01*
X110Y1D01*
X111Y1D01*
X112Y1D01*
X113Y1D01*
X114Y1D01*
X115Y1D01*
X116Y1D01*
X117Y1D01*
X118Y1D01*
X119Y1D01*
X120Y1D01*
X121Y1D01*
X122Y1D01*
X123Y1D01*
X124Y1D01*
X125Y1D01*
X126Y1D01*
X127Y1D01*
X128Y1D01*
X129Y1D01*
X130Y1D01*
X131Y1D01*
X132Y1D01*
X133Y1D01*
X134Y1D01*
X135Y1D01*
X136Y1D01*
X137Y1D01*
X138Y1D01*
X139Y1D01*
X140Y1D01*
X141Y1D01*
X142Y1D01*
X143Y1D01*
X144Y1D01*
X145Y1D01*
X146Y1D01*
X147Y1D01*
X148Y1D01*
X149Y1D01*
X150Y1D01*
X151Y1D01*
X152Y1D01*
X153Y1D01*
X154Y1D01*
X155Y1D01*
X156Y1D01*
X157Y1D01*
X158Y1D01*
X159Y1D01*
X160Y1D01*
X161Y1D01*
X162Y1D01*
X163Y1D01*
X164Y1D01*
X165Y1D01*
X166Y1D01*
X167Y1D01*
X168Y1D01*
X169Y1D01*
X170Y1D01*
X171Y1D01*
X172Y1D01*
X173Y1D01*
X174Y1D01*
X175Y1D01*
X176Y1D01*
X177Y1D01*
X178Y1D01*
X179Y1D01*
X180Y1D01*
X181Y1D01*
X182Y1D01*
X183Y1D01*
X184Y1D01*
X185Y1D01*
X186Y1D01*
X187Y1D01*
X188Y1D01*
X189Y1D01*
X190Y1D01*
X191Y1D01*
X192Y1D01*
X193Y1D01*
X194Y1D01*
X195Y1D01*
X196Y1D01*
X197Y1D01*
X198Y1D01*
X199Y1D01*
X200Y1D01*
X201Y1D01*
X202Y1D01*
X203Y1D01*
X204Y1D01*
X205Y1D01*
X206Y1D01*
X207Y1D01*
X208Y1D01*
X209Y1D01*
X210Y1D01*
X211Y1D01*
X212Y1D01*
X213Y1D01*
X214Y1D01*
X215Y1D01*
X216Y1D01*
X217Y1D01*
X218Y1D01*
X219Y1D01*
X220Y1D01*
X221Y1D01*
X222Y1D01*
X223Y1D01*
X224Y1D01*
X225Y1D01*
X226Y1D01*
X227Y1D01*
X228Y1D01*
X229Y1D01*
X230Y1D01*
X231Y1D01*
X232Y1D01*
X233Y1D01*
X234Y1D01*
X235Y1D01*
X236Y1D01*
X237Y1D01*
X238Y1D01*
X239Y1D01*
X240Y1D01*
X241Y1D01*
X242Y1D01*
X243Y1D01*
X244Y1D01*
X245Y1D01*
X246Y1D01*
X247Y1D01*
X248Y1D01*
X249Y1D01*
X250Y1D01*
X251Y1D01*
X252Y1D01*
X253Y1D01*
X254Y1D01*
X255Y1D01*
X256Y1D01*
X257Y1D01*
X258Y1D01*
X259Y1D01*
X260Y1D01*
X261Y1D01*
X262Y1D01*
X263Y1D01*
X264Y1D01*
X265Y1D01*
X266Y1D01*
X267Y1D01*
X268Y1D01*
X269Y1D01*
X270Y1D01*
X271Y1D01*
X272Y1D01*
X273Y1D01*
X274Y1D01*
X275Y1D01*
X276Y1D01*
X277Y1D01*
X278Y1D01*
X279Y1D01*
X280Y1D01*
X281Y1D01*
X282Y1D01*
X283Y1D01*
X284Y1D01*
X285Y1D01*
X286Y1D01*
X287Y1D01*
X288Y1D01*
X289Y1D01*
X290Y1D01*
X291Y1D01*
X292Y1D01*
X293Y1D01*
X294Y1D01*
X295Y1D01*
X296Y1D01*
X297Y1D01*
X298Y1D01*
X299Y1D01*
X300Y1D01*
X301Y1D01*
X302Y1D01*
X303Y1D01*
X304Y1D01*
X305Y1D01*
X306Y1D01*
X307Y1D01*
X308Y1D01*
X309Y1D01*
X310Y1D01*
X311Y1D01*
X312Y1D01*
X313Y1D01*
X314Y1D01*
X315Y1D01*
X316Y1D01*
X317Y1D01*
X318Y1D01*
X319Y1D01*
X320Y1D01*
X321Y1D01*
X322Y1D01*
X323Y1D01*
X324Y1D01*
X325Y1D01*
X326Y1D01*
X327Y1D01*
X328Y1D01*
X329Y1D01*
X330Y1D01*
X331Y1D01*
X332Y1D01*
X333Y1D01*
X334Y1D01*
X335Y1D01*
X336Y1D01*
X337Y1D01*
X338Y1D01*
X339Y1D01*
X340Y1D01*
X341Y1D01*
X342Y1D01*
X343Y1D01*
X344Y1D01*
X345Y1D01*
X346Y1D01*
X347Y1D01*
X348Y1D01*
X349Y1D01*
X350Y1D01*
X351Y1D01*
X352Y1D01*
X353Y1D01*
X354Y1D01*
X355Y1D01*
X356Y1D01*
X357Y1D01*
X358Y1D01*
X359Y1D01*
X360Y1D01*
X361Y1D01*
X362Y1D01*
X363Y1D01*
X364Y1D01*
X365Y1D01*
X366Y1D01*
X367Y1D01*
X368Y1D01*
X369Y1D01*
X370Y1D01*
X371Y1D01*
X372Y1D01*
X373Y1D01*
X374Y1D01*
X375Y1D01*
X376Y1D01*
X377Y1D01*
X378Y1D01*
X379Y1D01*
X380Y1D01*
X381Y1D01*
X382Y1D01*
X383Y1D01*
X384Y1D01*
X385Y1D01*
X386Y1D01*
X387Y1D01*
X388Y1D01*
X389Y1D01*
X390Y1D01*
X391Y1D01*
X392Y1D01*
X393Y1D01*
X394Y1D01*
X395Y1D01*
X396Y1D01*
X397Y1D01*
X398Y1D01*
X399Y1D01*
X400Y1D01*
X401Y1D01*
X402Y1D01*
X403Y1D01*
X404Y1D01*
X405Y1D01*
X406Y1D01*
X407Y1D01*
X408Y1D01*
X409Y1D01*
X410Y1D01*
X411Y1D01*
X412Y1D01*
X413Y1D01*
X414Y1D01*
X415Y1D01*
X416Y1D01*
X417Y1D01*
X418Y1D01*
X419Y1D01*
X420Y1D01*
X421Y1D01*
X422Y1D01*
X423Y1D01*
X424Y1D01*
X425Y1D01*
X426Y1D01*
X427Y1D01*
X428Y1D01*
X429Y1D01*
X430Y1D01*
X431Y1D01*
X432Y1D01*
X433Y1D01*
X434Y1D01*
X435Y1D01*
X436Y1D01*
X437Y1D01*
X438Y1D01*
X439Y1D01*
X440Y1D01*
X441Y1D01*
X442Y1D01*
X443Y1D01*
X444Y1D01*
X445Y1D01*
X446Y1D01*
X447Y1D01*
X448Y1D01*
X449Y1D01*
X450Y1D01*
X451Y1D01*
X452Y1D01*
X453Y1D01*
X454Y1D01*
X455Y1D01*
X456Y1D01*
X457Y1D01*
X458Y1D01*
X459Y1D01*
X460Y1D01*
X461Y1D01*
X462Y1D01*
X463Y1D01*
X464Y1D01*
X465Y1D01*
X466Y1D01*
X467Y1D01*
X468Y1D01*
X469Y1D01*
X470Y1D01*
X471Y1D01*
X472Y1D01*
X473Y1D01*
X474Y1D01*
X475Y1D01*
X476Y1D01*
X477Y1D01*
X478Y1D01*
X479Y1D01*
X480Y1D01*
X481Y1D01*
X482Y1D01*
X483Y1D01*
X484Y1D01*
X485Y1D01*
X486Y1D01*
X487Y1D01*
X488Y1D01*
X489Y1D01*
X490Y1D01*
X491Y1D01*
X492Y1D01*
X493Y1D01*
X494Y1D01*
X495Y1D01*
X496Y1D01*
X497Y1D01*
X498Y1D01*
X499Y1D01*
X500Y1D01*
X501Y1D01*
X502Y1D01*
X503Y1D01*
X504Y1D01*
X505Y1D01*
X506Y1D01*
X507Y1D01*
X508Y1D01*
X509Y1D01*
X510Y1D01*
X511Y1D01*
X512Y1D01*
X513Y1D01*
X514Y1D01*
X515Y1D01*
X516Y1D01*
X517Y1D01*
X518Y1D01*
X519Y1D01*
X520Y1D01*
X521Y1D01*
X522Y1D01*
X523Y1D01*
X524Y1D01*
X525Y1D01*
X526Y1D01*
X527Y1D01*
X528Y1D01*
X529Y1D01*
X530Y1D01*
X531Y1D01*
X532Y1D01*
X533Y1D01*
X534Y1D01*
X535Y1D01*
X536Y1D01*
X537Y1D01*
X538Y1D01*
X539Y1D01*
X540Y1D01*
X541Y1D01*
X542Y1D01*
X543Y1D01*
X544Y1D01*
X545Y1D01*
X546Y1D01*
X547Y1D01*
X548Y1D01*
X549Y1D01*
X550Y1D01*
X551Y1D01*
X552Y1D01*
X553Y1D01*
X554Y1D01*
X555Y1D01*
X556Y1D01*
X557Y1D01*
X558Y1D01*
X559Y1D01*
X560Y1D01*
X561Y1D01*
X562Y1D01*
X563Y1D01*
X564Y1D01*
X565Y1D01*
X566Y1D01*
X567Y1D01*
X568Y1D01*
X569Y1D01*
X570Y1D01*
X571Y1D01*
X572Y1D01*
X573Y1D01*
X574Y1D01*
X575Y1D01*
X576Y1D01*
X577Y1D01*
X578Y1D01*
X579Y1D01*
X580Y1D01*
X581Y1D01*
X582Y1D01*
X583Y1D01*
X584Y1D01*
X585Y1D01*
X586Y1D01*
X587Y1D01*
X588Y1D01*
X589Y1D01*
X590Y1D01*
X591Y1D01*
X592Y1D01*
X593Y1D01*
X594Y1D01*
X595Y1D01*
X596Y1D01*
X597Y1D01*
X598Y1D01*
X599Y1D01*
X600Y1D01*
X601Y1D01*
X602Y1D01*
X603Y1D01*
X604Y1D01*
X605Y1D01*
X606Y1D01*
X607Y1D01*
X608Y1D01*
X609Y1D01*
X610Y1D01*
X611Y1D01*
X612Y1D01*
X613Y1D01*
X614Y1D01*
X615Y1D01*
X616Y1D01*
X617Y1D01*
X618Y1D01*
X619Y1D01*
X620Y1D01*
X621Y1D01*
X622Y1D01*
X623Y1D01*
X624Y1D01*
X625Y1D01*
X626Y1D01*
X627Y1D01*
X628Y1D01*
X629Y1D01*
X630Y1D01*
X631Y1D01*
X632Y1D01*
X633Y1D01*
X634Y1D01*
X635Y1D01*
X636Y1D01*
X637Y1D01*
X638Y1D01*
X639Y1D01*
X640Y1D01*
X641Y1D01*
X642Y1D01*
X643Y1D01*
X644Y1D01*
X645Y1D01*
X646Y1D01*
X647Y1D01*
X648Y1D01*
X649Y1D01*
X650Y1D01*
X651Y1D01*
X652Y1D01*
X653Y1D01*
X654Y1D01*
X655Y1D01*
X656Y1D01*
X657Y1D01*
X658Y1D01*
X659Y1D01*
X660Y1D01*
X661Y1D01*
X662Y1D01*
X663Y1D01*
X664Y1D01*
X665Y1D01*
X666Y1D01*
X667Y1D01*
X668Y1D01*
X669Y1D01*
X670Y1D01*
X671Y1D01*
X672Y1D01*
X673Y1D01*
X674Y1D01*
X675Y1D01*
X676Y1D01*
X677Y1D01*
X678Y1D01*
X679Y1D01*
X680Y1D01*
X681Y1D01*
X682Y1D01*
X683Y1D01*
X684Y1D01*
X685Y1D01*
X686Y1D01*
X687Y1D01*
X688Y1D01*
X689Y1D01*
X690Y1D01*
X691Y1D01*
X692Y1D01*
X693Y1D01*
X694Y1D01*
X695Y1D01*
X696Y1D01*
X697Y1D01*
X698Y1D01*
X699Y1D01*
X700Y1D01*
X701Y1D01*
X702Y1D01*
X703Y1D01*
X704Y1D01*
X705Y1D01*
X706Y1D01*
X707Y1D01*
X708Y1D01*
X709Y1D01*
X710Y1D01*
X711Y1D01*
X712Y1D01*
X713Y1D01*
X714Y1D01*
X715Y1D01*
X716Y1D01*
X717Y1D01*
X718Y1D01*
X719Y1D01*
X720Y1D01*
X721Y1D01*
X722Y1D01*
X723Y1D01*
X724Y1D01*
X725Y1D01*
X726Y1D01*
X727Y1D01*
X728Y1D01*
X729Y1D01*
X730Y1D01*
X731Y1D01*
X732Y1D01*
X733Y1D01*
X734Y1D01*
X735Y1D01*
X736Y1D01*
X737Y1D01*
X738Y1D01*
X739Y1D01*
X740Y1D01*
X741Y1D01*
X742Y1D01*
X743Y1D01*
X744Y1D01*
X745Y1D01*
X746Y1D01*
X747Y1D01*
X748Y1D01*
X749Y1D01*
X750Y1D01*
X751Y1D01*
X752Y1D01*
X753Y1D01*
X754Y1D01*
X755Y1D01*
X756Y1D01*
X757Y1D01*
X758Y1D01*
X759Y1D01*
X760Y1D01*
X761Y1D01*
X762Y1D01*
X763Y1D01*
X764Y1D01*
X765Y1D01*
X766Y1D01*
X767Y1D01*
X768Y1D01*
X769Y1D01*
X770Y1D01*
X771Y1D01*
X772Y1D01*
X773Y1D01*
X774Y1D01*
X775Y1D01*
X776Y1D01*
X777Y1D01*
X778Y1D01*
X779Y1D01*
X780Y1D01*
X781Y1D01*
X782Y1D01*
X783Y1D01*
X784Y1D01*
X785Y1D01*
X786Y1D01*
X787Y1D01*
X788Y1D01*
X789Y1D01*
X790Y1D01*
X791Y1D01*
X792Y1D01*
X793Y1D01*
X794Y1D01*
X795Y1D01*
X796Y1D01*
X797Y1D01*
X798Y1D01*
X799Y1D01*
X800Y1D01*
X801Y1D01*
X802Y1D01*
X803Y1D01*
X804Y1D01*
X805Y1D01*
X806Y1D01*
X807Y1D01*
X808Y1D01*
X809Y1D01*
X810Y1D01*
X811Y1D01*
X812Y1D01*
X813Y1D01*
X814Y1D01*
X815Y1D01*
X816Y1D01*
X817Y1D01*
X818Y1D01*
X819Y1D01*
X820Y1D01*
X821Y1D01*
X822Y1D01*
X823Y1D01*
X824Y1D01*
X825Y1D01*
X826Y1D01*
X827Y1D01*
X828Y1D01*
X829Y1D01*
X830Y1D01*
X831Y1D01*
X832Y1D01*
X833Y1D01*
X834Y1D01*
X835Y1D01*
X836Y1D01*
X837Y1D01*
X838Y1D01*
X839Y1D01*
X840Y1D01*
X841Y1D01*
X842Y1D01*
X843Y1D01*
X844Y1D01*
X845Y1D01*
X846Y1D01*
X847Y1D01*
X848Y1D01*
X849Y1D01*
X850Y1D01*
X851Y1D01*
X852Y1D01*
X853Y1D01*
X854Y1D01*
X855Y1D01*
X856Y1D01*
X857Y1D01*
X858Y1D01*
X859Y1D01*
X860Y1D01*
X861Y1D01*
X862Y1D01*
X863Y1D01*
X864Y1D01*
X865Y1D01*
X866Y1D01*
X867Y1D01*
X868Y1D01*
X869Y1D01*
X870Y1D01*
X871Y1D01*
X872Y1D01*
X873Y1D01*
X874Y1D01*
X875Y1D01*
X876Y1D01*
X877Y1D01*
X878Y1D01*
X879Y1D01*
X880Y1D01*
X881Y1D01*
X882Y1D01*
X883Y1D01*
X884Y1D01*
X885Y1D01*
X886Y1D01*
X887Y1D01*
X888Y1D01*
X889Y1D01*
X890Y1D01*
X891Y1D01*
X892Y1D01*
X893Y1D01*
X894Y1D01*
X895Y1D01*
X896Y1D01*
X897Y1D01*
X898Y1D01*
X899Y1D01*
X900Y1D01*
X901Y1D01*
X902Y1D01*
X903Y1D01*
X904Y1D01*
X905Y1D01*
X906Y1D01*
X907Y1D01*
X908Y1D01*
X909Y1D01*
X910Y1D01*
X911Y1D01*
X912Y1D01*
X913Y1D01*
X914Y1D01*
X915Y1D01*
X916Y1D01*
X917Y1D01*
X918Y1D01*
X919Y1D01*
X920Y1D01*
X921Y1D01*
X922Y1D01*
X923Y1D01*
X924Y1D01*
X925Y1D01*
X926Y1D01*
X927Y1D01*
X928Y1D01*
X929Y1D01*
X930Y1D01*
X931Y1D01*
X932Y1D01*
X933Y1D01*
X934Y1D01*
X935Y1D01*
X936Y1D01*
X937Y1D01*
X938Y1D01*
X939Y1D01*
X940Y1D01*
X941Y1D01*
X942Y1D01*
X943Y1D01*
X944Y1D01*
X945Y1D01*
X946Y1D01*
X947Y1D01*
X948Y1D01*
X949Y1D01*
X950Y1D01*
X951Y1D01*
X952Y1D01*
X953Y1D01*
X954Y1D01*
X955Y1D01*
X956Y1D01*
X957Y1D01*
X958Y1D01*
X959Y1D01*
X960Y1D01*
X961Y1D01*
X962Y1D01*
X963Y1D01*
X964Y1D01*
X965Y1D01*
X966Y1D01*
X967Y1D01*
X968Y1D01*
X969Y1D01*
X970Y1D01*
X971Y1D01*
X972Y1D01*
X973Y1D01*
X974Y1D01*
X975Y1D01*
X976Y1D01*
X977Y1D01*
X978Y1D01*
X979Y1D01*
X980Y1D01*
X981Y1D01*
X982Y1D01*
X983Y1D01*
X984Y1D01*
X985Y1D01*
X986Y1D01*
X987Y1D01*
X988Y1D01*
X989Y1D01*
X990Y1D01*
X991Y1D01*
X992Y1D01*
X993Y1D01*
X994Y1D01*
X995Y1D01*
X996Y1D01*
X997Y1D01*
X998Y1D01*
X999Y1D01*
X1000Y1D01*
X1001Y1D01*
X1002Y1D01*
X1003Y1D01*
X1004Y1D01*
X1005Y1D01*
X1006Y1D01*
X1007Y1D01*
X1008Y1D01*
X1009Y1D01*
X1010Y1D01*
X1011Y1D01*
X1012Y1D01*
X1013Y1D01*
X1014Y1D01*
X1015Y1D01*
X1016Y1D01*
X1017Y1D01*
X1018Y1D01*
X1019Y1D01*
X1020Y1D01*
X1021Y1D01*
X1022Y1D01*
X1023Y1D01*
X1024Y1D01*
X1025Y1D01*
X1026Y1D01*
X1027Y1D01*
X1028Y1D01*
X1029Y1D01*
X1030Y1D01*
X1031Y1D01*
X1032Y1D01*
X1033Y1D01*
X1034Y1D01*
X1035Y1D01*
X1036Y1D01*
X1037Y1D01*
X1038Y1D01*
X1039Y1D01*
X1040Y1D01*
X1041Y1D01*
X1042Y1D01*
X1043Y1D01*
X1044Y1D01*
X1045Y1D01*
X1046Y1D01*
X1047Y1D01*
X1048Y1D01*
X1049Y1D01*
X1050Y1D01*
X1051Y1D01*
X1052Y1D01*
X1053Y1D01*
X1054Y1D01*
X1055Y1D01*
X1056Y1D01*
X1057Y1D01*
X1058Y1D01*
X1059Y1D01*
X1060Y1D01*
X1061Y1D01*
X1062Y1D01*
X1063Y1D01*
X1064Y1D01*
X1065Y1D01*
X1066Y1D01*
X1067Y1D01*
X1068Y1D01*
X1069Y1D01*
X1070Y1D01*
X1071Y1D01*
X1072Y1D01*
X1073Y1D01*
X1074Y1D01*
X1075Y1D01*
X1076Y1D01*
X1077Y1D01*
X1078Y1D01*
X1079Y1D01*
X1080Y1D01*
X1081Y1D01*
X1082Y1D01*
X1083Y1D01*
X1084Y1D01*
X1085Y1D01*
X1086Y1D01*
X1087Y1D01*
X1088Y1D01*
X1089Y1D01*
X1090Y1D01*
X1091Y1D01*
X1092Y1D01*
X1093Y1D01*
X1094Y1D01*
X1095Y1D01*
X1096Y1D01*
X1097Y1D01*
X1098Y1D01*
X1099Y1D01*
X1100Y1D01*
X1101Y1D01*
X1102Y1D01*
X1103Y1D01*
X1104Y1D01*
X1105Y1D01*
X1106Y1D01*
X1107Y1D01*
X1108Y1D01*
X1109Y1D01*
X1110Y1D01*
X1111Y1D01*
X1112Y1D01*
X1113Y1D01*
X1114Y1D01*
X1115Y1D01*
X1116Y1D01*
X1117Y1D01*
X1118Y1D01*
X1119Y1D01*
X1120Y1D01*
X1121Y1D01*
X1122Y1D01*
X1123Y1D01*
X1124Y1D01*
X1125Y1D01*
X1126Y1D01*
X1127Y1D01*
X1128Y1D01*
X1129Y1D01*
X1130Y1D01*
X1131Y1D01*
X1132Y1D01*
X1133Y1D01*
X1134Y1D01*
X1135Y1D01*
X1136Y1D01*
X1137Y1D01*
X1138Y1D01*
X1139Y1D01*
X1140Y1D01*
X1141Y1D01*
X1142Y1D01*
X1143Y1D01*
X1144Y1D01*
X1145Y1D01*
X1146Y1D01*
X1147Y1D01*
X1148Y1D01*
X1149Y1D01*
X1150Y1D01*
X1151Y1D01*
X1152Y1D01*
X1153Y1D01*
X1154Y1D01*
X1155Y1D01*
X1156Y1D01*
X1157Y1D01*
X1158Y1D01*
X1159Y1D01*
X1160Y1D01*
X1161Y1D01*
X1162Y1D01*
X1163Y1D01*
X1164Y1D01*
X1165Y1D01*
X1166Y1D01*
X1167Y1D01*
X1168Y1D01*
X1169Y1D01*
X1170Y1D01*
X1171Y1D01*
X1172Y1D01*
X1173Y1D01*
X1174Y1D01*
X1175Y1D01*
X1176Y1D01*
X1177Y1D01*
X1178Y1D01*
X1179Y1D01*
X1180Y1D01*
X1181Y1D01*
X1182Y1D01*
X1183Y1D01*
X1184Y1D01*
X1185Y1D01*
X1186Y1D01*
X1187Y1D01*
X1188Y1D01*
X1189Y1D01*
X1190Y1D01*
X1191Y1D01*
X1192Y1D01*
X1193Y1D01*
X1194Y1D01*
X1195Y1D01*
X1196Y1D01*
X1197Y1D01*
X1198Y1D01*
X1199Y1D01*
X1200Y1D01*
X1201Y1D01*
X1202Y1D01*
X1203Y1D01*
X1204Y1D01*
X1205Y1D01*
X1206Y1D01*
X1207Y1D01*
X1208Y1D01*
X1209Y1D01*
X1210Y1D01*
X1211Y1D01*
X1212Y1D01*
X1213Y1D01*
X1214Y1D01*
X1215Y1D01*
X1216Y1D01*
X1217Y1D01*
X1218Y1D01*
X1219Y1D01*
X1220Y1D01*
X1221Y1D01*
X1222Y1D01*
X1223Y1D01*
X1224Y1D01*
X1225Y1D01*
X1226Y1D01*
X1227Y1D01*
X1228Y1D01*
X1229Y1D01*
X1230Y1D01*
X1231Y1D01*
X1232Y1D01*
X1233Y1D01*
X1234Y1D01*
X1235Y1D01*
X1236Y1D01*
X1237Y1D01*
X1238Y1D01*
X1239Y1D01*
X1240Y1D01*
X1241Y1D01*
X1242Y1D01*
X1243Y1D01*
X1244Y1D01*
X1245Y1D01*
X1246Y1D01*
X1247Y1D01*
X1248Y1D01*
X1249Y1D01*
X1250Y1D01*
X1251Y1D01*
X1252Y1D01*
X1253Y1D01*
X1254Y1D01*
X1255Y1D01*
X1256Y1D01*
X1257Y1D01*
X1258Y1D01*
X1259Y1D01*
X1260Y1D01*
X1261Y1D01*
X1262Y1D01*
X1263Y1D01*
X1264Y1D01*
X1265Y1D01*
X1266Y1D01*
X1267Y1D01*
X1268Y1D01*
X1269Y1D01*
X1270Y1D01*
X1271Y1D01*
X1272Y1D01*
X1273Y1D01*
X1274Y1D01*
X1275Y1D01*
X1276Y1D01*
X1277Y1D01*
X1278Y1D01*
X1279Y1D01*
X1280Y1D01*
X1281Y1D01*
X1282Y1D01*
X1283Y1D01*
X1284Y1D01*
X1285Y1D01*
X1286Y1D01*
X1287Y1D01*
X1288Y1D01*
X1289Y1D01*
X1290Y1D01*
X1291Y1D01*
X1292Y1D01*
X1293Y1D01*
X1294Y1D01*
X1295Y1D01*
X1296Y1D01*
X1297Y1D01*
X1298Y1D01*
X1299Y1D01*
X1300Y1D01*
X1301Y1D01*
X1302Y1D01*
X1303Y1D01*
X1304Y1D01*
X1305Y1D01*
X1306Y1D01*
X1307Y1D01*
X1308Y1D01*
X1309Y1D01*
X1310Y1D01*
X1311Y1D01*
X1312Y1D01*
X1313Y1D01*
X1314Y1D01*
X1315Y1D01*
X1316Y1D01*
X1317Y1D01*
X1318Y1D01*
X1319Y1D01*
X1320Y1D01*
X1321Y1D01*
X1322Y1D01*
X1323Y1D01*
X1324Y1D01*
X1325Y1D01*
X1326Y1D01*
X1327Y1D01*
X1328Y1D01*
X1329Y1D01*
X1330Y1D01*
X1331Y1D01*
X1332Y1D01*
X1333Y1D01*
X1334Y1D01*
X1335Y1D01*
X1336Y1D01*
X1337Y1D01*
X1338Y1D01*
X1339Y1D01*
X1340Y1D01*
X1341Y1D01*
X1342Y1D01*
X1343Y1D01*
X1344Y1D01*
X1345Y1D01*
X1346Y1D01*
X1347Y1D01*
X1348Y1D01*
X1349Y1D01*
X1350Y1D01*
X1351Y1D01*
X1352Y1D01*
X1353Y1D01*
X1354Y1D01*
X1355Y1D01*
X1356Y1D01*
X1357Y1D01*
X1358Y1D01*
X1359Y1D01*
X1360Y1D01*
X1361Y1D01*
X1362Y1D01*
X1363Y1D01*
X1364Y1D01*
X1365Y1D01*
X1366Y1D01*
X1367Y1D01*
X1368Y1D01*
X1369Y1D01*
X1370Y1D01*
X1371Y1D01*
X1372Y1D01*
X1373Y1D01*
X1374Y1D01*
X1375Y1D01*
X1376Y1D01*
X1377Y1D01*
X1378Y1D01*
X1379Y1D01*
X1380Y1D01*
X1381Y1D01*
X1382Y1D01*
X1383Y1D01*
X1384Y1D01*
X1385Y1D01*
X1386Y1D01*
X1387Y1D01*
X1388Y1D01*
X1389Y1D01*
X1390Y1D01*
X1391Y1D01*
X1392Y1D01*
X1393Y1D01*
X1394Y1D01*
X1395Y1D01*
X1396Y1D01*
X1397Y1D01*
X1398Y1D01*
X1399Y1D01*
X1400Y1D01*
X1401Y1D01*
X1402Y1D01*
X1403Y1D01*
X1404Y1D01*
X1405Y1D01*
X1406Y1D01*
X1407Y1D01*
X1408Y1D01*
X1409Y1D01*
X1410Y1D01*
X1411Y1D01*
X1412Y1D01*
X1413Y1D01*
X1414Y1D01*
X1415Y1D01*
X1416Y1D01*
X1417Y1D01*
X1418Y1D01*
X1419Y1D01*
X1420Y1D01*
X1421Y1D01*
X1422Y1D01*
X1423Y1D01*
X1424Y1D01*
X1425Y1D01*
X1426Y1D01*
X1427Y1D01*
X1428Y1D01*
X1429Y1D01*
X1430Y1D01*
X1431Y1D01*
X1432Y1D01*
X1433Y1D01*
X1434Y1D01*
X1435Y1D01*
X1436Y1D01*
X1437Y1D01*
X1438Y1D01*
X1439Y1D01*
X1440Y1D01*
X1441Y1D01*
X1442Y1D01*
X1443Y1D01*
X1444Y1D01*
X1445Y1D01*
X1446Y1D01*
X1447Y1D01*
X1448Y1D01*
X1449Y1D01*
X1450Y1D01*
X1451Y1D01*
X1452Y1D01*
X1453Y1D01*
X1454Y1D01*
X1455Y1D01*
X1456Y1D01*
X1457Y1D01*
X1458Y1D01*
X1459Y1D01*
X1460Y1D01*
X1461Y1D01*
X1462Y1D01*
X1463Y1D01*
X1464Y1D01*
X1465Y1D01*
X1466Y1D01*
X1467Y1D01*
X1468Y1D01*
X1469Y1D01*
X1470Y1D01*
X1471Y1D01*
X1472Y1D01*
X1473Y1D01*
X1474Y1D01*
X1475Y1D01*
X1476Y1D01*
X1477Y1D01*
X1478Y1D01*
X1479Y1D01*
X1480Y1D01*
X1481Y1D01*
X1482Y1D01*
X1483Y1D01*
X1484Y1D01*
X1485Y1D01*
X1486Y1D01*
X1487Y1D01*
X1488Y1D01*
X1489Y1D01*
X1490Y1D01*
X1491Y1D01*
X1492Y1D01*
X1493Y1D01*
X1494Y1D01*
X1495Y1D01*
X1496Y1D01*
X1497Y1D01*
X1498Y1D01*
X1499Y1D01*
X1500Y1D01*
X1501Y1D01*
X1502Y1D01*
X1503Y1D01*
X1504Y1D01*
X1505Y1D01*
X1506Y1D01*
X1507Y1D01*
X1508Y1D01*
X1509Y1D01*
X1510Y1D01*
X1511Y1D01*
X1512Y1D01*
X1513Y1D01*
X1514Y1D01*
X1515Y1D01*
X1516Y1D01*
X1517Y1D01*
X1518Y1D01*
X1519Y1D01*
X1520Y1D01*
X1521Y1D01*
X1522Y1D01*
X1523Y1D01*
X1524Y1D01*
X1525Y1D01*
X1526Y1D01*
X1527Y1D01*
X1528Y1D01*
X1529Y1D01*
X1530Y1D01*
X1531Y1D01*
X1532Y1D01*
X1533Y1D01*
X1534Y1D01*
X1535Y1D01*
X1536Y1D01*
X1537Y1D01*
X1538Y1D01*
X1539Y1D01*
X1540Y1D01*
X1541Y1D01*
X1542Y1D01*
X1543Y1D01*
X1544Y1D01*
X1545Y1D01*
X1546Y1D01*
X1547Y1D01*
X1548Y1D01*
X1549Y1D01*
X1550Y1D01*
X1551Y1D01*
X1552Y1D01*
X1553Y1D01*
X1554Y1D01*
X1555Y1D01*
X1556Y1D01*
X1557Y1D01*
X1558Y1D01*
X1559Y1D01*
X1560Y1D01*
X1561Y1D01*
X1562Y1D01*
X1563Y1D01*
X1564Y1D01*
X1565Y1D01*
X1566Y1D01*
X1567Y1D01*
X1568Y1D01*
X1569Y1D01*
X1570Y1D01*
X1571Y1D01*
X1572Y1D01*
X1573Y1D01*
X1574Y1D01*
X1575Y1D01*
X1576Y1D01*
X1577Y1D01*
X1578Y1D01*
X1579Y1D01*
X1580Y1D01*
X1581Y1D01*
X1582Y1D01*
X1583Y1D01*
X1584Y1D01*
X1585Y1D01*
X1586Y1D01*
X1587Y1D01*
X1588Y1D01*
X1589Y1D01*
X1590Y1D01*
X1591Y1D01*
X1592Y1D01*
X1593Y1D01*
X1594Y1D01*
X1595Y1D01*
X1596Y1D01*
X1597Y1D01*
X1598Y1D01*
X1599Y1D01*
X1600Y1D01*
X1601Y1D01*
X1602Y1D01*
X1603Y1D01*
X1604Y1D01*
X1605Y1D01*
X1606Y1D01*
X1607Y1D01*
X1608Y1D01*
X1609Y1D01*
X1610Y1D01*
X1611Y1D01*
X1612Y1D01*
X1613Y1D01*
X1614Y1D01*
X1615Y1D01*
X1616Y1D01*
X1617Y1D01*
X1618Y1D01*
X1619Y1D01*
X1620Y1D01*
X1621Y1D01*
X1622Y1D01*
X1623Y1D01*
X1624Y1D01*
X1625Y1D01*
X1626Y1D01*
X1627Y1D01*
X1628Y1D01*
X1629Y1D01*
X1630Y1D01*
X1631Y1D01*
X1632Y1D01*
X1633Y1D01*
X1634Y1D01*
X1635Y1D01*
X1636Y1D01*
X1637Y1D01*
X1638Y1D01*
X1639Y1D01*
X1640Y1D01*
X1641Y1D01*
X1642Y1D01*
X1643Y1D01*
X1644Y1D01*
X1645Y1D01*
X1646Y1D01*
X1647Y1D01*
X1648Y1D01*
X1649Y1D01*
X1650Y1D01*
X1651Y1D01*
X1652Y1D01*
X1653Y1D01*
X1654Y1D01*
X1655Y1D01*
X1656Y1D01*
X1657Y1D01*
X1658Y1D01*
X1659Y1D01*
X1660Y1D01*
X1661Y1D01*
X1662Y1D01*
X1663Y1D01*
X1664Y1D01*
X1665Y1D01*
X1666Y1D01*
X1667Y1D01*
X1668Y1D01*
X1669Y1D01*
X1670Y1D01*
X1671Y1D01*
X1672Y1D01*
X1673Y1D01*
X1674Y1D01*
X1675Y1D01*
X1676Y1D01*
X1677Y1D01*
X1678Y1D01*
X1679Y1D01*
X1680Y1D01*
X1681Y1D01*
X1682Y1D01*
X1683Y1D01*
X1684Y1D01*
X1685Y1D01*
X1686Y1D01*
X1687Y1D01*
X1688Y1D01*
X1689Y1D01*
X1690Y1D01*
X1691Y1D01*
X1692Y1D01*
X1693Y1D01*
X1694Y1D01*
X1695Y1D01*
X1696Y1D01*
X1697Y1D01*
X1698Y1D01*
X1699Y1D01*
X1700Y1D01*
X1701Y1D01*
X1702Y1D01*
X1703Y1D01*
X1704Y1D01*
X1705Y1D01*
X1706Y1D01*
X1707Y1D01*
X1708Y1D01*
X1709Y1D01*
X1710Y1D01*
X1711Y1D01*
X1712Y1D01*
X1713Y1D01*
X1714Y1D01*
X1715Y1D01*
X1716Y1D01*
X1717Y1D01*
X1718Y1D01*
X1719Y1D01*
X1720Y1D01*
X1721Y1D01*
X1722Y1D01*
X1723Y1D01*
X1724Y1D01*
X1725Y1D01*
X1726Y1D01*
X1727Y1D01*
X1728Y1D01*
X1729Y1D01*
X1730Y1D01*
X1731Y1D01*
X1732Y1D01*
X1733Y1D01*
X1734Y1D01*
X1735Y1D01*
X1736Y1D01*
X1737Y1D01*
X1738Y1D01*
X1739Y1D01*
X1740Y1D01*
X1741Y1D01*
X1742Y1D01*
X1743Y1D01*
X1744Y1D01*
X1745Y1D01*
X1746Y1D01*
X1747Y1D01*
X1748Y1D01*
X1749Y1D01*
X1750Y1D01*
X1751Y1D01*
X1752Y1D01*
X1753Y1D01*
X1754Y1D01*
X1755Y1D01*
X1756Y1D01*
X1757Y1D01*
X1758Y1D01*
X1759Y1D01*
X1760Y1D01*
X1761Y1D01*
X1762Y1D01*
X1763Y1D01*
X1764Y1D01*
X1765Y1D01*
X1766Y1D01*
X1767Y1D01*
X1768Y1D01*
X1769Y1D01*
X1770Y1D01*
X1771Y1D01*
X1772Y1D01*
X1773Y1D01*
X1774Y1D01*
X1775Y1D01*
X1776Y1D01*
X1777Y1D01*
X1778Y1D01*
X1779Y1D01*
X1780Y1D01*
X1781Y1D01*
X1782Y1D01*
X1783Y1D01*
X1784Y1D01*
X1785Y1D01*
X1786Y1D01*
X1787Y1D01*
X1788Y1D01*
X1789Y1D01*
X1790Y1D01*
X1791Y1D01*
X1792Y1D01*
X1793Y1D01*
X1794Y1D01*
X1795Y1D01*
X1796Y1D01*
X1797Y1D01*
X1798Y1D01*
X1799Y1D01*
X1800Y1D01*
X1801Y1D01*
X1802Y1D01*
X1803Y1D01*
X1804Y1D01*
X1805Y1D01*
X1806Y1D01*
X1807Y1D01*
X1808Y1D01*
X1809Y1D01*
X1810Y1D01*
X1811Y1D01*
X1812Y1D01*
X1813Y1D01*
X1814Y1D01*
X1815Y1D01*
X1816Y1D01*
X1817Y1D01*
X1818Y1D01*
X1819Y1D01*
X1820Y1D01*
X1821Y1D01*
X1822Y1D01*
X1823Y1D01*
X1824Y1D01*
X1825Y1D01*
X1826Y1D01*
X1827Y1D01*
X1828Y1D01*
X1829Y1D01*
X1830Y1D01*
X1831Y1D01*
X1832Y1D01*
X1833Y1D01*
X1834Y1D01*
X1835Y1D01*
X1836Y1D01*
X1837Y1D01*
X1838Y1D01*
X1839Y1D01*
X1840Y1D01*
X1841Y1D01*
X1842Y1D01*
X1843Y1D01*
X1844Y1D01*
X1845Y1D01*
X1846Y1D01*
X1847Y1D01*
X1848Y1D01*
X1849Y1D01*
X1850Y1D01*
X1851Y1D01*
X1852Y1D01*
X1853Y1D01*
X1854Y1D01*
X1855Y1D01*
X1856Y1D01*
X1857Y1D01*
X1858Y1D01*
X1859Y1D01*
X1860Y1D01*
X1861Y1D01*
X1862Y1D01*
X1863Y1D01*
X1864Y1D01*
X1865Y1D01*
X1866Y1D01*
X1867Y1D01*
X1868Y1D01*
X1869Y1D01*
X1870Y1D01*
X1871Y1D01*
X1872Y1D01*
X1873Y1D01*
X1874Y1D01*
X1875Y1D01*
X1876Y1D01*
X1877Y1D01*
X1878Y1D01*
X1879Y1D01*
X1880Y1D01*
X1881Y1D01*
X1882Y1D01*
X1883Y1D01*
X1884Y1D01*
X1885Y1D01*
X1886Y1D01*
X1887Y1D01*
X1888Y1D01*
X1889Y1D01*
X1890Y1D01*
X1891Y1D01*
X1892Y1D01*
X1893Y1D01*
X1894Y1D01*
X1895Y1D01*
X1896Y1D01*
X1897Y1D01*
X1898Y1D01*
X1899Y1D01*
X1900Y1D01*
X1901Y1D01*
X1902Y1D01*
X1903Y1D01*
X1904Y1D01*
X1905Y1D01*
X1906Y1D01*
X1907Y1D01*
X1908Y1D01*
X1909Y1D01*
X1910Y1D01*
X1911Y1D01*
X1912Y1D01*
X1913Y1D01*
X1914Y1D01*
X1915Y1D01*
X1916Y1D01*
X1917Y1D01*
X1918Y1D01*
X1919Y1D01*
X1920Y1D01*
X1921Y1D01*
X1922Y1D01*
X1923Y1D01*
X1924Y1D01*
X1925Y1D01*
X1926Y1D01*
X1927Y1D01*
X1928Y1D01*
X1929Y1D01*
X1930Y1D01*
X1931Y1D01*
X1932Y1D01*
X1933Y1D01*
X1934Y1D01*
X1935Y1D01*
X1936Y1D01*
X1937Y1D01*
X1938Y1D01*
X1939Y1D01*
X1940Y1D01*
X1941Y1D01*
X1942Y1D01*
X1943Y1D01*
X1944Y1D01*
X1945Y1D01*
X1946Y1D01*
X1947Y1D01*
X1948Y1D01*
X1949Y1D01*
X1950Y1D01*
X1951Y1D01*
X1952Y1D01*
X1953Y1D01*
X1954Y1D01*
X1955Y1D01*
X1956Y1D01*
X1957Y1D01*
X1958Y1D01*
X1959Y1D01*
X1960Y1D01*
X1961Y1D01*
X1962Y1D01*
X1963Y1D01*
X1964Y1D01*
X1965Y1D01*
X1966Y1D01*
X1967Y1D01*
X1968Y1D01*
X1969Y1D01*
X1970Y1D01*
X1971Y1D01*
X1972Y1D01*
X1973Y1D01*
X1974Y1D01*
X1975Y1D01*
X1976Y1D01*
X1977Y1D01*
X1978Y1D01*
X1979Y1D01*
X1980Y1D01*
X1981Y1D01*
X1982Y1D01*
X1983Y1D01*
X1984Y1D01*
X1985Y1D01*
X1986Y1D01*
X1987Y1D01*
X1988Y1D01*
X1989Y1D01*
X1990Y1D01*
X1991Y1D01*
X1992Y1D01*
X1993Y1D01*
X1994Y1D01*
X1995Y1D01*
X1996Y1D01*
X1997Y1D01*
X1998Y1D01*
X1999Y1D01*
X2000Y1D01*
X2001Y1D01*
X2002Y1D01*
X2003Y1D01*
X2004Y1D01*
X2005Y1D01*
X2006Y1D01*
X2007Y1D01*
X2008Y1D01*
X2009Y1D01*
X2010Y1D01*
X2011Y1D01*
X2012Y1D01*
X2013Y1D01*
X2014Y1D01*
X2015Y1D01*
X2016Y1D01*
X2017Y1D01*
X2018Y1D01*
X2019Y1D01*
X2020Y1D01*
X2021Y1D01*
X2022Y1D01*
X2023Y1D01*
X2024Y1D01*
X2025Y1D01*
X2026Y1D01*
X2027Y1D01*
X2028Y1D01*
X2029Y1D01*
X2030Y1D01*
X2031Y1D01*
X2032Y1D01*
X2033Y1D01*
X2034Y1D01*
X2035Y1D01*
X2036Y1D01*
X2037Y1D01*
X2038Y1D01*
X2039Y1D01*
X2040Y1D01*
X2041Y1D01*
X2042Y1D01*
X2043Y1D01*
X2044Y1D01*
X2045Y1D01*
X2046Y1D01*
X2047Y1D01*
X2048Y1D01*
X2049Y1D01*
X2050Y1D01*
X2051Y1D01*
X2052Y1D01*
X2053Y1D01*
X2054Y1D01*
X2055Y1D01*
X2056Y1D01*
X2057Y1D01*
X2058Y1D01*
X2059Y1D01*
X2060Y1D01*
X2061Y1D01*
X2062Y1D01*
X2063Y1D01*
X2064Y1D01*
X2065Y1D01*
X2066Y1D01*
X2067Y1D01*
X2068Y1D01*
X2069Y1D01*
X2070Y1D01*
X2071Y1D01*
X2072Y1D01*
X2073Y1D01*
X2074Y1D01*
X2075Y1D01*
X2076Y1D01*
X2077Y1D01*
X2078Y1D01*
X2079Y1D01*
X2080Y1D01*
X2081Y1D01*
X2082Y1D01*
X2083Y1D01*
X2084Y1D01*
X2085Y1D01*
X2086Y1D01*
X2087Y1D01*
X2088Y1D01*
X2089Y1D01*
X2090Y1D01*
X2091Y1D01*
X2092Y1D01*
X2093Y1D01*
X2094Y1D01*
X2095Y1D01*
X2096Y1D01*
X2097Y1D01*
X2098Y1D01*
X2099Y1D01*
X2100Y1D01*
X2101Y1D01*
X2102Y1D01*
X2103Y1D01*
X2104Y1D01*
X2105Y1D01*
X2106Y1D01*
X2107Y1D01*
X2108Y1D01*
X2109Y1D01*
X2110Y1D01*
X2111Y1D01*
X2112Y1D01*
X2113Y1D01*
X2114Y1D01*
X2115Y1D01*
X2116Y1D01*
X2117Y1D01*
X2118Y1D01*
X2119Y1D01*
X2120Y1D01*
X2121Y1D01*
X2122Y1D01*
X2123Y1D01*
X2124Y1D01*
X2125Y1D01*
X2126Y1D01*
X2127Y1D01*
X2128Y1D01*
X2129Y1D01*
X2130Y1D01*
X2131Y1D01*
X2132Y1D01*
X2133Y1D01*
X2134Y1D01*
X2135Y1D01*
X2136Y1D01*
X2137Y1D01*
X2138Y1D01*
X2139Y1D01*
X2140Y1D01*
X2141Y1D01*
X2142Y1D01*
X2143Y1D01*
X2144Y1D01*
X2145Y1D01*
X2146Y1D01*
X2147Y1D01*
X2148Y1D01*
X2149Y1D01*
X2150Y1D01*
X2151Y1D01*
X2152Y1D01*
X2153Y1D01*
X2154Y1D01*
X2155Y1D01*
X2156Y1D01*
X2157Y1D01*
X2158Y1D01*
X2159Y1D01*
X2160Y1D01*
X2161Y1D01*
X2162Y1D01*
X2163Y1D01*
X2164Y1D01*
X2165Y1D01*
X2166Y1D01*
X2167Y1D01*
X2168Y1D01*
X2169Y1D01*
X2170Y1D01*
X2171Y1D01*
X2172Y1D01*
X2173Y1D01*
X2174Y1D01*
X2175Y1D01*
X2176Y1D01*
X2177Y1D01*
X2178Y1D01*
X2179Y1D01*
X2180Y1D01*
X2181Y1D01*
X2182Y1D01*
X2183Y1D01*
X2184Y1D01*
X2185Y1D01*
X2186Y1D01*
X2187Y1D01*
X2188Y1D01*
X2189Y1D01*
X2190Y1D01*
X2191Y1D01*
X2192Y1D01*
X2193Y1D01*
X2194Y1D01*
X2195Y1D01*
X2196Y1D01*
X2197Y1D01*
X2198Y1D01*
X2199Y1D01*
X2200Y1D01*
X2201Y1D01*
X2202Y1D01*
X2203Y1D01*
X2204Y1D01*
X2205Y1D01*
X2206Y1D01*
X2207Y1D01*
X2208Y1D01*
X2209Y1D01*
X2210Y1D01*
X2211Y1D01*
X2212Y1D01*
X2213Y1D01*
X2214Y1D01*
X2215Y1D01*
X2216Y1D01*
X2217Y1D01*
X2218Y1D01*
X2219Y1D01*
X2220Y1D01*
X2221Y1D01*
X2222Y1D01*
X2223Y1D01*
X2224Y1D01*
X2225Y1D01*
X2226Y1D01*
X2227Y1D01*
X2228Y1D01*
X2229Y1D01*
X2230Y1D01*
X2231Y1D01*
X2232Y1D01*
X2233Y1D01*
X2234Y1D01*
X2235Y1D01*
X2236Y1D01*
X2237Y1D01*
X2238Y1D01*
X2239Y1D01*
X2240Y1D01*
X2241Y1D01*
X2242Y1D01*
X2243Y1D01*
X2244Y1D01*
X2245Y1D01*
X2246Y1D01*
X2247Y1D01*
X2248Y1D01*
X2249Y1D01*
X2250Y1D01*
X2251Y1D01*
X2252Y1D01*
X2253Y1D01*
X2254Y1D01*
X2255Y1D01*
X2256Y1D01*
X2257Y1D01*
X2258Y1D01*
X2259Y1D01*
X2260Y1D01*
X2261Y1D01*
X2262Y1D01*
X2263Y1D01*
X2264Y1D01*
X2265Y1D01*
X2266Y1D01*
X2267Y1D01*
X2268Y1D01*
X2269Y1D01*
X2270Y1D01*
X2271Y1D01*
X2272Y1D01*
X2273Y1D01*
X2274Y1D01*
X2275Y1D01*
X2276Y1D01*
X2277Y1D01*
X2278Y1D01*
X2279Y1D01*
X2280Y1D01*
X2281Y1D01*
X2282Y1D01*
X2283Y1D01*
X2284Y1D01*
X2285Y1D01*
X2286Y1D01*
X2287Y1D01*
X2288Y1D01*
X2289Y1D01*
X2290Y1D01*
X2291Y1D01*
X2292Y1D01*
X2293Y1D01*
X2294Y1D01*
X2295Y1D01*
X2296Y1D01*
X2297Y1D01*
X2298Y1D01*
X2299Y1D01*
X2300Y1D01*
X2301Y1D01*
X2302Y1D01*
X2303Y1D01*
X2304Y1D01*
X2305Y1D01*
X2306Y1D01*
X2307Y1D01*
X2308Y1D01*
X2309Y1D01*
X2310Y1D01*
X2311Y1D01*
X2312Y1D01*
X2313Y1D01*
X2314Y1D01*
X2315Y1D01*
X2316Y1D01*
X2317Y1D01*
X2318Y1D01*
X2319Y1D01*
X2320Y1D01*
X2321Y1D01*
X2322Y1D01*
X2323Y1D01*
X2324Y1D01*
X2325Y1D01*
X2326Y1D01*
X2327Y1D01*
X2328Y1D01*
X2329Y1D01*
X2330Y1D01*
X2331Y1D01*
X2332Y1D01*
X2333Y1D01*
X2334Y1D01*
X2335Y1D01*
X2336Y1D01*
X2337Y1D01*
X2338Y1D01*
X2339Y1D01*
X2340Y1D01*
X2341Y1D01*
X2342Y1D01*
X2343Y1D01*
X2344Y1D01*
X2345Y1D01*
X2346Y1D01*
X2347Y1D01*
X2348Y1D01*
X2349Y1D01*
X2350Y1D01*
X2351Y1D01*
X2352Y1D01*
X2353Y1D01*
X2354Y1D01*
X2355Y1D01*
X2356Y1D01*
X2357Y1D01*
X2358Y1D01*
X2359Y1D01*
X2360Y1D01*
X2361Y1D01*
X2362Y1D01*
X2363Y1D01*
X2364Y1D01*
X2365Y1D01*
X2366Y1D01*
X2367Y1D01*
X2368Y1D01*
X2369Y1D01*
X2370Y1D01*
X2371Y1D01*
X2372Y1D01*
X2373Y1D01*
X2374Y1D01*
X2375Y1D01*
X2376Y1D01*
X2377Y1D01*
X2378Y1D01*
X2379Y1D01*
X2380Y1D01*
X2381Y1D01*
X2382Y1D01*
X2383Y1D01*
X2384Y1D01*
X2385Y1D01*
X2386Y1D01*
X2387Y1D01*
X2388Y1D01*
X2389Y1D01*
X2390Y1D01*
X2391Y1D01*
X2392Y1D01*
X2393Y1D01*
X2394Y1D01*
X2395Y1D01*
X2396Y1D01*
X2397Y1D01*
X2398Y1D01*
X2399Y1D01*
X2400Y1D01*
X2401Y1D01*
X2402Y1D01*
X2403Y1D01*
X2404Y1D01*
X2405Y1D01*
X2406Y1D01*
X2407Y1D01*
X2408Y1D01*
X2409Y1D01*
X2410Y1D01*
X2411Y1D01*
X2412Y1D01*
X2413Y1D01*
X2414Y1D01*
X2415Y1D01*
X2416Y1D01*
X2417Y1D01*
X2418Y1D01*
X2419Y1D01*
X2420Y1D01*
X2421Y1D01*
X2422Y1D01*
X2423Y1D01*
X2424Y1D01*
X2425Y1D01*
X2426Y1D01*
X2427Y1D01*
X2428Y1D01*
X2429Y1D01*
X2430Y1D01*
X2431Y1D01*
X2432Y1D01*
X2433Y1D01*
X2434Y1D01*
X2435Y1D01*
X2436Y1D01*
X2437Y1D01*
X2438Y1D01*
X2439Y1D01*
X2440Y1D01*
X2441Y1D01*
X2442Y1D01*
X2443Y1D01*
X2444Y1D01*
X2445Y1D01*
X2446Y1D01*
X2447Y1D01*
X2448Y1D01*
X2449Y1D01*
X2450Y1D01*
X2451Y1D01*
X2452Y1D01*
X2453Y1D01*
X2454Y1D01*
X2455Y1D01*
X2456Y1D01*
X2457Y1D01*
X2458Y1D01*
X2459Y1D01*
X2460Y1D01*
X2461Y1D01*
X2462Y1D01*
X2463Y1D01*
X2464Y1D01*
X2465Y1D01*
X2466Y1D01*
X2467Y1D01*
X2468Y1D01*
X2469Y1D01*
X2470Y1D01*
X2471Y1D01*
X2472Y1D01*
X2473Y1D01*
X2474Y1D01*
X2475Y1D01*
X2476Y1D01*
X2477Y1D01*
X2478Y1D01*
X2479Y1D01*
X2480Y1D01*
X2481Y1D01*
X2482Y1D01*
X2483Y1D01*
X2484Y1D01*
X2485Y1D01*
X2486Y1D01*
X2487Y1D01*
X2488Y1D01*
X2489Y1D01*
X2490Y1D01*
X2491Y1D01*
X2492Y1D01*
X2493Y1D01*
X2494Y1D01*
X2495Y1D01*
X2496Y1D01*
X2497Y1D01*
X2498Y1D01*
X2499Y1D01*
X2500Y1D01*
X2501Y1D01*
X2502Y1D01*
X2503Y1D01*
X2504Y1D01*
X2505Y1D01*
X2506Y1D01*
X2507Y1D01*
X2508Y1D01*
X2509Y1D01*
X2510Y1D01*
X2511Y1D01*
X2512Y1D01*
X2513Y1D01*
X2514Y1D01*
X2515Y1D01*
X2516Y1D01*
X2517Y1D01*
X2518Y1D01*
X2519Y1D01*
X2520Y1D01*
X2521Y1D01*
X2522Y1D01*
X2523Y1D01*
X2524Y1D01*
X2525Y1D01*
X2526Y1D01*
X2527Y1D01*
X2528Y1D01*
X2529Y1D01*
X2530Y1D01*
X2531Y1D01*
X2532Y1D01*
X2533Y1D01*
X2534Y1D01*
X2535Y1D01*
X2536Y1D01*
X2537Y1D01*
X2538Y1D01*
X2539Y1D01*
X2540Y1D01*
X2541Y1D01*
X2542Y1D01*
X2543Y1D01*
X2544Y1D01*
X2545Y1D01*
X2546Y1D01*
X2547Y1D01*
X2548Y1D01*
X2549Y1D01*
X2550Y1D01*
X2551Y1D01*
X2552Y1D01*
X2553Y1D01*
X2554Y1D01*
X2555Y1D01*
X2556Y1D01*
X2557Y1D01*
X2558Y1D01*
X2559Y1D01*
X2560Y1D01*
X2561Y1D01*
X2562Y1D01*
X2563Y1D01*
X2564Y1D01*
X2565Y1D01*
X2566Y1D01*
X2567Y1D01*
X2568Y1D01*
X2569Y1D01*
X2570Y1D01*
X2571Y1D01*
X2572Y1D01*
X2573Y1D01*
X2574Y1D01*
X2575Y1D01*
X2576Y1D01*
X2577Y1D01*
X2578Y1D01*
X2579Y1D01*
X2580Y1D01*
X2581Y1D01*
X2582Y1D01*
X2583Y1D01*
X2584Y1D01*
X2585Y1D01*
X2586Y1D01*
X2587Y1D01*
X2588Y1D01*
X2589Y1D01*
X2590Y1D01*
X2591Y1D01*
X2592Y1D01*
X2593Y1D01*
X2594Y1D01*
X2595Y1D01*
X2596Y1D01*
X2597Y1D01*
X2598Y1D01*
X2599Y1D01*
X2600Y1D01*
X2601Y1D01*
X2602Y1D01*
X2603Y1D01*
X2604Y1D01*
X2605Y1D01*
X2606Y1D01*
X2607Y1D01*
X2608Y1D01*
X2609Y1D01*
X2610Y1D01*
X2611Y1D01*
X2612Y1D01*
X2613Y1D01*
X2614Y1D01*
X2615Y1D01*
X2616Y1D01*
X2617Y1D01*
X2618Y1D01*
X2619Y1D01*
X2620Y1D01*
X2621Y1D01*
X2622Y1D01*
X2623Y1D01*
X2624Y1D01*
X2625Y1D01*
X2626Y1D01*
X2627Y1D01*
X2628Y1D01*
X2629Y1D01*
X2630Y1D01*
X2631Y1D01*
X2632Y1D01*
X2633Y1D01*
X2634Y1D01*
X2635Y1D01*
X2636Y1D01*
X2637Y1D01*
X2638Y1D01*
X2639Y1D01*
X2640Y1D01*
X2641Y1D01*
X2642Y1D01*
X2643Y1D01*
X2644Y1D01*
X2645Y1D01*
X2646Y1D01*
X2647Y1D01*
X2648Y1D01*
X2649Y1D01*
X2650Y1D01*
X2651Y1D01*
X2652Y1D01*
X2653Y1D01*
X2654Y1D01*
X2655Y1D01*
X2656Y1D01*
X2657Y1D01*
X2658Y1D01*
X2659Y1D01*
X2660Y1D01*
X2661Y1D01*
X2662Y1D01*
X2663Y1D01*
X2664Y1D01*
X2665Y1D01*
X2666Y1D01*
X2667Y1D01*
X2668Y1D01*
X2669Y1D01*
X2670Y1D01*
X2671Y1D01*
X2672Y1D01*
X2673Y1D01*
X2674Y1D01*
X2675Y1D01*
X2676Y1D01*
X2677Y1D01*
X2678Y1D01*
X2679Y1D01*
X2680Y1D01*
X2681Y1D01*
X2682Y1D01*
X2683Y1D01*
X2684Y1D01*
X2685Y1D01*
X2686Y1D01*
X2687Y1D01*
X2688Y1D01*
X2689Y1D01*
X2690Y1D01*
X2691Y1D01*
X2692Y1D01*
X2693Y1D01*
X2694Y1D01*
X2695Y1D01*
X2696Y1D01*
X2697Y1D01*
X2698Y1D01*
X2699Y1D01*
X2700Y1D01*
X2701Y1D01*
X2702Y1D01*
X2703Y1D01*
X2704Y1D01*
X2705Y1D01*
X2706Y1D01*
X2707Y1D01*
X2708Y1D01*
X2709Y1D01*
X2710Y1D01*
X2711Y1D01*
X2712Y1D01*
X2713Y1D01*
X2714Y1D01*
X2715Y1D01*
X2716Y1D01*
X2717Y1D01*
X2718Y1D01*
X2719Y1D01*
X2720Y1D01*
X2721Y1D01*
X2722Y1D01*
X2723Y1D01*
X2724Y1D01*
X2725Y1D01*
X2726Y1D01*
X2727Y1D01*
X2728Y1D01*
X2729Y1D01*
X2730Y1D01*
X2731Y1D01*
X2732Y1D01*
X2733Y1D01*
X2734Y1D01*
X2735Y1D01*
X2736Y1D01*
X2737Y1D01*
X2738Y1D01*
X2739Y1D01*
X2740Y1D01*
X2741Y1D01*
X2742Y1D01*
X2743Y1D01*
X2744Y1D01*
X2745Y1D01*
X2746Y1D01*
X2747Y1D01*
X2748Y1D01*
X2749Y1D01*
X2750Y1D01*
X2751Y1D01*
X2752Y1D01*
X2753Y1D01*
X2754Y1D01*
X2755Y1D01*
X2756Y1D01*
X2757Y1D01*
X2758Y1D01*
X2759Y1D01*
X2760Y1D01*
X2761Y1D01*
X2762Y1D01*
X2763Y1D01*
X2764Y1D01*
X2765Y1D01*
X2766Y1D01*
X2767Y1D01*
X2768Y1D01*
X2769Y1D01*
X2770Y1D01*
X2771Y1D01*
X2772Y1D01*
X2773Y1D01*
X2774Y1D01*
X2775Y1D01*
X2776Y1D01*
X2777Y1D01*
X2778Y1D01*
X2779Y1D01*
X2780Y1D01*
X2781Y1D01*
X2782Y1D01*
X2783Y1D01*
X2784Y1D01*
X2785Y1D01*
X2786Y1D01*
X2787Y1D01*
X2788Y1D01*
X2789Y1D01*
X2790Y1D01*
X2791Y1D01*
X2792Y1D01*
X2793Y1D01*
X2794Y1D01*
X2795Y1D01*
X2796Y1D01*
X2797Y1D01*
X2798Y1D01*
X2799Y1D01*
X2800Y1D01*
X2801Y1D01*
X2802Y1D01*
X2803Y1D01*
X2804Y1D01*
X2805Y1D01*
X2806Y1D01*
X2807Y1D01*
X2808Y1D01*
X2809Y1D01*
X2810Y1D01*
X2811Y1D01*
X2812Y1D01*
X2813Y1D01*
X2814Y1D01*
X2815Y1D01*
X2816Y1D01*
X2817Y1D01*
X2818Y1D01*
X2819Y1D01*
X2820Y1D01*
X2821Y1D01*
X2822Y1D01*
X2823Y1D01*
X2824Y1D01*
X2825Y1D01*
X2826Y1D01*
X2827Y1D01*
X2828Y1D01*
X2829Y1D01*
X2830Y1D01*
X2831Y1D01*
X2832Y1D01*
X2833Y1D01*
X2834Y1D01*
X2835Y1D01*
X2836Y1D01*
X2837Y1D01*
X2838Y1D01*
X2839Y1D01*
X2840Y1D01*
X2841Y1D01*
X2842Y1D01*
X2843Y1D01*
X2844Y1D01*
X2845Y1D01*
X2846Y1D01*
X2847Y1D01*
X2848Y1D01*
X2849Y1D01*
X2850Y1D01*
X2851Y1D01*
X2852Y1D01*
X2853Y1D01*
X2854Y1D01*
X2855Y1D01*
X2856Y1D01*
X2857Y1D01*
X2858Y1D01*
X2859Y1D01*
X2860Y1D01*
X2861Y1D01*
X2862Y1D01*
X2863Y1D01*
X2864Y1D01*
X2865Y1D01*
X2866Y1D01*
X2867Y1D01*
X2868Y1D01*
X2869Y1D01*
X2870Y1D01*
X2871Y1D01*
X2872Y1D01*
X2873Y1D01*
X2874Y1D01*
X2875Y1D01*
X2876Y1D01*
X2877Y1D01*
X2878Y1D01*
X2879Y1D01*
X2880Y1D01*
X2881Y1D01*
X2882Y1D01*
X2883Y1D01*
X2884Y1D01*
X2885Y1D01*
X2886Y1D01*
X2887Y1D01*
X2888Y1D01*
X2889Y1D01*
X2890Y1D01*
X2891Y1D01*
X2892Y1D01*
X2893Y1D01*
X2894Y1D01*
X2895Y1D01*
X2896Y1D01*
X2897Y1D01*
X2898Y1D01*
X2899Y1D01*
X2900Y1D01*
X2901Y1D01*
X2902Y1D01*
X2903Y1D01*
X2904Y1D01*
X2905Y1D01*
X2906Y1D01*
X2907Y1D01*
X2908Y1D01*
X2909Y1D01*
X2910Y1D01*
X2911Y1D01*
X2912Y1D01*
X2913Y1D01*
X2914Y1D01*
X2915Y1D01*
X2916Y1D01*
X2917Y1D01*
X2918Y1D01*
X2919Y1D01*
X2920Y1D01*
X2921Y1D01*
X2922Y1D01*
X2923Y1D01*
X2924Y1D01*
X2925Y1D01*
X2926Y1D01*
X2927Y1D01*
X2928Y1D01*
X2929Y1D01*
X2930Y1D01*
X2931Y1D01*
X2932Y1D01*
X2933Y1D01*
X2934Y1D01*
X2935Y1D01*
X2936Y1D01*
X2937Y1D01*
X2938Y1D01*
X2939Y1D01*
X2940Y1D01*
X2941Y1D01*
X2942Y1D01*
X2943Y1D01*
X2944Y1D01*
X2945Y1D01*
X2946Y1D01*
X2947Y1D01*
X2948Y1D01*
X2949Y1D01*
X2950Y1D01*
X2951Y1D01*
X2952Y1D01*
X2953Y1D01*
X2954Y1D01*
X2955Y1D01*
X2956Y1D01*
X2957Y1D01*
X2958Y1D01*
X2959Y1D01*
X2960Y1D01*
X2961Y1D01*
X2962Y1D01*
X2963Y1D01*
X2964Y1D01*
X2965Y1D01*
X2966Y1D01*
X2967Y1D01*
X2968Y1D01*
X2969Y1D01*
X2970Y1D01*
X2971Y1D01*
X2972Y1D01*
X2973Y1D01*
X2974Y1D01*
X2975Y1D01*
X2976Y1D01*
X2977Y1D01*
X2978Y1D01*
X2979Y1D01*
X2980Y1D01*
X2981Y1D01*
X2982Y1D01*
X2983Y1D01*
X2984Y1D01*
X2985Y1D01*
X2986Y1D01*
X2987Y1D01*
X2988Y1D01*
X2989Y1D01*
X2990Y1D01*
X2991Y1D01*
X2992Y1D01*
X2993Y1D01*
X2994Y1D01*
X2995Y1D01*
X2996Y1D01*
X2997Y1D01*
X2998Y1D01*
X2999Y1D01*
X3000Y1D01*
X3001Y1D01*
X3002Y1D01*
X3003Y1D01*
X3004Y1D01*
X3005Y1D01*
X3006Y1D01*
X3007Y1D01*
X3008Y1D01*
X3009Y1D01*
X3010Y1D01*
X3011Y1D01*
X3012Y1D01*
X3013Y1D01*
X3014Y1D01*
X3015Y1D01*
X3016Y1D01*
X3017Y1D01*
X3018Y1D01*
X3019Y1D01*
X3020Y1D01*
X3021Y1D01*
X3022Y1D01*
X3023Y1D01*
X3024Y1D01*
X3025Y1D01*
X3026Y1D01*
X3027Y1D01*
X3028Y1D01*
X3029Y1D01*
X3030Y1D01*
X3031Y1D01*
X3032Y1D01*
X3033Y1D01*
X3034Y1D01*
X3035Y1D01*
X3036Y1D01*
X3037Y1D01*
X3038Y1D01*
X3039Y1D01*
X3040Y1D01*
X3041Y1D01*
X3042Y1D01*
X3043Y1D01*
X3044Y1D01*
X3045Y1D01*
X3046Y1D01*
X3047Y1D01*
X3048Y1D01*
X3049Y1D01*
X3050Y1D01*
X3051Y1D01*
X3052Y1D01*
X3053Y1D01*
X3054Y1D01*
X3055Y1D01*
X3056Y1D01*
X3057Y1D01*
X3058Y1D01*
X3059Y1D01*
X3060Y1D01*
X3061Y1D01*
X3062Y1D01*
X3063Y1D01*
X3064Y1D01*
X3065Y1D01*
X3066Y1D01*
X3067Y1D01*
X3068Y1D01*
X3069Y1D01*
X3070Y1D01*
X3071Y1D01*
X3072Y1D01*
X3073Y1D01*
X3074Y1D01*
X3075Y1D01*
X3076Y1D01*
X3077Y1D01*
X3078Y1D01*
X3079Y1D01*
X3080Y1D01*
X3081Y1D01*
X3082Y1D01*
X3083Y1D01*
X3084Y1D01*
X3085Y1D01*
X3086Y1D01*
X3087Y1D01*
X3088Y1D01*
X3089Y1D01*
X3090Y1D01*
X3091Y1D01*
X3092Y1D01*
X3093Y1D01*
X3094Y1D01*
X3095Y1D01*
X3096Y1D01*
X3097Y1D01*
X3098Y1D01*
X3099Y1D01*
X3100Y1D01*
X3101Y1D01*
X3102Y1D01*
X3103Y1D01*
X3104Y1D01*
X3105Y1D01*
X3106Y1D01*
X3107Y1D01*
X3108Y1D01*
X3109Y1D01*
X3110Y1D01*
X3111Y1D01*
X3112Y1D01*
X3113Y1D01*
X3114Y1D01*
X3115Y1D01*
X3116Y1D01*
X3117Y1D01*
X3118Y1D01*
X3119Y1D01*
X3120Y1D01*
X3121Y1D01*
X3122Y1D01*
X3123Y1D01*
X3124Y1D01*
X3125Y1D01*
X3126Y1D01*
X3127Y1D01*
X3128Y1D01*
X3129Y1D01*
X3130Y1D01*
X3131Y1D01*
X3132Y1D01*
X3133Y1D01*
X3134Y1D01*
X3135Y1D01*
X3136Y1D01*
X3137Y1D01*
X3138Y1D01*
X3139Y1D01*
X3140Y1D01*
X3141Y1D01*
X3142Y1D01*
X3143Y1D01*
X3144Y1D01*
X3145Y1D01*
X3146Y1D01*
X3147Y1D01*
X3148Y1D01*
X3149Y1D01*
X3150Y1D01*
X3151Y1D01*
X3152Y1D01*
X3153Y1D01*
X3154Y1D01*
X3155Y1D01*
X3156Y1D01*
X3157Y1D01*
X3158Y1D01*
X3159Y1D01*
X3160Y1D01*
X3161Y1D01*
X3162Y1D01*
X3163Y1D01*
X3164Y1D01*
X3165Y1D01*
X3166Y1D01*
X3167Y1D01*
X3168Y1D01*
X3169Y1D01*
X3170Y1D01*
X3171Y1D01*
X3172Y1D01*
X3173Y1D01*
X3174Y1D01*
X3175Y1D01*
X3176Y1D01*
X3177Y1D01*
X3178Y1D01*
X3179Y1D01*
X3180Y1D01*
X3181Y1D01*
X3182Y1D01*
X3183Y1D01*
X3184Y1D01*
X3185Y1D01*
X3186Y1D01*
X3187Y1D01*
X3188Y1D01*
X3189Y1D01*
X3190Y1D01*
X3191Y1D01*
X3192Y1D01*
X3193Y1D01*
X3194Y1D01*
X3195Y1D01*
X3196Y1D01*
X3197Y1D01*
X3198Y1D01*
X3199Y1D01*
X3200Y1D01*
X3201Y1D01*
X3202Y1D01*
X3203Y1D01*
X3204Y1D01*
X3205Y1D01*
X3206Y1D01*
X3207Y1D01*
X3208Y1D01*
X3209Y1D01*
X3210Y1D01*
X3211Y1D01*
X3212Y1D01*
X3213Y1D01*
X3214Y1D01*
X3215Y1D01*
X3216Y1D01*
X3217Y1D01*
X3218Y1D01*
X3219Y1D01*
X3220Y1D01*
X3221Y1D01*
X3222Y1D01*
X3223Y1D01*
X3224Y1D01*
X3225Y1D01*
X3226Y1D01*
X3227Y1D01*
X3228Y1D01*
X3229Y1D01*
X3230Y1D01*
X3231Y1D01*
X3232Y1D01*
X3233Y1D01*
X3234Y1D01*
X3235Y1D01*
X3236Y1D01*
X3237Y1D01*
X3238Y1D01*
X3239Y1D01*
X3240Y1D01*
X3241Y1D01*
X3242Y1D01*
X3243Y1D01*
X3244Y1D01*
X3245Y1D01*
X3246Y1D01*
X3247Y1D01*
X3248Y1D01*
X3249Y1D01*
X3250Y1D01*
X3251Y1D01*
X3252Y1D01*
X3253Y1D01*
X3254Y1D01*
X3255Y1D01*
X3256Y1D01*
X3257Y1D01*
X3258Y1D01*
X3259Y1D01*
X3260Y1D01*
X3261Y1D01*
X3262Y1D01*
X3263Y1D01*
X3264Y1D01*
X3265Y1D01*
X3266Y1D01*
X3267Y1D01*
X3268Y1D01*
X3269Y1D01*
X3270Y1D01*
X3271Y1D01*
X3272Y1D01*
X3273Y1D01*
X3274Y1D01*
X3275Y1D01*
X3276Y1D01*
X3277Y1D01*
X3278Y1D01*
X3279Y1D01*
X3280Y1D01*
X3281Y1D01*
X3282Y1D01*
X3283Y1D01*
X3284Y1D01*
X3285Y1D01*
X3286Y1D01*
X3287Y1D01*
X3288Y1D01*
X3289Y1D01*
X3290Y1D01*
X3291Y1D01*
X3292Y1D01*
X3293Y1D01*
X3294Y1D01*
X3295Y1D01*
X3296Y1D01*
X3297Y1D01*
X3298Y1D01*
X3299Y1D01*
X3300Y1D01*
X3301Y1D01*
X3302Y1D01*
X3303Y1D01*
X3304Y1D01*
X3305Y1D01*
X3306Y1D01*
X3307Y1D01*
X3308Y1D01*
X3309Y1D01*
X3310Y1D01*
X3311Y1D01*
X3312Y1D01*
X3313Y1D01*
X3314Y1D01*
X3315Y1D01*
X3316Y1D01*
X3317Y1D01*
X3318Y1D01*
X3319Y1D01*
X3320Y1D01*
X3321Y1D01*
X3322Y1D01*
X3323Y1D01*
X3324Y1D01*
X3325Y1D01*
X3326Y1D01*
X3327Y1D01*
X3328Y1D01*
X3329Y1D01*
X3330Y1D01*
X3331Y1D01*
X3332Y1D01*
X3333Y1D01*
X3334Y1D01*
X3335Y1D01*
X3336Y1D01*
X3337Y1D01*
X3338Y1D01*
X3339Y1D01*
X3340Y1D01*
X3341Y1D01*
X3342Y1D01*
X3343Y1D01*
X3344Y1D01*
X3345Y1D01*
X3346Y1D01*
X3347Y1D01*
X3348Y1D01*
X3349Y1D01*
X3350Y1D01*
X3351Y1D01*
X3352Y1D01*
X3353Y1D01*
X3354Y1D01*
X3355Y1D01*
X3356Y1D01*
X3357Y1D01*
X3358Y1D01*
X3359Y1D01*
X3360Y1D01*
X3361Y1D01*
X3362Y1D01*
X3363Y1D01*
X3364Y1D01*
X3365Y1D01*
X3366Y1D01*
X3367Y1D01*
X3368Y1D01*
X3369Y1D01*
X3370Y1D01*
X3371Y1D01*
X3372Y1D01*
X3373Y1D01*
X3374Y1D01*
X3375Y1D01*
X3376Y1D01*
X3377Y1D01*
X3378Y1D01*
X3379Y1D01*
X3380Y1D01*
X3381Y1D01*
X3382Y1D01*
X3383Y1D01*
X3384Y1D01*
X3385Y1D01*
X3386Y1D01*
X3387Y1D01*
X3388Y1D01*
X3389Y1D01*
X3390Y1D01*
X3391Y1D01*
X3392Y1D01*
X3393Y1D01*
X3394Y1D01*
X3395Y1D01*
X3396Y1D01*
X3397Y1D01*
X3398Y1D01*
X3399Y1D01*
X3400Y1D01*
X3401Y1D01*
X3402Y1D01*
X3403Y1D01*
X3404Y1D01*
X3405Y1D01*
X3406Y1D01*
X3407Y1D01*
X3408Y1D01*
X3409Y1D01*
X3410Y1D01*
X3411Y1D01*
X3412Y1D01*
X3413Y1D01*
X3414Y1D01*
X3415Y1D01*
X3416Y1D01*
X3417Y1D01*
X3418Y1D01*
X3419Y1D01*
X3420Y1D01*
X3421Y1D01*
X3422Y1D01*
X3423Y1D01*
X3424Y1D01*
X3425Y1D01*
X3426Y1D01*
X3427Y1D01*
X3428Y1D01*
X3429Y1D01*
X3430Y1D01*
X3431Y1D01*
X3432Y1D01*
X3433Y1D01*
X3434Y1D01*
X3435Y1D01*
X3436Y1D01*
X3437Y1D01*
X3438Y1D01*
X3439Y1D01*
X3440Y1D01*
X3441Y1D01*
X3442Y1D01*
X3443Y1D01*
X3444Y1D01*
X3445Y1D01*
X3446Y1D01*
X3447Y1D01*
X3448Y1D01*
X3449Y1D01*
X3450Y1D01*
X3451Y1D01*
X3452Y1D01*
X3453Y1D01*
X3454Y1D01*
X3455Y1D01*
X3456Y1D01*
X3457Y1D01*
X3458Y1D01*
X3459Y1D01*
X3460Y1D01*
X3461Y1D01*
X3462Y1D01*
X3463Y1D01*
X3464Y1D01*
X3465Y1D01*
X3466Y1D01*
X3467Y1D01*
X3468Y1D01*
X3469Y1D01*
X3470Y1D01*
X3471Y1D01*
X3472Y1D01*
X3473Y1D01*
X3474Y1D01*
X3475Y1D01*
X3476Y1D01*
X3477Y1D01*
X3478Y1D01*
X3479Y1D01*
X3480Y1D01*
X3481Y1D01*
X3482Y1D01*
X3483Y1D01*
X3484Y1D01*
X3485Y1D01*
X3486Y1D01*
X3487Y1D01*
X3488Y1D01*
X3489Y1D01*
X3490Y1D01*
X3491Y1D01*
X3492Y1D01*
X3493Y1D01*
X3494Y1D01*
X3495Y1D01*
X3496Y1D01*
X3497Y1D01*
X3498Y1D01*
X3499Y1D01*
X3500Y1D01*
X3501Y1D01*
X3502Y1D01*
X3503Y1D01*
X3504Y1D01*
X3505Y1D01*
X3506Y1D01*
X3507Y1D01*
X3508Y1D01*
X3509Y1D01*
X3510Y1D01*
X3511Y1D01*
X3512Y1D01*
X3513Y1D01*
X3514Y1D01*
X3515Y1D01*
X3516Y1D01*
X3517Y1D01*
X3518Y1D01*
X3519Y1D01*
X3520Y1D01*
X3521Y1D01*
X3522Y1D01*
X3523Y1D01*
X3524Y1D01*
X3525Y1D01*
X3526Y1D01*
X3527Y1D01*
X3528Y1D01*
X3529Y1D01*
X3530Y1D01*
X3531Y1D01*
X3532Y1D01*
X3533Y1D01*
X3534Y1D01*
X3535Y1D01*
X3536Y1D01*
X3537Y1D01*
X3538Y1D01*
X3539Y1D01*
X3540Y1D01*
X3541Y1D01*
X3542Y1D01*
X3543Y1D01*
X3544Y1D01*
X3545Y1D01*
X3546Y1D01*
X3547Y1D01*
X3548Y1D01*
X3549Y1D01*
X3550Y1D01*
X3551Y1D01*
X3552Y1D01*
X3553Y1D01*
X3554Y1D01*
X3555Y1D01*
X3556Y1D01*
X3557Y1D01*
X3558Y1D01*
X3559Y1D01*
X3560Y1D01*
X3561Y1D01*
X3562Y1D01*
X3563Y1D01*
X3564Y1D01*
X3565Y1D01*
X3566Y1D01*
X3567Y1D01*
X3568Y1D01*
X3569Y1D01*
X3570Y1D01*
X3571Y1D01*
X3572Y1D01*
X3573Y1D01*
X3574Y1D01*
X3575Y1D01*
X3576Y1D01*
X3577Y1D01*
X3578Y1D01*
X3579Y1D01*
X3580Y1D01*
X3581Y1D01*
X3582Y1D01*
X3583Y1D01*
X3584Y1D01*
X3585Y1D01*
X3586Y1D01*
X3587Y1D01*
X3588Y1D01*
X3589Y1D01*
X3590Y1D01*
X3591Y1D01*
X3592Y1D01*
X3593Y1D01*
X3594Y1D01*
X3595Y1D01*
X3596Y1D01*
X3597Y1D01*
X3598Y1D01*
X3599Y1D01*
X3600Y1D01*
X3601Y1D01*
X3602Y1D01*
X3603Y1D01*
X3604Y1D01*
X3605Y1D01*
X3606Y1D01*
X3607Y1D01*
X3608Y1D01*
X3609Y1D01*
X3610Y1D01*
X3611Y1D01*
X3612Y1D01*
X3613Y1D01*
X3614Y1D01*
X3615Y1D01*
X3616Y1D01*
X3617Y1D01*
X3618Y1D01*
X3619Y1D01*
X3620Y1D01*
X3621Y1D01*
X3622Y1D01*
X3623Y1D01*
X3624Y1D01*
X3625Y1D01*
X3626Y1D01*
X3627Y1D01*
X3628Y1D01*
X3629Y1D01*
X3630Y1D01*
X3631Y1D01*
X3632Y1D01*
X3633Y1D01*
X3634Y1D01*
X3635Y1D01*
X3636Y1D01*
X3637Y1D01*
X3638Y1D01*
X3639Y1D01*
X3640Y1D01*
X3641Y1D01*
X3642Y1D01*
X3643Y1D01*
X3644Y1D01*
X3645Y1D01*
X3646Y1D01*
X3647Y1D01*
X3648Y1D01*
X3649Y1D01*
X3650Y1D01*
X3651Y1D01*
X3652Y1D01*
X3653Y1D01*
X3654Y1D01*
X3655Y1D01*
X3656Y1D01*
X3657Y1D01*
X3658Y1D01*
X3659Y1D01*
X3660Y1D01*
X3661Y1D01*
X3662Y1D01*
X3663Y1D01*
X3664Y1D01*
X3665Y1D01*
X3666Y1D01*
X3667Y1D01*
X3668Y1D01*
X3669Y1D01*
X3670Y1D01*
X3671Y1D01*
X3672Y1D01*
X3673Y1D01*
X3674Y1D01*
X3675Y1D01*
X3676Y1D01*
X3677Y1D01*
X3678Y1D01*
X3679Y1D01*
X3680Y1D01*
X3681Y1D01*
X3682Y1D01*
X3683Y1D01*
X3684Y1D01*
X3685Y1D01*
X3686Y1D01*
X3687Y1D01*
X3688Y1D01*
X3689Y1D01*
X3690Y1D01*
X3691Y1D01*
X3692Y1D01*
X3693Y1D01*
X3694Y1D01*
X3695Y1D01*
X3696Y1D01*
X3697Y1D01*
X3698Y1D01*
X3699Y1D01*
X3700Y1D01*
X3701Y1D01*
X3702Y1D01*
X3703Y1D01*
X3704Y1D01*
X3705Y1D01*
X3706Y1D01*
X3707Y1D01*
X3708Y1D01*
X3709Y1D01*
X3710Y1D01*
X3711Y1D01*
X3712Y1D01*
X3713Y1D01*
X3714Y1D01*
X3715Y1D01*
X3716Y1D01*
X3717Y1D01*
X3718Y1D01*
X3719Y1D01*
X3720Y1D01*
X3721Y1D01*
X3722Y1D01*
X3723Y1D01*
X3724Y1D01*
X3725Y1D01*
X3726Y1D01*
X3727Y1D01*
X3728Y1D01*
X3729Y1D01*
X3730Y1D01*
X3731Y1D01*
X3732Y1D01*
X3733Y1D01*
X3734Y1D01*
X3735Y1D01*
X3736Y1D01*
X3737Y1D01*
X3738Y1D01*
X3739Y1D01*
X3740Y1D01*
X3741Y1D01*
X3742Y1D01*
X3743Y1D01*
X3744Y1D01*
X3745Y1D01*
X3746Y1D01*
X3747Y1D01*
X3748Y1D01*
X3749Y1D01*
X3750Y1D01*
X3751Y1D01*
X3752Y1D01*
X3753Y1D01*
X3754Y1D01*
X3755Y1D01*
X3756Y1D01*
X3757Y1D01*
X3758Y1D01*
X3759Y1D01*
X3760Y1D01*
X3761Y1D01*
X3762Y1D01*
X3763Y1D01*
X3764Y1D01*
X3765Y1D01*
X3766Y1D01*
X3767Y1D01*
X3768Y1D01*
X3769Y1D01*
X3770Y1D01*
X3771Y1D01*
X3772Y1D01*
X3773Y1D01*
X3774Y1D01*
X3775Y1D01*
X3776Y1D01*
X3777Y1D01*
X3778Y1D01*
X3779Y1D01*
X3780Y1D01*
X3781Y1D01*
X3782Y1D01*
X3783Y1D01*
X3784Y1D01*
X3785Y1D01*
X3786Y1D01*
X3787Y1D01*
X3788Y1D01*
X3789Y1D01*
X3790Y1D01*
X3791Y1D01*
X3792Y1D01*
X3793Y1D01*
X3794Y1D01*
X3795Y1D01*
X3796Y1D01*
X3797Y1D01*
X3798Y1D01*
X3799Y1D01*
X3800Y1D01*
X3801Y1D01*
X3802Y1D01*
X3803Y1D01*
X3804Y1D01*
X3805Y1D01*
X3806Y1D01*
X3807Y1D01*
X3808Y1D01*
X3809Y1D01*
X3810Y1D01*
X3811Y1D01*
X3812Y1D01*
X3813Y1D01*
X3814Y1D01*
X3815Y1D01*
X3816Y1D01*
X3817Y1D01*
X3818Y1D01*
X3819Y1D01*
X3820Y1D01*
X3821Y1D01*
X3822Y1D01*
X3823Y1D01*
X3824Y1D01*
X3825Y1D01*
X3826Y1D01*
X3827Y1D01*
X3828Y1D01*
X3829Y1D01*
X3830Y1D01*
X3831Y1D01*
X3832Y1D01*
X3833Y1D01*
X3834Y1D01*
X3835Y1D01*
X3836Y1D01*
X3837Y1D01*
X3838Y1D01*
X3839Y1D01*
X3840Y1D01*
X3841Y1D01*
X3842Y1D01*
X3843Y1D01*
X3844Y1D01*
X3845Y1D01*
X3846Y1D01*
X3847Y1D01*
X3848Y1D01*
X3849Y1D01*
X3850Y1D01*
X3851Y1D01*
X3852Y1D01*
X3853Y1D01*
X3854Y1D01*
X3855Y1D01*
X3856Y1D01*
X3857Y1D01*
X3858Y1D01*
X3859Y1D01*
X3860Y1D01*
X3861Y1D01*
X3862Y1D01*
X3863Y1D01*
X3864Y1D01*
X3865Y1D01*
X3866Y1D01*
X3867Y1D01*
X3868Y1D01*
X3869Y1D01*
X3870Y1D01*
X3871Y1D01*
X3872Y1D01*
X3873Y1D01*
X3874Y1D01*
X3875Y1D01*
X3876Y1D01*
X3877Y1D01*
X3878Y1D01*
X3879Y1D01*
X3880Y1D01*
X3881Y1D01*
X3882Y1D01*
X3883Y1D01*
X3884Y1D01*
X3885Y1D01*
X3886Y1D01*
X3887Y1D01*
X3888Y1D01*
X3889Y1D01*
X3890Y1D01*
X3891Y1D01*
X3892Y1D01*
X3892Y1323D01*
X3891Y1323D01*
X3890Y1323D01*
X3889Y1323D01*
X3888Y1323D01*
X3887Y1323D01*
X3886Y1323D01*
X3885Y1323D01*
X3884Y1323D01*
X3883Y1323D01*
X3882Y1323D01*
X3881Y1323D01*
X3880Y1323D01*
X3879Y1323D01*
X3878Y1323D01*
X3877Y1323D01*
X3876Y1323D01*
X3875Y1323D01*
X3874Y1323D01*
X3873Y1323D01*
X3872Y1323D01*
X3871Y1323D01*
X3870Y1323D01*
X3869Y1323D01*
X3868Y1323D01*
X3867Y1323D01*
X3866Y1323D01*
X3865Y1323D01*
X3864Y1323D01*
X3863Y1323D01*
X3862Y1323D01*
X3861Y1323D01*
X3860Y1323D01*
X3859Y1323D01*
X3858Y1323D01*
X3857Y1323D01*
X3856Y1323D01*
X3855Y1323D01*
X3854Y1323D01*
X3853Y1323D01*
X3852Y1323D01*
X3851Y1323D01*
X3850Y1323D01*
X3849Y1323D01*
X3848Y1323D01*
X3847Y1323D01*
X3846Y1323D01*
X3845Y1323D01*
X3844Y1323D01*
X3843Y1323D01*
X3842Y1323D01*
X3841Y1323D01*
X3840Y1323D01*
X3839Y1323D01*
X3838Y1323D01*
X3837Y1323D01*
X3836Y1323D01*
X3835Y1323D01*
X3834Y1323D01*
X3833Y1323D01*
X3832Y1323D01*
X3831Y1323D01*
X3830Y1323D01*
X3829Y1323D01*
X3828Y1323D01*
X3827Y1323D01*
X3826Y1323D01*
X3825Y1323D01*
X3824Y1323D01*
X3823Y1323D01*
X3822Y1323D01*
X3821Y1323D01*
X3820Y1323D01*
X3819Y1323D01*
X3818Y1323D01*
X3817Y1323D01*
X3816Y1323D01*
X3815Y1323D01*
X3814Y1323D01*
X3813Y1323D01*
X3812Y1323D01*
X3811Y1323D01*
X3810Y1323D01*
X3809Y1323D01*
X3808Y1323D01*
X3807Y1323D01*
X3806Y1323D01*
X3805Y1323D01*
X3804Y1323D01*
X3803Y1323D01*
X3802Y1323D01*
X3801Y1323D01*
X3800Y1323D01*
X3799Y1323D01*
X3798Y1323D01*
X3797Y1323D01*
X3796Y1323D01*
X3795Y1323D01*
X3794Y1323D01*
X3793Y1323D01*
X3792Y1323D01*
X3791Y1323D01*
X3790Y1323D01*
X3789Y1323D01*
X3788Y1323D01*
X3787Y1323D01*
X3786Y1323D01*
X3785Y1323D01*
X3784Y1323D01*
X3783Y1323D01*
X3782Y1323D01*
X3781Y1323D01*
X3780Y1323D01*
X3779Y1323D01*
X3778Y1323D01*
X3777Y1323D01*
X3776Y1323D01*
X3775Y1323D01*
X3774Y1323D01*
X3773Y1323D01*
X3772Y1323D01*
X3771Y1323D01*
X3770Y1323D01*
X3769Y1323D01*
X3768Y1323D01*
X3767Y1323D01*
X3766Y1323D01*
X3765Y1323D01*
X3764Y1323D01*
X3763Y1323D01*
X3762Y1323D01*
X3761Y1323D01*
X3760Y1323D01*
X3759Y1323D01*
X3758Y1323D01*
X3757Y1323D01*
X3756Y1323D01*
X3755Y1323D01*
X3754Y1323D01*
X3753Y1323D01*
X3752Y1323D01*
X3751Y1323D01*
X3750Y1323D01*
X3749Y1323D01*
X3748Y1323D01*
X3747Y1323D01*
X3746Y1323D01*
X3745Y1323D01*
X3744Y1323D01*
X3743Y1323D01*
X3742Y1323D01*
X3741Y1323D01*
X3740Y1323D01*
X3739Y1323D01*
X3738Y1323D01*
X3737Y1323D01*
X3736Y1323D01*
X3735Y1323D01*
X3734Y1323D01*
X3733Y1323D01*
X3732Y1323D01*
X3731Y1323D01*
X3730Y1323D01*
X3729Y1323D01*
X3728Y1323D01*
X3727Y1323D01*
X3726Y1323D01*
X3725Y1323D01*
X3724Y1323D01*
X3723Y1323D01*
X3722Y1323D01*
X3721Y1323D01*
X3720Y1323D01*
X3719Y1323D01*
X3718Y1323D01*
X3717Y1323D01*
X3716Y1323D01*
X3715Y1323D01*
X3714Y1323D01*
X3713Y1323D01*
X3712Y1323D01*
X3711Y1323D01*
X3710Y1323D01*
X3709Y1323D01*
X3708Y1323D01*
X3707Y1323D01*
X3706Y1323D01*
X3705Y1323D01*
X3704Y1323D01*
X3703Y1323D01*
X3702Y1323D01*
X3701Y1323D01*
X3700Y1323D01*
X3699Y1323D01*
X3698Y1323D01*
X3697Y1323D01*
X3696Y1323D01*
X3695Y1323D01*
X3694Y1323D01*
X3693Y1323D01*
X3692Y1323D01*
X3691Y1323D01*
X3690Y1323D01*
X3689Y1323D01*
X3688Y1323D01*
X3687Y1323D01*
X3686Y1323D01*
X3685Y1323D01*
X3684Y1323D01*
X3683Y1323D01*
X3682Y1323D01*
X3681Y1323D01*
X3680Y1323D01*
X3679Y1323D01*
X3678Y1323D01*
X3677Y1323D01*
X3676Y1323D01*
X3675Y1323D01*
X3674Y1323D01*
X3673Y1323D01*
X3672Y1323D01*
X3671Y1323D01*
X3670Y1323D01*
X3669Y1323D01*
X3668Y1323D01*
X3667Y1323D01*
X3666Y1323D01*
X3665Y1323D01*
X3664Y1323D01*
X3663Y1323D01*
X3662Y1323D01*
X3661Y1323D01*
X3660Y1323D01*
X3659Y1323D01*
X3658Y1323D01*
X3657Y1323D01*
X3656Y1323D01*
X3655Y1323D01*
X3654Y1323D01*
X3653Y1323D01*
X3652Y1323D01*
X3651Y1323D01*
X3650Y1323D01*
X3649Y1323D01*
X3648Y1323D01*
X3647Y1323D01*
X3646Y1323D01*
X3645Y1323D01*
X3644Y1323D01*
X3643Y1323D01*
X3642Y1323D01*
X3641Y1323D01*
X3640Y1323D01*
X3639Y1323D01*
X3638Y1323D01*
X3637Y1323D01*
X3636Y1323D01*
X3635Y1323D01*
X3634Y1323D01*
X3633Y1323D01*
X3632Y1323D01*
X3631Y1323D01*
X3630Y1323D01*
X3629Y1323D01*
X3628Y1323D01*
X3627Y1323D01*
X3626Y1323D01*
X3625Y1323D01*
X3624Y1323D01*
X3623Y1323D01*
X3622Y1323D01*
X3621Y1323D01*
X3620Y1323D01*
X3619Y1323D01*
X3618Y1323D01*
X3617Y1323D01*
X3616Y1323D01*
X3615Y1323D01*
X3614Y1323D01*
X3613Y1323D01*
X3612Y1323D01*
X3611Y1323D01*
X3610Y1323D01*
X3609Y1323D01*
X3608Y1323D01*
X3607Y1323D01*
X3606Y1323D01*
X3605Y1323D01*
X3604Y1323D01*
X3603Y1323D01*
X3602Y1323D01*
X3601Y1323D01*
X3600Y1323D01*
X3599Y1323D01*
X3598Y1323D01*
X3597Y1323D01*
X3596Y1323D01*
X3595Y1323D01*
X3594Y1323D01*
X3593Y1323D01*
X3592Y1323D01*
X3591Y1323D01*
X3590Y1323D01*
X3589Y1323D01*
X3588Y1323D01*
X3587Y1323D01*
X3586Y1323D01*
X3585Y1323D01*
X3584Y1323D01*
X3583Y1323D01*
X3582Y1323D01*
X3581Y1323D01*
X3580Y1323D01*
X3579Y1323D01*
X3578Y1323D01*
X3577Y1323D01*
X3576Y1323D01*
X3575Y1323D01*
X3574Y1323D01*
X3573Y1323D01*
X3572Y1323D01*
X3571Y1323D01*
X3570Y1323D01*
X3569Y1323D01*
X3568Y1323D01*
X3567Y1323D01*
X3566Y1323D01*
X3565Y1323D01*
X3564Y1323D01*
X3563Y1323D01*
X3562Y1323D01*
X3561Y1323D01*
X3560Y1323D01*
X3559Y1323D01*
X3558Y1323D01*
X3557Y1323D01*
X3556Y1323D01*
X3555Y1323D01*
X3554Y1323D01*
X3553Y1323D01*
X3552Y1323D01*
X3551Y1323D01*
X3550Y1323D01*
X3549Y1323D01*
X3548Y1323D01*
X3547Y1323D01*
X3546Y1323D01*
X3545Y1323D01*
X3544Y1323D01*
X3543Y1323D01*
X3542Y1323D01*
X3541Y1323D01*
X3540Y1323D01*
X3539Y1323D01*
X3538Y1323D01*
X3537Y1323D01*
X3536Y1323D01*
X3535Y1323D01*
X3534Y1323D01*
X3533Y1323D01*
X3532Y1323D01*
X3531Y1323D01*
X3530Y1323D01*
X3529Y1323D01*
X3528Y1323D01*
X3527Y1323D01*
X3526Y1323D01*
X3525Y1323D01*
X3524Y1323D01*
X3523Y1323D01*
X3522Y1323D01*
X3521Y1323D01*
X3520Y1323D01*
X3519Y1323D01*
X3518Y1323D01*
X3517Y1323D01*
X3516Y1323D01*
X3515Y1323D01*
X3514Y1323D01*
X3513Y1323D01*
X3512Y1323D01*
X3511Y1323D01*
X3510Y1323D01*
X3509Y1323D01*
X3508Y1323D01*
X3507Y1323D01*
X3506Y1323D01*
X3505Y1323D01*
X3504Y1323D01*
X3503Y1323D01*
X3502Y1323D01*
X3501Y1323D01*
X3500Y1323D01*
X3499Y1323D01*
X3498Y1323D01*
X3497Y1323D01*
X3496Y1323D01*
X3495Y1323D01*
X3494Y1323D01*
X3493Y1323D01*
X3492Y1323D01*
X3491Y1323D01*
X3490Y1323D01*
X3489Y1323D01*
X3488Y1323D01*
X3487Y1323D01*
X3486Y1323D01*
X3485Y1323D01*
X3484Y1323D01*
X3483Y1323D01*
X3482Y1323D01*
X3481Y1323D01*
X3480Y1323D01*
X3479Y1323D01*
X3478Y1323D01*
X3477Y1323D01*
X3476Y1323D01*
X3475Y1323D01*
X3474Y1323D01*
X3473Y1323D01*
X3472Y1323D01*
X3471Y1323D01*
X3470Y1323D01*
X3469Y1323D01*
X3468Y1323D01*
X3467Y1323D01*
X3466Y1323D01*
X3465Y1323D01*
X3464Y1323D01*
X3463Y1323D01*
X3462Y1323D01*
X3461Y1323D01*
X3460Y1323D01*
X3459Y1323D01*
X3458Y1323D01*
X3457Y1323D01*
X3456Y1323D01*
X3455Y1323D01*
X3454Y1323D01*
X3453Y1323D01*
X3452Y1323D01*
X3451Y1323D01*
X3450Y1323D01*
X3449Y1323D01*
X3448Y1323D01*
X3447Y1323D01*
X3446Y1323D01*
X3445Y1323D01*
X3444Y1323D01*
X3443Y1323D01*
X3442Y1323D01*
X3441Y1323D01*
X3440Y1323D01*
X3439Y1323D01*
X3438Y1323D01*
X3437Y1323D01*
X3436Y1323D01*
X3435Y1323D01*
X3434Y1323D01*
X3433Y1323D01*
X3432Y1323D01*
X3431Y1323D01*
X3430Y1323D01*
X3429Y1323D01*
X3428Y1323D01*
X3427Y1323D01*
X3426Y1323D01*
X3425Y1323D01*
X3424Y1323D01*
X3423Y1323D01*
X3422Y1323D01*
X3421Y1323D01*
X3420Y1323D01*
X3419Y1323D01*
X3418Y1323D01*
X3417Y1323D01*
X3416Y1323D01*
X3415Y1323D01*
X3414Y1323D01*
X3413Y1323D01*
X3412Y1323D01*
X3411Y1323D01*
X3410Y1323D01*
X3409Y1323D01*
X3408Y1323D01*
X3407Y1323D01*
X3406Y1323D01*
X3405Y1323D01*
X3404Y1323D01*
X3403Y1323D01*
X3402Y1323D01*
X3401Y1323D01*
X3400Y1323D01*
X3399Y1323D01*
X3398Y1323D01*
X3397Y1323D01*
X3396Y1323D01*
X3395Y1323D01*
X3394Y1323D01*
X3393Y1323D01*
X3392Y1323D01*
X3391Y1323D01*
X3390Y1323D01*
X3389Y1323D01*
X3388Y1323D01*
X3387Y1323D01*
X3386Y1323D01*
X3385Y1323D01*
X3384Y1323D01*
X3383Y1323D01*
X3382Y1323D01*
X3381Y1323D01*
X3380Y1323D01*
X3379Y1323D01*
X3378Y1323D01*
X3377Y1323D01*
X3376Y1323D01*
X3375Y1323D01*
X3374Y1323D01*
X3373Y1323D01*
X3372Y1323D01*
X3371Y1323D01*
X3370Y1323D01*
X3369Y1323D01*
X3368Y1323D01*
X3367Y1323D01*
X3366Y1323D01*
X3365Y1323D01*
X3364Y1323D01*
X3363Y1323D01*
X3362Y1323D01*
X3361Y1323D01*
X3360Y1323D01*
X3359Y1323D01*
X3358Y1323D01*
X3357Y1323D01*
X3356Y1323D01*
X3355Y1323D01*
X3354Y1323D01*
X3353Y1323D01*
X3352Y1323D01*
X3351Y1323D01*
X3350Y1323D01*
X3349Y1323D01*
X3348Y1323D01*
X3347Y1323D01*
X3346Y1323D01*
X3345Y1323D01*
X3344Y1323D01*
X3343Y1323D01*
X3342Y1323D01*
X3341Y1323D01*
X3340Y1323D01*
X3339Y1323D01*
X3338Y1323D01*
X3337Y1323D01*
X3336Y1323D01*
X3335Y1323D01*
X3334Y1323D01*
X3333Y1323D01*
X3332Y1323D01*
X3331Y1323D01*
X3330Y1323D01*
X3329Y1323D01*
X3328Y1323D01*
X3327Y1323D01*
X3326Y1323D01*
X3325Y1323D01*
X3324Y1323D01*
X3323Y1323D01*
X3322Y1323D01*
X3321Y1323D01*
X3320Y1323D01*
X3319Y1323D01*
X3318Y1323D01*
X3317Y1323D01*
X3316Y1323D01*
X3315Y1323D01*
X3314Y1323D01*
X3313Y1323D01*
X3312Y1323D01*
X3311Y1323D01*
X3310Y1323D01*
X3309Y1323D01*
X3308Y1323D01*
X3307Y1323D01*
X3306Y1323D01*
X3305Y1323D01*
X3304Y1323D01*
X3303Y1323D01*
X3302Y1323D01*
X3301Y1323D01*
X3300Y1323D01*
X3299Y1323D01*
X3298Y1323D01*
X3297Y1323D01*
X3296Y1323D01*
X3295Y1323D01*
X3294Y1323D01*
X3293Y1323D01*
X3292Y1323D01*
X3291Y1323D01*
X3290Y1323D01*
X3289Y1323D01*
X3288Y1323D01*
X3287Y1323D01*
X3286Y1323D01*
X3285Y1323D01*
X3284Y1323D01*
X3283Y1323D01*
X3282Y1323D01*
X3281Y1323D01*
X3280Y1323D01*
X3279Y1323D01*
X3278Y1323D01*
X3277Y1323D01*
X3276Y1323D01*
X3275Y1323D01*
X3274Y1323D01*
X3273Y1323D01*
X3272Y1323D01*
X3271Y1323D01*
X3270Y1323D01*
X3269Y1323D01*
X3268Y1323D01*
X3267Y1323D01*
X3266Y1323D01*
X3265Y1323D01*
X3264Y1323D01*
X3263Y1323D01*
X3262Y1323D01*
X3261Y1323D01*
X3260Y1323D01*
X3259Y1323D01*
X3258Y1323D01*
X3257Y1323D01*
X3256Y1323D01*
X3255Y1323D01*
X3254Y1323D01*
X3253Y1323D01*
X3252Y1323D01*
X3251Y1323D01*
X3250Y1323D01*
X3249Y1323D01*
X3248Y1323D01*
X3247Y1323D01*
X3246Y1323D01*
X3245Y1323D01*
X3244Y1323D01*
X3243Y1323D01*
X3242Y1323D01*
X3241Y1323D01*
X3240Y1323D01*
X3239Y1323D01*
X3238Y1323D01*
X3237Y1323D01*
X3236Y1323D01*
X3235Y1323D01*
X3234Y1323D01*
X3233Y1323D01*
X3232Y1323D01*
X3231Y1323D01*
X3230Y1323D01*
X3229Y1323D01*
X3228Y1323D01*
X3227Y1323D01*
X3226Y1323D01*
X3225Y1323D01*
X3224Y1323D01*
X3223Y1323D01*
X3222Y1323D01*
X3221Y1323D01*
X3220Y1323D01*
X3219Y1323D01*
X3218Y1323D01*
X3217Y1323D01*
X3216Y1323D01*
X3215Y1323D01*
X3214Y1323D01*
X3213Y1323D01*
X3212Y1323D01*
X3211Y1323D01*
X3210Y1323D01*
X3209Y1323D01*
X3208Y1323D01*
X3207Y1323D01*
X3206Y1323D01*
X3205Y1323D01*
X3204Y1323D01*
X3203Y1323D01*
X3202Y1323D01*
X3201Y1323D01*
X3200Y1323D01*
X3199Y1323D01*
X3198Y1323D01*
X3197Y1323D01*
X3196Y1323D01*
X3195Y1323D01*
X3194Y1323D01*
X3193Y1323D01*
X3192Y1323D01*
X3191Y1323D01*
X3190Y1323D01*
X3189Y1323D01*
X3188Y1323D01*
X3187Y1323D01*
X3186Y1323D01*
X3185Y1323D01*
X3184Y1323D01*
X3183Y1323D01*
X3182Y1323D01*
X3181Y1323D01*
X3180Y1323D01*
X3179Y1323D01*
X3178Y1323D01*
X3177Y1323D01*
X3176Y1323D01*
X3175Y1323D01*
X3174Y1323D01*
X3173Y1323D01*
X3172Y1323D01*
X3171Y1323D01*
X3170Y1323D01*
X3169Y1323D01*
X3168Y1323D01*
X3167Y1323D01*
X3166Y1323D01*
X3165Y1323D01*
X3164Y1323D01*
X3163Y1323D01*
X3162Y1323D01*
X3161Y1323D01*
X3160Y1323D01*
X3159Y1323D01*
X3158Y1323D01*
X3157Y1323D01*
X3156Y1323D01*
X3155Y1323D01*
X3154Y1323D01*
X3153Y1323D01*
X3152Y1323D01*
X3151Y1323D01*
X3150Y1323D01*
X3149Y1323D01*
X3148Y1323D01*
X3147Y1323D01*
X3146Y1323D01*
X3145Y1323D01*
X3144Y1323D01*
X3143Y1323D01*
X3142Y1323D01*
X3141Y1323D01*
X3140Y1323D01*
X3139Y1323D01*
X3138Y1323D01*
X3137Y1323D01*
X3136Y1323D01*
X3135Y1323D01*
X3134Y1323D01*
X3133Y1323D01*
X3132Y1323D01*
X3131Y1323D01*
X3130Y1323D01*
X3129Y1323D01*
X3128Y1323D01*
X3127Y1323D01*
X3126Y1323D01*
X3125Y1323D01*
X3124Y1323D01*
X3123Y1323D01*
X3122Y1323D01*
X3121Y1323D01*
X3120Y1323D01*
X3119Y1323D01*
X3118Y1323D01*
X3117Y1323D01*
X3116Y1323D01*
X3115Y1323D01*
X3114Y1323D01*
X3113Y1323D01*
X3112Y1323D01*
X3111Y1323D01*
X3110Y1323D01*
X3109Y1323D01*
X3108Y1323D01*
X3107Y1323D01*
X3106Y1323D01*
X3105Y1323D01*
X3104Y1323D01*
X3103Y1323D01*
X3102Y1323D01*
X3101Y1323D01*
X3100Y1323D01*
X3099Y1323D01*
X3098Y1323D01*
X3097Y1323D01*
X3096Y1323D01*
X3095Y1323D01*
X3094Y1323D01*
X3093Y1323D01*
X3092Y1323D01*
X3091Y1323D01*
X3090Y1323D01*
X3089Y1323D01*
X3088Y1323D01*
X3087Y1323D01*
X3086Y1323D01*
X3085Y1323D01*
X3084Y1323D01*
X3083Y1323D01*
X3082Y1323D01*
X3081Y1323D01*
X3080Y1323D01*
X3079Y1323D01*
X3078Y1323D01*
X3077Y1323D01*
X3076Y1323D01*
X3075Y1323D01*
X3074Y1323D01*
X3073Y1323D01*
X3072Y1323D01*
X3071Y1323D01*
X3070Y1323D01*
X3069Y1323D01*
X3068Y1323D01*
X3067Y1323D01*
X3066Y1323D01*
X3065Y1323D01*
X3064Y1323D01*
X3063Y1323D01*
X3062Y1323D01*
X3061Y1323D01*
X3060Y1323D01*
X3059Y1323D01*
X3058Y1323D01*
X3057Y1323D01*
X3056Y1323D01*
X3055Y1323D01*
X3054Y1323D01*
X3053Y1323D01*
X3052Y1323D01*
X3051Y1323D01*
X3050Y1323D01*
X3049Y1323D01*
X3048Y1323D01*
X3047Y1323D01*
X3046Y1323D01*
X3045Y1323D01*
X3044Y1323D01*
X3043Y1323D01*
X3042Y1323D01*
X3041Y1323D01*
X3040Y1323D01*
X3039Y1323D01*
X3038Y1323D01*
X3037Y1323D01*
X3036Y1323D01*
X3035Y1323D01*
X3034Y1323D01*
X3033Y1323D01*
X3032Y1323D01*
X3031Y1323D01*
X3030Y1323D01*
X3029Y1323D01*
X3028Y1323D01*
X3027Y1323D01*
X3026Y1323D01*
X3025Y1323D01*
X3024Y1323D01*
X3023Y1323D01*
X3022Y1323D01*
X3021Y1323D01*
X3020Y1323D01*
X3019Y1323D01*
X3018Y1323D01*
X3017Y1323D01*
X3016Y1323D01*
X3015Y1323D01*
X3014Y1323D01*
X3013Y1323D01*
X3012Y1323D01*
X3011Y1323D01*
X3010Y1323D01*
X3009Y1323D01*
X3008Y1323D01*
X3007Y1323D01*
X3006Y1323D01*
X3005Y1323D01*
X3004Y1323D01*
X3003Y1323D01*
X3002Y1323D01*
X3001Y1323D01*
X3000Y1323D01*
X2999Y1323D01*
X2998Y1323D01*
X2997Y1323D01*
X2996Y1323D01*
X2995Y1323D01*
X2994Y1323D01*
X2993Y1323D01*
X2992Y1323D01*
X2991Y1323D01*
X2990Y1323D01*
X2989Y1323D01*
X2988Y1323D01*
X2987Y1323D01*
X2986Y1323D01*
X2985Y1323D01*
X2984Y1323D01*
X2983Y1323D01*
X2982Y1323D01*
X2981Y1323D01*
X2980Y1323D01*
X2979Y1323D01*
X2978Y1323D01*
X2977Y1323D01*
X2976Y1323D01*
X2975Y1323D01*
X2974Y1323D01*
X2973Y1323D01*
X2972Y1323D01*
X2971Y1323D01*
X2970Y1323D01*
X2969Y1323D01*
X2968Y1323D01*
X2967Y1323D01*
X2966Y1323D01*
X2965Y1323D01*
X2964Y1323D01*
X2963Y1323D01*
X2962Y1323D01*
X2961Y1323D01*
X2960Y1323D01*
X2959Y1323D01*
X2958Y1323D01*
X2957Y1323D01*
X2956Y1323D01*
X2955Y1323D01*
X2954Y1323D01*
X2953Y1323D01*
X2952Y1323D01*
X2951Y1323D01*
X2950Y1323D01*
X2949Y1323D01*
X2948Y1323D01*
X2947Y1323D01*
X2946Y1323D01*
X2945Y1323D01*
X2944Y1323D01*
X2943Y1323D01*
X2942Y1323D01*
X2941Y1323D01*
X2940Y1323D01*
X2939Y1323D01*
X2938Y1323D01*
X2937Y1323D01*
X2936Y1323D01*
X2935Y1323D01*
X2934Y1323D01*
X2933Y1323D01*
X2932Y1323D01*
X2931Y1323D01*
X2930Y1323D01*
X2929Y1323D01*
X2928Y1323D01*
X2927Y1323D01*
X2926Y1323D01*
X2925Y1323D01*
X2924Y1323D01*
X2923Y1323D01*
X2922Y1323D01*
X2921Y1323D01*
X2920Y1323D01*
X2919Y1323D01*
X2918Y1323D01*
X2917Y1323D01*
X2916Y1323D01*
X2915Y1323D01*
X2914Y1323D01*
X2913Y1323D01*
X2912Y1323D01*
X2911Y1323D01*
X2910Y1323D01*
X2909Y1323D01*
X2908Y1323D01*
X2907Y1323D01*
X2906Y1323D01*
X2905Y1323D01*
X2904Y1323D01*
X2903Y1323D01*
X2902Y1323D01*
X2901Y1323D01*
X2900Y1323D01*
X2899Y1323D01*
X2898Y1323D01*
X2897Y1323D01*
X2896Y1323D01*
X2895Y1323D01*
X2894Y1323D01*
X2893Y1323D01*
X2892Y1323D01*
X2891Y1323D01*
X2890Y1323D01*
X2889Y1323D01*
X2888Y1323D01*
X2887Y1323D01*
X2886Y1323D01*
X2885Y1323D01*
X2884Y1323D01*
X2883Y1323D01*
X2882Y1323D01*
X2881Y1323D01*
X2880Y1323D01*
X2879Y1323D01*
X2878Y1323D01*
X2877Y1323D01*
X2876Y1323D01*
X2875Y1323D01*
X2874Y1323D01*
X2873Y1323D01*
X2872Y1323D01*
X2871Y1323D01*
X2870Y1323D01*
X2869Y1323D01*
X2868Y1323D01*
X2867Y1323D01*
X2866Y1323D01*
X2865Y1323D01*
X2864Y1323D01*
X2863Y1323D01*
X2862Y1323D01*
X2861Y1323D01*
X2860Y1323D01*
X2859Y1323D01*
X2858Y1323D01*
X2857Y1323D01*
X2856Y1323D01*
X2855Y1323D01*
X2854Y1323D01*
X2853Y1323D01*
X2852Y1323D01*
X2851Y1323D01*
X2850Y1323D01*
X2849Y1323D01*
X2848Y1323D01*
X2847Y1323D01*
X2846Y1323D01*
X2845Y1323D01*
X2844Y1323D01*
X2843Y1323D01*
X2842Y1323D01*
X2841Y1323D01*
X2840Y1323D01*
X2839Y1323D01*
X2838Y1323D01*
X2837Y1323D01*
X2836Y1323D01*
X2835Y1323D01*
X2834Y1323D01*
X2833Y1323D01*
X2832Y1323D01*
X2831Y1323D01*
X2830Y1323D01*
X2829Y1323D01*
X2828Y1323D01*
X2827Y1323D01*
X2826Y1323D01*
X2825Y1323D01*
X2824Y1323D01*
X2823Y1323D01*
X2822Y1323D01*
X2821Y1323D01*
X2820Y1323D01*
X2819Y1323D01*
X2818Y1323D01*
X2817Y1323D01*
X2816Y1323D01*
X2815Y1323D01*
X2814Y1323D01*
X2813Y1323D01*
X2812Y1323D01*
X2811Y1323D01*
X2810Y1323D01*
X2809Y1323D01*
X2808Y1323D01*
X2807Y1323D01*
X2806Y1323D01*
X2805Y1323D01*
X2804Y1323D01*
X2803Y1323D01*
X2802Y1323D01*
X2801Y1323D01*
X2800Y1323D01*
X2799Y1323D01*
X2798Y1323D01*
X2797Y1323D01*
X2796Y1323D01*
X2795Y1323D01*
X2794Y1323D01*
X2793Y1323D01*
X2792Y1323D01*
X2791Y1323D01*
X2790Y1323D01*
X2789Y1323D01*
X2788Y1323D01*
X2787Y1323D01*
X2786Y1323D01*
X2785Y1323D01*
X2784Y1323D01*
X2783Y1323D01*
X2782Y1323D01*
X2781Y1323D01*
X2780Y1323D01*
X2779Y1323D01*
X2778Y1323D01*
X2777Y1323D01*
X2776Y1323D01*
X2775Y1323D01*
X2774Y1323D01*
X2773Y1323D01*
X2772Y1323D01*
X2771Y1323D01*
X2770Y1323D01*
X2769Y1323D01*
X2768Y1323D01*
X2767Y1323D01*
X2766Y1323D01*
X2765Y1323D01*
X2764Y1323D01*
X2763Y1323D01*
X2762Y1323D01*
X2761Y1323D01*
X2760Y1323D01*
X2759Y1323D01*
X2758Y1323D01*
X2757Y1323D01*
X2756Y1323D01*
X2755Y1323D01*
X2754Y1323D01*
X2753Y1323D01*
X2752Y1323D01*
X2751Y1323D01*
X2750Y1323D01*
X2749Y1323D01*
X2748Y1323D01*
X2747Y1323D01*
X2746Y1323D01*
X2745Y1323D01*
X2744Y1323D01*
X2743Y1323D01*
X2742Y1323D01*
X2741Y1323D01*
X2740Y1323D01*
X2739Y1323D01*
X2738Y1323D01*
X2737Y1323D01*
X2736Y1323D01*
X2735Y1323D01*
X2734Y1323D01*
X2733Y1323D01*
X2732Y1323D01*
X2731Y1323D01*
X2730Y1323D01*
X2729Y1323D01*
X2728Y1323D01*
X2727Y1323D01*
X2726Y1323D01*
X2725Y1323D01*
X2724Y1323D01*
X2723Y1323D01*
X2722Y1323D01*
X2721Y1323D01*
X2720Y1323D01*
X2719Y1323D01*
X2718Y1323D01*
X2717Y1323D01*
X2716Y1323D01*
X2715Y1323D01*
X2714Y1323D01*
X2713Y1323D01*
X2712Y1323D01*
X2711Y1323D01*
X2710Y1323D01*
X2709Y1323D01*
X2708Y1323D01*
X2707Y1323D01*
X2706Y1323D01*
X2705Y1323D01*
X2704Y1323D01*
X2703Y1323D01*
X2702Y1323D01*
X2701Y1323D01*
X2700Y1323D01*
X2699Y1323D01*
X2698Y1323D01*
X2697Y1323D01*
X2696Y1323D01*
X2695Y1323D01*
X2694Y1323D01*
X2693Y1323D01*
X2692Y1323D01*
X2691Y1323D01*
X2690Y1323D01*
X2689Y1323D01*
X2688Y1323D01*
X2687Y1323D01*
X2686Y1323D01*
X2685Y1323D01*
X2684Y1323D01*
X2683Y1323D01*
X2682Y1323D01*
X2681Y1323D01*
X2680Y1323D01*
X2679Y1323D01*
X2678Y1323D01*
X2677Y1323D01*
X2676Y1323D01*
X2675Y1323D01*
X2674Y1323D01*
X2673Y1323D01*
X2672Y1323D01*
X2671Y1323D01*
X2670Y1323D01*
X2669Y1323D01*
X2668Y1323D01*
X2667Y1323D01*
X2666Y1323D01*
X2665Y1323D01*
X2664Y1323D01*
X2663Y1323D01*
X2662Y1323D01*
X2661Y1323D01*
X2660Y1323D01*
X2659Y1323D01*
X2658Y1323D01*
X2657Y1323D01*
X2656Y1323D01*
X2655Y1323D01*
X2654Y1323D01*
X2653Y1323D01*
X2652Y1323D01*
X2651Y1323D01*
X2650Y1323D01*
X2649Y1323D01*
X2648Y1323D01*
X2647Y1323D01*
X2646Y1323D01*
X2645Y1323D01*
X2644Y1323D01*
X2643Y1323D01*
X2642Y1323D01*
X2641Y1323D01*
X2640Y1323D01*
X2639Y1323D01*
X2638Y1323D01*
X2637Y1323D01*
X2636Y1323D01*
X2635Y1323D01*
X2634Y1323D01*
X2633Y1323D01*
X2632Y1323D01*
X2631Y1323D01*
X2630Y1323D01*
X2629Y1323D01*
X2628Y1323D01*
X2627Y1323D01*
X2626Y1323D01*
X2625Y1323D01*
X2624Y1323D01*
X2623Y1323D01*
X2622Y1323D01*
X2621Y1323D01*
X2620Y1323D01*
X2619Y1323D01*
X2618Y1323D01*
X2617Y1323D01*
X2616Y1323D01*
X2615Y1323D01*
X2614Y1323D01*
X2613Y1323D01*
X2612Y1323D01*
X2611Y1323D01*
X2610Y1323D01*
X2609Y1323D01*
X2608Y1323D01*
X2607Y1323D01*
X2606Y1323D01*
X2605Y1323D01*
X2604Y1323D01*
X2603Y1323D01*
X2602Y1323D01*
X2601Y1323D01*
X2600Y1323D01*
X2599Y1323D01*
X2598Y1323D01*
X2597Y1323D01*
X2596Y1323D01*
X2595Y1323D01*
X2594Y1323D01*
X2593Y1323D01*
X2592Y1323D01*
X2591Y1323D01*
X2590Y1323D01*
X2589Y1323D01*
X2588Y1323D01*
X2587Y1323D01*
X2586Y1323D01*
X2585Y1323D01*
X2584Y1323D01*
X2583Y1323D01*
X2582Y1323D01*
X2581Y1323D01*
X2580Y1323D01*
X2579Y1323D01*
X2578Y1323D01*
X2577Y1323D01*
X2576Y1323D01*
X2575Y1323D01*
X2574Y1323D01*
X2573Y1323D01*
X2572Y1323D01*
X2571Y1323D01*
X2570Y1323D01*
X2569Y1323D01*
X2568Y1323D01*
X2567Y1323D01*
X2566Y1323D01*
X2565Y1323D01*
X2564Y1323D01*
X2563Y1323D01*
X2562Y1323D01*
X2561Y1323D01*
X2560Y1323D01*
X2559Y1323D01*
X2558Y1323D01*
X2557Y1323D01*
X2556Y1323D01*
X2555Y1323D01*
X2554Y1323D01*
X2553Y1323D01*
X2552Y1323D01*
X2551Y1323D01*
X2550Y1323D01*
X2549Y1323D01*
X2548Y1323D01*
X2547Y1323D01*
X2546Y1323D01*
X2545Y1323D01*
X2544Y1323D01*
X2543Y1323D01*
X2542Y1323D01*
X2541Y1323D01*
X2540Y1323D01*
X2539Y1323D01*
X2538Y1323D01*
X2537Y1323D01*
X2536Y1323D01*
X2535Y1323D01*
X2534Y1323D01*
X2533Y1323D01*
X2532Y1323D01*
X2531Y1323D01*
X2530Y1323D01*
X2529Y1323D01*
X2528Y1323D01*
X2527Y1323D01*
X2526Y1323D01*
X2525Y1323D01*
X2524Y1323D01*
X2523Y1323D01*
X2522Y1323D01*
X2521Y1323D01*
X2520Y1323D01*
X2519Y1323D01*
X2518Y1323D01*
X2517Y1323D01*
X2516Y1323D01*
X2515Y1323D01*
X2514Y1323D01*
X2513Y1323D01*
X2512Y1323D01*
X2511Y1323D01*
X2510Y1323D01*
X2509Y1323D01*
X2508Y1323D01*
X2507Y1323D01*
X2506Y1323D01*
X2505Y1323D01*
X2504Y1323D01*
X2503Y1323D01*
X2502Y1323D01*
X2501Y1323D01*
X2500Y1323D01*
X2499Y1323D01*
X2498Y1323D01*
X2497Y1323D01*
X2496Y1323D01*
X2495Y1323D01*
X2494Y1323D01*
X2493Y1323D01*
X2492Y1323D01*
X2491Y1323D01*
X2490Y1323D01*
X2489Y1323D01*
X2488Y1323D01*
X2487Y1323D01*
X2486Y1323D01*
X2485Y1323D01*
X2484Y1323D01*
X2483Y1323D01*
X2482Y1323D01*
X2481Y1323D01*
X2480Y1323D01*
X2479Y1323D01*
X2478Y1323D01*
X2477Y1323D01*
X2476Y1323D01*
X2475Y1323D01*
X2474Y1323D01*
X2473Y1323D01*
X2472Y1323D01*
X2471Y1323D01*
X2470Y1323D01*
X2469Y1323D01*
X2468Y1323D01*
X2467Y1323D01*
X2466Y1323D01*
X2465Y1323D01*
X2464Y1323D01*
X2463Y1323D01*
X2462Y1323D01*
X2461Y1323D01*
X2460Y1323D01*
X2459Y1323D01*
X2458Y1323D01*
X2457Y1323D01*
X2456Y1323D01*
X2455Y1323D01*
X2454Y1323D01*
X2453Y1323D01*
X2452Y1323D01*
X2451Y1323D01*
X2450Y1323D01*
X2449Y1323D01*
X2448Y1323D01*
X2447Y1323D01*
X2446Y1323D01*
X2445Y1323D01*
X2444Y1323D01*
X2443Y1323D01*
X2442Y1323D01*
X2441Y1324D01*
X2441Y1562D01*
X2442Y1563D01*
X2443Y1563D01*
X2444Y1563D01*
X2445Y1563D01*
X2446Y1563D01*
X2447Y1563D01*
X2448Y1563D01*
X2449Y1563D01*
X2450Y1563D01*
X2451Y1563D01*
X2452Y1563D01*
X2453Y1563D01*
X2454Y1563D01*
X2455Y1563D01*
X2456Y1563D01*
X2457Y1563D01*
X2458Y1563D01*
X2459Y1563D01*
X2460Y1563D01*
X2461Y1563D01*
X2462Y1563D01*
X2463Y1563D01*
X2464Y1563D01*
X2465Y1563D01*
X2466Y1563D01*
X2467Y1563D01*
X2468Y1563D01*
X2469Y1563D01*
X2470Y1563D01*
X2471Y1563D01*
X2472Y1563D01*
X2473Y1563D01*
X2474Y1563D01*
X2475Y1563D01*
X2476Y1563D01*
X2477Y1563D01*
X2478Y1563D01*
X2479Y1563D01*
X2480Y1563D01*
X2481Y1563D01*
X2482Y1563D01*
X2483Y1563D01*
X2484Y1563D01*
X2485Y1563D01*
X2486Y1563D01*
X2487Y1563D01*
X2488Y1563D01*
X2489Y1563D01*
X2490Y1563D01*
X2491Y1563D01*
X2492Y1563D01*
X2493Y1563D01*
X2494Y1563D01*
X2495Y1563D01*
X2496Y1563D01*
X2497Y1563D01*
X2498Y1563D01*
X2499Y1563D01*
X2500Y1563D01*
X2501Y1563D01*
X2502Y1563D01*
X2503Y1563D01*
X2504Y1563D01*
X2505Y1563D01*
X2506Y1563D01*
X2507Y1563D01*
X2508Y1563D01*
X2509Y1563D01*
X2510Y1563D01*
X2511Y1563D01*
X2512Y1563D01*
X2513Y1563D01*
X2514Y1563D01*
X2515Y1563D01*
X2516Y1563D01*
X2517Y1563D01*
X2518Y1563D01*
X2519Y1563D01*
X2520Y1563D01*
X2521Y1563D01*
X2522Y1563D01*
X2523Y1563D01*
X2524Y1563D01*
X2525Y1563D01*
X2526Y1563D01*
X2527Y1563D01*
X2528Y1563D01*
X2529Y1563D01*
X2530Y1563D01*
X2531Y1563D01*
X2532Y1563D01*
X2533Y1563D01*
X2534Y1563D01*
X2535Y1563D01*
X2536Y1563D01*
X2537Y1563D01*
X2538Y1563D01*
X2539Y1563D01*
X2540Y1563D01*
X2541Y1563D01*
X2542Y1563D01*
X2543Y1563D01*
X2544Y1563D01*
X2545Y1563D01*
X2546Y1563D01*
X2547Y1563D01*
X2548Y1563D01*
X2549Y1563D01*
X2550Y1563D01*
X2551Y1563D01*
X2552Y1563D01*
X2553Y1563D01*
X2554Y1563D01*
X2555Y1563D01*
X2556Y1563D01*
X2557Y1563D01*
X2558Y1563D01*
X2559Y1563D01*
X2560Y1563D01*
X2561Y1563D01*
X2562Y1563D01*
X2563Y1563D01*
X2564Y1563D01*
X2565Y1563D01*
X2566Y1563D01*
X2567Y1563D01*
X2568Y1563D01*
X2569Y1563D01*
X2570Y1563D01*
X2571Y1563D01*
X2572Y1563D01*
X2573Y1563D01*
X2574Y1563D01*
X2575Y1563D01*
X2576Y1563D01*
X2577Y1563D01*
X2578Y1563D01*
X2579Y1563D01*
X2580Y1563D01*
X2581Y1563D01*
X2582Y1563D01*
X2583Y1563D01*
X2584Y1563D01*
X2585Y1563D01*
X2586Y1563D01*
X2587Y1563D01*
X2588Y1563D01*
X2589Y1563D01*
X2590Y1563D01*
X2591Y1563D01*
X2592Y1563D01*
X2593Y1563D01*
X2594Y1563D01*
X2595Y1563D01*
X2596Y1563D01*
X2597Y1563D01*
X2598Y1563D01*
X2599Y1563D01*
X2600Y1563D01*
X2601Y1563D01*
X2602Y1563D01*
X2603Y1563D01*
X2604Y1563D01*
X2605Y1563D01*
X2606Y1563D01*
X2607Y1563D01*
X2608Y1563D01*
X2609Y1563D01*
X2610Y1563D01*
X2611Y1563D01*
X2612Y1563D01*
X2613Y1563D01*
X2614Y1563D01*
X2615Y1563D01*
X2616Y1563D01*
X2617Y1563D01*
X2618Y1563D01*
X2619Y1563D01*
X2620Y1563D01*
X2621Y1563D01*
X2622Y1563D01*
X2623Y1563D01*
X2624Y1563D01*
X2625Y1563D01*
X2626Y1563D01*
X2627Y1563D01*
X2628Y1563D01*
X2629Y1563D01*
X2630Y1563D01*
X2631Y1563D01*
X2632Y1563D01*
X2633Y1563D01*
X2634Y1563D01*
X2635Y1563D01*
X2636Y1563D01*
X2637Y1563D01*
X2638Y1563D01*
X2639Y1563D01*
X2640Y1563D01*
X2641Y1563D01*
X2642Y1563D01*
X2643Y1563D01*
X2644Y1563D01*
X2645Y1563D01*
X2646Y1563D01*
X2647Y1563D01*
X2648Y1563D01*
X2649Y1563D01*
X2650Y1563D01*
X2651Y1563D01*
X2652Y1563D01*
X2653Y1563D01*
X2654Y1563D01*
X2655Y1563D01*
X2656Y1563D01*
X2657Y1563D01*
X2658Y1563D01*
X2659Y1563D01*
X2660Y1563D01*
X2661Y1563D01*
X2662Y1563D01*
X2663Y1563D01*
X2664Y1563D01*
X2665Y1563D01*
X2666Y1563D01*
X2667Y1563D01*
X2668Y1563D01*
X2669Y1563D01*
X2670Y1563D01*
X2671Y1563D01*
X2672Y1563D01*
X2673Y1563D01*
X2674Y1563D01*
X2675Y1563D01*
X2676Y1563D01*
X2677Y1563D01*
X2678Y1563D01*
X2679Y1563D01*
X2680Y1563D01*
X2681Y1563D01*
X2682Y1563D01*
X2683Y1563D01*
X2684Y1563D01*
X2685Y1563D01*
X2686Y1563D01*
X2687Y1563D01*
X2688Y1563D01*
X2689Y1563D01*
X2690Y1563D01*
X2691Y1563D01*
X2692Y1563D01*
X2693Y1563D01*
X2694Y1563D01*
X2695Y1563D01*
X2696Y1563D01*
X2697Y1563D01*
X2698Y1563D01*
X2699Y1563D01*
X2700Y1563D01*
X2701Y1563D01*
X2702Y1563D01*
X2703Y1563D01*
X2704Y1563D01*
X2705Y1563D01*
X2706Y1563D01*
X2707Y1563D01*
X2708Y1563D01*
X2709Y1563D01*
X2710Y1563D01*
X2711Y1563D01*
X2712Y1563D01*
X2713Y1563D01*
X2714Y1563D01*
X2715Y1563D01*
X2716Y1563D01*
X2717Y1563D01*
X2718Y1563D01*
X2719Y1563D01*
X2720Y1563D01*
X2721Y1563D01*
X2722Y1563D01*
X2723Y1563D01*
X2724Y1563D01*
X2725Y1563D01*
X2726Y1563D01*
X2727Y1563D01*
X2728Y1563D01*
X2729Y1563D01*
X2730Y1563D01*
X2731Y1563D01*
X2732Y1563D01*
X2733Y1563D01*
X2734Y1563D01*
X2735Y1563D01*
X2736Y1563D01*
X2737Y1563D01*
X2738Y1563D01*
X2739Y1563D01*
X2740Y1563D01*
X2741Y1563D01*
X2742Y1563D01*
X2743Y1563D01*
X2744Y1563D01*
X2745Y1563D01*
X2746Y1563D01*
X2747Y1563D01*
X2748Y1563D01*
X2749Y1563D01*
X2750Y1563D01*
X2751Y1563D01*
X2752Y1563D01*
X2753Y1563D01*
X2754Y1563D01*
X2755Y1563D01*
X2756Y1563D01*
X2757Y1563D01*
X2758Y1563D01*
X2759Y1563D01*
X2760Y1563D01*
X2761Y1563D01*
X2762Y1563D01*
X2763Y1563D01*
X2764Y1563D01*
X2765Y1563D01*
X2766Y1563D01*
X2767Y1563D01*
X2768Y1563D01*
X2769Y1563D01*
X2770Y1563D01*
X2771Y1563D01*
X2772Y1563D01*
X2773Y1563D01*
X2774Y1563D01*
X2775Y1563D01*
X2776Y1563D01*
X2777Y1563D01*
X2778Y1563D01*
X2779Y1563D01*
X2780Y1563D01*
X2781Y1563D01*
X2782Y1563D01*
X2783Y1563D01*
X2784Y1563D01*
X2785Y1563D01*
X2786Y1563D01*
X2787Y1563D01*
X2788Y1563D01*
X2789Y1563D01*
X2790Y1563D01*
X2791Y1563D01*
X2792Y1563D01*
X2793Y1563D01*
X2794Y1563D01*
X2795Y1563D01*
X2796Y1563D01*
X2797Y1563D01*
X2798Y1563D01*
X2799Y1563D01*
X2800Y1563D01*
X2801Y1563D01*
X2802Y1563D01*
X2803Y1563D01*
X2804Y1563D01*
X2805Y1563D01*
X2806Y1563D01*
X2807Y1563D01*
X2808Y1563D01*
X2809Y1563D01*
X2810Y1563D01*
X2811Y1563D01*
X2812Y1563D01*
X2813Y1563D01*
X2814Y1563D01*
X2815Y1563D01*
X2816Y1563D01*
X2817Y1563D01*
X2818Y1563D01*
X2819Y1563D01*
X2820Y1563D01*
X2821Y1563D01*
X2822Y1563D01*
X2823Y1563D01*
X2824Y1563D01*
X2825Y1563D01*
X2826Y1563D01*
X2827Y1563D01*
X2828Y1563D01*
X2829Y1563D01*
X2830Y1563D01*
X2831Y1563D01*
X2832Y1563D01*
X2833Y1563D01*
X2834Y1563D01*
X2835Y1563D01*
X2836Y1563D01*
X2837Y1563D01*
X2838Y1563D01*
X2839Y1563D01*
X2840Y1563D01*
X2841Y1563D01*
X2842Y1563D01*
X2843Y1563D01*
X2844Y1563D01*
X2845Y1563D01*
X2846Y1563D01*
X2847Y1563D01*
X2848Y1563D01*
X2849Y1563D01*
X2850Y1563D01*
X2851Y1563D01*
X2852Y1563D01*
X2853Y1563D01*
X2854Y1563D01*
X2855Y1563D01*
X2856Y1563D01*
X2857Y1563D01*
X2858Y1563D01*
X2859Y1563D01*
X2860Y1563D01*
X2861Y1563D01*
X2862Y1563D01*
X2863Y1563D01*
X2864Y1563D01*
X2865Y1563D01*
X2866Y1563D01*
X2867Y1563D01*
X2868Y1563D01*
X2869Y1563D01*
X2870Y1563D01*
X2871Y1563D01*
X2872Y1563D01*
X2873Y1563D01*
X2874Y1563D01*
X2875Y1563D01*
X2876Y1563D01*
X2877Y1563D01*
X2878Y1563D01*
X2879Y1563D01*
X2880Y1563D01*
X2881Y1563D01*
X2882Y1563D01*
X2883Y1563D01*
X2884Y1563D01*
X2885Y1563D01*
X2886Y1563D01*
X2887Y1563D01*
X2888Y1563D01*
X2889Y1563D01*
X2890Y1563D01*
X2891Y1563D01*
X2892Y1563D01*
X2893Y1563D01*
X2894Y1563D01*
X2895Y1563D01*
X2896Y1563D01*
X2897Y1563D01*
X2898Y1563D01*
X2899Y1563D01*
X2900Y1563D01*
X2901Y1563D01*
X2902Y1563D01*
X2903Y1563D01*
X2904Y1563D01*
X2905Y1563D01*
X2906Y1563D01*
X2907Y1563D01*
X2908Y1563D01*
X2909Y1563D01*
X2910Y1563D01*
X2911Y1563D01*
X2912Y1563D01*
X2913Y1563D01*
X2914Y1563D01*
X2915Y1563D01*
X2916Y1563D01*
X2917Y1563D01*
X2918Y1563D01*
X2919Y1563D01*
X2920Y1563D01*
X2921Y1563D01*
X2922Y1563D01*
X2923Y1563D01*
X2924Y1563D01*
X2925Y1563D01*
X2926Y1563D01*
X2927Y1563D01*
X2928Y1563D01*
X2929Y1563D01*
X2930Y1563D01*
X2931Y1563D01*
X2932Y1563D01*
X2933Y1563D01*
X2934Y1563D01*
X2935Y1563D01*
X2936Y1563D01*
X2937Y1563D01*
X2938Y1563D01*
X2939Y1563D01*
X2940Y1563D01*
X2941Y1563D01*
X2942Y1563D01*
X2943Y1563D01*
X2944Y1563D01*
X2945Y1563D01*
X2946Y1563D01*
X2947Y1563D01*
X2948Y1563D01*
X2949Y1563D01*
X2950Y1563D01*
X2951Y1563D01*
X2952Y1563D01*
X2953Y1563D01*
X2954Y1563D01*
X2955Y1563D01*
X2956Y1563D01*
X2957Y1563D01*
X2958Y1563D01*
X2959Y1563D01*
X2960Y1563D01*
X2961Y1563D01*
X2962Y1563D01*
X2963Y1563D01*
X2964Y1563D01*
X2965Y1563D01*
X2966Y1563D01*
X2967Y1563D01*
X2968Y1563D01*
X2969Y1563D01*
X2970Y1563D01*
X2971Y1563D01*
X2972Y1563D01*
X2973Y1563D01*
X2974Y1563D01*
X2975Y1563D01*
X2976Y1563D01*
X2977Y1563D01*
X2978Y1563D01*
X2979Y1563D01*
X2980Y1563D01*
X2981Y1563D01*
X2982Y1563D01*
X2983Y1563D01*
X2984Y1563D01*
X2985Y1563D01*
X2986Y1563D01*
X2987Y1563D01*
X2988Y1563D01*
X2989Y1563D01*
X2990Y1563D01*
X2991Y1563D01*
X2992Y1563D01*
X2993Y1563D01*
X2994Y1563D01*
X2995Y1563D01*
X2996Y1563D01*
X2997Y1563D01*
X2998Y1563D01*
X2999Y1563D01*
X3000Y1563D01*
X3001Y1563D01*
X3002Y1563D01*
X3003Y1563D01*
X3004Y1563D01*
X3005Y1563D01*
X3006Y1563D01*
X3007Y1563D01*
X3008Y1563D01*
X3009Y1563D01*
X3010Y1563D01*
X3011Y1563D01*
X3012Y1563D01*
X3013Y1563D01*
X3014Y1563D01*
X3015Y1563D01*
X3016Y1563D01*
X3017Y1563D01*
X3018Y1563D01*
X3019Y1563D01*
X3020Y1563D01*
X3021Y1563D01*
X3022Y1563D01*
X3023Y1563D01*
X3024Y1563D01*
X3025Y1563D01*
X3026Y1563D01*
X3027Y1563D01*
X3028Y1563D01*
X3029Y1563D01*
X3030Y1563D01*
X3031Y1563D01*
X3032Y1563D01*
X3033Y1563D01*
X3034Y1563D01*
X3035Y1563D01*
X3036Y1563D01*
X3037Y1563D01*
X3038Y1563D01*
X3039Y1563D01*
X3040Y1563D01*
X3041Y1563D01*
X3042Y1563D01*
X3043Y1563D01*
X3044Y1563D01*
X3045Y1563D01*
X3046Y1563D01*
X3047Y1563D01*
X3048Y1563D01*
X3049Y1563D01*
X3050Y1563D01*
X3051Y1563D01*
X3052Y1563D01*
X3053Y1563D01*
X3054Y1563D01*
X3055Y1563D01*
X3056Y1563D01*
X3057Y1563D01*
X3058Y1563D01*
X3059Y1563D01*
X3060Y1563D01*
X3061Y1563D01*
X3062Y1563D01*
X3063Y1563D01*
X3064Y1563D01*
X3065Y1563D01*
X3066Y1563D01*
X3067Y1563D01*
X3068Y1563D01*
X3069Y1563D01*
X3070Y1563D01*
X3071Y1563D01*
X3072Y1563D01*
X3073Y1563D01*
X3074Y1563D01*
X3075Y1563D01*
X3076Y1563D01*
X3077Y1563D01*
X3078Y1563D01*
X3079Y1563D01*
X3080Y1563D01*
X3081Y1563D01*
X3082Y1563D01*
X3083Y1563D01*
X3084Y1563D01*
X3085Y1563D01*
X3086Y1563D01*
X3087Y1563D01*
X3088Y1563D01*
X3089Y1563D01*
X3090Y1563D01*
X3091Y1563D01*
X3092Y1563D01*
X3093Y1563D01*
X3094Y1563D01*
X3095Y1563D01*
X3096Y1563D01*
X3097Y1563D01*
X3098Y1563D01*
X3099Y1563D01*
X3100Y1563D01*
X3101Y1563D01*
X3102Y1563D01*
X3103Y1563D01*
X3104Y1563D01*
X3105Y1563D01*
X3106Y1563D01*
X3107Y1563D01*
X3108Y1563D01*
X3109Y1563D01*
X3110Y1563D01*
X3111Y1563D01*
X3112Y1563D01*
X3113Y1563D01*
X3114Y1563D01*
X3115Y1563D01*
X3116Y1563D01*
X3117Y1563D01*
X3118Y1563D01*
X3119Y1563D01*
X3120Y1563D01*
X3121Y1563D01*
X3122Y1563D01*
X3123Y1563D01*
X3124Y1563D01*
X3125Y1563D01*
X3126Y1563D01*
X3127Y1563D01*
X3128Y1563D01*
X3129Y1563D01*
X3130Y1563D01*
X3131Y1563D01*
X3132Y1563D01*
X3133Y1563D01*
X3134Y1563D01*
X3135Y1563D01*
X3136Y1563D01*
X3137Y1563D01*
X3138Y1563D01*
X3139Y1563D01*
X3140Y1563D01*
X3141Y1563D01*
X3142Y1563D01*
X3143Y1563D01*
X3144Y1563D01*
X3145Y1563D01*
X3146Y1563D01*
X3147Y1563D01*
X3148Y1563D01*
X3149Y1563D01*
X3150Y1563D01*
X3151Y1563D01*
X3152Y1563D01*
X3153Y1563D01*
X3154Y1563D01*
X3155Y1563D01*
X3156Y1563D01*
X3157Y1563D01*
X3158Y1563D01*
X3159Y1563D01*
X3160Y1563D01*
X3161Y1563D01*
X3162Y1563D01*
X3163Y1563D01*
X3164Y1563D01*
X3165Y1563D01*
X3166Y1563D01*
X3167Y1563D01*
X3168Y1563D01*
X3169Y1563D01*
X3170Y1563D01*
X3171Y1563D01*
X3172Y1563D01*
X3173Y1563D01*
X3174Y1563D01*
X3175Y1563D01*
X3176Y1563D01*
X3177Y1563D01*
X3178Y1563D01*
X3179Y1563D01*
X3180Y1563D01*
X3181Y1563D01*
X3182Y1563D01*
X3183Y1563D01*
X3184Y1563D01*
X3185Y1563D01*
X3186Y1563D01*
X3187Y1563D01*
X3188Y1563D01*
X3189Y1563D01*
X3190Y1563D01*
X3191Y1563D01*
X3192Y1563D01*
X3193Y1563D01*
X3194Y1563D01*
X3195Y1563D01*
X3196Y1563D01*
X3197Y1563D01*
X3198Y1563D01*
X3199Y1563D01*
X3200Y1563D01*
X3201Y1563D01*
X3202Y1563D01*
X3203Y1563D01*
X3204Y1563D01*
X3205Y1563D01*
X3206Y1563D01*
X3207Y1563D01*
X3208Y1563D01*
X3209Y1563D01*
X3210Y1563D01*
X3211Y1563D01*
X3212Y1563D01*
X3213Y1563D01*
X3214Y1563D01*
X3215Y1563D01*
X3216Y1563D01*
X3217Y1563D01*
X3218Y1563D01*
X3219Y1563D01*
X3220Y1563D01*
X3221Y1563D01*
X3222Y1563D01*
X3223Y1563D01*
X3224Y1563D01*
X3225Y1563D01*
X3226Y1563D01*
X3227Y1563D01*
X3228Y1563D01*
X3229Y1563D01*
X3230Y1563D01*
X3231Y1563D01*
X3232Y1563D01*
X3233Y1563D01*
X3234Y1563D01*
X3235Y1563D01*
X3236Y1563D01*
X3237Y1563D01*
X3238Y1563D01*
X3239Y1563D01*
X3240Y1563D01*
X3241Y1563D01*
X3242Y1563D01*
X3243Y1563D01*
X3244Y1563D01*
X3245Y1563D01*
X3246Y1563D01*
X3247Y1563D01*
X3248Y1563D01*
X3249Y1563D01*
X3250Y1563D01*
X3251Y1563D01*
X3252Y1563D01*
X3253Y1563D01*
X3254Y1563D01*
X3255Y1563D01*
X3256Y1563D01*
X3257Y1563D01*
X3258Y1563D01*
X3259Y1563D01*
X3260Y1563D01*
X3261Y1563D01*
X3262Y1563D01*
X3263Y1563D01*
X3264Y1563D01*
X3265Y1563D01*
X3266Y1563D01*
X3267Y1563D01*
X3268Y1563D01*
X3269Y1563D01*
X3270Y1563D01*
X3271Y1563D01*
X3272Y1563D01*
X3273Y1563D01*
X3274Y1563D01*
X3275Y1563D01*
X3276Y1563D01*
X3277Y1563D01*
X3278Y1563D01*
X3279Y1563D01*
X3280Y1563D01*
X3281Y1563D01*
X3282Y1563D01*
X3283Y1563D01*
X3284Y1563D01*
X3285Y1563D01*
X3286Y1563D01*
X3287Y1563D01*
X3288Y1563D01*
X3289Y1563D01*
X3290Y1563D01*
X3291Y1563D01*
X3292Y1563D01*
X3293Y1563D01*
X3294Y1563D01*
X3295Y1563D01*
X3296Y1563D01*
X3297Y1563D01*
X3298Y1563D01*
X3299Y1563D01*
X3300Y1563D01*
X3301Y1563D01*
X3302Y1563D01*
X3303Y1563D01*
X3304Y1563D01*
X3305Y1563D01*
X3306Y1563D01*
X3307Y1563D01*
X3308Y1563D01*
X3309Y1563D01*
X3310Y1563D01*
X3311Y1563D01*
X3312Y1563D01*
X3313Y1563D01*
X3314Y1563D01*
X3315Y1563D01*
X3316Y1563D01*
X3317Y1563D01*
X3318Y1563D01*
X3319Y1563D01*
X3320Y1563D01*
X3321Y1563D01*
X3322Y1563D01*
X3323Y1563D01*
X3324Y1563D01*
X3325Y1563D01*
X3326Y1563D01*
X3327Y1563D01*
X3328Y1563D01*
X3329Y1563D01*
X3330Y1563D01*
X3331Y1563D01*
X3332Y1563D01*
X3333Y1563D01*
X3334Y1563D01*
X3335Y1563D01*
X3336Y1563D01*
X3337Y1563D01*
X3338Y1563D01*
X3339Y1563D01*
X3340Y1563D01*
X3341Y1563D01*
X3342Y1563D01*
X3343Y1563D01*
X3344Y1563D01*
X3345Y1563D01*
X3346Y1563D01*
X3347Y1563D01*
X3348Y1563D01*
X3349Y1563D01*
X3350Y1563D01*
X3351Y1563D01*
X3352Y1563D01*
X3353Y1563D01*
X3354Y1563D01*
X3355Y1563D01*
X3356Y1563D01*
X3357Y1563D01*
X3358Y1563D01*
X3359Y1563D01*
X3360Y1563D01*
X3361Y1563D01*
X3362Y1563D01*
X3363Y1563D01*
X3364Y1563D01*
X3365Y1563D01*
X3366Y1563D01*
X3367Y1563D01*
X3368Y1563D01*
X3369Y1563D01*
X3370Y1563D01*
X3371Y1563D01*
X3372Y1563D01*
X3373Y1563D01*
X3374Y1563D01*
X3375Y1563D01*
X3376Y1563D01*
X3377Y1563D01*
X3378Y1563D01*
X3379Y1563D01*
X3380Y1563D01*
X3381Y1563D01*
X3382Y1563D01*
X3383Y1563D01*
X3384Y1563D01*
X3385Y1563D01*
X3386Y1563D01*
X3387Y1563D01*
X3388Y1563D01*
X3389Y1563D01*
X3390Y1563D01*
X3391Y1563D01*
X3392Y1563D01*
X3393Y1563D01*
X3394Y1563D01*
X3395Y1563D01*
X3396Y1563D01*
X3397Y1563D01*
X3398Y1563D01*
X3399Y1563D01*
X3400Y1563D01*
X3401Y1563D01*
X3402Y1563D01*
X3403Y1563D01*
X3404Y1563D01*
X3405Y1563D01*
X3406Y1563D01*
X3407Y1563D01*
X3408Y1563D01*
X3409Y1563D01*
X3410Y1563D01*
X3411Y1563D01*
X3412Y1563D01*
X3413Y1563D01*
X3414Y1563D01*
X3415Y1563D01*
X3416Y1563D01*
X3417Y1563D01*
X3418Y1563D01*
X3419Y1563D01*
X3420Y1563D01*
X3421Y1563D01*
X3422Y1563D01*
X3423Y1563D01*
X3424Y1563D01*
X3425Y1563D01*
X3426Y1563D01*
X3427Y1563D01*
X3428Y1563D01*
X3429Y1563D01*
X3430Y1563D01*
X3431Y1563D01*
X3432Y1563D01*
X3433Y1563D01*
X3434Y1563D01*
X3435Y1563D01*
X3436Y1563D01*
X3437Y1563D01*
X3438Y1563D01*
X3439Y1563D01*
X3440Y1563D01*
X3441Y1563D01*
X3442Y1563D01*
X3443Y1563D01*
X3444Y1563D01*
X3445Y1563D01*
X3446Y1563D01*
X3447Y1563D01*
X3448Y1563D01*
X3449Y1563D01*
X3450Y1563D01*
X3451Y1563D01*
X3452Y1563D01*
X3453Y1563D01*
X3454Y1563D01*
X3455Y1563D01*
X3456Y1563D01*
X3457Y1563D01*
X3458Y1563D01*
X3459Y1563D01*
X3460Y1563D01*
X3461Y1563D01*
X3462Y1563D01*
X3463Y1563D01*
X3464Y1563D01*
X3465Y1563D01*
X3466Y1563D01*
X3467Y1563D01*
X3468Y1563D01*
X3469Y1563D01*
X3470Y1563D01*
X3471Y1563D01*
X3472Y1563D01*
X3473Y1563D01*
X3474Y1563D01*
X3475Y1563D01*
X3476Y1563D01*
X3477Y1563D01*
X3478Y1563D01*
X3479Y1563D01*
X3480Y1563D01*
X3481Y1563D01*
X3482Y1563D01*
X3483Y1563D01*
X3484Y1563D01*
X3485Y1563D01*
X3486Y1563D01*
X3487Y1563D01*
X3488Y1563D01*
X3489Y1563D01*
X3490Y1563D01*
X3491Y1563D01*
X3492Y1563D01*
X3493Y1563D01*
X3494Y1563D01*
X3495Y1563D01*
X3496Y1563D01*
X3497Y1563D01*
X3498Y1563D01*
X3499Y1563D01*
X3500Y1563D01*
X3501Y1563D01*
X3502Y1563D01*
X3503Y1563D01*
X3504Y1563D01*
X3505Y1563D01*
X3506Y1563D01*
X3507Y1563D01*
X3508Y1563D01*
X3509Y1563D01*
X3510Y1563D01*
X3511Y1563D01*
X3512Y1563D01*
X3513Y1563D01*
X3514Y1563D01*
X3515Y1563D01*
X3516Y1563D01*
X3517Y1563D01*
X3518Y1563D01*
X3519Y1563D01*
X3520Y1563D01*
X3521Y1563D01*
X3522Y1563D01*
X3523Y1563D01*
X3524Y1563D01*
X3525Y1563D01*
X3526Y1563D01*
X3527Y1563D01*
X3528Y1563D01*
X3529Y1563D01*
X3530Y1563D01*
X3531Y1563D01*
X3532Y1563D01*
X3533Y1563D01*
X3534Y1563D01*
X3535Y1563D01*
X3536Y1563D01*
X3537Y1563D01*
X3538Y1563D01*
X3539Y1563D01*
X3540Y1563D01*
X3541Y1563D01*
X3542Y1563D01*
X3543Y1563D01*
X3544Y1563D01*
X3545Y1563D01*
X3546Y1563D01*
X3547Y1563D01*
X3548Y1563D01*
X3549Y1563D01*
X3550Y1563D01*
X3551Y1563D01*
X3552Y1563D01*
X3553Y1563D01*
X3554Y1563D01*
X3555Y1563D01*
X3556Y1563D01*
X3557Y1563D01*
X3558Y1563D01*
X3559Y1563D01*
X3560Y1563D01*
X3561Y1563D01*
X3562Y1563D01*
X3563Y1563D01*
X3564Y1563D01*
X3565Y1563D01*
X3566Y1563D01*
X3567Y1563D01*
X3568Y1563D01*
X3569Y1563D01*
X3570Y1563D01*
X3571Y1563D01*
X3572Y1563D01*
X3573Y1563D01*
X3574Y1563D01*
X3575Y1563D01*
X3576Y1563D01*
X3577Y1563D01*
X3578Y1563D01*
X3579Y1563D01*
X3580Y1563D01*
X3581Y1563D01*
X3582Y1563D01*
X3583Y1563D01*
X3584Y1563D01*
X3585Y1563D01*
X3586Y1563D01*
X3587Y1563D01*
X3588Y1563D01*
X3589Y1563D01*
X3590Y1563D01*
X3591Y1563D01*
X3592Y1563D01*
X3593Y1563D01*
X3594Y1563D01*
X3595Y1563D01*
X3596Y1563D01*
X3597Y1563D01*
X3598Y1563D01*
X3599Y1563D01*
X3600Y1563D01*
X3601Y1563D01*
X3602Y1563D01*
X3603Y1563D01*
X3604Y1563D01*
X3605Y1563D01*
X3606Y1563D01*
X3607Y1563D01*
X3608Y1563D01*
X3609Y1563D01*
X3610Y1563D01*
X3611Y1563D01*
X3612Y1563D01*
X3613Y1563D01*
X3614Y1563D01*
X3615Y1563D01*
X3616Y1563D01*
X3617Y1563D01*
X3618Y1563D01*
X3619Y1563D01*
X3620Y1563D01*
X3621Y1563D01*
X3622Y1563D01*
X3623Y1563D01*
X3624Y1563D01*
X3625Y1563D01*
X3626Y1563D01*
X3627Y1563D01*
X3628Y1563D01*
X3629Y1563D01*
X3630Y1563D01*
X3631Y1563D01*
X3632Y1563D01*
X3633Y1563D01*
X3634Y1563D01*
X3635Y1563D01*
X3636Y1563D01*
X3637Y1563D01*
X3638Y1563D01*
X3639Y1563D01*
X3640Y1563D01*
X3641Y1563D01*
X3642Y1563D01*
X3643Y1563D01*
X3644Y1563D01*
X3645Y1563D01*
X3646Y1563D01*
X3647Y1563D01*
X3648Y1563D01*
X3649Y1563D01*
X3650Y1563D01*
X3651Y1563D01*
X3652Y1563D01*
X3653Y1563D01*
X3654Y1563D01*
X3655Y1563D01*
X3656Y1563D01*
X3657Y1563D01*
X3658Y1563D01*
X3659Y1563D01*
X3660Y1563D01*
X3661Y1563D01*
X3662Y1563D01*
X3663Y1563D01*
X3664Y1563D01*
X3665Y1563D01*
X3666Y1563D01*
X3667Y1563D01*
X3668Y1563D01*
X3669Y1563D01*
X3670Y1563D01*
X3671Y1563D01*
X3672Y1563D01*
X3673Y1563D01*
X3674Y1563D01*
X3675Y1563D01*
X3676Y1563D01*
X3677Y1563D01*
X3678Y1563D01*
X3679Y1563D01*
X3680Y1563D01*
X3681Y1563D01*
X3682Y1563D01*
X3683Y1563D01*
X3684Y1563D01*
X3685Y1563D01*
X3686Y1563D01*
X3687Y1563D01*
X3688Y1563D01*
X3689Y1563D01*
X3690Y1563D01*
X3691Y1563D01*
X3692Y1563D01*
X3693Y1563D01*
X3694Y1563D01*
X3695Y1563D01*
X3696Y1563D01*
X3697Y1563D01*
X3698Y1563D01*
X3699Y1563D01*
X3700Y1563D01*
X3701Y1563D01*
X3702Y1563D01*
X3703Y1563D01*
X3704Y1563D01*
X3705Y1563D01*
X3706Y1563D01*
X3707Y1563D01*
X3708Y1563D01*
X3709Y1563D01*
X3710Y1563D01*
X3711Y1563D01*
X3712Y1563D01*
X3713Y1563D01*
X3714Y1563D01*
X3715Y1563D01*
X3716Y1563D01*
X3717Y1563D01*
X3718Y1563D01*
X3719Y1563D01*
X3720Y1563D01*
X3721Y1563D01*
X3722Y1563D01*
X3723Y1563D01*
X3724Y1563D01*
X3725Y1563D01*
X3726Y1563D01*
X3727Y1563D01*
X3728Y1563D01*
X3729Y1563D01*
X3730Y1563D01*
X3731Y1563D01*
X3732Y1563D01*
X3733Y1563D01*
X3734Y1563D01*
X3735Y1563D01*
X3736Y1563D01*
X3737Y1563D01*
X3738Y1563D01*
X3739Y1563D01*
X3740Y1563D01*
X3741Y1563D01*
X3742Y1563D01*
X3743Y1563D01*
X3744Y1563D01*
X3745Y1563D01*
X3746Y1563D01*
X3747Y1563D01*
X3748Y1563D01*
X3749Y1563D01*
X3750Y1563D01*
X3751Y1563D01*
X3752Y1563D01*
X3753Y1563D01*
X3754Y1563D01*
X3755Y1563D01*
X3756Y1563D01*
X3757Y1563D01*
X3758Y1563D01*
X3759Y1563D01*
X3760Y1563D01*
X3761Y1563D01*
X3762Y1563D01*
X3763Y1563D01*
X3764Y1563D01*
X3765Y1563D01*
X3766Y1563D01*
X3767Y1563D01*
X3768Y1563D01*
X3769Y1563D01*
X3770Y1563D01*
X3771Y1563D01*
X3772Y1563D01*
X3773Y1563D01*
X3774Y1563D01*
X3775Y1563D01*
X3776Y1563D01*
X3777Y1563D01*
X3778Y1563D01*
X3779Y1563D01*
X3780Y1563D01*
X3781Y1563D01*
X3782Y1563D01*
X3783Y1563D01*
X3784Y1563D01*
X3785Y1563D01*
X3786Y1563D01*
X3787Y1563D01*
X3788Y1563D01*
X3789Y1563D01*
X3790Y1563D01*
X3791Y1563D01*
X3792Y1563D01*
X3793Y1563D01*
X3794Y1563D01*
X3795Y1563D01*
X3796Y1563D01*
X3797Y1563D01*
X3798Y1563D01*
X3799Y1563D01*
X3800Y1563D01*
X3801Y1563D01*
X3802Y1563D01*
X3803Y1563D01*
X3804Y1563D01*
X3805Y1563D01*
X3806Y1563D01*
X3807Y1563D01*
X3808Y1563D01*
X3809Y1563D01*
X3810Y1563D01*
X3811Y1563D01*
X3812Y1563D01*
X3813Y1563D01*
X3814Y1563D01*
X3815Y1563D01*
X3816Y1563D01*
X3817Y1563D01*
X3818Y1563D01*
X3819Y1563D01*
X3820Y1563D01*
X3821Y1563D01*
X3822Y1563D01*
X3823Y1563D01*
X3824Y1563D01*
X3825Y1563D01*
X3826Y1563D01*
X3827Y1563D01*
X3828Y1563D01*
X3829Y1563D01*
X3830Y1563D01*
X3831Y1563D01*
X3832Y1563D01*
X3833Y1563D01*
X3834Y1563D01*
X3835Y1563D01*
X3836Y1563D01*
X3837Y1563D01*
X3838Y1563D01*
X3839Y1563D01*
X3840Y1563D01*
X3841Y1563D01*
X3842Y1563D01*
X3843Y1563D01*
X3844Y1563D01*
X3845Y1563D01*
X3846Y1563D01*
X3847Y1563D01*
X3848Y1563D01*
X3849Y1563D01*
X3850Y1563D01*
X3851Y1563D01*
X3852Y1563D01*
X3853Y1563D01*
X3854Y1563D01*
X3855Y1563D01*
X3856Y1563D01*
X3857Y1563D01*
X3858Y1563D01*
X3859Y1563D01*
X3860Y1563D01*
X3861Y1563D01*
X3862Y1563D01*
X3863Y1563D01*
X3864Y1563D01*
X3865Y1563D01*
X3866Y1563D01*
X3867Y1563D01*
X3868Y1563D01*
X3869Y1563D01*
X3870Y1563D01*
X3871Y1563D01*
X3872Y1563D01*
X3873Y1563D01*
X3874Y1563D01*
X3875Y1563D01*
X3876Y1563D01*
X3877Y1563D01*
X3878Y1563D01*
X3879Y1563D01*
X3880Y1563D01*
X3881Y1563D01*
X3882Y1563D01*
X3883Y1563D01*
X3884Y1563D01*
X3885Y1563D01*
X3886Y1563D01*
X3887Y1563D01*
X3888Y1563D01*
X3889Y1563D01*
X3890Y1563D01*
X3891Y1563D01*
X3892Y1563D01*
X3892Y2885D01*
X3891Y2885D01*
X3890Y2885D01*
X3889Y2885D01*
X3888Y2885D01*
X3887Y2885D01*
X3886Y2885D01*
X3885Y2885D01*
X3884Y2885D01*
X3883Y2885D01*
X3882Y2885D01*
X3881Y2885D01*
X3880Y2885D01*
X3879Y2885D01*
X3878Y2885D01*
X3877Y2885D01*
X3876Y2885D01*
X3875Y2885D01*
X3874Y2885D01*
X3873Y2885D01*
X3872Y2885D01*
X3871Y2885D01*
X3870Y2885D01*
X3869Y2885D01*
X3868Y2885D01*
X3867Y2885D01*
X3866Y2885D01*
X3865Y2885D01*
X3864Y2885D01*
X3863Y2885D01*
X3862Y2885D01*
X3861Y2885D01*
X3860Y2885D01*
X3859Y2885D01*
X3858Y2885D01*
X3857Y2885D01*
X3856Y2885D01*
X3855Y2885D01*
X3854Y2885D01*
X3853Y2885D01*
X3852Y2885D01*
X3851Y2885D01*
X3850Y2885D01*
X3849Y2885D01*
X3848Y2885D01*
X3847Y2885D01*
X3846Y2885D01*
X3845Y2885D01*
X3844Y2885D01*
X3843Y2885D01*
X3842Y2885D01*
X3841Y2885D01*
X3840Y2885D01*
X3839Y2885D01*
X3838Y2885D01*
X3837Y2885D01*
X3836Y2885D01*
X3835Y2885D01*
X3834Y2885D01*
X3833Y2885D01*
X3832Y2885D01*
X3831Y2885D01*
X3830Y2885D01*
X3829Y2885D01*
X3828Y2885D01*
X3827Y2885D01*
X3826Y2885D01*
X3825Y2885D01*
X3824Y2885D01*
X3823Y2885D01*
X3822Y2885D01*
X3821Y2885D01*
X3820Y2885D01*
X3819Y2885D01*
X3818Y2885D01*
X3817Y2885D01*
X3816Y2885D01*
X3815Y2885D01*
X3814Y2885D01*
X3813Y2885D01*
X3812Y2885D01*
X3811Y2885D01*
X3810Y2885D01*
X3809Y2885D01*
X3808Y2885D01*
X3807Y2885D01*
X3806Y2885D01*
X3805Y2885D01*
X3804Y2885D01*
X3803Y2885D01*
X3802Y2885D01*
X3801Y2885D01*
X3800Y2885D01*
X3799Y2885D01*
X3798Y2885D01*
X3797Y2885D01*
X3796Y2885D01*
X3795Y2885D01*
X3794Y2885D01*
X3793Y2885D01*
X3792Y2885D01*
X3791Y2885D01*
X3790Y2885D01*
X3789Y2885D01*
X3788Y2885D01*
X3787Y2885D01*
X3786Y2885D01*
X3785Y2885D01*
X3784Y2885D01*
X3783Y2885D01*
X3782Y2885D01*
X3781Y2885D01*
X3780Y2885D01*
X3779Y2885D01*
X3778Y2885D01*
X3777Y2885D01*
X3776Y2885D01*
X3775Y2885D01*
X3774Y2885D01*
X3773Y2885D01*
X3772Y2885D01*
X3771Y2885D01*
X3770Y2885D01*
X3769Y2885D01*
X3768Y2885D01*
X3767Y2885D01*
X3766Y2885D01*
X3765Y2885D01*
X3764Y2885D01*
X3763Y2885D01*
X3762Y2885D01*
X3761Y2885D01*
X3760Y2885D01*
X3759Y2885D01*
X3758Y2885D01*
X3757Y2885D01*
X3756Y2885D01*
X3755Y2885D01*
X3754Y2885D01*
X3753Y2885D01*
X3752Y2885D01*
X3751Y2885D01*
X3750Y2885D01*
X3749Y2885D01*
X3748Y2885D01*
X3747Y2885D01*
X3746Y2885D01*
X3745Y2885D01*
X3744Y2885D01*
X3743Y2885D01*
X3742Y2885D01*
X3741Y2885D01*
X3740Y2885D01*
X3739Y2885D01*
X3738Y2885D01*
X3737Y2885D01*
X3736Y2885D01*
X3735Y2885D01*
X3734Y2885D01*
X3733Y2885D01*
X3732Y2885D01*
X3731Y2885D01*
X3730Y2885D01*
X3729Y2885D01*
X3728Y2885D01*
X3727Y2885D01*
X3726Y2885D01*
X3725Y2885D01*
X3724Y2885D01*
X3723Y2885D01*
X3722Y2885D01*
X3721Y2885D01*
X3720Y2885D01*
X3719Y2885D01*
X3718Y2885D01*
X3717Y2885D01*
X3716Y2885D01*
X3715Y2885D01*
X3714Y2885D01*
X3713Y2885D01*
X3712Y2885D01*
X3711Y2885D01*
X3710Y2885D01*
X3709Y2885D01*
X3708Y2885D01*
X3707Y2885D01*
X3706Y2885D01*
X3705Y2885D01*
X3704Y2885D01*
X3703Y2885D01*
X3702Y2885D01*
X3701Y2885D01*
X3700Y2885D01*
X3699Y2885D01*
X3698Y2885D01*
X3697Y2885D01*
X3696Y2885D01*
X3695Y2885D01*
X3694Y2885D01*
X3693Y2885D01*
X3692Y2885D01*
X3691Y2885D01*
X3690Y2885D01*
X3689Y2885D01*
X3688Y2885D01*
X3687Y2885D01*
X3686Y2885D01*
X3685Y2885D01*
X3684Y2885D01*
X3683Y2885D01*
X3682Y2885D01*
X3681Y2885D01*
X3680Y2885D01*
X3679Y2885D01*
X3678Y2885D01*
X3677Y2885D01*
X3676Y2885D01*
X3675Y2885D01*
X3674Y2885D01*
X3673Y2885D01*
X3672Y2885D01*
X3671Y2885D01*
X3670Y2885D01*
X3669Y2885D01*
X3668Y2885D01*
X3667Y2885D01*
X3666Y2885D01*
X3665Y2885D01*
X3664Y2885D01*
X3663Y2885D01*
X3662Y2885D01*
X3661Y2885D01*
X3660Y2885D01*
X3659Y2885D01*
X3658Y2885D01*
X3657Y2885D01*
X3656Y2885D01*
X3655Y2885D01*
X3654Y2885D01*
X3653Y2885D01*
X3652Y2885D01*
X3651Y2885D01*
X3650Y2885D01*
X3649Y2885D01*
X3648Y2885D01*
X3647Y2885D01*
X3646Y2885D01*
X3645Y2885D01*
X3644Y2885D01*
X3643Y2885D01*
X3642Y2885D01*
X3641Y2885D01*
X3640Y2885D01*
X3639Y2885D01*
X3638Y2885D01*
X3637Y2885D01*
X3636Y2885D01*
X3635Y2885D01*
X3634Y2885D01*
X3633Y2885D01*
X3632Y2885D01*
X3631Y2885D01*
X3630Y2885D01*
X3629Y2885D01*
X3628Y2885D01*
X3627Y2885D01*
X3626Y2885D01*
X3625Y2885D01*
X3624Y2885D01*
X3623Y2885D01*
X3622Y2885D01*
X3621Y2885D01*
X3620Y2885D01*
X3619Y2885D01*
X3618Y2885D01*
X3617Y2885D01*
X3616Y2885D01*
X3615Y2885D01*
X3614Y2885D01*
X3613Y2885D01*
X3612Y2885D01*
X3611Y2885D01*
X3610Y2885D01*
X3609Y2885D01*
X3608Y2885D01*
X3607Y2885D01*
X3606Y2885D01*
X3605Y2885D01*
X3604Y2885D01*
X3603Y2885D01*
X3602Y2885D01*
X3601Y2885D01*
X3600Y2885D01*
X3599Y2885D01*
X3598Y2885D01*
X3597Y2885D01*
X3596Y2885D01*
X3595Y2885D01*
X3594Y2885D01*
X3593Y2885D01*
X3592Y2885D01*
X3591Y2885D01*
X3590Y2885D01*
X3589Y2885D01*
X3588Y2885D01*
X3587Y2885D01*
X3586Y2885D01*
X3585Y2885D01*
X3584Y2885D01*
X3583Y2885D01*
X3582Y2885D01*
X3581Y2885D01*
X3580Y2885D01*
X3579Y2885D01*
X3578Y2885D01*
X3577Y2885D01*
X3576Y2885D01*
X3575Y2885D01*
X3574Y2885D01*
X3573Y2885D01*
X3572Y2885D01*
X3571Y2885D01*
X3570Y2885D01*
X3569Y2885D01*
X3568Y2885D01*
X3567Y2885D01*
X3566Y2885D01*
X3565Y2885D01*
X3564Y2885D01*
X3563Y2885D01*
X3562Y2885D01*
X3561Y2885D01*
X3560Y2885D01*
X3559Y2885D01*
X3558Y2885D01*
X3557Y2885D01*
X3556Y2885D01*
X3555Y2885D01*
X3554Y2885D01*
X3553Y2885D01*
X3552Y2885D01*
X3551Y2885D01*
X3550Y2885D01*
X3549Y2885D01*
X3548Y2885D01*
X3547Y2885D01*
X3546Y2885D01*
X3545Y2885D01*
X3544Y2885D01*
X3543Y2885D01*
X3542Y2885D01*
X3541Y2885D01*
X3540Y2885D01*
X3539Y2885D01*
X3538Y2885D01*
X3537Y2885D01*
X3536Y2885D01*
X3535Y2885D01*
X3534Y2885D01*
X3533Y2885D01*
X3532Y2885D01*
X3531Y2885D01*
X3530Y2885D01*
X3529Y2885D01*
X3528Y2885D01*
X3527Y2885D01*
X3526Y2885D01*
X3525Y2885D01*
X3524Y2885D01*
X3523Y2885D01*
X3522Y2885D01*
X3521Y2885D01*
X3520Y2885D01*
X3519Y2885D01*
X3518Y2885D01*
X3517Y2885D01*
X3516Y2885D01*
X3515Y2885D01*
X3514Y2885D01*
X3513Y2885D01*
X3512Y2885D01*
X3511Y2885D01*
X3510Y2885D01*
X3509Y2885D01*
X3508Y2885D01*
X3507Y2885D01*
X3506Y2885D01*
X3505Y2885D01*
X3504Y2885D01*
X3503Y2885D01*
X3502Y2885D01*
X3501Y2885D01*
X3500Y2885D01*
X3499Y2885D01*
X3498Y2885D01*
X3497Y2885D01*
X3496Y2885D01*
X3495Y2885D01*
X3494Y2885D01*
X3493Y2885D01*
X3492Y2885D01*
X3491Y2885D01*
X3490Y2885D01*
X3489Y2885D01*
X3488Y2885D01*
X3487Y2885D01*
X3486Y2885D01*
X3485Y2885D01*
X3484Y2885D01*
X3483Y2885D01*
X3482Y2885D01*
X3481Y2885D01*
X3480Y2885D01*
X3479Y2885D01*
X3478Y2885D01*
X3477Y2885D01*
X3476Y2885D01*
X3475Y2885D01*
X3474Y2885D01*
X3473Y2885D01*
X3472Y2885D01*
X3471Y2885D01*
X3470Y2885D01*
X3469Y2885D01*
X3468Y2885D01*
X3467Y2885D01*
X3466Y2885D01*
X3465Y2885D01*
X3464Y2885D01*
X3463Y2885D01*
X3462Y2885D01*
X3461Y2885D01*
X3460Y2885D01*
X3459Y2885D01*
X3458Y2885D01*
X3457Y2885D01*
X3456Y2885D01*
X3455Y2885D01*
X3454Y2885D01*
X3453Y2885D01*
X3452Y2885D01*
X3451Y2885D01*
X3450Y2885D01*
X3449Y2885D01*
X3448Y2885D01*
X3447Y2885D01*
X3446Y2885D01*
X3445Y2885D01*
X3444Y2885D01*
X3443Y2885D01*
X3442Y2885D01*
X3441Y2885D01*
X3440Y2885D01*
X3439Y2885D01*
X3438Y2885D01*
X3437Y2885D01*
X3436Y2885D01*
X3435Y2885D01*
X3434Y2885D01*
X3433Y2885D01*
X3432Y2885D01*
X3431Y2885D01*
X3430Y2885D01*
X3429Y2885D01*
X3428Y2885D01*
X3427Y2885D01*
X3426Y2885D01*
X3425Y2885D01*
X3424Y2885D01*
X3423Y2885D01*
X3422Y2885D01*
X3421Y2885D01*
X3420Y2885D01*
X3419Y2885D01*
X3418Y2885D01*
X3417Y2885D01*
X3416Y2885D01*
X3415Y2885D01*
X3414Y2885D01*
X3413Y2885D01*
X3412Y2885D01*
X3411Y2885D01*
X3410Y2885D01*
X3409Y2885D01*
X3408Y2885D01*
X3407Y2885D01*
X3406Y2885D01*
X3405Y2885D01*
X3404Y2885D01*
X3403Y2885D01*
X3402Y2885D01*
X3401Y2885D01*
X3400Y2885D01*
X3399Y2885D01*
X3398Y2885D01*
X3397Y2885D01*
X3396Y2885D01*
X3395Y2885D01*
X3394Y2885D01*
X3393Y2885D01*
X3392Y2885D01*
X3391Y2885D01*
X3390Y2885D01*
X3389Y2885D01*
X3388Y2885D01*
X3387Y2885D01*
X3386Y2885D01*
X3385Y2885D01*
X3384Y2885D01*
X3383Y2885D01*
X3382Y2885D01*
X3381Y2885D01*
X3380Y2885D01*
X3379Y2885D01*
X3378Y2885D01*
X3377Y2885D01*
X3376Y2885D01*
X3375Y2885D01*
X3374Y2885D01*
X3373Y2885D01*
X3372Y2885D01*
X3371Y2885D01*
X3370Y2885D01*
X3369Y2885D01*
X3368Y2885D01*
X3367Y2885D01*
X3366Y2885D01*
X3365Y2885D01*
X3364Y2885D01*
X3363Y2885D01*
X3362Y2885D01*
X3361Y2885D01*
X3360Y2885D01*
X3359Y2885D01*
X3358Y2885D01*
X3357Y2885D01*
X3356Y2885D01*
X3355Y2885D01*
X3354Y2885D01*
X3353Y2885D01*
X3352Y2885D01*
X3351Y2885D01*
X3350Y2885D01*
X3349Y2885D01*
X3348Y2885D01*
X3347Y2885D01*
X3346Y2885D01*
X3345Y2885D01*
X3344Y2885D01*
X3343Y2885D01*
X3342Y2885D01*
X3341Y2885D01*
X3340Y2885D01*
X3339Y2885D01*
X3338Y2885D01*
X3337Y2885D01*
X3336Y2885D01*
X3335Y2885D01*
X3334Y2885D01*
X3333Y2885D01*
X3332Y2885D01*
X3331Y2885D01*
X3330Y2885D01*
X3329Y2885D01*
X3328Y2885D01*
X3327Y2885D01*
X3326Y2885D01*
X3325Y2885D01*
X3324Y2885D01*
X3323Y2885D01*
X3322Y2885D01*
X3321Y2885D01*
X3320Y2885D01*
X3319Y2885D01*
X3318Y2885D01*
X3317Y2885D01*
X3316Y2885D01*
X3315Y2885D01*
X3314Y2885D01*
X3313Y2885D01*
X3312Y2885D01*
X3311Y2885D01*
X3310Y2885D01*
X3309Y2885D01*
X3308Y2885D01*
X3307Y2885D01*
X3306Y2885D01*
X3305Y2885D01*
X3304Y2885D01*
X3303Y2885D01*
X3302Y2885D01*
X3301Y2885D01*
X3300Y2885D01*
X3299Y2885D01*
X3298Y2885D01*
X3297Y2885D01*
X3296Y2885D01*
X3295Y2885D01*
X3294Y2885D01*
X3293Y2885D01*
X3292Y2885D01*
X3291Y2885D01*
X3290Y2885D01*
X3289Y2885D01*
X3288Y2885D01*
X3287Y2885D01*
X3286Y2885D01*
X3285Y2885D01*
X3284Y2885D01*
X3283Y2885D01*
X3282Y2885D01*
X3281Y2885D01*
X3280Y2885D01*
X3279Y2885D01*
X3278Y2885D01*
X3277Y2885D01*
X3276Y2885D01*
X3275Y2885D01*
X3274Y2885D01*
X3273Y2885D01*
X3272Y2885D01*
X3271Y2885D01*
X3270Y2885D01*
X3269Y2885D01*
X3268Y2885D01*
X3267Y2885D01*
X3266Y2885D01*
X3265Y2885D01*
X3264Y2885D01*
X3263Y2885D01*
X3262Y2885D01*
X3261Y2885D01*
X3260Y2885D01*
X3259Y2885D01*
X3258Y2885D01*
X3257Y2885D01*
X3256Y2885D01*
X3255Y2885D01*
X3254Y2885D01*
X3253Y2885D01*
X3252Y2885D01*
X3251Y2885D01*
X3250Y2885D01*
X3249Y2885D01*
X3248Y2885D01*
X3247Y2885D01*
X3246Y2885D01*
X3245Y2885D01*
X3244Y2885D01*
X3243Y2885D01*
X3242Y2885D01*
X3241Y2885D01*
X3240Y2885D01*
X3239Y2885D01*
X3238Y2885D01*
X3237Y2885D01*
X3236Y2885D01*
X3235Y2885D01*
X3234Y2885D01*
X3233Y2885D01*
X3232Y2885D01*
X3231Y2885D01*
X3230Y2885D01*
X3229Y2885D01*
X3228Y2885D01*
X3227Y2885D01*
X3226Y2885D01*
X3225Y2885D01*
X3224Y2885D01*
X3223Y2885D01*
X3222Y2885D01*
X3221Y2885D01*
X3220Y2885D01*
X3219Y2885D01*
X3218Y2885D01*
X3217Y2885D01*
X3216Y2885D01*
X3215Y2885D01*
X3214Y2885D01*
X3213Y2885D01*
X3212Y2885D01*
X3211Y2885D01*
X3210Y2885D01*
X3209Y2885D01*
X3208Y2885D01*
X3207Y2885D01*
X3206Y2885D01*
X3205Y2885D01*
X3204Y2885D01*
X3203Y2885D01*
X3202Y2885D01*
X3201Y2885D01*
X3200Y2885D01*
X3199Y2885D01*
X3198Y2885D01*
X3197Y2885D01*
X3196Y2885D01*
X3195Y2885D01*
X3194Y2885D01*
X3193Y2885D01*
X3192Y2885D01*
X3191Y2885D01*
X3190Y2885D01*
X3189Y2885D01*
X3188Y2885D01*
X3187Y2885D01*
X3186Y2885D01*
X3185Y2885D01*
X3184Y2885D01*
X3183Y2885D01*
X3182Y2885D01*
X3181Y2885D01*
X3180Y2885D01*
X3179Y2885D01*
X3178Y2885D01*
X3177Y2885D01*
X3176Y2885D01*
X3175Y2885D01*
X3174Y2885D01*
X3173Y2885D01*
X3172Y2885D01*
X3171Y2885D01*
X3170Y2885D01*
X3169Y2885D01*
X3168Y2885D01*
X3167Y2885D01*
X3166Y2885D01*
X3165Y2885D01*
X3164Y2885D01*
X3163Y2885D01*
X3162Y2885D01*
X3161Y2885D01*
X3160Y2885D01*
X3159Y2885D01*
X3158Y2885D01*
X3157Y2885D01*
X3156Y2885D01*
X3155Y2885D01*
X3154Y2885D01*
X3153Y2885D01*
X3152Y2885D01*
X3151Y2885D01*
X3150Y2885D01*
X3149Y2885D01*
X3148Y2885D01*
X3147Y2885D01*
X3146Y2885D01*
X3145Y2885D01*
X3144Y2885D01*
X3143Y2885D01*
X3142Y2885D01*
X3141Y2885D01*
X3140Y2885D01*
X3139Y2885D01*
X3138Y2885D01*
X3137Y2885D01*
X3136Y2885D01*
X3135Y2885D01*
X3134Y2885D01*
X3133Y2885D01*
X3132Y2885D01*
X3131Y2885D01*
X3130Y2885D01*
X3129Y2885D01*
X3128Y2885D01*
X3127Y2885D01*
X3126Y2885D01*
X3125Y2885D01*
X3124Y2885D01*
X3123Y2885D01*
X3122Y2885D01*
X3121Y2885D01*
X3120Y2885D01*
X3119Y2885D01*
X3118Y2885D01*
X3117Y2885D01*
X3116Y2885D01*
X3115Y2885D01*
X3114Y2885D01*
X3113Y2885D01*
X3112Y2885D01*
X3111Y2885D01*
X3110Y2885D01*
X3109Y2885D01*
X3108Y2885D01*
X3107Y2885D01*
X3106Y2885D01*
X3105Y2885D01*
X3104Y2885D01*
X3103Y2885D01*
X3102Y2885D01*
X3101Y2885D01*
X3100Y2885D01*
X3099Y2885D01*
X3098Y2885D01*
X3097Y2885D01*
X3096Y2885D01*
X3095Y2885D01*
X3094Y2885D01*
X3093Y2885D01*
X3092Y2885D01*
X3091Y2885D01*
X3090Y2885D01*
X3089Y2885D01*
X3088Y2885D01*
X3087Y2885D01*
X3086Y2885D01*
X3085Y2885D01*
X3084Y2885D01*
X3083Y2885D01*
X3082Y2885D01*
X3081Y2885D01*
X3080Y2885D01*
X3079Y2885D01*
X3078Y2885D01*
X3077Y2885D01*
X3076Y2885D01*
X3075Y2885D01*
X3074Y2885D01*
X3073Y2885D01*
X3072Y2885D01*
X3071Y2885D01*
X3070Y2885D01*
X3069Y2885D01*
X3068Y2885D01*
X3067Y2885D01*
X3066Y2885D01*
X3065Y2885D01*
X3064Y2885D01*
X3063Y2885D01*
X3062Y2885D01*
X3061Y2885D01*
X3060Y2885D01*
X3059Y2885D01*
X3058Y2885D01*
X3057Y2885D01*
X3056Y2885D01*
X3055Y2885D01*
X3054Y2885D01*
X3053Y2885D01*
X3052Y2885D01*
X3051Y2885D01*
X3050Y2885D01*
X3049Y2885D01*
X3048Y2885D01*
X3047Y2885D01*
X3046Y2885D01*
X3045Y2885D01*
X3044Y2885D01*
X3043Y2885D01*
X3042Y2885D01*
X3041Y2885D01*
X3040Y2885D01*
X3039Y2885D01*
X3038Y2885D01*
X3037Y2885D01*
X3036Y2885D01*
X3035Y2885D01*
X3034Y2885D01*
X3033Y2885D01*
X3032Y2885D01*
X3031Y2885D01*
X3030Y2885D01*
X3029Y2885D01*
X3028Y2885D01*
X3027Y2885D01*
X3026Y2885D01*
X3025Y2885D01*
X3024Y2885D01*
X3023Y2885D01*
X3022Y2885D01*
X3021Y2885D01*
X3020Y2885D01*
X3019Y2885D01*
X3018Y2885D01*
X3017Y2885D01*
X3016Y2885D01*
X3015Y2885D01*
X3014Y2885D01*
X3013Y2885D01*
X3012Y2885D01*
X3011Y2885D01*
X3010Y2885D01*
X3009Y2885D01*
X3008Y2885D01*
X3007Y2885D01*
X3006Y2885D01*
X3005Y2885D01*
X3004Y2885D01*
X3003Y2885D01*
X3002Y2885D01*
X3001Y2885D01*
X3000Y2885D01*
X2999Y2885D01*
X2998Y2885D01*
X2997Y2885D01*
X2996Y2885D01*
X2995Y2885D01*
X2994Y2885D01*
X2993Y2885D01*
X2992Y2885D01*
X2991Y2885D01*
X2990Y2885D01*
X2989Y2885D01*
X2988Y2885D01*
X2987Y2885D01*
X2986Y2885D01*
X2985Y2885D01*
X2984Y2885D01*
X2983Y2885D01*
X2982Y2885D01*
X2981Y2885D01*
X2980Y2885D01*
X2979Y2885D01*
X2978Y2885D01*
X2977Y2885D01*
X2976Y2885D01*
X2975Y2885D01*
X2974Y2885D01*
X2973Y2885D01*
X2972Y2885D01*
X2971Y2885D01*
X2970Y2885D01*
X2969Y2885D01*
X2968Y2885D01*
X2967Y2885D01*
X2966Y2885D01*
X2965Y2885D01*
X2964Y2885D01*
X2963Y2885D01*
X2962Y2885D01*
X2961Y2885D01*
X2960Y2885D01*
X2959Y2885D01*
X2958Y2885D01*
X2957Y2885D01*
X2956Y2885D01*
X2955Y2885D01*
X2954Y2885D01*
X2953Y2885D01*
X2952Y2885D01*
X2951Y2885D01*
X2950Y2885D01*
X2949Y2885D01*
X2948Y2885D01*
X2947Y2885D01*
X2946Y2885D01*
X2945Y2885D01*
X2944Y2885D01*
X2943Y2885D01*
X2942Y2885D01*
X2941Y2885D01*
X2940Y2885D01*
X2939Y2885D01*
X2938Y2885D01*
X2937Y2885D01*
X2936Y2885D01*
X2935Y2885D01*
X2934Y2885D01*
X2933Y2885D01*
X2932Y2885D01*
X2931Y2885D01*
X2930Y2885D01*
X2929Y2885D01*
X2928Y2885D01*
X2927Y2885D01*
X2926Y2885D01*
X2925Y2885D01*
X2924Y2885D01*
X2923Y2885D01*
X2922Y2885D01*
X2921Y2885D01*
X2920Y2885D01*
X2919Y2885D01*
X2918Y2885D01*
X2917Y2885D01*
X2916Y2885D01*
X2915Y2885D01*
X2914Y2885D01*
X2913Y2885D01*
X2912Y2885D01*
X2911Y2885D01*
X2910Y2885D01*
X2909Y2885D01*
X2908Y2885D01*
X2907Y2885D01*
X2906Y2885D01*
X2905Y2885D01*
X2904Y2885D01*
X2903Y2885D01*
X2902Y2885D01*
X2901Y2885D01*
X2900Y2885D01*
X2899Y2885D01*
X2898Y2885D01*
X2897Y2885D01*
X2896Y2885D01*
X2895Y2885D01*
X2894Y2885D01*
X2893Y2885D01*
X2892Y2885D01*
X2891Y2885D01*
X2890Y2885D01*
X2889Y2885D01*
X2888Y2885D01*
X2887Y2885D01*
X2886Y2885D01*
X2885Y2885D01*
X2884Y2885D01*
X2883Y2885D01*
X2882Y2885D01*
X2881Y2885D01*
X2880Y2885D01*
X2879Y2885D01*
X2878Y2885D01*
X2877Y2885D01*
X2876Y2885D01*
X2875Y2885D01*
X2874Y2885D01*
X2873Y2885D01*
X2872Y2885D01*
X2871Y2885D01*
X2870Y2885D01*
X2869Y2885D01*
X2868Y2885D01*
X2867Y2885D01*
X2866Y2885D01*
X2865Y2885D01*
X2864Y2885D01*
X2863Y2885D01*
X2862Y2885D01*
X2861Y2885D01*
X2860Y2885D01*
X2859Y2885D01*
X2858Y2885D01*
X2857Y2885D01*
X2856Y2885D01*
X2855Y2885D01*
X2854Y2885D01*
X2853Y2885D01*
X2852Y2885D01*
X2851Y2885D01*
X2850Y2885D01*
X2849Y2885D01*
X2848Y2885D01*
X2847Y2885D01*
X2846Y2885D01*
X2845Y2885D01*
X2844Y2885D01*
X2843Y2885D01*
X2842Y2885D01*
X2841Y2885D01*
X2840Y2885D01*
X2839Y2885D01*
X2838Y2885D01*
X2837Y2885D01*
X2836Y2885D01*
X2835Y2885D01*
X2834Y2885D01*
X2833Y2885D01*
X2832Y2885D01*
X2831Y2885D01*
X2830Y2885D01*
X2829Y2885D01*
X2828Y2885D01*
X2827Y2885D01*
X2826Y2885D01*
X2825Y2885D01*
X2824Y2885D01*
X2823Y2885D01*
X2822Y2885D01*
X2821Y2885D01*
X2820Y2885D01*
X2819Y2885D01*
X2818Y2885D01*
X2817Y2885D01*
X2816Y2885D01*
X2815Y2885D01*
X2814Y2885D01*
X2813Y2885D01*
X2812Y2885D01*
X2811Y2885D01*
X2810Y2885D01*
X2809Y2885D01*
X2808Y2885D01*
X2807Y2885D01*
X2806Y2885D01*
X2805Y2885D01*
X2804Y2885D01*
X2803Y2885D01*
X2802Y2885D01*
X2801Y2885D01*
X2800Y2885D01*
X2799Y2885D01*
X2798Y2885D01*
X2797Y2885D01*
X2796Y2885D01*
X2795Y2885D01*
X2794Y2885D01*
X2793Y2885D01*
X2792Y2885D01*
X2791Y2885D01*
X2790Y2885D01*
X2789Y2885D01*
X2788Y2885D01*
X2787Y2885D01*
X2786Y2885D01*
X2785Y2885D01*
X2784Y2885D01*
X2783Y2885D01*
X2782Y2885D01*
X2781Y2885D01*
X2780Y2885D01*
X2779Y2885D01*
X2778Y2885D01*
X2777Y2885D01*
X2776Y2885D01*
X2775Y2885D01*
X2774Y2885D01*
X2773Y2885D01*
X2772Y2885D01*
X2771Y2885D01*
X2770Y2885D01*
X2769Y2885D01*
X2768Y2885D01*
X2767Y2885D01*
X2766Y2885D01*
X2765Y2885D01*
X2764Y2885D01*
X2763Y2885D01*
X2762Y2885D01*
X2761Y2885D01*
X2760Y2885D01*
X2759Y2885D01*
X2758Y2885D01*
X2757Y2885D01*
X2756Y2885D01*
X2755Y2885D01*
X2754Y2885D01*
X2753Y2885D01*
X2752Y2885D01*
X2751Y2885D01*
X2750Y2885D01*
X2749Y2885D01*
X2748Y2885D01*
X2747Y2885D01*
X2746Y2885D01*
X2745Y2885D01*
X2744Y2885D01*
X2743Y2885D01*
X2742Y2885D01*
X2741Y2885D01*
X2740Y2885D01*
X2739Y2885D01*
X2738Y2885D01*
X2737Y2885D01*
X2736Y2885D01*
X2735Y2885D01*
X2734Y2885D01*
X2733Y2885D01*
X2732Y2885D01*
X2731Y2885D01*
X2730Y2885D01*
X2729Y2885D01*
X2728Y2885D01*
X2727Y2885D01*
X2726Y2885D01*
X2725Y2885D01*
X2724Y2885D01*
X2723Y2885D01*
X2722Y2885D01*
X2721Y2885D01*
X2720Y2885D01*
X2719Y2885D01*
X2718Y2885D01*
X2717Y2885D01*
X2716Y2885D01*
X2715Y2885D01*
X2714Y2885D01*
X2713Y2885D01*
X2712Y2885D01*
X2711Y2885D01*
X2710Y2885D01*
X2709Y2885D01*
X2708Y2885D01*
X2707Y2885D01*
X2706Y2885D01*
X2705Y2885D01*
X2704Y2885D01*
X2703Y2885D01*
X2702Y2885D01*
X2701Y2885D01*
X2700Y2885D01*
X2699Y2885D01*
X2698Y2885D01*
X2697Y2885D01*
X2696Y2885D01*
X2695Y2885D01*
X2694Y2885D01*
X2693Y2885D01*
X2692Y2885D01*
X2691Y2885D01*
X2690Y2885D01*
X2689Y2885D01*
X2688Y2885D01*
X2687Y2885D01*
X2686Y2885D01*
X2685Y2885D01*
X2684Y2885D01*
X2683Y2885D01*
X2682Y2885D01*
X2681Y2885D01*
X2680Y2885D01*
X2679Y2885D01*
X2678Y2885D01*
X2677Y2885D01*
X2676Y2885D01*
X2675Y2885D01*
X2674Y2885D01*
X2673Y2885D01*
X2672Y2885D01*
X2671Y2885D01*
X2670Y2885D01*
X2669Y2885D01*
X2668Y2885D01*
X2667Y2885D01*
X2666Y2885D01*
X2665Y2885D01*
X2664Y2885D01*
X2663Y2885D01*
X2662Y2885D01*
X2661Y2885D01*
X2660Y2885D01*
X2659Y2885D01*
X2658Y2885D01*
X2657Y2885D01*
X2656Y2885D01*
X2655Y2885D01*
X2654Y2885D01*
X2653Y2885D01*
X2652Y2885D01*
X2651Y2885D01*
X2650Y2885D01*
X2649Y2885D01*
X2648Y2885D01*
X2647Y2885D01*
X2646Y2885D01*
X2645Y2885D01*
X2644Y2885D01*
X2643Y2885D01*
X2642Y2885D01*
X2641Y2885D01*
X2640Y2885D01*
X2639Y2885D01*
X2638Y2885D01*
X2637Y2885D01*
X2636Y2885D01*
X2635Y2885D01*
X2634Y2885D01*
X2633Y2885D01*
X2632Y2885D01*
X2631Y2885D01*
X2630Y2885D01*
X2629Y2885D01*
X2628Y2885D01*
X2627Y2885D01*
X2626Y2885D01*
X2625Y2885D01*
X2624Y2885D01*
X2623Y2885D01*
X2622Y2885D01*
X2621Y2885D01*
X2620Y2885D01*
X2619Y2885D01*
X2618Y2885D01*
X2617Y2885D01*
X2616Y2885D01*
X2615Y2885D01*
X2614Y2885D01*
X2613Y2885D01*
X2612Y2885D01*
X2611Y2885D01*
X2610Y2885D01*
X2609Y2885D01*
X2608Y2885D01*
X2607Y2885D01*
X2606Y2885D01*
X2605Y2885D01*
X2604Y2885D01*
X2603Y2885D01*
X2602Y2885D01*
X2601Y2885D01*
X2600Y2885D01*
X2599Y2885D01*
X2598Y2885D01*
X2597Y2885D01*
X2596Y2885D01*
X2595Y2885D01*
X2594Y2885D01*
X2593Y2885D01*
X2592Y2885D01*
X2591Y2885D01*
X2590Y2885D01*
X2589Y2885D01*
X2588Y2885D01*
X2587Y2885D01*
X2586Y2885D01*
X2585Y2885D01*
X2584Y2885D01*
X2583Y2885D01*
X2582Y2885D01*
X2581Y2885D01*
X2580Y2885D01*
X2579Y2885D01*
X2578Y2885D01*
X2577Y2885D01*
X2576Y2885D01*
X2575Y2885D01*
X2574Y2885D01*
X2573Y2885D01*
X2572Y2885D01*
X2571Y2885D01*
X2570Y2885D01*
X2569Y2885D01*
X2568Y2885D01*
X2567Y2885D01*
X2566Y2885D01*
X2565Y2885D01*
X2564Y2885D01*
X2563Y2885D01*
X2562Y2885D01*
X2561Y2885D01*
X2560Y2885D01*
X2559Y2885D01*
X2558Y2885D01*
X2557Y2885D01*
X2556Y2885D01*
X2555Y2885D01*
X2554Y2885D01*
X2553Y2885D01*
X2552Y2885D01*
X2551Y2885D01*
X2550Y2885D01*
X2549Y2885D01*
X2548Y2885D01*
X2547Y2885D01*
X2546Y2885D01*
X2545Y2885D01*
X2544Y2885D01*
X2543Y2885D01*
X2542Y2885D01*
X2541Y2885D01*
X2540Y2885D01*
X2539Y2885D01*
X2538Y2885D01*
X2537Y2885D01*
X2536Y2885D01*
X2535Y2885D01*
X2534Y2885D01*
X2533Y2885D01*
X2532Y2885D01*
X2531Y2885D01*
X2530Y2885D01*
X2529Y2885D01*
X2528Y2885D01*
X2527Y2885D01*
X2526Y2885D01*
X2525Y2885D01*
X2524Y2885D01*
X2523Y2885D01*
X2522Y2885D01*
X2521Y2885D01*
X2520Y2885D01*
X2519Y2885D01*
X2518Y2885D01*
X2517Y2885D01*
X2516Y2885D01*
X2515Y2885D01*
X2514Y2885D01*
X2513Y2885D01*
X2512Y2885D01*
X2511Y2885D01*
X2510Y2885D01*
X2509Y2885D01*
X2508Y2885D01*
X2507Y2885D01*
X2506Y2885D01*
X2505Y2885D01*
X2504Y2885D01*
X2503Y2885D01*
X2502Y2885D01*
X2501Y2885D01*
X2500Y2885D01*
X2499Y2885D01*
X2498Y2885D01*
X2497Y2885D01*
X2496Y2885D01*
X2495Y2885D01*
X2494Y2885D01*
X2493Y2885D01*
X2492Y2885D01*
X2491Y2885D01*
X2490Y2885D01*
X2489Y2885D01*
X2488Y2885D01*
X2487Y2885D01*
X2486Y2885D01*
X2485Y2885D01*
X2484Y2885D01*
X2483Y2885D01*
X2482Y2885D01*
X2481Y2885D01*
X2480Y2885D01*
X2479Y2885D01*
X2478Y2885D01*
X2477Y2885D01*
X2476Y2885D01*
X2475Y2885D01*
X2474Y2885D01*
X2473Y2885D01*
X2472Y2885D01*
X2471Y2885D01*
X2470Y2885D01*
X2469Y2885D01*
X2468Y2885D01*
X2467Y2885D01*
X2466Y2885D01*
X2465Y2885D01*
X2464Y2885D01*
X2463Y2885D01*
X2462Y2885D01*
X2461Y2885D01*
X2460Y2885D01*
X2459Y2885D01*
X2458Y2885D01*
X2457Y2885D01*
X2456Y2885D01*
X2455Y2885D01*
X2454Y2885D01*
X2453Y2885D01*
X2452Y2885D01*
X2451Y2885D01*
X2450Y2885D01*
X2449Y2885D01*
X2448Y2885D01*
X2447Y2885D01*
X2446Y2885D01*
X2445Y2885D01*
X2444Y2885D01*
X2443Y2885D01*
X2442Y2885D01*
X2441Y2885D01*
X2440Y2885D01*
X2439Y2885D01*
X2438Y2885D01*
X2437Y2885D01*
X2436Y2885D01*
X2435Y2885D01*
X2434Y2885D01*
X2433Y2885D01*
X2432Y2885D01*
X2431Y2885D01*
X2430Y2885D01*
X2429Y2885D01*
X2428Y2885D01*
X2427Y2885D01*
X2426Y2885D01*
X2425Y2885D01*
X2424Y2885D01*
X2423Y2885D01*
X2422Y2885D01*
X2421Y2885D01*
X2420Y2885D01*
X2419Y2885D01*
X2418Y2885D01*
X2417Y2885D01*
X2416Y2885D01*
X2415Y2885D01*
X2414Y2885D01*
X2413Y2885D01*
X2412Y2885D01*
X2411Y2885D01*
X2410Y2885D01*
X2409Y2885D01*
X2408Y2885D01*
X2407Y2885D01*
X2406Y2885D01*
X2405Y2885D01*
X2404Y2885D01*
X2403Y2885D01*
X2402Y2885D01*
X2401Y2885D01*
X2400Y2885D01*
X2399Y2885D01*
X2398Y2885D01*
X2397Y2885D01*
X2396Y2885D01*
X2395Y2885D01*
X2394Y2885D01*
X2393Y2885D01*
X2392Y2885D01*
X2391Y2885D01*
X2390Y2885D01*
X2389Y2885D01*
X2388Y2885D01*
X2387Y2885D01*
X2386Y2885D01*
X2385Y2885D01*
X2384Y2885D01*
X2383Y2885D01*
X2382Y2885D01*
X2381Y2885D01*
X2380Y2885D01*
X2379Y2885D01*
X2378Y2885D01*
X2377Y2885D01*
X2376Y2885D01*
X2375Y2885D01*
X2374Y2885D01*
X2373Y2885D01*
X2372Y2885D01*
X2371Y2885D01*
X2370Y2885D01*
X2369Y2885D01*
X2368Y2885D01*
X2367Y2885D01*
X2366Y2885D01*
X2365Y2885D01*
X2364Y2885D01*
X2363Y2885D01*
X2362Y2885D01*
X2361Y2885D01*
X2360Y2885D01*
X2359Y2885D01*
X2358Y2885D01*
X2357Y2885D01*
X2356Y2885D01*
X2355Y2885D01*
X2354Y2885D01*
X2353Y2885D01*
X2352Y2885D01*
X2351Y2885D01*
X2350Y2885D01*
X2349Y2885D01*
X2348Y2885D01*
X2347Y2885D01*
X2346Y2885D01*
X2345Y2885D01*
X2344Y2885D01*
X2343Y2885D01*
X2342Y2885D01*
X2341Y2885D01*
X2340Y2885D01*
X2339Y2885D01*
X2338Y2885D01*
X2337Y2885D01*
X2336Y2885D01*
X2335Y2885D01*
X2334Y2885D01*
X2333Y2885D01*
X2332Y2885D01*
X2331Y2885D01*
X2330Y2885D01*
X2329Y2885D01*
X2328Y2885D01*
X2327Y2885D01*
X2326Y2885D01*
X2325Y2885D01*
X2324Y2885D01*
X2323Y2885D01*
X2322Y2885D01*
X2321Y2885D01*
X2320Y2885D01*
X2319Y2885D01*
X2318Y2885D01*
X2317Y2885D01*
X2316Y2885D01*
X2315Y2885D01*
X2314Y2885D01*
X2313Y2885D01*
X2312Y2885D01*
X2311Y2885D01*
X2310Y2885D01*
X2309Y2885D01*
X2308Y2885D01*
X2307Y2885D01*
X2306Y2885D01*
X2305Y2885D01*
X2304Y2885D01*
X2303Y2885D01*
X2302Y2885D01*
X2301Y2885D01*
X2300Y2885D01*
X2299Y2885D01*
X2298Y2885D01*
X2297Y2885D01*
X2296Y2885D01*
X2295Y2885D01*
X2294Y2885D01*
X2293Y2885D01*
X2292Y2885D01*
X2291Y2885D01*
X2290Y2885D01*
X2289Y2885D01*
X2288Y2885D01*
X2287Y2885D01*
X2286Y2885D01*
X2285Y2885D01*
X2284Y2885D01*
X2283Y2885D01*
X2282Y2885D01*
X2281Y2885D01*
X2280Y2885D01*
X2279Y2885D01*
X2278Y2885D01*
X2277Y2885D01*
X2276Y2885D01*
X2275Y2885D01*
X2274Y2885D01*
X2273Y2885D01*
X2272Y2885D01*
X2271Y2885D01*
X2270Y2885D01*
X2269Y2885D01*
X2268Y2885D01*
X2267Y2885D01*
X2266Y2885D01*
X2265Y2885D01*
X2264Y2885D01*
X2263Y2885D01*
X2262Y2885D01*
X2261Y2885D01*
X2260Y2885D01*
X2259Y2885D01*
X2258Y2885D01*
X2257Y2885D01*
X2256Y2885D01*
X2255Y2885D01*
X2254Y2885D01*
X2253Y2885D01*
X2252Y2885D01*
X2251Y2885D01*
X2250Y2885D01*
X2249Y2885D01*
X2248Y2885D01*
X2247Y2885D01*
X2246Y2885D01*
X2245Y2885D01*
X2244Y2885D01*
X2243Y2885D01*
X2242Y2885D01*
X2241Y2885D01*
X2240Y2885D01*
X2239Y2885D01*
X2238Y2885D01*
X2237Y2885D01*
X2236Y2885D01*
X2235Y2885D01*
X2234Y2885D01*
X2233Y2885D01*
X2232Y2885D01*
X2231Y2885D01*
X2230Y2885D01*
X2229Y2885D01*
X2228Y2885D01*
X2227Y2885D01*
X2226Y2885D01*
X2225Y2885D01*
X2224Y2885D01*
X2223Y2885D01*
X2222Y2885D01*
X2221Y2885D01*
X2220Y2885D01*
X2219Y2885D01*
X2218Y2885D01*
X2217Y2885D01*
X2216Y2885D01*
X2215Y2885D01*
X2214Y2885D01*
X2213Y2885D01*
X2212Y2885D01*
X2211Y2885D01*
X2210Y2885D01*
X2209Y2885D01*
X2208Y2885D01*
X2207Y2885D01*
X2206Y2885D01*
X2205Y2885D01*
X2204Y2885D01*
X2203Y2885D01*
X2202Y2885D01*
X2201Y2885D01*
X2200Y2885D01*
X2199Y2885D01*
X2198Y2885D01*
X2197Y2885D01*
X2196Y2885D01*
X2195Y2885D01*
X2194Y2885D01*
X2193Y2885D01*
X2192Y2885D01*
X2191Y2885D01*
X2190Y2885D01*
X2189Y2885D01*
X2188Y2885D01*
X2187Y2885D01*
X2186Y2885D01*
X2185Y2885D01*
X2184Y2885D01*
X2183Y2885D01*
X2182Y2885D01*
X2181Y2885D01*
X2180Y2885D01*
X2179Y2885D01*
X2178Y2885D01*
X2177Y2885D01*
X2176Y2885D01*
X2175Y2885D01*
X2174Y2885D01*
X2173Y2885D01*
X2172Y2885D01*
X2171Y2885D01*
X2170Y2885D01*
X2169Y2885D01*
X2168Y2885D01*
X2167Y2885D01*
X2166Y2885D01*
X2165Y2885D01*
X2164Y2885D01*
X2163Y2885D01*
X2162Y2885D01*
X2161Y2885D01*
X2160Y2885D01*
X2159Y2885D01*
X2158Y2885D01*
X2157Y2885D01*
X2156Y2885D01*
X2155Y2885D01*
X2154Y2885D01*
X2153Y2885D01*
X2152Y2885D01*
X2151Y2885D01*
X2150Y2885D01*
X2149Y2885D01*
X2148Y2885D01*
X2147Y2885D01*
X2146Y2885D01*
X2145Y2885D01*
X2144Y2885D01*
X2143Y2885D01*
X2142Y2885D01*
X2141Y2885D01*
X2140Y2885D01*
X2139Y2885D01*
X2138Y2885D01*
X2137Y2885D01*
X2136Y2885D01*
X2135Y2885D01*
X2134Y2885D01*
X2133Y2885D01*
X2132Y2885D01*
X2131Y2885D01*
X2130Y2885D01*
X2129Y2885D01*
X2128Y2885D01*
X2127Y2885D01*
X2126Y2885D01*
X2125Y2885D01*
X2124Y2885D01*
X2123Y2885D01*
X2122Y2885D01*
X2121Y2885D01*
X2120Y2885D01*
X2119Y2885D01*
X2118Y2885D01*
X2117Y2885D01*
X2116Y2885D01*
X2115Y2885D01*
X2114Y2885D01*
X2113Y2885D01*
X2112Y2885D01*
X2111Y2885D01*
X2110Y2885D01*
X2109Y2885D01*
X2108Y2885D01*
X2107Y2885D01*
X2106Y2885D01*
X2105Y2885D01*
X2104Y2885D01*
X2103Y2885D01*
X2102Y2885D01*
X2101Y2885D01*
X2100Y2885D01*
X2099Y2885D01*
X2098Y2885D01*
X2097Y2885D01*
X2096Y2885D01*
X2095Y2885D01*
X2094Y2885D01*
X2093Y2885D01*
X2092Y2885D01*
X2091Y2885D01*
X2090Y2885D01*
X2089Y2885D01*
X2088Y2885D01*
X2087Y2885D01*
X2086Y2885D01*
X2085Y2885D01*
X2084Y2885D01*
X2083Y2885D01*
X2082Y2885D01*
X2081Y2885D01*
X2080Y2885D01*
X2079Y2885D01*
X2078Y2885D01*
X2077Y2885D01*
X2076Y2885D01*
X2075Y2885D01*
X2074Y2885D01*
X2073Y2885D01*
X2072Y2885D01*
X2071Y2885D01*
X2070Y2885D01*
X2069Y2885D01*
X2068Y2885D01*
X2067Y2885D01*
X2066Y2885D01*
X2065Y2885D01*
X2064Y2885D01*
X2063Y2885D01*
X2062Y2885D01*
X2061Y2885D01*
X2060Y2885D01*
X2059Y2885D01*
X2058Y2885D01*
X2057Y2885D01*
X2056Y2885D01*
X2055Y2885D01*
X2054Y2885D01*
X2053Y2885D01*
X2052Y2885D01*
X2051Y2885D01*
X2050Y2885D01*
X2049Y2885D01*
X2048Y2885D01*
X2047Y2885D01*
X2046Y2885D01*
X2045Y2885D01*
X2044Y2885D01*
X2043Y2885D01*
X2042Y2885D01*
X2041Y2885D01*
X2040Y2885D01*
X2039Y2885D01*
X2038Y2885D01*
X2037Y2885D01*
X2036Y2885D01*
X2035Y2885D01*
X2034Y2885D01*
X2033Y2885D01*
X2032Y2885D01*
X2031Y2885D01*
X2030Y2885D01*
X2029Y2885D01*
X2028Y2885D01*
X2027Y2885D01*
X2026Y2885D01*
X2025Y2885D01*
X2024Y2885D01*
X2023Y2885D01*
X2022Y2885D01*
X2021Y2885D01*
X2020Y2885D01*
X2019Y2885D01*
X2018Y2885D01*
X2017Y2885D01*
X2016Y2885D01*
X2015Y2885D01*
X2014Y2885D01*
X2013Y2885D01*
X2012Y2885D01*
X2011Y2885D01*
X2010Y2885D01*
X2009Y2885D01*
X2008Y2885D01*
X2007Y2885D01*
X2006Y2885D01*
X2005Y2885D01*
X2004Y2885D01*
X2003Y2885D01*
X2002Y2885D01*
X2001Y2885D01*
X2000Y2885D01*
X1999Y2885D01*
X1998Y2885D01*
X1997Y2885D01*
X1996Y2885D01*
X1995Y2885D01*
X1994Y2885D01*
X1993Y2885D01*
X1992Y2885D01*
X1991Y2885D01*
X1990Y2885D01*
X1989Y2885D01*
X1988Y2885D01*
X1987Y2885D01*
X1986Y2885D01*
X1985Y2885D01*
X1984Y2885D01*
X1983Y2885D01*
X1982Y2885D01*
X1981Y2885D01*
X1980Y2885D01*
X1979Y2885D01*
X1978Y2885D01*
X1977Y2885D01*
X1976Y2885D01*
X1975Y2885D01*
X1974Y2885D01*
X1973Y2885D01*
X1972Y2885D01*
X1971Y2885D01*
X1970Y2885D01*
X1969Y2885D01*
X1968Y2885D01*
X1967Y2885D01*
X1966Y2885D01*
X1965Y2885D01*
X1964Y2885D01*
X1963Y2885D01*
X1962Y2885D01*
X1961Y2885D01*
X1960Y2885D01*
X1959Y2885D01*
X1958Y2885D01*
X1957Y2885D01*
X1956Y2885D01*
X1955Y2885D01*
X1954Y2885D01*
X1953Y2885D01*
X1952Y2885D01*
X1951Y2885D01*
X1950Y2885D01*
X1949Y2885D01*
X1948Y2885D01*
X1947Y2885D01*
X1946Y2885D01*
X1945Y2885D01*
X1944Y2885D01*
X1943Y2885D01*
X1942Y2885D01*
X1941Y2885D01*
X1940Y2885D01*
X1939Y2885D01*
X1938Y2885D01*
X1937Y2885D01*
X1936Y2885D01*
X1935Y2885D01*
X1934Y2885D01*
X1933Y2885D01*
X1932Y2885D01*
X1931Y2885D01*
X1930Y2885D01*
X1929Y2885D01*
X1928Y2885D01*
X1927Y2885D01*
X1926Y2885D01*
X1925Y2885D01*
X1924Y2885D01*
X1923Y2885D01*
X1922Y2885D01*
X1921Y2885D01*
X1920Y2885D01*
X1919Y2885D01*
X1918Y2885D01*
X1917Y2885D01*
X1916Y2885D01*
X1915Y2885D01*
X1914Y2885D01*
X1913Y2885D01*
X1912Y2885D01*
X1911Y2885D01*
X1910Y2885D01*
X1909Y2885D01*
X1908Y2885D01*
X1907Y2885D01*
X1906Y2885D01*
X1905Y2885D01*
X1904Y2885D01*
X1903Y2885D01*
X1902Y2885D01*
X1901Y2885D01*
X1900Y2885D01*
X1899Y2885D01*
X1898Y2885D01*
X1897Y2885D01*
X1896Y2885D01*
X1895Y2885D01*
X1894Y2885D01*
X1893Y2885D01*
X1892Y2885D01*
X1891Y2885D01*
X1890Y2885D01*
X1889Y2885D01*
X1888Y2885D01*
X1887Y2885D01*
X1886Y2885D01*
X1885Y2885D01*
X1884Y2885D01*
X1883Y2885D01*
X1882Y2885D01*
X1881Y2885D01*
X1880Y2885D01*
X1879Y2885D01*
X1878Y2885D01*
X1877Y2885D01*
X1876Y2885D01*
X1875Y2885D01*
X1874Y2885D01*
X1873Y2885D01*
X1872Y2885D01*
X1871Y2885D01*
X1870Y2885D01*
X1869Y2885D01*
X1868Y2885D01*
X1867Y2885D01*
X1866Y2885D01*
X1865Y2885D01*
X1864Y2885D01*
X1863Y2885D01*
X1862Y2885D01*
X1861Y2885D01*
X1860Y2885D01*
X1859Y2885D01*
X1858Y2885D01*
X1857Y2885D01*
X1856Y2885D01*
X1855Y2885D01*
X1854Y2885D01*
X1853Y2885D01*
X1852Y2885D01*
X1851Y2885D01*
X1850Y2885D01*
X1849Y2885D01*
X1848Y2885D01*
X1847Y2885D01*
X1846Y2885D01*
X1845Y2885D01*
X1844Y2885D01*
X1843Y2885D01*
X1842Y2885D01*
X1841Y2885D01*
X1840Y2885D01*
X1839Y2885D01*
X1838Y2885D01*
X1837Y2885D01*
X1836Y2885D01*
X1835Y2885D01*
X1834Y2885D01*
X1833Y2885D01*
X1832Y2885D01*
X1831Y2885D01*
X1830Y2885D01*
X1829Y2885D01*
X1828Y2885D01*
X1827Y2885D01*
X1826Y2885D01*
X1825Y2885D01*
X1824Y2885D01*
X1823Y2885D01*
X1822Y2885D01*
X1821Y2885D01*
X1820Y2885D01*
X1819Y2885D01*
X1818Y2885D01*
X1817Y2885D01*
X1816Y2885D01*
X1815Y2885D01*
X1814Y2885D01*
X1813Y2885D01*
X1812Y2885D01*
X1811Y2885D01*
X1810Y2885D01*
X1809Y2885D01*
X1808Y2885D01*
X1807Y2885D01*
X1806Y2885D01*
X1805Y2885D01*
X1804Y2885D01*
X1803Y2885D01*
X1802Y2885D01*
X1801Y2885D01*
X1800Y2885D01*
X1799Y2885D01*
X1798Y2885D01*
X1797Y2885D01*
X1796Y2885D01*
X1795Y2885D01*
X1794Y2885D01*
X1793Y2885D01*
X1792Y2885D01*
X1791Y2885D01*
X1790Y2885D01*
X1789Y2885D01*
X1788Y2885D01*
X1787Y2885D01*
X1786Y2885D01*
X1785Y2885D01*
X1784Y2885D01*
X1783Y2885D01*
X1782Y2885D01*
X1781Y2885D01*
X1780Y2885D01*
X1779Y2885D01*
X1778Y2885D01*
X1777Y2885D01*
X1776Y2885D01*
X1775Y2885D01*
X1774Y2885D01*
X1773Y2885D01*
X1772Y2885D01*
X1771Y2885D01*
X1770Y2885D01*
X1769Y2885D01*
X1768Y2885D01*
X1767Y2885D01*
X1766Y2885D01*
X1765Y2885D01*
X1764Y2885D01*
X1763Y2885D01*
X1762Y2885D01*
X1761Y2885D01*
X1760Y2885D01*
X1759Y2885D01*
X1758Y2885D01*
X1757Y2885D01*
X1756Y2885D01*
X1755Y2885D01*
X1754Y2885D01*
X1753Y2885D01*
X1752Y2885D01*
X1751Y2885D01*
X1750Y2885D01*
X1749Y2885D01*
X1748Y2885D01*
X1747Y2885D01*
X1746Y2885D01*
X1745Y2885D01*
X1744Y2885D01*
X1743Y2885D01*
X1742Y2885D01*
X1741Y2885D01*
X1740Y2885D01*
X1739Y2885D01*
X1738Y2885D01*
X1737Y2885D01*
X1736Y2885D01*
X1735Y2885D01*
X1734Y2885D01*
X1733Y2885D01*
X1732Y2885D01*
X1731Y2885D01*
X1730Y2885D01*
X1729Y2885D01*
X1728Y2885D01*
X1727Y2885D01*
X1726Y2885D01*
X1725Y2885D01*
X1724Y2885D01*
X1723Y2885D01*
X1722Y2885D01*
X1721Y2885D01*
X1720Y2885D01*
X1719Y2885D01*
X1718Y2885D01*
X1717Y2885D01*
X1716Y2885D01*
X1715Y2885D01*
X1714Y2885D01*
X1713Y2885D01*
X1712Y2885D01*
X1711Y2885D01*
X1710Y2885D01*
X1709Y2885D01*
X1708Y2885D01*
X1707Y2885D01*
X1706Y2885D01*
X1705Y2885D01*
X1704Y2885D01*
X1703Y2885D01*
X1702Y2885D01*
X1701Y2885D01*
X1700Y2885D01*
X1699Y2885D01*
X1698Y2885D01*
X1697Y2885D01*
X1696Y2885D01*
X1695Y2885D01*
X1694Y2885D01*
X1693Y2885D01*
X1692Y2885D01*
X1691Y2885D01*
X1690Y2885D01*
X1689Y2885D01*
X1688Y2885D01*
X1687Y2885D01*
X1686Y2885D01*
X1685Y2885D01*
X1684Y2885D01*
X1683Y2885D01*
X1682Y2885D01*
X1681Y2885D01*
X1680Y2885D01*
X1679Y2885D01*
X1678Y2885D01*
X1677Y2885D01*
X1676Y2885D01*
X1675Y2885D01*
X1674Y2885D01*
X1673Y2885D01*
X1672Y2885D01*
X1671Y2885D01*
X1670Y2885D01*
X1669Y2885D01*
X1668Y2885D01*
X1667Y2885D01*
X1666Y2885D01*
X1665Y2885D01*
X1664Y2885D01*
X1663Y2885D01*
X1662Y2885D01*
X1661Y2885D01*
X1660Y2885D01*
X1659Y2885D01*
X1658Y2885D01*
X1657Y2885D01*
X1656Y2885D01*
X1655Y2885D01*
X1654Y2885D01*
X1653Y2885D01*
X1652Y2885D01*
X1651Y2885D01*
X1650Y2885D01*
X1649Y2885D01*
X1648Y2885D01*
X1647Y2885D01*
X1646Y2885D01*
X1645Y2885D01*
X1644Y2885D01*
X1643Y2885D01*
X1642Y2885D01*
X1641Y2885D01*
X1640Y2885D01*
X1639Y2885D01*
X1638Y2885D01*
X1637Y2885D01*
X1636Y2885D01*
X1635Y2885D01*
X1634Y2885D01*
X1633Y2885D01*
X1632Y2885D01*
X1631Y2885D01*
X1630Y2885D01*
X1629Y2885D01*
X1628Y2885D01*
X1627Y2885D01*
X1626Y2885D01*
X1625Y2885D01*
X1624Y2885D01*
X1623Y2885D01*
X1622Y2885D01*
X1621Y2885D01*
X1620Y2885D01*
X1619Y2885D01*
X1618Y2885D01*
X1617Y2885D01*
X1616Y2885D01*
X1615Y2885D01*
X1614Y2885D01*
X1613Y2885D01*
X1612Y2885D01*
X1611Y2885D01*
X1610Y2885D01*
X1609Y2885D01*
X1608Y2885D01*
X1607Y2885D01*
X1606Y2885D01*
X1605Y2885D01*
X1604Y2885D01*
X1603Y2885D01*
X1602Y2885D01*
X1601Y2885D01*
X1600Y2885D01*
X1599Y2885D01*
X1598Y2885D01*
X1597Y2885D01*
X1596Y2885D01*
X1595Y2885D01*
X1594Y2885D01*
X1593Y2885D01*
X1592Y2885D01*
X1591Y2885D01*
X1590Y2885D01*
X1589Y2885D01*
X1588Y2885D01*
X1587Y2885D01*
X1586Y2885D01*
X1585Y2885D01*
X1584Y2885D01*
X1583Y2885D01*
X1582Y2885D01*
X1581Y2885D01*
X1580Y2885D01*
X1579Y2885D01*
X1578Y2885D01*
X1577Y2885D01*
X1576Y2885D01*
X1575Y2885D01*
X1574Y2885D01*
X1573Y2885D01*
X1572Y2885D01*
X1571Y2885D01*
X1570Y2885D01*
X1569Y2885D01*
X1568Y2885D01*
X1567Y2885D01*
X1566Y2885D01*
X1565Y2885D01*
X1564Y2885D01*
X1563Y2885D01*
X1562Y2885D01*
X1561Y2885D01*
X1560Y2885D01*
X1559Y2885D01*
X1558Y2885D01*
X1557Y2885D01*
X1556Y2885D01*
X1555Y2885D01*
X1554Y2885D01*
X1553Y2885D01*
X1552Y2885D01*
X1551Y2885D01*
X1550Y2885D01*
X1549Y2885D01*
X1548Y2885D01*
X1547Y2885D01*
X1546Y2885D01*
X1545Y2885D01*
X1544Y2885D01*
X1543Y2885D01*
X1542Y2885D01*
X1541Y2885D01*
X1540Y2885D01*
X1539Y2885D01*
X1538Y2885D01*
X1537Y2885D01*
X1536Y2885D01*
X1535Y2885D01*
X1534Y2885D01*
X1533Y2885D01*
X1532Y2885D01*
X1531Y2885D01*
X1530Y2885D01*
X1529Y2885D01*
X1528Y2885D01*
X1527Y2885D01*
X1526Y2885D01*
X1525Y2885D01*
X1524Y2885D01*
X1523Y2885D01*
X1522Y2885D01*
X1521Y2885D01*
X1520Y2885D01*
X1519Y2885D01*
X1518Y2885D01*
X1517Y2885D01*
X1516Y2885D01*
X1515Y2885D01*
X1514Y2885D01*
X1513Y2885D01*
X1512Y2885D01*
X1511Y2885D01*
X1510Y2885D01*
X1509Y2885D01*
X1508Y2885D01*
X1507Y2885D01*
X1506Y2885D01*
X1505Y2885D01*
X1504Y2885D01*
X1503Y2885D01*
X1502Y2885D01*
X1501Y2885D01*
X1500Y2885D01*
X1499Y2885D01*
X1498Y2885D01*
X1497Y2885D01*
X1496Y2885D01*
X1495Y2885D01*
X1494Y2885D01*
X1493Y2885D01*
X1492Y2885D01*
X1491Y2885D01*
X1490Y2885D01*
X1489Y2885D01*
X1488Y2885D01*
X1487Y2885D01*
X1486Y2885D01*
X1485Y2885D01*
X1484Y2885D01*
X1483Y2885D01*
X1482Y2885D01*
X1481Y2885D01*
X1480Y2885D01*
X1479Y2885D01*
X1478Y2885D01*
X1477Y2885D01*
X1476Y2885D01*
X1475Y2885D01*
X1474Y2885D01*
X1473Y2885D01*
X1472Y2885D01*
X1471Y2885D01*
X1470Y2885D01*
X1469Y2885D01*
X1468Y2885D01*
X1467Y2885D01*
X1466Y2885D01*
X1465Y2885D01*
X1464Y2885D01*
X1463Y2885D01*
X1462Y2885D01*
X1461Y2885D01*
X1460Y2885D01*
X1459Y2885D01*
X1458Y2885D01*
X1457Y2885D01*
X1456Y2885D01*
X1455Y2885D01*
X1454Y2885D01*
X1453Y2885D01*
X1452Y2885D01*
X1451Y2885D01*
X1450Y2885D01*
X1449Y2885D01*
X1448Y2885D01*
X1447Y2885D01*
X1446Y2885D01*
X1445Y2885D01*
X1444Y2885D01*
X1443Y2885D01*
X1442Y2885D01*
X1441Y2885D01*
X1440Y2885D01*
X1439Y2885D01*
X1438Y2885D01*
X1437Y2885D01*
X1436Y2885D01*
X1435Y2885D01*
X1434Y2885D01*
X1433Y2885D01*
X1432Y2885D01*
X1431Y2885D01*
X1430Y2885D01*
X1429Y2885D01*
X1428Y2885D01*
X1427Y2885D01*
X1426Y2885D01*
X1425Y2885D01*
X1424Y2885D01*
X1423Y2885D01*
X1422Y2885D01*
X1421Y2885D01*
X1420Y2885D01*
X1419Y2885D01*
X1418Y2885D01*
X1417Y2885D01*
X1416Y2885D01*
X1415Y2885D01*
X1414Y2885D01*
X1413Y2885D01*
X1412Y2885D01*
X1411Y2885D01*
X1410Y2885D01*
X1409Y2885D01*
X1408Y2885D01*
X1407Y2885D01*
X1406Y2885D01*
X1405Y2885D01*
X1404Y2885D01*
X1403Y2885D01*
X1402Y2885D01*
X1401Y2885D01*
X1400Y2885D01*
X1399Y2885D01*
X1398Y2885D01*
X1397Y2885D01*
X1396Y2885D01*
X1395Y2885D01*
X1394Y2885D01*
X1393Y2885D01*
X1392Y2885D01*
X1391Y2885D01*
X1390Y2885D01*
X1389Y2885D01*
X1388Y2885D01*
X1387Y2885D01*
X1386Y2885D01*
X1385Y2885D01*
X1384Y2885D01*
X1383Y2885D01*
X1382Y2885D01*
X1381Y2885D01*
X1380Y2885D01*
X1379Y2885D01*
X1378Y2885D01*
X1377Y2885D01*
X1376Y2885D01*
X1375Y2885D01*
X1374Y2885D01*
X1373Y2885D01*
X1372Y2885D01*
X1371Y2885D01*
X1370Y2885D01*
X1369Y2885D01*
X1368Y2885D01*
X1367Y2885D01*
X1366Y2885D01*
X1365Y2885D01*
X1364Y2885D01*
X1363Y2885D01*
X1362Y2885D01*
X1361Y2885D01*
X1360Y2885D01*
X1359Y2885D01*
X1358Y2885D01*
X1357Y2885D01*
X1356Y2885D01*
X1355Y2885D01*
X1354Y2885D01*
X1353Y2885D01*
X1352Y2885D01*
X1351Y2885D01*
X1350Y2885D01*
X1349Y2885D01*
X1348Y2885D01*
X1347Y2885D01*
X1346Y2885D01*
X1345Y2885D01*
X1344Y2885D01*
X1343Y2885D01*
X1342Y2885D01*
X1341Y2885D01*
X1340Y2885D01*
X1339Y2885D01*
X1338Y2885D01*
X1337Y2885D01*
X1336Y2885D01*
X1335Y2885D01*
X1334Y2885D01*
X1333Y2885D01*
X1332Y2885D01*
X1331Y2885D01*
X1330Y2885D01*
X1329Y2885D01*
X1328Y2885D01*
X1327Y2885D01*
X1326Y2885D01*
X1325Y2885D01*
X1324Y2885D01*
X1323Y2885D01*
X1322Y2885D01*
X1321Y2885D01*
X1320Y2885D01*
X1319Y2885D01*
X1318Y2885D01*
X1317Y2885D01*
X1316Y2885D01*
X1315Y2885D01*
X1314Y2885D01*
X1313Y2885D01*
X1312Y2885D01*
X1311Y2885D01*
X1310Y2885D01*
X1309Y2885D01*
X1308Y2885D01*
X1307Y2885D01*
X1306Y2885D01*
X1305Y2885D01*
X1304Y2885D01*
X1303Y2885D01*
X1302Y2885D01*
X1301Y2885D01*
X1300Y2885D01*
X1299Y2885D01*
X1298Y2885D01*
X1297Y2885D01*
X1296Y2885D01*
X1295Y2885D01*
X1294Y2885D01*
X1293Y2885D01*
X1292Y2885D01*
X1291Y2885D01*
X1290Y2885D01*
X1289Y2885D01*
X1288Y2885D01*
X1287Y2885D01*
X1286Y2885D01*
X1285Y2885D01*
X1284Y2885D01*
X1283Y2885D01*
X1282Y2885D01*
X1281Y2885D01*
X1280Y2885D01*
X1279Y2885D01*
X1278Y2885D01*
X1277Y2885D01*
X1276Y2885D01*
X1275Y2885D01*
X1274Y2885D01*
X1273Y2885D01*
X1272Y2885D01*
X1271Y2885D01*
X1270Y2885D01*
X1269Y2885D01*
X1268Y2885D01*
X1267Y2885D01*
X1266Y2885D01*
X1265Y2885D01*
X1264Y2885D01*
X1263Y2885D01*
X1262Y2885D01*
X1261Y2885D01*
X1260Y2885D01*
X1259Y2885D01*
X1258Y2885D01*
X1257Y2885D01*
X1256Y2885D01*
X1255Y2885D01*
X1254Y2885D01*
X1253Y2885D01*
X1252Y2885D01*
X1251Y2885D01*
X1250Y2885D01*
X1249Y2885D01*
X1248Y2885D01*
X1247Y2885D01*
X1246Y2885D01*
X1245Y2885D01*
X1244Y2885D01*
X1243Y2885D01*
X1242Y2885D01*
X1241Y2885D01*
X1240Y2885D01*
X1239Y2885D01*
X1238Y2885D01*
X1237Y2885D01*
X1236Y2885D01*
X1235Y2885D01*
X1234Y2885D01*
X1233Y2885D01*
X1232Y2885D01*
X1231Y2885D01*
X1230Y2885D01*
X1229Y2885D01*
X1228Y2885D01*
X1227Y2885D01*
X1226Y2885D01*
X1225Y2885D01*
X1224Y2885D01*
X1223Y2885D01*
X1222Y2885D01*
X1221Y2885D01*
X1220Y2885D01*
X1219Y2885D01*
X1218Y2885D01*
X1217Y2885D01*
X1216Y2885D01*
X1215Y2885D01*
X1214Y2885D01*
X1213Y2885D01*
X1212Y2885D01*
X1211Y2885D01*
X1210Y2885D01*
X1209Y2885D01*
X1208Y2885D01*
X1207Y2885D01*
X1206Y2885D01*
X1205Y2885D01*
X1204Y2885D01*
X1203Y2885D01*
X1202Y2885D01*
X1201Y2885D01*
X1200Y2885D01*
X1199Y2885D01*
X1198Y2885D01*
X1197Y2885D01*
X1196Y2885D01*
X1195Y2885D01*
X1194Y2885D01*
X1193Y2885D01*
X1192Y2885D01*
X1191Y2885D01*
X1190Y2885D01*
X1189Y2885D01*
X1188Y2885D01*
X1187Y2885D01*
X1186Y2885D01*
X1185Y2885D01*
X1184Y2885D01*
X1183Y2885D01*
X1182Y2885D01*
X1181Y2885D01*
X1180Y2885D01*
X1179Y2885D01*
X1178Y2885D01*
X1177Y2885D01*
X1176Y2885D01*
X1175Y2885D01*
X1174Y2885D01*
X1173Y2885D01*
X1172Y2885D01*
X1171Y2885D01*
X1170Y2885D01*
X1169Y2885D01*
X1168Y2885D01*
X1167Y2885D01*
X1166Y2885D01*
X1165Y2885D01*
X1164Y2885D01*
X1163Y2885D01*
X1162Y2885D01*
X1161Y2885D01*
X1160Y2885D01*
X1159Y2885D01*
X1158Y2885D01*
X1157Y2885D01*
X1156Y2885D01*
X1155Y2885D01*
X1154Y2885D01*
X1153Y2885D01*
X1152Y2885D01*
X1151Y2885D01*
X1150Y2885D01*
X1149Y2885D01*
X1148Y2885D01*
X1147Y2885D01*
X1146Y2885D01*
X1145Y2885D01*
X1144Y2885D01*
X1143Y2885D01*
X1142Y2885D01*
X1141Y2885D01*
X1140Y2885D01*
X1139Y2885D01*
X1138Y2885D01*
X1137Y2885D01*
X1136Y2885D01*
X1135Y2885D01*
X1134Y2885D01*
X1133Y2885D01*
X1132Y2885D01*
X1131Y2885D01*
X1130Y2885D01*
X1129Y2885D01*
X1128Y2885D01*
X1127Y2885D01*
X1126Y2885D01*
X1125Y2885D01*
X1124Y2885D01*
X1123Y2885D01*
X1122Y2885D01*
X1121Y2885D01*
X1120Y2885D01*
X1119Y2885D01*
X1118Y2885D01*
X1117Y2885D01*
X1116Y2885D01*
X1115Y2885D01*
X1114Y2885D01*
X1113Y2885D01*
X1112Y2885D01*
X1111Y2885D01*
X1110Y2885D01*
X1109Y2885D01*
X1108Y2885D01*
X1107Y2885D01*
X1106Y2885D01*
X1105Y2885D01*
X1104Y2885D01*
X1103Y2885D01*
X1102Y2885D01*
X1101Y2885D01*
X1100Y2885D01*
X1099Y2885D01*
X1098Y2885D01*
X1097Y2885D01*
X1096Y2885D01*
X1095Y2885D01*
X1094Y2885D01*
X1093Y2885D01*
X1092Y2885D01*
X1091Y2885D01*
X1090Y2885D01*
X1089Y2885D01*
X1088Y2885D01*
X1087Y2885D01*
X1086Y2885D01*
X1085Y2885D01*
X1084Y2885D01*
X1083Y2885D01*
X1082Y2885D01*
X1081Y2885D01*
X1080Y2885D01*
X1079Y2885D01*
X1078Y2885D01*
X1077Y2885D01*
X1076Y2885D01*
X1075Y2885D01*
X1074Y2885D01*
X1073Y2885D01*
X1072Y2885D01*
X1071Y2885D01*
X1070Y2885D01*
X1069Y2885D01*
X1068Y2885D01*
X1067Y2885D01*
X1066Y2885D01*
X1065Y2885D01*
X1064Y2885D01*
X1063Y2885D01*
X1062Y2885D01*
X1061Y2885D01*
X1060Y2885D01*
X1059Y2885D01*
X1058Y2885D01*
X1057Y2885D01*
X1056Y2885D01*
X1055Y2885D01*
X1054Y2885D01*
X1053Y2885D01*
X1052Y2885D01*
X1051Y2885D01*
X1050Y2885D01*
X1049Y2885D01*
X1048Y2885D01*
X1047Y2885D01*
X1046Y2885D01*
X1045Y2885D01*
X1044Y2885D01*
X1043Y2885D01*
X1042Y2885D01*
X1041Y2885D01*
X1040Y2885D01*
X1039Y2885D01*
X1038Y2885D01*
X1037Y2885D01*
X1036Y2885D01*
X1035Y2885D01*
X1034Y2885D01*
X1033Y2885D01*
X1032Y2885D01*
X1031Y2885D01*
X1030Y2885D01*
X1029Y2885D01*
X1028Y2885D01*
X1027Y2885D01*
X1026Y2885D01*
X1025Y2885D01*
X1024Y2885D01*
X1023Y2885D01*
X1022Y2885D01*
X1021Y2885D01*
X1020Y2885D01*
X1019Y2885D01*
X1018Y2885D01*
X1017Y2885D01*
X1016Y2885D01*
X1015Y2885D01*
X1014Y2885D01*
X1013Y2885D01*
X1012Y2885D01*
X1011Y2885D01*
X1010Y2885D01*
X1009Y2885D01*
X1008Y2885D01*
X1007Y2885D01*
X1006Y2885D01*
X1005Y2885D01*
X1004Y2885D01*
X1003Y2885D01*
X1002Y2885D01*
X1001Y2885D01*
X1000Y2885D01*
X999Y2885D01*
X998Y2885D01*
X997Y2885D01*
X996Y2885D01*
X995Y2885D01*
X994Y2885D01*
X993Y2885D01*
X992Y2885D01*
X991Y2885D01*
X990Y2885D01*
X989Y2885D01*
X988Y2885D01*
X987Y2885D01*
X986Y2885D01*
X985Y2885D01*
X984Y2885D01*
X983Y2885D01*
X982Y2885D01*
X981Y2885D01*
X980Y2885D01*
X979Y2885D01*
X978Y2885D01*
X977Y2885D01*
X976Y2885D01*
X975Y2885D01*
X974Y2885D01*
X973Y2885D01*
X972Y2885D01*
X971Y2885D01*
X970Y2885D01*
X969Y2885D01*
X968Y2885D01*
X967Y2885D01*
X966Y2885D01*
X965Y2885D01*
X964Y2885D01*
X963Y2885D01*
X962Y2885D01*
X961Y2885D01*
X960Y2885D01*
X959Y2885D01*
X958Y2885D01*
X957Y2885D01*
X956Y2885D01*
X955Y2885D01*
X954Y2885D01*
X953Y2885D01*
X952Y2885D01*
X951Y2885D01*
X950Y2885D01*
X949Y2885D01*
X948Y2885D01*
X947Y2885D01*
X946Y2885D01*
X945Y2885D01*
X944Y2885D01*
X943Y2885D01*
X942Y2885D01*
X941Y2885D01*
X940Y2885D01*
X939Y2885D01*
X938Y2885D01*
X937Y2885D01*
X936Y2885D01*
X935Y2885D01*
X934Y2885D01*
X933Y2885D01*
X932Y2885D01*
X931Y2885D01*
X930Y2885D01*
X929Y2885D01*
X928Y2885D01*
X927Y2885D01*
X926Y2885D01*
X925Y2885D01*
X924Y2885D01*
X923Y2885D01*
X922Y2885D01*
X921Y2885D01*
X920Y2885D01*
X919Y2885D01*
X918Y2885D01*
X917Y2885D01*
X916Y2885D01*
X915Y2885D01*
X914Y2885D01*
X913Y2885D01*
X912Y2885D01*
X911Y2885D01*
X910Y2885D01*
X909Y2885D01*
X908Y2885D01*
X907Y2885D01*
X906Y2885D01*
X905Y2885D01*
X904Y2885D01*
X903Y2885D01*
X902Y2885D01*
X901Y2885D01*
X900Y2885D01*
X899Y2885D01*
X898Y2885D01*
X897Y2885D01*
X896Y2885D01*
X895Y2885D01*
X894Y2885D01*
X893Y2885D01*
X892Y2885D01*
X891Y2885D01*
X890Y2885D01*
X889Y2885D01*
X888Y2885D01*
X887Y2885D01*
X886Y2885D01*
X885Y2885D01*
X884Y2885D01*
X883Y2885D01*
X882Y2885D01*
X881Y2885D01*
X880Y2885D01*
X879Y2885D01*
X878Y2885D01*
X877Y2885D01*
X876Y2885D01*
X875Y2885D01*
X874Y2885D01*
X873Y2885D01*
X872Y2885D01*
X871Y2885D01*
X870Y2885D01*
X869Y2885D01*
X868Y2885D01*
X867Y2885D01*
X866Y2885D01*
X865Y2885D01*
X864Y2885D01*
X863Y2885D01*
X862Y2885D01*
X861Y2885D01*
X860Y2885D01*
X859Y2885D01*
X858Y2885D01*
X857Y2885D01*
X856Y2885D01*
X855Y2885D01*
X854Y2885D01*
X853Y2885D01*
X852Y2885D01*
X851Y2885D01*
X850Y2885D01*
X849Y2885D01*
X848Y2885D01*
X847Y2885D01*
X846Y2885D01*
X845Y2885D01*
X844Y2885D01*
X843Y2885D01*
X842Y2885D01*
X841Y2885D01*
X840Y2885D01*
X839Y2885D01*
X838Y2885D01*
X837Y2885D01*
X836Y2885D01*
X835Y2885D01*
X834Y2885D01*
X833Y2885D01*
X832Y2885D01*
X831Y2885D01*
X830Y2885D01*
X829Y2885D01*
X828Y2885D01*
X827Y2885D01*
X826Y2885D01*
X825Y2885D01*
X824Y2885D01*
X823Y2885D01*
X822Y2885D01*
X821Y2885D01*
X820Y2885D01*
X819Y2885D01*
X818Y2885D01*
X817Y2885D01*
X816Y2885D01*
X815Y2885D01*
X814Y2885D01*
X813Y2885D01*
X812Y2885D01*
X811Y2885D01*
X810Y2885D01*
X809Y2885D01*
X808Y2885D01*
X807Y2885D01*
X806Y2885D01*
X805Y2885D01*
X804Y2885D01*
X803Y2885D01*
X802Y2885D01*
X801Y2885D01*
X800Y2885D01*
X799Y2885D01*
X798Y2885D01*
X797Y2885D01*
X796Y2885D01*
X795Y2885D01*
X794Y2885D01*
X793Y2885D01*
X792Y2885D01*
X791Y2885D01*
X790Y2885D01*
X789Y2885D01*
X788Y2885D01*
X787Y2885D01*
X786Y2885D01*
X785Y2885D01*
X784Y2885D01*
X783Y2885D01*
X782Y2885D01*
X781Y2885D01*
X780Y2885D01*
X779Y2885D01*
X778Y2885D01*
X777Y2885D01*
X776Y2885D01*
X775Y2885D01*
X774Y2885D01*
X773Y2885D01*
X772Y2885D01*
X771Y2885D01*
X770Y2885D01*
X769Y2885D01*
X768Y2885D01*
X767Y2885D01*
X766Y2885D01*
X765Y2885D01*
X764Y2885D01*
X763Y2885D01*
X762Y2885D01*
X761Y2885D01*
X760Y2885D01*
X759Y2885D01*
X758Y2885D01*
X757Y2885D01*
X756Y2885D01*
X755Y2885D01*
X754Y2885D01*
X753Y2885D01*
X752Y2885D01*
X751Y2885D01*
X750Y2885D01*
X749Y2885D01*
X748Y2885D01*
X747Y2885D01*
X746Y2885D01*
X745Y2885D01*
X744Y2885D01*
X743Y2885D01*
X742Y2885D01*
X741Y2885D01*
X740Y2885D01*
X739Y2885D01*
X738Y2885D01*
X737Y2885D01*
X736Y2885D01*
X735Y2885D01*
X734Y2885D01*
X733Y2885D01*
X732Y2885D01*
X731Y2885D01*
X730Y2885D01*
X729Y2885D01*
X728Y2885D01*
X727Y2885D01*
X726Y2885D01*
X725Y2885D01*
X724Y2885D01*
X723Y2885D01*
X722Y2885D01*
X721Y2885D01*
X720Y2885D01*
X719Y2885D01*
X718Y2885D01*
X717Y2885D01*
X716Y2885D01*
X715Y2885D01*
X714Y2885D01*
X713Y2885D01*
X712Y2885D01*
X711Y2885D01*
X710Y2885D01*
X709Y2885D01*
X708Y2885D01*
X707Y2885D01*
X706Y2885D01*
X705Y2885D01*
X704Y2885D01*
X703Y2885D01*
X702Y2885D01*
X701Y2885D01*
X700Y2885D01*
X699Y2885D01*
X698Y2885D01*
X697Y2885D01*
X696Y2885D01*
X695Y2885D01*
X694Y2885D01*
X693Y2885D01*
X692Y2885D01*
X691Y2885D01*
X690Y2885D01*
X689Y2885D01*
X688Y2885D01*
X687Y2885D01*
X686Y2885D01*
X685Y2885D01*
X684Y2885D01*
X683Y2885D01*
X682Y2885D01*
X681Y2885D01*
X680Y2885D01*
X679Y2885D01*
X678Y2885D01*
X677Y2885D01*
X676Y2885D01*
X675Y2885D01*
X674Y2885D01*
X673Y2885D01*
X672Y2885D01*
X671Y2885D01*
X670Y2885D01*
X669Y2885D01*
X668Y2885D01*
X667Y2885D01*
X666Y2885D01*
X665Y2885D01*
X664Y2885D01*
X663Y2885D01*
X662Y2885D01*
X661Y2885D01*
X660Y2885D01*
X659Y2885D01*
X658Y2885D01*
X657Y2885D01*
X656Y2885D01*
X655Y2885D01*
X654Y2885D01*
X653Y2885D01*
X652Y2885D01*
X651Y2885D01*
X650Y2885D01*
X649Y2885D01*
X648Y2885D01*
X647Y2885D01*
X646Y2885D01*
X645Y2885D01*
X644Y2885D01*
X643Y2885D01*
X642Y2885D01*
X641Y2885D01*
X640Y2885D01*
X639Y2885D01*
X638Y2885D01*
X637Y2885D01*
X636Y2885D01*
X635Y2885D01*
X634Y2885D01*
X633Y2885D01*
X632Y2885D01*
X631Y2885D01*
X630Y2885D01*
X629Y2885D01*
X628Y2885D01*
X627Y2885D01*
X626Y2885D01*
X625Y2885D01*
X624Y2885D01*
X623Y2885D01*
X622Y2885D01*
X621Y2885D01*
X620Y2885D01*
X619Y2885D01*
X618Y2885D01*
X617Y2885D01*
X616Y2885D01*
X615Y2885D01*
X614Y2885D01*
X613Y2885D01*
X612Y2885D01*
X611Y2885D01*
X610Y2885D01*
X609Y2885D01*
X608Y2885D01*
X607Y2885D01*
X606Y2885D01*
X605Y2885D01*
X604Y2885D01*
X603Y2885D01*
X602Y2885D01*
X601Y2885D01*
X600Y2885D01*
X599Y2885D01*
X598Y2885D01*
X597Y2885D01*
X596Y2885D01*
X595Y2885D01*
X594Y2885D01*
X593Y2885D01*
X592Y2885D01*
X591Y2885D01*
X590Y2885D01*
X589Y2885D01*
X588Y2885D01*
X587Y2885D01*
X586Y2885D01*
X585Y2885D01*
X584Y2885D01*
X583Y2885D01*
X582Y2885D01*
X581Y2885D01*
X580Y2885D01*
X579Y2885D01*
X578Y2885D01*
X577Y2885D01*
X576Y2885D01*
X575Y2885D01*
X574Y2885D01*
X573Y2885D01*
X572Y2885D01*
X571Y2885D01*
X570Y2885D01*
X569Y2885D01*
X568Y2885D01*
X567Y2885D01*
X566Y2885D01*
X565Y2885D01*
X564Y2885D01*
X563Y2885D01*
X562Y2885D01*
X561Y2885D01*
X560Y2885D01*
X559Y2885D01*
X558Y2885D01*
X557Y2885D01*
X556Y2885D01*
X555Y2885D01*
X554Y2885D01*
X553Y2885D01*
X552Y2885D01*
X551Y2885D01*
X550Y2885D01*
X549Y2885D01*
X548Y2885D01*
X547Y2885D01*
X546Y2885D01*
X545Y2885D01*
X544Y2885D01*
X543Y2885D01*
X542Y2885D01*
X541Y2885D01*
X540Y2885D01*
X539Y2885D01*
X538Y2885D01*
X537Y2885D01*
X536Y2885D01*
X535Y2885D01*
X534Y2885D01*
X533Y2885D01*
X532Y2885D01*
X531Y2885D01*
X530Y2885D01*
X529Y2885D01*
X528Y2885D01*
X527Y2885D01*
X526Y2885D01*
X525Y2885D01*
X524Y2885D01*
X523Y2885D01*
X522Y2885D01*
X521Y2885D01*
X520Y2885D01*
X519Y2885D01*
X518Y2885D01*
X517Y2885D01*
X516Y2885D01*
X515Y2885D01*
X514Y2885D01*
X513Y2885D01*
X512Y2885D01*
X511Y2885D01*
X510Y2885D01*
X509Y2885D01*
X508Y2885D01*
X507Y2885D01*
X506Y2885D01*
X505Y2885D01*
X504Y2885D01*
X503Y2885D01*
X502Y2885D01*
X501Y2885D01*
X500Y2885D01*
X499Y2885D01*
X498Y2885D01*
X497Y2885D01*
X496Y2885D01*
X495Y2885D01*
X494Y2885D01*
X493Y2885D01*
X492Y2885D01*
X491Y2885D01*
X490Y2885D01*
X489Y2885D01*
X488Y2885D01*
X487Y2885D01*
X486Y2885D01*
X485Y2885D01*
X484Y2885D01*
X483Y2885D01*
X482Y2885D01*
X481Y2885D01*
X480Y2885D01*
X479Y2885D01*
X478Y2885D01*
X477Y2885D01*
X476Y2885D01*
X475Y2885D01*
X474Y2885D01*
X473Y2885D01*
X472Y2885D01*
X471Y2885D01*
X470Y2885D01*
X469Y2885D01*
X468Y2885D01*
X467Y2885D01*
X466Y2885D01*
X465Y2885D01*
X464Y2885D01*
X463Y2885D01*
X462Y2885D01*
X461Y2885D01*
X460Y2885D01*
X459Y2885D01*
X458Y2885D01*
X457Y2885D01*
X456Y2885D01*
X455Y2885D01*
X454Y2885D01*
X453Y2885D01*
X452Y2885D01*
X451Y2885D01*
X450Y2885D01*
X449Y2885D01*
X448Y2885D01*
X447Y2885D01*
X446Y2885D01*
X445Y2885D01*
X444Y2885D01*
X443Y2885D01*
X442Y2885D01*
X441Y2885D01*
X440Y2885D01*
X439Y2885D01*
X438Y2885D01*
X437Y2885D01*
X436Y2885D01*
X435Y2885D01*
X434Y2885D01*
X433Y2885D01*
X432Y2885D01*
X431Y2885D01*
X430Y2885D01*
X429Y2885D01*
X428Y2885D01*
X427Y2885D01*
X426Y2885D01*
X425Y2885D01*
X424Y2885D01*
X423Y2885D01*
X422Y2885D01*
X421Y2885D01*
X420Y2885D01*
X419Y2885D01*
X418Y2885D01*
X417Y2885D01*
X416Y2885D01*
X415Y2885D01*
X414Y2885D01*
X413Y2885D01*
X412Y2885D01*
X411Y2885D01*
X410Y2885D01*
X409Y2885D01*
X408Y2885D01*
X407Y2885D01*
X406Y2885D01*
X405Y2885D01*
X404Y2885D01*
X403Y2885D01*
X402Y2885D01*
X401Y2885D01*
X400Y2885D01*
X399Y2885D01*
X398Y2885D01*
X397Y2885D01*
X396Y2885D01*
X395Y2885D01*
X394Y2885D01*
X393Y2885D01*
X392Y2885D01*
X391Y2885D01*
X390Y2885D01*
X389Y2885D01*
X388Y2885D01*
X387Y2885D01*
X386Y2885D01*
X385Y2885D01*
X384Y2885D01*
X383Y2885D01*
X382Y2885D01*
X381Y2885D01*
X380Y2885D01*
X379Y2885D01*
X378Y2885D01*
X377Y2885D01*
X376Y2885D01*
X375Y2885D01*
X374Y2885D01*
X373Y2885D01*
X372Y2885D01*
X371Y2885D01*
X370Y2885D01*
X369Y2885D01*
X368Y2885D01*
X367Y2885D01*
X366Y2885D01*
X365Y2885D01*
X364Y2885D01*
X363Y2885D01*
X362Y2885D01*
X361Y2885D01*
X360Y2885D01*
X359Y2885D01*
X358Y2885D01*
X357Y2885D01*
X356Y2885D01*
X355Y2885D01*
X354Y2885D01*
X353Y2885D01*
X352Y2885D01*
X351Y2885D01*
X350Y2885D01*
X349Y2885D01*
X348Y2885D01*
X347Y2885D01*
X346Y2885D01*
X345Y2885D01*
X344Y2885D01*
X343Y2885D01*
X342Y2885D01*
X341Y2885D01*
X340Y2885D01*
X339Y2885D01*
X338Y2885D01*
X337Y2885D01*
X336Y2885D01*
X335Y2885D01*
X334Y2885D01*
X333Y2885D01*
X332Y2885D01*
X331Y2885D01*
X330Y2885D01*
X329Y2885D01*
X328Y2885D01*
X327Y2885D01*
X326Y2885D01*
X325Y2885D01*
X324Y2885D01*
X323Y2885D01*
X322Y2885D01*
X321Y2885D01*
X320Y2885D01*
X319Y2885D01*
X318Y2885D01*
X317Y2885D01*
X316Y2885D01*
X315Y2885D01*
X314Y2885D01*
X313Y2885D01*
X312Y2885D01*
X311Y2885D01*
X310Y2885D01*
X309Y2885D01*
X308Y2885D01*
X307Y2885D01*
X306Y2885D01*
X305Y2885D01*
X304Y2885D01*
X303Y2885D01*
X302Y2885D01*
X301Y2885D01*
X300Y2885D01*
X299Y2885D01*
X298Y2885D01*
X297Y2885D01*
X296Y2885D01*
X295Y2885D01*
X294Y2885D01*
X293Y2885D01*
X292Y2885D01*
X291Y2885D01*
X290Y2885D01*
X289Y2885D01*
X288Y2885D01*
X287Y2885D01*
X286Y2885D01*
X285Y2885D01*
X284Y2885D01*
X283Y2885D01*
X282Y2885D01*
X281Y2885D01*
X280Y2885D01*
X279Y2885D01*
X278Y2885D01*
X277Y2885D01*
X276Y2885D01*
X275Y2885D01*
X274Y2885D01*
X273Y2885D01*
X272Y2885D01*
X271Y2885D01*
X270Y2885D01*
X269Y2885D01*
X268Y2885D01*
X267Y2885D01*
X266Y2885D01*
X265Y2885D01*
X264Y2885D01*
X263Y2885D01*
X262Y2885D01*
X261Y2885D01*
X260Y2885D01*
X259Y2885D01*
X258Y2885D01*
X257Y2885D01*
X256Y2885D01*
X255Y2885D01*
X254Y2885D01*
X253Y2885D01*
X252Y2885D01*
X251Y2885D01*
X250Y2885D01*
X249Y2885D01*
X248Y2885D01*
X247Y2885D01*
X246Y2885D01*
X245Y2885D01*
X244Y2885D01*
X243Y2885D01*
X242Y2885D01*
X241Y2885D01*
X240Y2885D01*
X239Y2885D01*
X238Y2885D01*
X237Y2885D01*
X236Y2885D01*
X235Y2885D01*
X234Y2885D01*
X233Y2885D01*
X232Y2885D01*
X231Y2885D01*
X230Y2885D01*
X229Y2885D01*
X228Y2885D01*
X227Y2885D01*
X226Y2885D01*
X225Y2885D01*
X224Y2885D01*
X223Y2885D01*
X222Y2885D01*
X221Y2885D01*
X220Y2885D01*
X219Y2885D01*
X218Y2885D01*
X217Y2885D01*
X216Y2885D01*
X215Y2885D01*
X214Y2885D01*
X213Y2885D01*
X212Y2885D01*
X211Y2885D01*
X210Y2885D01*
X209Y2885D01*
X208Y2885D01*
X207Y2885D01*
X206Y2885D01*
X205Y2885D01*
X204Y2885D01*
X203Y2885D01*
X202Y2885D01*
X201Y2885D01*
X200Y2885D01*
X199Y2885D01*
X198Y2885D01*
X197Y2885D01*
X196Y2885D01*
X195Y2885D01*
X194Y2885D01*
X193Y2885D01*
X192Y2885D01*
X191Y2885D01*
X190Y2885D01*
X189Y2885D01*
X188Y2885D01*
X187Y2885D01*
X186Y2885D01*
X185Y2885D01*
X184Y2885D01*
X183Y2885D01*
X182Y2885D01*
X181Y2885D01*
X180Y2885D01*
X179Y2885D01*
X178Y2885D01*
X177Y2885D01*
X176Y2885D01*
X175Y2885D01*
X174Y2885D01*
X173Y2885D01*
X172Y2885D01*
X171Y2885D01*
X170Y2885D01*
X169Y2885D01*
X168Y2885D01*
X167Y2885D01*
X166Y2885D01*
X165Y2885D01*
X164Y2885D01*
X163Y2885D01*
X162Y2885D01*
X161Y2885D01*
X160Y2885D01*
X159Y2885D01*
X158Y2885D01*
X157Y2885D01*
X156Y2885D01*
X155Y2885D01*
X154Y2885D01*
X153Y2885D01*
X152Y2885D01*
X151Y2885D01*
X150Y2885D01*
X149Y2885D01*
X148Y2885D01*
X147Y2885D01*
X146Y2885D01*
X145Y2885D01*
X144Y2885D01*
X143Y2885D01*
X142Y2885D01*
X141Y2885D01*
X140Y2885D01*
X139Y2885D01*
X138Y2885D01*
X137Y2885D01*
X136Y2885D01*
X135Y2885D01*
X134Y2885D01*
X133Y2885D01*
X132Y2885D01*
X131Y2885D01*
X130Y2885D01*
X129Y2885D01*
X128Y2885D01*
X127Y2885D01*
X126Y2885D01*
X125Y2885D01*
X124Y2885D01*
X123Y2885D01*
X122Y2885D01*
X121Y2885D01*
X120Y2885D01*
X119Y2885D01*
X118Y2885D01*
X117Y2885D01*
X116Y2885D01*
X115Y2885D01*
X114Y2885D01*
X113Y2885D01*
X112Y2885D01*
X111Y2885D01*
X110Y2885D01*
X109Y2885D01*
X108Y2885D01*
X107Y2885D01*
X106Y2885D01*
X105Y2885D01*
X104Y2885D01*
X103Y2885D01*
X102Y2885D01*
X101Y2885D01*
X100Y2885D01*
X99Y2885D01*
X98Y2885D01*
X97Y2885D01*
X96Y2885D01*
X95Y2885D01*
X94Y2885D01*
X93Y2885D01*
X92Y2885D01*
X91Y2885D01*
X90Y2885D01*
X89Y2885D01*
X88Y2885D01*
X87Y2885D01*
X86Y2885D01*
X85Y2885D01*
X84Y2885D01*
X83Y2885D01*
X82Y2885D01*
X81Y2885D01*
X80Y2885D01*
X79Y2885D01*
X78Y2885D01*
X77Y2885D01*
X76Y2885D01*
X75Y2885D01*
X74Y2885D01*
X73Y2885D01*
X72Y2885D01*
X71Y2885D01*
X70Y2885D01*
X69Y2885D01*
X68Y2885D01*
X67Y2885D01*
X66Y2885D01*
X65Y2885D01*
X64Y2885D01*
X63Y2885D01*
X62Y2885D01*
X61Y2885D01*
X60Y2885D01*
X59Y2885D01*
X58Y2885D01*
X57Y2885D01*
X56Y2885D01*
X55Y2885D01*
X54Y2885D01*
X53Y2885D01*
X52Y2885D01*
X51Y2885D01*
X50Y2885D01*
X49Y2885D01*
X48Y2885D01*
X47Y2885D01*
X46Y2885D01*
X45Y2885D01*
X44Y2885D01*
X43Y2885D01*
X42Y2885D01*
X41Y2885D01*
X40Y2885D01*
X39Y2885D01*
X38Y2885D01*
X37Y2885D01*
X36Y2885D01*
X35Y2885D01*
X34Y2885D01*
X33Y2885D01*
X32Y2885D01*
X31Y2885D01*
X30Y2885D01*
X29Y2885D01*
X28Y2885D01*
X27Y2885D01*
X26Y2885D01*
X25Y2885D01*
X24Y2885D01*
X23Y2885D01*
X22Y2885D01*
X21Y2885D01*
X20Y2885D01*
X19Y2885D01*
X18Y2885D01*
X17Y2885D01*
X16Y2885D01*
X15Y2885D01*
X14Y2885D01*
X13Y2885D01*
X12Y2885D01*
X11Y2885D01*
X10Y2885D01*
X9Y2885D01*
X8Y2885D01*
X7Y2885D01*
X6Y2885D01*
X5Y2885D01*
X4Y2885D01*
X3Y2885D01*
X2Y2885D01*
X1Y2885D01*
X0Y2885D01*
D02*
G04 End of contour*
M02*