<?xml version="1.0" encoding="UTF-8" standalone="no"?>
<!-- Created with Fritzing (http://www.fritzing.org/) -->

<svg
   xmlns:dc="http://purl.org/dc/elements/1.1/"
   xmlns:cc="http://creativecommons.org/ns#"
   xmlns:rdf="http://www.w3.org/1999/02/22-rdf-syntax-ns#"
   xmlns:svg="http://www.w3.org/2000/svg"
   xmlns="http://www.w3.org/2000/svg"
   xmlns:sodipodi="http://sodipodi.sourceforge.net/DTD/sodipodi-0.dtd"
   xmlns:inkscape="http://www.inkscape.org/namespaces/inkscape"
   viewBox="0 0 278.13245 144.33594"
   version="1.2"
   width="3.8629508in"
   height="2.0046635in"
   x="0in"
   y="0in"
   id="svg666"
   sodipodi:docname="drilling.svg"
   inkscape:version="0.92.4 (unknown)">
  <metadata
     id="metadata672">
    <rdf:RDF>
      <cc:Work
         rdf:about="">
        <dc:format>image/svg+xml</dc:format>
        <dc:type
           rdf:resource="http://purl.org/dc/dcmitype/StillImage" />
      </cc:Work>
    </rdf:RDF>
  </metadata>
  <defs
     id="defs670" />
  <sodipodi:namedview
     pagecolor="#ffffff"
     bordercolor="#666666"
     borderopacity="1"
     objecttolerance="10"
     gridtolerance="10"
     guidetolerance="10"
     inkscape:pageopacity="0"
     inkscape:pageshadow="2"
     inkscape:window-width="1920"
     inkscape:window-height="1103"
     id="namedview668"
     showgrid="false"
     inkscape:zoom="2.585558"
     inkscape:cx="243.02404"
     inkscape:cy="96.223846"
     inkscape:window-x="0"
     inkscape:window-y="27"
     inkscape:window-maximized="1"
     inkscape:current-layer="topmask" />
  <g
     inkscape:groupmode="layer"
     id="topmask"
     inkscape:label="topmask"
     transform="translate(-0.03777119,-0.03803286)"
     style="display:inline">
    <path
       style="fill:#000000;stroke:#000000;stroke-width:3.60567594"
       d="m 10.845703,6.3984375 a 5.6692863,5.6692863 0 0 0 -5.6699218,5.6699215 5.6692863,5.6692863 0 0 0 5.6699218,5.669922 5.6692863,5.6692863 0 0 0 5.667969,-5.669922 5.6692863,5.6692863 0 0 0 -5.667969,-5.6699215 z m 347.999997,0 a 5.6692863,5.6692863 0 0 0 -5.66992,5.6699215 5.6692863,5.6692863 0 0 0 5.66992,5.669922 5.6692863,5.6692863 0 0 0 5.66797,-5.669922 5.6692863,5.6692863 0 0 0 -5.66797,-5.6699215 z M 56.195312,9.5351562 a 2.543997,2.543997 0 0 0 -2.544921,2.5449218 2.543997,2.543997 0 0 0 2.544921,2.542969 2.543997,2.543997 0 0 0 2.542969,-2.542969 2.543997,2.543997 0 0 0 -2.542969,-2.5449218 z m 9.59961,0 A 2.543997,2.543997 0 0 0 63.25,12.080078 a 2.543997,2.543997 0 0 0 2.544922,2.542969 2.543997,2.543997 0 0 0 2.542969,-2.542969 2.543997,2.543997 0 0 0 -2.542969,-2.5449218 z m 9.599609,0 a 2.543997,2.543997 0 0 0 -2.542969,2.5449218 2.543997,2.543997 0 0 0 2.542969,2.542969 2.543997,2.543997 0 0 0 2.544922,-2.542969 2.543997,2.543997 0 0 0 -2.544922,-2.5449218 z m 9.59961,0 a 2.543997,2.543997 0 0 0 -2.542969,2.5449218 2.543997,2.543997 0 0 0 2.542969,2.542969 2.543997,2.543997 0 0 0 2.544921,-2.542969 2.543997,2.543997 0 0 0 -2.544921,-2.5449218 z m 9.601562,0 a 2.543997,2.543997 0 0 0 -2.544922,2.5449218 2.543997,2.543997 0 0 0 2.544922,2.542969 2.543997,2.543997 0 0 0 2.542969,-2.542969 2.543997,2.543997 0 0 0 -2.542969,-2.5449218 z m 9.599607,0 a 2.543997,2.543997 0 0 0 -2.54492,2.5449218 2.543997,2.543997 0 0 0 2.54492,2.542969 2.543997,2.543997 0 0 0 2.54297,-2.542969 2.543997,2.543997 0 0 0 -2.54297,-2.5449218 z m 9.59961,0 a 2.543997,2.543997 0 0 0 -2.54492,2.5449218 2.543997,2.543997 0 0 0 2.54492,2.542969 2.543997,2.543997 0 0 0 2.54297,-2.542969 2.543997,2.543997 0 0 0 -2.54297,-2.5449218 z m 9.59961,0 a 2.543997,2.543997 0 0 0 -2.54297,2.5449218 2.543997,2.543997 0 0 0 2.54297,2.542969 2.543997,2.543997 0 0 0 2.54492,-2.542969 2.543997,2.543997 0 0 0 -2.54492,-2.5449218 z m 9.59961,0 a 2.543997,2.543997 0 0 0 -2.54297,2.5449218 2.543997,2.543997 0 0 0 2.54297,2.542969 2.543997,2.543997 0 0 0 2.54492,-2.542969 2.543997,2.543997 0 0 0 -2.54492,-2.5449218 z m 9.59961,0 a 2.543997,2.543997 0 0 0 -2.54297,2.5449218 2.543997,2.543997 0 0 0 2.54297,2.542969 2.543997,2.543997 0 0 0 2.54492,-2.542969 2.543997,2.543997 0 0 0 -2.54492,-2.5449218 z m 9.60156,0 a 2.543997,2.543997 0 0 0 -2.54492,2.5449218 2.543997,2.543997 0 0 0 2.54492,2.542969 2.543997,2.543997 0 0 0 2.54297,-2.542969 2.543997,2.543997 0 0 0 -2.54297,-2.5449218 z m 9.59961,0 a 2.543997,2.543997 0 0 0 -2.54492,2.5449218 2.543997,2.543997 0 0 0 2.54492,2.542969 2.543997,2.543997 0 0 0 2.54297,-2.542969 2.543997,2.543997 0 0 0 -2.54297,-2.5449218 z m 9.59961,0 a 2.543997,2.543997 0 0 0 -2.54297,2.5449218 2.543997,2.543997 0 0 0 2.54297,2.542969 2.543997,2.543997 0 0 0 2.54492,-2.542969 2.543997,2.543997 0 0 0 -2.54492,-2.5449218 z m 9.59961,0 a 2.543997,2.543997 0 0 0 -2.54297,2.5449218 2.543997,2.543997 0 0 0 2.54297,2.542969 2.543997,2.543997 0 0 0 2.54492,-2.542969 2.543997,2.543997 0 0 0 -2.54492,-2.5449218 z m 7.05664,0 v 5.0859378 h 2.5 a 2.543997,2.543997 0 0 0 0.043,0.002 2.543997,2.543997 0 0 0 0.0606,-0.002 h 2.48437 V 9.5351562 Z m -45.49023,8.2207028 a 1.5118115,1.5118115 0 0 0 -1.51172,1.511719 1.5118115,1.5118115 0 0 0 1.51172,1.513672 1.5118115,1.5118115 0 0 0 1.51172,-1.513672 1.5118115,1.5118115 0 0 0 -1.51172,-1.511719 z m -9.59961,4.800782 a 1.5118115,1.5118115 0 0 0 -1.51172,1.511718 1.5118115,1.5118115 0 0 0 1.51172,1.511719 1.5118115,1.5118115 0 0 0 1.51172,-1.511719 1.5118115,1.5118115 0 0 0 -1.51172,-1.511718 z m -9.59961,4.800781 a 1.5118115,1.5118115 0 0 0 -1.51172,1.511719 1.5118115,1.5118115 0 0 0 1.51172,1.511718 1.5118115,1.5118115 0 0 0 1.51172,-1.511718 1.5118115,1.5118115 0 0 0 -1.51172,-1.511719 z m -9.59961,4.798828 a 1.5118115,1.5118115 0 0 0 -1.51172,1.511719 1.5118115,1.5118115 0 0 0 1.51172,1.511719 1.5118115,1.5118115 0 0 0 1.51172,-1.511719 1.5118115,1.5118115 0 0 0 -1.51172,-1.511719 z m 122.68359,13.494141 a 2.3999971,2.3999971 0 0 0 -2.40039,2.40039 2.3999971,2.3999971 0 0 0 2.40039,2.400391 2.3999971,2.3999971 0 0 0 2.40039,-2.400391 2.3999971,2.3999971 0 0 0 -2.40039,-2.40039 z m 30.91602,8.105468 a 1.5118115,1.5118115 0 0 0 -1.51172,1.513672 1.5118115,1.5118115 0 0 0 1.51172,1.511719 1.5118115,1.5118115 0 0 0 1.51172,-1.511719 1.5118115,1.5118115 0 0 0 -1.51172,-1.513672 z m -30.91602,1.511719 a 2.3999971,2.3999971 0 0 0 -2.40039,2.400391 2.3999971,2.3999971 0 0 0 2.40039,2.40039 2.3999971,2.3999971 0 0 0 2.40039,-2.40039 2.3999971,2.3999971 0 0 0 -2.40039,-2.400391 z m 21.31641,0.888672 a 1.5118115,1.5118115 0 0 0 -1.51172,1.511719 1.5118115,1.5118115 0 0 0 1.51172,1.511719 1.5118115,1.5118115 0 0 0 1.51172,-1.511719 1.5118115,1.5118115 0 0 0 -1.51172,-1.511719 z m -129.59961,2.400391 a 1.5118115,1.5118115 0 0 0 -1.51172,1.511718 1.5118115,1.5118115 0 0 0 1.51172,1.511719 1.5118115,1.5118115 0 0 0 1.51172,-1.511719 1.5118115,1.5118115 0 0 0 -1.51172,-1.511718 z m -14.40039,2.40039 a 1.5118115,1.5118115 0 0 0 -1.51172,1.511719 1.5118115,1.5118115 0 0 0 1.51172,1.511719 1.5118115,1.5118115 0 0 0 1.51172,-1.511719 1.5118115,1.5118115 0 0 0 -1.51172,-1.511719 z m -57.566408,6.179688 a 2.543997,2.543997 0 0 0 -2.544921,2.542969 2.543997,2.543997 0 0 0 2.544921,2.544921 2.543997,2.543997 0 0 0 2.542969,-2.544921 2.543997,2.543997 0 0 0 -2.542969,-2.542969 z m 9.59961,0 A 2.543997,2.543997 0 0 0 63.25,69.679688 a 2.543997,2.543997 0 0 0 2.544922,2.544921 2.543997,2.543997 0 0 0 2.542969,-2.544921 2.543997,2.543997 0 0 0 -2.542969,-2.542969 z m 9.599609,0 a 2.543997,2.543997 0 0 0 -2.542969,2.542969 2.543997,2.543997 0 0 0 2.542969,2.544921 2.543997,2.543997 0 0 0 2.544922,-2.544921 2.543997,2.543997 0 0 0 -2.544922,-2.542969 z m 9.59961,0 a 2.543997,2.543997 0 0 0 -2.542969,2.542969 2.543997,2.543997 0 0 0 2.542969,2.544921 2.543997,2.543997 0 0 0 2.544921,-2.544921 2.543997,2.543997 0 0 0 -2.544921,-2.542969 z m 9.601562,0 a 2.543997,2.543997 0 0 0 -2.544922,2.542969 2.543997,2.543997 0 0 0 2.544922,2.544921 2.543997,2.543997 0 0 0 2.542969,-2.544921 2.543997,2.543997 0 0 0 -2.542969,-2.542969 z m 9.599607,0 a 2.543997,2.543997 0 0 0 -2.54492,2.542969 2.543997,2.543997 0 0 0 2.54492,2.544921 2.543997,2.543997 0 0 0 2.54297,-2.544921 2.543997,2.543997 0 0 0 -2.54297,-2.542969 z m 9.59961,0 a 2.543997,2.543997 0 0 0 -2.54492,2.542969 2.543997,2.543997 0 0 0 2.54492,2.544921 2.543997,2.543997 0 0 0 2.54297,-2.544921 2.543997,2.543997 0 0 0 -2.54297,-2.542969 z m 9.59961,0 a 2.543997,2.543997 0 0 0 -2.54297,2.542969 2.543997,2.543997 0 0 0 2.54297,2.544921 2.543997,2.543997 0 0 0 2.54492,-2.544921 2.543997,2.543997 0 0 0 -2.54492,-2.542969 z m 9.59961,0 a 2.543997,2.543997 0 0 0 -2.54297,2.542969 2.543997,2.543997 0 0 0 2.54297,2.544921 2.543997,2.543997 0 0 0 2.54492,-2.544921 2.543997,2.543997 0 0 0 -2.54492,-2.542969 z m 9.59961,0 a 2.543997,2.543997 0 0 0 -2.54297,2.542969 2.543997,2.543997 0 0 0 2.54297,2.544921 2.543997,2.543997 0 0 0 2.54492,-2.544921 2.543997,2.543997 0 0 0 -2.54492,-2.542969 z m 9.60156,0 a 2.543997,2.543997 0 0 0 -2.54492,2.542969 2.543997,2.543997 0 0 0 2.54492,2.544921 2.543997,2.543997 0 0 0 2.54297,-2.544921 2.543997,2.543997 0 0 0 -2.54297,-2.542969 z m 9.59961,0 a 2.543997,2.543997 0 0 0 -2.54492,2.542969 2.543997,2.543997 0 0 0 2.54492,2.544921 2.543997,2.543997 0 0 0 2.54297,-2.544921 2.543997,2.543997 0 0 0 -2.54297,-2.542969 z m 9.59961,0 a 2.543997,2.543997 0 0 0 -2.54297,2.542969 2.543997,2.543997 0 0 0 2.54297,2.544921 2.543997,2.543997 0 0 0 2.54492,-2.544921 2.543997,2.543997 0 0 0 -2.54492,-2.542969 z m 9.59961,0 a 2.543997,2.543997 0 0 0 -2.54297,2.542969 2.543997,2.543997 0 0 0 2.54297,2.544921 2.543997,2.543997 0 0 0 2.54492,-2.544921 2.543997,2.543997 0 0 0 -2.54492,-2.542969 z m 9.59961,0 a 2.543997,2.543997 0 0 0 -2.54297,2.542969 2.543997,2.543997 0 0 0 2.54297,2.544921 2.543997,2.543997 0 0 0 2.54492,-2.544921 2.543997,2.543997 0 0 0 -2.54492,-2.542969 z m 57.56836,2.291015 a 2.6399968,2.6399968 0 0 0 -2.64063,2.640625 2.6399968,2.6399968 0 0 0 2.64063,2.638672 2.6399968,2.6399968 0 0 0 2.63867,-2.638672 2.6399968,2.6399968 0 0 0 -2.63867,-2.640625 z m 28.79883,0 a 2.6399968,2.6399968 0 0 0 -2.64063,2.640625 2.6399968,2.6399968 0 0 0 2.64063,2.638672 2.6399968,2.6399968 0 0 0 2.64062,-2.638672 2.6399968,2.6399968 0 0 0 -2.64062,-2.640625 z m -28.79883,9.59961 a 2.6399968,2.6399968 0 0 0 -2.64063,2.640625 2.6399968,2.6399968 0 0 0 2.64063,2.640625 2.6399968,2.6399968 0 0 0 2.63867,-2.640625 2.6399968,2.6399968 0 0 0 -2.63867,-2.640625 z m 28.79883,0 a 2.6399968,2.6399968 0 0 0 -2.64063,2.640625 2.6399968,2.6399968 0 0 0 2.64063,2.640625 2.6399968,2.6399968 0 0 0 2.64062,-2.640625 2.6399968,2.6399968 0 0 0 -2.64062,-2.640625 z m -96,3.529297 a 1.5118115,1.5118115 0 0 0 -1.51172,1.511718 1.5118115,1.5118115 0 0 0 1.51172,1.511719 1.5118115,1.5118115 0 0 0 1.51172,-1.511719 1.5118115,1.5118115 0 0 0 -1.51172,-1.511718 z m 67.20117,6.070312 a 2.6399968,2.6399968 0 0 0 -2.64063,2.640625 2.6399968,2.6399968 0 0 0 2.64063,2.640625 2.6399968,2.6399968 0 0 0 2.63867,-2.640625 2.6399968,2.6399968 0 0 0 -2.63867,-2.640625 z m 28.79883,0 a 2.6399968,2.6399968 0 0 0 -2.64063,2.640625 2.6399968,2.6399968 0 0 0 2.64063,2.640625 2.6399968,2.6399968 0 0 0 2.64062,-2.640625 2.6399968,2.6399968 0 0 0 -2.64062,-2.640625 z m -47.71485,5.929688 a 1.5118115,1.5118115 0 0 0 -1.51171,1.511718 1.5118115,1.5118115 0 0 0 1.51171,1.511719 1.5118115,1.5118115 0 0 0 1.51172,-1.511719 1.5118115,1.5118115 0 0 0 -1.51172,-1.511718 z m -89.08398,2.40039 a 1.5118115,1.5118115 0 0 0 -1.51172,1.511719 1.5118115,1.5118115 0 0 0 1.51172,1.511719 1.5118115,1.5118115 0 0 0 1.51172,-1.511719 1.5118115,1.5118115 0 0 0 -1.51172,-1.511719 z m 108,1.271485 a 2.6399968,2.6399968 0 0 0 -2.64063,2.638674 2.6399968,2.6399968 0 0 0 2.64063,2.64062 2.6399968,2.6399968 0 0 0 2.63867,-2.64062 2.6399968,2.6399968 0 0 0 -2.63867,-2.638674 z m 28.79883,0 a 2.6399968,2.6399968 0 0 0 -2.64063,2.638674 2.6399968,2.6399968 0 0 0 2.64063,2.64062 2.6399968,2.6399968 0 0 0 2.64062,-2.64062 2.6399968,2.6399968 0 0 0 -2.64062,-2.638674 z m -127.19922,5.927734 a 1.5118115,1.5118115 0 0 0 -1.51172,1.51172 1.5118115,1.5118115 0 0 0 1.51172,1.51172 1.5118115,1.5118115 0 0 0 1.51172,-1.51172 1.5118115,1.5118115 0 0 0 -1.51172,-1.51172 z m 89.08398,0 a 1.5118115,1.5118115 0 0 0 -1.51172,1.51172 1.5118115,1.5118115 0 0 0 1.51172,1.51172 1.5118115,1.5118115 0 0 0 1.51172,-1.51172 1.5118115,1.5118115 0 0 0 -1.51172,-1.51172 z m 9.31641,3.67187 a 2.6399968,2.6399968 0 0 0 -2.64063,2.64063 2.6399968,2.6399968 0 0 0 2.64063,2.63867 2.6399968,2.6399968 0 0 0 2.63867,-2.63867 2.6399968,2.6399968 0 0 0 -2.63867,-2.64063 z m 28.79883,0 a 2.6399968,2.6399968 0 0 0 -2.64063,2.64063 2.6399968,2.6399968 0 0 0 2.64063,2.63867 2.6399968,2.6399968 0 0 0 2.64062,-2.63867 2.6399968,2.6399968 0 0 0 -2.64062,-2.64063 z m -249.316409,8.32813 a 1.5118115,1.5118115 0 0 0 -1.511719,1.51172 1.5118115,1.5118115 0 0 0 1.511719,1.51172 1.5118115,1.5118115 0 0 0 1.511719,-1.51172 1.5118115,1.5118115 0 0 0 -1.511719,-1.51172 z m 220.517579,1.27148 a 2.6399968,2.6399968 0 0 0 -2.64063,2.64063 2.6399968,2.6399968 0 0 0 2.64063,2.63867 2.6399968,2.6399968 0 0 0 2.63867,-2.63867 2.6399968,2.6399968 0 0 0 -2.63867,-2.64063 z m 28.79883,0 a 2.6399968,2.6399968 0 0 0 -2.64063,2.64063 2.6399968,2.6399968 0 0 0 2.64063,2.63867 2.6399968,2.6399968 0 0 0 2.64062,-2.63867 2.6399968,2.6399968 0 0 0 -2.64062,-2.64063 z m -122.40039,3.5293 a 1.5118115,1.5118115 0 0 0 -1.51172,1.51172 1.5118115,1.5118115 0 0 0 1.51172,1.51172 1.5118115,1.5118115 0 0 0 1.51172,-1.51172 1.5118115,1.5118115 0 0 0 -1.51172,-1.51172 z m 9.60156,0 a 1.5118115,1.5118115 0 0 0 -1.51172,1.51172 1.5118115,1.5118115 0 0 0 1.51172,1.51172 1.5118115,1.5118115 0 0 0 1.51172,-1.51172 1.5118115,1.5118115 0 0 0 -1.51172,-1.51172 z m -129.601563,6.07031 a 2.6399968,2.6399968 0 0 0 -2.638672,2.64063 2.6399968,2.6399968 0 0 0 2.638672,2.64062 2.6399968,2.6399968 0 0 0 2.640625,-2.64062 2.6399968,2.6399968 0 0 0 -2.640625,-2.64063 z m 9.601562,0 a 2.6399968,2.6399968 0 0 0 -2.640625,2.64063 2.6399968,2.6399968 0 0 0 2.640625,2.64062 2.6399968,2.6399968 0 0 0 2.638672,-2.64062 2.6399968,2.6399968 0 0 0 -2.638672,-2.64063 z m 9.59961,0 a 2.6399968,2.6399968 0 0 0 -2.640625,2.64063 2.6399968,2.6399968 0 0 0 2.640625,2.64062 2.6399968,2.6399968 0 0 0 2.638672,-2.64062 2.6399968,2.6399968 0 0 0 -2.638672,-2.64063 z m 9.599609,0 a 2.6399968,2.6399968 0 0 0 -2.640625,2.64063 2.6399968,2.6399968 0 0 0 2.640625,2.64062 2.6399968,2.6399968 0 0 0 2.640625,-2.64062 2.6399968,2.6399968 0 0 0 -2.640625,-2.64063 z m 9.59961,0 a 2.6399968,2.6399968 0 0 0 -2.640626,2.64063 2.6399968,2.6399968 0 0 0 2.640626,2.64062 2.6399968,2.6399968 0 0 0 2.640624,-2.64062 2.6399968,2.6399968 0 0 0 -2.640624,-2.64063 z m 9.599609,0 a 2.6399968,2.6399968 0 0 0 -2.638672,2.64063 2.6399968,2.6399968 0 0 0 2.638672,2.64062 2.6399968,2.6399968 0 0 0 2.640625,-2.64062 2.6399968,2.6399968 0 0 0 -2.640625,-2.64063 z m 9.601562,0 a 2.6399968,2.6399968 0 0 0 -2.640625,2.64063 2.6399968,2.6399968 0 0 0 2.640625,2.64062 2.6399968,2.6399968 0 0 0 2.638672,-2.64062 2.6399968,2.6399968 0 0 0 -2.638672,-2.64063 z m 9.599611,0 a 2.6399968,2.6399968 0 0 0 -2.640626,2.64063 2.6399968,2.6399968 0 0 0 2.640626,2.64062 2.6399968,2.6399968 0 0 0 2.63867,-2.64062 2.6399968,2.6399968 0 0 0 -2.63867,-2.64063 z m 24,0 a 2.6399968,2.6399968 0 0 0 -2.64063,2.64063 2.6399968,2.6399968 0 0 0 2.64063,2.64062 2.6399968,2.6399968 0 0 0 2.63867,-2.64062 2.6399968,2.6399968 0 0 0 -2.63867,-2.64063 z m 9.59961,0 a 2.6399968,2.6399968 0 0 0 -2.64063,2.64063 2.6399968,2.6399968 0 0 0 2.64063,2.64062 2.6399968,2.6399968 0 0 0 2.64062,-2.64062 2.6399968,2.6399968 0 0 0 -2.64062,-2.64063 z m 9.59961,0 a 2.6399968,2.6399968 0 0 0 -2.64063,2.64063 2.6399968,2.6399968 0 0 0 2.64063,2.64062 2.6399968,2.6399968 0 0 0 2.64062,-2.64062 2.6399968,2.6399968 0 0 0 -2.64062,-2.64063 z m 9.59961,0 a 2.6399968,2.6399968 0 0 0 -2.63867,2.64063 2.6399968,2.6399968 0 0 0 2.63867,2.64062 2.6399968,2.6399968 0 0 0 2.64062,-2.64062 2.6399968,2.6399968 0 0 0 -2.64062,-2.64063 z m 9.59961,0 a 2.6399968,2.6399968 0 0 0 -2.63868,2.64063 2.6399968,2.6399968 0 0 0 2.63868,2.64062 2.6399968,2.6399968 0 0 0 2.64062,-2.64062 2.6399968,2.6399968 0 0 0 -2.64062,-2.64063 z m 9.60156,0 a 2.6399968,2.6399968 0 0 0 -2.64063,2.64063 2.6399968,2.6399968 0 0 0 2.64063,2.64062 2.6399968,2.6399968 0 0 0 2.63867,-2.64062 2.6399968,2.6399968 0 0 0 -2.63867,-2.64063 z m 9.59961,0 a 2.6399968,2.6399968 0 0 0 -2.64063,2.64063 2.6399968,2.6399968 0 0 0 2.64063,2.64062 2.6399968,2.6399968 0 0 0 2.64062,-2.64062 2.6399968,2.6399968 0 0 0 -2.64062,-2.64063 z m 9.59961,0 a 2.6399968,2.6399968 0 0 0 -2.64063,2.64063 2.6399968,2.6399968 0 0 0 2.64063,2.64062 2.6399968,2.6399968 0 0 0 2.64062,-2.64062 2.6399968,2.6399968 0 0 0 -2.64062,-2.64063 z m 55.20117,0 a 2.6399968,2.6399968 0 0 0 -2.64063,2.64063 2.6399968,2.6399968 0 0 0 2.64063,2.64062 2.6399968,2.6399968 0 0 0 2.63867,-2.64062 2.6399968,2.6399968 0 0 0 -2.63867,-2.64063 z m 28.79883,0 a 2.6399968,2.6399968 0 0 0 -2.64063,2.64063 2.6399968,2.6399968 0 0 0 2.64063,2.64062 2.6399968,2.6399968 0 0 0 2.64062,-2.64062 2.6399968,2.6399968 0 0 0 -2.64062,-2.64063 z m -28.79883,9.59961 a 2.6399968,2.6399968 0 0 0 -2.64063,2.64063 2.6399968,2.6399968 0 0 0 2.64063,2.64062 2.6399968,2.6399968 0 0 0 2.63867,-2.64062 2.6399968,2.6399968 0 0 0 -2.63867,-2.64063 z m 26.1582,0 v 5.28125 h 5.28125 v -5.28125 z m -249.076169,0.22266 a 2.3999971,2.3999971 0 0 0 -2.398438,2.40039 2.3999971,2.3999971 0 0 0 2.398438,2.40039 2.3999971,2.3999971 0 0 0 2.40039,-2.40039 2.3999971,2.3999971 0 0 0 -2.40039,-2.40039 z m 88.498049,0 a 2.3999971,2.3999971 0 0 0 -2.39844,2.40039 2.3999971,2.3999971 0 0 0 2.39844,2.40039 2.3999971,2.3999971 0 0 0 2.40039,-2.40039 2.3999971,2.3999971 0 0 0 -2.40039,-2.40039 z m 91.21875,0.0195 a 2.3999971,2.3999971 0 0 0 -2.40039,2.40039 2.3999971,2.3999971 0 0 0 2.40039,2.39844 2.3999971,2.3999971 0 0 0 2.40039,-2.39844 2.3999971,2.3999971 0 0 0 -2.40039,-2.40039 z m -179.716799,9.59961 a 2.3999971,2.3999971 0 0 0 -2.398438,2.39844 2.3999971,2.3999971 0 0 0 2.398438,2.40039 2.3999971,2.3999971 0 0 0 2.40039,-2.40039 2.3999971,2.3999971 0 0 0 -2.40039,-2.39844 z m 88.498049,0 a 2.3999971,2.3999971 0 0 0 -2.39844,2.39844 2.3999971,2.3999971 0 0 0 2.39844,2.40039 2.3999971,2.3999971 0 0 0 2.40039,-2.40039 2.3999971,2.3999971 0 0 0 -2.40039,-2.39844 z m 91.21875,0.0176 a 2.3999971,2.3999971 0 0 0 -2.40039,2.40039 2.3999971,2.3999971 0 0 0 2.40039,2.40039 2.3999971,2.3999971 0 0 0 2.40039,-2.40039 2.3999971,2.3999971 0 0 0 -2.40039,-2.40039 z m -173.039065,9.34179 v 5.2793 h 5.279297 v -5.2793 z m 12.240234,0 a 2.6399968,2.6399968 0 0 0 -2.640625,2.64063 2.6399968,2.6399968 0 0 0 2.640625,2.63867 2.6399968,2.6399968 0 0 0 2.638672,-2.63867 2.6399968,2.6399968 0 0 0 -2.638672,-2.64063 z m 9.59961,0 a 2.6399968,2.6399968 0 0 0 -2.640625,2.64063 2.6399968,2.6399968 0 0 0 2.640625,2.63867 2.6399968,2.6399968 0 0 0 2.638672,-2.63867 2.6399968,2.6399968 0 0 0 -2.638672,-2.64063 z m 9.599609,0 a 2.6399968,2.6399968 0 0 0 -2.640625,2.64063 2.6399968,2.6399968 0 0 0 2.640625,2.63867 2.6399968,2.6399968 0 0 0 2.640625,-2.63867 2.6399968,2.6399968 0 0 0 -2.640625,-2.64063 z m 9.59961,0 a 2.6399968,2.6399968 0 0 0 -2.640626,2.64063 2.6399968,2.6399968 0 0 0 2.640626,2.63867 2.6399968,2.6399968 0 0 0 2.640624,-2.63867 2.6399968,2.6399968 0 0 0 -2.640624,-2.64063 z m 9.599609,0 a 2.6399968,2.6399968 0 0 0 -2.638672,2.64063 2.6399968,2.6399968 0 0 0 2.638672,2.63867 2.6399968,2.6399968 0 0 0 2.640625,-2.63867 2.6399968,2.6399968 0 0 0 -2.640625,-2.64063 z m 9.601562,0 a 2.6399968,2.6399968 0 0 0 -2.640625,2.64063 2.6399968,2.6399968 0 0 0 2.640625,2.63867 2.6399968,2.6399968 0 0 0 2.638672,-2.63867 2.6399968,2.6399968 0 0 0 -2.638672,-2.64063 z m 9.599611,0 a 2.6399968,2.6399968 0 0 0 -2.640626,2.64063 2.6399968,2.6399968 0 0 0 2.640626,2.63867 2.6399968,2.6399968 0 0 0 2.63867,-2.63867 2.6399968,2.6399968 0 0 0 -2.63867,-2.64063 z m 21.35937,0 v 5.2793 h 5.2793 v -5.2793 z m 12.24024,0 a 2.6399968,2.6399968 0 0 0 -2.64063,2.64063 2.6399968,2.6399968 0 0 0 2.64063,2.63867 2.6399968,2.6399968 0 0 0 2.64062,-2.63867 2.6399968,2.6399968 0 0 0 -2.64062,-2.64063 z m 9.59961,0 a 2.6399968,2.6399968 0 0 0 -2.64063,2.64063 2.6399968,2.6399968 0 0 0 2.64063,2.63867 2.6399968,2.6399968 0 0 0 2.64062,-2.63867 2.6399968,2.6399968 0 0 0 -2.64062,-2.64063 z m 9.59961,0 a 2.6399968,2.6399968 0 0 0 -2.63867,2.64063 2.6399968,2.6399968 0 0 0 2.63867,2.63867 2.6399968,2.6399968 0 0 0 2.64062,-2.63867 2.6399968,2.6399968 0 0 0 -2.64062,-2.64063 z m 9.59961,0 a 2.6399968,2.6399968 0 0 0 -2.63868,2.64063 2.6399968,2.6399968 0 0 0 2.63868,2.63867 2.6399968,2.6399968 0 0 0 2.64062,-2.63867 2.6399968,2.6399968 0 0 0 -2.64062,-2.64063 z m 9.60156,0 a 2.6399968,2.6399968 0 0 0 -2.64063,2.64063 2.6399968,2.6399968 0 0 0 2.64063,2.63867 2.6399968,2.6399968 0 0 0 2.63867,-2.63867 2.6399968,2.6399968 0 0 0 -2.63867,-2.64063 z m 9.59961,0 a 2.6399968,2.6399968 0 0 0 -2.64063,2.64063 2.6399968,2.6399968 0 0 0 2.64063,2.63867 2.6399968,2.6399968 0 0 0 2.64062,-2.63867 2.6399968,2.6399968 0 0 0 -2.64062,-2.64063 z m 9.59961,0 a 2.6399968,2.6399968 0 0 0 -2.64063,2.64063 2.6399968,2.6399968 0 0 0 2.64063,2.63867 2.6399968,2.6399968 0 0 0 2.64062,-2.63867 2.6399968,2.6399968 0 0 0 -2.64062,-2.64063 z m -177.316409,3.52735 a 1.5118115,1.5118115 0 0 0 -1.511719,1.51172 1.5118115,1.5118115 0 0 0 1.511719,1.51172 1.5118115,1.5118115 0 0 0 1.511719,-1.51172 1.5118115,1.5118115 0 0 0 -1.511719,-1.51172 z m 143.999999,14.40039 a 1.5118115,1.5118115 0 0 0 -1.51172,1.51172 1.5118115,1.5118115 0 0 0 1.51172,1.51172 1.5118115,1.5118115 0 0 0 1.51172,-1.51172 1.5118115,1.5118115 0 0 0 -1.51172,-1.51172 z m 26.40039,0 a 1.5118115,1.5118115 0 0 0 -1.51172,1.51172 1.5118115,1.5118115 0 0 0 1.51172,1.51172 1.5118115,1.5118115 0 0 0 1.51172,-1.51172 1.5118115,1.5118115 0 0 0 -1.51172,-1.51172 z m -175.199217,3.04297 a 5.6692863,5.6692863 0 0 0 -5.6699218,5.66797 5.6692863,5.6692863 0 0 0 5.6699218,5.66992 5.6692863,5.6692863 0 0 0 5.667969,-5.66992 5.6692863,5.6692863 0 0 0 -5.667969,-5.66797 z m 347.999997,0 a 5.6692863,5.6692863 0 0 0 -5.66992,5.66797 5.6692863,5.6692863 0 0 0 5.66992,5.66992 5.6692863,5.6692863 0 0 0 5.66797,-5.66992 5.6692863,5.6692863 0 0 0 -5.66797,-5.66797 z m -323.999997,5.28515 a 2.7839968,2.7839968 0 0 0 -2.785156,2.78321 2.7839968,2.7839968 0 0 0 2.785156,2.78515 2.7839968,2.7839968 0 0 0 2.783203,-2.78515 2.7839968,2.7839968 0 0 0 -2.783203,-2.78321 z m 9.599609,0 a 2.7839968,2.7839968 0 0 0 -2.785156,2.78321 2.7839968,2.7839968 0 0 0 2.785156,2.78515 2.7839968,2.7839968 0 0 0 2.783204,-2.78515 2.7839968,2.7839968 0 0 0 -2.783204,-2.78321 z m 9.59961,0 a 2.7839968,2.7839968 0 0 0 -2.783203,2.78321 2.7839968,2.7839968 0 0 0 2.783203,2.78515 2.7839968,2.7839968 0 0 0 2.783203,-2.78515 2.7839968,2.7839968 0 0 0 -2.783203,-2.78321 z m 9.599609,0 a 2.7839968,2.7839968 0 0 0 -2.783203,2.78321 2.7839968,2.7839968 0 0 0 2.783203,2.78515 2.7839968,2.7839968 0 0 0 2.785157,-2.78515 2.7839968,2.7839968 0 0 0 -2.785157,-2.78321 z m 9.59961,0 a 2.7839968,2.7839968 0 0 0 -2.783203,2.78321 2.7839968,2.7839968 0 0 0 2.783203,2.78515 2.7839968,2.7839968 0 0 0 2.785156,-2.78515 2.7839968,2.7839968 0 0 0 -2.785156,-2.78321 z m 9.601562,0 a 2.7839968,2.7839968 0 0 0 -2.785156,2.78321 2.7839968,2.7839968 0 0 0 2.785156,2.78515 2.7839968,2.7839968 0 0 0 2.783203,-2.78515 2.7839968,2.7839968 0 0 0 -2.783203,-2.78321 z m 9.599609,0 a 2.7839968,2.7839968 0 0 0 -2.785156,2.78321 2.7839968,2.7839968 0 0 0 2.785156,2.78515 2.7839968,2.7839968 0 0 0 2.783204,-2.78515 2.7839968,2.7839968 0 0 0 -2.783204,-2.78321 z m 9.599608,0 a 2.7839968,2.7839968 0 0 0 -2.783201,2.78321 2.7839968,2.7839968 0 0 0 2.783201,2.78515 2.7839968,2.7839968 0 0 0 2.7832,-2.78515 2.7839968,2.7839968 0 0 0 -2.7832,-2.78321 z m 9.59961,0 a 2.7839968,2.7839968 0 0 0 -2.7832,2.78321 2.7839968,2.7839968 0 0 0 2.7832,2.78515 2.7839968,2.7839968 0 0 0 2.78516,-2.78515 2.7839968,2.7839968 0 0 0 -2.78516,-2.78321 z m 9.59961,0 a 2.7839968,2.7839968 0 0 0 -2.7832,2.78321 2.7839968,2.7839968 0 0 0 2.7832,2.78515 2.7839968,2.7839968 0 0 0 2.78516,-2.78515 2.7839968,2.7839968 0 0 0 -2.78516,-2.78321 z m 9.60156,0 a 2.7839968,2.7839968 0 0 0 -2.78515,2.78321 2.7839968,2.7839968 0 0 0 2.78515,2.78515 2.7839968,2.7839968 0 0 0 2.78321,-2.78515 2.7839968,2.7839968 0 0 0 -2.78321,-2.78321 z m 9.59961,0 a 2.7839968,2.7839968 0 0 0 -2.78515,2.78321 2.7839968,2.7839968 0 0 0 2.78515,2.78515 2.7839968,2.7839968 0 0 0 2.78321,-2.78515 2.7839968,2.7839968 0 0 0 -2.78321,-2.78321 z m 18.91602,0 a 2.7839968,2.7839968 0 0 0 -2.78321,2.78321 2.7839968,2.7839968 0 0 0 2.78321,2.78515 2.7839968,2.7839968 0 0 0 2.7832,-2.78515 2.7839968,2.7839968 0 0 0 -2.7832,-2.78321 z m 19.19922,0 a 2.7839968,2.7839968 0 0 0 -2.78321,2.78321 2.7839968,2.7839968 0 0 0 2.78321,2.78515 2.7839968,2.7839968 0 0 0 2.78515,-2.78515 2.7839968,2.7839968 0 0 0 -2.78515,-2.78321 z m 19.48437,0 a 2.7839968,2.7839968 0 0 0 -2.7832,2.78321 2.7839968,2.7839968 0 0 0 2.7832,2.78515 2.7839968,2.7839968 0 0 0 2.78516,-2.78515 2.7839968,2.7839968 0 0 0 -2.78516,-2.78321 z m 74.40039,0 a 2.7839968,2.7839968 0 0 0 -2.7832,2.78321 2.7839968,2.7839968 0 0 0 2.7832,2.78515 2.7839968,2.7839968 0 0 0 2.78321,-2.78515 2.7839968,2.7839968 0 0 0 -2.78321,-2.78321 z m 9.59961,0 a 2.7839968,2.7839968 0 0 0 -2.7832,2.78321 2.7839968,2.7839968 0 0 0 2.7832,2.78515 2.7839968,2.7839968 0 0 0 2.78516,-2.78515 2.7839968,2.7839968 0 0 0 -2.78516,-2.78321 z m 9.59961,0 a 2.7839968,2.7839968 0 0 0 -2.7832,2.78321 2.7839968,2.7839968 0 0 0 2.7832,2.78515 2.7839968,2.7839968 0 0 0 2.78516,-2.78515 2.7839968,2.7839968 0 0 0 -2.78516,-2.78321 z m 9.60156,0 a 2.7839968,2.7839968 0 0 0 -2.78515,2.78321 2.7839968,2.7839968 0 0 0 2.78515,2.78515 2.7839968,2.7839968 0 0 0 2.78321,-2.78515 2.7839968,2.7839968 0 0 0 -2.78321,-2.78321 z m 9.59961,0 a 2.7839968,2.7839968 0 0 0 -2.78515,2.78321 2.7839968,2.7839968 0 0 0 2.78515,2.78515 2.7839968,2.7839968 0 0 0 2.78321,-2.78515 2.7839968,2.7839968 0 0 0 -2.78321,-2.78321 z m 9.59961,0 a 2.7839968,2.7839968 0 0 0 -2.7832,2.78321 2.7839968,2.7839968 0 0 0 2.7832,2.78515 2.7839968,2.7839968 0 0 0 2.78321,-2.78515 2.7839968,2.7839968 0 0 0 -2.78321,-2.78321 z m 9.59961,0 a 2.7839968,2.7839968 0 0 0 -2.7832,2.78321 2.7839968,2.7839968 0 0 0 2.7832,2.78515 2.7839968,2.7839968 0 0 0 2.78516,-2.78515 2.7839968,2.7839968 0 0 0 -2.78516,-2.78321 z m 9.59961,0 a 2.7839968,2.7839968 0 0 0 -2.7832,2.78321 2.7839968,2.7839968 0 0 0 2.7832,2.78515 2.7839968,2.7839968 0 0 0 2.78516,-2.78515 2.7839968,2.7839968 0 0 0 -2.78516,-2.78321 z"
       transform="matrix(0.7500009,0,0,0.7500009,-1.6664878e-4,0)"
       id="path17"
       inkscape:connector-curvature="0" />
    <path
       style="color:#000000;font-style:normal;font-variant:normal;font-weight:normal;font-stretch:normal;font-size:medium;line-height:normal;font-family:sans-serif;font-variant-ligatures:normal;font-variant-position:normal;font-variant-caps:normal;font-variant-numeric:normal;font-variant-alternates:normal;font-feature-settings:normal;text-indent:0;text-align:start;text-decoration:none;text-decoration-line:none;text-decoration-style:solid;text-decoration-color:#000000;letter-spacing:normal;word-spacing:normal;text-transform:none;writing-mode:lr-tb;direction:ltr;text-orientation:mixed;dominant-baseline:auto;baseline-shift:baseline;text-anchor:start;white-space:normal;shape-padding:0;clip-rule:nonzero;display:inline;overflow:visible;visibility:visible;opacity:1;isolation:auto;mix-blend-mode:normal;color-interpolation:sRGB;color-interpolation-filters:linearRGB;solid-color:#000000;solid-opacity:1;vector-effect:none;fill:#000000;fill-opacity:1;fill-rule:nonzero;stroke:none;stroke-width:0.5;stroke-linecap:butt;stroke-linejoin:miter;stroke-miterlimit:4;stroke-dasharray:none;stroke-dashoffset:0;stroke-opacity:1;color-rendering:auto;image-rendering:auto;shape-rendering:auto;text-rendering:auto;enable-background:accumulate"
       d="m 0.03760454,0.03803286 v 0.25 V 144.37397 H 278.1704 V 0.03803286 Z M 0.53760453,0.53803285 H 277.67041 V 143.87397 H 0.53760453 Z"
       id="path19"
       inkscape:connector-curvature="0" />
  </g>
</svg>
