<?xml version='1.0' encoding='UTF-8' standalone='no'?>
<!-- Created with Fritzing (http://www.fritzing.org/) -->
<svg xmlns="http://www.w3.org/2000/svg"  xmlns:svg="http://www.w3.org/2000/svg" viewBox="0 0 278.208 144.412" version="1.2" width="3.864in" height="2.00572in" baseProfile="tiny" x="0in" y="0in">
 <g transform="matrix(-1, 0, 0, 1, 278.208, 0)">
  <g partID="57470">
   <g  id="board">
    <rect  stroke="black" stroke-width="0.5" width="277.632" fill-opacity="0.5" height="143.836" x="0.288" y="0.288" id="boardoutline" fill="none"/>
   </g>
  </g>
  <g partID="857494000">
   <g transform="translate(17.0076,84.5255)">
    <g  id="copper0">
     <circle  cx="3.72599" cy="3.72599" r="1.13386" stroke="black" stroke-width="1.98426" fill="none" id="connector0pin"/>
    </g>
   </g>
  </g>
  <g partID="857494130">
   <g transform="translate(8.00761,116.925)">
    <g  id="copper0">
     <circle  cx="3.72599" cy="3.72599" r="1.13386" stroke="black" stroke-width="1.98426" fill="none" id="connector0pin"/>
    </g>
   </g>
  </g>
  <g partID="857493630">
   <g transform="translate(21.0936,143.691)">
    <g transform="matrix(0,-1,1,0,0,0)">
     <g  id="copper0">
      <circle  cx="5.04" cy="5.04" r="2.088" stroke="black" stroke-width="1.44" fill="none" id="connector0pin"/>
      <circle  cx="5.04" cy="12.24" r="2.088" stroke="black" stroke-width="1.44" fill="none" id="connector1pin"/>
      <circle  cx="5.04" cy="19.44" r="2.088" stroke="black" stroke-width="1.44" fill="none" id="connector2pin"/>
      <circle  cx="5.04" cy="26.64" r="2.088" stroke="black" stroke-width="1.44" fill="none" id="connector3pin"/>
      <circle  cx="5.04" cy="33.84" r="2.088" stroke="black" stroke-width="1.44" fill="none" id="connector4pin"/>
      <circle  cx="5.04" cy="41.04" r="2.088" stroke="black" stroke-width="1.44" fill="none" id="connector5pin"/>
      <circle  cx="5.04" cy="48.24" r="2.088" stroke="black" stroke-width="1.44" fill="none" id="connector6pin"/>
      <circle  cx="5.04" cy="55.44" r="2.088" stroke="black" stroke-width="1.44" fill="none" id="connector7pin"/>
     </g>
    </g>
   </g>
  </g>
  <g partID="856849980">
   <g transform="translate(78.6936,143.691)">
    <g transform="matrix(0,-1,1,0,0,0)">
     <g  id="copper0">
      <circle  cx="5.04" cy="5.04" r="2.088" stroke="black" stroke-width="1.44" fill="none" id="connector0pin"/>
      <circle  cx="5.04" cy="12.24" r="2.088" stroke="black" stroke-width="1.44" fill="none" id="connector1pin"/>
      <circle  cx="5.04" cy="19.44" r="2.088" stroke="black" stroke-width="1.44" fill="none" id="connector2pin"/>
      <circle  cx="5.04" cy="26.64" r="2.088" stroke="black" stroke-width="1.44" fill="none" id="connector3pin"/>
     </g>
    </g>
   </g>
  </g>
  <g partID="856860860">
   <g transform="translate(212.041,108.771)">
    <g transform="matrix(-1,0,0,-1,0,0)">
     <g  id="copper0">
      <rect  stroke="black" stroke-width="1.44" width="3.96" height="3.96" x="2.34" y="2.34" id="square" fill="none"/>
      <circle  cx="4.32" cy="4.32" r="1.98" stroke="black" stroke-width="1.44" fill="none" id="connector0pin"/>
      <circle  cx="25.92" cy="4.32" r="1.98" stroke="black" stroke-width="1.44" fill="none" id="connector15pin"/>
      <circle  cx="4.32" cy="11.52" r="1.98" stroke="black" stroke-width="1.44" fill="none" id="connector1pin"/>
      <circle  cx="25.92" cy="11.52" r="1.98" stroke="black" stroke-width="1.44" fill="none" id="connector14pin"/>
      <circle  cx="4.32" cy="18.72" r="1.98" stroke="black" stroke-width="1.44" fill="none" id="connector2pin"/>
      <circle  cx="25.92" cy="18.72" r="1.98" stroke="black" stroke-width="1.44" fill="none" id="connector13pin"/>
      <circle  cx="4.32" cy="25.92" r="1.98" stroke="black" stroke-width="1.44" fill="none" id="connector3pin"/>
      <circle  cx="25.92" cy="25.92" r="1.98" stroke="black" stroke-width="1.44" fill="none" id="connector12pin"/>
      <circle  cx="4.32" cy="33.12" r="1.98" stroke="black" stroke-width="1.44" fill="none" id="connector4pin"/>
      <circle  cx="25.92" cy="33.12" r="1.98" stroke="black" stroke-width="1.44" fill="none" id="connector11pin"/>
      <circle  cx="4.32" cy="40.32" r="1.98" stroke="black" stroke-width="1.44" fill="none" id="connector5pin"/>
      <circle  cx="25.92" cy="40.32" r="1.98" stroke="black" stroke-width="1.44" fill="none" id="connector10pin"/>
      <circle  cx="4.32" cy="47.52" r="1.98" stroke="black" stroke-width="1.44" fill="none" id="connector6pin"/>
      <circle  cx="25.92" cy="47.52" r="1.98" stroke="black" stroke-width="1.44" fill="none" id="connector9pin"/>
      <circle  cx="4.32" cy="54.72" r="1.98" stroke="black" stroke-width="1.44" fill="none" id="connector7pin"/>
      <circle  cx="25.92" cy="54.72" r="1.98" stroke="black" stroke-width="1.44" fill="none" id="connector8pin"/>
     </g>
    </g>
   </g>
  </g>
  <g partID="856850070">
   <g transform="translate(21.6008,123.171)">
    <g transform="matrix(0,-1,1,0,0,0)">
     <g  id="copper0">
      <rect  stroke="black" stroke-width="1.44" width="3.96" height="3.96" x="2.34" y="2.34" id="square" fill="none"/>
      <circle  cx="4.32" cy="4.32" r="1.98" stroke="black" stroke-width="1.44" fill="none" id="connector0pin"/>
      <circle  cx="25.92" cy="4.32" r="1.98" stroke="black" stroke-width="1.44" fill="none" id="connector15pin"/>
      <circle  cx="4.32" cy="11.52" r="1.98" stroke="black" stroke-width="1.44" fill="none" id="connector1pin"/>
      <circle  cx="25.92" cy="11.52" r="1.98" stroke="black" stroke-width="1.44" fill="none" id="connector14pin"/>
      <circle  cx="4.32" cy="18.72" r="1.98" stroke="black" stroke-width="1.44" fill="none" id="connector2pin"/>
      <circle  cx="25.92" cy="18.72" r="1.98" stroke="black" stroke-width="1.44" fill="none" id="connector13pin"/>
      <circle  cx="4.32" cy="25.92" r="1.98" stroke="black" stroke-width="1.44" fill="none" id="connector3pin"/>
      <circle  cx="25.92" cy="25.92" r="1.98" stroke="black" stroke-width="1.44" fill="none" id="connector12pin"/>
      <circle  cx="4.32" cy="33.12" r="1.98" stroke="black" stroke-width="1.44" fill="none" id="connector4pin"/>
      <circle  cx="25.92" cy="33.12" r="1.98" stroke="black" stroke-width="1.44" fill="none" id="connector11pin"/>
      <circle  cx="4.32" cy="40.32" r="1.98" stroke="black" stroke-width="1.44" fill="none" id="connector5pin"/>
      <circle  cx="25.92" cy="40.32" r="1.98" stroke="black" stroke-width="1.44" fill="none" id="connector10pin"/>
      <circle  cx="4.32" cy="47.52" r="1.98" stroke="black" stroke-width="1.44" fill="none" id="connector6pin"/>
      <circle  cx="25.92" cy="47.52" r="1.98" stroke="black" stroke-width="1.44" fill="none" id="connector9pin"/>
      <circle  cx="4.32" cy="54.72" r="1.98" stroke="black" stroke-width="1.44" fill="none" id="connector7pin"/>
      <circle  cx="25.92" cy="54.72" r="1.98" stroke="black" stroke-width="1.44" fill="none" id="connector8pin"/>
     </g>
    </g>
   </g>
  </g>
  <g partID="856850590">
   <g transform="translate(90.0008,123.171)">
    <g transform="matrix(0,-1,1,0,0,0)">
     <g  id="copper0">
      <rect  stroke="black" stroke-width="1.44" width="3.96" height="3.96" x="2.34" y="2.34" id="square" fill="none"/>
      <circle  cx="4.32" cy="4.32" r="1.98" stroke="black" stroke-width="1.44" fill="none" id="connector0pin"/>
      <circle  cx="25.92" cy="4.32" r="1.98" stroke="black" stroke-width="1.44" fill="none" id="connector15pin"/>
      <circle  cx="4.32" cy="11.52" r="1.98" stroke="black" stroke-width="1.44" fill="none" id="connector1pin"/>
      <circle  cx="25.92" cy="11.52" r="1.98" stroke="black" stroke-width="1.44" fill="none" id="connector14pin"/>
      <circle  cx="4.32" cy="18.72" r="1.98" stroke="black" stroke-width="1.44" fill="none" id="connector2pin"/>
      <circle  cx="25.92" cy="18.72" r="1.98" stroke="black" stroke-width="1.44" fill="none" id="connector13pin"/>
      <circle  cx="4.32" cy="25.92" r="1.98" stroke="black" stroke-width="1.44" fill="none" id="connector3pin"/>
      <circle  cx="25.92" cy="25.92" r="1.98" stroke="black" stroke-width="1.44" fill="none" id="connector12pin"/>
      <circle  cx="4.32" cy="33.12" r="1.98" stroke="black" stroke-width="1.44" fill="none" id="connector4pin"/>
      <circle  cx="25.92" cy="33.12" r="1.98" stroke="black" stroke-width="1.44" fill="none" id="connector11pin"/>
      <circle  cx="4.32" cy="40.32" r="1.98" stroke="black" stroke-width="1.44" fill="none" id="connector5pin"/>
      <circle  cx="25.92" cy="40.32" r="1.98" stroke="black" stroke-width="1.44" fill="none" id="connector10pin"/>
      <circle  cx="4.32" cy="47.52" r="1.98" stroke="black" stroke-width="1.44" fill="none" id="connector6pin"/>
      <circle  cx="25.92" cy="47.52" r="1.98" stroke="black" stroke-width="1.44" fill="none" id="connector9pin"/>
      <circle  cx="4.32" cy="54.72" r="1.98" stroke="black" stroke-width="1.44" fill="none" id="connector7pin"/>
      <circle  cx="25.92" cy="54.72" r="1.98" stroke="black" stroke-width="1.44" fill="none" id="connector8pin"/>
     </g>
    </g>
   </g>
  </g>
  <g partID="856858690">
   <g transform="translate(150.841,114.545)">
    <g transform="matrix(0,-1,1,0,0,0)">
     <g  id="copper0">
      <g  id="copper1">
       <circle  cx="2.88" cy="2.88" r="1.8" stroke="black" stroke-width="1.44" id="connector0pin" fill="none"/>
       <circle  cx="10.0933" cy="2.88" r="1.8" stroke="black" stroke-width="1.44" id="connector1pin" fill="none"/>
      </g>
     </g>
    </g>
   </g>
  </g>
  <g partID="856859700">
   <g transform="translate(16.0536,114.531)">
    <g transform="matrix(0,-1,1,0,0,0)">
     <g  id="copper0">
      <g  id="copper1">
       <circle  cx="2.88" cy="2.88" r="1.8" stroke="black" stroke-width="1.44" id="connector0pin" fill="none"/>
       <circle  cx="10.0933" cy="2.88" r="1.8" stroke="black" stroke-width="1.44" id="connector1pin" fill="none"/>
      </g>
     </g>
    </g>
   </g>
  </g>
  <g partID="856857400">
   <g transform="translate(82.4272,114.531)">
    <g transform="matrix(0,-1,1,0,0,0)">
     <g  id="copper0">
      <g  id="copper1">
       <circle  cx="2.88" cy="2.88" r="1.8" stroke="black" stroke-width="1.44" id="connector0pin" fill="none"/>
       <circle  cx="10.0933" cy="2.88" r="1.8" stroke="black" stroke-width="1.44" id="connector1pin" fill="none"/>
      </g>
     </g>
    </g>
   </g>
  </g>
  <g partID="856875180">
   <g transform="translate(119.395,88.1254)">
    <g  id="copper0">
     <circle  cx="3.72599" cy="3.72599" r="1.13386" stroke="black" stroke-width="1.98426" fill="none" id="connector0pin"/>
    </g>
   </g>
  </g>
  <g partID="856875240">
   <g transform="translate(108.595,75.5254)">
    <g  id="copper0">
     <circle  cx="3.72599" cy="3.72599" r="1.13386" stroke="black" stroke-width="1.98426" fill="none" id="connector0pin"/>
    </g>
   </g>
  </g>
  <g partID="856875370">
   <g transform="translate(112.195,88.1254)">
    <g  id="copper0">
     <circle  cx="3.72599" cy="3.72599" r="1.13386" stroke="black" stroke-width="1.98426" fill="none" id="connector0pin"/>
    </g>
   </g>
  </g>
  <g partID="856875680">
   <g transform="translate(101.395,70.1254)">
    <g  id="copper0">
     <circle  cx="3.72599" cy="3.72599" r="1.13386" stroke="black" stroke-width="1.98426" fill="none" id="connector0pin"/>
    </g>
   </g>
  </g>
  <g partID="856876300">
   <g transform="translate(153.746,5.46)">
    <g transform="matrix(0,1,-1,0,0,0)">
     <g  id="copper0">
      <circle  cx="3.6" cy="10.8" r="1.908" stroke="black" stroke-width="1.224" id="connector16pad" fill="none"/>
      <rect  stroke="black" stroke-width="1.224" width="3.814" height="3.816" x="1.692" y="8.892" fill="none"/>
      <circle  cx="3.6" cy="18" r="1.908" stroke="black" stroke-width="1.224" id="connector17pad" fill="none"/>
      <circle  cx="3.6" cy="25.2" r="1.908" stroke="black" stroke-width="1.224" id="connector18pad" fill="none"/>
      <circle  cx="3.6" cy="32.4" r="1.908" stroke="black" stroke-width="1.224" id="connector19pad" fill="none"/>
      <circle  cx="3.6" cy="39.6" r="1.908" stroke="black" stroke-width="1.224" id="connector20pad" fill="none"/>
      <circle  cx="3.6" cy="46.8" r="1.908" stroke="black" stroke-width="1.224" id="connector21pad" fill="none"/>
      <circle  cx="3.6" cy="54" r="1.908" stroke="black" stroke-width="1.224" id="connector22pad" fill="none"/>
      <circle  cx="3.6" cy="61.2" r="1.908" stroke="black" stroke-width="1.224" id="connector23pad" fill="none"/>
      <circle  cx="3.6" cy="68.4" r="1.908" stroke="black" stroke-width="1.224" id="connector24pad" fill="none"/>
      <circle  cx="3.6" cy="75.6" r="1.908" stroke="black" stroke-width="1.224" id="connector25pad" fill="none"/>
      <circle  cx="3.6" cy="82.8" r="1.908" stroke="black" stroke-width="1.224" id="connector26pad" fill="none"/>
      <circle  cx="3.6" cy="90" r="1.908" stroke="black" stroke-width="1.224" id="connector27pad" fill="none"/>
      <circle  cx="3.6" cy="97.2" r="1.908" stroke="black" stroke-width="1.224" id="connector28pad" fill="none"/>
      <circle  cx="3.6" cy="104.4" r="1.908" stroke="black" stroke-width="1.224" id="connector29pad" fill="none"/>
      <circle  cx="3.6" cy="111.6" r="1.908" stroke="black" stroke-width="1.224" id="connector30pad" fill="none"/>
      <circle  cx="46.8" cy="10.8" r="1.908" stroke="black" stroke-width="1.224" id="connector31pad" fill="none"/>
      <circle  cx="46.8" cy="18" r="1.908" stroke="black" stroke-width="1.224" id="connector32pad" fill="none"/>
      <circle  cx="46.8" cy="25.2" r="1.908" stroke="black" stroke-width="1.224" id="connector33pad" fill="none"/>
      <circle  cx="46.8" cy="32.4" r="1.908" stroke="black" stroke-width="1.224" id="connector34pad" fill="none"/>
      <circle  cx="46.8" cy="39.6" r="1.908" stroke="black" stroke-width="1.224" id="connector35pad" fill="none"/>
      <circle  cx="46.8" cy="46.8" r="1.908" stroke="black" stroke-width="1.224" id="connector36pad" fill="none"/>
      <circle  cx="46.8" cy="54" r="1.908" stroke="black" stroke-width="1.224" id="connector37pad" fill="none"/>
      <circle  cx="46.8" cy="61.2" r="1.908" stroke="black" stroke-width="1.224" id="connector38pad" fill="none"/>
      <circle  cx="46.8" cy="68.4" r="1.908" stroke="black" stroke-width="1.224" id="connector39pad" fill="none"/>
      <circle  cx="46.8" cy="75.6" r="1.908" stroke="black" stroke-width="1.224" id="connector40pad" fill="none"/>
      <circle  cx="46.8" cy="82.8" r="1.908" stroke="black" stroke-width="1.224" id="connector41pad" fill="none"/>
      <circle  cx="46.8" cy="90" r="1.908" stroke="black" stroke-width="1.224" id="connector42pad" fill="none"/>
      <circle  cx="46.8" cy="97.2" r="1.908" stroke="black" stroke-width="1.224" id="connector43pad" fill="none"/>
      <circle  cx="46.8" cy="104.4" r="1.908" stroke="black" stroke-width="1.224" id="connector44pad" fill="none"/>
      <circle  cx="46.8" cy="111.6" r="1.908" stroke="black" stroke-width="1.224" id="connector45pad" fill="none"/>
     </g>
    </g>
   </g>
  </g>
  <g partID="856878510">
   <g transform="translate(131.995,59.3254)">
    <g  id="copper0">
     <circle  cx="3.72599" cy="3.72599" r="1.13386" stroke="black" stroke-width="1.98426" fill="none" id="connector0pin"/>
    </g>
   </g>
  </g>
  <g partID="857524230">
   <g transform="translate(143.494,143.691)">
    <g transform="matrix(0,-1,1,0,0,0)">
     <g  id="copper0">
      <circle  cx="5.04" cy="5.04" r="2.088" stroke="black" stroke-width="1.44" fill="none" id="connector0pin"/>
     </g>
    </g>
   </g>
  </g>
  <g partID="856882340">
   <g transform="translate(128.881,143.691)">
    <g transform="matrix(0,-1,1,0,0,0)">
     <g  id="copper0">
      <circle  cx="5.04" cy="5.04" r="2.088" stroke="black" stroke-width="1.44" fill="none" id="connector0pin"/>
     </g>
    </g>
   </g>
  </g>
  <g partID="856882300">
   <g transform="translate(114.481,143.691)">
    <g transform="matrix(0,-1,1,0,0,0)">
     <g  id="copper0">
      <circle  cx="5.04" cy="5.04" r="2.088" stroke="black" stroke-width="1.44" fill="none" id="connector0pin"/>
     </g>
    </g>
   </g>
  </g>
  <g partID="856882710">
   <g transform="translate(92.3952,41.3255)">
    <g  id="copper0">
     <circle  cx="3.72599" cy="3.72599" r="1.13386" stroke="black" stroke-width="1.98426" fill="none" id="connector0pin"/>
    </g>
   </g>
  </g>
  <g partID="856883620">
   <g transform="translate(135.808,127.725)">
    <g  id="copper0">
     <circle  cx="3.72599" cy="3.72599" r="1.13386" stroke="black" stroke-width="1.98426" fill="none" id="connector0pin"/>
    </g>
   </g>
  </g>
  <g partID="856883680">
   <g transform="translate(81.5952,43.1254)">
    <g  id="copper0">
     <circle  cx="3.72599" cy="3.72599" r="1.13386" stroke="black" stroke-width="1.98426" fill="none" id="connector0pin"/>
    </g>
   </g>
  </g>
  <g partID="856888710">
   <g transform="translate(168.208,68.3255)">
    <g  id="copper0">
     <circle  cx="3.72599" cy="3.72599" r="1.13386" stroke="black" stroke-width="1.98426" fill="none" id="connector0pin"/>
    </g>
   </g>
  </g>
  <g partID="856888770">
   <g transform="translate(81.5952,21.5254)">
    <g  id="copper0">
     <circle  cx="3.72599" cy="3.72599" r="1.13386" stroke="black" stroke-width="1.98426" fill="none" id="connector0pin"/>
    </g>
   </g>
  </g>
  <g partID="856889180">
   <g transform="translate(175.408,75.5255)">
    <g  id="copper0">
     <circle  cx="3.72599" cy="3.72599" r="1.13386" stroke="black" stroke-width="1.98426" fill="none" id="connector0pin"/>
    </g>
   </g>
  </g>
  <g partID="856889350">
   <g transform="translate(88.7952,17.9254)">
    <g  id="copper0">
     <circle  cx="3.72599" cy="3.72599" r="1.13386" stroke="black" stroke-width="1.98426" fill="none" id="connector0pin"/>
    </g>
   </g>
  </g>
  <g partID="856890250">
   <g transform="translate(189.595,39.5255)">
    <g  id="copper0">
     <circle  cx="3.72599" cy="3.72599" r="1.13386" stroke="black" stroke-width="1.98426" fill="none" id="connector0pin"/>
    </g>
   </g>
  </g>
  <g partID="856890380">
   <g transform="translate(95.9952,14.3254)">
    <g  id="copper0">
     <circle  cx="3.72599" cy="3.72599" r="1.13386" stroke="black" stroke-width="1.98426" fill="none" id="connector0pin"/>
    </g>
   </g>
  </g>
  <g partID="856890510">
   <g transform="translate(103.195,10.7254)">
    <g  id="copper0">
     <circle  cx="3.72599" cy="3.72599" r="1.13386" stroke="black" stroke-width="1.98426" fill="none" id="connector0pin"/>
    </g>
   </g>
  </g>
  <g partID="856890920">
   <g transform="translate(196.795,37.7255)">
    <g  id="copper0">
     <circle  cx="3.72599" cy="3.72599" r="1.13386" stroke="black" stroke-width="1.98426" fill="none" id="connector0pin"/>
    </g>
   </g>
  </g>
  <g partID="856891600">
   <g transform="translate(174.454,46.1314)">
    <g transform="matrix(0,-1,1,0,0,0)">
     <g  id="copper0">
      <g  id="copper1">
       <circle  cx="2.88" cy="2.88" r="1.8" stroke="black" stroke-width="1.44" id="connector0pin" fill="none"/>
       <circle  cx="10.0933" cy="2.88" r="1.8" stroke="black" stroke-width="1.44" id="connector1pin" fill="none"/>
      </g>
     </g>
    </g>
   </g>
  </g>
  <g partID="856905200">
   <g transform="translate(116.008,127.725)">
    <g  id="copper0">
     <circle  cx="3.72599" cy="3.72599" r="1.13386" stroke="black" stroke-width="1.98426" fill="none" id="connector0pin"/>
    </g>
   </g>
  </g>
  <g partID="856909170">
   <g transform="translate(263.282,130.999)">
    <g  id="copper0">
     <circle  cx="5.85197" cy="5.85197" r="4.25197" stroke="black" stroke-width="0" fill="black" id="nonconn0"/>
    </g>
   </g>
  </g>
  <g partID="856909160">
   <g transform="translate(263.282,3.19946)">
    <g  id="copper0">
     <circle  cx="5.85197" cy="5.85197" r="4.25197" stroke="black" stroke-width="0" fill="black" id="nonconn0"/>
    </g>
   </g>
  </g>
  <g partID="856909140">
   <g transform="translate(2.28162,130.999)">
    <g  id="copper0">
     <circle  cx="5.85197" cy="5.85197" r="4.25197" stroke="black" stroke-width="0" fill="black" id="nonconn0"/>
    </g>
   </g>
  </g>
  <g partID="856909110">
   <g transform="translate(2.28162,3.19946)">
    <g  id="copper0">
     <circle  cx="5.85197" cy="5.85197" r="4.25197" stroke="black" stroke-width="0" fill="black" id="nonconn0"/>
    </g>
   </g>
  </g>
  <g partID="856927630">
   <g transform="translate(259.774,133.611)">
    <g transform="matrix(0,1,-1,0,0,0)">
     <g  id="copper0">
      <circle  cx="5.04" cy="5.04" r="2.088" stroke="black" stroke-width="1.44" fill="none" id="connector0pin"/>
      <circle  cx="5.04" cy="12.24" r="2.088" stroke="black" stroke-width="1.44" fill="none" id="connector1pin"/>
      <circle  cx="5.04" cy="19.44" r="2.088" stroke="black" stroke-width="1.44" fill="none" id="connector2pin"/>
      <circle  cx="5.04" cy="26.64" r="2.088" stroke="black" stroke-width="1.44" fill="none" id="connector3pin"/>
      <circle  cx="5.04" cy="33.84" r="2.088" stroke="black" stroke-width="1.44" fill="none" id="connector4pin"/>
      <circle  cx="5.04" cy="41.04" r="2.088" stroke="black" stroke-width="1.44" fill="none" id="connector5pin"/>
      <circle  cx="5.04" cy="48.24" r="2.088" stroke="black" stroke-width="1.44" fill="none" id="connector6pin"/>
      <circle  cx="5.04" cy="55.44" r="2.088" stroke="black" stroke-width="1.44" fill="none" id="connector7pin"/>
     </g>
    </g>
   </g>
  </g>
  <g partID="857493860">
   <line y1="88.2662" y2="88.3314" x1="22.0753" x2="28.0136" stroke-linecap="round" stroke="black" stroke-width="2.304"/>
  </g>
  <g partID="857493790">
   <line y1="88.3314" y2="93.6114" x1="28.0136" x2="33.2936" stroke-linecap="round" stroke="black" stroke-width="2.304"/>
  </g>
  <g partID="857493720">
   <line y1="93.6114" y2="94.7942" x1="33.2936" x2="33.2375" stroke-linecap="round" stroke="black" stroke-width="2.304"/>
  </g>
  <g partID="857493650">
   <line y1="136.646" y2="121.699" x1="24.5294" x2="12.5718" stroke-linecap="round" stroke="black" stroke-width="2.304"/>
  </g>
  <g partID="857495890">
   <line y1="129.611" y2="122.411" x1="33.2936" x2="26.0936" stroke-linecap="round" stroke="black" stroke-width="2.304"/>
  </g>
  <g partID="857495820">
   <line y1="122.411" y2="121.309" x1="26.0936" x2="26.0401" stroke-linecap="round" stroke="black" stroke-width="2.304"/>
  </g>
  <g partID="857494210">
   <line y1="136.083" y2="129.611" x1="33.3222" x2="33.2936" stroke-linecap="round" stroke="black" stroke-width="2.304"/>
  </g>
  <g partID="857495750">
   <line y1="129.611" y2="122.411" x1="40.4936" x2="33.2936" stroke-linecap="round" stroke="black" stroke-width="2.304"/>
  </g>
  <g partID="857495680">
   <line y1="122.411" y2="121.309" x1="33.2936" x2="33.2401" stroke-linecap="round" stroke="black" stroke-width="2.304"/>
  </g>
  <g partID="857494280">
   <line y1="136.083" y2="129.611" x1="40.5222" x2="40.4936" stroke-linecap="round" stroke="black" stroke-width="2.304"/>
  </g>
  <g partID="857495610">
   <line y1="129.611" y2="122.411" x1="47.6936" x2="40.4936" stroke-linecap="round" stroke="black" stroke-width="2.304"/>
  </g>
  <g partID="857495540">
   <line y1="122.411" y2="121.309" x1="40.4936" x2="40.4401" stroke-linecap="round" stroke="black" stroke-width="2.304"/>
  </g>
  <g partID="857494350">
   <line y1="136.083" y2="129.611" x1="47.7222" x2="47.6936" stroke-linecap="round" stroke="black" stroke-width="2.304"/>
  </g>
  <g partID="857495470">
   <line y1="129.611" y2="122.411" x1="54.8936" x2="47.6936" stroke-linecap="round" stroke="black" stroke-width="2.304"/>
  </g>
  <g partID="857495400">
   <line y1="122.411" y2="121.309" x1="47.6936" x2="47.6401" stroke-linecap="round" stroke="black" stroke-width="2.304"/>
  </g>
  <g partID="857494420">
   <line y1="136.083" y2="129.611" x1="54.9222" x2="54.8936" stroke-linecap="round" stroke="black" stroke-width="2.304"/>
  </g>
  <g partID="857495330">
   <line y1="129.611" y2="122.411" x1="62.0936" x2="54.8936" stroke-linecap="round" stroke="black" stroke-width="2.304"/>
  </g>
  <g partID="857495260">
   <line y1="122.411" y2="121.309" x1="54.8936" x2="54.8401" stroke-linecap="round" stroke="black" stroke-width="2.304"/>
  </g>
  <g partID="857494490">
   <line y1="136.083" y2="129.611" x1="62.1222" x2="62.0936" stroke-linecap="round" stroke="black" stroke-width="2.304"/>
  </g>
  <g partID="857495190">
   <line y1="129.611" y2="122.411" x1="69.2936" x2="62.0936" stroke-linecap="round" stroke="black" stroke-width="2.304"/>
  </g>
  <g partID="857495120">
   <line y1="122.411" y2="121.309" x1="62.0936" x2="62.0401" stroke-linecap="round" stroke="black" stroke-width="2.304"/>
  </g>
  <g partID="857494560">
   <line y1="136.083" y2="129.611" x1="69.3222" x2="69.2936" stroke-linecap="round" stroke="black" stroke-width="2.304"/>
  </g>
  <g partID="857495050">
   <line y1="129.611" y2="122.411" x1="76.4936" x2="69.2936" stroke-linecap="round" stroke="black" stroke-width="2.304"/>
  </g>
  <g partID="857494980">
   <line y1="122.411" y2="121.309" x1="69.2936" x2="69.2401" stroke-linecap="round" stroke="black" stroke-width="2.304"/>
  </g>
  <g partID="857494630">
   <line y1="136.083" y2="129.611" x1="76.5222" x2="76.4936" stroke-linecap="round" stroke="black" stroke-width="2.304"/>
  </g>
  <g partID="857496030">
   <line y1="133.291" y2="122.411" x1="83.6936" x2="94.5736" stroke-linecap="round" stroke="black" stroke-width="2.304"/>
  </g>
  <g partID="857495960">
   <line y1="122.411" y2="121.305" x1="94.5736" x2="94.495" stroke-linecap="round" stroke="black" stroke-width="2.304"/>
  </g>
  <g partID="857494700">
   <line y1="136.084" y2="133.291" x1="83.7144" x2="83.6936" stroke-linecap="round" stroke="black" stroke-width="2.304"/>
  </g>
  <g partID="857496170">
   <line y1="133.291" y2="122.411" x1="90.8936" x2="101.774" stroke-linecap="round" stroke="black" stroke-width="2.304"/>
  </g>
  <g partID="857496100">
   <line y1="122.411" y2="121.305" x1="101.774" x2="101.695" stroke-linecap="round" stroke="black" stroke-width="2.304"/>
  </g>
  <g partID="857494770">
   <line y1="136.084" y2="133.291" x1="90.9144" x2="90.8936" stroke-linecap="round" stroke="black" stroke-width="2.304"/>
  </g>
  <g partID="857496310">
   <line y1="133.291" y2="122.411" x1="98.0936" x2="108.974" stroke-linecap="round" stroke="black" stroke-width="2.304"/>
  </g>
  <g partID="857496240">
   <line y1="122.411" y2="121.305" x1="108.974" x2="108.895" stroke-linecap="round" stroke="black" stroke-width="2.304"/>
  </g>
  <g partID="857494840">
   <line y1="136.084" y2="133.291" x1="98.1144" x2="98.0936" stroke-linecap="round" stroke="black" stroke-width="2.304"/>
  </g>
  <g partID="857496450">
   <line y1="133.291" y2="122.411" x1="105.294" x2="116.174" stroke-linecap="round" stroke="black" stroke-width="2.304"/>
  </g>
  <g partID="857496380">
   <line y1="122.411" y2="121.305" x1="116.174" x2="116.095" stroke-linecap="round" stroke="black" stroke-width="2.304"/>
  </g>
  <g partID="857494910">
   <line y1="136.084" y2="133.291" x1="105.314" x2="105.294" stroke-linecap="round" stroke="black" stroke-width="2.304"/>
  </g>
  <g partID="857499270">
   <line y1="127.851" y2="136.679" x1="195.334" x2="202.69" stroke-linecap="round" stroke="black" stroke-width="2.304"/>
  </g>
  <g partID="857499200">
   <line y1="102.571" y2="127.851" x1="195.374" x2="195.334" stroke-linecap="round" stroke="black" stroke-width="2.304"/>
  </g>
  <g partID="857499130">
   <line y1="97.2914" y2="102.571" x1="189.934" x2="195.374" stroke-linecap="round" stroke="black" stroke-width="2.304"/>
  </g>
  <g partID="857499060">
   <line y1="97.2731" y2="97.2914" x1="188.181" x2="189.934" stroke-linecap="round" stroke="black" stroke-width="2.304"/>
  </g>
  <g partID="857527640">
   <line y1="104.451" y2="97.2514" x1="218.734" x2="211.534" stroke-linecap="round" stroke="black" stroke-width="2.304"/>
  </g>
  <g partID="857527590">
   <line y1="97.2514" y2="97.2514" x1="211.534" x2="210.181" stroke-linecap="round" stroke="black" stroke-width="2.304"/>
  </g>
  <g partID="857499550">
   <line y1="136.083" y2="104.451" x1="218.734" x2="218.734" stroke-linecap="round" stroke="black" stroke-width="2.304"/>
  </g>
  <g partID="857527540">
   <line y1="100.851" y2="90.0514" x1="225.934" x2="215.134" stroke-linecap="round" stroke="black" stroke-width="2.304"/>
  </g>
  <g partID="857527490">
   <line y1="90.0514" y2="90.0514" x1="215.134" x2="210.181" stroke-linecap="round" stroke="black" stroke-width="2.304"/>
  </g>
  <g partID="857499620">
   <line y1="136.083" y2="100.851" x1="225.934" x2="225.934" stroke-linecap="round" stroke="black" stroke-width="2.304"/>
  </g>
  <g partID="857527440">
   <line y1="97.2514" y2="82.8514" x1="233.134" x2="218.734" stroke-linecap="round" stroke="black" stroke-width="2.304"/>
  </g>
  <g partID="857527390">
   <line y1="82.8514" y2="82.8514" x1="218.734" x2="210.181" stroke-linecap="round" stroke="black" stroke-width="2.304"/>
  </g>
  <g partID="857499690">
   <line y1="136.083" y2="97.2514" x1="233.134" x2="233.134" stroke-linecap="round" stroke="black" stroke-width="2.304"/>
  </g>
  <g partID="857527340">
   <line y1="93.6514" y2="75.6514" x1="240.334" x2="222.334" stroke-linecap="round" stroke="black" stroke-width="2.304"/>
  </g>
  <g partID="857527290">
   <line y1="75.6514" y2="75.6514" x1="222.334" x2="210.181" stroke-linecap="round" stroke="black" stroke-width="2.304"/>
  </g>
  <g partID="857499760">
   <line y1="136.083" y2="93.6514" x1="240.334" x2="240.334" stroke-linecap="round" stroke="black" stroke-width="2.304"/>
  </g>
  <g partID="857527240">
   <line y1="90.0514" y2="68.4514" x1="247.534" x2="225.934" stroke-linecap="round" stroke="black" stroke-width="2.304"/>
  </g>
  <g partID="857527190">
   <line y1="68.4514" y2="68.4514" x1="225.934" x2="210.181" stroke-linecap="round" stroke="black" stroke-width="2.304"/>
  </g>
  <g partID="857499830">
   <line y1="136.083" y2="90.0514" x1="247.534" x2="247.534" stroke-linecap="round" stroke="black" stroke-width="2.304"/>
  </g>
  <g partID="857527140">
   <line y1="86.4514" y2="61.2514" x1="254.734" x2="229.534" stroke-linecap="round" stroke="black" stroke-width="2.304"/>
  </g>
  <g partID="857527090">
   <line y1="61.2514" y2="61.2514" x1="229.534" x2="210.181" stroke-linecap="round" stroke="black" stroke-width="2.304"/>
  </g>
  <g partID="857499900">
   <line y1="136.083" y2="86.4514" x1="254.734" x2="254.734" stroke-linecap="round" stroke="black" stroke-width="2.304"/>
  </g>
  <g partID="856858860">
   <line y1="104.387" y2="99.7114" x1="94.344" x2="94.3291" stroke-linecap="round" stroke="black" stroke-width="3.456"/>
  </g>
  <g partID="856857430">
   <line y1="104.425" y2="104.387" x1="87.5872" x2="94.3434" stroke-linecap="round" stroke="black" stroke-width="3.456"/>
  </g>
  <g partID="856857610">
   <line y1="104.436" y2="104.387" x1="83.0272" x2="25.8476" stroke-linecap="round" stroke="black" stroke-width="3.456"/>
  </g>
  <g partID="856857720">
   <line y1="104.387" y2="99.7113" x1="25.848" x2="25.8958" stroke-linecap="round" stroke="black" stroke-width="3.456"/>
  </g>
  <g partID="856859950">
   <line y1="111.674" y2="116.391" x1="76.3088" x2="76.3168" stroke-linecap="round" stroke="black" stroke-width="3.456"/>
  </g>
  <g partID="856857940">
   <line y1="111.657" y2="111.674" x1="83.0272" x2="76.3086" stroke-linecap="round" stroke="black" stroke-width="3.456"/>
  </g>
  <g partID="856858710">
   <line y1="104.439" y2="104.451" x1="87.5872" x2="151.441" stroke-linecap="round" stroke="black" stroke-width="3.456"/>
  </g>
  <g partID="856859010">
   <line y1="111.664" y2="111.652" x1="151.441" x2="87.5872" stroke-linecap="round" stroke="black" stroke-width="3.456"/>
  </g>
  <g partID="856859470">
   <line y1="111.674" y2="116.392" x1="144.805" x2="144.75" stroke-linecap="round" stroke="black" stroke-width="3.456"/>
  </g>
  <g partID="856859240">
   <line y1="111.667" y2="111.674" x1="151.041" x2="144.805" stroke-linecap="round" stroke="black" stroke-width="3.456"/>
  </g>
  <g partID="856859720">
   <line y1="111.651" y2="111.651" x1="83.0272" x2="21.2136" stroke-linecap="round" stroke="black" stroke-width="3.456"/>
  </g>
  <g partID="856860450">
   <line y1="104.387" y2="99.7113" x1="25.848" x2="25.8958" stroke-linecap="round" stroke="black" stroke-width="3.456"/>
  </g>
  <g partID="856860300">
   <line y1="104.421" y2="104.387" x1="21.2135" x2="25.848" stroke-linecap="round" stroke="black" stroke-width="3.456"/>
  </g>
  <g partID="856862900">
   <line y1="104.451" y2="104.451" x1="183.661" x2="156.001" stroke-linecap="round" stroke="black" stroke-width="3.456"/>
  </g>
  <g partID="856867980">
   <line y1="93.6387" y2="89.9953" x1="108.735" x2="105.092" stroke-linecap="round" stroke="black" stroke-width="2.304"/>
  </g>
  <g partID="856867910">
   <line y1="89.9954" y2="89.9954" x1="105.092" x2="81.7743" stroke-linecap="round" stroke="black" stroke-width="2.304"/>
  </g>
  <g partID="856867840">
   <line y1="89.9954" y2="95.2849" x1="81.7736" x2="77.7984" stroke-linecap="round" stroke="black" stroke-width="2.304"/>
  </g>
  <g partID="856867770">
   <line y1="94.7915" y2="93.6387" x1="108.73" x2="108.735" stroke-linecap="round" stroke="black" stroke-width="2.304"/>
  </g>
  <g partID="856868380">
   <line y1="104.387" y2="99.7113" x1="69.204" x2="69.1493" stroke-linecap="round" stroke="black" stroke-width="3.456"/>
  </g>
  <g partID="856868190">
   <line y1="104.431" y2="104.387" x1="83.0272" x2="69.2039" stroke-linecap="round" stroke="black" stroke-width="3.456"/>
  </g>
  <g partID="856868800">
   <line y1="104.387" y2="99.7114" x1="137.518" x2="137.52" stroke-linecap="round" stroke="black" stroke-width="3.456"/>
  </g>
  <g partID="856868570">
   <line y1="104.442" y2="104.387" x1="151.441" x2="137.518" stroke-linecap="round" stroke="black" stroke-width="3.456"/>
  </g>
  <g partID="856874390">
   <line y1="94.7933" y2="91.8514" x1="62.0177" x2="62.1336" stroke-linecap="round" stroke="black" stroke-width="2.304"/>
  </g>
  <g partID="856874460">
   <line y1="91.8514" y2="84.7124" x1="62.1336" x2="69.2044" stroke-linecap="round" stroke="black" stroke-width="2.304"/>
  </g>
  <g partID="856874530">
   <line y1="84.7124" y2="84.7124" x1="69.2044" x2="124.948" stroke-linecap="round" stroke="black" stroke-width="2.304"/>
  </g>
  <g partID="856874600">
   <line y1="84.7124" y2="89.9953" x1="124.948" x2="130.231" stroke-linecap="round" stroke="black" stroke-width="2.304"/>
  </g>
  <g partID="856874670">
   <line y1="89.9954" y2="94.7917" x1="130.231" x2="130.291" stroke-linecap="round" stroke="black" stroke-width="2.304"/>
  </g>
  <g partID="856875110">
   <line y1="93.1932" y2="94.7914" x1="123.121" x2="123.121" stroke-linecap="round" stroke="black" stroke-width="2.304"/>
  </g>
  <g partID="856874970">
   <line y1="79.2514" y2="79.2514" x1="65.7336" x2="110.979" stroke-linecap="round" stroke="black" stroke-width="2.304"/>
  </g>
  <g partID="856874900">
   <line y1="90.0514" y2="79.2514" x1="54.9336" x2="65.7336" stroke-linecap="round" stroke="black" stroke-width="2.304"/>
  </g>
  <g partID="856874760">
   <line y1="94.7925" y2="90.0514" x1="54.7935" x2="54.9336" stroke-linecap="round" stroke="black" stroke-width="2.304"/>
  </g>
  <g partID="856875570">
   <line y1="73.8514" y2="73.8514" x1="103.779" x2="62.1336" stroke-linecap="round" stroke="black" stroke-width="2.304"/>
  </g>
  <g partID="856874830">
   <line y1="73.8514" y2="88.2514" x1="62.1336" x2="47.7336" stroke-linecap="round" stroke="black" stroke-width="2.304"/>
  </g>
  <g partID="856868120">
   <line y1="88.2514" y2="94.7921" x1="47.7336" x2="47.5789" stroke-linecap="round" stroke="black" stroke-width="2.304"/>
  </g>
  <g partID="856868050">
   <line y1="94.7914" y2="93.1932" x1="115.921" x2="115.921" stroke-linecap="round" stroke="black" stroke-width="2.304"/>
  </g>
  <g partID="856876600">
   <line y1="59.4514" y2="55.155" x1="121.534" x2="121.421" stroke-linecap="round" stroke="black" stroke-width="3.456"/>
  </g>
  <g partID="856876870">
   <line y1="72.3848" y2="72.1181" x1="153.721" x2="133.987" stroke-linecap="round" stroke="black" stroke-width="3.456"/>
  </g>
  <g partID="856876330">
   <line y1="102.171" y2="72.3848" x1="153.721" x2="153.721" stroke-linecap="round" stroke="black" stroke-width="3.456"/>
  </g>
  <g partID="856877170">
   <line y1="32.4914" y2="49.7641" x1="135.801" x2="135.753" stroke-linecap="round" stroke="black" stroke-width="3.456"/>
  </g>
  <g partID="856877200">
   <line y1="14.395" y2="32.4914" x1="121.305" x2="121.241" stroke-linecap="round" stroke="black" stroke-width="3.456"/>
  </g>
  <g partID="856877140">
   <line y1="11.556" y2="14.395" x1="121.326" x2="121.305" stroke-linecap="round" stroke="black" stroke-width="3.456"/>
  </g>
  <g partID="856877370">
   <line y1="61.2514" y2="54.7555" x1="63.9336" x2="63.7976" stroke-linecap="round" stroke="black" stroke-width="2.304"/>
  </g>
  <g partID="856877300">
   <line y1="84.6514" y2="61.2514" x1="40.5336" x2="63.9336" stroke-linecap="round" stroke="black" stroke-width="2.304"/>
  </g>
  <g partID="856877230">
   <line y1="94.7918" y2="84.6514" x1="40.3623" x2="40.5336" stroke-linecap="round" stroke="black" stroke-width="2.304"/>
  </g>
  <g partID="856877970">
   <line y1="61.7097" y2="54.7561" x1="135.724" x2="135.74" stroke-linecap="round" stroke="black" stroke-width="2.304"/>
  </g>
  <g partID="856879490">
   <line y1="77.9098" y2="72.1181" x1="112.333" x2="112.387" stroke-linecap="round" stroke="black" stroke-width="2.304"/>
  </g>
  <g partID="856879930">
   <line y1="72.1181" y2="66.7847" x1="112.387" x2="107.054" stroke-linecap="round" stroke="black" stroke-width="2.304"/>
  </g>
  <g partID="856879600">
   <line y1="66.7848" y2="66.6776" x1="107.054" x2="78.1308" stroke-linecap="round" stroke="black" stroke-width="2.304"/>
  </g>
  <g partID="856879710">
   <line y1="66.6776" y2="59.3908" x1="78.1304" x2="70.8436" stroke-linecap="round" stroke="black" stroke-width="2.304"/>
  </g>
  <g partID="856879820">
   <line y1="59.3909" y2="54.7558" x1="70.844" x2="70.9102" stroke-linecap="round" stroke="black" stroke-width="2.304"/>
  </g>
  <g partID="856880060">
   <line y1="54.7561" y2="57.5692" x1="78.1385" x2="78.1306" stroke-linecap="round" stroke="black" stroke-width="2.304"/>
  </g>
  <g partID="856880170">
   <line y1="57.5692" y2="61.2125" x1="78.1306" x2="81.7738" stroke-linecap="round" stroke="black" stroke-width="2.304"/>
  </g>
  <g partID="856880280">
   <line y1="61.2125" y2="61.2514" x1="81.7738" x2="110.734" stroke-linecap="round" stroke="black" stroke-width="2.304"/>
  </g>
  <g partID="856880390">
   <line y1="61.2514" y2="75.6514" x1="110.734" x2="125.134" stroke-linecap="round" stroke="black" stroke-width="2.304"/>
  </g>
  <g partID="856880500">
   <line y1="75.6514" y2="84.7124" x1="125.134" x2="124.948" stroke-linecap="round" stroke="black" stroke-width="2.304"/>
  </g>
  <g partID="856880610">
   <line y1="84.7124" y2="89.9954" x1="124.948" x2="130.231" stroke-linecap="round" stroke="black" stroke-width="2.304"/>
  </g>
  <g partID="856880720">
   <line y1="89.9954" y2="94.7917" x1="130.231" x2="130.291" stroke-linecap="round" stroke="black" stroke-width="2.304"/>
  </g>
  <g partID="856882640">
   <line y1="45.9992" y2="48.6428" x1="95.1711" x2="92.5219" stroke-linecap="round" stroke="black" stroke-width="2.304"/>
  </g>
  <g partID="856882570">
   <line y1="48.6428" y2="49.7641" x1="92.5216" x2="92.5289" stroke-linecap="round" stroke="black" stroke-width="2.304"/>
  </g>
  <g partID="856882500">
   <line y1="136.085" y2="132.793" x1="119.597" x2="119.694" stroke-linecap="round" stroke="black" stroke-width="2.304"/>
  </g>
  <g partID="856883130">
   <line y1="136.626" y2="132.51" x1="135.5" x2="138.709" stroke-linecap="round" stroke="black" stroke-width="2.304"/>
  </g>
  <g partID="856883200">
   <line y1="48.1932" y2="49.7641" x1="85.3269" x2="85.3341" stroke-linecap="round" stroke="black" stroke-width="2.304"/>
  </g>
  <g partID="856887080">
   <line y1="32.4914" y2="32.4914" x1="202.361" x2="135.801" stroke-linecap="round" stroke="black" stroke-width="3.456"/>
  </g>
  <g partID="856886730">
   <line y1="32.4914" y2="32.4914" x1="135.801" x2="121.401" stroke-linecap="round" stroke="black" stroke-width="3.456"/>
  </g>
  <g partID="856889410">
   <line y1="37.8948" y2="32.4914" x1="207.653" x2="202.361" stroke-linecap="round" stroke="black" stroke-width="3.456"/>
  </g>
  <g partID="856886380">
   <line y1="32.4914" y2="11.5561" x1="121.401" x2="121.351" stroke-linecap="round" stroke="black" stroke-width="3.456"/>
  </g>
  <g partID="856886030">
   <line y1="51.5915" y2="37.8948" x1="207.71" x2="207.653" stroke-linecap="round" stroke="black" stroke-width="3.456"/>
  </g>
  <g partID="856888640">
   <line y1="73.3932" y2="82.8514" x1="171.934" x2="171.934" stroke-linecap="round" stroke="black" stroke-width="2.304"/>
  </g>
  <g partID="856896340">
   <line y1="90.0514" y2="90.0514" x1="179.134" x2="183.661" stroke-linecap="round" stroke="black" stroke-width="2.304"/>
  </g>
  <g partID="856888220">
   <line y1="11.556" y2="23.9097" x1="85.3419" x2="85.3233" stroke-linecap="round" stroke="black" stroke-width="2.304"/>
  </g>
  <g partID="856888150">
   <line y1="82.8805" y2="82.8914" x1="183.661" x2="182.734" stroke-linecap="round" stroke="black" stroke-width="2.304"/>
  </g>
  <g partID="857527690">
   <line y1="82.8914" y2="80.2054" x1="182.734" x2="180.077" stroke-linecap="round" stroke="black" stroke-width="2.304"/>
  </g>
  <g partID="856888830">
   <line y1="20.3097" y2="11.5561" x1="92.5234" x2="92.5407" stroke-linecap="round" stroke="black" stroke-width="2.304"/>
  </g>
  <g partID="856889970">
   <line y1="44.5932" y2="64.8559" x1="193.317" x2="193.262" stroke-linecap="round" stroke="black" stroke-width="2.304"/>
  </g>
  <g partID="856889900">
   <line y1="64.8559" y2="68.4993" x1="193.262" x2="189.8" stroke-linecap="round" stroke="black" stroke-width="2.304"/>
  </g>
  <g partID="856889830">
   <line y1="68.4993" y2="68.4834" x1="189.801" x2="188.581" stroke-linecap="round" stroke="black" stroke-width="2.304"/>
  </g>
  <g partID="856889760">
   <line y1="11.5561" y2="16.7097" x1="99.7387" x2="99.7245" stroke-linecap="round" stroke="black" stroke-width="2.304"/>
  </g>
  <g partID="856890710">
   <line y1="42.7932" y2="68.4993" x1="200.522" x2="200.548" stroke-linecap="round" stroke="black" stroke-width="2.304"/>
  </g>
  <g partID="856890780">
   <line y1="68.4993" y2="75.6039" x1="200.549" x2="195.084" stroke-linecap="round" stroke="black" stroke-width="2.304"/>
  </g>
  <g partID="856890850">
   <line y1="75.6039" y2="75.6384" x1="195.083" x2="188.581" stroke-linecap="round" stroke="black" stroke-width="2.304"/>
  </g>
  <g partID="856890310">
   <line y1="11.5561" y2="13.1098" x1="106.934" x2="106.927" stroke-linecap="round" stroke="black" stroke-width="2.304"/>
  </g>
  <g partID="856892760">
   <line y1="61.2514" y2="61.1848" x1="177.334" x2="164.387" stroke-linecap="round" stroke="black" stroke-width="3.456"/>
  </g>
  <g partID="856892450">
   <line y1="72.1181" y2="102.171" x1="153.721" x2="153.721" stroke-linecap="round" stroke="black" stroke-width="3.456"/>
  </g>
  <g partID="856892140">
   <line y1="45.9314" y2="61.2514" x1="177.334" x2="177.334" stroke-linecap="round" stroke="black" stroke-width="3.456"/>
  </g>
  <g partID="856894240">
   <line y1="32.4514" y2="32.4914" x1="177.334" x2="202.361" stroke-linecap="round" stroke="black" stroke-width="3.456"/>
  </g>
  <g partID="856893850">
   <line y1="32.4914" y2="37.8948" x1="202.361" x2="207.653" stroke-linecap="round" stroke="black" stroke-width="3.456"/>
  </g>
  <g partID="856893460">
   <line y1="37.8948" y2="51.5915" x1="207.653" x2="207.71" stroke-linecap="round" stroke="black" stroke-width="3.456"/>
  </g>
  <g partID="856893070">
   <line y1="33.3581" y2="32.4514" x1="177.334" x2="177.334" stroke-linecap="round" stroke="black" stroke-width="3.456"/>
  </g>
  <g partID="856894630">
   <line y1="45.9314" y2="61.2514" x1="177.334" x2="177.334" stroke-linecap="round" stroke="black" stroke-width="3.456"/>
  </g>
  <g partID="856894960">
   <line y1="61.2514" y2="61.2514" x1="177.334" x2="183.661" stroke-linecap="round" stroke="black" stroke-width="3.456"/>
  </g>
  <g partID="856912650">
   <line y1="61.1848" y2="72.1181" x1="164.387" x2="153.721" stroke-linecap="round" stroke="black" stroke-width="3.456"/>
  </g>
  <g partID="856913200">
   <line y1="72.1181" y2="59.4514" x1="133.987" x2="121.534" stroke-linecap="round" stroke="black" stroke-width="3.456"/>
  </g>
  <g partID="856915780">
   <line y1="82.8514" y2="90.0514" x1="171.934" x2="179.134" stroke-linecap="round" stroke="black" stroke-width="2.304"/>
  </g>
  <g partID="856923280">
   <line y1="32.4914" y2="32.4914" x1="135.801" x2="121.241" stroke-linecap="round" stroke="black" stroke-width="3.456"/>
  </g>
  <g partID="856921860">
   <line y1="32.4914" y2="11.5561" x1="121.241" x2="121.334" stroke-linecap="round" stroke="black" stroke-width="3.456"/>
  </g>
  <g partID="856919500">
   <line y1="32.4514" y2="32.4914" x1="47.7336" x2="135.801" stroke-linecap="round" stroke="black" stroke-width="3.456"/>
  </g>
  <g partID="856918910">
   <line y1="73.8514" y2="32.4514" x1="8.1336" x2="47.7336" stroke-linecap="round" stroke="black" stroke-width="3.456"/>
  </g>
  <g partID="856918320">
   <line y1="106.251" y2="73.8514" x1="8.1336" x2="8.1336" stroke-linecap="round" stroke="black" stroke-width="3.456"/>
  </g>
  <g partID="856917730">
   <line y1="111.651" y2="106.251" x1="13.5336" x2="8.1336" stroke-linecap="round" stroke="black" stroke-width="3.456"/>
  </g>
  <g partID="856916920">
   <line y1="111.651" y2="111.651" x1="16.2536" x2="13.5336" stroke-linecap="round" stroke="black" stroke-width="3.456"/>
  </g>
  <g partID="856925050">
   <line y1="32.4914" y2="32.4914" x1="121.241" x2="135.801" stroke-linecap="round" stroke="black" stroke-width="3.456"/>
  </g>
  <g partID="857526960">
   <line y1="135.051" y2="136.483" x1="211.534" x2="211.534" stroke-linecap="round" stroke="black" stroke-width="2.304"/>
  </g>
  <g partID="857526970">
   <line y1="106.511" y2="131.371" x1="207.743" x2="208.014" stroke-linecap="round" stroke="black" stroke-width="2.304"/>
  </g>
  <g partID="857527020">
   <line y1="131.371" y2="135.051" x1="208.014" x2="211.534" stroke-linecap="round" stroke="black" stroke-width="2.304"/>
  </g>
  <g partID="857527950">
   <line y1="124.251" y2="120.534" x1="148.534" x2="145.909" stroke-linecap="round" stroke="black" stroke-width="3.456"/>
  </g>
  <g partID="857527960">
   <line y1="136.483" y2="124.251" x1="148.534" x2="148.534" stroke-linecap="round" stroke="black" stroke-width="3.456"/>
  </g>
 </g>
</svg>
