; NON-PLATED HOLES START AT T1
; THROUGH (PLATED) HOLES START AT T100
M48
INCH
T1C0.118110
T100C0.030000
T101C0.038000
T102C0.035000
T103C0.015748
%
T1
X038407Y001196
X038407Y038196
X001157Y001196
X001157Y038196
T100
X028907Y020948
X019907Y027948
X010907Y019946
X028907Y027948
X001907Y019946
X019907Y019946
X028907Y019946
X010907Y026946
X010907Y020948
X001907Y026946
X001907Y020948
X010907Y027948
X019907Y026946
X001907Y027948
X028907Y026946
X019907Y020948
T101
X000907Y029946
X038407Y033946
X022907Y023946
X037407Y013446
X012407Y002446
X031907Y023946
X021407Y002446
X038407Y029946
X030407Y002446
X029157Y005696
X035157Y004696
X007907Y023946
X000907Y016446
X038407Y032946
X016907Y023946
X006407Y002446
X012407Y001446
X025907Y023946
X015407Y002446
X021407Y001446
X038407Y016446
X038407Y028946
X034907Y023946
X030407Y001446
X024407Y002446
X029157Y004696
X035157Y003696
X033407Y002446
X000907Y015446
X038407Y031946
X006407Y001446
X015407Y001446
X000907Y030946
X038407Y015446
X024407Y001446
X029157Y003696
X033407Y001446
X027407Y002446
X000907Y014446
X038407Y030946
X010407Y002446
X038407Y014446
X027407Y001446
X000907Y013446
X005907Y023946
X014907Y023946
X010407Y001446
X038407Y013446
X023907Y023946
X013407Y002446
X032907Y023946
X022407Y002446
X000907Y024946
X031407Y002446
X001907Y016446
X007407Y002446
X013407Y001446
X016407Y002446
X022407Y001446
X000907Y023946
X038407Y009696
X031407Y001446
X025407Y002446
X035157Y014696
X001907Y015446
X007407Y001446
X016407Y001446
X000907Y022946
X038407Y008696
X025407Y001446
X028407Y002446
X029157Y014696
X035157Y013696
X001907Y014446
X011407Y002446
X035157Y009696
X038407Y007696
X028407Y001446
X029157Y013696
X035157Y012696
X001907Y013446
X006907Y023946
X038407Y010696
X015907Y023946
X005407Y002446
X011407Y001446
X029157Y009696
X035157Y008696
X024907Y023946
X014407Y002446
X018046Y017013
X037407Y016446
X033907Y023946
X023407Y002446
X029157Y012696
X035157Y011696
X032407Y002446
X005407Y001446
X029157Y008696
X035157Y007696
X008407Y002446
X014407Y001446
X038407Y035946
X037407Y015446
X017407Y002446
X023407Y001446
X029157Y011696
X035157Y010696
X032407Y001446
X026407Y002446
X029157Y007696
X035157Y006696
X008407Y001446
X038407Y034946
X037407Y014446
X017407Y001446
X029157Y010696
X026407Y001446
X004907Y023946
X029157Y006696
X035157Y005696
X013907Y023946
T102
X017907Y021696
X035907Y018696
X026907Y021696
X008907Y028946
X035907Y021696
X017907Y028946
X002907Y025946
X026907Y028946
X029907Y018696
X011907Y025946
X035907Y028946
X003907Y018696
X020907Y025946
X012907Y018696
X029907Y021696
X003907Y021696
X021907Y018696
X012907Y021696
X005907Y025946
X030907Y018696
X029907Y028946
X021907Y021696
X003907Y028946
X014907Y025946
X006907Y018696
X030907Y021696
X012907Y028946
X023907Y025946
X015907Y018696
X032907Y025946
X021907Y028946
X006907Y021696
X024907Y018696
X030907Y028946
X015907Y021696
X008907Y025946
X033907Y018696
X024907Y021696
X006907Y028946
X017907Y025946
X009907Y018696
X015907Y028946
X033907Y021696
X026907Y025946
X018907Y018696
X035907Y025946
X024907Y028946
X009907Y021696
X027907Y018696
X033907Y028946
X018907Y021696
X036907Y018696
X027907Y021696
X009907Y028946
X036907Y021696
X018907Y028946
X029907Y025946
X003907Y025946
X027907Y028946
X012907Y025946
X036907Y028946
X004907Y018696
X021907Y025946
X013907Y018696
X030907Y025946
X004907Y021696
X022907Y018696
X013907Y021696
X006907Y025946
X031907Y018696
X022907Y021696
X004907Y028946
X015907Y025946
X007907Y018696
X031907Y021696
X013907Y028946
X024907Y025946
X016907Y018696
X022907Y028946
X033907Y025946
X007907Y021696
X025907Y018696
X031907Y028946
X016907Y021696
X009907Y025946
X034907Y018696
X025907Y021696
X007907Y028946
X018907Y025946
X034907Y021696
X016907Y028946
X027907Y025946
X025907Y028946
X036907Y025946
X034907Y028946
X002907Y018696
X011907Y018696
X002907Y021696
X020907Y018696
X011907Y021696
X004907Y025946
X020907Y021696
X002907Y028946
X013907Y025946
X005907Y018696
X011907Y028946
X022907Y025946
X014907Y018696
X020907Y028946
X031907Y025946
X005907Y021696
X023907Y018696
X014907Y021696
X007907Y025946
X032907Y018696
X005907Y028946
X023907Y021696
X016907Y025946
X008907Y018696
X032907Y021696
X014907Y028946
X025907Y025946
X017907Y018696
X034907Y025946
X023907Y028946
X008907Y021696
X026907Y018696
X032907Y028946
T103
X008407Y034446
X023907Y033446
X036157Y017696
X009407Y033446
X025907Y032446
X034907Y030446
X017407Y030946
X009907Y032946
X020907Y017446
X009907Y022946
X016407Y031946
X032907Y031446
X008907Y033946
X027907Y022946
X015907Y032446
X024907Y032946
X033907Y030946
X011907Y017446
X028157Y011196
X003407Y017446
X018907Y022946
X036407Y020696
X022907Y033946
X031907Y031946
X027407Y017946
X016907Y031446
T00
M30
