G04 MADE WITH FRITZING*
G04 WWW.FRITZING.ORG*
G04 DOUBLE SIDED*
G04 HOLES PLATED*
G04 CONTOUR ON CENTER OF CONTOUR VECTOR*
%ASAXBY*%
%FSLAX23Y23*%
%MOIN*%
%OFA0B0*%
%SFA1.0B1.0*%
%ADD10C,0.049370*%
%ADD11C,0.088000*%
%ADD12C,0.080000*%
%ADD13C,0.128110*%
%ADD14C,0.085000*%
%ADD15R,0.085000X0.085000*%
%LNMASK0*%
G90*
G70*
G54D10*
X3616Y1770D03*
G54D11*
X1805Y1701D03*
X2141Y145D03*
X2241Y145D03*
X2341Y145D03*
X2441Y145D03*
X2541Y145D03*
X2641Y145D03*
X2741Y145D03*
X2841Y145D03*
X1041Y145D03*
X1141Y145D03*
X1241Y145D03*
X1341Y145D03*
X1441Y145D03*
X1541Y145D03*
X1641Y145D03*
X1741Y145D03*
X2141Y245D03*
X2241Y245D03*
X2341Y245D03*
X2441Y245D03*
X2541Y245D03*
X2641Y245D03*
X2741Y245D03*
X2841Y245D03*
X1041Y245D03*
X1141Y245D03*
X1241Y245D03*
X1341Y245D03*
X1441Y245D03*
X1541Y245D03*
X1641Y245D03*
X1741Y245D03*
G54D10*
X2816Y1120D03*
X3641Y2070D03*
G54D11*
X3191Y2395D03*
X3291Y2395D03*
X3391Y2395D03*
X3491Y2395D03*
X2291Y2395D03*
X2391Y2395D03*
X2491Y2395D03*
X2591Y2395D03*
X1391Y2395D03*
X1491Y2395D03*
X1591Y2395D03*
X1691Y2395D03*
X491Y2395D03*
X591Y2395D03*
X691Y2395D03*
X791Y2395D03*
G54D10*
X991Y2295D03*
X1891Y2295D03*
X2791Y2295D03*
X1191Y1745D03*
X2091Y1745D03*
X2741Y1795D03*
X341Y1745D03*
X3491Y3045D03*
X3391Y3095D03*
X3291Y3145D03*
X3191Y3195D03*
X2591Y3245D03*
X2491Y3295D03*
X2391Y3345D03*
X2291Y3395D03*
X1741Y3095D03*
X1691Y3145D03*
X1641Y3195D03*
X1591Y3245D03*
X991Y3295D03*
X941Y3345D03*
X891Y3395D03*
X841Y3445D03*
G54D12*
X2891Y1995D03*
X2891Y2095D03*
X1091Y1995D03*
X1091Y2095D03*
X1991Y1995D03*
X1991Y2095D03*
X191Y1995D03*
X191Y2095D03*
X2891Y2695D03*
X2891Y2795D03*
X1991Y2695D03*
X1991Y2795D03*
X1091Y2695D03*
X1091Y2795D03*
X191Y2695D03*
X191Y2795D03*
G54D11*
X541Y145D03*
X641Y145D03*
X741Y145D03*
X841Y145D03*
X541Y245D03*
X641Y245D03*
X741Y245D03*
X841Y245D03*
X3041Y245D03*
X3141Y245D03*
X3241Y245D03*
X3341Y245D03*
X3041Y145D03*
X3141Y145D03*
X3241Y145D03*
X3341Y145D03*
G54D13*
X3841Y3820D03*
X3841Y120D03*
X116Y3820D03*
X116Y120D03*
G54D11*
X3841Y3595D03*
X3841Y3495D03*
X3841Y3395D03*
X3841Y3295D03*
X3841Y3195D03*
X3841Y3095D03*
X3841Y2995D03*
X3841Y2895D03*
G54D14*
X2091Y2595D03*
X2091Y2895D03*
X2191Y2595D03*
X2191Y2895D03*
X2291Y2595D03*
X2291Y2895D03*
X2391Y2595D03*
X2391Y2895D03*
X2491Y2595D03*
X2491Y2895D03*
X2591Y2595D03*
X2591Y2895D03*
X2691Y2595D03*
X2691Y2895D03*
X2791Y2595D03*
X2791Y2895D03*
X2991Y2595D03*
X2991Y2895D03*
X3091Y2595D03*
X3091Y2895D03*
X3191Y2595D03*
X3191Y2895D03*
X3291Y2595D03*
X3291Y2895D03*
X3391Y2595D03*
X3391Y2895D03*
X3491Y2595D03*
X3491Y2895D03*
X3591Y2595D03*
X3591Y2895D03*
X3691Y2595D03*
X3691Y2895D03*
X1191Y2595D03*
X1191Y2895D03*
X1291Y2595D03*
X1291Y2895D03*
X1391Y2595D03*
X1391Y2895D03*
X1491Y2595D03*
X1491Y2895D03*
X1591Y2595D03*
X1591Y2895D03*
X1691Y2595D03*
X1691Y2895D03*
X1791Y2595D03*
X1791Y2895D03*
X1891Y2595D03*
X1891Y2895D03*
X291Y2595D03*
X291Y2895D03*
X391Y2595D03*
X391Y2895D03*
X491Y2595D03*
X491Y2895D03*
X591Y2595D03*
X591Y2895D03*
X691Y2595D03*
X691Y2895D03*
X791Y2595D03*
X791Y2895D03*
X891Y2595D03*
X891Y2895D03*
X991Y2595D03*
X991Y2895D03*
G54D11*
X91Y2995D03*
X91Y3095D03*
X91Y2295D03*
X91Y2395D03*
X91Y2495D03*
G54D14*
X3691Y2170D03*
X3691Y1870D03*
X3591Y2170D03*
X3591Y1870D03*
X3491Y2170D03*
X3491Y1870D03*
X3391Y2170D03*
X3391Y1870D03*
X3291Y2170D03*
X3291Y1870D03*
X3191Y2170D03*
X3191Y1870D03*
X3091Y2170D03*
X3091Y1870D03*
X2991Y2170D03*
X2991Y1870D03*
X2791Y2170D03*
X2791Y1870D03*
X2691Y2170D03*
X2691Y1870D03*
X2591Y2170D03*
X2591Y1870D03*
X2491Y2170D03*
X2491Y1870D03*
X2391Y2170D03*
X2391Y1870D03*
X2291Y2170D03*
X2291Y1870D03*
X2191Y2170D03*
X2191Y1870D03*
X2091Y2170D03*
X2091Y1870D03*
X1891Y2170D03*
X1891Y1870D03*
X1791Y2170D03*
X1791Y1870D03*
X1691Y2170D03*
X1691Y1870D03*
X1591Y2170D03*
X1591Y1870D03*
X1491Y2170D03*
X1491Y1870D03*
X1391Y2170D03*
X1391Y1870D03*
X1291Y2170D03*
X1291Y1870D03*
X1191Y2170D03*
X1191Y1870D03*
X991Y2170D03*
X991Y1870D03*
X891Y2170D03*
X891Y1870D03*
X791Y2170D03*
X791Y1870D03*
X691Y2170D03*
X691Y1870D03*
X591Y2170D03*
X591Y1870D03*
X491Y2170D03*
X491Y1870D03*
X391Y2170D03*
X391Y1870D03*
X291Y2170D03*
X291Y1870D03*
G54D11*
X3516Y370D03*
X3516Y470D03*
X3516Y570D03*
X3516Y670D03*
X3516Y770D03*
X3516Y870D03*
X3516Y970D03*
X3516Y1070D03*
X3516Y1170D03*
X3516Y1270D03*
X3516Y1370D03*
X3516Y1470D03*
X2916Y370D03*
X2916Y470D03*
X2916Y570D03*
X2916Y670D03*
X2916Y770D03*
X2916Y870D03*
X2916Y970D03*
X2916Y1070D03*
X2916Y1170D03*
X2916Y1270D03*
X2916Y1370D03*
X2916Y1470D03*
X3841Y1645D03*
X3841Y1545D03*
X3841Y1445D03*
X3841Y1345D03*
X91Y1645D03*
X91Y1545D03*
X91Y1445D03*
X91Y1345D03*
X3741Y1645D03*
X3741Y1545D03*
X3741Y1445D03*
X3741Y1345D03*
X191Y1645D03*
X191Y1545D03*
X191Y1445D03*
X191Y1345D03*
X3841Y1070D03*
X3841Y970D03*
X3841Y870D03*
X3841Y770D03*
G54D15*
X2091Y2595D03*
X2991Y2595D03*
X1191Y2595D03*
X291Y2595D03*
X3691Y2170D03*
X2791Y2170D03*
X1891Y2170D03*
X991Y2170D03*
G04 End of Mask0*
M02*