<?xml version="1.0" encoding="UTF-8" standalone="no"?>
<!-- Created with Inkscape (http://www.inkscape.org/) -->

<svg
   xmlns:dc="http://purl.org/dc/elements/1.1/"
   xmlns:cc="http://creativecommons.org/ns#"
   xmlns:rdf="http://www.w3.org/1999/02/22-rdf-syntax-ns#"
   xmlns:svg="http://www.w3.org/2000/svg"
   xmlns="http://www.w3.org/2000/svg"
   xmlns:sodipodi="http://sodipodi.sourceforge.net/DTD/sodipodi-0.dtd"
   xmlns:inkscape="http://www.inkscape.org/namespaces/inkscape"
   width="210mm"
   height="297mm"
   viewBox="0 0 210 297"
   version="1.1"
   id="svg866"
   inkscape:version="0.92.4 (unknown)"
   sodipodi:docname="clockadapter-cnc.svg">
  <defs
     id="defs860" />
  <sodipodi:namedview
     id="base"
     pagecolor="#ffffff"
     bordercolor="#666666"
     borderopacity="1.0"
     inkscape:pageopacity="0.0"
     inkscape:pageshadow="2"
     inkscape:zoom="0.35"
     inkscape:cx="-182.85714"
     inkscape:cy="560"
     inkscape:document-units="mm"
     inkscape:current-layer="layer1"
     showgrid="false"
     inkscape:window-width="1920"
     inkscape:window-height="1103"
     inkscape:window-x="0"
     inkscape:window-y="27"
     inkscape:window-maximized="1" />
  <metadata
     id="metadata863">
    <rdf:RDF>
      <cc:Work
         rdf:about="">
        <dc:format>image/svg+xml</dc:format>
        <dc:type
           rdf:resource="http://purl.org/dc/dcmitype/StillImage" />
        <dc:title></dc:title>
      </cc:Work>
    </rdf:RDF>
  </metadata>
  <g
     inkscape:label="Layer 1"
     inkscape:groupmode="layer"
     id="layer1">
    <path
       inkscape:connector-curvature="0"
       id="path19-6"
       style="color:#000000;font-style:normal;font-variant:normal;font-weight:normal;font-stretch:normal;font-size:medium;line-height:normal;font-family:sans-serif;font-variant-ligatures:normal;font-variant-position:normal;font-variant-caps:normal;font-variant-numeric:normal;font-variant-alternates:normal;font-feature-settings:normal;text-indent:0;text-align:start;text-decoration:none;text-decoration-line:none;text-decoration-style:solid;text-decoration-color:#000000;letter-spacing:normal;word-spacing:normal;text-transform:none;writing-mode:lr-tb;direction:ltr;text-orientation:mixed;dominant-baseline:auto;baseline-shift:baseline;text-anchor:start;white-space:normal;shape-padding:0;clip-rule:nonzero;display:inline;overflow:visible;visibility:visible;opacity:1;isolation:auto;mix-blend-mode:normal;color-interpolation:sRGB;color-interpolation-filters:linearRGB;solid-color:#000000;solid-opacity:1;vector-effect:none;fill:#000000;fill-opacity:1;fill-rule:nonzero;stroke:none;stroke-width:0.17638822;stroke-linecap:butt;stroke-linejoin:miter;stroke-miterlimit:4;stroke-dasharray:none;stroke-dashoffset:0;stroke-opacity:1;color-rendering:auto;image-rendering:auto;shape-rendering:auto;text-rendering:auto;enable-background:accumulate"
       d="m -1.0583333,199.9982 v 0.0882 97.97194 H 37.094578 V 199.9982 Z m 0.17638818,0.17638 H 36.918194 v 97.70737 H -0.88194512 Z m 3.33874292,1.91147 a 1.5999928,1.5999928 0 0 0 -1.59990243,1.60042 1.5999928,1.5999928 0 0 0 1.59990243,1.5999 1.5999928,1.5999928 0 0 0 1.5999021,-1.5999 1.5999928,1.5999928 0 0 0 -1.5999021,-1.60042 z m 31.1148982,0 a 1.5999928,1.5999928 0 0 0 -1.599903,1.60042 1.5999928,1.5999928 0 0 0 1.599903,1.5999 1.5999928,1.5999928 0 0 0 1.599901,-1.5999 1.5999928,1.5999928 0 0 0 -1.599901,-1.60042 z m -31.1428035,5.9154 a 0.7365972,0.7365972 0 0 0 -0.7369059,0.73639 0.7365972,0.7365972 0 0 0 0.7369059,0.73691 0.7365972,0.7365972 0 0 0 0.7363891,-0.73691 0.7365972,0.7365972 0 0 0 -0.7363891,-0.73639 z m 31.1428035,0.0279 a 0.7365972,0.7365972 0 0 0 -0.736391,0.7369 0.7365972,0.7365972 0 0 0 0.736391,0.73639 0.7365972,0.7365972 0 0 0 0.736389,-0.73639 0.7365972,0.7365972 0 0 0 -0.736389,-0.7369 z m -31.1428035,2.51199 a 0.7365972,0.7365972 0 0 0 -0.7369059,0.73639 0.7365972,0.7365972 0 0 0 0.7369059,0.7369 0.7365972,0.7365972 0 0 0 0.7363891,-0.7369 0.7365972,0.7365972 0 0 0 -0.7363891,-0.73639 z m 31.1428035,0.0284 a 0.7365972,0.7365972 0 0 0 -0.736391,0.73639 0.7365972,0.7365972 0 0 0 0.736391,0.73639 0.7365972,0.7365972 0 0 0 0.736389,-0.73639 0.7365972,0.7365972 0 0 0 -0.736389,-0.73639 z m -31.1428035,2.51147 a 0.7365972,0.7365972 0 0 0 -0.7369059,0.73691 0.7365972,0.7365972 0 0 0 0.7369059,0.73639 0.7365972,0.7365972 0 0 0 0.7363891,-0.73639 0.7365972,0.7365972 0 0 0 -0.7363891,-0.73691 z m 31.1428035,0.0284 a 0.7365972,0.7365972 0 0 0 -0.736391,0.73639 0.7365972,0.7365972 0 0 0 0.736391,0.73691 0.7365972,0.7365972 0 0 0 0.736389,-0.73691 0.7365972,0.7365972 0 0 0 -0.736389,-0.73639 z m -31.1428035,2.51148 a 0.7365972,0.7365972 0 0 0 -0.7369059,0.73691 0.7365972,0.7365972 0 0 0 0.7369059,0.73639 0.7365972,0.7365972 0 0 0 0.7363891,-0.73639 0.7365972,0.7365972 0 0 0 -0.7363891,-0.73691 z m 31.1428035,0.0284 a 0.7365972,0.7365972 0 0 0 -0.736391,0.73639 0.7365972,0.7365972 0 0 0 0.736391,0.73691 0.7365972,0.7365972 0 0 0 0.736389,-0.73691 0.7365972,0.7365972 0 0 0 -0.736389,-0.73639 z m -31.1428035,2.51199 a 0.7365972,0.7365972 0 0 0 -0.7369059,0.73639 0.7365972,0.7365972 0 0 0 0.7369059,0.73639 0.7365972,0.7365972 0 0 0 0.7363891,-0.73639 0.7365972,0.7365972 0 0 0 -0.7363891,-0.73639 z m 31.1428035,0.0279 a 0.7365972,0.7365972 0 0 0 -0.736391,0.73691 0.7365972,0.7365972 0 0 0 0.736391,0.73639 0.7365972,0.7365972 0 0 0 0.736389,-0.73639 0.7365972,0.7365972 0 0 0 -0.736389,-0.73691 z m -31.1428035,2.512 a 0.7365972,0.7365972 0 0 0 -0.7369059,0.73639 0.7365972,0.7365972 0 0 0 0.7369059,0.73691 0.7365972,0.7365972 0 0 0 0.7363891,-0.73691 0.7365972,0.7365972 0 0 0 -0.7363891,-0.73639 z m 31.1428035,0.0279 a 0.7365972,0.7365972 0 0 0 -0.736391,0.73691 0.7365972,0.7365972 0 0 0 0.736391,0.73639 0.7365972,0.7365972 0 0 0 0.736389,-0.73639 0.7365972,0.7365972 0 0 0 -0.736389,-0.73691 z m -31.1428035,2.51199 a 0.7365972,0.7365972 0 0 0 -0.7369059,0.73639 0.7365972,0.7365972 0 0 0 0.7369059,0.7369 0.7365972,0.7365972 0 0 0 0.7363891,-0.7369 0.7365972,0.7365972 0 0 0 -0.7363891,-0.73639 z m 31.1428035,0.0284 a 0.7365972,0.7365972 0 0 0 -0.736391,0.73639 0.7365972,0.7365972 0 0 0 0.736391,0.73639 0.7365972,0.7365972 0 0 0 0.736389,-0.73639 0.7365972,0.7365972 0 0 0 -0.736389,-0.73639 z m -31.1428035,2.51147 a 0.7365972,0.7365972 0 0 0 -0.7369059,0.73691 0.7365972,0.7365972 0 0 0 0.7369059,0.73639 0.7365972,0.7365972 0 0 0 0.7363891,-0.73639 0.7365972,0.7365972 0 0 0 -0.7363891,-0.73691 z m 31.1428035,0.0284 a 0.7365972,0.7365972 0 0 0 -0.736391,0.73639 0.7365972,0.7365972 0 0 0 0.736391,0.73691 0.7365972,0.7365972 0 0 0 0.736389,-0.73691 0.7365972,0.7365972 0 0 0 -0.736389,-0.73639 z m -22.225001,6.38773 a 0.6984973,0.6984973 0 0 0 -0.698149,0.69866 0.6984973,0.6984973 0 0 0 0.698149,0.69867 0.6984973,0.6984973 0 0 0 0.698665,-0.69867 0.6984973,0.6984973 0 0 0 -0.698665,-0.69866 z m 2.540413,0 a 0.6984973,0.6984973 0 0 0 -0.698666,0.69866 0.6984973,0.6984973 0 0 0 0.698666,0.69867 0.6984973,0.6984973 0 0 0 0.698148,-0.69867 0.6984973,0.6984973 0 0 0 -0.698148,-0.69866 z m 2.539897,0 a 0.6984973,0.6984973 0 0 0 -0.698666,0.69866 0.6984973,0.6984973 0 0 0 0.698666,0.69867 0.6984973,0.6984973 0 0 0 0.698148,-0.69867 0.6984973,0.6984973 0 0 0 -0.698148,-0.69866 z m 2.539896,0 a 0.6984973,0.6984973 0 0 0 -0.698665,0.69866 0.6984973,0.6984973 0 0 0 0.698665,0.69867 0.6984973,0.6984973 0 0 0 0.698666,-0.69867 0.6984973,0.6984973 0 0 0 -0.698666,-0.69866 z m 2.539897,0 a 0.6984973,0.6984973 0 0 0 -0.698666,0.69866 0.6984973,0.6984973 0 0 0 0.698666,0.69867 0.6984973,0.6984973 0 0 0 0.698665,-0.69867 0.6984973,0.6984973 0 0 0 -0.698665,-0.69866 z m 2.539896,0 a 0.6984973,0.6984973 0 0 0 -0.698148,0.69866 0.6984973,0.6984973 0 0 0 0.698148,0.69867 0.6984973,0.6984973 0 0 0 0.698666,-0.69867 0.6984973,0.6984973 0 0 0 -0.698666,-0.69866 z m 2.540415,0 a 0.6984973,0.6984973 0 0 0 -0.698667,0.69866 0.6984973,0.6984973 0 0 0 0.698667,0.69867 0.6984973,0.6984973 0 0 0 0.698148,-0.69867 0.6984973,0.6984973 0 0 0 -0.698148,-0.69866 z m 2.539897,0 a 0.6984973,0.6984973 0 0 0 -0.698667,0.69866 0.6984973,0.6984973 0 0 0 0.698667,0.69867 0.6984973,0.6984973 0 0 0 0.698148,-0.69867 0.6984973,0.6984973 0 0 0 -0.698148,-0.69866 z m -27.4065973,2.50217 v 1.47278 h 1.473295 v -1.47278 z m 3.2762854,0 a 0.7365972,0.7365972 0 0 0 -0.7363888,0.73639 0.7365972,0.7365972 0 0 0 0.7363888,0.73639 0.7365972,0.7365972 0 0 0 0.7369059,-0.73639 0.7365972,0.7365972 0 0 0 -0.7369059,-0.73639 z m 2.5404136,0 a 0.7365972,0.7365972 0 0 0 -0.7369059,0.73639 0.7365972,0.7365972 0 0 0 0.7369059,0.73639 0.7365972,0.7365972 0 0 0 0.7363891,-0.73639 0.7365972,0.7365972 0 0 0 -0.7363891,-0.73639 z m -5.0803099,5.0798 a 0.7365972,0.7365972 0 0 0 -0.7363891,0.73638 0.7365972,0.7365972 0 0 0 0.7363891,0.73691 0.7365972,0.7365972 0 0 0 0.7369059,-0.73691 0.7365972,0.7365972 0 0 0 -0.7369059,-0.73638 z m 2.5398963,0 a 0.7365972,0.7365972 0 0 0 -0.7363888,0.73638 0.7365972,0.7365972 0 0 0 0.7363888,0.73691 0.7365972,0.7365972 0 0 0 0.7369059,-0.73691 0.7365972,0.7365972 0 0 0 -0.7369059,-0.73638 z m 1.8035077,0 v 1.47329 h 1.473295 v -1.47329 z m 3.8483442,0.0382 v 1.39681 h 1.396814 v -1.39681 z m 3.238562,0 a 0.6984973,0.6984973 0 0 0 -0.698666,0.69815 0.6984973,0.6984973 0 0 0 0.698666,0.69866 0.6984973,0.6984973 0 0 0 0.698148,-0.69866 0.6984973,0.6984973 0 0 0 -0.698148,-0.69815 z m 2.539897,0 a 0.6984973,0.6984973 0 0 0 -0.698666,0.69815 0.6984973,0.6984973 0 0 0 0.698666,0.69866 0.6984973,0.6984973 0 0 0 0.698148,-0.69866 0.6984973,0.6984973 0 0 0 -0.698148,-0.69815 z m 2.539896,0 a 0.6984973,0.6984973 0 0 0 -0.698665,0.69815 0.6984973,0.6984973 0 0 0 0.698665,0.69866 0.6984973,0.6984973 0 0 0 0.698666,-0.69866 0.6984973,0.6984973 0 0 0 -0.698666,-0.69815 z m 2.539897,0 a 0.6984973,0.6984973 0 0 0 -0.698666,0.69815 0.6984973,0.6984973 0 0 0 0.698666,0.69866 0.6984973,0.6984973 0 0 0 0.698665,-0.69866 0.6984973,0.6984973 0 0 0 -0.698665,-0.69815 z m 2.539896,0 a 0.6984973,0.6984973 0 0 0 -0.698148,0.69815 0.6984973,0.6984973 0 0 0 0.698148,0.69866 0.6984973,0.6984973 0 0 0 0.698666,-0.69866 0.6984973,0.6984973 0 0 0 -0.698666,-0.69815 z m 2.540415,0 a 0.6984973,0.6984973 0 0 0 -0.698667,0.69815 0.6984973,0.6984973 0 0 0 0.698667,0.69866 0.6984973,0.6984973 0 0 0 0.698148,-0.69866 0.6984973,0.6984973 0 0 0 -0.698148,-0.69815 z m 2.539897,0 a 0.6984973,0.6984973 0 0 0 -0.698667,0.69815 0.6984973,0.6984973 0 0 0 0.698667,0.69866 0.6984973,0.6984973 0 0 0 0.698148,-0.69866 0.6984973,0.6984973 0 0 0 -0.698148,-0.69815 z m -15.239898,3.37343 a 0.49999707,0.49999707 0 0 0 -0.500228,0.50023 0.49999707,0.49999707 0 0 0 0.500228,0.49971 0.49999707,0.49999707 0 0 0 0.499711,-0.49971 0.49999707,0.49999707 0 0 0 -0.499711,-0.50023 z m 2.539897,0 a 0.49999707,0.49999707 0 0 0 -0.500228,0.50023 0.49999707,0.49999707 0 0 0 0.500228,0.49971 0.49999707,0.49999707 0 0 0 0.499711,-0.49971 0.49999707,0.49999707 0 0 0 -0.499711,-0.50023 z m 2.539896,0 a 0.49999707,0.49999707 0 0 0 -0.500228,0.50023 0.49999707,0.49999707 0 0 0 0.500228,0.49971 0.49999707,0.49999707 0 0 0 0.499711,-0.49971 0.49999707,0.49999707 0 0 0 -0.499711,-0.50023 z m 2.539897,0 a 0.49999707,0.49999707 0 0 0 -0.499711,0.50023 0.49999707,0.49999707 0 0 0 0.499711,0.49971 0.49999707,0.49999707 0 0 0 0.500227,-0.49971 0.49999707,0.49999707 0 0 0 -0.500227,-0.50023 z m 2.539896,0 a 0.49999707,0.49999707 0 0 0 -0.499711,0.50023 0.49999707,0.49999707 0 0 0 0.499711,0.49971 0.49999707,0.49999707 0 0 0 0.500228,-0.49971 0.49999707,0.49999707 0 0 0 -0.500228,-0.50023 z m 2.539899,0 a 0.49999707,0.49999707 0 0 0 -0.499713,0.50023 0.49999707,0.49999707 0 0 0 0.499713,0.49971 0.49999707,0.49999707 0 0 0 0.500227,-0.49971 0.49999707,0.49999707 0 0 0 -0.500227,-0.50023 z m -24.1577005,2.27531 a 0.7365972,0.7365972 0 0 0 -0.7369059,0.73639 0.7365972,0.7365972 0 0 0 0.7369059,0.73639 0.7365972,0.7365972 0 0 0 0.7363891,-0.73639 0.7365972,0.7365972 0 0 0 -0.7363891,-0.73639 z m 31.1428035,0.0279 a 0.7365972,0.7365972 0 0 0 -0.736391,0.73691 0.7365972,0.7365972 0 0 0 0.736391,0.73639 0.7365972,0.7365972 0 0 0 0.736389,-0.73639 0.7365972,0.7365972 0 0 0 -0.736389,-0.73691 z m -4.44469,0.23668 a 0.49999707,0.49999707 0 0 0 -0.500229,0.50023 0.49999707,0.49999707 0 0 0 0.500229,0.4997 0.49999707,0.49999707 0 0 0 0.49971,-0.4997 0.49999707,0.49999707 0 0 0 -0.49971,-0.50023 z m -7.620208,3.175 a 0.49999707,0.49999707 0 0 0 -0.499711,0.50023 0.49999707,0.49999707 0 0 0 0.499711,0.49971 0.49999707,0.49999707 0 0 0 0.500227,-0.49971 0.49999707,0.49999707 0 0 0 -0.500227,-0.50023 z m 5.079795,0 a 0.49999707,0.49999707 0 0 0 -0.499713,0.50023 0.49999707,0.49999707 0 0 0 0.499713,0.49971 0.49999707,0.49999707 0 0 0 0.500227,-0.49971 0.49999707,0.49999707 0 0 0 -0.500227,-0.50023 z m -24.1577005,1.64021 a 0.7365972,0.7365972 0 0 0 -0.7369059,0.73639 0.7365972,0.7365972 0 0 0 0.7369059,0.73691 0.7365972,0.7365972 0 0 0 0.7363891,-0.73691 0.7365972,0.7365972 0 0 0 -0.7363891,-0.73639 z m 31.1428035,0.0284 a 0.7365972,0.7365972 0 0 0 -0.736391,0.73639 0.7365972,0.7365972 0 0 0 0.736391,0.73638 0.7365972,0.7365972 0 0 0 0.736389,-0.73638 0.7365972,0.7365972 0 0 0 -0.736389,-0.73639 z m -19.684588,2.77657 a 0.49999707,0.49999707 0 0 0 -0.500228,0.49971 0.49999707,0.49999707 0 0 0 0.500228,0.50023 0.49999707,0.49999707 0 0 0 0.499711,-0.50023 0.49999707,0.49999707 0 0 0 -0.499711,-0.49971 z m 5.079793,0 a 0.49999707,0.49999707 0 0 0 -0.500228,0.49971 0.49999707,0.49999707 0 0 0 0.500228,0.50023 0.49999707,0.49999707 0 0 0 0.500228,-0.50023 0.49999707,0.49999707 0 0 0 -0.500228,-0.49971 z m -16.5380085,2.2748 a 0.7365972,0.7365972 0 0 0 -0.7369059,0.7369 0.7365972,0.7365972 0 0 0 0.7369059,0.73639 0.7365972,0.7365972 0 0 0 0.7363891,-0.73639 0.7365972,0.7365972 0 0 0 -0.7363891,-0.7369 z m 31.1428035,0.0284 a 0.7365972,0.7365972 0 0 0 -0.736391,0.73639 0.7365972,0.7365972 0 0 0 0.736391,0.7369 0.7365972,0.7365972 0 0 0 0.736389,-0.7369 0.7365972,0.7365972 0 0 0 -0.736389,-0.73639 z m -31.1428035,5.05187 a 0.7365972,0.7365972 0 0 0 -0.7369059,0.73639 0.7365972,0.7365972 0 0 0 0.7369059,0.73639 0.7365972,0.7365972 0 0 0 0.7363891,-0.73639 0.7365972,0.7365972 0 0 0 -0.7363891,-0.73639 z m 31.1428035,0.0279 a 0.7365972,0.7365972 0 0 0 -0.736391,0.73691 0.7365972,0.7365972 0 0 0 0.736391,0.73639 0.7365972,0.7365972 0 0 0 0.736389,-0.73639 0.7365972,0.7365972 0 0 0 -0.736389,-0.73691 z m -31.1428035,2.512 a 0.7365972,0.7365972 0 0 0 -0.7369059,0.73639 0.7365972,0.7365972 0 0 0 0.7369059,0.73691 0.7365972,0.7365972 0 0 0 0.7363891,-0.73691 0.7365972,0.7365972 0 0 0 -0.7363891,-0.73639 z m 31.1428035,0.0279 a 0.7365972,0.7365972 0 0 0 -0.736391,0.7369 0.7365972,0.7365972 0 0 0 0.736391,0.73639 0.7365972,0.7365972 0 0 0 0.736389,-0.73639 0.7365972,0.7365972 0 0 0 -0.736389,-0.7369 z m -31.1428035,2.51199 a 0.7365972,0.7365972 0 0 0 -0.7369059,0.73638 0.7365972,0.7365972 0 0 0 0.7369059,0.73691 0.7365972,0.7365972 0 0 0 0.7363891,-0.73691 0.7365972,0.7365972 0 0 0 -0.7363891,-0.73638 z m 31.1428035,0.0284 a 0.7365972,0.7365972 0 0 0 -0.736391,0.73639 0.7365972,0.7365972 0 0 0 0.736391,0.73639 0.7365972,0.7365972 0 0 0 0.736389,-0.73639 0.7365972,0.7365972 0 0 0 -0.736389,-0.73639 z m -31.1428035,2.51148 a 0.7365972,0.7365972 0 0 0 -0.7369059,0.7369 0.7365972,0.7365972 0 0 0 0.7369059,0.73639 0.7365972,0.7365972 0 0 0 0.7363891,-0.73639 0.7365972,0.7365972 0 0 0 -0.7363891,-0.7369 z m 31.1428035,0.0284 a 0.7365972,0.7365972 0 0 0 -0.736391,0.73638 0.7365972,0.7365972 0 0 0 0.736391,0.73691 0.7365972,0.7365972 0 0 0 0.736389,-0.73691 0.7365972,0.7365972 0 0 0 -0.736389,-0.73638 z m -31.1148982,2.53988 a 0.7365972,0.7365972 0 0 0 -0.7363891,0.7364 0.7365972,0.7365972 0 0 0 0.7363891,0.7369 0.7365972,0.7365972 0 0 0 0.7369059,-0.7369 0.7365972,0.7365972 0 0 0 -0.7369059,-0.7364 z m 31.1433202,0.0284 a 0.7365972,0.7365972 0 0 0 -0.736907,0.73639 0.7365972,0.7365972 0 0 0 0.736907,0.73639 0.7365972,0.7365972 0 0 0 0.736388,-0.73639 0.7365972,0.7365972 0 0 0 -0.736388,-0.73639 z m -31.1433202,2.51147 a 0.7365972,0.7365972 0 0 0 -0.7363891,0.73691 0.7365972,0.7365972 0 0 0 0.7363891,0.73639 0.7365972,0.7365972 0 0 0 0.7369059,-0.73639 0.7365972,0.7365972 0 0 0 -0.7369059,-0.73691 z m 31.1433202,0.0284 a 0.7365972,0.7365972 0 0 0 -0.736907,0.73639 0.7365972,0.7365972 0 0 0 0.736907,0.73691 0.7365972,0.7365972 0 0 0 0.736388,-0.73691 0.7365972,0.7365972 0 0 0 -0.736388,-0.73639 z m -31.1433202,2.51142 a 0.7365972,0.7365972 0 0 0 -0.7363891,0.73691 0.7365972,0.7365972 0 0 0 0.7363891,0.73639 0.7365972,0.7365972 0 0 0 0.7369059,-0.73639 0.7365972,0.7365972 0 0 0 -0.7369059,-0.73691 z m 31.1433202,0.0284 a 0.7365972,0.7365972 0 0 0 -0.736907,0.73639 0.7365972,0.7365972 0 0 0 0.736907,0.73691 0.7365972,0.7365972 0 0 0 0.736388,-0.73691 0.7365972,0.7365972 0 0 0 -0.736388,-0.73639 z m -31.1433202,2.51148 a 0.7365972,0.7365972 0 0 0 -0.7363891,0.73691 0.7365972,0.7365972 0 0 0 0.7363891,0.73639 0.7365972,0.7365972 0 0 0 0.7369059,-0.73639 0.7365972,0.7365972 0 0 0 -0.7369059,-0.73691 z m 31.1433202,0.0284 a 0.7365972,0.7365972 0 0 0 -0.736907,0.7369 0.7365972,0.7365972 0 0 0 0.736907,0.73639 0.7365972,0.7365972 0 0 0 0.736388,-0.73639 0.7365972,0.7365972 0 0 0 -0.736388,-0.7369 z m -31.1433202,2.512 a 0.7365972,0.7365972 0 0 0 -0.7363891,0.73638 0.7365972,0.7365972 0 0 0 0.7363891,0.73639 0.7365972,0.7365972 0 0 0 0.7369059,-0.73639 0.7365972,0.7365972 0 0 0 -0.7369059,-0.73638 z m 31.1433202,0.0279 a 0.7365972,0.7365972 0 0 0 -0.736907,0.7369 0.7365972,0.7365972 0 0 0 0.736907,0.73639 0.7365972,0.7365972 0 0 0 0.736388,-0.73639 0.7365972,0.7365972 0 0 0 -0.736388,-0.7369 z m -31.1433202,2.51199 a 0.7365972,0.7365972 0 0 0 -0.7363891,0.73639 0.7365972,0.7365972 0 0 0 0.7363891,0.73691 0.7365972,0.7365972 0 0 0 0.7369059,-0.73691 0.7365972,0.7365972 0 0 0 -0.7369059,-0.73639 z m 31.1433202,0.0279 a 0.7365972,0.7365972 0 0 0 -0.736907,0.73691 0.7365972,0.7365972 0 0 0 0.736907,0.73638 0.7365972,0.7365972 0 0 0 0.736388,-0.73638 0.7365972,0.7365972 0 0 0 -0.736388,-0.73691 z m -31.1433202,2.51199 a 0.7365972,0.7365972 0 0 0 -0.7363891,0.73639 0.7365972,0.7365972 0 0 0 0.7363891,0.7369 0.7365972,0.7365972 0 0 0 0.7369059,-0.7369 0.7365972,0.7365972 0 0 0 -0.7369059,-0.73639 z m 31.1433202,0.0284 a 0.7365972,0.7365972 0 0 0 -0.736907,0.73639 0.7365972,0.7365972 0 0 0 0.736907,0.73639 0.7365972,0.7365972 0 0 0 0.736388,-0.73639 0.7365972,0.7365972 0 0 0 -0.736388,-0.73639 z m -31.1433202,2.51148 a 0.7365972,0.7365972 0 0 0 -0.7363891,0.7369 0.7365972,0.7365972 0 0 0 0.7363891,0.73639 0.7365972,0.7365972 0 0 0 0.7369059,-0.73639 0.7365972,0.7365972 0 0 0 -0.7369059,-0.7369 z m 31.1433202,0.0284 a 0.7365972,0.7365972 0 0 0 -0.736907,0.73638 0.7365972,0.7365972 0 0 0 0.736907,0.7369 0.7365972,0.7365972 0 0 0 0.736388,-0.7369 0.7365972,0.7365972 0 0 0 -0.736388,-0.73639 z m -27.333217,2.11355 a 0.49999707,0.49999707 0 0 0 -0.5002278,0.49972 0.49999707,0.49999707 0 0 0 0.5002278,0.50022 0.49999707,0.49999707 0 0 0 0.5002276,-0.50022 0.49999707,0.49999707 0 0 0 -0.5002276,-0.49972 z m 17.779793,0 a 0.49999707,0.49999707 0 0 0 -0.499711,0.49972 0.49999707,0.49999707 0 0 0 0.499711,0.50022 0.49999707,0.49999707 0 0 0 0.500228,-0.50022 0.49999707,0.49999707 0 0 0 -0.500228,-0.49972 z m 5.080312,0 a 0.49999707,0.49999707 0 0 0 -0.500229,0.49972 0.49999707,0.49999707 0 0 0 0.500229,0.50022 0.49999707,0.49999707 0 0 0 0.49971,-0.50022 0.49999707,0.49999707 0 0 0 -0.49971,-0.49972 z m -26.6702082,2.07477 a 1.5999928,1.5999928 0 0 0 -1.59990243,1.5999 1.5999928,1.5999928 0 0 0 1.59990243,1.59991 1.5999928,1.5999928 0 0 0 1.5999021,-1.59991 1.5999928,1.5999928 0 0 0 -1.5999021,-1.5999 z m 31.1148982,0 a 1.5999928,1.5999928 0 0 0 -1.599903,1.5999 1.5999928,1.5999928 0 0 0 1.599903,1.59991 1.5999928,1.5999928 0 0 0 1.599901,-1.59991 1.5999928,1.5999928 0 0 0 -1.599901,-1.5999 z m -27.304795,1.4981 a 0.7365972,0.7365972 0 0 0 -0.7363891,0.73691 0.7365972,0.7365972 0 0 0 0.7363891,0.73638 0.7365972,0.7365972 0 0 0 0.7363889,-0.73638 0.7365972,0.7365972 0 0 0 -0.7363889,-0.73691 z m 5.079794,0 a 0.7365972,0.7365972 0 0 0 -0.73639,0.73691 0.7365972,0.7365972 0 0 0 0.73639,0.73638 0.7365972,0.7365972 0 0 0 0.736906,-0.73638 0.7365972,0.7365972 0 0 0 -0.736906,-0.73691 z m 2.540413,0 a 0.7365972,0.7365972 0 0 0 -0.736906,0.73691 0.7365972,0.7365972 0 0 0 0.736906,0.73638 0.7365972,0.7365972 0 0 0 0.736389,-0.73638 0.7365972,0.7365972 0 0 0 -0.736389,-0.73691 z m 2.539897,0 a 0.7365972,0.7365972 0 0 0 -0.736907,0.73691 0.7365972,0.7365972 0 0 0 0.736907,0.73638 0.7365972,0.7365972 0 0 0 0.736389,-0.73638 0.7365972,0.7365972 0 0 0 -0.736389,-0.73691 z m 2.539896,0 a 0.7365972,0.7365972 0 0 0 -0.736389,0.73691 0.7365972,0.7365972 0 0 0 0.736389,0.73638 0.7365972,0.7365972 0 0 0 0.736389,-0.73638 0.7365972,0.7365972 0 0 0 -0.736389,-0.73691 z m 2.539897,0 a 0.7365972,0.7365972 0 0 0 -0.73639,0.73691 0.7365972,0.7365972 0 0 0 0.73639,0.73638 0.7365972,0.7365972 0 0 0 0.736906,-0.73638 0.7365972,0.7365972 0 0 0 -0.736906,-0.73691 z m 2.539896,0 a 0.7365972,0.7365972 0 0 0 -0.736388,0.73691 0.7365972,0.7365972 0 0 0 0.736388,0.73638 0.7365972,0.7365972 0 0 0 0.736906,-0.73638 0.7365972,0.7365972 0 0 0 -0.736906,-0.73691 z m 5.080312,0 a 0.7365972,0.7365972 0 0 0 -0.736907,0.73691 0.7365972,0.7365972 0 0 0 0.736907,0.73638 0.7365972,0.7365972 0 0 0 0.736388,-0.73638 0.7365972,0.7365972 0 0 0 -0.736388,-0.73691 z" />
  </g>
</svg>
