<?xml version="1.0" encoding="UTF-8" standalone="no"?>
<!-- Created with Fritzing (http://www.fritzing.org/) -->

<svg
   xmlns:dc="http://purl.org/dc/elements/1.1/"
   xmlns:cc="http://creativecommons.org/ns#"
   xmlns:rdf="http://www.w3.org/1999/02/22-rdf-syntax-ns#"
   xmlns:svg="http://www.w3.org/2000/svg"
   xmlns="http://www.w3.org/2000/svg"
   xmlns:sodipodi="http://sodipodi.sourceforge.net/DTD/sodipodi-0.dtd"
   xmlns:inkscape="http://www.inkscape.org/namespaces/inkscape"
   viewBox="0 0 277.11914 170.17754"
   x="0in"
   y="0in"
   height="2.3635819in"
   width="3.8488803in"
   version="1.2"
   id="svg1489"
   sodipodi:docname="cnc.svg"
   inkscape:version="0.92.4 (unknown)">
  <metadata
     id="metadata1495">
    <rdf:RDF>
      <cc:Work
         rdf:about="">
        <dc:format>image/svg+xml</dc:format>
        <dc:type
           rdf:resource="http://purl.org/dc/dcmitype/StillImage" />
      </cc:Work>
    </rdf:RDF>
  </metadata>
  <defs
     id="defs1493" />
  <sodipodi:namedview
     pagecolor="#ffffff"
     bordercolor="#666666"
     borderopacity="1"
     objecttolerance="10"
     gridtolerance="10"
     guidetolerance="10"
     inkscape:pageopacity="0"
     inkscape:pageshadow="2"
     inkscape:window-width="535"
     inkscape:window-height="477"
     id="namedview1491"
     showgrid="false"
     inkscape:zoom="1.0254542"
     inkscape:cx="186.69661"
     inkscape:cy="109.55122"
     inkscape:window-x="0"
     inkscape:window-y="27"
     inkscape:window-maximized="0"
     inkscape:current-layer="svg1489" />
  <g
     inkscape:groupmode="layer"
     id="topmask"
     inkscape:label="topmask"
     transform="translate(-0.03742786,-0.03773692)">
    <path
       style="fill:#000000;stroke:#000000;stroke-width:2.8800025"
       d="M 11.378906,7.2539062 A 5.6692979,5.6692979 0 0 0 5.7089844,12.923828 5.6692979,5.6692979 0 0 0 11.378906,18.59375 5.6692979,5.6692979 0 0 0 17.046875,12.923828 5.6692979,5.6692979 0 0 0 11.378906,7.2539062 Z m 348.000004,0 a 5.6692979,5.6692979 0 0 0 -5.66993,5.6699218 5.6692979,5.6692979 0 0 0 5.66993,5.669922 5.6692979,5.6692979 0 0 0 5.66992,-5.669922 5.6692979,5.6692979 0 0 0 -5.66992,-5.6699218 z M 56.728516,43.992188 a 2.5440022,2.5440022 0 0 0 -2.544922,2.542968 2.5440022,2.5440022 0 0 0 2.544922,2.544922 2.5440022,2.5440022 0 0 0 2.542968,-2.544922 2.5440022,2.5440022 0 0 0 -2.542968,-2.542968 z m 9.599609,0 a 2.5440022,2.5440022 0 0 0 -2.544922,2.542968 2.5440022,2.5440022 0 0 0 2.544922,2.544922 2.5440022,2.5440022 0 0 0 2.542969,-2.544922 2.5440022,2.5440022 0 0 0 -2.542969,-2.542968 z m 9.599609,0 a 2.5440022,2.5440022 0 0 0 -2.542968,2.542968 2.5440022,2.5440022 0 0 0 2.542968,2.544922 2.5440022,2.5440022 0 0 0 2.544922,-2.544922 2.5440022,2.5440022 0 0 0 -2.544922,-2.542968 z m 9.59961,0 a 2.5440022,2.5440022 0 0 0 -2.542969,2.542968 2.5440022,2.5440022 0 0 0 2.542969,2.544922 2.5440022,2.5440022 0 0 0 2.544922,-2.544922 2.5440022,2.5440022 0 0 0 -2.544922,-2.542968 z m 9.601562,0 a 2.5440022,2.5440022 0 0 0 -2.544922,2.542968 2.5440022,2.5440022 0 0 0 2.544922,2.544922 2.5440022,2.5440022 0 0 0 2.542969,-2.544922 2.5440022,2.5440022 0 0 0 -2.542969,-2.542968 z m 9.599614,0 a 2.5440022,2.5440022 0 0 0 -2.54493,2.542968 2.5440022,2.5440022 0 0 0 2.54493,2.544922 2.5440022,2.5440022 0 0 0 2.54296,-2.544922 2.5440022,2.5440022 0 0 0 -2.54296,-2.542968 z m 9.5996,0 a 2.5440022,2.5440022 0 0 0 -2.54492,2.542968 2.5440022,2.5440022 0 0 0 2.54492,2.544922 2.5440022,2.5440022 0 0 0 2.54493,-2.544922 2.5440022,2.5440022 0 0 0 -2.54493,-2.542968 z m 9.59961,0 a 2.5440022,2.5440022 0 0 0 -2.54296,2.542968 2.5440022,2.5440022 0 0 0 2.54296,2.544922 2.5440022,2.5440022 0 0 0 2.54493,-2.544922 2.5440022,2.5440022 0 0 0 -2.54493,-2.542968 z m 9.59961,0 a 2.5440022,2.5440022 0 0 0 -2.54296,2.542968 2.5440022,2.5440022 0 0 0 2.54296,2.544922 2.5440022,2.5440022 0 0 0 2.54493,-2.544922 2.5440022,2.5440022 0 0 0 -2.54493,-2.542968 z m 9.60157,0 a 2.5440022,2.5440022 0 0 0 -2.54493,2.542968 2.5440022,2.5440022 0 0 0 2.54493,2.544922 2.5440022,2.5440022 0 0 0 2.54297,-2.544922 2.5440022,2.5440022 0 0 0 -2.54297,-2.542968 z m 9.59961,0 a 2.5440022,2.5440022 0 0 0 -2.54493,2.542968 2.5440022,2.5440022 0 0 0 2.54493,2.544922 2.5440022,2.5440022 0 0 0 2.54296,-2.544922 2.5440022,2.5440022 0 0 0 -2.54296,-2.542968 z m 9.5996,0 a 2.5440022,2.5440022 0 0 0 -2.54492,2.542968 2.5440022,2.5440022 0 0 0 2.54492,2.544922 2.5440022,2.5440022 0 0 0 2.54493,-2.544922 2.5440022,2.5440022 0 0 0 -2.54493,-2.542968 z m 9.59961,0 a 2.5440022,2.5440022 0 0 0 -2.54296,2.542968 2.5440022,2.5440022 0 0 0 2.54296,2.544922 2.5440022,2.5440022 0 0 0 2.54493,-2.544922 2.5440022,2.5440022 0 0 0 -2.54493,-2.542968 z m 9.59961,0 a 2.5440022,2.5440022 0 0 0 -2.54296,2.542968 2.5440022,2.5440022 0 0 0 2.54296,2.544922 2.5440022,2.5440022 0 0 0 2.54493,-2.544922 2.5440022,2.5440022 0 0 0 -2.54493,-2.542968 z m 7.05664,0 v 5.083984 h 2.47266 a 2.5440022,2.5440022 0 0 0 0.0723,0.0039 2.5440022,2.5440022 0 0 0 0.0898,-0.0039 h 2.45313 v -5.083984 z m -45.48828,8.220703 a 1.5118146,1.5118146 0 0 0 -1.51367,1.511718 1.5118146,1.5118146 0 0 0 1.51367,1.511719 1.5118146,1.5118146 0 0 0 1.51172,-1.511719 1.5118146,1.5118146 0 0 0 -1.51172,-1.511718 z m -9.60156,4.798828 a 1.5118146,1.5118146 0 0 0 -1.51172,1.511719 1.5118146,1.5118146 0 0 0 1.51172,1.511718 1.5118146,1.5118146 0 0 0 1.51367,-1.511718 1.5118146,1.5118146 0 0 0 -1.51367,-1.511719 z m -9.59961,4.800781 a 1.5118146,1.5118146 0 0 0 -1.51172,1.511719 1.5118146,1.5118146 0 0 0 1.51172,1.511719 1.5118146,1.5118146 0 0 0 1.51172,-1.511719 1.5118146,1.5118146 0 0 0 -1.51172,-1.511719 z m -9.59961,4.798828 a 1.5118146,1.5118146 0 0 0 -1.51172,1.511719 1.5118146,1.5118146 0 0 0 1.51172,1.511719 1.5118146,1.5118146 0 0 0 1.51172,-1.511719 1.5118146,1.5118146 0 0 0 -1.51172,-1.511719 z m 14.40039,26.400391 a 1.5118146,1.5118146 0 0 0 -1.51172,1.511719 1.5118146,1.5118146 0 0 0 1.51172,1.511718 1.5118146,1.5118146 0 0 0 1.51172,-1.511718 1.5118146,1.5118146 0 0 0 -1.51172,-1.511719 z m -14.40039,2.40039 a 1.5118146,1.5118146 0 0 0 -1.51172,1.511719 1.5118146,1.5118146 0 0 0 1.51172,1.511719 1.5118146,1.5118146 0 0 0 1.51172,-1.511719 1.5118146,1.5118146 0 0 0 -1.51172,-1.511719 z m 158.6836,0 a 1.5118146,1.5118146 0 0 0 -1.51172,1.511719 1.5118146,1.5118146 0 0 0 1.51172,1.511719 1.5118146,1.5118146 0 0 0 1.51171,-1.511719 1.5118146,1.5118146 0 0 0 -1.51171,-1.511719 z m 9.5996,0 a 1.5118146,1.5118146 0 0 0 -1.51171,1.511719 1.5118146,1.5118146 0 0 0 1.51171,1.511719 1.5118146,1.5118146 0 0 0 1.51172,-1.511719 1.5118146,1.5118146 0 0 0 -1.51172,-1.511719 z m 9.60157,0 a 1.5118146,1.5118146 0 0 0 -1.51172,1.511719 1.5118146,1.5118146 0 0 0 1.51172,1.511719 1.5118146,1.5118146 0 0 0 1.51172,-1.511719 1.5118146,1.5118146 0 0 0 -1.51172,-1.511719 z m 9.59961,0 a 1.5118146,1.5118146 0 0 0 -1.51172,1.511719 1.5118146,1.5118146 0 0 0 1.51172,1.511719 1.5118146,1.5118146 0 0 0 1.51172,-1.511719 1.5118146,1.5118146 0 0 0 -1.51172,-1.511719 z m 9.59961,0 a 1.5118146,1.5118146 0 0 0 -1.51172,1.511719 1.5118146,1.5118146 0 0 0 1.51172,1.511719 1.5118146,1.5118146 0 0 0 1.51171,-1.511719 1.5118146,1.5118146 0 0 0 -1.51171,-1.511719 z m -69.83985,3.671875 v 5.279296 h 5.2793 v -5.279296 z m 12.24024,0 a 2.6400023,2.6400023 0 0 0 -2.64063,2.640626 2.6400023,2.6400023 0 0 0 2.64063,2.63867 2.6400023,2.6400023 0 0 0 2.63867,-2.63867 2.6400023,2.6400023 0 0 0 -2.63867,-2.640626 z M 56.728516,101.5918 a 2.5440022,2.5440022 0 0 0 -2.544922,2.54297 2.5440022,2.5440022 0 0 0 2.544922,2.54492 2.5440022,2.5440022 0 0 0 2.542968,-2.54492 2.5440022,2.5440022 0 0 0 -2.542968,-2.54297 z m 9.599609,0 a 2.5440022,2.5440022 0 0 0 -2.544922,2.54297 2.5440022,2.5440022 0 0 0 2.544922,2.54492 2.5440022,2.5440022 0 0 0 2.542969,-2.54492 2.5440022,2.5440022 0 0 0 -2.542969,-2.54297 z m 9.599609,0 a 2.5440022,2.5440022 0 0 0 -2.542968,2.54297 2.5440022,2.5440022 0 0 0 2.542968,2.54492 2.5440022,2.5440022 0 0 0 2.544922,-2.54492 2.5440022,2.5440022 0 0 0 -2.544922,-2.54297 z m 9.59961,0 a 2.5440022,2.5440022 0 0 0 -2.542969,2.54297 2.5440022,2.5440022 0 0 0 2.542969,2.54492 2.5440022,2.5440022 0 0 0 2.544922,-2.54492 2.5440022,2.5440022 0 0 0 -2.544922,-2.54297 z m 9.601562,0 a 2.5440022,2.5440022 0 0 0 -2.544922,2.54297 2.5440022,2.5440022 0 0 0 2.544922,2.54492 2.5440022,2.5440022 0 0 0 2.542969,-2.54492 2.5440022,2.5440022 0 0 0 -2.542969,-2.54297 z m 9.599614,0 a 2.5440022,2.5440022 0 0 0 -2.54493,2.54297 2.5440022,2.5440022 0 0 0 2.54493,2.54492 2.5440022,2.5440022 0 0 0 2.54296,-2.54492 2.5440022,2.5440022 0 0 0 -2.54296,-2.54297 z m 9.5996,0 a 2.5440022,2.5440022 0 0 0 -2.54492,2.54297 2.5440022,2.5440022 0 0 0 2.54492,2.54492 2.5440022,2.5440022 0 0 0 2.54493,-2.54492 2.5440022,2.5440022 0 0 0 -2.54493,-2.54297 z m 9.59961,0 a 2.5440022,2.5440022 0 0 0 -2.54296,2.54297 2.5440022,2.5440022 0 0 0 2.54296,2.54492 2.5440022,2.5440022 0 0 0 2.54493,-2.54492 2.5440022,2.5440022 0 0 0 -2.54493,-2.54297 z m 9.59961,0 a 2.5440022,2.5440022 0 0 0 -2.54296,2.54297 2.5440022,2.5440022 0 0 0 2.54296,2.54492 2.5440022,2.5440022 0 0 0 2.54493,-2.54492 2.5440022,2.5440022 0 0 0 -2.54493,-2.54297 z m 9.60157,0 a 2.5440022,2.5440022 0 0 0 -2.54493,2.54297 2.5440022,2.5440022 0 0 0 2.54493,2.54492 2.5440022,2.5440022 0 0 0 2.54297,-2.54492 2.5440022,2.5440022 0 0 0 -2.54297,-2.54297 z m 9.59961,0 a 2.5440022,2.5440022 0 0 0 -2.54493,2.54297 2.5440022,2.5440022 0 0 0 2.54493,2.54492 2.5440022,2.5440022 0 0 0 2.54296,-2.54492 2.5440022,2.5440022 0 0 0 -2.54296,-2.54297 z m 9.5996,0 a 2.5440022,2.5440022 0 0 0 -2.54492,2.54297 2.5440022,2.5440022 0 0 0 2.54492,2.54492 2.5440022,2.5440022 0 0 0 2.54493,-2.54492 2.5440022,2.5440022 0 0 0 -2.54493,-2.54297 z m 9.59961,0 a 2.5440022,2.5440022 0 0 0 -2.54296,2.54297 2.5440022,2.5440022 0 0 0 2.54296,2.54492 2.5440022,2.5440022 0 0 0 2.54493,-2.54492 2.5440022,2.5440022 0 0 0 -2.54493,-2.54297 z m 9.59961,0 a 2.5440022,2.5440022 0 0 0 -2.54296,2.54297 2.5440022,2.5440022 0 0 0 2.54296,2.54492 2.5440022,2.5440022 0 0 0 2.54493,-2.54492 2.5440022,2.5440022 0 0 0 -2.54493,-2.54297 z m 9.60157,0 a 2.5440022,2.5440022 0 0 0 -2.54493,2.54297 2.5440022,2.5440022 0 0 0 2.54493,2.54492 2.5440022,2.5440022 0 0 0 2.54297,-2.54492 2.5440022,2.5440022 0 0 0 -2.54297,-2.54297 z m 78.25976,2.1914 v 6.04688 h 7.17969 v -6.04688 z m 9.59961,0 v 6.04688 h 7.18164 v -6.04688 z m 9.59961,0 v 6.04688 h 7.18164 v -6.04688 z m 9.59961,0 v 6.04688 h 7.18164 v -6.04688 z m 9.60156,0 v 6.04688 h 7.17969 v -6.04688 z m 9.59961,0 v 6.04688 h 7.17969 v -6.04688 z m 9.59961,0 v 6.04688 h 7.18164 v -6.04688 z m 9.59961,0 v 6.04688 h 7.18164 v -6.04688 z m 9.59961,0 v 6.04688 h 7.18164 v -6.04688 z m -121.20898,4.75586 a 2.7840025,2.7840025 0 0 0 -2.78321,2.78516 2.7840025,2.7840025 0 0 0 2.78321,2.7832 2.7840025,2.7840025 0 0 0 2.78515,-2.7832 2.7840025,2.7840025 0 0 0 -2.78515,-2.78516 z m -9.59961,1.46289 a 1.3228332,1.3228332 0 0 0 -1.32422,1.32227 1.3228332,1.3228332 0 0 0 1.32422,1.32226 1.3228332,1.3228332 0 0 0 1.32226,-1.32226 1.3228332,1.3228332 0 0 0 -1.32226,-1.32227 z m -160.800785,4.60938 a 1.5118146,1.5118146 0 0 0 -1.511719,1.51172 1.5118146,1.5118146 0 0 0 1.511719,1.51367 1.5118146,1.5118146 0 0 0 1.511719,-1.51367 1.5118146,1.5118146 0 0 0 -1.511719,-1.51172 z m 139.201175,0 a 1.5118146,1.5118146 0 0 0 -1.51172,1.51172 1.5118146,1.5118146 0 0 0 1.51172,1.51367 1.5118146,1.5118146 0 0 0 1.51172,-1.51367 1.5118146,1.5118146 0 0 0 -1.51172,-1.51172 z M 269.38867,115.5 v 6.04688 h 7.17969 V 115.5 Z m 9.59961,0 v 6.04688 h 7.18164 V 115.5 Z m 9.59961,0 v 6.04688 h 7.18164 V 115.5 Z m 9.59961,0 v 6.04688 h 7.18164 V 115.5 Z m 9.60156,0 v 6.04688 h 7.17969 V 115.5 Z m 9.59961,0 v 6.04688 h 7.17969 V 115.5 Z m 9.59961,0 v 6.04688 h 7.18164 V 115.5 Z m 9.59961,0 v 6.04688 h 7.18164 V 115.5 Z m 9.59961,0 v 6.04688 h 7.18164 V 115.5 Z m -92.4082,1.51172 a 1.5118146,1.5118146 0 0 0 -1.51172,1.51172 1.5118146,1.5118146 0 0 0 1.51172,1.51172 1.5118146,1.5118146 0 0 0 1.51172,-1.51172 1.5118146,1.5118146 0 0 0 -1.51172,-1.51172 z m -22.79102,1.17187 v 6.04688 h 7.18164 v -6.04688 z m -49.20898,6.0293 a 1.5118146,1.5118146 0 0 0 -1.51172,1.51172 1.5118146,1.5118146 0 0 0 1.51172,1.51172 1.5118146,1.5118146 0 0 0 1.51172,-1.51172 1.5118146,1.5118146 0 0 0 -1.51172,-1.51172 z m 40.79882,0 a 1.5118146,1.5118146 0 0 0 -1.51171,1.51172 1.5118146,1.5118146 0 0 0 1.51171,1.51172 1.5118146,1.5118146 0 0 0 1.51172,-1.51172 1.5118146,1.5118146 0 0 0 -1.51172,-1.51172 z m 21.60157,2.39844 a 1.5118146,1.5118146 0 0 0 -1.51172,1.51172 1.5118146,1.5118146 0 0 0 1.51172,1.51367 1.5118146,1.5118146 0 0 0 1.51172,-1.51367 1.5118146,1.5118146 0 0 0 -1.51172,-1.51172 z m 28.79883,0 a 1.5118146,1.5118146 0 0 0 -1.51172,1.51172 1.5118146,1.5118146 0 0 0 1.51172,1.51367 1.5118146,1.5118146 0 0 0 1.51171,-1.51367 1.5118146,1.5118146 0 0 0 -1.51171,-1.51172 z m 9.5996,0 a 1.5118146,1.5118146 0 0 0 -1.51171,1.51172 1.5118146,1.5118146 0 0 0 1.51171,1.51367 1.5118146,1.5118146 0 0 0 1.51172,-1.51367 1.5118146,1.5118146 0 0 0 -1.51172,-1.51172 z m 9.60157,0 a 1.5118146,1.5118146 0 0 0 -1.51172,1.51172 1.5118146,1.5118146 0 0 0 1.51172,1.51367 1.5118146,1.5118146 0 0 0 1.51172,-1.51367 1.5118146,1.5118146 0 0 0 -1.51172,-1.51172 z m 9.59961,0 a 1.5118146,1.5118146 0 0 0 -1.51172,1.51172 1.5118146,1.5118146 0 0 0 1.51172,1.51367 1.5118146,1.5118146 0 0 0 1.51172,-1.51367 1.5118146,1.5118146 0 0 0 -1.51172,-1.51172 z m 9.59961,0 a 1.5118146,1.5118146 0 0 0 -1.51172,1.51172 1.5118146,1.5118146 0 0 0 1.51172,1.51367 1.5118146,1.5118146 0 0 0 1.51171,-1.51367 1.5118146,1.5118146 0 0 0 -1.51171,-1.51172 z m 9.59961,0 a 1.5118146,1.5118146 0 0 0 -1.51172,1.51172 1.5118146,1.5118146 0 0 0 1.51172,1.51367 1.5118146,1.5118146 0 0 0 1.51171,-1.51367 1.5118146,1.5118146 0 0 0 -1.51171,-1.51172 z m 9.5996,0 a 1.5118146,1.5118146 0 0 0 -1.51171,1.51172 1.5118146,1.5118146 0 0 0 1.51171,1.51367 1.5118146,1.5118146 0 0 0 1.51172,-1.51367 1.5118146,1.5118146 0 0 0 -1.51172,-1.51172 z m 9.60157,0 a 1.5118146,1.5118146 0 0 0 -1.51172,1.51172 1.5118146,1.5118146 0 0 0 1.51172,1.51367 1.5118146,1.5118146 0 0 0 1.51172,-1.51367 1.5118146,1.5118146 0 0 0 -1.51172,-1.51172 z m 9.59961,0 a 1.5118146,1.5118146 0 0 0 -1.51172,1.51172 1.5118146,1.5118146 0 0 0 1.51172,1.51367 1.5118146,1.5118146 0 0 0 1.51172,-1.51367 1.5118146,1.5118146 0 0 0 -1.51172,-1.51172 z m -118.79102,3.28906 v 6.04688 h 7.18164 v -6.04688 z m -90.29297,1.51172 a 1.5118146,1.5118146 0 0 0 -1.51172,1.51172 1.5118146,1.5118146 0 0 0 1.51172,1.51172 1.5118146,1.5118146 0 0 0 1.51172,-1.51172 1.5118146,1.5118146 0 0 0 -1.51172,-1.51172 z m 45.88281,3.52734 a 2.7840025,2.7840025 0 0 0 -2.7832,2.78516 2.7840025,2.7840025 0 0 0 2.7832,2.7832 2.7840025,2.7840025 0 0 0 2.78516,-2.7832 2.7840025,2.7840025 0 0 0 -2.78516,-2.78516 z m 9.60157,0 a 2.7840025,2.7840025 0 0 0 -2.78516,2.78516 2.7840025,2.7840025 0 0 0 2.78516,2.7832 2.7840025,2.7840025 0 0 0 2.7832,-2.7832 2.7840025,2.7840025 0 0 0 -2.7832,-2.78516 z m 67.19922,0.14453 a 2.6400023,2.6400023 0 0 0 -2.64063,2.64063 2.6400023,2.6400023 0 0 0 2.64063,2.64062 2.6400023,2.6400023 0 0 0 2.64062,-2.64062 2.6400023,2.6400023 0 0 0 -2.64062,-2.64063 z m 9.59961,0 a 2.6400023,2.6400023 0 0 0 -2.63868,2.64063 2.6400023,2.6400023 0 0 0 2.63868,2.64062 2.6400023,2.6400023 0 0 0 2.64062,-2.64062 2.6400023,2.6400023 0 0 0 -2.64062,-2.64063 z m 9.5996,0 a 2.6400023,2.6400023 0 0 0 -2.63867,2.64063 2.6400023,2.6400023 0 0 0 2.63867,2.64062 2.6400023,2.6400023 0 0 0 2.64063,-2.64062 2.6400023,2.6400023 0 0 0 -2.64063,-2.64063 z m 9.60157,0 a 2.6400023,2.6400023 0 0 0 -2.64063,2.64063 2.6400023,2.6400023 0 0 0 2.64063,2.64062 2.6400023,2.6400023 0 0 0 2.63867,-2.64062 2.6400023,2.6400023 0 0 0 -2.63867,-2.64063 z m 9.59961,0 a 2.6400023,2.6400023 0 0 0 -2.64063,2.64063 2.6400023,2.6400023 0 0 0 2.64063,2.64062 2.6400023,2.6400023 0 0 0 2.63867,-2.64062 2.6400023,2.6400023 0 0 0 -2.63867,-2.64063 z m 9.59961,0 a 2.6400023,2.6400023 0 0 0 -2.64063,2.64063 2.6400023,2.6400023 0 0 0 2.64063,2.64062 2.6400023,2.6400023 0 0 0 2.64062,-2.64062 2.6400023,2.6400023 0 0 0 -2.64062,-2.64063 z m 9.59961,0 a 2.6400023,2.6400023 0 0 0 -2.63868,2.64063 2.6400023,2.6400023 0 0 0 2.63868,2.64062 2.6400023,2.6400023 0 0 0 2.64062,-2.64062 2.6400023,2.6400023 0 0 0 -2.64062,-2.64063 z m 9.5996,0 a 2.6400023,2.6400023 0 0 0 -2.63867,2.64063 2.6400023,2.6400023 0 0 0 2.63867,2.64062 2.6400023,2.6400023 0 0 0 2.64063,-2.64062 2.6400023,2.6400023 0 0 0 -2.64063,-2.64063 z m 9.60157,0 a 2.6400023,2.6400023 0 0 0 -2.64063,2.64063 2.6400023,2.6400023 0 0 0 2.64063,2.64062 2.6400023,2.6400023 0 0 0 2.63867,-2.64062 2.6400023,2.6400023 0 0 0 -2.63867,-2.64063 z m 9.59961,0 a 2.6400023,2.6400023 0 0 0 -2.64063,2.64063 2.6400023,2.6400023 0 0 0 2.64063,2.64062 2.6400023,2.6400023 0 0 0 2.64062,-2.64062 2.6400023,2.6400023 0 0 0 -2.64062,-2.64063 z m -96,0.24024 a 2.400002,2.400002 0 0 0 -2.40039,2.40039 2.400002,2.400002 0 0 0 2.40039,2.40039 2.400002,2.400002 0 0 0 2.40039,-2.40039 2.400002,2.400002 0 0 0 -2.40039,-2.40039 z m -103.48438,3.28906 a 1.5118146,1.5118146 0 0 0 -1.51172,1.51172 1.5118146,1.5118146 0 0 0 1.51172,1.51172 1.5118146,1.5118146 0 0 0 1.51172,-1.51172 1.5118146,1.5118146 0 0 0 -1.51172,-1.51172 z m 80.69336,1.16992 v 6.04688 h 7.18164 v -6.04688 z m 22.79102,5.15821 a 2.400002,2.400002 0 0 0 -2.40039,2.40039 2.400002,2.400002 0 0 0 2.40039,2.40039 2.400002,2.400002 0 0 0 2.40039,-2.40039 2.400002,2.400002 0 0 0 -2.40039,-2.40039 z m -223.201175,5.67187 a 1.5118146,1.5118146 0 0 0 -1.511719,1.51172 1.5118146,1.5118146 0 0 0 1.511719,1.51172 1.5118146,1.5118146 0 0 0 1.511719,-1.51172 1.5118146,1.5118146 0 0 0 -1.511719,-1.51172 z M 230.98828,151.5 v 6.04688 h 7.18164 V 151.5 Z M 8.9785156,151.74023 a 2.7840025,2.7840025 0 0 0 -2.7851562,2.78321 2.7840025,2.7840025 0 0 0 2.7851562,2.78515 2.7840025,2.7840025 0 0 0 2.7832034,-2.78515 2.7840025,2.7840025 0 0 0 -2.7832034,-2.78321 z m 235.2011744,1.27149 a 1.5118146,1.5118146 0 0 0 -1.51172,1.51172 1.5118146,1.5118146 0 0 0 1.51172,1.51172 1.5118146,1.5118146 0 0 0 1.51172,-1.51172 1.5118146,1.5118146 0 0 0 -1.51172,-1.51172 z m -89.08399,2.40039 a 1.5118146,1.5118146 0 0 0 -1.51367,1.51172 1.5118146,1.5118146 0 0 0 1.51367,1.51172 1.5118146,1.5118146 0 0 0 1.51172,-1.51172 1.5118146,1.5118146 0 0 0 -1.51172,-1.51172 z m 9.59961,0 a 1.5118146,1.5118146 0 0 0 -1.51172,1.51172 1.5118146,1.5118146 0 0 0 1.51172,1.51172 1.5118146,1.5118146 0 0 0 1.51172,-1.51172 1.5118146,1.5118146 0 0 0 -1.51172,-1.51172 z M 8.9785156,161.33984 a 2.7840025,2.7840025 0 0 0 -2.7851562,2.78516 2.7840025,2.7840025 0 0 0 2.7851562,2.7832 2.7840025,2.7840025 0 0 0 2.7832034,-2.7832 2.7840025,2.7840025 0 0 0 -2.7832034,-2.78516 z m 26.1152344,0.14454 a 2.6400023,2.6400023 0 0 0 -2.638672,2.64062 2.6400023,2.6400023 0 0 0 2.638672,2.63867 2.6400023,2.6400023 0 0 0 2.640625,-2.63867 2.6400023,2.6400023 0 0 0 -2.640625,-2.64062 z m 9.601562,0 a 2.6400023,2.6400023 0 0 0 -2.640624,2.64062 2.6400023,2.6400023 0 0 0 2.640624,2.63867 2.6400023,2.6400023 0 0 0 2.638672,-2.63867 2.6400023,2.6400023 0 0 0 -2.638672,-2.64062 z m 9.59961,0 a 2.6400023,2.6400023 0 0 0 -2.640625,2.64062 2.6400023,2.6400023 0 0 0 2.640625,2.63867 2.6400023,2.6400023 0 0 0 2.638672,-2.63867 2.6400023,2.6400023 0 0 0 -2.638672,-2.64062 z m 9.599609,0 a 2.6400023,2.6400023 0 0 0 -2.640625,2.64062 2.6400023,2.6400023 0 0 0 2.640625,2.63867 2.6400023,2.6400023 0 0 0 2.640625,-2.63867 2.6400023,2.6400023 0 0 0 -2.640625,-2.64062 z m 9.59961,0 a 2.6400023,2.6400023 0 0 0 -2.640625,2.64062 2.6400023,2.6400023 0 0 0 2.640625,2.63867 2.6400023,2.6400023 0 0 0 2.640625,-2.63867 2.6400023,2.6400023 0 0 0 -2.640625,-2.64062 z m 9.599609,0 a 2.6400023,2.6400023 0 0 0 -2.638672,2.64062 2.6400023,2.6400023 0 0 0 2.638672,2.63867 2.6400023,2.6400023 0 0 0 2.640625,-2.63867 2.6400023,2.6400023 0 0 0 -2.640625,-2.64062 z m 9.601562,0 a 2.6400023,2.6400023 0 0 0 -2.640624,2.64062 2.6400023,2.6400023 0 0 0 2.640624,2.63867 2.6400023,2.6400023 0 0 0 2.638672,-2.63867 2.6400023,2.6400023 0 0 0 -2.638672,-2.64062 z m 9.599608,0 a 2.6400023,2.6400023 0 0 0 -2.640623,2.64062 2.6400023,2.6400023 0 0 0 2.640623,2.63867 2.6400023,2.6400023 0 0 0 2.63867,-2.63867 2.6400023,2.6400023 0 0 0 -2.63867,-2.64062 z m 24,0 a 2.6400023,2.6400023 0 0 0 -2.64062,2.64062 2.6400023,2.6400023 0 0 0 2.64062,2.63867 2.6400023,2.6400023 0 0 0 2.63867,-2.63867 2.6400023,2.6400023 0 0 0 -2.63867,-2.64062 z m 9.59961,0 a 2.6400023,2.6400023 0 0 0 -2.64062,2.64062 2.6400023,2.6400023 0 0 0 2.64062,2.63867 2.6400023,2.6400023 0 0 0 2.64063,-2.63867 2.6400023,2.6400023 0 0 0 -2.64063,-2.64062 z m 9.59961,0 a 2.6400023,2.6400023 0 0 0 -2.63867,2.64062 2.6400023,2.6400023 0 0 0 2.63867,2.63867 2.6400023,2.6400023 0 0 0 2.64063,-2.63867 2.6400023,2.6400023 0 0 0 -2.64063,-2.64062 z m 9.59961,0 a 2.6400023,2.6400023 0 0 0 -2.63867,2.64062 2.6400023,2.6400023 0 0 0 2.63867,2.63867 2.6400023,2.6400023 0 0 0 2.64063,-2.63867 2.6400023,2.6400023 0 0 0 -2.64063,-2.64062 z m 9.60156,0 a 2.6400023,2.6400023 0 0 0 -2.64062,2.64062 2.6400023,2.6400023 0 0 0 2.64062,2.63867 2.6400023,2.6400023 0 0 0 2.63867,-2.63867 2.6400023,2.6400023 0 0 0 -2.63867,-2.64062 z m 9.59961,0 a 2.6400023,2.6400023 0 0 0 -2.64062,2.64062 2.6400023,2.6400023 0 0 0 2.64062,2.63867 2.6400023,2.6400023 0 0 0 2.63867,-2.63867 2.6400023,2.6400023 0 0 0 -2.63867,-2.64062 z m 9.59961,0 a 2.6400023,2.6400023 0 0 0 -2.64062,2.64062 2.6400023,2.6400023 0 0 0 2.64062,2.63867 2.6400023,2.6400023 0 0 0 2.64063,-2.63867 2.6400023,2.6400023 0 0 0 -2.64063,-2.64062 z m 9.59961,0 a 2.6400023,2.6400023 0 0 0 -2.63867,2.64062 2.6400023,2.6400023 0 0 0 2.63867,2.63867 2.6400023,2.6400023 0 0 0 2.64063,-2.63867 2.6400023,2.6400023 0 0 0 -2.64063,-2.64062 z m 67.24414,2.40039 v 5.27929 h 5.28125 v -5.27929 z m 12.24024,0 a 2.6400023,2.6400023 0 0 0 -2.63868,2.63867 2.6400023,2.6400023 0 0 0 2.63868,2.64062 2.6400023,2.6400023 0 0 0 2.64062,-2.64062 2.6400023,2.6400023 0 0 0 -2.64062,-2.63867 z m 9.5996,0 a 2.6400023,2.6400023 0 0 0 -2.63867,2.63867 2.6400023,2.6400023 0 0 0 2.63867,2.64062 2.6400023,2.6400023 0 0 0 2.64063,-2.64062 2.6400023,2.6400023 0 0 0 -2.64063,-2.63867 z m 9.60157,0 a 2.6400023,2.6400023 0 0 0 -2.64063,2.63867 2.6400023,2.6400023 0 0 0 2.64063,2.64062 2.6400023,2.6400023 0 0 0 2.63867,-2.64062 2.6400023,2.6400023 0 0 0 -2.63867,-2.63867 z m 9.59961,0 a 2.6400023,2.6400023 0 0 0 -2.64063,2.63867 2.6400023,2.6400023 0 0 0 2.64063,2.64062 2.6400023,2.6400023 0 0 0 2.63867,-2.64062 2.6400023,2.6400023 0 0 0 -2.63867,-2.63867 z m 9.59961,0 a 2.6400023,2.6400023 0 0 0 -2.64063,2.63867 2.6400023,2.6400023 0 0 0 2.64063,2.64062 2.6400023,2.6400023 0 0 0 2.64062,-2.64062 2.6400023,2.6400023 0 0 0 -2.64062,-2.63867 z m 9.59961,0 a 2.6400023,2.6400023 0 0 0 -2.63868,2.63867 2.6400023,2.6400023 0 0 0 2.63868,2.64062 2.6400023,2.6400023 0 0 0 2.64062,-2.64062 2.6400023,2.6400023 0 0 0 -2.64062,-2.63867 z m 9.5996,0 a 2.6400023,2.6400023 0 0 0 -2.63867,2.63867 2.6400023,2.6400023 0 0 0 2.63867,2.64062 2.6400023,2.6400023 0 0 0 2.64063,-2.64062 2.6400023,2.6400023 0 0 0 -2.64063,-2.63867 z m 9.60157,0 a 2.6400023,2.6400023 0 0 0 -2.64063,2.63867 2.6400023,2.6400023 0 0 0 2.64063,2.64062 2.6400023,2.6400023 0 0 0 2.63867,-2.64062 2.6400023,2.6400023 0 0 0 -2.63867,-2.63867 z m 9.59961,0 a 2.6400023,2.6400023 0 0 0 -2.64063,2.63867 2.6400023,2.6400023 0 0 0 2.64063,2.64062 2.6400023,2.6400023 0 0 0 2.64062,-2.64062 2.6400023,2.6400023 0 0 0 -2.64062,-2.63867 z m -98.40039,1.12695 a 1.5118146,1.5118146 0 0 0 -1.51172,1.51172 1.5118146,1.5118146 0 0 0 1.51172,1.51172 1.5118146,1.5118146 0 0 0 1.51171,-1.51172 1.5118146,1.5118146 0 0 0 -1.51171,-1.51172 z M 8.9785156,170.93945 a 2.7840025,2.7840025 0 0 0 -2.7851562,2.78516 2.7840025,2.7840025 0 0 0 2.7851562,2.7832 2.7840025,2.7840025 0 0 0 2.7832034,-2.7832 2.7840025,2.7840025 0 0 0 -2.7832034,-2.78516 z m 105.2968744,0.36719 a 2.400002,2.400002 0 0 0 -2.39844,2.40039 2.400002,2.400002 0 0 0 2.39844,2.40039 2.400002,2.400002 0 0 0 2.40039,-2.40039 2.400002,2.400002 0 0 0 -2.40039,-2.40039 z m 91.21875,0.0176 a 2.400002,2.400002 0 0 0 -2.39844,2.40039 2.400002,2.400002 0 0 0 2.39844,2.39844 2.400002,2.400002 0 0 0 2.40039,-2.39844 2.400002,2.400002 0 0 0 -2.40039,-2.40039 z m 67.48438,5.6875 a 1.5118146,1.5118146 0 0 0 -1.51172,1.51172 1.5118146,1.5118146 0 0 0 1.51172,1.51172 1.5118146,1.5118146 0 0 0 1.51171,-1.51172 1.5118146,1.5118146 0 0 0 -1.51171,-1.51172 z m 9.5996,0 a 1.5118146,1.5118146 0 0 0 -1.51171,1.51172 1.5118146,1.5118146 0 0 0 1.51171,1.51172 1.5118146,1.5118146 0 0 0 1.51172,-1.51172 1.5118146,1.5118146 0 0 0 -1.51172,-1.51172 z m 9.60157,0 a 1.5118146,1.5118146 0 0 0 -1.51172,1.51172 1.5118146,1.5118146 0 0 0 1.51172,1.51172 1.5118146,1.5118146 0 0 0 1.51172,-1.51172 1.5118146,1.5118146 0 0 0 -1.51172,-1.51172 z m 9.59961,0 a 1.5118146,1.5118146 0 0 0 -1.51172,1.51172 1.5118146,1.5118146 0 0 0 1.51172,1.51172 1.5118146,1.5118146 0 0 0 1.51172,-1.51172 1.5118146,1.5118146 0 0 0 -1.51172,-1.51172 z m 9.59961,0 a 1.5118146,1.5118146 0 0 0 -1.51172,1.51172 1.5118146,1.5118146 0 0 0 1.51172,1.51172 1.5118146,1.5118146 0 0 0 1.51171,-1.51172 1.5118146,1.5118146 0 0 0 -1.51171,-1.51172 z m 9.59961,0 a 1.5118146,1.5118146 0 0 0 -1.51172,1.51172 1.5118146,1.5118146 0 0 0 1.51172,1.51172 1.5118146,1.5118146 0 0 0 1.51171,-1.51172 1.5118146,1.5118146 0 0 0 -1.51171,-1.51172 z m 9.5996,0 a 1.5118146,1.5118146 0 0 0 -1.51171,1.51172 1.5118146,1.5118146 0 0 0 1.51171,1.51172 1.5118146,1.5118146 0 0 0 1.51172,-1.51172 1.5118146,1.5118146 0 0 0 -1.51172,-1.51172 z m 9.60157,0 a 1.5118146,1.5118146 0 0 0 -1.51172,1.51172 1.5118146,1.5118146 0 0 0 1.51172,1.51172 1.5118146,1.5118146 0 0 0 1.51172,-1.51172 1.5118146,1.5118146 0 0 0 -1.51172,-1.51172 z m -331.2011744,3.5293 a 2.7840025,2.7840025 0 0 0 -2.7851562,2.7832 2.7840025,2.7840025 0 0 0 2.7851562,2.7832 2.7840025,2.7840025 0 0 0 2.7832034,-2.7832 2.7840025,2.7840025 0 0 0 -2.7832034,-2.7832 z m 105.2968744,0.38281 a 2.400002,2.400002 0 0 0 -2.39844,2.40039 2.400002,2.400002 0 0 0 2.39844,2.40039 2.400002,2.400002 0 0 0 2.40039,-2.40039 2.400002,2.400002 0 0 0 -2.40039,-2.40039 z m 91.21875,0.0176 a 2.400002,2.400002 0 0 0 -2.39844,2.40039 2.400002,2.400002 0 0 0 2.39844,2.40039 2.400002,2.400002 0 0 0 2.40039,-2.40039 2.400002,2.400002 0 0 0 -2.40039,-2.40039 z m 23.09375,2.04101 v 6.04883 h 7.18164 v -6.04883 z m 21.59961,0 v 6.04883 h 7.18164 v -6.04883 z m -6.00781,1.23047 a 1.5118146,1.5118146 0 0 0 -1.51172,1.51172 1.5118146,1.5118146 0 0 0 1.51172,1.51172 1.5118146,1.5118146 0 0 0 1.51172,-1.51172 1.5118146,1.5118146 0 0 0 -1.51172,-1.51172 z m 25.20898,1.16992 v 6.04688 h 7.17969 v -6.04688 z m 9.59961,0 v 6.04688 h 7.18164 v -6.04688 z m 9.59961,0 v 6.04688 h 7.18164 v -6.04688 z m 9.59961,0 v 6.04688 h 7.18164 v -6.04688 z m 9.60156,0 v 6.04688 h 7.17969 v -6.04688 z m 9.59961,0 v 6.04688 h 7.17969 v -6.04688 z m 9.59961,0 v 6.04688 h 7.18164 v -6.04688 z m 9.59961,0 v 6.04688 h 7.18164 v -6.04688 z M 32.455078,190.2852 v 5.27929 h 5.279297 v -5.27929 z m 12.240234,0 a 2.6400023,2.6400023 0 0 0 -2.640624,2.63867 2.6400023,2.6400023 0 0 0 2.640624,2.64062 2.6400023,2.6400023 0 0 0 2.638672,-2.64062 2.6400023,2.6400023 0 0 0 -2.638672,-2.63867 z m 9.59961,0 a 2.6400023,2.6400023 0 0 0 -2.640625,2.63867 2.6400023,2.6400023 0 0 0 2.640625,2.64062 2.6400023,2.6400023 0 0 0 2.638672,-2.64062 2.6400023,2.6400023 0 0 0 -2.638672,-2.63867 z m 9.599609,0 a 2.6400023,2.6400023 0 0 0 -2.640625,2.63867 2.6400023,2.6400023 0 0 0 2.640625,2.64062 2.6400023,2.6400023 0 0 0 2.640625,-2.64062 2.6400023,2.6400023 0 0 0 -2.640625,-2.63867 z m 9.59961,0 a 2.6400023,2.6400023 0 0 0 -2.640625,2.63867 2.6400023,2.6400023 0 0 0 2.640625,2.64062 2.6400023,2.6400023 0 0 0 2.640625,-2.64062 2.6400023,2.6400023 0 0 0 -2.640625,-2.63867 z m 9.599609,0 a 2.6400023,2.6400023 0 0 0 -2.638672,2.63867 2.6400023,2.6400023 0 0 0 2.638672,2.64062 2.6400023,2.6400023 0 0 0 2.640625,-2.64062 2.6400023,2.6400023 0 0 0 -2.640625,-2.63867 z m 9.601562,0 a 2.6400023,2.6400023 0 0 0 -2.640624,2.63867 2.6400023,2.6400023 0 0 0 2.640624,2.64062 2.6400023,2.6400023 0 0 0 2.638672,-2.64062 2.6400023,2.6400023 0 0 0 -2.638672,-2.63867 z m 9.599608,0 a 2.6400023,2.6400023 0 0 0 -2.640623,2.63867 2.6400023,2.6400023 0 0 0 2.640623,2.64062 2.6400023,2.6400023 0 0 0 2.63867,-2.64062 2.6400023,2.6400023 0 0 0 -2.63867,-2.63867 z m 21.35938,0 v 5.27929 h 5.27929 v -5.27929 z m 12.24023,0 a 2.6400023,2.6400023 0 0 0 -2.64062,2.63867 2.6400023,2.6400023 0 0 0 2.64062,2.64062 2.6400023,2.6400023 0 0 0 2.64063,-2.64062 2.6400023,2.6400023 0 0 0 -2.64063,-2.63867 z m 9.59961,0 a 2.6400023,2.6400023 0 0 0 -2.63867,2.63867 2.6400023,2.6400023 0 0 0 2.63867,2.64062 2.6400023,2.6400023 0 0 0 2.64063,-2.64062 2.6400023,2.6400023 0 0 0 -2.64063,-2.63867 z m 9.59961,0 a 2.6400023,2.6400023 0 0 0 -2.63867,2.63867 2.6400023,2.6400023 0 0 0 2.63867,2.64062 2.6400023,2.6400023 0 0 0 2.64063,-2.64062 2.6400023,2.6400023 0 0 0 -2.64063,-2.63867 z m 9.60156,0 a 2.6400023,2.6400023 0 0 0 -2.64062,2.63867 2.6400023,2.6400023 0 0 0 2.64062,2.64062 2.6400023,2.6400023 0 0 0 2.63867,-2.64062 2.6400023,2.6400023 0 0 0 -2.63867,-2.63867 z m 9.59961,0 a 2.6400023,2.6400023 0 0 0 -2.64062,2.63867 2.6400023,2.6400023 0 0 0 2.64062,2.64062 2.6400023,2.6400023 0 0 0 2.63867,-2.64062 2.6400023,2.6400023 0 0 0 -2.63867,-2.63867 z m 9.59961,0 a 2.6400023,2.6400023 0 0 0 -2.64062,2.63867 2.6400023,2.6400023 0 0 0 2.64062,2.64062 2.6400023,2.6400023 0 0 0 2.64063,-2.64062 2.6400023,2.6400023 0 0 0 -2.64063,-2.63867 z m 9.59961,0 a 2.6400023,2.6400023 0 0 0 -2.63867,2.63867 2.6400023,2.6400023 0 0 0 2.63867,2.64062 2.6400023,2.6400023 0 0 0 2.64063,-2.64062 2.6400023,2.6400023 0 0 0 -2.64063,-2.63867 z m 14.68555,3.52734 a 1.5118146,1.5118146 0 0 0 -1.51172,1.51172 1.5118146,1.5118146 0 0 0 1.51172,1.51172 1.5118146,1.5118146 0 0 0 1.51172,-1.51172 1.5118146,1.5118146 0 0 0 -1.51172,-1.51172 z m 20.4082,0.88672 v 6.04883 h 7.18164 v -6.04883 z m 21.59961,0 v 6.04883 h 7.18164 v -6.04883 z m 19.20117,2.40039 v 6.04687 h 7.17969 v -6.04687 z m 9.59961,0 v 6.04687 h 7.18164 v -6.04687 z m 9.59961,0 v 6.04687 h 7.18164 v -6.04687 z m 9.59961,0 v 6.04687 h 7.18164 v -6.04687 z m 9.60156,0 v 6.04687 h 7.17969 v -6.04687 z m 9.59961,0 v 6.04687 h 7.17969 v -6.04687 z m 9.59961,0 v 6.04687 h 7.18164 v -6.04687 z m 9.59961,0 v 6.04687 h 7.18164 v -6.04687 z m -108,7.48437 v 6.04688 h 7.18164 v -6.04688 z m 21.59961,0 v 6.04688 h 7.18164 v -6.04688 z m -214.808594,3.62891 a 1.5118146,1.5118146 0 0 0 -1.511718,1.51172 1.5118146,1.5118146 0 0 0 1.511718,1.51172 1.5118146,1.5118146 0 0 0 1.511719,-1.51172 1.5118146,1.5118146 0 0 0 -1.511719,-1.51172 z m 124.800784,0 a 1.5118146,1.5118146 0 0 0 -1.51367,1.51172 1.5118146,1.5118146 0 0 0 1.51367,1.51172 1.5118146,1.5118146 0 0 0 1.51172,-1.51172 1.5118146,1.5118146 0 0 0 -1.51172,-1.51172 z m 24,0 a 1.5118146,1.5118146 0 0 0 -1.51172,1.51172 1.5118146,1.5118146 0 0 0 1.51172,1.51172 1.5118146,1.5118146 0 0 0 1.51172,-1.51172 1.5118146,1.5118146 0 0 0 -1.51172,-1.51172 z m 88.79883,0 a 1.5118146,1.5118146 0 0 0 -1.51172,1.51172 1.5118146,1.5118146 0 0 0 1.51172,1.51172 1.5118146,1.5118146 0 0 0 1.51171,-1.51172 1.5118146,1.5118146 0 0 0 -1.51171,-1.51172 z m 9.5996,0 a 1.5118146,1.5118146 0 0 0 -1.51171,1.51172 1.5118146,1.5118146 0 0 0 1.51171,1.51172 1.5118146,1.5118146 0 0 0 1.51172,-1.51172 1.5118146,1.5118146 0 0 0 -1.51172,-1.51172 z m 9.60157,0 a 1.5118146,1.5118146 0 0 0 -1.51172,1.51172 1.5118146,1.5118146 0 0 0 1.51172,1.51172 1.5118146,1.5118146 0 0 0 1.51172,-1.51172 1.5118146,1.5118146 0 0 0 -1.51172,-1.51172 z m 9.59961,0 a 1.5118146,1.5118146 0 0 0 -1.51172,1.51172 1.5118146,1.5118146 0 0 0 1.51172,1.51172 1.5118146,1.5118146 0 0 0 1.51172,-1.51172 1.5118146,1.5118146 0 0 0 -1.51172,-1.51172 z m 9.59961,0 a 1.5118146,1.5118146 0 0 0 -1.51172,1.51172 1.5118146,1.5118146 0 0 0 1.51172,1.51172 1.5118146,1.5118146 0 0 0 1.51171,-1.51172 1.5118146,1.5118146 0 0 0 -1.51171,-1.51172 z m 9.59961,0 a 1.5118146,1.5118146 0 0 0 -1.51172,1.51172 1.5118146,1.5118146 0 0 0 1.51172,1.51172 1.5118146,1.5118146 0 0 0 1.51171,-1.51172 1.5118146,1.5118146 0 0 0 -1.51171,-1.51172 z m 9.5996,0 a 1.5118146,1.5118146 0 0 0 -1.51171,1.51172 1.5118146,1.5118146 0 0 0 1.51171,1.51172 1.5118146,1.5118146 0 0 0 1.51172,-1.51172 1.5118146,1.5118146 0 0 0 -1.51172,-1.51172 z m 9.60157,0 a 1.5118146,1.5118146 0 0 0 -1.51172,1.51172 1.5118146,1.5118146 0 0 0 1.51172,1.51172 1.5118146,1.5118146 0 0 0 1.51172,-1.51172 1.5118146,1.5118146 0 0 0 -1.51172,-1.51172 z M 11.378906,211.2559 a 5.6692979,5.6692979 0 0 0 -5.6699216,5.66797 5.6692979,5.6692979 0 0 0 5.6699216,5.66992 5.6692979,5.6692979 0 0 0 5.667969,-5.66992 5.6692979,5.6692979 0 0 0 -5.667969,-5.66797 z m 348.000004,0 a 5.6692979,5.6692979 0 0 0 -5.66993,5.66797 5.6692979,5.6692979 0 0 0 5.66993,5.66992 5.6692979,5.6692979 0 0 0 5.66992,-5.66992 5.6692979,5.6692979 0 0 0 -5.66992,-5.66797 z m -130.79102,5.04492 v 6.04688 h 7.18164 v -6.04688 z m 21.59961,0 v 6.04688 h 7.18164 v -6.04688 z m -214.808594,0.24024 a 2.7840025,2.7840025 0 0 0 -2.785156,2.7832 2.7840025,2.7840025 0 0 0 2.785156,2.7832 2.7840025,2.7840025 0 0 0 2.783203,-2.7832 2.7840025,2.7840025 0 0 0 -2.783203,-2.7832 z m 9.59961,0 a 2.7840025,2.7840025 0 0 0 -2.785157,2.7832 2.7840025,2.7840025 0 0 0 2.785157,2.7832 2.7840025,2.7840025 0 0 0 2.783203,-2.7832 2.7840025,2.7840025 0 0 0 -2.783203,-2.7832 z m 9.599609,0 a 2.7840025,2.7840025 0 0 0 -2.783203,2.7832 2.7840025,2.7840025 0 0 0 2.783203,2.7832 2.7840025,2.7840025 0 0 0 2.783203,-2.7832 2.7840025,2.7840025 0 0 0 -2.783203,-2.7832 z m 9.599609,0 a 2.7840025,2.7840025 0 0 0 -2.783203,2.7832 2.7840025,2.7840025 0 0 0 2.783203,2.7832 2.7840025,2.7840025 0 0 0 2.785157,-2.7832 2.7840025,2.7840025 0 0 0 -2.785157,-2.7832 z m 9.59961,0 a 2.7840025,2.7840025 0 0 0 -2.783203,2.7832 2.7840025,2.7840025 0 0 0 2.783203,2.7832 2.7840025,2.7840025 0 0 0 2.785156,-2.7832 2.7840025,2.7840025 0 0 0 -2.785156,-2.7832 z m 9.601562,0 a 2.7840025,2.7840025 0 0 0 -2.785156,2.7832 2.7840025,2.7840025 0 0 0 2.785156,2.7832 2.7840025,2.7840025 0 0 0 2.783203,-2.7832 2.7840025,2.7840025 0 0 0 -2.783203,-2.7832 z m 9.59961,0 a 2.7840025,2.7840025 0 0 0 -2.785157,2.7832 2.7840025,2.7840025 0 0 0 2.785157,2.7832 2.7840025,2.7840025 0 0 0 2.783203,-2.7832 2.7840025,2.7840025 0 0 0 -2.783203,-2.7832 z m 9.599604,0 a 2.7840025,2.7840025 0 0 0 -2.783198,2.7832 2.7840025,2.7840025 0 0 0 2.783198,2.7832 2.7840025,2.7840025 0 0 0 2.78321,-2.7832 2.7840025,2.7840025 0 0 0 -2.78321,-2.7832 z m 9.59961,0 a 2.7840025,2.7840025 0 0 0 -2.7832,2.7832 2.7840025,2.7840025 0 0 0 2.7832,2.7832 2.7840025,2.7840025 0 0 0 2.78516,-2.7832 2.7840025,2.7840025 0 0 0 -2.78516,-2.7832 z m 9.59961,0 a 2.7840025,2.7840025 0 0 0 -2.7832,2.7832 2.7840025,2.7840025 0 0 0 2.7832,2.7832 2.7840025,2.7840025 0 0 0 2.78516,-2.7832 2.7840025,2.7840025 0 0 0 -2.78516,-2.7832 z m 9.60157,0 a 2.7840025,2.7840025 0 0 0 -2.78516,2.7832 2.7840025,2.7840025 0 0 0 2.78516,2.7832 2.7840025,2.7840025 0 0 0 2.7832,-2.7832 2.7840025,2.7840025 0 0 0 -2.7832,-2.7832 z m 9.59961,0 a 2.7840025,2.7840025 0 0 0 -2.78516,2.7832 2.7840025,2.7840025 0 0 0 2.78516,2.7832 2.7840025,2.7840025 0 0 0 2.7832,-2.7832 2.7840025,2.7840025 0 0 0 -2.7832,-2.7832 z m 18.91601,0 a 2.7840025,2.7840025 0 0 0 -2.7832,2.7832 2.7840025,2.7840025 0 0 0 2.7832,2.7832 2.7840025,2.7840025 0 0 0 2.78516,-2.7832 2.7840025,2.7840025 0 0 0 -2.78516,-2.7832 z m 19.20117,0 a 2.7840025,2.7840025 0 0 0 -2.78515,2.7832 2.7840025,2.7840025 0 0 0 2.78515,2.7832 2.7840025,2.7840025 0 0 0 2.78321,-2.7832 2.7840025,2.7840025 0 0 0 -2.78321,-2.7832 z m 19.48242,0 a 2.7840025,2.7840025 0 0 0 -2.7832,2.7832 2.7840025,2.7840025 0 0 0 2.7832,2.7832 2.7840025,2.7840025 0 0 0 2.78516,-2.7832 2.7840025,2.7840025 0 0 0 -2.78516,-2.7832 z m 74.4004,0 a 2.7840025,2.7840025 0 0 0 -2.78321,2.7832 2.7840025,2.7840025 0 0 0 2.78321,2.7832 2.7840025,2.7840025 0 0 0 2.78515,-2.7832 2.7840025,2.7840025 0 0 0 -2.78515,-2.7832 z m 9.5996,0 a 2.7840025,2.7840025 0 0 0 -2.7832,2.7832 2.7840025,2.7840025 0 0 0 2.7832,2.7832 2.7840025,2.7840025 0 0 0 2.78516,-2.7832 2.7840025,2.7840025 0 0 0 -2.78516,-2.7832 z m 9.60157,0 a 2.7840025,2.7840025 0 0 0 -2.78516,2.7832 2.7840025,2.7840025 0 0 0 2.78516,2.7832 2.7840025,2.7840025 0 0 0 2.7832,-2.7832 2.7840025,2.7840025 0 0 0 -2.7832,-2.7832 z m 9.59961,0 a 2.7840025,2.7840025 0 0 0 -2.78516,2.7832 2.7840025,2.7840025 0 0 0 2.78516,2.7832 2.7840025,2.7840025 0 0 0 2.7832,-2.7832 2.7840025,2.7840025 0 0 0 -2.7832,-2.7832 z m 9.59961,0 a 2.7840025,2.7840025 0 0 0 -2.78321,2.7832 2.7840025,2.7840025 0 0 0 2.78321,2.7832 2.7840025,2.7840025 0 0 0 2.7832,-2.7832 2.7840025,2.7840025 0 0 0 -2.7832,-2.7832 z m 9.59961,0 a 2.7840025,2.7840025 0 0 0 -2.78321,2.7832 2.7840025,2.7840025 0 0 0 2.78321,2.7832 2.7840025,2.7840025 0 0 0 2.78515,-2.7832 2.7840025,2.7840025 0 0 0 -2.78515,-2.7832 z m 9.5996,0 a 2.7840025,2.7840025 0 0 0 -2.7832,2.7832 2.7840025,2.7840025 0 0 0 2.7832,2.7832 2.7840025,2.7840025 0 0 0 2.78516,-2.7832 2.7840025,2.7840025 0 0 0 -2.78516,-2.7832 z m 9.60157,0 a 2.7840025,2.7840025 0 0 0 -2.78516,2.7832 2.7840025,2.7840025 0 0 0 2.78516,2.7832 2.7840025,2.7840025 0 0 0 2.7832,-2.7832 2.7840025,2.7840025 0 0 0 -2.7832,-2.7832 z m -127.20117,1.27148 a 1.5118146,1.5118146 0 0 0 -1.51172,1.51172 1.5118146,1.5118146 0 0 0 1.51172,1.51172 1.5118146,1.5118146 0 0 0 1.51171,-1.51172 1.5118146,1.5118146 0 0 0 -1.51171,-1.51172 z"
       transform="matrix(0.74999936,0,0,0.74999936,0,-1.0957364e-4)"
       id="square"
       inkscape:connector-curvature="0" />
    <path
       style="color:#000000;font-style:normal;font-variant:normal;font-weight:normal;font-stretch:normal;font-size:medium;line-height:normal;font-family:sans-serif;font-variant-ligatures:normal;font-variant-position:normal;font-variant-caps:normal;font-variant-numeric:normal;font-variant-alternates:normal;font-feature-settings:normal;text-indent:0;text-align:start;text-decoration:none;text-decoration-line:none;text-decoration-style:solid;text-decoration-color:#000000;letter-spacing:normal;word-spacing:normal;text-transform:none;writing-mode:lr-tb;direction:ltr;text-orientation:mixed;dominant-baseline:auto;baseline-shift:baseline;text-anchor:start;white-space:normal;shape-padding:0;clip-rule:nonzero;display:inline;overflow:visible;visibility:visible;opacity:1;isolation:auto;mix-blend-mode:normal;color-interpolation:sRGB;color-interpolation-filters:linearRGB;solid-color:#000000;solid-opacity:1;vector-effect:none;fill:#000000;fill-opacity:1;fill-rule:nonzero;stroke:none;stroke-width:0.5;stroke-linecap:butt;stroke-linejoin:miter;stroke-miterlimit:4;stroke-dasharray:none;stroke-dashoffset:0;stroke-opacity:1;color-rendering:auto;image-rendering:auto;shape-rendering:auto;text-rendering:auto;enable-background:accumulate"
       d="M 0.03742786,0.03762735 V 0.28762737 170.21537 H 277.15658 V 0.03762735 Z M 0.53742788,0.53762737 H 276.65657 V 169.71536 H 0.53742788 Z"
       id="boardoutline"
       inkscape:connector-curvature="0" />
  </g>
</svg>
