<?xml version="1.0" encoding="UTF-8" standalone="no"?>
<!-- Created with Fritzing (http://www.fritzing.org/) -->

<svg
   xmlns:dc="http://purl.org/dc/elements/1.1/"
   xmlns:cc="http://creativecommons.org/ns#"
   xmlns:rdf="http://www.w3.org/1999/02/22-rdf-syntax-ns#"
   xmlns:svg="http://www.w3.org/2000/svg"
   xmlns="http://www.w3.org/2000/svg"
   xmlns:sodipodi="http://sodipodi.sourceforge.net/DTD/sodipodi-0.dtd"
   xmlns:inkscape="http://www.inkscape.org/namespaces/inkscape"
   viewBox="0 0 277.11914 170.17754"
   x="0in"
   y="0in"
   height="2.3635819in"
   width="3.8488803in"
   version="1.2"
   id="svg1489"
   sodipodi:docname="cnc.svg"
   inkscape:version="0.92.4 (unknown)">
  <metadata
     id="metadata1495">
    <rdf:RDF>
      <cc:Work
         rdf:about="">
        <dc:format>image/svg+xml</dc:format>
        <dc:type
           rdf:resource="http://purl.org/dc/dcmitype/StillImage" />
        <dc:title></dc:title>
      </cc:Work>
    </rdf:RDF>
  </metadata>
  <defs
     id="defs1493" />
  <sodipodi:namedview
     pagecolor="#ffffff"
     bordercolor="#666666"
     borderopacity="1"
     objecttolerance="10"
     gridtolerance="10"
     guidetolerance="10"
     inkscape:pageopacity="0"
     inkscape:pageshadow="2"
     inkscape:window-width="1920"
     inkscape:window-height="1103"
     id="namedview1491"
     showgrid="false"
     inkscape:zoom="2.9004225"
     inkscape:cx="184.19182"
     inkscape:cy="94.225593"
     inkscape:window-x="0"
     inkscape:window-y="27"
     inkscape:window-maximized="1"
     inkscape:current-layer="svg1489" />
  <path
     style="display:inline;fill:#000000;stroke:#000000;stroke-width:2.16000009"
     d="M 8.4967445,5.4025791 C 6.148081,5.4023207 4.2440484,7.3063534 4.2443069,9.6550169 4.2440488,12.00368 6.1480813,13.907712 8.4967445,13.907454 10.844836,13.906904 12.747976,12.003108 12.747718,9.6550169 12.747976,7.3069251 10.844836,5.4031293 8.4967445,5.4025791 Z m 260.9997855,0 c -2.34866,-2.597e-4 -4.2527,1.9037733 -4.25244,4.2524378 -2.6e-4,2.3486641 1.90378,4.2526971 4.25244,4.2524371 2.34866,2.6e-4 4.2527,-1.903773 4.25244,-4.2524371 2.6e-4,-2.3486645 -1.90378,-4.2526975 -4.25244,-4.2524378 z M 42.508924,32.956267 c -1.053726,-3.81e-4 -1.908261,0.853498 -1.90869,1.907224 -3.81e-4,1.054298 0.854392,1.909071 1.90869,1.90869 1.053726,-4.29e-4 1.907605,-0.854964 1.907224,-1.90869 -4.28e-4,-1.053153 -0.854071,-1.906796 -1.907224,-1.907224 z m 7.199701,0 c -1.053726,-3.81e-4 -1.908261,0.853498 -1.90869,1.907224 -3.81e-4,1.054298 0.854392,1.909071 1.90869,1.90869 1.053726,-4.28e-4 1.907606,-0.854964 1.907225,-1.90869 -4.28e-4,-1.053154 -0.854071,-1.906796 -1.907225,-1.907224 z m 7.1997,0 c -1.053153,4.28e-4 -1.906796,0.854071 -1.907224,1.907224 -3.81e-4,1.053726 0.853498,1.908261 1.907224,1.90869 1.054298,3.81e-4 1.909071,-0.854392 1.90869,-1.90869 -4.29e-4,-1.053726 -0.854964,-1.907605 -1.90869,-1.907224 z m 7.199702,0 c -1.053154,4.28e-4 -1.906797,0.85407 -1.907225,1.907224 -3.81e-4,1.053726 0.853499,1.908262 1.907225,1.90869 1.054298,3.81e-4 1.909071,-0.854392 1.90869,-1.90869 -4.29e-4,-1.053726 -0.854964,-1.907605 -1.90869,-1.907224 z m 7.201165,0 c -1.053725,-3.81e-4 -1.90826,0.853499 -1.908689,1.907224 -3.81e-4,1.054298 0.854391,1.909071 1.908689,1.90869 1.053726,-4.27e-4 1.907607,-0.854963 1.907226,-1.90869 -4.28e-4,-1.053154 -0.854072,-1.906797 -1.907226,-1.907224 z m 7.199708,0 c -1.053728,-3.84e-4 -1.908267,0.853496 -1.908696,1.907224 -3.81e-4,1.054301 0.854395,1.909075 1.908696,1.90869 1.053723,-4.32e-4 1.907599,-0.854967 1.907218,-1.90869 C 80.41569,33.81034 79.562051,32.956699 78.5089,32.956267 Z m 7.199694,0 c -1.053725,-3.8e-4 -1.908259,0.853499 -1.908688,1.907224 -3.81e-4,1.054297 0.854391,1.90907 1.908688,1.90869 1.054301,3.85e-4 1.909077,-0.854389 1.908696,-1.90869 -4.29e-4,-1.053728 -0.854968,-1.907608 -1.908696,-1.907224 z m 7.199702,0 c -1.053151,4.31e-4 -1.906791,0.854073 -1.907219,1.907224 -3.81e-4,1.053724 0.853495,1.908259 1.907219,1.90869 1.0543,3.84e-4 1.909076,-0.85439 1.908695,-1.90869 -4.29e-4,-1.053728 -0.854967,-1.907608 -1.908695,-1.907224 z m 7.199704,0 c -1.053152,4.3e-4 -1.906793,0.854072 -1.907221,1.907224 -3.81e-4,1.053725 0.853496,1.90826 1.907221,1.90869 1.0543,3.81e-4 1.90907,-0.854392 1.90869,-1.90869 -4.3e-4,-1.053726 -0.85496,-1.907605 -1.90869,-1.907224 z m 7.20117,0 c -1.05373,-3.87e-4 -1.90827,0.853494 -1.9087,1.907224 -3.8e-4,1.054302 0.8544,1.909077 1.9087,1.90869 1.05372,-4.31e-4 1.9076,-0.854966 1.90722,-1.90869 -4.3e-4,-1.053152 -0.85407,-1.906793 -1.90722,-1.907224 z m 7.1997,0 c -1.05373,-3.87e-4 -1.90827,0.853494 -1.9087,1.907224 -3.8e-4,1.054302 0.8544,1.909077 1.9087,1.90869 1.05372,-4.31e-4 1.9076,-0.854966 1.90722,-1.90869 -4.3e-4,-1.053152 -0.85407,-1.906793 -1.90722,-1.907224 z m 7.19969,0 c -1.05372,-3.76e-4 -1.90825,0.853502 -1.90868,1.907224 -3.8e-4,1.054294 0.85439,1.909066 1.90868,1.90869 1.0543,3.87e-4 1.90908,-0.854388 1.9087,-1.90869 -4.3e-4,-1.05373 -0.85497,-1.907611 -1.9087,-1.907224 z m 7.19971,0 c -1.05315,4.31e-4 -1.90679,0.854072 -1.90722,1.907224 -3.8e-4,1.053724 0.8535,1.908259 1.90722,1.90869 1.0543,3.81e-4 1.90907,-0.854392 1.90869,-1.90869 -4.3e-4,-1.053726 -0.85496,-1.907605 -1.90869,-1.907224 z m 7.1997,0 c -1.05315,4.31e-4 -1.90679,0.854072 -1.90722,1.907224 -3.8e-4,1.053724 0.8535,1.908259 1.90722,1.90869 1.0543,3.81e-4 1.90907,-0.854392 1.90869,-1.90869 -4.3e-4,-1.053726 -0.85496,-1.907605 -1.90869,-1.907224 z m 5.29247,0 v 3.812985 h 1.8545 c 0.018,0.0012 0.0361,0.0022 0.0542,0.0029 0.0225,-5.69e-4 0.045,-0.0015 0.0674,-0.0029 h 1.83985 v -3.812985 z m -34.11618,6.165522 c -0.62673,-7.68e-4 -1.13521,0.507059 -1.13525,1.133788 4e-5,0.626729 0.50852,1.134556 1.13525,1.133788 0.62616,-3.9e-5 1.13375,-0.50763 1.13379,-1.133788 -4e-5,-0.626158 -0.50763,-1.133749 -1.13379,-1.133788 z m -7.20116,3.599118 c -0.626159,3.8e-5 -1.133753,0.50763 -1.133792,1.133789 4e-5,0.626159 0.507633,1.133749 1.133792,1.133787 0.62673,7.68e-4 1.13521,-0.507059 1.13525,-1.133787 -4e-5,-0.626729 -0.50852,-1.134557 -1.13525,-1.133789 z m -7.199704,3.600583 c -0.626158,3.9e-5 -1.133749,0.50763 -1.133789,1.133788 3.9e-5,0.626158 0.507631,1.13375 1.133789,1.133789 0.626158,-3.9e-5 1.13375,-0.507631 1.133789,-1.133789 -4e-5,-0.626158 -0.507631,-1.133749 -1.133789,-1.133788 z m -7.199702,3.599118 c -0.626158,3.9e-5 -1.133749,0.50763 -1.133789,1.133788 3.9e-5,0.626158 0.507631,1.13375 1.133789,1.133789 0.626158,-3.9e-5 1.13375,-0.507631 1.133789,-1.133789 -4e-5,-0.626158 -0.507631,-1.133749 -1.133789,-1.133788 z m 10.800284,19.800277 c -0.626158,3.9e-5 -1.133749,0.50763 -1.133789,1.133788 4e-5,0.626158 0.507631,1.133749 1.133789,1.133788 0.626158,-3.9e-5 1.133749,-0.50763 1.133789,-1.133788 -4e-5,-0.626158 -0.507631,-1.133749 -1.133789,-1.133788 z m -10.800284,1.800291 c -0.626158,3.9e-5 -1.133749,0.50763 -1.133789,1.133788 4e-5,0.626158 0.507631,1.133749 1.133789,1.133788 0.626158,-3.9e-5 1.133749,-0.50763 1.133789,-1.133788 -4e-5,-0.626158 -0.507631,-1.133749 -1.133789,-1.133788 z m 119.012606,0 c -0.62616,3.9e-5 -1.13375,0.50763 -1.13379,1.133788 4e-5,0.626158 0.50763,1.133749 1.13379,1.133788 0.62615,-4.4e-5 1.13374,-0.507634 1.13378,-1.133788 -4e-5,-0.626154 -0.50763,-1.133744 -1.13378,-1.133788 z m 7.19969,0 c -0.62615,4.4e-5 -1.13374,0.507634 -1.13378,1.133788 4e-5,0.626154 0.50763,1.133744 1.13378,1.133788 0.62616,-3.9e-5 1.13375,-0.50763 1.13379,-1.133788 -4e-5,-0.626158 -0.50763,-1.133749 -1.13379,-1.133788 z m 7.20117,0 c -0.62616,3.9e-5 -1.13375,0.50763 -1.13379,1.133788 4e-5,0.626158 0.50763,1.133749 1.13379,1.133788 0.62616,-3.9e-5 1.13375,-0.50763 1.13379,-1.133788 -4e-5,-0.626158 -0.50763,-1.133749 -1.13379,-1.133788 z m 7.1997,0 c -0.62616,3.9e-5 -1.13375,0.50763 -1.13379,1.133788 4e-5,0.626158 0.50763,1.133749 1.13379,1.133788 0.62616,-3.9e-5 1.13375,-0.50763 1.13379,-1.133788 -4e-5,-0.626158 -0.50763,-1.133749 -1.13379,-1.133788 z m 7.1997,0 c -0.62615,4.4e-5 -1.13374,0.507634 -1.13378,1.133788 4e-5,0.626154 0.50763,1.133744 1.13378,1.133788 0.62616,-3.9e-5 1.13375,-0.50763 1.13379,-1.133788 -4e-5,-0.626158 -0.50763,-1.133749 -1.13379,-1.133788 z m -52.37984,2.753904 v 3.959466 h 3.95947 V 74.27508 Z m 9.18017,0 c -1.09389,-2.6e-4 -1.98073,0.886576 -1.98047,1.980465 5.5e-4,1.093317 0.88715,1.979261 1.98047,1.979001 1.09274,-5.52e-4 1.97845,-0.886258 1.979,-1.979001 2.6e-4,-1.093315 -0.88569,-1.979913 -1.979,-1.980465 z M 42.508924,76.155937 c -1.053727,-3.81e-4 -1.908263,0.8535 -1.90869,1.907226 -3.81e-4,1.054298 0.854392,1.90907 1.90869,1.908689 1.053725,-4.29e-4 1.907605,-0.854964 1.907224,-1.908689 -4.27e-4,-1.053154 -0.85407,-1.906798 -1.907224,-1.907226 z m 7.199701,0 c -1.053727,-3.81e-4 -1.908263,0.8535 -1.90869,1.907226 -3.81e-4,1.054298 0.854392,1.90907 1.90869,1.908689 1.053726,-4.28e-4 1.907606,-0.854963 1.907225,-1.908689 -4.27e-4,-1.053154 -0.854071,-1.906798 -1.907225,-1.907226 z m 7.1997,0 c -1.053154,4.28e-4 -1.906797,0.854072 -1.907224,1.907226 -3.81e-4,1.053725 0.853499,1.90826 1.907224,1.908689 1.054298,3.81e-4 1.909071,-0.854391 1.90869,-1.908689 -4.27e-4,-1.053726 -0.854963,-1.907607 -1.90869,-1.907226 z m 7.199702,0 c -1.053154,4.28e-4 -1.906798,0.854072 -1.907225,1.907226 -3.81e-4,1.053726 0.853499,1.908261 1.907225,1.908689 1.054298,3.81e-4 1.909071,-0.854391 1.90869,-1.908689 -4.27e-4,-1.053726 -0.854963,-1.907607 -1.90869,-1.907226 z m 7.201165,0 c -1.053726,-3.81e-4 -1.908262,0.8535 -1.908689,1.907226 -3.81e-4,1.054297 0.854392,1.90907 1.908689,1.908689 1.053726,-4.27e-4 1.907607,-0.854963 1.907226,-1.908689 -4.27e-4,-1.053155 -0.854071,-1.906799 -1.907226,-1.907226 z m 7.199708,0 c -1.053729,-3.84e-4 -1.908269,0.853497 -1.908696,1.907226 -3.81e-4,1.0543 0.854396,1.909074 1.908696,1.908689 1.053723,-4.32e-4 1.907599,-0.854966 1.907218,-1.908689 -4.27e-4,-1.053152 -0.854066,-1.906794 -1.907218,-1.907226 z m 7.199694,0 c -1.053726,-3.8e-4 -1.908261,0.8535 -1.908688,1.907226 -3.81e-4,1.054297 0.854391,1.909069 1.908688,1.908689 1.0543,3.85e-4 1.909077,-0.854389 1.908696,-1.908689 -4.27e-4,-1.053729 -0.854967,-1.90761 -1.908696,-1.907226 z m 7.199702,0 c -1.053152,4.31e-4 -1.906792,0.854074 -1.907219,1.907226 -3.81e-4,1.053723 0.853496,1.908258 1.907219,1.908689 1.0543,3.84e-4 1.909076,-0.854389 1.908695,-1.908689 -4.27e-4,-1.053728 -0.854967,-1.90761 -1.908695,-1.907226 z m 7.199704,0 c -1.053153,4.3e-4 -1.906794,0.854073 -1.907221,1.907226 -3.81e-4,1.053724 0.853497,1.908259 1.907221,1.908689 1.0543,3.81e-4 1.90907,-0.854391 1.90869,-1.908689 -4.3e-4,-1.053726 -0.85496,-1.907607 -1.90869,-1.907226 z m 7.20117,0 c -1.05373,-3.87e-4 -1.90827,0.853496 -1.9087,1.907226 -3.8e-4,1.054302 0.8544,1.909076 1.9087,1.908689 1.05372,-4.31e-4 1.9076,-0.854965 1.90722,-1.908689 -4.3e-4,-1.053152 -0.85407,-1.906795 -1.90722,-1.907226 z m 7.1997,0 c -1.05373,-3.87e-4 -1.90827,0.853496 -1.9087,1.907226 -3.8e-4,1.054302 0.8544,1.909076 1.9087,1.908689 1.05372,-4.31e-4 1.9076,-0.854965 1.90722,-1.908689 -4.3e-4,-1.053152 -0.85407,-1.906795 -1.90722,-1.907226 z m 7.19969,0 c -1.05372,-3.76e-4 -1.90825,0.853503 -1.90868,1.907226 -3.8e-4,1.054294 0.85439,1.909065 1.90868,1.908689 1.0543,3.87e-4 1.90908,-0.854387 1.9087,-1.908689 -4.3e-4,-1.05373 -0.85497,-1.907613 -1.9087,-1.907226 z m 7.19971,0 c -1.05315,4.31e-4 -1.90679,0.854074 -1.90722,1.907226 -3.8e-4,1.053724 0.8535,1.908258 1.90722,1.908689 1.0543,3.81e-4 1.90907,-0.854391 1.90869,-1.908689 -4.3e-4,-1.053726 -0.85496,-1.907607 -1.90869,-1.907226 z m 7.1997,0 c -1.05315,4.31e-4 -1.90679,0.854074 -1.90722,1.907226 -3.8e-4,1.053724 0.8535,1.908258 1.90722,1.908689 1.0543,3.81e-4 1.90907,-0.854391 1.90869,-1.908689 -4.3e-4,-1.053726 -0.85496,-1.907607 -1.90869,-1.907226 z m 7.20117,0 c -1.05373,-3.87e-4 -1.90827,0.853496 -1.9087,1.907226 -3.8e-4,1.054302 0.8544,1.909076 1.9087,1.908689 1.05372,-4.31e-4 1.9076,-0.854965 1.90722,-1.908689 -4.3e-4,-1.053152 -0.85407,-1.906795 -1.90722,-1.907226 z m 25.38719,5.210441 c -1.15328,3.26e-4 -2.08789,0.935589 -2.08741,2.088868 3.3e-4,1.152705 0.9347,2.087073 2.08741,2.087399 1.15327,4.75e-4 2.08853,-0.934127 2.08886,-2.087399 4.8e-4,-1.153845 -0.93501,-2.089343 -2.08886,-2.088868 z m -7.19971,1.097167 c -0.54817,-5.72e-4 -0.99293,0.443526 -0.99316,0.991701 2.4e-4,0.548172 0.44499,0.992266 0.99316,0.991694 0.5476,-2.34e-4 0.99146,-0.444093 0.9917,-0.991694 -2.3e-4,-0.547604 -0.4441,-0.991467 -0.9917,-0.991701 z M 40.896132,85.920577 c -0.626158,4e-5 -1.133749,0.507631 -1.133788,1.133789 -7.69e-4,0.626729 0.507059,1.135212 1.133788,1.135251 0.626729,-3.9e-5 1.134557,-0.508522 1.133788,-1.135251 -3.9e-5,-0.626158 -0.50763,-1.133749 -1.133788,-1.133789 z m 104.400798,0 c -0.62616,3.9e-5 -1.13375,0.50763 -1.13379,1.133789 -7.7e-4,0.626729 0.50706,1.135213 1.13379,1.135251 0.62673,-3.8e-5 1.13456,-0.508522 1.13379,-1.135251 -4e-5,-0.626159 -0.50763,-1.13375 -1.13379,-1.133789 z m 44.99996,1.800291 c -0.62616,3.9e-5 -1.13375,0.50763 -1.13379,1.133789 4e-5,0.626159 0.50763,1.13375 1.13379,1.133789 0.62616,-3.9e-5 1.13375,-0.50763 1.13379,-1.133789 -4e-5,-0.626159 -0.50763,-1.13375 -1.13379,-1.133789 z m -53.99995,5.400873 c -0.62616,3.9e-5 -1.13375,0.50763 -1.13379,1.133789 4e-5,0.626159 0.50763,1.13375 1.13379,1.133789 0.62616,-3.9e-5 1.13375,-0.50763 1.13379,-1.133789 -4e-5,-0.626159 -0.50763,-1.13375 -1.13379,-1.133789 z m 30.59909,0 c -0.62615,4.4e-5 -1.13374,0.507634 -1.13378,1.133789 4e-5,0.626155 0.50763,1.133745 1.13378,1.133789 0.62616,-3.9e-5 1.13375,-0.50763 1.13379,-1.133789 -4e-5,-0.626159 -0.50763,-1.13375 -1.13379,-1.133789 z m 16.20116,1.798828 c -0.62616,3.9e-5 -1.13375,0.50763 -1.13379,1.133789 -7.7e-4,0.62673 0.50706,1.135214 1.13379,1.135252 0.62673,-3.8e-5 1.13456,-0.508522 1.13379,-1.135252 -4e-5,-0.626159 -0.50763,-1.13375 -1.13379,-1.133789 z m 21.59911,0 c -0.62616,3.9e-5 -1.13375,0.50763 -1.13379,1.133789 -7.7e-4,0.62673 0.50706,1.135214 1.13379,1.135252 0.62673,-4.4e-5 1.13455,-0.508526 1.13378,-1.135252 -4e-5,-0.626155 -0.50763,-1.133745 -1.13378,-1.133789 z m 7.19969,0 c -0.62615,4.4e-5 -1.13374,0.507634 -1.13378,1.133789 -7.7e-4,0.626726 0.50705,1.135208 1.13378,1.135252 0.62673,-3.8e-5 1.13456,-0.508522 1.13379,-1.135252 -4e-5,-0.626159 -0.50763,-1.13375 -1.13379,-1.133789 z m 7.20117,0 c -0.62616,3.9e-5 -1.13375,0.50763 -1.13379,1.133789 -7.7e-4,0.62673 0.50706,1.135214 1.13379,1.135252 0.62673,-3.8e-5 1.13456,-0.508522 1.13379,-1.135252 -4e-5,-0.626159 -0.50763,-1.13375 -1.13379,-1.133789 z m 7.1997,0 c -0.62616,3.9e-5 -1.13375,0.50763 -1.13379,1.133789 -7.7e-4,0.62673 0.50706,1.135214 1.13379,1.135252 0.62673,-3.8e-5 1.13456,-0.508522 1.13379,-1.135252 -4e-5,-0.626159 -0.50763,-1.13375 -1.13379,-1.133789 z m 7.1997,0 c -0.62615,4.4e-5 -1.13374,0.507634 -1.13378,1.133789 -7.7e-4,0.626726 0.50705,1.135208 1.13378,1.135252 0.62673,-3.8e-5 1.13456,-0.508522 1.13379,-1.135252 -4e-5,-0.626159 -0.50763,-1.13375 -1.13379,-1.133789 z m 7.19971,0 c -0.62616,3.9e-5 -1.13375,0.50763 -1.13379,1.133789 -7.7e-4,0.62673 0.50706,1.135214 1.13379,1.135252 0.62673,-4.4e-5 1.13455,-0.508526 1.13378,-1.135252 -4e-5,-0.626155 -0.50763,-1.133745 -1.13378,-1.133789 z m 7.19969,0 c -0.62615,4.4e-5 -1.13374,0.507634 -1.13378,1.133789 -7.7e-4,0.626726 0.50705,1.135208 1.13378,1.135252 0.62673,-3.8e-5 1.13456,-0.508522 1.13379,-1.135252 -4e-5,-0.626159 -0.50763,-1.13375 -1.13379,-1.133789 z m 7.20117,0 c -0.62616,3.9e-5 -1.13375,0.50763 -1.13379,1.133789 -7.7e-4,0.62673 0.50706,1.135214 1.13379,1.135252 0.62673,-3.8e-5 1.13456,-0.508522 1.13379,-1.135252 -4e-5,-0.626159 -0.50763,-1.13375 -1.13379,-1.133789 z m 7.1997,0 c -0.62616,3.9e-5 -1.13375,0.50763 -1.13379,1.133789 -7.7e-4,0.62673 0.50706,1.135214 1.13379,1.135252 0.62673,-3.8e-5 1.13456,-0.508522 1.13379,-1.135252 -4e-5,-0.626159 -0.50763,-1.13375 -1.13379,-1.133789 z m -156.81286,3.600582 c -0.62616,3.9e-5 -1.13375,0.50763 -1.13379,1.133789 4e-5,0.62616 0.50763,1.13375 1.13379,1.13379 0.62616,-4e-5 1.13375,-0.50763 1.13379,-1.13379 -4e-5,-0.626159 -0.50763,-1.13375 -1.13379,-1.133789 z m 34.41208,2.645499 c -1.15328,3.3e-4 -2.08788,0.93559 -2.0874,2.08887 3.3e-4,1.1527 0.9347,2.08707 2.0874,2.0874 1.15328,4.8e-4 2.08854,-0.93412 2.08887,-2.0874 4.8e-4,-1.15385 -0.93502,-2.08935 -2.08887,-2.08887 z m 7.20117,0 c -1.15385,-4.8e-4 -2.08935,0.93502 -2.08887,2.08887 3.3e-4,1.15328 0.93559,2.08788 2.08887,2.0874 1.1527,-3.3e-4 2.08707,-0.9347 2.0874,-2.0874 4.8e-4,-1.15328 -0.93412,-2.08854 -2.0874,-2.08887 z m 50.39937,0.1084 c -1.09389,-2.6e-4 -1.98073,0.88658 -1.98047,1.98047 -2.5e-4,1.09389 0.88658,1.98072 1.98047,1.98046 1.09389,2.6e-4 1.98072,-0.88657 1.98047,-1.98046 2.6e-4,-1.09389 -0.88658,-1.98073 -1.98047,-1.98047 z m 7.19971,0 c -1.09332,5.5e-4 -1.97927,0.88715 -1.97901,1.98047 -2.5e-4,1.09332 0.88569,1.97991 1.97901,1.98046 1.09388,2.5e-4 1.98071,-0.88658 1.98046,-1.98046 2.6e-4,-1.09389 -0.88657,-1.98072 -1.98046,-1.98047 z m 7.19969,0 c -1.09332,5.5e-4 -1.97926,0.88715 -1.979,1.98047 -2.5e-4,1.09331 0.88569,1.97991 1.979,1.98046 1.09389,2.6e-4 1.98072,-0.88657 1.98047,-1.98046 2.6e-4,-1.09389 -0.88658,-1.98073 -1.98047,-1.98047 z m 7.20117,0 c -1.09389,-2.6e-4 -1.98073,0.88658 -1.98047,1.98047 -2.5e-4,1.09389 0.88658,1.98072 1.98047,1.98046 1.09331,-5.5e-4 1.97925,-0.88715 1.979,-1.98046 2.6e-4,-1.09332 -0.88568,-1.97992 -1.979,-1.98047 z m 7.1997,0 c -1.09389,-2.6e-4 -1.98073,0.88658 -1.98047,1.98047 -2.5e-4,1.09389 0.88658,1.98072 1.98047,1.98046 1.09331,-5.5e-4 1.97925,-0.88715 1.979,-1.98046 2.6e-4,-1.09332 -0.88568,-1.97992 -1.979,-1.98047 z m 7.1997,0 c -1.09389,-2.6e-4 -1.98073,0.88658 -1.98047,1.98047 -2.5e-4,1.09389 0.88658,1.98072 1.98047,1.98046 1.09389,2.6e-4 1.98072,-0.88657 1.98047,-1.98046 2.6e-4,-1.09389 -0.88658,-1.98073 -1.98047,-1.98047 z m 7.19971,0 c -1.09332,5.5e-4 -1.97927,0.88715 -1.97901,1.98047 -2.5e-4,1.09332 0.88569,1.97991 1.97901,1.98046 1.09388,2.5e-4 1.98071,-0.88658 1.98046,-1.98046 2.6e-4,-1.09389 -0.88657,-1.98072 -1.98046,-1.98047 z m 7.19969,0 c -1.09332,5.5e-4 -1.97926,0.88715 -1.979,1.98047 -2.5e-4,1.09331 0.88569,1.97991 1.979,1.98046 1.09389,2.6e-4 1.98072,-0.88657 1.98047,-1.98046 2.6e-4,-1.09389 -0.88658,-1.98073 -1.98047,-1.98047 z m 7.20117,0 c -1.09389,-2.6e-4 -1.98073,0.88658 -1.98047,1.98047 -2.5e-4,1.09389 0.88658,1.98072 1.98047,1.98046 1.09331,-5.5e-4 1.97925,-0.88715 1.979,-1.98046 2.6e-4,-1.09332 -0.88568,-1.97992 -1.979,-1.98047 z m 7.1997,0 c -1.09389,-2.6e-4 -1.98073,0.88658 -1.98047,1.98047 -2.5e-4,1.09389 0.88658,1.98072 1.98047,1.98046 1.09389,2.6e-4 1.98072,-0.88657 1.98047,-1.98046 2.6e-4,-1.09389 -0.88658,-1.98073 -1.98047,-1.98047 z m -71.99994,0.18018 c -0.99434,-1.6e-4 -1.80045,0.80595 -1.80029,1.80029 -1.6e-4,0.99434 0.80595,1.80045 1.80029,1.80029 0.99434,1.6e-4 1.80045,-0.80595 1.80029,-1.80029 1.6e-4,-0.99434 -0.80595,-1.80045 -1.80029,-1.80029 z m -77.61322,2.46679 c -0.62616,4e-5 -1.13375,0.50763 -1.13379,1.13379 4e-5,0.62616 0.50763,1.13375 1.13379,1.13379 0.62616,-4e-5 1.13375,-0.50763 1.13379,-1.13379 -4e-5,-0.62616 -0.50763,-1.13375 -1.13379,-1.13379 z m 77.61322,4.7461 c -0.99434,-1.6e-4 -1.80045,0.80595 -1.80029,1.80029 -1.6e-4,0.99434 0.80595,1.80045 1.80029,1.80029 0.99434,1.6e-4 1.80045,-0.80595 1.80029,-1.80029 1.6e-4,-0.99434 -0.80595,-1.80045 -1.80029,-1.80029 z m -167.400743,4.2539 c -0.626155,4e-5 -1.133745,0.50763 -1.133789,1.13378 3.9e-5,0.62616 0.50763,1.13375 1.133789,1.13379 0.626158,-4e-5 1.133749,-0.50763 1.133788,-1.13379 -4.4e-5,-0.62615 -0.507634,-1.13374 -1.133788,-1.13378 z m -16.1996938,0.84521 c -1.1532742,-4.8e-4 -2.088534,0.93413 -2.0888654,2.0874 -4.753e-4,1.15384 0.935021,2.08934 2.0888654,2.08886 1.1532724,-3.3e-4 2.0878758,-0.93559 2.0874008,-2.08886 -3.312e-4,-1.1527 -0.9346985,-2.08707 -2.0874008,-2.0874 z m 176.4007368,0.95361 c -0.62616,4e-5 -1.13375,0.50763 -1.13379,1.13379 4e-5,0.62616 0.50763,1.13375 1.13379,1.13379 0.62616,-4e-5 1.13375,-0.50763 1.13379,-1.13379 -4e-5,-0.62616 -0.50763,-1.13375 -1.13379,-1.13379 z m -66.81294,1.8003 c -0.62673,-7.7e-4 -1.13521,0.50705 -1.13525,1.13378 4e-5,0.62673 0.50852,1.13456 1.13525,1.13379 0.62616,-4e-5 1.13375,-0.50763 1.13379,-1.13379 -4e-5,-0.62616 -0.50763,-1.13374 -1.13379,-1.13378 z m 7.19971,0 c -0.62616,4e-5 -1.13375,0.50762 -1.13379,1.13378 4e-5,0.62616 0.50763,1.13375 1.13379,1.13379 0.62616,-4e-5 1.13374,-0.50763 1.13378,-1.13379 -4e-5,-0.62615 -0.50763,-1.13374 -1.13378,-1.13378 z M 6.6964532,120.96693 c -1.1538484,-4.8e-4 -2.0893462,0.93502 -2.0888654,2.08887 3.314e-4,1.15327 0.9355912,2.08788 2.0888654,2.0874 1.1527023,-3.3e-4 2.0870696,-0.9347 2.0874008,-2.0874 4.805e-4,-1.15328 -0.9341245,-2.08854 -2.0874008,-2.08887 z m 19.5864098,0.1084 c -1.093318,5.5e-4 -1.979263,0.88715 -1.979003,1.98047 5.52e-4,1.09274 0.886259,1.97845 1.979003,1.979 1.093316,2.6e-4 1.979915,-0.88568 1.980467,-1.979 2.6e-4,-1.09389 -0.886577,-1.98073 -1.980467,-1.98047 z m 7.201165,0 c -1.093889,-2.6e-4 -1.980726,0.88658 -1.980466,1.98047 5.52e-4,1.09332 0.887151,1.97926 1.980466,1.979 1.092744,-5.5e-4 1.978451,-0.88626 1.979003,-1.979 2.6e-4,-1.09332 -0.885685,-1.97992 -1.979003,-1.98047 z m 7.199702,0 c -1.09389,-2.6e-4 -1.980727,0.88658 -1.980467,1.98047 5.52e-4,1.09332 0.887151,1.97926 1.980467,1.979 1.092744,-5.5e-4 1.97845,-0.88626 1.979002,-1.979 2.6e-4,-1.09332 -0.885684,-1.97992 -1.979002,-1.98047 z m 7.199701,0 c -1.09389,-2.6e-4 -1.980728,0.88658 -1.980468,1.98047 5.52e-4,1.09332 0.887152,1.97926 1.980468,1.979 1.093316,2.6e-4 1.979915,-0.88568 1.980467,-1.979 2.6e-4,-1.09389 -0.886577,-1.98073 -1.980467,-1.98047 z m 7.199701,0 c -1.09389,-2.6e-4 -1.980727,0.88658 -1.980467,1.98047 5.52e-4,1.09332 0.887151,1.97926 1.980467,1.979 1.093316,2.6e-4 1.979915,-0.88568 1.980467,-1.979 2.6e-4,-1.09389 -0.886577,-1.98073 -1.980467,-1.98047 z m 7.199701,0 c -1.093318,5.5e-4 -1.979262,0.88715 -1.979002,1.98047 5.52e-4,1.09274 0.886258,1.97845 1.979002,1.979 1.093316,2.6e-4 1.979915,-0.88568 1.980467,-1.979 2.6e-4,-1.09389 -0.886577,-1.98073 -1.980467,-1.98047 z m 7.201165,0 c -1.093889,-2.6e-4 -1.980726,0.88658 -1.980466,1.98047 5.52e-4,1.09332 0.887151,1.97926 1.980466,1.979 1.092744,-5.5e-4 1.978451,-0.88626 1.979003,-1.979 2.6e-4,-1.09332 -0.885685,-1.97992 -1.979003,-1.98047 z m 7.199703,0 c -1.09389,-2.6e-4 -1.980728,0.88658 -1.980468,1.98047 5.52e-4,1.09332 0.887152,1.97926 1.980468,1.979 1.092743,-5.5e-4 1.978449,-0.88626 1.979001,-1.979 2.6e-4,-1.09332 -0.885684,-1.97992 -1.979001,-1.98047 z m 17.999986,0 c -1.093889,-2.6e-4 -1.980724,0.88658 -1.980464,1.98047 5.52e-4,1.09331 0.887149,1.97926 1.980464,1.979 1.092743,-5.5e-4 1.978448,-0.88626 1.979,-1.979 2.6e-4,-1.09332 -0.885683,-1.97992 -1.979,-1.98047 z m 7.199703,0 c -1.09389,-2.6e-4 -1.980725,0.88658 -1.980465,1.98047 5.52e-4,1.09331 0.887155,1.97926 1.980465,1.979 1.09332,2.6e-4 1.97992,-0.88568 1.98047,-1.979 2.6e-4,-1.09389 -0.88658,-1.98073 -1.98047,-1.98047 z m 7.1997,0 c -1.09332,5.5e-4 -1.97926,0.88715 -1.979,1.98047 5.5e-4,1.09274 0.88626,1.97845 1.979,1.979 1.09332,2.6e-4 1.97992,-0.88568 1.98047,-1.979 2.6e-4,-1.09389 -0.88658,-1.98073 -1.98047,-1.98047 z m 7.1997,0 c -1.09332,5.5e-4 -1.97926,0.88715 -1.979,1.98047 5.5e-4,1.09274 0.88626,1.97845 1.979,1.979 1.09332,2.6e-4 1.97992,-0.88568 1.98047,-1.979 2.6e-4,-1.09389 -0.88658,-1.98073 -1.98047,-1.98047 z m 7.20117,0 c -1.09389,-2.6e-4 -1.98073,0.88658 -1.98047,1.98047 5.5e-4,1.09332 0.88715,1.97926 1.98047,1.979 1.09274,-5.5e-4 1.97845,-0.88626 1.979,-1.979 2.6e-4,-1.09332 -0.88568,-1.97992 -1.979,-1.98047 z m 7.1997,0 c -1.09389,-2.6e-4 -1.98073,0.88658 -1.98047,1.98047 5.5e-4,1.09332 0.88715,1.97926 1.98047,1.979 1.09274,-5.5e-4 1.97845,-0.88626 1.979,-1.979 2.6e-4,-1.09332 -0.88568,-1.97992 -1.979,-1.98047 z m 7.1997,0 c -1.09389,-2.6e-4 -1.98073,0.88658 -1.98047,1.98047 5.5e-4,1.09332 0.88715,1.97926 1.98047,1.979 1.09332,2.6e-4 1.97992,-0.88568 1.98047,-1.979 2.6e-4,-1.09389 -0.88658,-1.98073 -1.98047,-1.98047 z m 7.1997,0 c -1.09332,5.5e-4 -1.97926,0.88715 -1.979,1.98047 5.5e-4,1.09274 0.88626,1.97845 1.979,1.979 1.09332,2.6e-4 1.97992,-0.88568 1.98047,-1.979 2.6e-4,-1.09389 -0.88658,-1.98073 -1.98047,-1.98047 z m 50.43306,1.8003 v 3.95946 h 3.96094 v -3.95946 z m 9.18018,0 c -1.09275,5.5e-4 -1.97846,0.88625 -1.97901,1.979 -2.5e-4,1.09332 0.88569,1.97991 1.97901,1.98046 1.09388,2.5e-4 1.98071,-0.88658 1.98046,-1.98046 -5.5e-4,-1.09331 -0.88715,-1.97925 -1.98046,-1.979 z m 7.19969,0 c -1.09274,5.5e-4 -1.97845,0.88626 -1.979,1.979 -2.5e-4,1.09331 0.88569,1.97991 1.979,1.98046 1.09389,2.6e-4 1.98072,-0.88657 1.98047,-1.98046 -5.5e-4,-1.09332 -0.88715,-1.97926 -1.98047,-1.979 z m 7.20117,0 c -1.09332,-2.6e-4 -1.97992,0.88568 -1.98047,1.979 -2.5e-4,1.09389 0.88658,1.98072 1.98047,1.98046 1.09331,-5.5e-4 1.97925,-0.88715 1.979,-1.98046 -5.5e-4,-1.09274 -0.88626,-1.97845 -1.979,-1.979 z m 7.1997,0 c -1.09332,-2.6e-4 -1.97992,0.88568 -1.98047,1.979 -2.5e-4,1.09389 0.88658,1.98072 1.98047,1.98046 1.09331,-5.5e-4 1.97925,-0.88715 1.979,-1.98046 -5.5e-4,-1.09274 -0.88626,-1.97845 -1.979,-1.979 z m 7.1997,0 c -1.09332,-2.6e-4 -1.97992,0.88568 -1.98047,1.979 -2.5e-4,1.09389 0.88658,1.98072 1.98047,1.98046 1.09389,2.6e-4 1.98072,-0.88657 1.98047,-1.98046 -5.5e-4,-1.09332 -0.88715,-1.97926 -1.98047,-1.979 z m 7.19971,0 c -1.09275,5.5e-4 -1.97846,0.88625 -1.97901,1.979 -2.5e-4,1.09332 0.88569,1.97991 1.97901,1.98046 1.09388,2.5e-4 1.98071,-0.88658 1.98046,-1.98046 -5.5e-4,-1.09331 -0.88715,-1.97925 -1.98046,-1.979 z m 7.19969,0 c -1.09274,5.5e-4 -1.97845,0.88626 -1.979,1.979 -2.5e-4,1.09331 0.88569,1.97991 1.979,1.98046 1.09389,2.6e-4 1.98072,-0.88657 1.98047,-1.98046 -5.5e-4,-1.09332 -0.88715,-1.97926 -1.98047,-1.979 z m 7.20117,0 c -1.09332,-2.6e-4 -1.97992,0.88568 -1.98047,1.979 -2.5e-4,1.09389 0.88658,1.98072 1.98047,1.98046 1.09331,-5.5e-4 1.97925,-0.88715 1.979,-1.98046 -5.5e-4,-1.09274 -0.88626,-1.97845 -1.979,-1.979 z m 7.1997,0 c -1.09332,-2.6e-4 -1.97992,0.88568 -1.98047,1.979 -2.5e-4,1.09389 0.88658,1.98072 1.98047,1.98046 1.09389,2.6e-4 1.98072,-0.88657 1.98047,-1.98046 -5.5e-4,-1.09332 -0.88715,-1.97926 -1.98047,-1.979 z m -73.80023,0.84521 c -0.62616,4e-5 -1.13375,0.50763 -1.13379,1.13379 4e-5,0.62616 0.50763,1.13375 1.13379,1.13379 0.62616,-4e-5 1.13374,-0.50763 1.13378,-1.13379 -4e-5,-0.62616 -0.50762,-1.13375 -1.13378,-1.13379 z M 6.6964532,128.16663 c -1.1538484,-4.8e-4 -2.0893462,0.93502 -2.0888654,2.08887 3.314e-4,1.15327 0.9355912,2.08788 2.0888654,2.0874 1.1527023,-3.3e-4 2.0870696,-0.9347 2.0874008,-2.0874 4.805e-4,-1.15328 -0.9341245,-2.08854 -2.0874008,-2.08887 z m 78.9725938,0.27539 c -0.993768,6.5e-4 -1.798989,0.80652 -1.798829,1.80029 -1.66e-4,0.99377 0.805057,1.79965 1.798829,1.8003 0.994343,1.6e-4 1.800457,-0.80596 1.800291,-1.8003 1.6e-4,-0.99434 -0.805952,-1.80045 -1.800291,-1.80029 z m 68.414003,0.0132 c -0.99377,6.5e-4 -1.79899,0.80652 -1.79883,1.80029 6.5e-4,0.9932 0.80563,1.79818 1.79883,1.79883 0.99377,1.6e-4 1.79964,-0.80506 1.80029,-1.79883 1.6e-4,-0.99434 -0.80595,-1.80045 -1.80029,-1.80029 z m 50.61325,4.26562 c -0.62616,4e-5 -1.13375,0.50763 -1.13379,1.13379 4e-5,0.62616 0.50763,1.13375 1.13379,1.13379 0.62616,-4e-5 1.13374,-0.50763 1.13378,-1.13379 -4e-5,-0.62616 -0.50762,-1.13375 -1.13378,-1.13379 z m 7.19969,0 c -0.62616,4e-5 -1.13374,0.50763 -1.13378,1.13379 4e-5,0.62616 0.50762,1.13375 1.13378,1.13379 0.62616,-4e-5 1.13375,-0.50763 1.13379,-1.13379 -4e-5,-0.62616 -0.50763,-1.13375 -1.13379,-1.13379 z m 7.20117,0 c -0.62616,4e-5 -1.13375,0.50763 -1.13379,1.13379 4e-5,0.62616 0.50763,1.13375 1.13379,1.13379 0.62616,-4e-5 1.13375,-0.50763 1.13379,-1.13379 -4e-5,-0.62616 -0.50763,-1.13375 -1.13379,-1.13379 z m 7.1997,0 c -0.62616,4e-5 -1.13375,0.50763 -1.13379,1.13379 4e-5,0.62616 0.50763,1.13375 1.13379,1.13379 0.62616,-4e-5 1.13375,-0.50763 1.13379,-1.13379 -4e-5,-0.62616 -0.50763,-1.13375 -1.13379,-1.13379 z m 7.1997,0 c -0.62616,4e-5 -1.13374,0.50763 -1.13378,1.13379 4e-5,0.62616 0.50762,1.13375 1.13378,1.13379 0.62616,-4e-5 1.13375,-0.50763 1.13379,-1.13379 -4e-5,-0.62616 -0.50763,-1.13375 -1.13379,-1.13379 z m 7.19971,0 c -0.62616,4e-5 -1.13375,0.50763 -1.13379,1.13379 4e-5,0.62616 0.50763,1.13375 1.13379,1.13379 0.62616,-4e-5 1.13374,-0.50763 1.13378,-1.13379 -4e-5,-0.62616 -0.50762,-1.13375 -1.13378,-1.13379 z m 7.19969,0 c -0.62616,4e-5 -1.13374,0.50763 -1.13378,1.13379 4e-5,0.62616 0.50762,1.13375 1.13378,1.13379 0.62616,-4e-5 1.13375,-0.50763 1.13379,-1.13379 -4e-5,-0.62616 -0.50763,-1.13375 -1.13379,-1.13379 z m 7.20117,0 c -0.62616,4e-5 -1.13375,0.50763 -1.13379,1.13379 4e-5,0.62616 0.50763,1.13375 1.13379,1.13379 0.62616,-4e-5 1.13375,-0.50763 1.13379,-1.13379 -4e-5,-0.62616 -0.50763,-1.13375 -1.13379,-1.13379 z M 6.6964532,135.36782 c -1.1532742,-4.8e-4 -2.088534,0.93413 -2.0888654,2.0874 3.369e-4,1.15327 0.9355951,2.08787 2.0888654,2.08739 1.1526984,-3.3e-4 2.087064,-0.93469 2.0874008,-2.08739 -3.312e-4,-1.1527 -0.9346985,-2.08707 -2.0874008,-2.0874 z m 78.9725938,0.2871 c -0.993772,6.5e-4 -1.798995,0.80653 -1.798829,1.8003 -1.6e-4,0.99377 0.805061,1.79964 1.798829,1.80029 0.994339,1.6e-4 1.800451,-0.80595 1.800291,-1.80029 1.66e-4,-0.99434 -0.805948,-1.80046 -1.800291,-1.8003 z m 68.414003,0.0132 c -0.99377,6.5e-4 -1.799,0.80653 -1.79883,1.8003 -1.6e-4,0.99377 0.80506,1.79964 1.79883,1.80029 0.99434,1.6e-4 1.80045,-0.80595 1.80029,-1.80029 1.7e-4,-0.99434 -0.80595,-1.80046 -1.80029,-1.8003 z m 29.01414,2.45361 c -0.62616,4e-5 -1.13375,0.50763 -1.13379,1.13379 4e-5,0.62616 0.50763,1.13375 1.13379,1.13379 0.62616,-4e-5 1.13375,-0.50763 1.13379,-1.13379 -4e-5,-0.62616 -0.50763,-1.13375 -1.13379,-1.13379 z m -158.79333,4.5542 v 3.95947 h 3.95947 v -3.95947 z m 9.180168,0 c -1.093315,-2.6e-4 -1.979914,0.88568 -1.980466,1.979 -2.6e-4,1.09389 0.886577,1.98073 1.980466,1.98047 1.093318,-5.5e-4 1.979263,-0.88715 1.979003,-1.98047 -5.52e-4,-1.09274 -0.886259,-1.97845 -1.979003,-1.979 z m 7.199702,0 c -1.093316,-2.6e-4 -1.979915,0.88568 -1.980467,1.979 -2.6e-4,1.09389 0.886577,1.98073 1.980467,1.98047 1.093318,-5.5e-4 1.979262,-0.88715 1.979002,-1.98047 -5.52e-4,-1.09274 -0.886258,-1.97845 -1.979002,-1.979 z m 7.199701,0 c -1.093316,-2.6e-4 -1.979916,0.88568 -1.980468,1.979 -2.6e-4,1.09389 0.886578,1.98073 1.980468,1.98047 1.09389,2.6e-4 1.980727,-0.88658 1.980467,-1.98047 -5.52e-4,-1.09332 -0.887151,-1.97926 -1.980467,-1.979 z m 7.199701,0 c -1.093316,-2.6e-4 -1.979915,0.88568 -1.980467,1.979 -2.6e-4,1.09389 0.886577,1.98073 1.980467,1.98047 1.09389,2.6e-4 1.980727,-0.88658 1.980467,-1.98047 -5.52e-4,-1.09332 -0.887151,-1.97926 -1.980467,-1.979 z m 7.199701,0 c -1.092744,5.5e-4 -1.97845,0.88626 -1.979002,1.979 -2.6e-4,1.09332 0.885684,1.97992 1.979002,1.98047 1.09389,2.6e-4 1.980727,-0.88658 1.980467,-1.98047 -5.52e-4,-1.09332 -0.887151,-1.97926 -1.980467,-1.979 z m 7.201165,0 c -1.093315,-2.6e-4 -1.979914,0.88568 -1.980466,1.979 -2.6e-4,1.09389 0.886577,1.98073 1.980466,1.98047 1.093318,-5.5e-4 1.979263,-0.88715 1.979003,-1.98047 -5.52e-4,-1.09274 -0.886259,-1.97845 -1.979003,-1.979 z m 7.199703,0 c -1.093316,-2.6e-4 -1.979916,0.88568 -1.980468,1.979 -2.6e-4,1.09389 0.886578,1.98073 1.980468,1.98047 1.093317,-5.5e-4 1.979261,-0.88715 1.979001,-1.98047 -5.52e-4,-1.09274 -0.886258,-1.97845 -1.979001,-1.979 z m 16.019522,0 v 3.95947 h 3.959464 v -3.95947 z m 9.180167,0 c -1.09331,-2.6e-4 -1.979913,0.88569 -1.980465,1.979 -2.6e-4,1.09389 0.886575,1.98073 1.980465,1.98047 1.09389,2.6e-4 1.98073,-0.88658 1.98047,-1.98047 -5.5e-4,-1.09332 -0.88715,-1.97926 -1.98047,-1.979 z m 7.1997,0 c -1.09274,5.5e-4 -1.97845,0.88626 -1.979,1.979 -2.6e-4,1.09332 0.88568,1.97992 1.979,1.98047 1.09389,2.6e-4 1.98073,-0.88658 1.98047,-1.98047 -5.5e-4,-1.09332 -0.88715,-1.97926 -1.98047,-1.979 z m 7.1997,0 c -1.09274,5.5e-4 -1.97845,0.88626 -1.979,1.979 -2.6e-4,1.09332 0.88568,1.97992 1.979,1.98047 1.09389,2.6e-4 1.98073,-0.88658 1.98047,-1.98047 -5.5e-4,-1.09332 -0.88715,-1.97926 -1.98047,-1.979 z m 7.20117,0 c -1.09332,-2.6e-4 -1.97992,0.88568 -1.98047,1.979 -2.6e-4,1.09389 0.88658,1.98073 1.98047,1.98047 1.09332,-5.5e-4 1.97926,-0.88715 1.979,-1.98047 -5.5e-4,-1.09274 -0.88626,-1.97845 -1.979,-1.979 z m 7.1997,0 c -1.09332,-2.6e-4 -1.97992,0.88568 -1.98047,1.979 -2.6e-4,1.09389 0.88658,1.98073 1.98047,1.98047 1.09332,-5.5e-4 1.97926,-0.88715 1.979,-1.98047 -5.5e-4,-1.09274 -0.88626,-1.97845 -1.979,-1.979 z m 7.1997,0 c -1.09332,-2.6e-4 -1.97992,0.88568 -1.98047,1.979 -2.6e-4,1.09389 0.88658,1.98073 1.98047,1.98047 1.09389,2.6e-4 1.98073,-0.88658 1.98047,-1.98047 -5.5e-4,-1.09332 -0.88715,-1.97926 -1.98047,-1.979 z m 7.1997,0 c -1.09274,5.5e-4 -1.97845,0.88626 -1.979,1.979 -2.6e-4,1.09332 0.88568,1.97992 1.979,1.98047 1.09389,2.6e-4 1.98073,-0.88658 1.98047,-1.98047 -5.5e-4,-1.09332 -0.88715,-1.97926 -1.98047,-1.979 z m 11.01415,2.6455 c -0.62616,4e-5 -1.13375,0.50763 -1.13379,1.13379 4e-5,0.62616 0.50763,1.13375 1.13379,1.13379 0.62616,-4e-5 1.13375,-0.50763 1.13379,-1.13379 -4e-5,-0.62616 -0.50763,-1.13375 -1.13379,-1.13379 z M 26.49673,156.12172 c -0.626158,4e-5 -1.133749,0.50763 -1.133788,1.13379 3.9e-5,0.62616 0.50763,1.13375 1.133788,1.13379 0.626158,-4e-5 1.133749,-0.50763 1.133788,-1.13379 -3.9e-5,-0.62616 -0.50763,-1.13375 -1.133788,-1.13379 z m 93.60051,0 c -0.62673,-7.7e-4 -1.13521,0.50706 -1.13525,1.13379 4e-5,0.62673 0.50852,1.13456 1.13525,1.13379 0.62616,-4e-5 1.13375,-0.50763 1.13379,-1.13379 -4e-5,-0.62616 -0.50763,-1.13375 -1.13379,-1.13379 z m 17.99999,0 c -0.62616,4e-5 -1.13375,0.50763 -1.13379,1.13379 4e-5,0.62616 0.50763,1.13375 1.13379,1.13379 0.62616,-4e-5 1.13375,-0.50763 1.13379,-1.13379 -4e-5,-0.62616 -0.50763,-1.13375 -1.13379,-1.13379 z m 66.59907,0 c -0.62616,4e-5 -1.13375,0.50763 -1.13379,1.13379 4e-5,0.62616 0.50763,1.13375 1.13379,1.13379 0.62616,-4e-5 1.13374,-0.50763 1.13378,-1.13379 -4e-5,-0.62616 -0.50762,-1.13375 -1.13378,-1.13379 z m 7.19969,0 c -0.62616,4e-5 -1.13374,0.50763 -1.13378,1.13379 4e-5,0.62616 0.50762,1.13375 1.13378,1.13379 0.62616,-4e-5 1.13375,-0.50763 1.13379,-1.13379 -4e-5,-0.62616 -0.50763,-1.13375 -1.13379,-1.13379 z m 7.20117,0 c -0.62616,4e-5 -1.13375,0.50763 -1.13379,1.13379 4e-5,0.62616 0.50763,1.13375 1.13379,1.13379 0.62616,-4e-5 1.13375,-0.50763 1.13379,-1.13379 -4e-5,-0.62616 -0.50763,-1.13375 -1.13379,-1.13379 z m 7.1997,0 c -0.62616,4e-5 -1.13375,0.50763 -1.13379,1.13379 4e-5,0.62616 0.50763,1.13375 1.13379,1.13379 0.62616,-4e-5 1.13375,-0.50763 1.13379,-1.13379 -4e-5,-0.62616 -0.50763,-1.13375 -1.13379,-1.13379 z m 7.1997,0 c -0.62616,4e-5 -1.13374,0.50763 -1.13378,1.13379 4e-5,0.62616 0.50762,1.13375 1.13378,1.13379 0.62616,-4e-5 1.13375,-0.50763 1.13379,-1.13379 -4e-5,-0.62616 -0.50763,-1.13375 -1.13379,-1.13379 z m 7.19971,0 c -0.62616,4e-5 -1.13375,0.50763 -1.13379,1.13379 4e-5,0.62616 0.50763,1.13375 1.13379,1.13379 0.62616,-4e-5 1.13374,-0.50763 1.13378,-1.13379 -4e-5,-0.62616 -0.50762,-1.13375 -1.13378,-1.13379 z m 7.19969,0 c -0.62616,4e-5 -1.13374,0.50763 -1.13378,1.13379 4e-5,0.62616 0.50762,1.13375 1.13378,1.13379 0.62616,-4e-5 1.13375,-0.50763 1.13379,-1.13379 -4e-5,-0.62616 -0.50763,-1.13375 -1.13379,-1.13379 z m 7.20117,0 c -0.62616,4e-5 -1.13375,0.50763 -1.13379,1.13379 4e-5,0.62616 0.50763,1.13375 1.13379,1.13379 0.62616,-4e-5 1.13375,-0.50763 1.13379,-1.13379 -4e-5,-0.62616 -0.50763,-1.13375 -1.13379,-1.13379 z M 8.4967445,158.40394 c -2.3480942,-2.6e-4 -4.251891,1.90289 -4.2524376,4.25098 -2.542e-4,2.34866 1.9037771,4.25269 4.2524376,4.25243 2.3480885,-5.5e-4 4.2512275,-1.90434 4.2509735,-4.25243 -5.46e-4,-2.34752 -1.903451,-4.25043 -4.2509735,-4.25098 z m 260.9997855,0 c -2.3481,-2.6e-4 -4.25189,1.90288 -4.25244,4.25098 -2.5e-4,2.34866 1.90378,4.25269 4.25244,4.25243 2.34866,2.6e-4 4.25269,-1.90377 4.25244,-4.25243 -5.5e-4,-2.3481 -1.90434,-4.25124 -4.25244,-4.25098 z m -242.9998,3.96387 c -1.153274,-4.8e-4 -2.088535,0.93413 -2.088866,2.0874 3.31e-4,1.15327 0.935592,2.08788 2.088866,2.0874 1.152702,-3.3e-4 2.087069,-0.9347 2.0874,-2.0874 -3.31e-4,-1.1527 -0.934698,-2.08707 -2.0874,-2.0874 z m 7.199701,0 c -1.153274,-4.8e-4 -2.088535,0.93413 -2.088866,2.0874 3.31e-4,1.15327 0.935592,2.08788 2.088866,2.0874 1.152702,-3.3e-4 2.08707,-0.9347 2.087401,-2.0874 -3.31e-4,-1.1527 -0.934699,-2.08707 -2.087401,-2.0874 z m 7.199701,0 c -1.152702,3.3e-4 -2.08707,0.9347 -2.087401,2.0874 3.31e-4,1.1527 0.934699,2.08707 2.087401,2.0874 1.152702,-3.3e-4 2.087069,-0.9347 2.0874,-2.0874 -3.31e-4,-1.1527 -0.934698,-2.08707 -2.0874,-2.0874 z m 7.199701,0 c -1.152702,3.3e-4 -2.08707,0.9347 -2.087401,2.0874 3.31e-4,1.1527 0.934699,2.08707 2.087401,2.0874 1.153274,4.8e-4 2.088535,-0.93413 2.088866,-2.0874 -3.31e-4,-1.15327 -0.935592,-2.08788 -2.088866,-2.0874 z m 7.199701,0 c -1.152702,3.3e-4 -2.087069,0.9347 -2.0874,2.0874 3.31e-4,1.1527 0.934698,2.08707 2.0874,2.0874 1.153274,4.8e-4 2.088534,-0.93413 2.088865,-2.0874 -3.31e-4,-1.15327 -0.935591,-2.08788 -2.088865,-2.0874 z m 7.201166,0 c -1.153274,-4.8e-4 -2.088535,0.93413 -2.088866,2.0874 3.31e-4,1.15327 0.935592,2.08788 2.088866,2.0874 1.152702,-3.3e-4 2.087069,-0.9347 2.0874,-2.0874 -3.31e-4,-1.1527 -0.934698,-2.08707 -2.0874,-2.0874 z m 7.199701,0 c -1.153274,-4.8e-4 -2.088535,0.93413 -2.088866,2.0874 3.31e-4,1.15327 0.935592,2.08788 2.088866,2.0874 1.152702,-3.3e-4 2.08707,-0.9347 2.087401,-2.0874 -3.31e-4,-1.1527 -0.934699,-2.08707 -2.087401,-2.0874 z m 7.1997,0 c -1.152702,3.3e-4 -2.087068,0.9347 -2.087399,2.0874 3.31e-4,1.1527 0.934697,2.08707 2.087399,2.0874 1.152704,-3.3e-4 2.087075,-0.9347 2.087406,-2.0874 -3.31e-4,-1.1527 -0.934702,-2.08707 -2.087406,-2.0874 z m 7.199702,0 c -1.152701,3.3e-4 -2.087067,0.9347 -2.087398,2.0874 3.31e-4,1.1527 0.934697,2.08707 2.087398,2.0874 1.153275,4.8e-4 2.088537,-0.93412 2.088868,-2.0874 -3.31e-4,-1.15328 -0.935593,-2.08788 -2.088868,-2.0874 z m 7.199701,0 c -1.152701,3.3e-4 -2.087067,0.9347 -2.087398,2.0874 3.31e-4,1.1527 0.934697,2.08707 2.087398,2.0874 1.153276,4.8e-4 2.088538,-0.93412 2.088869,-2.0874 -3.31e-4,-1.15328 -0.935593,-2.08788 -2.088869,-2.0874 z m 7.201172,0 c -1.153275,-4.8e-4 -2.088537,0.93412 -2.088868,2.0874 3.31e-4,1.15328 0.935593,2.08788 2.088868,2.0874 1.1527,-3.3e-4 2.087064,-0.9347 2.087394,-2.0874 -3.3e-4,-1.1527 -0.934694,-2.08707 -2.087394,-2.0874 z m 7.199704,0 c -1.15328,-4.8e-4 -2.08854,0.93412 -2.08887,2.0874 3.3e-4,1.15328 0.93559,2.08788 2.08887,2.0874 1.1527,-3.3e-4 2.08707,-0.9347 2.0874,-2.0874 -3.3e-4,-1.1527 -0.9347,-2.08707 -2.0874,-2.0874 z m 14.18699,0 c -1.1527,3.3e-4 -2.08707,0.9347 -2.0874,2.0874 3.3e-4,1.1527 0.9347,2.08707 2.0874,2.0874 1.15328,4.8e-4 2.08854,-0.93412 2.08887,-2.0874 -3.3e-4,-1.15328 -0.93559,-2.08788 -2.08887,-2.0874 z m 14.40087,0 c -1.15327,-4.7e-4 -2.08853,0.93413 -2.08886,2.0874 3.3e-4,1.15327 0.93559,2.08787 2.08886,2.0874 1.1527,-3.3e-4 2.08707,-0.9347 2.0874,-2.0874 -3.3e-4,-1.1527 -0.9347,-2.08707 -2.0874,-2.0874 z m 14.6118,0 c -1.1527,3.3e-4 -2.08707,0.9347 -2.0874,2.0874 3.3e-4,1.1527 0.9347,2.08707 2.0874,2.0874 1.15328,4.8e-4 2.08854,-0.93412 2.08887,-2.0874 -3.3e-4,-1.15328 -0.93559,-2.08788 -2.08887,-2.0874 z m 55.80026,0 c -1.15271,3.3e-4 -2.08708,0.93469 -2.08741,2.0874 3.3e-4,1.15271 0.9347,2.08707 2.08741,2.0874 1.15327,4.7e-4 2.08853,-0.93413 2.08886,-2.0874 -3.3e-4,-1.15327 -0.93559,-2.08787 -2.08886,-2.0874 z m 7.19969,0 c -1.1527,3.3e-4 -2.08707,0.9347 -2.0874,2.0874 3.3e-4,1.1527 0.9347,2.08707 2.0874,2.0874 1.15328,4.8e-4 2.08854,-0.93412 2.08887,-2.0874 -3.3e-4,-1.15328 -0.93559,-2.08788 -2.08887,-2.0874 z m 7.20117,0 c -1.15328,-4.8e-4 -2.08854,0.93412 -2.08887,2.0874 3.3e-4,1.15328 0.93559,2.08788 2.08887,2.0874 1.1527,-3.3e-4 2.08707,-0.9347 2.0874,-2.0874 -3.3e-4,-1.1527 -0.9347,-2.08707 -2.0874,-2.0874 z m 7.1997,0 c -1.15328,-4.8e-4 -2.08854,0.93412 -2.08887,2.0874 3.3e-4,1.15328 0.93559,2.08788 2.08887,2.0874 1.1527,-3.3e-4 2.08707,-0.9347 2.0874,-2.0874 -3.3e-4,-1.1527 -0.9347,-2.08707 -2.0874,-2.0874 z m 7.1997,0 c -1.1527,3.3e-4 -2.08707,0.9347 -2.0874,2.0874 3.3e-4,1.1527 0.9347,2.08707 2.0874,2.0874 1.1527,-3.3e-4 2.08707,-0.9347 2.0874,-2.0874 -3.3e-4,-1.1527 -0.9347,-2.08707 -2.0874,-2.0874 z m 7.19971,0 c -1.15271,3.3e-4 -2.08708,0.93469 -2.08741,2.0874 3.3e-4,1.15271 0.9347,2.08707 2.08741,2.0874 1.15327,4.7e-4 2.08853,-0.93413 2.08886,-2.0874 -3.3e-4,-1.15327 -0.93559,-2.08787 -2.08886,-2.0874 z m 7.19969,0 c -1.1527,3.3e-4 -2.08707,0.9347 -2.0874,2.0874 3.3e-4,1.1527 0.9347,2.08707 2.0874,2.0874 1.15328,4.8e-4 2.08854,-0.93412 2.08887,-2.0874 -3.3e-4,-1.15328 -0.93559,-2.08788 -2.08887,-2.0874 z m 7.20117,0 c -1.15328,-4.8e-4 -2.08854,0.93412 -2.08887,2.0874 3.3e-4,1.15328 0.93559,2.08788 2.08887,2.0874 1.1527,-3.3e-4 2.08707,-0.9347 2.0874,-2.0874 -3.3e-4,-1.1527 -0.9347,-2.08707 -2.0874,-2.0874 z m -95.4008,0.95361 c -0.62616,4e-5 -1.13375,0.50763 -1.13379,1.13379 4e-5,0.62616 0.50763,1.13375 1.13379,1.13379 0.62616,-4e-5 1.13374,-0.50763 1.13378,-1.13379 -4e-5,-0.62616 -0.50762,-1.13375 -1.13378,-1.13379 z"
     id="path17"
     inkscape:connector-curvature="0"
     sodipodi:nodetypes="ccccccccccccccccccccccccccccccccccccccccccccccccccccccccccccccccccccccccccccccccccccccccccccccccccccccccccccccccccccccccccccccccccccccccccccccccccccccccccccccccccccccccccccccccccccccccccccccccccccccccccccccccccccccccccccccccccccccccccccccccccccccccccccccccccccccccccccccccccccccccccccccccccccccccccccccccccccccccccccccccccccccccccccccccccccccccccccccccccccccccccccccccccccccccccccccccccccccccccccccccccccccccccccccccccccccccccccccccccccccccccccccccccccccccccccccccccccccccccccccccccccccccccccccccccccccccccccccccccccccccccccccccccccccccccccccccccccccccccccccccccccccccccccccccccccccccccccccccccccccccccccccccccccccccccccccccccccccccccccccccccccccccccccccccccccccccccccccccccccccccccccccccccccccccccccccccccccccccccccccccccccccccccccccccccccccccccccccccccccccccccccccccccccccccccccccccccccccccccccccccccccccccccccccccccccccccccccccccccccccccccccccccccccccccccccccccccccccccccccccccccccccccccccccccccccccc" />
  <path
     style="color:#000000;font-style:normal;font-variant:normal;font-weight:normal;font-stretch:normal;font-size:medium;line-height:normal;font-family:sans-serif;font-variant-ligatures:normal;font-variant-position:normal;font-variant-caps:normal;font-variant-numeric:normal;font-variant-alternates:normal;font-feature-settings:normal;text-indent:0;text-align:start;text-decoration:none;text-decoration-line:none;text-decoration-style:solid;text-decoration-color:#000000;letter-spacing:normal;word-spacing:normal;text-transform:none;writing-mode:lr-tb;direction:ltr;text-orientation:mixed;dominant-baseline:auto;baseline-shift:baseline;text-anchor:start;white-space:normal;shape-padding:0;clip-rule:nonzero;display:inline;overflow:visible;visibility:visible;opacity:1;isolation:auto;mix-blend-mode:normal;color-interpolation:sRGB;color-interpolation-filters:linearRGB;solid-color:#000000;solid-opacity:1;vector-effect:none;fill:#000000;fill-opacity:1;fill-rule:nonzero;stroke:none;stroke-width:0.5;stroke-linecap:butt;stroke-linejoin:miter;stroke-miterlimit:4;stroke-dasharray:none;stroke-dashoffset:0;stroke-opacity:1;color-rendering:auto;image-rendering:auto;shape-rendering:auto;text-rendering:auto;enable-background:accumulate"
     d="M 0,-1.0914159e-4 V 0.24989087 170.17763 H 277.11915 V -1.0914159e-4 Z M 0.50000001,0.49989087 H 276.61914 V 169.67762 H 0.50000001 Z"
     id="path19"
     inkscape:connector-curvature="0" />
</svg>
